<?xml version="1.0" encoding="utf-8" standalone="no"?>
<!DOCTYPE svg PUBLIC "-//W3C//DTD SVG 1.1//EN"
  "http://www.w3.org/Graphics/SVG/1.1/DTD/svg11.dtd">
<svg xmlns:xlink="http://www.w3.org/1999/xlink" width="432pt" height="288pt" viewBox="0 0 432 288" xmlns="http://www.w3.org/2000/svg" version="1.1">
 <metadata>
  <rdf:RDF xmlns:dc="http://purl.org/dc/elements/1.1/" xmlns:cc="http://creativecommons.org/ns#" xmlns:rdf="http://www.w3.org/1999/02/22-rdf-syntax-ns#">
   <cc:Work>
    <dc:type rdf:resource="http://purl.org/dc/dcmitype/StillImage"/>
    <dc:date>2023-02-01T14:00:31.749213</dc:date>
    <dc:format>image/svg+xml</dc:format>
    <dc:creator>
     <cc:Agent>
      <dc:title>Matplotlib v3.5.1, https://matplotlib.org/</dc:title>
     </cc:Agent>
    </dc:creator>
   </cc:Work>
  </rdf:RDF>
 </metadata>
 <defs>
  <style type="text/css">*{stroke-linejoin: round; stroke-linecap: butt}</style>
 </defs>
 <g id="figure_1">
  <g id="patch_1">
   <path d="M 0 288 
L 432 288 
L 432 0 
L 0 0 
z
" style="fill: #ffffff"/>
  </g>
  <g id="axes_1">
   <g id="patch_2">
    <path d="M 54 256.32 
L 388.8 256.32 
L 388.8 34.56 
L 54 34.56 
z
" style="fill: #ffffff"/>
   </g>
   <g id="matplotlib.axis_1">
    <g id="xtick_1">
     <g id="line2d_1">
      <path d="M 69.218182 256.32 
L 69.218182 34.56 
" clip-path="url(#p4a6126fcab)" style="fill: none; stroke: #b0b0b0; stroke-width: 0.8; stroke-linecap: square"/>
     </g>
     <g id="line2d_2">
      <defs>
       <path id="mac06c39fed" d="M 0 0 
L 0 3.5 
" style="stroke: #000000; stroke-width: 0.8"/>
      </defs>
      <g>
       <use xlink:href="#mac06c39fed" x="69.218182" y="256.32" style="stroke: #000000; stroke-width: 0.8"/>
      </g>
     </g>
     <g id="text_1">
      <!-- 0 -->
      <g transform="translate(66.036932 270.918437)scale(0.1 -0.1)">
       <defs>
        <path id="DejaVuSans-30" d="M 2034 4250 
Q 1547 4250 1301 3770 
Q 1056 3291 1056 2328 
Q 1056 1369 1301 889 
Q 1547 409 2034 409 
Q 2525 409 2770 889 
Q 3016 1369 3016 2328 
Q 3016 3291 2770 3770 
Q 2525 4250 2034 4250 
z
M 2034 4750 
Q 2819 4750 3233 4129 
Q 3647 3509 3647 2328 
Q 3647 1150 3233 529 
Q 2819 -91 2034 -91 
Q 1250 -91 836 529 
Q 422 1150 422 2328 
Q 422 3509 836 4129 
Q 1250 4750 2034 4750 
z
" transform="scale(0.015625)"/>
       </defs>
       <use xlink:href="#DejaVuSans-30"/>
      </g>
     </g>
    </g>
    <g id="xtick_2">
     <g id="line2d_3">
      <path d="M 109.8 256.32 
L 109.8 34.56 
" clip-path="url(#p4a6126fcab)" style="fill: none; stroke: #b0b0b0; stroke-width: 0.8; stroke-linecap: square"/>
     </g>
     <g id="line2d_4">
      <g>
       <use xlink:href="#mac06c39fed" x="109.8" y="256.32" style="stroke: #000000; stroke-width: 0.8"/>
      </g>
     </g>
     <g id="text_2">
      <!-- 500 -->
      <g transform="translate(100.25625 270.918437)scale(0.1 -0.1)">
       <defs>
        <path id="DejaVuSans-35" d="M 691 4666 
L 3169 4666 
L 3169 4134 
L 1269 4134 
L 1269 2991 
Q 1406 3038 1543 3061 
Q 1681 3084 1819 3084 
Q 2600 3084 3056 2656 
Q 3513 2228 3513 1497 
Q 3513 744 3044 326 
Q 2575 -91 1722 -91 
Q 1428 -91 1123 -41 
Q 819 9 494 109 
L 494 744 
Q 775 591 1075 516 
Q 1375 441 1709 441 
Q 2250 441 2565 725 
Q 2881 1009 2881 1497 
Q 2881 1984 2565 2268 
Q 2250 2553 1709 2553 
Q 1456 2553 1204 2497 
Q 953 2441 691 2322 
L 691 4666 
z
" transform="scale(0.015625)"/>
       </defs>
       <use xlink:href="#DejaVuSans-35"/>
       <use xlink:href="#DejaVuSans-30" x="63.623047"/>
       <use xlink:href="#DejaVuSans-30" x="127.246094"/>
      </g>
     </g>
    </g>
    <g id="xtick_3">
     <g id="line2d_5">
      <path d="M 150.381818 256.32 
L 150.381818 34.56 
" clip-path="url(#p4a6126fcab)" style="fill: none; stroke: #b0b0b0; stroke-width: 0.8; stroke-linecap: square"/>
     </g>
     <g id="line2d_6">
      <g>
       <use xlink:href="#mac06c39fed" x="150.381818" y="256.32" style="stroke: #000000; stroke-width: 0.8"/>
      </g>
     </g>
     <g id="text_3">
      <!-- 1000 -->
      <g transform="translate(137.656818 270.918437)scale(0.1 -0.1)">
       <defs>
        <path id="DejaVuSans-31" d="M 794 531 
L 1825 531 
L 1825 4091 
L 703 3866 
L 703 4441 
L 1819 4666 
L 2450 4666 
L 2450 531 
L 3481 531 
L 3481 0 
L 794 0 
L 794 531 
z
" transform="scale(0.015625)"/>
       </defs>
       <use xlink:href="#DejaVuSans-31"/>
       <use xlink:href="#DejaVuSans-30" x="63.623047"/>
       <use xlink:href="#DejaVuSans-30" x="127.246094"/>
       <use xlink:href="#DejaVuSans-30" x="190.869141"/>
      </g>
     </g>
    </g>
    <g id="xtick_4">
     <g id="line2d_7">
      <path d="M 190.963636 256.32 
L 190.963636 34.56 
" clip-path="url(#p4a6126fcab)" style="fill: none; stroke: #b0b0b0; stroke-width: 0.8; stroke-linecap: square"/>
     </g>
     <g id="line2d_8">
      <g>
       <use xlink:href="#mac06c39fed" x="190.963636" y="256.32" style="stroke: #000000; stroke-width: 0.8"/>
      </g>
     </g>
     <g id="text_4">
      <!-- 1500 -->
      <g transform="translate(178.238636 270.918437)scale(0.1 -0.1)">
       <use xlink:href="#DejaVuSans-31"/>
       <use xlink:href="#DejaVuSans-35" x="63.623047"/>
       <use xlink:href="#DejaVuSans-30" x="127.246094"/>
       <use xlink:href="#DejaVuSans-30" x="190.869141"/>
      </g>
     </g>
    </g>
    <g id="xtick_5">
     <g id="line2d_9">
      <path d="M 231.545455 256.32 
L 231.545455 34.56 
" clip-path="url(#p4a6126fcab)" style="fill: none; stroke: #b0b0b0; stroke-width: 0.8; stroke-linecap: square"/>
     </g>
     <g id="line2d_10">
      <g>
       <use xlink:href="#mac06c39fed" x="231.545455" y="256.32" style="stroke: #000000; stroke-width: 0.8"/>
      </g>
     </g>
     <g id="text_5">
      <!-- 2000 -->
      <g transform="translate(218.820455 270.918437)scale(0.1 -0.1)">
       <defs>
        <path id="DejaVuSans-32" d="M 1228 531 
L 3431 531 
L 3431 0 
L 469 0 
L 469 531 
Q 828 903 1448 1529 
Q 2069 2156 2228 2338 
Q 2531 2678 2651 2914 
Q 2772 3150 2772 3378 
Q 2772 3750 2511 3984 
Q 2250 4219 1831 4219 
Q 1534 4219 1204 4116 
Q 875 4013 500 3803 
L 500 4441 
Q 881 4594 1212 4672 
Q 1544 4750 1819 4750 
Q 2544 4750 2975 4387 
Q 3406 4025 3406 3419 
Q 3406 3131 3298 2873 
Q 3191 2616 2906 2266 
Q 2828 2175 2409 1742 
Q 1991 1309 1228 531 
z
" transform="scale(0.015625)"/>
       </defs>
       <use xlink:href="#DejaVuSans-32"/>
       <use xlink:href="#DejaVuSans-30" x="63.623047"/>
       <use xlink:href="#DejaVuSans-30" x="127.246094"/>
       <use xlink:href="#DejaVuSans-30" x="190.869141"/>
      </g>
     </g>
    </g>
    <g id="xtick_6">
     <g id="line2d_11">
      <path d="M 272.127273 256.32 
L 272.127273 34.56 
" clip-path="url(#p4a6126fcab)" style="fill: none; stroke: #b0b0b0; stroke-width: 0.8; stroke-linecap: square"/>
     </g>
     <g id="line2d_12">
      <g>
       <use xlink:href="#mac06c39fed" x="272.127273" y="256.32" style="stroke: #000000; stroke-width: 0.8"/>
      </g>
     </g>
     <g id="text_6">
      <!-- 2500 -->
      <g transform="translate(259.402273 270.918437)scale(0.1 -0.1)">
       <use xlink:href="#DejaVuSans-32"/>
       <use xlink:href="#DejaVuSans-35" x="63.623047"/>
       <use xlink:href="#DejaVuSans-30" x="127.246094"/>
       <use xlink:href="#DejaVuSans-30" x="190.869141"/>
      </g>
     </g>
    </g>
    <g id="xtick_7">
     <g id="line2d_13">
      <path d="M 312.709091 256.32 
L 312.709091 34.56 
" clip-path="url(#p4a6126fcab)" style="fill: none; stroke: #b0b0b0; stroke-width: 0.8; stroke-linecap: square"/>
     </g>
     <g id="line2d_14">
      <g>
       <use xlink:href="#mac06c39fed" x="312.709091" y="256.32" style="stroke: #000000; stroke-width: 0.8"/>
      </g>
     </g>
     <g id="text_7">
      <!-- 3000 -->
      <g transform="translate(299.984091 270.918437)scale(0.1 -0.1)">
       <defs>
        <path id="DejaVuSans-33" d="M 2597 2516 
Q 3050 2419 3304 2112 
Q 3559 1806 3559 1356 
Q 3559 666 3084 287 
Q 2609 -91 1734 -91 
Q 1441 -91 1130 -33 
Q 819 25 488 141 
L 488 750 
Q 750 597 1062 519 
Q 1375 441 1716 441 
Q 2309 441 2620 675 
Q 2931 909 2931 1356 
Q 2931 1769 2642 2001 
Q 2353 2234 1838 2234 
L 1294 2234 
L 1294 2753 
L 1863 2753 
Q 2328 2753 2575 2939 
Q 2822 3125 2822 3475 
Q 2822 3834 2567 4026 
Q 2313 4219 1838 4219 
Q 1578 4219 1281 4162 
Q 984 4106 628 3988 
L 628 4550 
Q 988 4650 1302 4700 
Q 1616 4750 1894 4750 
Q 2613 4750 3031 4423 
Q 3450 4097 3450 3541 
Q 3450 3153 3228 2886 
Q 3006 2619 2597 2516 
z
" transform="scale(0.015625)"/>
       </defs>
       <use xlink:href="#DejaVuSans-33"/>
       <use xlink:href="#DejaVuSans-30" x="63.623047"/>
       <use xlink:href="#DejaVuSans-30" x="127.246094"/>
       <use xlink:href="#DejaVuSans-30" x="190.869141"/>
      </g>
     </g>
    </g>
    <g id="xtick_8">
     <g id="line2d_15">
      <path d="M 353.290909 256.32 
L 353.290909 34.56 
" clip-path="url(#p4a6126fcab)" style="fill: none; stroke: #b0b0b0; stroke-width: 0.8; stroke-linecap: square"/>
     </g>
     <g id="line2d_16">
      <g>
       <use xlink:href="#mac06c39fed" x="353.290909" y="256.32" style="stroke: #000000; stroke-width: 0.8"/>
      </g>
     </g>
     <g id="text_8">
      <!-- 3500 -->
      <g transform="translate(340.565909 270.918437)scale(0.1 -0.1)">
       <use xlink:href="#DejaVuSans-33"/>
       <use xlink:href="#DejaVuSans-35" x="63.623047"/>
       <use xlink:href="#DejaVuSans-30" x="127.246094"/>
       <use xlink:href="#DejaVuSans-30" x="190.869141"/>
      </g>
     </g>
    </g>
    <g id="text_9">
     <!-- Batch number -->
     <g transform="translate(185.924219 284.596563)scale(0.1 -0.1)">
      <defs>
       <path id="DejaVuSans-42" d="M 1259 2228 
L 1259 519 
L 2272 519 
Q 2781 519 3026 730 
Q 3272 941 3272 1375 
Q 3272 1813 3026 2020 
Q 2781 2228 2272 2228 
L 1259 2228 
z
M 1259 4147 
L 1259 2741 
L 2194 2741 
Q 2656 2741 2882 2914 
Q 3109 3088 3109 3444 
Q 3109 3797 2882 3972 
Q 2656 4147 2194 4147 
L 1259 4147 
z
M 628 4666 
L 2241 4666 
Q 2963 4666 3353 4366 
Q 3744 4066 3744 3513 
Q 3744 3084 3544 2831 
Q 3344 2578 2956 2516 
Q 3422 2416 3680 2098 
Q 3938 1781 3938 1306 
Q 3938 681 3513 340 
Q 3088 0 2303 0 
L 628 0 
L 628 4666 
z
" transform="scale(0.015625)"/>
       <path id="DejaVuSans-61" d="M 2194 1759 
Q 1497 1759 1228 1600 
Q 959 1441 959 1056 
Q 959 750 1161 570 
Q 1363 391 1709 391 
Q 2188 391 2477 730 
Q 2766 1069 2766 1631 
L 2766 1759 
L 2194 1759 
z
M 3341 1997 
L 3341 0 
L 2766 0 
L 2766 531 
Q 2569 213 2275 61 
Q 1981 -91 1556 -91 
Q 1019 -91 701 211 
Q 384 513 384 1019 
Q 384 1609 779 1909 
Q 1175 2209 1959 2209 
L 2766 2209 
L 2766 2266 
Q 2766 2663 2505 2880 
Q 2244 3097 1772 3097 
Q 1472 3097 1187 3025 
Q 903 2953 641 2809 
L 641 3341 
Q 956 3463 1253 3523 
Q 1550 3584 1831 3584 
Q 2591 3584 2966 3190 
Q 3341 2797 3341 1997 
z
" transform="scale(0.015625)"/>
       <path id="DejaVuSans-74" d="M 1172 4494 
L 1172 3500 
L 2356 3500 
L 2356 3053 
L 1172 3053 
L 1172 1153 
Q 1172 725 1289 603 
Q 1406 481 1766 481 
L 2356 481 
L 2356 0 
L 1766 0 
Q 1100 0 847 248 
Q 594 497 594 1153 
L 594 3053 
L 172 3053 
L 172 3500 
L 594 3500 
L 594 4494 
L 1172 4494 
z
" transform="scale(0.015625)"/>
       <path id="DejaVuSans-63" d="M 3122 3366 
L 3122 2828 
Q 2878 2963 2633 3030 
Q 2388 3097 2138 3097 
Q 1578 3097 1268 2742 
Q 959 2388 959 1747 
Q 959 1106 1268 751 
Q 1578 397 2138 397 
Q 2388 397 2633 464 
Q 2878 531 3122 666 
L 3122 134 
Q 2881 22 2623 -34 
Q 2366 -91 2075 -91 
Q 1284 -91 818 406 
Q 353 903 353 1747 
Q 353 2603 823 3093 
Q 1294 3584 2113 3584 
Q 2378 3584 2631 3529 
Q 2884 3475 3122 3366 
z
" transform="scale(0.015625)"/>
       <path id="DejaVuSans-68" d="M 3513 2113 
L 3513 0 
L 2938 0 
L 2938 2094 
Q 2938 2591 2744 2837 
Q 2550 3084 2163 3084 
Q 1697 3084 1428 2787 
Q 1159 2491 1159 1978 
L 1159 0 
L 581 0 
L 581 4863 
L 1159 4863 
L 1159 2956 
Q 1366 3272 1645 3428 
Q 1925 3584 2291 3584 
Q 2894 3584 3203 3211 
Q 3513 2838 3513 2113 
z
" transform="scale(0.015625)"/>
       <path id="DejaVuSans-20" transform="scale(0.015625)"/>
       <path id="DejaVuSans-6e" d="M 3513 2113 
L 3513 0 
L 2938 0 
L 2938 2094 
Q 2938 2591 2744 2837 
Q 2550 3084 2163 3084 
Q 1697 3084 1428 2787 
Q 1159 2491 1159 1978 
L 1159 0 
L 581 0 
L 581 3500 
L 1159 3500 
L 1159 2956 
Q 1366 3272 1645 3428 
Q 1925 3584 2291 3584 
Q 2894 3584 3203 3211 
Q 3513 2838 3513 2113 
z
" transform="scale(0.015625)"/>
       <path id="DejaVuSans-75" d="M 544 1381 
L 544 3500 
L 1119 3500 
L 1119 1403 
Q 1119 906 1312 657 
Q 1506 409 1894 409 
Q 2359 409 2629 706 
Q 2900 1003 2900 1516 
L 2900 3500 
L 3475 3500 
L 3475 0 
L 2900 0 
L 2900 538 
Q 2691 219 2414 64 
Q 2138 -91 1772 -91 
Q 1169 -91 856 284 
Q 544 659 544 1381 
z
M 1991 3584 
L 1991 3584 
z
" transform="scale(0.015625)"/>
       <path id="DejaVuSans-6d" d="M 3328 2828 
Q 3544 3216 3844 3400 
Q 4144 3584 4550 3584 
Q 5097 3584 5394 3201 
Q 5691 2819 5691 2113 
L 5691 0 
L 5113 0 
L 5113 2094 
Q 5113 2597 4934 2840 
Q 4756 3084 4391 3084 
Q 3944 3084 3684 2787 
Q 3425 2491 3425 1978 
L 3425 0 
L 2847 0 
L 2847 2094 
Q 2847 2600 2669 2842 
Q 2491 3084 2119 3084 
Q 1678 3084 1418 2786 
Q 1159 2488 1159 1978 
L 1159 0 
L 581 0 
L 581 3500 
L 1159 3500 
L 1159 2956 
Q 1356 3278 1631 3431 
Q 1906 3584 2284 3584 
Q 2666 3584 2933 3390 
Q 3200 3197 3328 2828 
z
" transform="scale(0.015625)"/>
       <path id="DejaVuSans-62" d="M 3116 1747 
Q 3116 2381 2855 2742 
Q 2594 3103 2138 3103 
Q 1681 3103 1420 2742 
Q 1159 2381 1159 1747 
Q 1159 1113 1420 752 
Q 1681 391 2138 391 
Q 2594 391 2855 752 
Q 3116 1113 3116 1747 
z
M 1159 2969 
Q 1341 3281 1617 3432 
Q 1894 3584 2278 3584 
Q 2916 3584 3314 3078 
Q 3713 2572 3713 1747 
Q 3713 922 3314 415 
Q 2916 -91 2278 -91 
Q 1894 -91 1617 61 
Q 1341 213 1159 525 
L 1159 0 
L 581 0 
L 581 4863 
L 1159 4863 
L 1159 2969 
z
" transform="scale(0.015625)"/>
       <path id="DejaVuSans-65" d="M 3597 1894 
L 3597 1613 
L 953 1613 
Q 991 1019 1311 708 
Q 1631 397 2203 397 
Q 2534 397 2845 478 
Q 3156 559 3463 722 
L 3463 178 
Q 3153 47 2828 -22 
Q 2503 -91 2169 -91 
Q 1331 -91 842 396 
Q 353 884 353 1716 
Q 353 2575 817 3079 
Q 1281 3584 2069 3584 
Q 2775 3584 3186 3129 
Q 3597 2675 3597 1894 
z
M 3022 2063 
Q 3016 2534 2758 2815 
Q 2500 3097 2075 3097 
Q 1594 3097 1305 2825 
Q 1016 2553 972 2059 
L 3022 2063 
z
" transform="scale(0.015625)"/>
       <path id="DejaVuSans-72" d="M 2631 2963 
Q 2534 3019 2420 3045 
Q 2306 3072 2169 3072 
Q 1681 3072 1420 2755 
Q 1159 2438 1159 1844 
L 1159 0 
L 581 0 
L 581 3500 
L 1159 3500 
L 1159 2956 
Q 1341 3275 1631 3429 
Q 1922 3584 2338 3584 
Q 2397 3584 2469 3576 
Q 2541 3569 2628 3553 
L 2631 2963 
z
" transform="scale(0.015625)"/>
      </defs>
      <use xlink:href="#DejaVuSans-42"/>
      <use xlink:href="#DejaVuSans-61" x="68.603516"/>
      <use xlink:href="#DejaVuSans-74" x="129.882812"/>
      <use xlink:href="#DejaVuSans-63" x="169.091797"/>
      <use xlink:href="#DejaVuSans-68" x="224.072266"/>
      <use xlink:href="#DejaVuSans-20" x="287.451172"/>
      <use xlink:href="#DejaVuSans-6e" x="319.238281"/>
      <use xlink:href="#DejaVuSans-75" x="382.617188"/>
      <use xlink:href="#DejaVuSans-6d" x="445.996094"/>
      <use xlink:href="#DejaVuSans-62" x="543.408203"/>
      <use xlink:href="#DejaVuSans-65" x="606.884766"/>
      <use xlink:href="#DejaVuSans-72" x="668.408203"/>
     </g>
    </g>
   </g>
   <g id="matplotlib.axis_2">
    <g id="ytick_1">
     <g id="line2d_17">
      <path d="M 54 249.44 
L 388.8 249.44 
" clip-path="url(#p4a6126fcab)" style="fill: none; stroke: #b0b0b0; stroke-width: 0.8; stroke-linecap: square"/>
     </g>
     <g id="line2d_18">
      <defs>
       <path id="m43cbd114a6" d="M 0 0 
L -3.5 0 
" style="stroke: #000000; stroke-width: 0.8"/>
      </defs>
      <g>
       <use xlink:href="#m43cbd114a6" x="54" y="249.44" style="stroke: #000000; stroke-width: 0.8"/>
      </g>
     </g>
     <g id="text_10">
      <!-- 0 -->
      <g transform="translate(40.6375 253.239219)scale(0.1 -0.1)">
       <use xlink:href="#DejaVuSans-30"/>
      </g>
     </g>
    </g>
    <g id="ytick_2">
     <g id="line2d_19">
      <path d="M 54 208.48 
L 388.8 208.48 
" clip-path="url(#p4a6126fcab)" style="fill: none; stroke: #b0b0b0; stroke-width: 0.8; stroke-linecap: square"/>
     </g>
     <g id="line2d_20">
      <g>
       <use xlink:href="#m43cbd114a6" x="54" y="208.48" style="stroke: #000000; stroke-width: 0.8"/>
      </g>
     </g>
     <g id="text_11">
      <!-- 20 -->
      <g transform="translate(34.275 212.279219)scale(0.1 -0.1)">
       <use xlink:href="#DejaVuSans-32"/>
       <use xlink:href="#DejaVuSans-30" x="63.623047"/>
      </g>
     </g>
    </g>
    <g id="ytick_3">
     <g id="line2d_21">
      <path d="M 54 167.52 
L 388.8 167.52 
" clip-path="url(#p4a6126fcab)" style="fill: none; stroke: #b0b0b0; stroke-width: 0.8; stroke-linecap: square"/>
     </g>
     <g id="line2d_22">
      <g>
       <use xlink:href="#m43cbd114a6" x="54" y="167.52" style="stroke: #000000; stroke-width: 0.8"/>
      </g>
     </g>
     <g id="text_12">
      <!-- 40 -->
      <g transform="translate(34.275 171.319219)scale(0.1 -0.1)">
       <defs>
        <path id="DejaVuSans-34" d="M 2419 4116 
L 825 1625 
L 2419 1625 
L 2419 4116 
z
M 2253 4666 
L 3047 4666 
L 3047 1625 
L 3713 1625 
L 3713 1100 
L 3047 1100 
L 3047 0 
L 2419 0 
L 2419 1100 
L 313 1100 
L 313 1709 
L 2253 4666 
z
" transform="scale(0.015625)"/>
       </defs>
       <use xlink:href="#DejaVuSans-34"/>
       <use xlink:href="#DejaVuSans-30" x="63.623047"/>
      </g>
     </g>
    </g>
    <g id="ytick_4">
     <g id="line2d_23">
      <path d="M 54 126.56 
L 388.8 126.56 
" clip-path="url(#p4a6126fcab)" style="fill: none; stroke: #b0b0b0; stroke-width: 0.8; stroke-linecap: square"/>
     </g>
     <g id="line2d_24">
      <g>
       <use xlink:href="#m43cbd114a6" x="54" y="126.56" style="stroke: #000000; stroke-width: 0.8"/>
      </g>
     </g>
     <g id="text_13">
      <!-- 60 -->
      <g transform="translate(34.275 130.359219)scale(0.1 -0.1)">
       <defs>
        <path id="DejaVuSans-36" d="M 2113 2584 
Q 1688 2584 1439 2293 
Q 1191 2003 1191 1497 
Q 1191 994 1439 701 
Q 1688 409 2113 409 
Q 2538 409 2786 701 
Q 3034 994 3034 1497 
Q 3034 2003 2786 2293 
Q 2538 2584 2113 2584 
z
M 3366 4563 
L 3366 3988 
Q 3128 4100 2886 4159 
Q 2644 4219 2406 4219 
Q 1781 4219 1451 3797 
Q 1122 3375 1075 2522 
Q 1259 2794 1537 2939 
Q 1816 3084 2150 3084 
Q 2853 3084 3261 2657 
Q 3669 2231 3669 1497 
Q 3669 778 3244 343 
Q 2819 -91 2113 -91 
Q 1303 -91 875 529 
Q 447 1150 447 2328 
Q 447 3434 972 4092 
Q 1497 4750 2381 4750 
Q 2619 4750 2861 4703 
Q 3103 4656 3366 4563 
z
" transform="scale(0.015625)"/>
       </defs>
       <use xlink:href="#DejaVuSans-36"/>
       <use xlink:href="#DejaVuSans-30" x="63.623047"/>
      </g>
     </g>
    </g>
    <g id="ytick_5">
     <g id="line2d_25">
      <path d="M 54 85.6 
L 388.8 85.6 
" clip-path="url(#p4a6126fcab)" style="fill: none; stroke: #b0b0b0; stroke-width: 0.8; stroke-linecap: square"/>
     </g>
     <g id="line2d_26">
      <g>
       <use xlink:href="#m43cbd114a6" x="54" y="85.6" style="stroke: #000000; stroke-width: 0.8"/>
      </g>
     </g>
     <g id="text_14">
      <!-- 80 -->
      <g transform="translate(34.275 89.399219)scale(0.1 -0.1)">
       <defs>
        <path id="DejaVuSans-38" d="M 2034 2216 
Q 1584 2216 1326 1975 
Q 1069 1734 1069 1313 
Q 1069 891 1326 650 
Q 1584 409 2034 409 
Q 2484 409 2743 651 
Q 3003 894 3003 1313 
Q 3003 1734 2745 1975 
Q 2488 2216 2034 2216 
z
M 1403 2484 
Q 997 2584 770 2862 
Q 544 3141 544 3541 
Q 544 4100 942 4425 
Q 1341 4750 2034 4750 
Q 2731 4750 3128 4425 
Q 3525 4100 3525 3541 
Q 3525 3141 3298 2862 
Q 3072 2584 2669 2484 
Q 3125 2378 3379 2068 
Q 3634 1759 3634 1313 
Q 3634 634 3220 271 
Q 2806 -91 2034 -91 
Q 1263 -91 848 271 
Q 434 634 434 1313 
Q 434 1759 690 2068 
Q 947 2378 1403 2484 
z
M 1172 3481 
Q 1172 3119 1398 2916 
Q 1625 2713 2034 2713 
Q 2441 2713 2670 2916 
Q 2900 3119 2900 3481 
Q 2900 3844 2670 4047 
Q 2441 4250 2034 4250 
Q 1625 4250 1398 4047 
Q 1172 3844 1172 3481 
z
" transform="scale(0.015625)"/>
       </defs>
       <use xlink:href="#DejaVuSans-38"/>
       <use xlink:href="#DejaVuSans-30" x="63.623047"/>
      </g>
     </g>
    </g>
    <g id="ytick_6">
     <g id="line2d_27">
      <path d="M 54 44.64 
L 388.8 44.64 
" clip-path="url(#p4a6126fcab)" style="fill: none; stroke: #b0b0b0; stroke-width: 0.8; stroke-linecap: square"/>
     </g>
     <g id="line2d_28">
      <g>
       <use xlink:href="#m43cbd114a6" x="54" y="44.64" style="stroke: #000000; stroke-width: 0.8"/>
      </g>
     </g>
     <g id="text_15">
      <!-- 100 -->
      <g transform="translate(27.9125 48.439219)scale(0.1 -0.1)">
       <use xlink:href="#DejaVuSans-31"/>
       <use xlink:href="#DejaVuSans-30" x="63.623047"/>
       <use xlink:href="#DejaVuSans-30" x="127.246094"/>
      </g>
     </g>
    </g>
    <g id="text_16">
     <!-- % -->
     <g transform="translate(21.832812 150.190781)rotate(-90)scale(0.1 -0.1)">
      <defs>
       <path id="DejaVuSans-25" d="M 4653 2053 
Q 4381 2053 4226 1822 
Q 4072 1591 4072 1178 
Q 4072 772 4226 539 
Q 4381 306 4653 306 
Q 4919 306 5073 539 
Q 5228 772 5228 1178 
Q 5228 1588 5073 1820 
Q 4919 2053 4653 2053 
z
M 4653 2450 
Q 5147 2450 5437 2106 
Q 5728 1763 5728 1178 
Q 5728 594 5436 251 
Q 5144 -91 4653 -91 
Q 4153 -91 3862 251 
Q 3572 594 3572 1178 
Q 3572 1766 3864 2108 
Q 4156 2450 4653 2450 
z
M 1428 4353 
Q 1159 4353 1004 4120 
Q 850 3888 850 3481 
Q 850 3069 1003 2837 
Q 1156 2606 1428 2606 
Q 1700 2606 1854 2837 
Q 2009 3069 2009 3481 
Q 2009 3884 1853 4118 
Q 1697 4353 1428 4353 
z
M 4250 4750 
L 4750 4750 
L 1831 -91 
L 1331 -91 
L 4250 4750 
z
M 1428 4750 
Q 1922 4750 2215 4408 
Q 2509 4066 2509 3481 
Q 2509 2891 2217 2550 
Q 1925 2209 1428 2209 
Q 931 2209 642 2551 
Q 353 2894 353 3481 
Q 353 4063 643 4406 
Q 934 4750 1428 4750 
z
" transform="scale(0.015625)"/>
      </defs>
      <use xlink:href="#DejaVuSans-25"/>
     </g>
    </g>
   </g>
   <g id="line2d_29">
    <path d="M 69.218182 227.04 
L 69.380509 227.04 
L 69.542836 217.44 
L 69.786327 230.24 
L 69.867491 230.24 
L 69.948655 236.64 
L 70.029818 223.84 
L 70.110982 230.24 
L 70.192145 246.24 
L 70.273309 223.84 
L 70.354473 233.44 
L 70.435636 214.24 
L 70.679127 236.64 
L 70.922618 230.24 
L 71.003782 230.24 
L 71.166109 214.24 
L 71.247273 239.84 
L 71.328436 217.44 
L 71.4096 236.64 
L 71.571927 227.04 
L 71.653091 223.84 
L 71.896582 236.64 
L 71.977745 227.04 
L 72.058909 236.64 
L 72.221236 214.24 
L 72.383564 230.24 
L 72.545891 217.44 
L 72.789382 239.84 
L 72.870545 220.64 
L 72.951709 233.44 
L 73.032873 230.24 
L 73.114036 236.64 
L 73.1952 214.24 
L 73.357527 227.04 
L 73.519855 233.44 
L 73.601018 214.24 
L 73.763345 239.84 
L 74.006836 214.24 
L 74.088 227.04 
L 74.169164 220.64 
L 74.250327 236.64 
L 74.412655 227.04 
L 74.493818 233.44 
L 74.574982 220.64 
L 74.656145 223.84 
L 74.737309 230.24 
L 74.818473 220.64 
L 74.899636 236.64 
L 74.9808 223.84 
L 75.061964 230.24 
L 75.143127 214.24 
L 75.305455 236.64 
L 75.386618 220.64 
L 75.467782 223.84 
L 75.548945 230.24 
L 75.630109 227.04 
L 75.792436 239.84 
L 75.8736 217.44 
L 76.035927 230.24 
L 76.117091 214.24 
L 76.198255 230.24 
L 76.279418 227.04 
L 76.360582 204.64 
L 76.441745 211.04 
L 76.522909 239.84 
L 76.604073 233.44 
L 76.685236 233.44 
L 76.7664 223.84 
L 76.847564 236.64 
L 76.928727 217.44 
L 77.009891 236.64 
L 77.091055 233.44 
L 77.172218 230.24 
L 77.253382 239.84 
L 77.334545 236.64 
L 77.415709 223.84 
L 77.496873 227.04 
L 77.6592 233.44 
L 77.740364 233.44 
L 77.902691 230.24 
L 77.983855 214.24 
L 78.065018 243.04 
L 78.227345 217.44 
L 78.308509 220.64 
L 78.389673 230.24 
L 78.470836 220.64 
L 78.552 223.84 
L 78.714327 230.24 
L 78.795491 239.84 
L 78.876655 227.04 
L 78.957818 233.44 
L 79.038982 223.84 
L 79.120145 230.24 
L 79.201309 223.84 
L 79.363636 230.24 
L 79.607127 220.64 
L 79.688291 223.84 
L 79.850618 220.64 
L 79.931782 220.64 
L 80.012945 223.84 
L 80.094109 236.64 
L 80.175273 220.64 
L 80.256436 233.44 
L 80.3376 223.84 
L 80.418764 230.24 
L 80.499927 220.64 
L 80.662255 243.04 
L 80.824582 223.84 
L 80.905745 230.24 
L 80.986909 207.84 
L 81.068073 223.84 
L 81.149236 217.44 
L 81.311564 239.84 
L 81.392727 236.64 
L 81.555055 227.04 
L 81.636218 236.64 
L 81.717382 230.24 
L 81.798545 239.84 
L 81.960873 217.44 
L 82.042036 230.24 
L 82.1232 207.84 
L 82.285527 233.44 
L 82.366691 230.24 
L 82.447855 233.44 
L 82.529018 214.24 
L 82.610182 223.84 
L 82.691345 217.44 
L 82.853673 236.64 
L 82.934836 236.64 
L 83.016 233.44 
L 83.097164 211.04 
L 83.178327 236.64 
L 83.259491 233.44 
L 83.340655 233.44 
L 83.502982 214.24 
L 83.665309 243.04 
L 83.746473 227.04 
L 83.827636 230.24 
L 83.9088 230.24 
L 83.989964 217.44 
L 84.071127 230.24 
L 84.152291 214.24 
L 84.314618 230.24 
L 84.476945 223.84 
L 84.720436 223.84 
L 84.8016 214.24 
L 84.882764 233.44 
L 84.963927 230.24 
L 85.126255 214.24 
L 85.288582 230.24 
L 85.369745 233.44 
L 85.613236 214.24 
L 85.6944 239.84 
L 85.775564 233.44 
L 85.856727 217.44 
L 85.937891 230.24 
L 86.019055 227.04 
L 86.100218 220.64 
L 86.181382 233.44 
L 86.343709 223.84 
L 86.424873 233.44 
L 86.668364 217.44 
L 86.749527 223.84 
L 86.993018 211.04 
L 87.074182 223.84 
L 87.155345 198.24 
L 87.236509 223.84 
L 87.398836 211.04 
L 87.48 207.84 
L 87.642327 233.44 
L 87.723491 207.84 
L 87.804655 217.44 
L 87.885818 198.24 
L 87.966982 220.64 
L 88.210473 191.84 
L 88.291636 220.64 
L 88.3728 191.84 
L 88.453964 204.64 
L 88.535127 188.64 
L 88.616291 227.04 
L 88.778618 211.04 
L 88.859782 217.44 
L 89.022109 211.04 
L 89.103273 211.04 
L 89.184436 227.04 
L 89.2656 204.64 
L 89.346764 207.84 
L 89.427927 195.04 
L 89.509091 207.84 
L 89.671418 201.44 
L 89.752582 204.64 
L 89.833745 198.24 
L 89.914909 217.44 
L 89.996073 211.04 
L 90.239564 201.44 
L 90.320727 220.64 
L 90.483055 195.04 
L 90.564218 207.84 
L 90.726545 191.84 
L 90.888873 214.24 
L 91.132364 195.04 
L 91.213527 198.24 
L 91.294691 188.64 
L 91.375855 211.04 
L 91.457018 175.84 
L 91.538182 217.44 
L 91.619345 198.24 
L 91.700509 220.64 
L 91.862836 182.24 
L 91.944 223.84 
L 92.025164 217.44 
L 92.106327 198.24 
L 92.187491 223.84 
L 92.349818 201.44 
L 92.430982 214.24 
L 92.512145 211.04 
L 92.593309 204.64 
L 92.755636 211.04 
L 92.8368 185.44 
L 92.917964 195.04 
L 93.080291 188.64 
L 93.161455 195.04 
L 93.242618 220.64 
L 93.404945 188.64 
L 93.486109 204.64 
L 93.567273 201.44 
L 93.648436 198.24 
L 93.7296 204.64 
L 93.973091 159.84 
L 94.216582 201.44 
L 94.297745 175.84 
L 94.378909 198.24 
L 94.460073 195.04 
L 94.541236 198.24 
L 94.703564 179.04 
L 94.784727 195.04 
L 94.865891 182.24 
L 95.028218 201.44 
L 95.109382 191.84 
L 95.271709 201.44 
L 95.352873 195.04 
L 95.434036 207.84 
L 95.5152 191.84 
L 95.596364 198.24 
L 95.677527 175.84 
L 95.758691 179.04 
L 95.839855 201.44 
L 95.921018 169.44 
L 96.002182 179.04 
L 96.164509 201.44 
L 96.245673 172.64 
L 96.326836 191.84 
L 96.408 175.84 
L 96.651491 198.24 
L 96.732655 166.24 
L 96.813818 172.64 
L 96.894982 179.04 
L 96.976145 175.84 
L 97.219636 207.84 
L 97.3008 179.04 
L 97.463127 201.44 
L 97.625455 172.64 
L 97.706618 188.64 
L 97.868945 169.44 
L 98.031273 188.64 
L 98.112436 182.24 
L 98.1936 191.84 
L 98.437091 169.44 
L 98.518255 188.64 
L 98.599418 163.04 
L 98.680582 198.24 
L 98.761745 185.44 
L 98.842909 188.64 
L 98.924073 153.44 
L 99.005236 175.84 
L 99.0864 172.64 
L 99.167564 175.84 
L 99.248727 185.44 
L 99.411055 172.64 
L 99.492218 182.24 
L 99.573382 179.04 
L 99.735709 172.64 
L 99.9792 188.64 
L 100.222691 166.24 
L 100.385018 182.24 
L 100.466182 153.44 
L 100.547345 182.24 
L 100.790836 131.04 
L 100.872 169.44 
L 100.953164 156.64 
L 101.034327 169.44 
L 101.196655 140.64 
L 101.277818 169.44 
L 101.358982 150.24 
L 101.440145 159.84 
L 101.602473 150.24 
L 101.683636 153.44 
L 101.7648 179.04 
L 101.927127 156.64 
L 102.008291 153.44 
L 102.089455 140.64 
L 102.251782 159.84 
L 102.332945 156.64 
L 102.495273 147.04 
L 102.576436 143.84 
L 102.6576 147.04 
L 102.738764 175.84 
L 102.901091 159.84 
L 102.982255 159.84 
L 103.063418 156.64 
L 103.144582 159.84 
L 103.225745 115.04 
L 103.388073 153.44 
L 103.5504 134.24 
L 103.631564 137.44 
L 103.793891 153.44 
L 103.875055 121.44 
L 104.037382 159.84 
L 104.199709 137.44 
L 104.280873 131.04 
L 104.362036 137.44 
L 104.4432 124.64 
L 104.524364 140.64 
L 104.605527 124.64 
L 104.686691 159.84 
L 104.767855 156.64 
L 104.930182 124.64 
L 105.173673 143.84 
L 105.336 127.84 
L 105.417164 134.24 
L 105.498327 172.64 
L 105.660655 131.04 
L 105.904145 150.24 
L 106.066473 140.64 
L 106.147636 140.64 
L 106.2288 147.04 
L 106.309964 124.64 
L 106.391127 137.44 
L 106.472291 108.64 
L 106.553455 118.24 
L 106.634618 143.84 
L 106.715782 140.64 
L 106.796945 115.04 
L 106.878109 137.44 
L 107.040436 108.64 
L 107.1216 111.84 
L 107.202764 147.04 
L 107.365091 115.04 
L 107.446255 137.44 
L 107.527418 124.64 
L 107.608582 127.84 
L 107.770909 150.24 
L 107.852073 121.44 
L 107.933236 131.04 
L 108.0144 143.84 
L 108.095564 111.84 
L 108.176727 131.04 
L 108.339055 118.24 
L 108.420218 127.84 
L 108.501382 124.64 
L 108.663709 127.84 
L 108.744873 111.84 
L 108.826036 121.44 
L 108.9072 99.04 
L 109.069527 127.84 
L 109.150691 115.04 
L 109.231855 115.04 
L 109.313018 131.04 
L 109.394182 89.44 
L 109.475345 137.44 
L 109.556509 105.44 
L 109.718836 159.84 
L 109.8 115.04 
L 109.881164 143.84 
L 109.962327 118.24 
L 110.124655 143.84 
L 110.286982 108.64 
L 110.368145 115.04 
L 110.449309 102.24 
L 110.611636 137.44 
L 110.855127 102.24 
L 110.936291 108.64 
L 111.017455 131.04 
L 111.098618 127.84 
L 111.342109 105.44 
L 111.423273 105.44 
L 111.504436 121.44 
L 111.666764 108.64 
L 111.747927 105.44 
L 111.910255 121.44 
L 111.991418 118.24 
L 112.072582 131.04 
L 112.153745 99.04 
L 112.234909 108.64 
L 112.316073 124.64 
L 112.4784 86.24 
L 112.721891 118.24 
L 112.803055 95.84 
L 113.046545 118.24 
L 113.208873 99.04 
L 113.290036 127.84 
L 113.3712 83.04 
L 113.452364 124.64 
L 113.614691 79.84 
L 113.695855 108.64 
L 113.777018 99.04 
L 113.858182 115.04 
L 114.020509 79.84 
L 114.182836 111.84 
L 114.264 92.64 
L 114.345164 111.84 
L 114.426327 89.44 
L 114.588655 121.44 
L 114.669818 79.84 
L 114.750982 105.44 
L 114.832145 95.84 
L 114.913309 115.04 
L 114.994473 108.64 
L 115.075636 105.44 
L 115.1568 118.24 
L 115.319127 92.64 
L 115.400291 89.44 
L 115.562618 108.64 
L 115.643782 105.44 
L 115.724945 95.84 
L 115.806109 102.24 
L 115.887273 92.64 
L 116.130764 108.64 
L 116.293091 105.44 
L 116.374255 105.44 
L 116.536582 102.24 
L 116.617745 102.24 
L 116.780073 95.84 
L 116.861236 118.24 
L 117.023564 102.24 
L 117.104727 105.44 
L 117.267055 92.64 
L 117.348218 92.64 
L 117.429382 95.84 
L 117.510545 86.24 
L 117.591709 95.84 
L 117.672873 86.24 
L 117.754036 99.04 
L 117.8352 95.84 
L 117.916364 79.84 
L 117.997527 134.24 
L 118.159855 86.24 
L 118.241018 92.64 
L 118.322182 89.44 
L 118.484509 95.84 
L 118.565673 118.24 
L 118.646836 76.64 
L 118.728 86.24 
L 118.809164 83.04 
L 118.890327 118.24 
L 118.971491 76.64 
L 119.052655 124.64 
L 119.133818 121.44 
L 119.296145 76.64 
L 119.377309 102.24 
L 119.458473 95.84 
L 119.539636 83.04 
L 119.6208 86.24 
L 119.701964 99.04 
L 119.783127 95.84 
L 119.864291 95.84 
L 119.945455 83.04 
L 120.026618 95.84 
L 120.270109 73.44 
L 120.432436 118.24 
L 120.5136 99.04 
L 120.594764 111.84 
L 120.675927 105.44 
L 120.757091 89.44 
L 120.838255 102.24 
L 120.919418 99.04 
L 121.081745 105.44 
L 121.162909 76.64 
L 121.244073 83.04 
L 121.4064 102.24 
L 121.487564 92.64 
L 121.568727 121.44 
L 121.649891 111.84 
L 121.731055 67.04 
L 121.812218 89.44 
L 121.893382 73.44 
L 121.974545 89.44 
L 122.055709 86.24 
L 122.136873 89.44 
L 122.2992 102.24 
L 122.542691 83.04 
L 122.623855 95.84 
L 122.705018 70.24 
L 122.867345 86.24 
L 122.948509 70.24 
L 123.029673 92.64 
L 123.110836 73.44 
L 123.273164 89.44 
L 123.354327 86.24 
L 123.435491 102.24 
L 123.678982 73.44 
L 123.760145 99.04 
L 123.841309 76.64 
L 124.003636 102.24 
L 124.165964 76.64 
L 124.247127 89.44 
L 124.328291 79.84 
L 124.409455 89.44 
L 124.490618 83.04 
L 124.571782 89.44 
L 124.652945 86.24 
L 124.734109 73.44 
L 124.815273 89.44 
L 124.896436 76.64 
L 124.9776 79.84 
L 125.058764 83.04 
L 125.221091 63.84 
L 125.464582 86.24 
L 125.545745 76.64 
L 125.626909 86.24 
L 125.708073 83.04 
L 125.789236 73.44 
L 125.951564 99.04 
L 126.032727 83.04 
L 126.113891 95.84 
L 126.195055 79.84 
L 126.357382 92.64 
L 126.519709 79.84 
L 126.682036 92.64 
L 126.7632 63.84 
L 126.925527 89.44 
L 127.087855 79.84 
L 127.250182 86.24 
L 127.331345 83.04 
L 127.412509 95.84 
L 127.493673 70.24 
L 127.574836 73.44 
L 127.656 63.84 
L 127.899491 102.24 
L 127.980655 83.04 
L 128.061818 108.64 
L 128.305309 76.64 
L 128.467636 76.64 
L 128.629964 95.84 
L 128.792291 83.04 
L 128.873455 89.44 
L 128.954618 86.24 
L 129.035782 95.84 
L 129.116945 89.44 
L 129.198109 70.24 
L 129.360436 86.24 
L 129.4416 76.64 
L 129.603927 83.04 
L 129.766255 92.64 
L 129.847418 76.64 
L 129.928582 99.04 
L 130.009745 76.64 
L 130.172073 86.24 
L 130.253236 70.24 
L 130.3344 86.24 
L 130.415564 79.84 
L 130.577891 89.44 
L 130.659055 76.64 
L 130.740218 83.04 
L 130.821382 73.44 
L 130.902545 76.64 
L 130.983709 70.24 
L 131.146036 89.44 
L 131.2272 86.24 
L 131.308364 70.24 
L 131.470691 86.24 
L 131.633018 73.44 
L 131.795345 76.64 
L 131.876509 57.44 
L 132.038836 83.04 
L 132.12 76.64 
L 132.201164 67.04 
L 132.363491 83.04 
L 132.444655 79.84 
L 132.525818 54.24 
L 132.688145 92.64 
L 132.850473 67.04 
L 133.093964 86.24 
L 133.256291 63.84 
L 133.337455 79.84 
L 133.499782 70.24 
L 133.662109 89.44 
L 133.743273 73.44 
L 133.9056 89.44 
L 133.986764 73.44 
L 134.149091 92.64 
L 134.230255 73.44 
L 134.311418 89.44 
L 134.392582 79.84 
L 134.473745 86.24 
L 134.636073 70.24 
L 134.717236 73.44 
L 134.879564 89.44 
L 134.960727 67.04 
L 135.041891 73.44 
L 135.123055 86.24 
L 135.204218 70.24 
L 135.285382 73.44 
L 135.366545 67.04 
L 135.447709 95.84 
L 135.528873 73.44 
L 135.610036 76.64 
L 135.6912 83.04 
L 135.772364 73.44 
L 135.853527 95.84 
L 135.934691 92.64 
L 136.015855 67.04 
L 136.178182 99.04 
L 136.259345 73.44 
L 136.421673 99.04 
L 136.502836 73.44 
L 136.584 76.64 
L 136.665164 79.84 
L 136.746327 89.44 
L 136.827491 76.64 
L 136.908655 83.04 
L 136.989818 60.64 
L 137.070982 73.44 
L 137.152145 67.04 
L 137.233309 92.64 
L 137.395636 73.44 
L 137.4768 83.04 
L 137.557964 76.64 
L 137.720291 92.64 
L 137.801455 57.44 
L 137.882618 79.84 
L 137.963782 76.64 
L 138.044945 79.84 
L 138.126109 70.24 
L 138.207273 73.44 
L 138.288436 86.24 
L 138.3696 83.04 
L 138.531927 67.04 
L 138.613091 70.24 
L 138.694255 70.24 
L 138.775418 73.44 
L 138.937745 83.04 
L 139.100073 73.44 
L 139.2624 86.24 
L 139.424727 83.04 
L 139.505891 89.44 
L 139.587055 73.44 
L 139.749382 79.84 
L 139.911709 70.24 
L 139.992873 73.44 
L 140.074036 60.64 
L 140.1552 67.04 
L 140.236364 83.04 
L 140.317527 67.04 
L 140.398691 89.44 
L 140.479855 57.44 
L 140.561018 92.64 
L 140.642182 79.84 
L 140.723345 76.64 
L 140.804509 63.84 
L 140.966836 83.04 
L 141.048 67.04 
L 141.129164 79.84 
L 141.210327 63.84 
L 141.291491 92.64 
L 141.372655 67.04 
L 141.453818 83.04 
L 141.616145 76.64 
L 141.778473 86.24 
L 142.021964 63.84 
L 142.265455 76.64 
L 142.427782 73.44 
L 142.508945 89.44 
L 142.752436 63.84 
L 142.914764 95.84 
L 142.995927 73.44 
L 143.077091 79.84 
L 143.239418 67.04 
L 143.401745 76.64 
L 143.482909 73.44 
L 143.564073 60.64 
L 143.645236 83.04 
L 143.7264 76.64 
L 143.807564 76.64 
L 143.888727 83.04 
L 143.969891 67.04 
L 144.051055 76.64 
L 144.132218 70.24 
L 144.375709 83.04 
L 144.456873 70.24 
L 144.538036 83.04 
L 144.6192 57.44 
L 144.862691 92.64 
L 144.943855 76.64 
L 145.025018 99.04 
L 145.187345 70.24 
L 145.430836 95.84 
L 145.512 73.44 
L 145.593164 79.84 
L 145.755491 70.24 
L 145.917818 86.24 
L 145.998982 70.24 
L 146.242473 86.24 
L 146.323636 70.24 
L 146.485964 86.24 
L 146.567127 70.24 
L 146.648291 79.84 
L 146.810618 67.04 
L 146.972945 79.84 
L 147.135273 63.84 
L 147.216436 86.24 
L 147.2976 83.04 
L 147.459927 83.04 
L 147.703418 73.44 
L 147.784582 76.64 
L 147.865745 67.04 
L 148.028073 83.04 
L 148.109236 76.64 
L 148.271564 79.84 
L 148.352727 79.84 
L 148.433891 76.64 
L 148.515055 63.84 
L 148.596218 73.44 
L 148.677382 67.04 
L 148.839709 89.44 
L 148.920873 57.44 
L 149.002036 63.84 
L 149.164364 86.24 
L 149.245527 67.04 
L 149.326691 73.44 
L 149.407855 76.64 
L 149.489018 60.64 
L 149.570182 70.24 
L 149.651345 63.84 
L 149.732509 79.84 
L 149.894836 73.44 
L 149.976 83.04 
L 150.057164 73.44 
L 150.138327 83.04 
L 150.219491 67.04 
L 150.300655 76.64 
L 150.381818 73.44 
L 150.462982 67.04 
L 150.544145 83.04 
L 150.625309 70.24 
L 150.706473 79.84 
L 150.787636 73.44 
L 150.8688 76.64 
L 151.031127 92.64 
L 151.112291 73.44 
L 151.193455 83.04 
L 151.355782 73.44 
L 151.436945 73.44 
L 151.518109 70.24 
L 151.680436 86.24 
L 151.7616 83.04 
L 151.842764 67.04 
L 152.005091 86.24 
L 152.248582 70.24 
L 152.329745 89.44 
L 152.410909 67.04 
L 152.573236 86.24 
L 152.6544 83.04 
L 152.979055 63.84 
L 153.222545 76.64 
L 153.303709 70.24 
L 153.384873 79.84 
L 153.466036 67.04 
L 153.5472 70.24 
L 153.628364 89.44 
L 153.709527 86.24 
L 153.953018 60.64 
L 154.034182 70.24 
L 154.115345 99.04 
L 154.196509 67.04 
L 154.277673 83.04 
L 154.521164 57.44 
L 154.926982 92.64 
L 155.008145 76.64 
L 155.089309 99.04 
L 155.170473 67.04 
L 155.251636 76.64 
L 155.3328 63.84 
L 155.413964 89.44 
L 155.576291 70.24 
L 155.657455 76.64 
L 155.738618 73.44 
L 155.819782 86.24 
L 155.900945 83.04 
L 156.2256 57.44 
L 156.306764 73.44 
L 156.387927 67.04 
L 156.469091 89.44 
L 156.631418 67.04 
L 156.793745 73.44 
L 156.874909 54.24 
L 156.956073 73.44 
L 157.037236 63.84 
L 157.1184 83.04 
L 157.199564 57.44 
L 157.280727 67.04 
L 157.361891 57.44 
L 157.443055 86.24 
L 157.524218 76.64 
L 157.767709 63.84 
L 157.848873 73.44 
L 158.0112 60.64 
L 158.173527 73.44 
L 158.254691 70.24 
L 158.335855 79.84 
L 158.417018 60.64 
L 158.579345 79.84 
L 158.822836 57.44 
L 158.904 73.44 
L 158.985164 70.24 
L 159.066327 60.64 
L 159.147491 83.04 
L 159.228655 63.84 
L 159.309818 79.84 
L 159.390982 76.64 
L 159.472145 63.84 
L 159.553309 73.44 
L 159.634473 63.84 
L 159.7968 86.24 
L 159.877964 70.24 
L 159.959127 76.64 
L 160.040291 63.84 
L 160.121455 76.64 
L 160.202618 67.04 
L 160.283782 83.04 
L 160.364945 70.24 
L 160.446109 73.44 
L 160.608436 79.84 
L 160.6896 70.24 
L 160.770764 73.44 
L 160.851927 67.04 
L 160.933091 79.84 
L 161.014255 70.24 
L 161.257745 83.04 
L 161.501236 67.04 
L 161.663564 79.84 
L 161.825891 76.64 
L 161.907055 79.84 
L 161.988218 70.24 
L 162.069382 79.84 
L 162.150545 63.84 
L 162.231709 92.64 
L 162.312873 60.64 
L 162.394036 70.24 
L 162.4752 76.64 
L 162.556364 57.44 
L 162.637527 60.64 
L 162.799855 73.44 
L 162.881018 70.24 
L 162.962182 76.64 
L 163.043345 73.44 
L 163.124509 89.44 
L 163.286836 57.44 
L 163.449164 76.64 
L 163.530327 60.64 
L 163.936145 89.44 
L 164.179636 60.64 
L 164.2608 63.84 
L 164.341964 73.44 
L 164.504291 60.64 
L 164.585455 67.04 
L 164.666618 60.64 
L 164.910109 70.24 
L 164.991273 79.84 
L 165.1536 67.04 
L 165.397091 83.04 
L 165.478255 67.04 
L 165.559418 76.64 
L 165.640582 73.44 
L 165.721745 57.44 
L 165.802909 76.64 
L 165.965236 63.84 
L 166.0464 79.84 
L 166.208727 73.44 
L 166.452218 86.24 
L 166.533382 67.04 
L 166.614545 83.04 
L 166.695709 70.24 
L 166.776873 92.64 
L 166.9392 57.44 
L 167.020364 73.44 
L 167.101527 60.64 
L 167.182691 83.04 
L 167.345018 60.64 
L 167.426182 73.44 
L 167.507345 67.04 
L 167.750836 92.64 
L 167.913164 67.04 
L 167.994327 60.64 
L 168.075491 63.84 
L 168.156655 76.64 
L 168.237818 73.44 
L 168.318982 57.44 
L 168.400145 76.64 
L 168.481309 60.64 
L 168.562473 73.44 
L 168.643636 60.64 
L 168.7248 79.84 
L 168.805964 76.64 
L 168.968291 57.44 
L 169.049455 76.64 
L 169.130618 63.84 
L 169.211782 67.04 
L 169.374109 76.64 
L 169.455273 67.04 
L 169.536436 70.24 
L 169.698764 63.84 
L 169.861091 79.84 
L 170.023418 60.64 
L 170.104582 60.64 
L 170.185745 73.44 
L 170.266909 67.04 
L 170.5104 92.64 
L 170.591564 67.04 
L 170.672727 73.44 
L 170.753891 73.44 
L 170.835055 67.04 
L 170.916218 70.24 
L 170.997382 67.04 
L 171.078545 76.64 
L 171.240873 60.64 
L 171.322036 79.84 
L 171.4032 60.64 
L 171.484364 83.04 
L 171.565527 63.84 
L 171.727855 79.84 
L 171.809018 70.24 
L 171.890182 79.84 
L 171.971345 63.84 
L 172.133673 83.04 
L 172.296 63.84 
L 172.377164 67.04 
L 172.620655 83.04 
L 172.782982 60.64 
L 172.864145 79.84 
L 173.026473 67.04 
L 173.107636 70.24 
L 173.1888 60.64 
L 173.351127 76.64 
L 173.432291 60.64 
L 173.513455 67.04 
L 173.594618 83.04 
L 173.675782 57.44 
L 173.838109 73.44 
L 174.000436 57.44 
L 174.0816 76.64 
L 174.162764 67.04 
L 174.243927 73.44 
L 174.325091 57.44 
L 174.568582 86.24 
L 174.730909 70.24 
L 174.893236 63.84 
L 174.9744 70.24 
L 175.055564 86.24 
L 175.136727 79.84 
L 175.217891 57.44 
L 175.380218 76.64 
L 175.461382 79.84 
L 175.542545 67.04 
L 175.623709 76.64 
L 175.786036 60.64 
L 175.8672 79.84 
L 175.948364 60.64 
L 176.029527 83.04 
L 176.191855 63.84 
L 176.273018 76.64 
L 176.354182 57.44 
L 176.435345 70.24 
L 176.516509 51.04 
L 176.597673 60.64 
L 176.678836 54.24 
L 176.841164 67.04 
L 176.922327 63.84 
L 177.084655 83.04 
L 177.165818 79.84 
L 177.246982 79.84 
L 177.328145 76.64 
L 177.409309 57.44 
L 177.490473 60.64 
L 177.571636 57.44 
L 177.733964 79.84 
L 177.815127 67.04 
L 177.977455 79.84 
L 178.058618 60.64 
L 178.220945 79.84 
L 178.383273 54.24 
L 178.626764 83.04 
L 178.870255 63.84 
L 178.951418 63.84 
L 179.032582 76.64 
L 179.194909 67.04 
L 179.276073 70.24 
L 179.357236 63.84 
L 179.4384 70.24 
L 179.519564 89.44 
L 179.600727 63.84 
L 179.681891 83.04 
L 179.763055 79.84 
L 179.925382 63.84 
L 180.006545 79.84 
L 180.087709 73.44 
L 180.168873 57.44 
L 180.250036 79.84 
L 180.3312 76.64 
L 180.412364 76.64 
L 180.493527 54.24 
L 180.737018 79.84 
L 180.899345 60.64 
L 181.061673 63.84 
L 181.142836 60.64 
L 181.224 73.44 
L 181.305164 67.04 
L 181.467491 76.64 
L 181.548655 63.84 
L 181.629818 79.84 
L 181.710982 76.64 
L 181.792145 79.84 
L 182.1168 51.04 
L 182.279127 73.44 
L 182.360291 60.64 
L 182.522618 70.24 
L 182.603782 63.84 
L 182.684945 79.84 
L 182.766109 70.24 
L 182.928436 83.04 
L 183.0096 57.44 
L 183.090764 67.04 
L 183.253091 57.44 
L 183.334255 63.84 
L 183.415418 60.64 
L 183.577745 76.64 
L 183.821236 51.04 
L 184.064727 79.84 
L 184.145891 79.84 
L 184.389382 44.64 
L 184.551709 73.44 
L 184.714036 60.64 
L 184.7952 60.64 
L 184.876364 70.24 
L 185.119855 51.04 
L 185.201018 57.44 
L 185.282182 54.24 
L 185.363345 70.24 
L 185.525673 60.64 
L 185.606836 60.64 
L 185.688 76.64 
L 185.769164 57.44 
L 185.850327 63.84 
L 185.931491 79.84 
L 186.093818 60.64 
L 186.256145 79.84 
L 186.337309 76.64 
L 186.418473 76.64 
L 186.499636 54.24 
L 186.661964 67.04 
L 186.743127 67.04 
L 186.824291 57.44 
L 187.067782 86.24 
L 187.230109 60.64 
L 187.311273 60.64 
L 187.392436 54.24 
L 187.635927 73.44 
L 187.798255 54.24 
L 187.960582 63.84 
L 188.041745 60.64 
L 188.122909 73.44 
L 188.204073 54.24 
L 188.285236 67.04 
L 188.3664 51.04 
L 188.528727 67.04 
L 188.691055 73.44 
L 188.772218 70.24 
L 188.934545 73.44 
L 189.096873 60.64 
L 189.178036 70.24 
L 189.340364 57.44 
L 189.502691 57.44 
L 189.583855 70.24 
L 189.665018 60.64 
L 189.746182 63.84 
L 189.827345 73.44 
L 189.908509 57.44 
L 189.989673 83.04 
L 190.070836 76.64 
L 190.152 57.44 
L 190.314327 79.84 
L 190.395491 73.44 
L 190.476655 67.04 
L 190.557818 73.44 
L 190.638982 67.04 
L 190.720145 70.24 
L 190.801309 67.04 
L 190.882473 79.84 
L 191.125964 60.64 
L 191.288291 67.04 
L 191.369455 60.64 
L 191.612945 79.84 
L 191.694109 60.64 
L 191.775273 76.64 
L 191.856436 60.64 
L 191.9376 79.84 
L 192.018764 63.84 
L 192.099927 67.04 
L 192.262255 73.44 
L 192.343418 60.64 
L 192.505745 70.24 
L 192.586909 70.24 
L 192.668073 60.64 
L 192.749236 67.04 
L 192.8304 57.44 
L 192.911564 63.84 
L 192.992727 60.64 
L 193.073891 70.24 
L 193.155055 60.64 
L 193.236218 83.04 
L 193.398545 67.04 
L 193.560873 63.84 
L 193.642036 83.04 
L 193.885527 67.04 
L 194.047855 76.64 
L 194.129018 60.64 
L 194.291345 73.44 
L 194.453673 63.84 
L 194.534836 67.04 
L 194.616 76.64 
L 194.697164 63.84 
L 194.778327 76.64 
L 194.859491 63.84 
L 194.940655 70.24 
L 195.021818 57.44 
L 195.102982 70.24 
L 195.265309 63.84 
L 195.346473 60.64 
L 195.671127 73.44 
L 195.833455 57.44 
L 195.914618 60.64 
L 195.995782 54.24 
L 196.320436 73.44 
L 196.4016 60.64 
L 196.482764 70.24 
L 196.645091 54.24 
L 196.726255 86.24 
L 196.888582 63.84 
L 196.969745 63.84 
L 197.050909 57.44 
L 197.213236 73.44 
L 197.2944 73.44 
L 197.537891 60.64 
L 197.619055 57.44 
L 197.781382 79.84 
L 197.943709 57.44 
L 198.024873 57.44 
L 198.106036 60.64 
L 198.1872 70.24 
L 198.268364 54.24 
L 198.511855 73.44 
L 198.674182 54.24 
L 198.836509 67.04 
L 198.917673 54.24 
L 198.998836 70.24 
L 199.08 67.04 
L 199.242327 73.44 
L 199.323491 73.44 
L 199.485818 60.64 
L 199.648145 60.64 
L 199.729309 54.24 
L 199.891636 76.64 
L 200.053964 54.24 
L 200.216291 70.24 
L 200.297455 47.84 
L 200.378618 83.04 
L 200.459782 57.44 
L 200.540945 70.24 
L 200.622109 63.84 
L 200.784436 79.84 
L 200.8656 57.44 
L 200.946764 60.64 
L 201.027927 57.44 
L 201.109091 83.04 
L 201.190255 79.84 
L 201.433745 57.44 
L 201.514909 83.04 
L 201.7584 60.64 
L 201.839564 60.64 
L 201.920727 70.24 
L 202.001891 63.84 
L 202.083055 67.04 
L 202.164218 63.84 
L 202.245382 54.24 
L 202.326545 57.44 
L 202.488873 76.64 
L 202.570036 67.04 
L 202.6512 79.84 
L 202.813527 60.64 
L 202.894691 63.84 
L 202.975855 67.04 
L 203.138182 57.44 
L 203.300509 70.24 
L 203.462836 60.64 
L 203.544 67.04 
L 203.625164 63.84 
L 203.706327 70.24 
L 203.787491 67.04 
L 203.949818 79.84 
L 204.030982 57.44 
L 204.112145 63.84 
L 204.193309 60.64 
L 204.355636 63.84 
L 204.4368 51.04 
L 204.517964 60.64 
L 204.599127 54.24 
L 204.761455 60.64 
L 204.842618 54.24 
L 205.086109 70.24 
L 205.167273 70.24 
L 205.248436 57.44 
L 205.410764 70.24 
L 205.491927 54.24 
L 205.573091 60.64 
L 205.654255 76.64 
L 205.816582 51.04 
L 205.897745 70.24 
L 205.978909 54.24 
L 206.141236 60.64 
L 206.2224 57.44 
L 206.303564 73.44 
L 206.465891 60.64 
L 206.628218 70.24 
L 206.709382 60.64 
L 206.790545 63.84 
L 206.871709 60.64 
L 206.952873 47.84 
L 207.1152 86.24 
L 207.277527 57.44 
L 207.358691 67.04 
L 207.439855 51.04 
L 207.602182 76.64 
L 207.683345 54.24 
L 207.764509 60.64 
L 207.845673 60.64 
L 207.926836 73.44 
L 208.008 70.24 
L 208.089164 67.04 
L 208.170327 54.24 
L 208.413818 70.24 
L 208.494982 70.24 
L 208.576145 67.04 
L 208.738473 73.44 
L 208.9008 51.04 
L 208.981964 63.84 
L 209.063127 60.64 
L 209.144291 67.04 
L 209.306618 57.44 
L 209.550109 70.24 
L 209.631273 60.64 
L 209.7936 67.04 
L 209.955927 57.44 
L 210.118255 70.24 
L 210.199418 70.24 
L 210.524073 60.64 
L 210.605236 79.84 
L 210.767564 54.24 
L 210.848727 86.24 
L 210.929891 79.84 
L 211.011055 60.64 
L 211.092218 79.84 
L 211.254545 60.64 
L 211.335709 73.44 
L 211.416873 70.24 
L 211.498036 70.24 
L 211.5792 67.04 
L 211.660364 57.44 
L 211.741527 70.24 
L 211.822691 67.04 
L 211.903855 57.44 
L 212.147345 79.84 
L 212.472 54.24 
L 212.634327 63.84 
L 212.715491 67.04 
L 212.796655 57.44 
L 212.877818 76.64 
L 212.958982 60.64 
L 213.121309 67.04 
L 213.283636 67.04 
L 213.445964 70.24 
L 213.527127 57.44 
L 213.608291 76.64 
L 213.851782 54.24 
L 213.932945 70.24 
L 214.014109 63.84 
L 214.095273 67.04 
L 214.176436 63.84 
L 214.2576 67.04 
L 214.338764 76.64 
L 214.582255 54.24 
L 214.663418 70.24 
L 214.744582 63.84 
L 214.825745 79.84 
L 214.988073 63.84 
L 215.1504 79.84 
L 215.312727 67.04 
L 215.393891 73.44 
L 215.475055 70.24 
L 215.556218 54.24 
L 215.637382 57.44 
L 215.718545 76.64 
L 215.880873 57.44 
L 215.962036 60.64 
L 216.0432 70.24 
L 216.124364 95.84 
L 216.205527 54.24 
L 216.286691 60.64 
L 216.367855 47.84 
L 216.449018 67.04 
L 216.530182 63.84 
L 216.611345 73.44 
L 216.773673 60.64 
L 216.854836 60.64 
L 217.098327 67.04 
L 217.179491 60.64 
L 217.260655 67.04 
L 217.422982 63.84 
L 217.585309 70.24 
L 217.666473 73.44 
L 217.747636 54.24 
L 217.991127 83.04 
L 218.234618 57.44 
L 218.315782 63.84 
L 218.396945 51.04 
L 218.640436 67.04 
L 218.883927 67.04 
L 218.965091 57.44 
L 219.046255 67.04 
L 219.127418 57.44 
L 219.208582 63.84 
L 219.289745 60.64 
L 219.370909 70.24 
L 219.452073 63.84 
L 219.533236 70.24 
L 219.776727 63.84 
L 219.857891 73.44 
L 219.939055 60.64 
L 220.101382 70.24 
L 220.263709 57.44 
L 220.344873 57.44 
L 220.426036 70.24 
L 220.588364 60.64 
L 220.669527 70.24 
L 220.750691 67.04 
L 220.913018 54.24 
L 220.994182 60.64 
L 221.075345 76.64 
L 221.237673 54.24 
L 221.318836 86.24 
L 221.4 76.64 
L 221.481164 73.44 
L 221.562327 76.64 
L 221.724655 70.24 
L 221.805818 70.24 
L 221.886982 63.84 
L 221.968145 73.44 
L 222.049309 51.04 
L 222.211636 63.84 
L 222.373964 70.24 
L 222.455127 60.64 
L 222.536291 83.04 
L 222.617455 63.84 
L 222.698618 76.64 
L 222.779782 57.44 
L 222.860945 73.44 
L 223.023273 51.04 
L 223.347927 83.04 
L 223.510255 63.84 
L 223.591418 70.24 
L 223.753745 54.24 
L 223.834909 60.64 
L 223.916073 44.64 
L 224.0784 60.64 
L 224.159564 63.84 
L 224.321891 57.44 
L 224.403055 83.04 
L 224.565382 60.64 
L 224.727709 73.44 
L 224.808873 67.04 
L 224.890036 70.24 
L 224.9712 54.24 
L 225.214691 73.44 
L 225.377018 63.84 
L 225.620509 79.84 
L 225.782836 54.24 
L 225.945164 76.64 
L 226.026327 73.44 
L 226.107491 57.44 
L 226.269818 63.84 
L 226.350982 67.04 
L 226.513309 60.64 
L 226.594473 67.04 
L 226.837964 60.64 
L 227.000291 70.24 
L 227.081455 63.84 
L 227.243782 70.24 
L 227.324945 73.44 
L 227.487273 60.64 
L 227.568436 60.64 
L 227.730764 63.84 
L 227.811927 63.84 
L 227.974255 70.24 
L 228.055418 60.64 
L 228.136582 63.84 
L 228.217745 70.24 
L 228.298909 60.64 
L 228.380073 73.44 
L 228.461236 67.04 
L 228.5424 73.44 
L 228.623564 51.04 
L 228.704727 57.44 
L 228.948218 70.24 
L 229.029382 67.04 
L 229.110545 76.64 
L 229.191709 63.84 
L 229.272873 67.04 
L 229.354036 63.84 
L 229.678691 83.04 
L 229.759855 57.44 
L 229.841018 63.84 
L 229.922182 57.44 
L 230.003345 67.04 
L 230.084509 51.04 
L 230.246836 70.24 
L 230.328 67.04 
L 230.409164 60.64 
L 230.490327 70.24 
L 230.652655 57.44 
L 230.733818 57.44 
L 230.896145 70.24 
L 231.058473 63.84 
L 231.139636 73.44 
L 231.383127 47.84 
L 231.464291 76.64 
L 231.545455 70.24 
L 231.707782 60.64 
L 231.870109 76.64 
L 231.951273 63.84 
L 232.032436 79.84 
L 232.194764 54.24 
L 232.275927 70.24 
L 232.438255 47.84 
L 232.600582 67.04 
L 232.681745 54.24 
L 232.844073 76.64 
L 232.925236 79.84 
L 233.0064 60.64 
L 233.087564 67.04 
L 233.168727 63.84 
L 233.249891 73.44 
L 233.331055 54.24 
L 233.412218 60.64 
L 233.574545 57.44 
L 233.655709 70.24 
L 233.736873 57.44 
L 233.8992 63.84 
L 233.980364 57.44 
L 234.061527 79.84 
L 234.142691 76.64 
L 234.305018 63.84 
L 234.386182 60.64 
L 234.467345 67.04 
L 234.548509 54.24 
L 234.629673 57.44 
L 234.710836 76.64 
L 234.792 70.24 
L 234.873164 60.64 
L 235.035491 76.64 
L 235.116655 57.44 
L 235.197818 60.64 
L 235.278982 60.64 
L 235.441309 67.04 
L 235.603636 57.44 
L 235.6848 60.64 
L 235.765964 76.64 
L 235.847127 63.84 
L 235.928291 73.44 
L 236.009455 70.24 
L 236.090618 63.84 
L 236.171782 70.24 
L 236.334109 57.44 
L 236.415273 63.84 
L 236.496436 60.64 
L 236.5776 63.84 
L 236.658764 73.44 
L 236.739927 54.24 
L 236.821091 67.04 
L 236.902255 60.64 
L 237.064582 70.24 
L 237.145745 76.64 
L 237.226909 63.84 
L 237.308073 67.04 
L 237.389236 73.44 
L 237.551564 60.64 
L 237.632727 73.44 
L 237.713891 60.64 
L 237.795055 63.84 
L 237.876218 86.24 
L 238.038545 67.04 
L 238.119709 70.24 
L 238.282036 51.04 
L 238.444364 67.04 
L 238.525527 60.64 
L 238.606691 63.84 
L 238.687855 76.64 
L 238.769018 73.44 
L 238.850182 63.84 
L 238.931345 70.24 
L 239.093673 57.44 
L 239.174836 63.84 
L 239.256 60.64 
L 239.337164 63.84 
L 239.499491 60.64 
L 239.580655 60.64 
L 239.661818 51.04 
L 239.824145 63.84 
L 239.905309 57.44 
L 240.067636 67.04 
L 240.1488 51.04 
L 240.392291 76.64 
L 240.716945 57.44 
L 240.879273 63.84 
L 240.960436 57.44 
L 241.0416 70.24 
L 241.203927 60.64 
L 241.285091 63.84 
L 241.366255 60.64 
L 241.528582 73.44 
L 241.690909 54.24 
L 241.853236 73.44 
L 241.9344 60.64 
L 242.015564 63.84 
L 242.096727 63.84 
L 242.177891 60.64 
L 242.259055 73.44 
L 242.340218 70.24 
L 242.421382 57.44 
L 242.502545 67.04 
L 242.583709 60.64 
L 242.746036 76.64 
L 242.908364 51.04 
L 243.070691 60.64 
L 243.151855 54.24 
L 243.233018 76.64 
L 243.314182 70.24 
L 243.476509 60.64 
L 243.557673 67.04 
L 243.638836 83.04 
L 243.72 63.84 
L 243.801164 73.44 
L 243.882327 63.84 
L 243.963491 70.24 
L 244.206982 54.24 
L 244.369309 67.04 
L 244.450473 67.04 
L 244.531636 54.24 
L 244.6128 57.44 
L 244.693964 76.64 
L 244.775127 73.44 
L 244.856291 54.24 
L 244.937455 63.84 
L 245.018618 60.64 
L 245.099782 63.84 
L 245.262109 54.24 
L 245.343273 76.64 
L 245.5056 63.84 
L 245.586764 70.24 
L 245.667927 47.84 
L 245.749091 54.24 
L 245.830255 76.64 
L 245.992582 47.84 
L 246.236073 76.64 
L 246.317236 57.44 
L 246.3984 79.84 
L 246.641891 51.04 
L 246.804218 60.64 
L 246.885382 60.64 
L 246.966545 57.44 
L 247.128873 63.84 
L 247.210036 63.84 
L 247.372364 60.64 
L 247.534691 70.24 
L 247.697018 57.44 
L 248.021673 67.04 
L 248.102836 57.44 
L 248.184 60.64 
L 248.427491 70.24 
L 248.589818 57.44 
L 248.752145 63.84 
L 248.833309 60.64 
L 248.914473 47.84 
L 248.995636 51.04 
L 249.0768 70.24 
L 249.157964 57.44 
L 249.239127 63.84 
L 249.320291 51.04 
L 249.482618 79.84 
L 249.563782 76.64 
L 249.644945 67.04 
L 249.726109 70.24 
L 249.888436 60.64 
L 249.9696 76.64 
L 250.131927 60.64 
L 250.213091 63.84 
L 250.294255 54.24 
L 250.375418 63.84 
L 250.456582 57.44 
L 250.537745 70.24 
L 250.700073 54.24 
L 250.8624 67.04 
L 250.943564 60.64 
L 251.024727 70.24 
L 251.187055 54.24 
L 251.268218 60.64 
L 251.349382 54.24 
L 251.430545 73.44 
L 251.592873 54.24 
L 251.836364 79.84 
L 252.079855 57.44 
L 252.161018 60.64 
L 252.242182 76.64 
L 252.323345 54.24 
L 252.404509 67.04 
L 252.485673 63.84 
L 252.566836 57.44 
L 252.729164 63.84 
L 252.810327 57.44 
L 253.053818 63.84 
L 253.134982 57.44 
L 253.216145 60.64 
L 253.297309 57.44 
L 253.459636 73.44 
L 253.703127 54.24 
L 253.946618 83.04 
L 254.108945 60.64 
L 254.271273 70.24 
L 254.4336 63.84 
L 254.514764 79.84 
L 254.677091 60.64 
L 254.758255 63.84 
L 254.839418 54.24 
L 254.920582 70.24 
L 255.082909 60.64 
L 255.164073 60.64 
L 255.245236 63.84 
L 255.3264 73.44 
L 255.407564 57.44 
L 255.488727 70.24 
L 255.569891 63.84 
L 255.651055 70.24 
L 255.894545 57.44 
L 255.975709 70.24 
L 256.056873 67.04 
L 256.138036 57.44 
L 256.2192 63.84 
L 256.381527 57.44 
L 256.462691 60.64 
L 256.625018 73.44 
L 256.706182 54.24 
L 256.787345 70.24 
L 256.949673 51.04 
L 257.030836 73.44 
L 257.112 57.44 
L 257.274327 70.24 
L 257.355491 54.24 
L 257.436655 60.64 
L 257.517818 51.04 
L 257.598982 54.24 
L 257.680145 63.84 
L 257.761309 51.04 
L 257.842473 70.24 
L 257.923636 51.04 
L 258.085964 70.24 
L 258.167127 57.44 
L 258.248291 73.44 
L 258.329455 60.64 
L 258.410618 73.44 
L 258.572945 60.64 
L 258.654109 70.24 
L 258.735273 67.04 
L 258.816436 57.44 
L 258.8976 79.84 
L 259.059927 54.24 
L 259.384582 70.24 
L 259.465745 54.24 
L 259.546909 63.84 
L 259.628073 54.24 
L 259.7904 60.64 
L 259.871564 54.24 
L 259.952727 63.84 
L 260.033891 60.64 
L 260.115055 60.64 
L 260.196218 73.44 
L 260.277382 57.44 
L 260.439709 63.84 
L 260.520873 60.64 
L 260.602036 51.04 
L 260.6832 76.64 
L 260.764364 60.64 
L 260.845527 67.04 
L 261.007855 60.64 
L 261.089018 60.64 
L 261.332509 73.44 
L 261.576 57.44 
L 261.657164 54.24 
L 261.819491 70.24 
L 261.900655 60.64 
L 261.981818 73.44 
L 262.306473 47.84 
L 262.387636 70.24 
L 262.4688 54.24 
L 262.631127 70.24 
L 262.712291 60.64 
L 262.793455 67.04 
L 262.874618 86.24 
L 262.955782 57.44 
L 263.036945 60.64 
L 263.118109 63.84 
L 263.199273 73.44 
L 263.280436 54.24 
L 263.3616 57.44 
L 263.442764 67.04 
L 263.523927 60.64 
L 263.686255 76.64 
L 263.848582 70.24 
L 264.092073 57.44 
L 264.173236 60.64 
L 264.2544 60.64 
L 264.335564 54.24 
L 264.416727 63.84 
L 264.497891 51.04 
L 264.579055 67.04 
L 264.741382 57.44 
L 264.903709 57.44 
L 264.984873 60.64 
L 265.066036 70.24 
L 265.1472 54.24 
L 265.309527 63.84 
L 265.390691 89.44 
L 265.634182 51.04 
L 265.715345 67.04 
L 265.796509 60.64 
L 265.877673 79.84 
L 265.958836 60.64 
L 266.04 70.24 
L 266.121164 51.04 
L 266.202327 57.44 
L 266.364655 67.04 
L 266.445818 57.44 
L 266.608145 70.24 
L 266.689309 54.24 
L 266.770473 70.24 
L 266.851636 57.44 
L 266.9328 60.64 
L 267.013964 60.64 
L 267.095127 57.44 
L 267.338618 63.84 
L 267.500945 54.24 
L 267.582109 57.44 
L 267.663273 51.04 
L 267.744436 70.24 
L 267.8256 57.44 
L 267.906764 67.04 
L 268.069091 51.04 
L 268.312582 73.44 
L 268.393745 57.44 
L 268.474909 60.64 
L 268.556073 60.64 
L 268.637236 54.24 
L 268.880727 86.24 
L 269.043055 57.44 
L 269.124218 63.84 
L 269.205382 86.24 
L 269.286545 57.44 
L 269.367709 63.84 
L 269.448873 76.64 
L 269.6112 63.84 
L 269.692364 60.64 
L 269.773527 51.04 
L 269.854691 57.44 
L 269.935855 54.24 
L 270.098182 67.04 
L 270.260509 54.24 
L 270.341673 51.04 
L 270.504 70.24 
L 270.585164 54.24 
L 270.666327 70.24 
L 270.747491 57.44 
L 270.828655 63.84 
L 270.909818 57.44 
L 271.072145 73.44 
L 271.153309 57.44 
L 271.234473 60.64 
L 271.3968 60.64 
L 271.477964 70.24 
L 271.559127 60.64 
L 271.721455 76.64 
L 271.883782 51.04 
L 271.964945 54.24 
L 272.046109 54.24 
L 272.127273 60.64 
L 272.370764 51.04 
L 272.451927 76.64 
L 272.533091 51.04 
L 272.695418 76.64 
L 272.776582 60.64 
L 272.857745 63.84 
L 272.938909 57.44 
L 273.020073 60.64 
L 273.101236 76.64 
L 273.1824 60.64 
L 273.263564 67.04 
L 273.344727 54.24 
L 273.425891 60.64 
L 273.507055 76.64 
L 273.588218 57.44 
L 273.669382 63.84 
L 273.750545 57.44 
L 273.831709 63.84 
L 273.912873 79.84 
L 274.0752 54.24 
L 274.318691 67.04 
L 274.399855 67.04 
L 274.481018 51.04 
L 274.562182 67.04 
L 274.643345 60.64 
L 274.805673 73.44 
L 274.968 54.24 
L 275.049164 54.24 
L 275.130327 63.84 
L 275.211491 57.44 
L 275.292655 73.44 
L 275.454982 57.44 
L 275.536145 63.84 
L 275.779636 57.44 
L 275.941964 67.04 
L 276.104291 57.44 
L 276.185455 73.44 
L 276.347782 60.64 
L 276.428945 73.44 
L 276.510109 54.24 
L 276.591273 57.44 
L 276.672436 63.84 
L 276.834764 51.04 
L 276.997091 70.24 
L 277.159418 54.24 
L 277.240582 79.84 
L 277.402909 60.64 
L 277.565236 60.64 
L 277.6464 70.24 
L 277.808727 60.64 
L 277.889891 60.64 
L 277.971055 57.44 
L 278.052218 63.84 
L 278.214545 54.24 
L 278.376873 63.84 
L 278.5392 54.24 
L 278.620364 60.64 
L 278.701527 57.44 
L 278.782691 76.64 
L 278.945018 57.44 
L 279.026182 73.44 
L 279.269673 60.64 
L 279.350836 63.84 
L 279.513164 54.24 
L 279.594327 76.64 
L 279.675491 54.24 
L 279.837818 76.64 
L 280.081309 54.24 
L 280.162473 73.44 
L 280.243636 63.84 
L 280.3248 70.24 
L 280.405964 67.04 
L 280.487127 70.24 
L 280.649455 63.84 
L 280.730618 70.24 
L 280.892945 63.84 
L 280.974109 67.04 
L 281.055273 76.64 
L 281.2176 51.04 
L 281.298764 70.24 
L 281.379927 51.04 
L 281.461091 70.24 
L 281.542255 51.04 
L 281.623418 67.04 
L 281.785745 47.84 
L 281.866909 51.04 
L 281.948073 60.64 
L 282.029236 57.44 
L 282.1104 51.04 
L 282.353891 83.04 
L 282.435055 60.64 
L 282.516218 70.24 
L 282.597382 60.64 
L 282.678545 63.84 
L 282.759709 73.44 
L 282.840873 47.84 
L 283.0032 70.24 
L 283.084364 70.24 
L 283.246691 54.24 
L 283.490182 73.44 
L 283.571345 57.44 
L 283.733673 70.24 
L 283.896 54.24 
L 283.977164 67.04 
L 284.139491 54.24 
L 284.220655 54.24 
L 284.301818 76.64 
L 284.382982 57.44 
L 284.464145 60.64 
L 284.707636 60.64 
L 284.7888 70.24 
L 284.869964 67.04 
L 285.032291 54.24 
L 285.275782 70.24 
L 285.356945 67.04 
L 285.519273 57.44 
L 285.600436 60.64 
L 285.6816 57.44 
L 285.762764 44.64 
L 285.925091 73.44 
L 286.006255 60.64 
L 286.087418 70.24 
L 286.168582 67.04 
L 286.249745 63.84 
L 286.330909 70.24 
L 286.412073 67.04 
L 286.493236 73.44 
L 286.5744 60.64 
L 286.655564 63.84 
L 286.736727 67.04 
L 286.817891 60.64 
L 286.899055 63.84 
L 286.980218 57.44 
L 287.061382 70.24 
L 287.142545 57.44 
L 287.223709 67.04 
L 287.304873 63.84 
L 287.386036 63.84 
L 287.548364 54.24 
L 287.791855 63.84 
L 287.873018 60.64 
L 287.954182 63.84 
L 288.035345 60.64 
L 288.116509 63.84 
L 288.197673 44.64 
L 288.441164 70.24 
L 288.522327 57.44 
L 288.603491 60.64 
L 288.684655 76.64 
L 288.846982 57.44 
L 288.928145 63.84 
L 289.009309 60.64 
L 289.090473 70.24 
L 289.171636 51.04 
L 289.333964 67.04 
L 289.415127 54.24 
L 289.577455 67.04 
L 289.658618 60.64 
L 289.739782 63.84 
L 289.820945 60.64 
L 289.902109 51.04 
L 289.983273 63.84 
L 290.064436 57.44 
L 290.1456 60.64 
L 290.307927 54.24 
L 290.389091 73.44 
L 290.470255 60.64 
L 290.551418 67.04 
L 290.713745 51.04 
L 290.794909 67.04 
L 290.876073 63.84 
L 290.957236 57.44 
L 291.0384 63.84 
L 291.281891 54.24 
L 291.363055 70.24 
L 291.444218 60.64 
L 291.525382 70.24 
L 291.606545 60.64 
L 291.768873 76.64 
L 291.9312 51.04 
L 292.174691 70.24 
L 292.337018 57.44 
L 292.580509 51.04 
L 292.661673 51.04 
L 292.742836 76.64 
L 292.824 54.24 
L 292.905164 63.84 
L 292.986327 60.64 
L 293.067491 57.44 
L 293.229818 63.84 
L 293.392145 60.64 
L 293.473309 83.04 
L 293.554473 54.24 
L 293.635636 63.84 
L 293.797964 57.44 
L 294.041455 57.44 
L 294.122618 54.24 
L 294.203782 57.44 
L 294.284945 51.04 
L 294.447273 57.44 
L 294.528436 51.04 
L 294.6096 54.24 
L 294.771927 73.44 
L 294.853091 54.24 
L 294.934255 60.64 
L 295.015418 67.04 
L 295.096582 51.04 
L 295.258909 60.64 
L 295.340073 54.24 
L 295.5024 60.64 
L 295.583564 51.04 
L 295.664727 73.44 
L 295.745891 60.64 
L 295.827055 63.84 
L 295.989382 54.24 
L 296.151709 67.04 
L 296.232873 63.84 
L 296.314036 70.24 
L 296.476364 54.24 
L 296.638691 70.24 
L 296.719855 60.64 
L 296.801018 63.84 
L 296.963345 57.44 
L 297.044509 57.44 
L 297.125673 89.44 
L 297.288 57.44 
L 297.369164 57.44 
L 297.450327 76.64 
L 297.693818 51.04 
L 297.856145 67.04 
L 298.018473 60.64 
L 298.099636 57.44 
L 298.1808 60.64 
L 298.424291 54.24 
L 298.505455 54.24 
L 298.667782 60.64 
L 298.748945 57.44 
L 298.911273 60.64 
L 299.0736 51.04 
L 299.154764 70.24 
L 299.235927 63.84 
L 299.317091 76.64 
L 299.479418 67.04 
L 299.560582 67.04 
L 299.722909 63.84 
L 299.885236 63.84 
L 299.9664 57.44 
L 300.047564 67.04 
L 300.128727 54.24 
L 300.209891 60.64 
L 300.291055 47.84 
L 300.453382 63.84 
L 300.615709 67.04 
L 300.778036 51.04 
L 301.183855 63.84 
L 301.265018 79.84 
L 301.346182 47.84 
L 301.427345 63.84 
L 301.508509 51.04 
L 301.670836 67.04 
L 301.833164 54.24 
L 302.076655 63.84 
L 302.157818 54.24 
L 302.238982 60.64 
L 302.320145 47.84 
L 302.401309 51.04 
L 302.563636 63.84 
L 302.807127 54.24 
L 303.050618 70.24 
L 303.131782 51.04 
L 303.212945 57.44 
L 303.294109 67.04 
L 303.375273 63.84 
L 303.456436 60.64 
L 303.5376 67.04 
L 303.618764 63.84 
L 303.699927 51.04 
L 303.943418 70.24 
L 304.024582 57.44 
L 304.268073 70.24 
L 304.4304 57.44 
L 304.511564 51.04 
L 304.755055 70.24 
L 304.998545 57.44 
L 305.079709 70.24 
L 305.242036 60.64 
L 305.3232 63.84 
L 305.485527 51.04 
L 305.566691 70.24 
L 305.647855 67.04 
L 305.729018 54.24 
L 305.810182 67.04 
L 305.891345 57.44 
L 305.972509 60.64 
L 306.134836 54.24 
L 306.216 57.44 
L 306.297164 51.04 
L 306.378327 54.24 
L 306.459491 63.84 
L 306.540655 60.64 
L 306.621818 60.64 
L 306.702982 63.84 
L 306.865309 73.44 
L 306.946473 51.04 
L 307.1088 63.84 
L 307.189964 63.84 
L 307.271127 57.44 
L 307.352291 67.04 
L 307.514618 54.24 
L 307.595782 63.84 
L 307.676945 57.44 
L 307.758109 63.84 
L 307.920436 60.64 
L 308.163927 76.64 
L 308.407418 60.64 
L 308.488582 63.84 
L 308.569745 54.24 
L 308.650909 70.24 
L 308.8944 57.44 
L 308.975564 63.84 
L 309.056727 57.44 
L 309.219055 67.04 
L 309.300218 54.24 
L 309.381382 57.44 
L 309.462545 63.84 
L 309.543709 57.44 
L 309.624873 63.84 
L 309.706036 57.44 
L 309.868364 70.24 
L 309.949527 70.24 
L 310.030691 57.44 
L 310.111855 76.64 
L 310.193018 70.24 
L 310.436509 54.24 
L 310.761164 67.04 
L 311.004655 57.44 
L 311.085818 67.04 
L 311.166982 63.84 
L 311.329309 67.04 
L 311.410473 57.44 
L 311.491636 60.64 
L 311.5728 70.24 
L 311.653964 63.84 
L 311.735127 47.84 
L 311.816291 76.64 
L 311.897455 51.04 
L 311.978618 70.24 
L 312.059782 63.84 
L 312.222109 54.24 
L 312.303273 60.64 
L 312.384436 51.04 
L 312.4656 63.84 
L 312.546764 57.44 
L 312.627927 67.04 
L 312.871418 54.24 
L 312.952582 67.04 
L 313.114909 60.64 
L 313.277236 70.24 
L 313.3584 54.24 
L 313.439564 67.04 
L 313.520727 57.44 
L 313.601891 60.64 
L 313.683055 60.64 
L 313.764218 54.24 
L 313.845382 86.24 
L 314.088873 54.24 
L 314.2512 67.04 
L 314.413527 47.84 
L 314.494691 63.84 
L 314.738182 51.04 
L 314.819345 60.64 
L 314.900509 54.24 
L 314.981673 67.04 
L 315.062836 51.04 
L 315.225164 63.84 
L 315.306327 57.44 
L 315.387491 73.44 
L 315.468655 51.04 
L 315.549818 54.24 
L 315.630982 70.24 
L 315.712145 47.84 
L 315.793309 70.24 
L 315.874473 60.64 
L 315.955636 63.84 
L 316.0368 63.84 
L 316.117964 67.04 
L 316.280291 57.44 
L 316.604945 76.64 
L 316.767273 54.24 
L 316.9296 63.84 
L 317.091927 54.24 
L 317.173091 67.04 
L 317.335418 57.44 
L 317.497745 63.84 
L 317.578909 54.24 
L 317.660073 73.44 
L 317.8224 51.04 
L 317.903564 44.64 
L 317.984727 70.24 
L 318.065891 60.64 
L 318.147055 70.24 
L 318.228218 67.04 
L 318.309382 67.04 
L 318.471709 57.44 
L 318.552873 60.64 
L 318.634036 54.24 
L 318.7152 63.84 
L 318.877527 51.04 
L 318.958691 76.64 
L 319.121018 60.64 
L 319.283345 70.24 
L 319.445673 60.64 
L 319.526836 67.04 
L 319.608 60.64 
L 319.689164 63.84 
L 319.770327 60.64 
L 319.851491 73.44 
L 319.932655 54.24 
L 320.013818 79.84 
L 320.176145 60.64 
L 320.257309 54.24 
L 320.419636 79.84 
L 320.581964 57.44 
L 320.663127 67.04 
L 320.825455 60.64 
L 320.906618 63.84 
L 320.987782 73.44 
L 321.068945 47.84 
L 321.150109 57.44 
L 321.231273 51.04 
L 321.312436 67.04 
L 321.3936 60.64 
L 321.474764 73.44 
L 321.555927 67.04 
L 321.637091 51.04 
L 321.880582 67.04 
L 321.961745 57.44 
L 322.042909 70.24 
L 322.124073 57.44 
L 322.205236 73.44 
L 322.2864 57.44 
L 322.367564 70.24 
L 322.448727 67.04 
L 322.529891 70.24 
L 322.611055 57.44 
L 322.692218 63.84 
L 322.773382 57.44 
L 322.854545 60.64 
L 322.935709 44.64 
L 323.016873 70.24 
L 323.098036 51.04 
L 323.260364 70.24 
L 323.341527 54.24 
L 323.422691 57.44 
L 323.585018 67.04 
L 323.747345 60.64 
L 323.909673 73.44 
L 323.990836 60.64 
L 324.072 63.84 
L 324.153164 76.64 
L 324.315491 51.04 
L 324.396655 63.84 
L 324.477818 54.24 
L 324.640145 70.24 
L 324.802473 54.24 
L 325.045964 60.64 
L 325.127127 57.44 
L 325.289455 67.04 
L 325.370618 60.64 
L 325.451782 67.04 
L 325.532945 63.84 
L 325.614109 79.84 
L 325.695273 54.24 
L 325.776436 57.44 
L 325.8576 67.04 
L 325.938764 60.64 
L 326.019927 67.04 
L 326.182255 54.24 
L 326.344582 60.64 
L 326.425745 54.24 
L 326.588073 63.84 
L 326.669236 51.04 
L 326.7504 63.84 
L 326.831564 57.44 
L 326.912727 79.84 
L 326.993891 60.64 
L 327.075055 70.24 
L 327.156218 60.64 
L 327.237382 67.04 
L 327.318545 54.24 
L 327.480873 67.04 
L 327.562036 54.24 
L 327.6432 63.84 
L 327.805527 54.24 
L 327.886691 76.64 
L 327.967855 47.84 
L 328.049018 76.64 
L 328.292509 54.24 
L 328.373673 63.84 
L 328.454836 51.04 
L 328.617164 60.64 
L 328.698327 54.24 
L 328.779491 60.64 
L 328.941818 57.44 
L 329.022982 57.44 
L 329.104145 67.04 
L 329.185309 54.24 
L 329.266473 60.64 
L 329.347636 57.44 
L 329.591127 73.44 
L 329.753455 51.04 
L 329.915782 67.04 
L 330.159273 51.04 
L 330.240436 63.84 
L 330.402764 57.44 
L 330.483927 73.44 
L 330.565091 67.04 
L 330.646255 51.04 
L 330.727418 63.84 
L 330.808582 57.44 
L 330.889745 73.44 
L 330.970909 57.44 
L 331.133236 70.24 
L 331.295564 57.44 
L 331.539055 57.44 
L 331.620218 63.84 
L 331.701382 60.64 
L 331.782545 63.84 
L 331.863709 57.44 
L 331.944873 63.84 
L 332.026036 51.04 
L 332.1072 73.44 
L 332.188364 67.04 
L 332.269527 54.24 
L 332.350691 70.24 
L 332.513018 60.64 
L 332.594182 60.64 
L 332.675345 54.24 
L 332.756509 63.84 
L 332.837673 60.64 
L 333 57.44 
L 333.081164 67.04 
L 333.162327 51.04 
L 333.324655 73.44 
L 333.405818 51.04 
L 333.568145 76.64 
L 333.8928 47.84 
L 333.973964 51.04 
L 334.055127 67.04 
L 334.136291 54.24 
L 334.217455 70.24 
L 334.298618 67.04 
L 334.460945 57.44 
L 334.542109 63.84 
L 334.704436 54.24 
L 334.7856 60.64 
L 335.029091 54.24 
L 335.110255 67.04 
L 335.191418 51.04 
L 335.272582 60.64 
L 335.353745 57.44 
L 335.434909 63.84 
L 335.516073 57.44 
L 335.597236 63.84 
L 335.6784 57.44 
L 335.759564 63.84 
L 335.840727 60.64 
L 335.921891 63.84 
L 336.003055 54.24 
L 336.084218 67.04 
L 336.165382 63.84 
L 336.246545 57.44 
L 336.327709 67.04 
L 336.408873 54.24 
L 336.490036 76.64 
L 336.5712 73.44 
L 336.652364 57.44 
L 336.814691 67.04 
L 336.977018 57.44 
L 337.058182 67.04 
L 337.139345 60.64 
L 337.301673 67.04 
L 337.382836 54.24 
L 337.464 57.44 
L 337.707491 67.04 
L 337.788655 51.04 
L 337.950982 63.84 
L 338.032145 63.84 
L 338.194473 54.24 
L 338.275636 73.44 
L 338.437964 54.24 
L 338.519127 51.04 
L 338.600291 70.24 
L 338.681455 63.84 
L 338.762618 63.84 
L 338.843782 76.64 
L 339.006109 57.44 
L 339.087273 70.24 
L 339.168436 67.04 
L 339.330764 67.04 
L 339.411927 54.24 
L 339.574255 70.24 
L 339.655418 57.44 
L 339.736582 79.84 
L 339.817745 47.84 
L 339.898909 67.04 
L 340.061236 57.44 
L 340.1424 60.64 
L 340.223564 70.24 
L 340.385891 51.04 
L 340.467055 73.44 
L 340.548218 60.64 
L 340.629382 70.24 
L 340.710545 51.04 
L 340.791709 57.44 
L 340.954036 54.24 
L 341.0352 63.84 
L 341.116364 60.64 
L 341.197527 54.24 
L 341.359855 70.24 
L 341.522182 60.64 
L 341.603345 67.04 
L 341.765673 57.44 
L 341.928 57.44 
L 342.009164 51.04 
L 342.090327 54.24 
L 342.171491 67.04 
L 342.252655 60.64 
L 342.333818 63.84 
L 342.739636 47.84 
L 342.8208 57.44 
L 342.901964 54.24 
L 343.145455 67.04 
L 343.226618 60.64 
L 343.307782 67.04 
L 343.388945 60.64 
L 343.470109 67.04 
L 343.551273 54.24 
L 343.632436 57.44 
L 343.7136 67.04 
L 343.794764 63.84 
L 344.038255 54.24 
L 344.200582 63.84 
L 344.444073 63.84 
L 344.525236 67.04 
L 344.6064 57.44 
L 344.687564 63.84 
L 344.849891 51.04 
L 344.931055 51.04 
L 345.093382 63.84 
L 345.255709 60.64 
L 345.336873 70.24 
L 345.418036 60.64 
L 345.580364 79.84 
L 345.742691 54.24 
L 345.823855 70.24 
L 345.905018 54.24 
L 345.986182 67.04 
L 346.067345 54.24 
L 346.148509 57.44 
L 346.229673 51.04 
L 346.310836 67.04 
L 346.392 47.84 
L 346.473164 60.64 
L 346.554327 57.44 
L 346.716655 60.64 
L 346.797818 73.44 
L 346.960145 57.44 
L 347.041309 57.44 
L 347.122473 47.84 
L 347.2848 57.44 
L 347.365964 54.24 
L 347.447127 63.84 
L 347.528291 51.04 
L 347.690618 67.04 
L 347.771782 51.04 
L 347.852945 76.64 
L 348.015273 63.84 
L 348.096436 57.44 
L 348.258764 60.64 
L 348.339927 54.24 
L 348.583418 70.24 
L 348.826909 54.24 
L 348.908073 70.24 
L 348.989236 54.24 
L 349.0704 67.04 
L 349.151564 54.24 
L 349.232727 57.44 
L 349.313891 63.84 
L 349.395055 57.44 
L 349.476218 63.84 
L 349.638545 57.44 
L 349.719709 60.64 
L 349.882036 51.04 
L 349.9632 79.84 
L 350.125527 63.84 
L 350.206691 57.44 
L 350.287855 63.84 
L 350.369018 54.24 
L 350.450182 70.24 
L 350.531345 63.84 
L 350.612509 79.84 
L 350.693673 70.24 
L 350.774836 76.64 
L 350.856 51.04 
L 350.937164 63.84 
L 351.018327 57.44 
L 351.099491 63.84 
L 351.180655 54.24 
L 351.261818 63.84 
L 351.342982 51.04 
L 351.586473 67.04 
L 351.667636 67.04 
L 351.829964 47.84 
L 352.073455 67.04 
L 352.154618 63.84 
L 352.235782 54.24 
L 352.398109 63.84 
L 352.479273 57.44 
L 352.6416 76.64 
L 352.803927 63.84 
L 352.966255 67.04 
L 353.209745 60.64 
L 353.290909 63.84 
L 353.372073 60.64 
L 353.453236 76.64 
L 353.5344 63.84 
L 353.615564 79.84 
L 353.777891 60.64 
L 353.859055 73.44 
L 353.940218 54.24 
L 354.021382 60.64 
L 354.183709 63.84 
L 354.346036 54.24 
L 354.589527 67.04 
L 354.670691 70.24 
L 354.833018 51.04 
L 354.914182 73.44 
L 354.995345 63.84 
L 355.076509 67.04 
L 355.157673 63.84 
L 355.238836 51.04 
L 355.401164 63.84 
L 355.482327 70.24 
L 355.644655 57.44 
L 355.725818 63.84 
L 355.806982 60.64 
L 355.969309 63.84 
L 356.050473 51.04 
L 356.131636 63.84 
L 356.2128 54.24 
L 356.375127 60.64 
L 356.456291 63.84 
L 356.537455 60.64 
L 356.699782 63.84 
L 356.780945 60.64 
L 356.862109 63.84 
L 356.943273 54.24 
L 357.024436 73.44 
L 357.186764 47.84 
L 357.267927 57.44 
L 357.430255 47.84 
L 357.511418 63.84 
L 357.592582 60.64 
L 357.673745 70.24 
L 357.754909 51.04 
L 357.836073 57.44 
L 357.917236 57.44 
L 357.9984 60.64 
L 358.079564 54.24 
L 358.160727 60.64 
L 358.241891 51.04 
L 358.323055 60.64 
L 358.404218 57.44 
L 358.485382 63.84 
L 358.566545 54.24 
L 358.647709 60.64 
L 358.728873 54.24 
L 358.810036 63.84 
L 358.8912 60.64 
L 359.053527 63.84 
L 359.134691 54.24 
L 359.297018 63.84 
L 359.378182 63.84 
L 359.459345 54.24 
L 359.540509 63.84 
L 359.621673 54.24 
L 359.702836 63.84 
L 359.784 60.64 
L 359.865164 57.44 
L 359.946327 63.84 
L 360.027491 54.24 
L 360.108655 57.44 
L 360.189818 73.44 
L 360.270982 57.44 
L 360.352145 63.84 
L 360.433309 54.24 
L 360.514473 67.04 
L 360.595636 63.84 
L 360.6768 51.04 
L 360.757964 60.64 
L 360.839127 51.04 
L 360.920291 63.84 
L 361.082618 54.24 
L 361.326109 67.04 
L 361.407273 70.24 
L 361.488436 60.64 
L 361.5696 67.04 
L 361.650764 63.84 
L 361.731927 54.24 
L 361.813091 79.84 
L 361.894255 57.44 
L 361.975418 67.04 
L 362.056582 57.44 
L 362.137745 60.64 
L 362.218909 70.24 
L 362.381236 47.84 
L 362.4624 63.84 
L 362.624727 51.04 
L 362.705891 63.84 
L 362.787055 60.64 
L 362.868218 60.64 
L 362.949382 57.44 
L 363.030545 60.64 
L 363.192873 51.04 
L 363.274036 63.84 
L 363.3552 60.64 
L 363.436364 67.04 
L 363.517527 54.24 
L 363.598691 57.44 
L 363.761018 60.64 
L 363.842182 83.04 
L 364.085673 51.04 
L 364.166836 60.64 
L 364.329164 54.24 
L 364.410327 67.04 
L 364.572655 60.64 
L 364.653818 57.44 
L 364.734982 67.04 
L 364.816145 51.04 
L 364.897309 73.44 
L 364.978473 57.44 
L 365.059636 60.64 
L 365.1408 57.44 
L 365.303127 63.84 
L 365.384291 60.64 
L 365.465455 63.84 
L 365.790109 54.24 
L 365.952436 67.04 
L 366.114764 60.64 
L 366.195927 67.04 
L 366.277091 54.24 
L 366.358255 70.24 
L 366.439418 54.24 
L 366.520582 57.44 
L 366.764073 57.44 
L 366.845236 54.24 
L 366.9264 67.04 
L 367.007564 54.24 
L 367.251055 73.44 
L 367.494545 47.84 
L 367.575709 63.84 
L 367.656873 57.44 
L 367.738036 60.64 
L 367.8192 51.04 
L 367.900364 57.44 
L 368.062691 51.04 
L 368.306182 67.04 
L 368.387345 60.64 
L 368.468509 70.24 
L 368.549673 67.04 
L 368.712 63.84 
L 368.793164 73.44 
L 368.955491 47.84 
L 369.036655 67.04 
L 369.198982 57.44 
L 369.361309 51.04 
L 369.442473 63.84 
L 369.523636 57.44 
L 369.685964 63.84 
L 369.767127 60.64 
L 369.848291 63.84 
L 370.010618 57.44 
L 370.172945 76.64 
L 370.335273 51.04 
L 370.416436 67.04 
L 370.4976 63.84 
L 370.578764 67.04 
L 370.741091 54.24 
L 370.822255 76.64 
L 370.903418 47.84 
L 370.984582 57.44 
L 371.065745 70.24 
L 371.228073 60.64 
L 371.3904 57.44 
L 371.552727 70.24 
L 371.633891 57.44 
L 371.877382 73.44 
L 372.202036 51.04 
L 372.2832 51.04 
L 372.445527 60.64 
L 372.526691 54.24 
L 372.607855 63.84 
L 372.689018 60.64 
L 372.851345 70.24 
L 372.932509 67.04 
L 373.013673 54.24 
L 373.176 60.64 
L 373.257164 57.44 
L 373.419491 70.24 
L 373.500655 57.44 
L 373.500655 57.44 
" clip-path="url(#p4a6126fcab)" style="fill: none; stroke: #1f77b4; stroke-width: 1.5; stroke-linecap: square"/>
   </g>
   <g id="line2d_30">
    <path d="M 69.218182 222.24 
L 71.815418 230.24 
L 74.412655 219.04 
L 77.009891 238.24 
L 79.607127 235.04 
L 82.204364 225.44 
L 84.8016 225.44 
L 87.398836 228.64 
L 89.996073 220.64 
L 92.593309 223.84 
L 95.190545 209.44 
L 97.787782 207.84 
L 100.385018 199.84 
L 102.982255 188.64 
L 105.579491 193.44 
L 108.176727 179.04 
L 110.773964 174.24 
L 113.3712 175.84 
L 115.968436 199.84 
L 118.565673 175.84 
L 121.162909 150.24 
L 123.760145 171.04 
L 126.357382 183.84 
L 128.954618 169.44 
L 131.551855 156.64 
L 134.149091 177.44 
L 136.746327 191.84 
L 139.343564 166.24 
L 141.9408 166.24 
L 144.538036 174.24 
L 147.135273 163.04 
L 149.732509 161.44 
L 152.329745 158.24 
L 154.926982 155.04 
L 157.524218 163.04 
L 160.121455 164.64 
L 162.718691 161.44 
L 165.315927 166.24 
L 167.913164 164.64 
L 170.5104 177.44 
L 173.107636 151.84 
L 175.704873 183.84 
L 178.302109 175.84 
L 180.899345 180.64 
L 183.496582 159.84 
L 186.093818 159.84 
L 188.691055 167.84 
L 191.288291 148.64 
L 193.885527 167.84 
L 196.482764 167.84 
L 199.08 140.64 
L 201.677236 156.64 
L 204.274473 156.64 
L 206.871709 155.04 
L 209.468945 155.04 
L 212.066182 153.44 
L 214.663418 153.44 
L 217.260655 159.84 
L 219.857891 143.84 
L 222.455127 153.44 
L 225.052364 137.44 
L 227.6496 143.84 
L 230.246836 151.84 
L 232.844073 148.64 
L 235.441309 147.04 
L 238.038545 143.84 
L 240.635782 150.24 
L 243.233018 158.24 
L 245.830255 142.24 
L 248.427491 158.24 
L 251.024727 150.24 
L 253.621964 156.64 
L 256.2192 159.84 
L 258.816436 158.24 
L 261.413673 142.24 
L 264.010909 145.44 
L 266.608145 137.44 
L 269.205382 139.04 
L 271.802618 137.44 
L 274.399855 158.24 
L 276.997091 121.44 
L 279.594327 142.24 
L 282.191564 147.04 
L 284.7888 163.04 
L 287.386036 147.04 
L 289.983273 150.24 
L 292.580509 158.24 
L 295.177745 172.64 
L 297.774982 127.84 
L 300.372218 137.44 
L 302.969455 145.44 
L 305.566691 150.24 
L 308.163927 151.84 
L 310.761164 156.64 
L 313.3584 153.44 
L 315.955636 135.84 
L 318.552873 150.24 
L 321.150109 150.24 
L 323.747345 134.24 
L 326.344582 143.84 
L 328.941818 158.24 
L 331.539055 139.04 
L 334.136291 163.04 
L 336.733527 143.84 
L 339.330764 153.44 
L 341.928 145.44 
L 344.525236 148.64 
L 347.122473 150.24 
L 349.719709 153.44 
L 352.316945 135.84 
L 354.914182 155.04 
L 357.511418 147.04 
L 360.108655 140.64 
L 362.705891 139.04 
L 365.303127 135.84 
L 367.900364 140.64 
L 370.4976 142.24 
L 373.094836 147.04 
L 373.581818 145.77024 
" clip-path="url(#p4a6126fcab)" style="fill: none; stroke: #ff7f0e; stroke-width: 1.5; stroke-linecap: square"/>
   </g>
   <g id="line2d_31">
    <path d="M 69.218182 239.84 
L 71.815418 231.84 
L 74.412655 227.04 
L 77.009891 230.24 
L 79.607127 235.04 
L 82.204364 235.04 
L 84.8016 223.84 
L 87.398836 212.64 
L 89.996073 198.24 
L 92.593309 190.24 
L 95.190545 179.04 
L 97.787782 171.04 
L 100.385018 167.84 
L 102.982255 139.04 
L 105.579491 131.04 
L 108.176727 139.04 
L 110.773964 129.44 
L 113.3712 113.44 
L 115.968436 111.84 
L 118.565673 86.24 
L 121.162909 113.44 
L 123.760145 84.64 
L 126.357382 86.24 
L 128.954618 91.04 
L 131.551855 73.44 
L 134.149091 84.64 
L 136.746327 73.44 
L 139.343564 78.24 
L 141.9408 81.44 
L 144.538036 70.24 
L 147.135273 70.24 
L 149.732509 79.84 
L 152.329745 79.84 
L 154.926982 78.24 
L 157.524218 76.64 
L 160.121455 65.44 
L 162.718691 67.04 
L 165.315927 67.04 
L 167.913164 71.84 
L 170.5104 70.24 
L 173.107636 70.24 
L 175.704873 78.24 
L 178.302109 67.04 
L 180.899345 62.24 
L 183.496582 63.84 
L 186.093818 67.04 
L 188.691055 75.04 
L 191.288291 65.44 
L 193.885527 67.04 
L 196.482764 60.64 
L 199.08 67.04 
L 201.677236 78.24 
L 204.274473 67.04 
L 206.871709 55.84 
L 209.468945 70.24 
L 212.066182 67.04 
L 214.663418 59.04 
L 217.260655 73.44 
L 219.857891 73.44 
L 222.455127 63.84 
L 225.052364 62.24 
L 227.6496 75.04 
L 230.246836 73.44 
L 232.844073 75.04 
L 235.441309 75.04 
L 238.038545 75.04 
L 240.635782 59.04 
L 243.233018 62.24 
L 245.830255 67.04 
L 248.427491 59.04 
L 251.024727 63.84 
L 253.621964 75.04 
L 256.2192 60.64 
L 258.816436 57.44 
L 261.413673 67.04 
L 264.010909 73.44 
L 266.608145 62.24 
L 269.205382 65.44 
L 271.802618 63.84 
L 274.399855 63.84 
L 276.997091 63.84 
L 279.594327 62.24 
L 282.191564 63.84 
L 284.7888 55.84 
L 287.386036 55.84 
L 289.983273 65.44 
L 292.580509 67.04 
L 295.177745 60.64 
L 297.774982 70.24 
L 300.372218 60.64 
L 302.969455 59.04 
L 305.566691 68.64 
L 308.163927 57.44 
L 310.761164 51.04 
L 313.3584 63.84 
L 315.955636 67.04 
L 318.552873 60.64 
L 321.150109 55.84 
L 323.747345 62.24 
L 326.344582 60.64 
L 328.941818 65.44 
L 331.539055 62.24 
L 334.136291 63.84 
L 336.733527 67.04 
L 339.330764 59.04 
L 341.928 62.24 
L 344.525236 67.04 
L 347.122473 67.04 
L 349.719709 68.64 
L 352.316945 59.04 
L 354.914182 55.84 
L 357.511418 70.24 
L 360.108655 60.64 
L 362.705891 60.64 
L 365.303127 62.24 
L 367.900364 63.84 
L 370.4976 59.04 
L 373.094836 54.24 
L 373.581818 60.70144 
" clip-path="url(#p4a6126fcab)" style="fill: none; stroke: #2ca02c; stroke-width: 1.5; stroke-linecap: square"/>
   </g>
   <g id="patch_3">
    <path d="M 54 256.32 
L 54 34.56 
" style="fill: none; stroke: #000000; stroke-width: 0.8; stroke-linejoin: miter; stroke-linecap: square"/>
   </g>
   <g id="patch_4">
    <path d="M 388.8 256.32 
L 388.8 34.56 
" style="fill: none; stroke: #000000; stroke-width: 0.8; stroke-linejoin: miter; stroke-linecap: square"/>
   </g>
   <g id="patch_5">
    <path d="M 54 256.32 
L 388.8 256.32 
" style="fill: none; stroke: #000000; stroke-width: 0.8; stroke-linejoin: miter; stroke-linecap: square"/>
   </g>
   <g id="patch_6">
    <path d="M 54 34.56 
L 388.8 34.56 
" style="fill: none; stroke: #000000; stroke-width: 0.8; stroke-linejoin: miter; stroke-linecap: square"/>
   </g>
   <g id="text_17">
    <!-- Percentage of digits classified correctly -->
    <g transform="translate(103.746563 28.56)scale(0.12 -0.12)">
     <defs>
      <path id="DejaVuSans-50" d="M 1259 4147 
L 1259 2394 
L 2053 2394 
Q 2494 2394 2734 2622 
Q 2975 2850 2975 3272 
Q 2975 3691 2734 3919 
Q 2494 4147 2053 4147 
L 1259 4147 
z
M 628 4666 
L 2053 4666 
Q 2838 4666 3239 4311 
Q 3641 3956 3641 3272 
Q 3641 2581 3239 2228 
Q 2838 1875 2053 1875 
L 1259 1875 
L 1259 0 
L 628 0 
L 628 4666 
z
" transform="scale(0.015625)"/>
      <path id="DejaVuSans-67" d="M 2906 1791 
Q 2906 2416 2648 2759 
Q 2391 3103 1925 3103 
Q 1463 3103 1205 2759 
Q 947 2416 947 1791 
Q 947 1169 1205 825 
Q 1463 481 1925 481 
Q 2391 481 2648 825 
Q 2906 1169 2906 1791 
z
M 3481 434 
Q 3481 -459 3084 -895 
Q 2688 -1331 1869 -1331 
Q 1566 -1331 1297 -1286 
Q 1028 -1241 775 -1147 
L 775 -588 
Q 1028 -725 1275 -790 
Q 1522 -856 1778 -856 
Q 2344 -856 2625 -561 
Q 2906 -266 2906 331 
L 2906 616 
Q 2728 306 2450 153 
Q 2172 0 1784 0 
Q 1141 0 747 490 
Q 353 981 353 1791 
Q 353 2603 747 3093 
Q 1141 3584 1784 3584 
Q 2172 3584 2450 3431 
Q 2728 3278 2906 2969 
L 2906 3500 
L 3481 3500 
L 3481 434 
z
" transform="scale(0.015625)"/>
      <path id="DejaVuSans-6f" d="M 1959 3097 
Q 1497 3097 1228 2736 
Q 959 2375 959 1747 
Q 959 1119 1226 758 
Q 1494 397 1959 397 
Q 2419 397 2687 759 
Q 2956 1122 2956 1747 
Q 2956 2369 2687 2733 
Q 2419 3097 1959 3097 
z
M 1959 3584 
Q 2709 3584 3137 3096 
Q 3566 2609 3566 1747 
Q 3566 888 3137 398 
Q 2709 -91 1959 -91 
Q 1206 -91 779 398 
Q 353 888 353 1747 
Q 353 2609 779 3096 
Q 1206 3584 1959 3584 
z
" transform="scale(0.015625)"/>
      <path id="DejaVuSans-66" d="M 2375 4863 
L 2375 4384 
L 1825 4384 
Q 1516 4384 1395 4259 
Q 1275 4134 1275 3809 
L 1275 3500 
L 2222 3500 
L 2222 3053 
L 1275 3053 
L 1275 0 
L 697 0 
L 697 3053 
L 147 3053 
L 147 3500 
L 697 3500 
L 697 3744 
Q 697 4328 969 4595 
Q 1241 4863 1831 4863 
L 2375 4863 
z
" transform="scale(0.015625)"/>
      <path id="DejaVuSans-64" d="M 2906 2969 
L 2906 4863 
L 3481 4863 
L 3481 0 
L 2906 0 
L 2906 525 
Q 2725 213 2448 61 
Q 2172 -91 1784 -91 
Q 1150 -91 751 415 
Q 353 922 353 1747 
Q 353 2572 751 3078 
Q 1150 3584 1784 3584 
Q 2172 3584 2448 3432 
Q 2725 3281 2906 2969 
z
M 947 1747 
Q 947 1113 1208 752 
Q 1469 391 1925 391 
Q 2381 391 2643 752 
Q 2906 1113 2906 1747 
Q 2906 2381 2643 2742 
Q 2381 3103 1925 3103 
Q 1469 3103 1208 2742 
Q 947 2381 947 1747 
z
" transform="scale(0.015625)"/>
      <path id="DejaVuSans-69" d="M 603 3500 
L 1178 3500 
L 1178 0 
L 603 0 
L 603 3500 
z
M 603 4863 
L 1178 4863 
L 1178 4134 
L 603 4134 
L 603 4863 
z
" transform="scale(0.015625)"/>
      <path id="DejaVuSans-73" d="M 2834 3397 
L 2834 2853 
Q 2591 2978 2328 3040 
Q 2066 3103 1784 3103 
Q 1356 3103 1142 2972 
Q 928 2841 928 2578 
Q 928 2378 1081 2264 
Q 1234 2150 1697 2047 
L 1894 2003 
Q 2506 1872 2764 1633 
Q 3022 1394 3022 966 
Q 3022 478 2636 193 
Q 2250 -91 1575 -91 
Q 1294 -91 989 -36 
Q 684 19 347 128 
L 347 722 
Q 666 556 975 473 
Q 1284 391 1588 391 
Q 1994 391 2212 530 
Q 2431 669 2431 922 
Q 2431 1156 2273 1281 
Q 2116 1406 1581 1522 
L 1381 1569 
Q 847 1681 609 1914 
Q 372 2147 372 2553 
Q 372 3047 722 3315 
Q 1072 3584 1716 3584 
Q 2034 3584 2315 3537 
Q 2597 3491 2834 3397 
z
" transform="scale(0.015625)"/>
      <path id="DejaVuSans-6c" d="M 603 4863 
L 1178 4863 
L 1178 0 
L 603 0 
L 603 4863 
z
" transform="scale(0.015625)"/>
      <path id="DejaVuSans-79" d="M 2059 -325 
Q 1816 -950 1584 -1140 
Q 1353 -1331 966 -1331 
L 506 -1331 
L 506 -850 
L 844 -850 
Q 1081 -850 1212 -737 
Q 1344 -625 1503 -206 
L 1606 56 
L 191 3500 
L 800 3500 
L 1894 763 
L 2988 3500 
L 3597 3500 
L 2059 -325 
z
" transform="scale(0.015625)"/>
     </defs>
     <use xlink:href="#DejaVuSans-50"/>
     <use xlink:href="#DejaVuSans-65" x="56.677734"/>
     <use xlink:href="#DejaVuSans-72" x="118.201172"/>
     <use xlink:href="#DejaVuSans-63" x="157.064453"/>
     <use xlink:href="#DejaVuSans-65" x="212.044922"/>
     <use xlink:href="#DejaVuSans-6e" x="273.568359"/>
     <use xlink:href="#DejaVuSans-74" x="336.947266"/>
     <use xlink:href="#DejaVuSans-61" x="376.15625"/>
     <use xlink:href="#DejaVuSans-67" x="437.435547"/>
     <use xlink:href="#DejaVuSans-65" x="500.912109"/>
     <use xlink:href="#DejaVuSans-20" x="562.435547"/>
     <use xlink:href="#DejaVuSans-6f" x="594.222656"/>
     <use xlink:href="#DejaVuSans-66" x="655.404297"/>
     <use xlink:href="#DejaVuSans-20" x="690.609375"/>
     <use xlink:href="#DejaVuSans-64" x="722.396484"/>
     <use xlink:href="#DejaVuSans-69" x="785.873047"/>
     <use xlink:href="#DejaVuSans-67" x="813.65625"/>
     <use xlink:href="#DejaVuSans-69" x="877.132812"/>
     <use xlink:href="#DejaVuSans-74" x="904.916016"/>
     <use xlink:href="#DejaVuSans-73" x="944.125"/>
     <use xlink:href="#DejaVuSans-20" x="996.224609"/>
     <use xlink:href="#DejaVuSans-63" x="1028.011719"/>
     <use xlink:href="#DejaVuSans-6c" x="1082.992188"/>
     <use xlink:href="#DejaVuSans-61" x="1110.775391"/>
     <use xlink:href="#DejaVuSans-73" x="1172.054688"/>
     <use xlink:href="#DejaVuSans-73" x="1224.154297"/>
     <use xlink:href="#DejaVuSans-69" x="1276.253906"/>
     <use xlink:href="#DejaVuSans-66" x="1304.037109"/>
     <use xlink:href="#DejaVuSans-69" x="1339.242188"/>
     <use xlink:href="#DejaVuSans-65" x="1367.025391"/>
     <use xlink:href="#DejaVuSans-64" x="1428.548828"/>
     <use xlink:href="#DejaVuSans-20" x="1492.025391"/>
     <use xlink:href="#DejaVuSans-63" x="1523.8125"/>
     <use xlink:href="#DejaVuSans-6f" x="1578.792969"/>
     <use xlink:href="#DejaVuSans-72" x="1639.974609"/>
     <use xlink:href="#DejaVuSans-72" x="1679.337891"/>
     <use xlink:href="#DejaVuSans-65" x="1718.201172"/>
     <use xlink:href="#DejaVuSans-63" x="1779.724609"/>
     <use xlink:href="#DejaVuSans-74" x="1834.705078"/>
     <use xlink:href="#DejaVuSans-6c" x="1873.914062"/>
     <use xlink:href="#DejaVuSans-79" x="1901.697266"/>
    </g>
   </g>
   <g id="legend_1">
    <g id="patch_7">
     <path d="M 211.810937 251.32 
L 381.8 251.32 
Q 383.8 251.32 383.8 249.32 
L 383.8 206.285625 
Q 383.8 204.285625 381.8 204.285625 
L 211.810937 204.285625 
Q 209.810937 204.285625 209.810937 206.285625 
L 209.810937 249.32 
Q 209.810937 251.32 211.810937 251.32 
z
" style="fill: #ffffff; opacity: 0.8; stroke: #cccccc; stroke-linejoin: miter"/>
    </g>
    <g id="line2d_32">
     <path d="M 213.810937 212.384062 
L 223.810937 212.384062 
L 233.810937 212.384062 
" style="fill: none; stroke: #1f77b4; stroke-width: 1.5; stroke-linecap: square"/>
    </g>
    <g id="text_18">
     <!-- training -->
     <g transform="translate(241.810937 215.884062)scale(0.1 -0.1)">
      <use xlink:href="#DejaVuSans-74"/>
      <use xlink:href="#DejaVuSans-72" x="39.208984"/>
      <use xlink:href="#DejaVuSans-61" x="80.322266"/>
      <use xlink:href="#DejaVuSans-69" x="141.601562"/>
      <use xlink:href="#DejaVuSans-6e" x="169.384766"/>
      <use xlink:href="#DejaVuSans-69" x="232.763672"/>
      <use xlink:href="#DejaVuSans-6e" x="260.546875"/>
      <use xlink:href="#DejaVuSans-67" x="323.925781"/>
     </g>
    </g>
    <g id="line2d_33">
     <path d="M 213.810937 227.062187 
L 223.810937 227.062187 
L 233.810937 227.062187 
" style="fill: none; stroke: #ff7f0e; stroke-width: 1.5; stroke-linecap: square"/>
    </g>
    <g id="text_19">
     <!-- validation, slightly changed -->
     <g transform="translate(241.810937 230.562187)scale(0.1 -0.1)">
      <defs>
       <path id="DejaVuSans-76" d="M 191 3500 
L 800 3500 
L 1894 563 
L 2988 3500 
L 3597 3500 
L 2284 0 
L 1503 0 
L 191 3500 
z
" transform="scale(0.015625)"/>
       <path id="DejaVuSans-2c" d="M 750 794 
L 1409 794 
L 1409 256 
L 897 -744 
L 494 -744 
L 750 256 
L 750 794 
z
" transform="scale(0.015625)"/>
      </defs>
      <use xlink:href="#DejaVuSans-76"/>
      <use xlink:href="#DejaVuSans-61" x="59.179688"/>
      <use xlink:href="#DejaVuSans-6c" x="120.458984"/>
      <use xlink:href="#DejaVuSans-69" x="148.242188"/>
      <use xlink:href="#DejaVuSans-64" x="176.025391"/>
      <use xlink:href="#DejaVuSans-61" x="239.501953"/>
      <use xlink:href="#DejaVuSans-74" x="300.78125"/>
      <use xlink:href="#DejaVuSans-69" x="339.990234"/>
      <use xlink:href="#DejaVuSans-6f" x="367.773438"/>
      <use xlink:href="#DejaVuSans-6e" x="428.955078"/>
      <use xlink:href="#DejaVuSans-2c" x="492.333984"/>
      <use xlink:href="#DejaVuSans-20" x="524.121094"/>
      <use xlink:href="#DejaVuSans-73" x="555.908203"/>
      <use xlink:href="#DejaVuSans-6c" x="608.007812"/>
      <use xlink:href="#DejaVuSans-69" x="635.791016"/>
      <use xlink:href="#DejaVuSans-67" x="663.574219"/>
      <use xlink:href="#DejaVuSans-68" x="727.050781"/>
      <use xlink:href="#DejaVuSans-74" x="790.429688"/>
      <use xlink:href="#DejaVuSans-6c" x="829.638672"/>
      <use xlink:href="#DejaVuSans-79" x="857.421875"/>
      <use xlink:href="#DejaVuSans-20" x="916.601562"/>
      <use xlink:href="#DejaVuSans-63" x="948.388672"/>
      <use xlink:href="#DejaVuSans-68" x="1003.369141"/>
      <use xlink:href="#DejaVuSans-61" x="1066.748047"/>
      <use xlink:href="#DejaVuSans-6e" x="1128.027344"/>
      <use xlink:href="#DejaVuSans-67" x="1191.40625"/>
      <use xlink:href="#DejaVuSans-65" x="1254.882812"/>
      <use xlink:href="#DejaVuSans-64" x="1316.40625"/>
     </g>
    </g>
    <g id="line2d_34">
     <path d="M 213.810937 241.740313 
L 223.810937 241.740313 
L 233.810937 241.740313 
" style="fill: none; stroke: #2ca02c; stroke-width: 1.5; stroke-linecap: square"/>
    </g>
    <g id="text_20">
     <!-- validation -->
     <g transform="translate(241.810937 245.240313)scale(0.1 -0.1)">
      <use xlink:href="#DejaVuSans-76"/>
      <use xlink:href="#DejaVuSans-61" x="59.179688"/>
      <use xlink:href="#DejaVuSans-6c" x="120.458984"/>
      <use xlink:href="#DejaVuSans-69" x="148.242188"/>
      <use xlink:href="#DejaVuSans-64" x="176.025391"/>
      <use xlink:href="#DejaVuSans-61" x="239.501953"/>
      <use xlink:href="#DejaVuSans-74" x="300.78125"/>
      <use xlink:href="#DejaVuSans-69" x="339.990234"/>
      <use xlink:href="#DejaVuSans-6f" x="367.773438"/>
      <use xlink:href="#DejaVuSans-6e" x="428.955078"/>
     </g>
    </g>
   </g>
  </g>
 </g>
 <defs>
  <clipPath id="p4a6126fcab">
   <rect x="54" y="34.56" width="334.8" height="221.76"/>
  </clipPath>
 </defs>
</svg>
