<?xml version="1.0" encoding="utf-8" standalone="no"?>
<!DOCTYPE svg PUBLIC "-//W3C//DTD SVG 1.1//EN"
  "http://www.w3.org/Graphics/SVG/1.1/DTD/svg11.dtd">
<svg xmlns:xlink="http://www.w3.org/1999/xlink" width="504pt" height="432pt" viewBox="0 0 504 432" xmlns="http://www.w3.org/2000/svg" version="1.1">
 <metadata>
  <rdf:RDF xmlns:dc="http://purl.org/dc/elements/1.1/" xmlns:cc="http://creativecommons.org/ns#" xmlns:rdf="http://www.w3.org/1999/02/22-rdf-syntax-ns#">
   <cc:Work>
    <dc:type rdf:resource="http://purl.org/dc/dcmitype/StillImage"/>
    <dc:date>2023-02-20T23:50:08.926659</dc:date>
    <dc:format>image/svg+xml</dc:format>
    <dc:creator>
     <cc:Agent>
      <dc:title>Matplotlib v3.5.1, https://matplotlib.org/</dc:title>
     </cc:Agent>
    </dc:creator>
   </cc:Work>
  </rdf:RDF>
 </metadata>
 <defs>
  <style type="text/css">*{stroke-linejoin: round; stroke-linecap: butt}</style>
 </defs>
 <g id="figure_1">
  <g id="patch_1">
   <path d="M 0 432 
L 504 432 
L 504 0 
L 0 0 
z
" style="fill: #ffffff"/>
  </g>
  <g id="axes_1">
   <g id="patch_2">
    <path d="M 63 384.48 
L 453.6 384.48 
L 453.6 51.84 
L 63 51.84 
z
" style="fill: #ffffff"/>
   </g>
   <g id="matplotlib.axis_1">
    <g id="xtick_1">
     <g id="line2d_1">
      <defs>
       <path id="mcdccd36f73" d="M 0 0 
L 0 3.5 
" style="stroke: #000000; stroke-width: 0.8"/>
      </defs>
      <g>
       <use xlink:href="#mcdccd36f73" x="80.754545" y="384.48" style="stroke: #000000; stroke-width: 0.8"/>
      </g>
     </g>
     <g id="text_1">
      <!-- 0 -->
      <g transform="translate(77.573295 399.078438)scale(0.1 -0.1)">
       <defs>
        <path id="DejaVuSans-30" d="M 2034 4250 
Q 1547 4250 1301 3770 
Q 1056 3291 1056 2328 
Q 1056 1369 1301 889 
Q 1547 409 2034 409 
Q 2525 409 2770 889 
Q 3016 1369 3016 2328 
Q 3016 3291 2770 3770 
Q 2525 4250 2034 4250 
z
M 2034 4750 
Q 2819 4750 3233 4129 
Q 3647 3509 3647 2328 
Q 3647 1150 3233 529 
Q 2819 -91 2034 -91 
Q 1250 -91 836 529 
Q 422 1150 422 2328 
Q 422 3509 836 4129 
Q 1250 4750 2034 4750 
z
" transform="scale(0.015625)"/>
       </defs>
       <use xlink:href="#DejaVuSans-30"/>
      </g>
     </g>
    </g>
    <g id="xtick_2">
     <g id="line2d_2">
      <g>
       <use xlink:href="#mcdccd36f73" x="126.454791" y="384.48" style="stroke: #000000; stroke-width: 0.8"/>
      </g>
     </g>
     <g id="text_2">
      <!-- 1000 -->
      <g transform="translate(113.729791 399.078438)scale(0.1 -0.1)">
       <defs>
        <path id="DejaVuSans-31" d="M 794 531 
L 1825 531 
L 1825 4091 
L 703 3866 
L 703 4441 
L 1819 4666 
L 2450 4666 
L 2450 531 
L 3481 531 
L 3481 0 
L 794 0 
L 794 531 
z
" transform="scale(0.015625)"/>
       </defs>
       <use xlink:href="#DejaVuSans-31"/>
       <use xlink:href="#DejaVuSans-30" x="63.623047"/>
       <use xlink:href="#DejaVuSans-30" x="127.246094"/>
       <use xlink:href="#DejaVuSans-30" x="190.869141"/>
      </g>
     </g>
    </g>
    <g id="xtick_3">
     <g id="line2d_3">
      <g>
       <use xlink:href="#mcdccd36f73" x="172.155037" y="384.48" style="stroke: #000000; stroke-width: 0.8"/>
      </g>
     </g>
     <g id="text_3">
      <!-- 2000 -->
      <g transform="translate(159.430037 399.078438)scale(0.1 -0.1)">
       <defs>
        <path id="DejaVuSans-32" d="M 1228 531 
L 3431 531 
L 3431 0 
L 469 0 
L 469 531 
Q 828 903 1448 1529 
Q 2069 2156 2228 2338 
Q 2531 2678 2651 2914 
Q 2772 3150 2772 3378 
Q 2772 3750 2511 3984 
Q 2250 4219 1831 4219 
Q 1534 4219 1204 4116 
Q 875 4013 500 3803 
L 500 4441 
Q 881 4594 1212 4672 
Q 1544 4750 1819 4750 
Q 2544 4750 2975 4387 
Q 3406 4025 3406 3419 
Q 3406 3131 3298 2873 
Q 3191 2616 2906 2266 
Q 2828 2175 2409 1742 
Q 1991 1309 1228 531 
z
" transform="scale(0.015625)"/>
       </defs>
       <use xlink:href="#DejaVuSans-32"/>
       <use xlink:href="#DejaVuSans-30" x="63.623047"/>
       <use xlink:href="#DejaVuSans-30" x="127.246094"/>
       <use xlink:href="#DejaVuSans-30" x="190.869141"/>
      </g>
     </g>
    </g>
    <g id="xtick_4">
     <g id="line2d_4">
      <g>
       <use xlink:href="#mcdccd36f73" x="217.855283" y="384.48" style="stroke: #000000; stroke-width: 0.8"/>
      </g>
     </g>
     <g id="text_4">
      <!-- 3000 -->
      <g transform="translate(205.130283 399.078438)scale(0.1 -0.1)">
       <defs>
        <path id="DejaVuSans-33" d="M 2597 2516 
Q 3050 2419 3304 2112 
Q 3559 1806 3559 1356 
Q 3559 666 3084 287 
Q 2609 -91 1734 -91 
Q 1441 -91 1130 -33 
Q 819 25 488 141 
L 488 750 
Q 750 597 1062 519 
Q 1375 441 1716 441 
Q 2309 441 2620 675 
Q 2931 909 2931 1356 
Q 2931 1769 2642 2001 
Q 2353 2234 1838 2234 
L 1294 2234 
L 1294 2753 
L 1863 2753 
Q 2328 2753 2575 2939 
Q 2822 3125 2822 3475 
Q 2822 3834 2567 4026 
Q 2313 4219 1838 4219 
Q 1578 4219 1281 4162 
Q 984 4106 628 3988 
L 628 4550 
Q 988 4650 1302 4700 
Q 1616 4750 1894 4750 
Q 2613 4750 3031 4423 
Q 3450 4097 3450 3541 
Q 3450 3153 3228 2886 
Q 3006 2619 2597 2516 
z
" transform="scale(0.015625)"/>
       </defs>
       <use xlink:href="#DejaVuSans-33"/>
       <use xlink:href="#DejaVuSans-30" x="63.623047"/>
       <use xlink:href="#DejaVuSans-30" x="127.246094"/>
       <use xlink:href="#DejaVuSans-30" x="190.869141"/>
      </g>
     </g>
    </g>
    <g id="xtick_5">
     <g id="line2d_5">
      <g>
       <use xlink:href="#mcdccd36f73" x="263.555528" y="384.48" style="stroke: #000000; stroke-width: 0.8"/>
      </g>
     </g>
     <g id="text_5">
      <!-- 4000 -->
      <g transform="translate(250.830528 399.078438)scale(0.1 -0.1)">
       <defs>
        <path id="DejaVuSans-34" d="M 2419 4116 
L 825 1625 
L 2419 1625 
L 2419 4116 
z
M 2253 4666 
L 3047 4666 
L 3047 1625 
L 3713 1625 
L 3713 1100 
L 3047 1100 
L 3047 0 
L 2419 0 
L 2419 1100 
L 313 1100 
L 313 1709 
L 2253 4666 
z
" transform="scale(0.015625)"/>
       </defs>
       <use xlink:href="#DejaVuSans-34"/>
       <use xlink:href="#DejaVuSans-30" x="63.623047"/>
       <use xlink:href="#DejaVuSans-30" x="127.246094"/>
       <use xlink:href="#DejaVuSans-30" x="190.869141"/>
      </g>
     </g>
    </g>
    <g id="xtick_6">
     <g id="line2d_6">
      <g>
       <use xlink:href="#mcdccd36f73" x="309.255774" y="384.48" style="stroke: #000000; stroke-width: 0.8"/>
      </g>
     </g>
     <g id="text_6">
      <!-- 5000 -->
      <g transform="translate(296.530774 399.078438)scale(0.1 -0.1)">
       <defs>
        <path id="DejaVuSans-35" d="M 691 4666 
L 3169 4666 
L 3169 4134 
L 1269 4134 
L 1269 2991 
Q 1406 3038 1543 3061 
Q 1681 3084 1819 3084 
Q 2600 3084 3056 2656 
Q 3513 2228 3513 1497 
Q 3513 744 3044 326 
Q 2575 -91 1722 -91 
Q 1428 -91 1123 -41 
Q 819 9 494 109 
L 494 744 
Q 775 591 1075 516 
Q 1375 441 1709 441 
Q 2250 441 2565 725 
Q 2881 1009 2881 1497 
Q 2881 1984 2565 2268 
Q 2250 2553 1709 2553 
Q 1456 2553 1204 2497 
Q 953 2441 691 2322 
L 691 4666 
z
" transform="scale(0.015625)"/>
       </defs>
       <use xlink:href="#DejaVuSans-35"/>
       <use xlink:href="#DejaVuSans-30" x="63.623047"/>
       <use xlink:href="#DejaVuSans-30" x="127.246094"/>
       <use xlink:href="#DejaVuSans-30" x="190.869141"/>
      </g>
     </g>
    </g>
    <g id="xtick_7">
     <g id="line2d_7">
      <g>
       <use xlink:href="#mcdccd36f73" x="354.95602" y="384.48" style="stroke: #000000; stroke-width: 0.8"/>
      </g>
     </g>
     <g id="text_7">
      <!-- 6000 -->
      <g transform="translate(342.23102 399.078438)scale(0.1 -0.1)">
       <defs>
        <path id="DejaVuSans-36" d="M 2113 2584 
Q 1688 2584 1439 2293 
Q 1191 2003 1191 1497 
Q 1191 994 1439 701 
Q 1688 409 2113 409 
Q 2538 409 2786 701 
Q 3034 994 3034 1497 
Q 3034 2003 2786 2293 
Q 2538 2584 2113 2584 
z
M 3366 4563 
L 3366 3988 
Q 3128 4100 2886 4159 
Q 2644 4219 2406 4219 
Q 1781 4219 1451 3797 
Q 1122 3375 1075 2522 
Q 1259 2794 1537 2939 
Q 1816 3084 2150 3084 
Q 2853 3084 3261 2657 
Q 3669 2231 3669 1497 
Q 3669 778 3244 343 
Q 2819 -91 2113 -91 
Q 1303 -91 875 529 
Q 447 1150 447 2328 
Q 447 3434 972 4092 
Q 1497 4750 2381 4750 
Q 2619 4750 2861 4703 
Q 3103 4656 3366 4563 
z
" transform="scale(0.015625)"/>
       </defs>
       <use xlink:href="#DejaVuSans-36"/>
       <use xlink:href="#DejaVuSans-30" x="63.623047"/>
       <use xlink:href="#DejaVuSans-30" x="127.246094"/>
       <use xlink:href="#DejaVuSans-30" x="190.869141"/>
      </g>
     </g>
    </g>
    <g id="xtick_8">
     <g id="line2d_8">
      <g>
       <use xlink:href="#mcdccd36f73" x="400.656265" y="384.48" style="stroke: #000000; stroke-width: 0.8"/>
      </g>
     </g>
     <g id="text_8">
      <!-- 7000 -->
      <g transform="translate(387.931265 399.078438)scale(0.1 -0.1)">
       <defs>
        <path id="DejaVuSans-37" d="M 525 4666 
L 3525 4666 
L 3525 4397 
L 1831 0 
L 1172 0 
L 2766 4134 
L 525 4134 
L 525 4666 
z
" transform="scale(0.015625)"/>
       </defs>
       <use xlink:href="#DejaVuSans-37"/>
       <use xlink:href="#DejaVuSans-30" x="63.623047"/>
       <use xlink:href="#DejaVuSans-30" x="127.246094"/>
       <use xlink:href="#DejaVuSans-30" x="190.869141"/>
      </g>
     </g>
    </g>
    <g id="xtick_9">
     <g id="line2d_9">
      <g>
       <use xlink:href="#mcdccd36f73" x="446.356511" y="384.48" style="stroke: #000000; stroke-width: 0.8"/>
      </g>
     </g>
     <g id="text_9">
      <!-- 8000 -->
      <g transform="translate(433.631511 399.078438)scale(0.1 -0.1)">
       <defs>
        <path id="DejaVuSans-38" d="M 2034 2216 
Q 1584 2216 1326 1975 
Q 1069 1734 1069 1313 
Q 1069 891 1326 650 
Q 1584 409 2034 409 
Q 2484 409 2743 651 
Q 3003 894 3003 1313 
Q 3003 1734 2745 1975 
Q 2488 2216 2034 2216 
z
M 1403 2484 
Q 997 2584 770 2862 
Q 544 3141 544 3541 
Q 544 4100 942 4425 
Q 1341 4750 2034 4750 
Q 2731 4750 3128 4425 
Q 3525 4100 3525 3541 
Q 3525 3141 3298 2862 
Q 3072 2584 2669 2484 
Q 3125 2378 3379 2068 
Q 3634 1759 3634 1313 
Q 3634 634 3220 271 
Q 2806 -91 2034 -91 
Q 1263 -91 848 271 
Q 434 634 434 1313 
Q 434 1759 690 2068 
Q 947 2378 1403 2484 
z
M 1172 3481 
Q 1172 3119 1398 2916 
Q 1625 2713 2034 2713 
Q 2441 2713 2670 2916 
Q 2900 3119 2900 3481 
Q 2900 3844 2670 4047 
Q 2441 4250 2034 4250 
Q 1625 4250 1398 4047 
Q 1172 3844 1172 3481 
z
" transform="scale(0.015625)"/>
       </defs>
       <use xlink:href="#DejaVuSans-38"/>
       <use xlink:href="#DejaVuSans-30" x="63.623047"/>
       <use xlink:href="#DejaVuSans-30" x="127.246094"/>
       <use xlink:href="#DejaVuSans-30" x="190.869141"/>
      </g>
     </g>
    </g>
    <g id="text_10">
     <!-- batchno -->
     <g transform="translate(237.955469 412.756563)scale(0.1 -0.1)">
      <defs>
       <path id="DejaVuSans-62" d="M 3116 1747 
Q 3116 2381 2855 2742 
Q 2594 3103 2138 3103 
Q 1681 3103 1420 2742 
Q 1159 2381 1159 1747 
Q 1159 1113 1420 752 
Q 1681 391 2138 391 
Q 2594 391 2855 752 
Q 3116 1113 3116 1747 
z
M 1159 2969 
Q 1341 3281 1617 3432 
Q 1894 3584 2278 3584 
Q 2916 3584 3314 3078 
Q 3713 2572 3713 1747 
Q 3713 922 3314 415 
Q 2916 -91 2278 -91 
Q 1894 -91 1617 61 
Q 1341 213 1159 525 
L 1159 0 
L 581 0 
L 581 4863 
L 1159 4863 
L 1159 2969 
z
" transform="scale(0.015625)"/>
       <path id="DejaVuSans-61" d="M 2194 1759 
Q 1497 1759 1228 1600 
Q 959 1441 959 1056 
Q 959 750 1161 570 
Q 1363 391 1709 391 
Q 2188 391 2477 730 
Q 2766 1069 2766 1631 
L 2766 1759 
L 2194 1759 
z
M 3341 1997 
L 3341 0 
L 2766 0 
L 2766 531 
Q 2569 213 2275 61 
Q 1981 -91 1556 -91 
Q 1019 -91 701 211 
Q 384 513 384 1019 
Q 384 1609 779 1909 
Q 1175 2209 1959 2209 
L 2766 2209 
L 2766 2266 
Q 2766 2663 2505 2880 
Q 2244 3097 1772 3097 
Q 1472 3097 1187 3025 
Q 903 2953 641 2809 
L 641 3341 
Q 956 3463 1253 3523 
Q 1550 3584 1831 3584 
Q 2591 3584 2966 3190 
Q 3341 2797 3341 1997 
z
" transform="scale(0.015625)"/>
       <path id="DejaVuSans-74" d="M 1172 4494 
L 1172 3500 
L 2356 3500 
L 2356 3053 
L 1172 3053 
L 1172 1153 
Q 1172 725 1289 603 
Q 1406 481 1766 481 
L 2356 481 
L 2356 0 
L 1766 0 
Q 1100 0 847 248 
Q 594 497 594 1153 
L 594 3053 
L 172 3053 
L 172 3500 
L 594 3500 
L 594 4494 
L 1172 4494 
z
" transform="scale(0.015625)"/>
       <path id="DejaVuSans-63" d="M 3122 3366 
L 3122 2828 
Q 2878 2963 2633 3030 
Q 2388 3097 2138 3097 
Q 1578 3097 1268 2742 
Q 959 2388 959 1747 
Q 959 1106 1268 751 
Q 1578 397 2138 397 
Q 2388 397 2633 464 
Q 2878 531 3122 666 
L 3122 134 
Q 2881 22 2623 -34 
Q 2366 -91 2075 -91 
Q 1284 -91 818 406 
Q 353 903 353 1747 
Q 353 2603 823 3093 
Q 1294 3584 2113 3584 
Q 2378 3584 2631 3529 
Q 2884 3475 3122 3366 
z
" transform="scale(0.015625)"/>
       <path id="DejaVuSans-68" d="M 3513 2113 
L 3513 0 
L 2938 0 
L 2938 2094 
Q 2938 2591 2744 2837 
Q 2550 3084 2163 3084 
Q 1697 3084 1428 2787 
Q 1159 2491 1159 1978 
L 1159 0 
L 581 0 
L 581 4863 
L 1159 4863 
L 1159 2956 
Q 1366 3272 1645 3428 
Q 1925 3584 2291 3584 
Q 2894 3584 3203 3211 
Q 3513 2838 3513 2113 
z
" transform="scale(0.015625)"/>
       <path id="DejaVuSans-6e" d="M 3513 2113 
L 3513 0 
L 2938 0 
L 2938 2094 
Q 2938 2591 2744 2837 
Q 2550 3084 2163 3084 
Q 1697 3084 1428 2787 
Q 1159 2491 1159 1978 
L 1159 0 
L 581 0 
L 581 3500 
L 1159 3500 
L 1159 2956 
Q 1366 3272 1645 3428 
Q 1925 3584 2291 3584 
Q 2894 3584 3203 3211 
Q 3513 2838 3513 2113 
z
" transform="scale(0.015625)"/>
       <path id="DejaVuSans-6f" d="M 1959 3097 
Q 1497 3097 1228 2736 
Q 959 2375 959 1747 
Q 959 1119 1226 758 
Q 1494 397 1959 397 
Q 2419 397 2687 759 
Q 2956 1122 2956 1747 
Q 2956 2369 2687 2733 
Q 2419 3097 1959 3097 
z
M 1959 3584 
Q 2709 3584 3137 3096 
Q 3566 2609 3566 1747 
Q 3566 888 3137 398 
Q 2709 -91 1959 -91 
Q 1206 -91 779 398 
Q 353 888 353 1747 
Q 353 2609 779 3096 
Q 1206 3584 1959 3584 
z
" transform="scale(0.015625)"/>
      </defs>
      <use xlink:href="#DejaVuSans-62"/>
      <use xlink:href="#DejaVuSans-61" x="63.476562"/>
      <use xlink:href="#DejaVuSans-74" x="124.755859"/>
      <use xlink:href="#DejaVuSans-63" x="163.964844"/>
      <use xlink:href="#DejaVuSans-68" x="218.945312"/>
      <use xlink:href="#DejaVuSans-6e" x="282.324219"/>
      <use xlink:href="#DejaVuSans-6f" x="345.703125"/>
     </g>
    </g>
   </g>
   <g id="matplotlib.axis_2">
    <g id="ytick_1">
     <g id="line2d_10">
      <defs>
       <path id="m0d12378b42" d="M 0 0 
L -3.5 0 
" style="stroke: #000000; stroke-width: 0.8"/>
      </defs>
      <g>
       <use xlink:href="#m0d12378b42" x="63" y="347.540003" style="stroke: #000000; stroke-width: 0.8"/>
      </g>
     </g>
     <g id="text_11">
      <!-- −0.010 -->
      <g transform="translate(18.992188 351.339222)scale(0.1 -0.1)">
       <defs>
        <path id="DejaVuSans-2212" d="M 678 2272 
L 4684 2272 
L 4684 1741 
L 678 1741 
L 678 2272 
z
" transform="scale(0.015625)"/>
        <path id="DejaVuSans-2e" d="M 684 794 
L 1344 794 
L 1344 0 
L 684 0 
L 684 794 
z
" transform="scale(0.015625)"/>
       </defs>
       <use xlink:href="#DejaVuSans-2212"/>
       <use xlink:href="#DejaVuSans-30" x="83.789062"/>
       <use xlink:href="#DejaVuSans-2e" x="147.412109"/>
       <use xlink:href="#DejaVuSans-30" x="179.199219"/>
       <use xlink:href="#DejaVuSans-31" x="242.822266"/>
       <use xlink:href="#DejaVuSans-30" x="306.445312"/>
      </g>
     </g>
    </g>
    <g id="ytick_2">
     <g id="line2d_11">
      <g>
       <use xlink:href="#m0d12378b42" x="63" y="275.452823" style="stroke: #000000; stroke-width: 0.8"/>
      </g>
     </g>
     <g id="text_12">
      <!-- −0.005 -->
      <g transform="translate(18.992188 279.252042)scale(0.1 -0.1)">
       <use xlink:href="#DejaVuSans-2212"/>
       <use xlink:href="#DejaVuSans-30" x="83.789062"/>
       <use xlink:href="#DejaVuSans-2e" x="147.412109"/>
       <use xlink:href="#DejaVuSans-30" x="179.199219"/>
       <use xlink:href="#DejaVuSans-30" x="242.822266"/>
       <use xlink:href="#DejaVuSans-35" x="306.445312"/>
      </g>
     </g>
    </g>
    <g id="ytick_3">
     <g id="line2d_12">
      <g>
       <use xlink:href="#m0d12378b42" x="63" y="203.365643" style="stroke: #000000; stroke-width: 0.8"/>
      </g>
     </g>
     <g id="text_13">
      <!-- 0.000 -->
      <g transform="translate(27.371875 207.164862)scale(0.1 -0.1)">
       <use xlink:href="#DejaVuSans-30"/>
       <use xlink:href="#DejaVuSans-2e" x="63.623047"/>
       <use xlink:href="#DejaVuSans-30" x="95.410156"/>
       <use xlink:href="#DejaVuSans-30" x="159.033203"/>
       <use xlink:href="#DejaVuSans-30" x="222.65625"/>
      </g>
     </g>
    </g>
    <g id="ytick_4">
     <g id="line2d_13">
      <g>
       <use xlink:href="#m0d12378b42" x="63" y="131.278464" style="stroke: #000000; stroke-width: 0.8"/>
      </g>
     </g>
     <g id="text_14">
      <!-- 0.005 -->
      <g transform="translate(27.371875 135.077682)scale(0.1 -0.1)">
       <use xlink:href="#DejaVuSans-30"/>
       <use xlink:href="#DejaVuSans-2e" x="63.623047"/>
       <use xlink:href="#DejaVuSans-30" x="95.410156"/>
       <use xlink:href="#DejaVuSans-30" x="159.033203"/>
       <use xlink:href="#DejaVuSans-35" x="222.65625"/>
      </g>
     </g>
    </g>
    <g id="ytick_5">
     <g id="line2d_14">
      <g>
       <use xlink:href="#m0d12378b42" x="63" y="59.191284" style="stroke: #000000; stroke-width: 0.8"/>
      </g>
     </g>
     <g id="text_15">
      <!-- 0.010 -->
      <g transform="translate(27.371875 62.990503)scale(0.1 -0.1)">
       <use xlink:href="#DejaVuSans-30"/>
       <use xlink:href="#DejaVuSans-2e" x="63.623047"/>
       <use xlink:href="#DejaVuSans-30" x="95.410156"/>
       <use xlink:href="#DejaVuSans-31" x="159.033203"/>
       <use xlink:href="#DejaVuSans-30" x="222.65625"/>
      </g>
     </g>
    </g>
    <g id="text_16">
     <!-- value -->
     <g transform="translate(12.9125 231.817812)rotate(-90)scale(0.1 -0.1)">
      <defs>
       <path id="DejaVuSans-76" d="M 191 3500 
L 800 3500 
L 1894 563 
L 2988 3500 
L 3597 3500 
L 2284 0 
L 1503 0 
L 191 3500 
z
" transform="scale(0.015625)"/>
       <path id="DejaVuSans-6c" d="M 603 4863 
L 1178 4863 
L 1178 0 
L 603 0 
L 603 4863 
z
" transform="scale(0.015625)"/>
       <path id="DejaVuSans-75" d="M 544 1381 
L 544 3500 
L 1119 3500 
L 1119 1403 
Q 1119 906 1312 657 
Q 1506 409 1894 409 
Q 2359 409 2629 706 
Q 2900 1003 2900 1516 
L 2900 3500 
L 3475 3500 
L 3475 0 
L 2900 0 
L 2900 538 
Q 2691 219 2414 64 
Q 2138 -91 1772 -91 
Q 1169 -91 856 284 
Q 544 659 544 1381 
z
M 1991 3584 
L 1991 3584 
z
" transform="scale(0.015625)"/>
       <path id="DejaVuSans-65" d="M 3597 1894 
L 3597 1613 
L 953 1613 
Q 991 1019 1311 708 
Q 1631 397 2203 397 
Q 2534 397 2845 478 
Q 3156 559 3463 722 
L 3463 178 
Q 3153 47 2828 -22 
Q 2503 -91 2169 -91 
Q 1331 -91 842 396 
Q 353 884 353 1716 
Q 353 2575 817 3079 
Q 1281 3584 2069 3584 
Q 2775 3584 3186 3129 
Q 3597 2675 3597 1894 
z
M 3022 2063 
Q 3016 2534 2758 2815 
Q 2500 3097 2075 3097 
Q 1594 3097 1305 2825 
Q 1016 2553 972 2059 
L 3022 2063 
z
" transform="scale(0.015625)"/>
      </defs>
      <use xlink:href="#DejaVuSans-76"/>
      <use xlink:href="#DejaVuSans-61" x="59.179688"/>
      <use xlink:href="#DejaVuSans-6c" x="120.458984"/>
      <use xlink:href="#DejaVuSans-75" x="148.242188"/>
      <use xlink:href="#DejaVuSans-65" x="211.621094"/>
     </g>
    </g>
   </g>
   <g id="line2d_15">
    <path d="M 80.754545 192.554068 
L 80.845946 192.589624 
L 81.028747 192.840633 
L 81.440049 192.706387 
L 81.988452 192.855162 
L 82.171253 192.902882 
L 82.216953 192.927427 
L 83.679361 192.855296 
L 85.141769 192.983661 
L 86.604177 193.248984 
L 90.9914 193.382317 
L 92.453808 193.693266 
L 93.916216 193.614126 
L 95.378624 193.767304 
L 98.30344 193.638053 
L 99.765848 193.774877 
L 102.690663 194.26978 
L 104.153071 194.360307 
L 105.615479 194.694055 
L 107.077887 194.867133 
L 108.540295 194.881957 
L 110.002703 195.018888 
L 111.465111 195.27073 
L 115.852334 195.654455 
L 117.314742 195.903075 
L 118.77715 195.851138 
L 120.239558 196.049674 
L 124.626781 196.134373 
L 127.551597 196.454775 
L 129.014005 196.352647 
L 131.938821 196.618856 
L 133.401229 196.860037 
L 134.863636 197.297149 
L 136.326044 197.601411 
L 137.788452 197.550951 
L 142.175676 197.85226 
L 143.638084 198.25771 
L 145.100491 198.172339 
L 146.562899 198.343322 
L 148.025307 198.276669 
L 153.874939 199.001689 
L 155.337346 198.957164 
L 156.799754 199.392584 
L 158.262162 199.640371 
L 159.72457 199.59641 
L 161.186978 200.085647 
L 162.649386 200.110648 
L 164.111794 200.44778 
L 165.574201 200.544752 
L 167.036609 200.866067 
L 168.499017 200.896896 
L 171.332432 201.468603 
L 172.79484 201.548361 
L 174.257248 201.819861 
L 175.719656 201.730167 
L 177.182064 201.821123 
L 180.10688 202.320296 
L 181.569287 202.875487 
L 184.494103 202.867672 
L 185.956511 203.311901 
L 187.418919 203.525717 
L 188.881327 203.480279 
L 191.806143 203.639741 
L 193.26855 203.849771 
L 194.730958 204.236208 
L 196.193366 203.933127 
L 197.655774 204.229494 
L 199.118182 204.378806 
L 200.58059 204.409071 
L 202.042998 204.318839 
L 203.505405 204.608949 
L 204.967813 204.70533 
L 206.430221 204.469708 
L 207.892629 204.998878 
L 209.355037 204.976588 
L 212.279853 205.528852 
L 219.591892 205.365147 
L 221.0543 205.817566 
L 222.516708 205.805428 
L 226.903931 206.329119 
L 228.366339 206.069435 
L 229.828747 205.941849 
L 234.215971 206.350656 
L 235.678378 205.97872 
L 237.140786 206.155477 
L 238.603194 205.822534 
L 240.065602 205.666616 
L 241.52801 205.951463 
L 244.452826 205.662964 
L 247.377641 205.544482 
L 248.840049 205.054117 
L 250.302457 204.79097 
L 251.764865 204.917535 
L 253.227273 204.315026 
L 254.689681 204.217275 
L 256.152088 204.262123 
L 258.985504 203.671054 
L 260.447912 203.382582 
L 261.910319 202.516173 
L 263.372727 202.37575 
L 266.297543 201.556767 
L 267.759951 201.204032 
L 272.147174 199.740968 
L 273.609582 199.335411 
L 275.07199 197.983552 
L 276.534398 197.718927 
L 279.459214 195.424472 
L 280.921622 194.761326 
L 282.384029 193.779872 
L 285.308845 190.835215 
L 286.771253 189.522322 
L 288.233661 187.415286 
L 289.696069 185.762065 
L 291.158477 183.835142 
L 292.620885 182.347614 
L 294.083292 179.779351 
L 295.5457 177.587293 
L 297.008108 176.659038 
L 299.932924 173.806627 
L 301.395332 169.978105 
L 302.85774 169.740013 
L 304.320147 168.071431 
L 305.782555 165.867611 
L 307.244963 165.562677 
L 308.707371 163.97995 
L 310.169779 163.163947 
L 311.632187 165.066754 
L 313.094595 164.652415 
L 314.557002 165.718273 
L 316.01941 167.480684 
L 317.481818 167.297053 
L 318.944226 165.965469 
L 320.406634 166.202568 
L 321.869042 167.780703 
L 323.33145 168.964533 
L 324.793857 168.077634 
L 326.256265 169.329621 
L 327.718673 168.521648 
L 329.181081 169.062902 
L 330.643489 172.033903 
L 332.105897 171.71291 
L 333.568305 174.180388 
L 335.030713 173.542566 
L 336.49312 174.47603 
L 337.955528 174.606758 
L 339.417936 175.848782 
L 340.880344 176.659145 
L 342.342752 178.807457 
L 343.80516 178.979756 
L 345.267568 181.488644 
L 346.729975 183.719211 
L 348.100983 186.573959 
L 349.563391 187.701126 
L 351.025799 188.086032 
L 352.488206 193.770768 
L 353.950614 194.626946 
L 355.413022 197.644942 
L 356.87543 202.438993 
L 358.337838 204.944551 
L 359.800246 204.707989 
L 361.262654 209.378428 
L 362.725061 215.637637 
L 364.187469 215.742584 
L 365.649877 222.8613 
L 367.112285 218.905139 
L 368.574693 216.343267 
L 370.037101 215.777227 
L 372.961916 214.209403 
L 374.424324 213.966047 
L 375.886732 213.434971 
L 377.34914 212.308691 
L 378.811548 212.451611 
L 380.273956 211.112642 
L 383.198771 209.30302 
L 384.661179 208.093544 
L 386.123587 206.463794 
L 387.585995 205.149075 
L 390.510811 205.24688 
L 391.973219 204.990821 
L 393.435627 205.246718 
L 394.898034 206.95432 
L 396.360442 208.012229 
L 399.285258 212.728052 
L 400.747666 217.596785 
L 403.672482 224.738059 
L 405.134889 229.036401 
L 406.597297 232.889762 
L 408.059705 235.179598 
L 409.522113 239.373851 
L 410.984521 244.644007 
L 412.446929 249.099448 
L 413.909337 255.818085 
L 415.371744 261.835119 
L 416.834152 264.044014 
L 418.29656 268.024613 
L 419.758968 279.413904 
L 421.221376 283.357013 
L 422.683784 288.399066 
L 425.6086 305.675844 
L 427.071007 315.894276 
L 428.533415 318.963054 
L 429.995823 330.398535 
L 431.458231 343.920937 
L 432.920639 349.513777 
L 434.383047 357.827252 
L 435.845455 369.36 
L 435.845455 369.36 
" clip-path="url(#p51508a6d7a)" style="fill: none; stroke: #1f77b4; stroke-width: 1.5; stroke-linecap: square"/>
   </g>
   <g id="line2d_16">
    <path d="M 80.754545 205.34172 
L 80.845946 205.378726 
L 81.028747 205.634327 
L 81.440049 205.481847 
L 82.216953 205.689648 
L 83.679361 205.588836 
L 85.141769 205.695609 
L 86.604177 205.935421 
L 90.9914 206.015877 
L 92.453808 206.297098 
L 93.916216 206.181677 
L 95.378624 206.306927 
L 98.30344 206.127753 
L 101.228256 206.473694 
L 102.690663 206.690034 
L 104.153071 206.761897 
L 105.615479 207.061379 
L 107.077887 207.217135 
L 110.002703 207.332288 
L 111.465111 207.567158 
L 115.852334 207.897362 
L 117.314742 208.120631 
L 118.77715 208.042967 
L 120.239558 208.208015 
L 124.626781 208.230036 
L 127.551597 208.505242 
L 129.014005 208.357273 
L 131.938821 208.55546 
L 133.401229 208.778621 
L 134.863636 209.185522 
L 136.326044 209.466474 
L 137.788452 209.382043 
L 142.175676 209.613583 
L 143.638084 209.993522 
L 145.100491 209.874986 
L 146.562899 210.011138 
L 148.025307 209.897866 
L 153.874939 210.510794 
L 155.337346 210.428566 
L 156.799754 210.826712 
L 158.262162 211.03188 
L 159.72457 210.95223 
L 161.186978 211.408489 
L 162.649386 211.388402 
L 164.111794 211.699002 
L 165.574201 211.764849 
L 167.036609 212.048809 
L 168.499017 212.052998 
L 169.870025 212.352105 
L 171.332432 212.552601 
L 172.79484 212.587297 
L 174.257248 212.833392 
L 175.719656 212.719529 
L 177.182064 212.779952 
L 180.10688 213.207423 
L 181.569287 213.713631 
L 184.494103 213.610778 
L 185.956511 214.000169 
L 187.418919 214.15034 
L 188.881327 214.052106 
L 193.26855 214.269467 
L 194.730958 214.617073 
L 196.193366 214.263505 
L 197.655774 214.514649 
L 200.58059 214.576146 
L 202.042998 214.448318 
L 203.505405 214.704135 
L 204.967813 214.736307 
L 206.430221 214.444505 
L 207.892629 214.927189 
L 209.355037 214.830137 
L 212.279853 215.244986 
L 219.591892 214.739207 
L 221.0543 215.152982 
L 222.516708 215.075802 
L 226.903931 215.369699 
L 228.366339 215.036917 
L 229.828747 214.833037 
L 234.215971 214.985464 
L 235.678378 214.511534 
L 237.140786 214.581786 
L 238.603194 214.129608 
L 240.065602 213.864071 
L 241.52801 214.032073 
L 244.452826 213.539023 
L 247.377641 213.158064 
L 248.840049 212.523705 
L 250.302457 212.131736 
L 251.764865 212.122337 
L 253.227273 211.366327 
L 256.152088 211.011364 
L 258.985504 210.105398 
L 260.447912 209.665305 
L 261.910319 208.583711 
L 263.372727 208.244591 
L 266.297543 207.018465 
L 267.759951 206.417299 
L 272.147174 204.265819 
L 273.609582 203.583337 
L 275.07199 201.947571 
L 276.534398 201.370252 
L 279.459214 198.511637 
L 280.921622 197.498682 
L 282.384029 196.142634 
L 285.308845 192.229494 
L 286.771253 190.479865 
L 288.233661 187.923794 
L 292.620885 181.432777 
L 295.5457 175.591103 
L 297.008108 174.174094 
L 299.932924 170.355858 
L 301.395332 166.170682 
L 302.85774 165.582405 
L 304.320147 163.743082 
L 305.782555 161.189804 
L 307.244963 160.536916 
L 308.707371 158.47862 
L 310.169779 157.362974 
L 311.632187 158.981929 
L 313.094595 158.500265 
L 314.557002 159.092892 
L 316.01941 160.809006 
L 317.481818 160.203436 
L 318.944226 158.508107 
L 320.406634 158.417929 
L 321.869042 159.655388 
L 323.33145 160.380192 
L 324.793857 159.198967 
L 326.256265 160.394962 
L 327.718673 159.288125 
L 329.181081 159.625364 
L 330.643489 162.521307 
L 332.105897 161.823303 
L 333.568305 164.246767 
L 335.030713 163.363788 
L 336.49312 164.015978 
L 337.955528 164.138758 
L 339.417936 165.318694 
L 340.880344 165.474772 
L 342.342752 167.014882 
L 343.80516 166.410761 
L 345.267568 168.502195 
L 346.729975 170.318907 
L 348.100983 173.037717 
L 349.563391 173.535009 
L 351.025799 173.31362 
L 352.488206 179.192515 
L 353.950614 179.16319 
L 355.413022 181.790909 
L 356.87543 186.361771 
L 358.337838 187.89087 
L 359.800246 186.642079 
L 361.262654 190.046755 
L 362.725061 195.446188 
L 364.187469 194.660101 
L 365.649877 200.790623 
L 367.112285 196.007985 
L 368.574693 193.402609 
L 370.037101 192.822658 
L 372.961916 191.093331 
L 374.424324 190.687935 
L 375.886732 189.983754 
L 377.34914 188.699569 
L 378.811548 188.662563 
L 380.273956 187.187925 
L 383.198771 185.087307 
L 384.661179 183.704404 
L 386.123587 181.74241 
L 387.585995 180.219809 
L 391.973219 179.19418 
L 393.435627 179.136442 
L 394.898034 180.899499 
L 396.360442 181.590413 
L 399.285258 186.008365 
L 400.747666 191.001327 
L 402.210074 194.767466 
L 403.672482 198.132397 
L 405.134889 202.642353 
L 406.597297 206.613928 
L 408.059705 208.605302 
L 409.522113 212.94602 
L 410.984521 218.011168 
L 412.446929 222.149134 
L 413.909337 228.513828 
L 415.371744 234.204149 
L 416.834152 235.568898 
L 418.29656 239.646603 
L 419.758968 250.391169 
L 421.221376 254.443631 
L 422.683784 258.923564 
L 424.146192 266.668582 
L 427.071007 284.57757 
L 428.533415 287.579535 
L 429.995823 298.756352 
L 431.458231 312.177567 
L 432.920639 317.634092 
L 434.383047 325.464562 
L 435.845455 336.810348 
L 435.845455 336.810348 
" clip-path="url(#p51508a6d7a)" style="fill: none; stroke: #ff7f0e; stroke-width: 1.5; stroke-linecap: square"/>
   </g>
   <g id="line2d_17">
    <path d="M 80.754545 218.148255 
L 80.845946 218.186228 
L 81.028747 218.439681 
L 81.440049 218.299661 
L 82.216953 218.513907 
L 83.679361 218.431947 
L 85.141769 218.554028 
L 86.604177 218.796739 
L 90.9914 218.90217 
L 92.453808 219.183875 
L 93.916216 219.078229 
L 95.378624 219.203532 
L 96.841032 219.052556 
L 98.30344 219.014208 
L 101.228256 219.353972 
L 102.690663 219.564028 
L 104.153071 219.6505 
L 105.615479 219.937736 
L 107.077887 220.089464 
L 110.002703 220.198709 
L 111.465111 220.4252 
L 115.852334 220.73145 
L 117.314742 220.936135 
L 118.77715 220.843541 
L 120.239558 220.975128 
L 124.626781 220.968576 
L 127.551597 221.231052 
L 129.014005 221.080452 
L 131.938821 221.265318 
L 133.401229 221.479994 
L 134.863636 221.861651 
L 136.326044 222.126974 
L 137.788452 222.033144 
L 142.175676 222.251257 
L 143.638084 222.611108 
L 145.100491 222.491337 
L 146.562899 222.610303 
L 148.025307 222.488866 
L 153.874939 223.069516 
L 155.337346 222.970637 
L 156.799754 223.336504 
L 158.262162 223.519706 
L 159.72457 223.42985 
L 161.186978 223.861833 
L 162.649386 223.830306 
L 164.111794 224.115985 
L 165.574201 224.179522 
L 167.036609 224.448605 
L 168.499017 224.44839 
L 171.332432 224.924951 
L 172.79484 224.940527 
L 174.257248 225.173947 
L 175.719656 225.059224 
L 177.182064 225.097197 
L 180.10688 225.486051 
L 181.569287 225.965673 
L 184.494103 225.852186 
L 185.956511 226.206398 
L 187.418919 226.323591 
L 188.881327 226.201832 
L 193.26855 226.37064 
L 194.730958 226.694291 
L 196.193366 226.323591 
L 197.655774 226.542939 
L 200.58059 226.553144 
L 202.042998 226.408022 
L 203.505405 226.637252 
L 204.967813 226.630163 
L 206.430221 226.328747 
L 207.892629 226.777917 
L 209.355037 226.657125 
L 210.817445 226.908376 
L 212.279853 227.027396 
L 219.591892 226.435628 
L 221.0543 226.82169 
L 222.516708 226.721468 
L 226.903931 226.918097 
L 228.366339 226.553198 
L 229.828747 226.311506 
L 234.215971 226.327619 
L 235.678378 225.830112 
L 237.140786 225.85036 
L 238.603194 225.37917 
L 240.065602 225.078506 
L 241.52801 225.194571 
L 244.452826 224.643193 
L 247.377641 224.185323 
L 248.840049 223.497202 
L 250.302457 223.061459 
L 251.764865 223.015484 
L 253.227273 222.22075 
L 256.152088 221.734092 
L 258.985504 220.72334 
L 260.447912 220.236037 
L 261.910319 219.098961 
L 263.372727 218.674605 
L 270.684767 215.034414 
L 273.609582 213.357669 
L 275.07199 211.645475 
L 276.534398 210.913796 
L 282.384029 205.308012 
L 286.771253 199.092308 
L 288.233661 196.363884 
L 292.620885 189.367893 
L 295.5457 183.184307 
L 297.008108 181.54215 
L 298.470516 179.574677 
L 299.932924 177.342902 
L 301.395332 173.135597 
L 302.85774 172.296015 
L 304.320147 170.579095 
L 305.782555 167.859426 
L 307.244963 167.051479 
L 308.707371 164.759066 
L 310.169779 163.480467 
L 311.632187 164.707505 
L 313.094595 164.159135 
L 314.557002 164.309091 
L 316.01941 165.548161 
L 317.481818 164.46141 
L 318.944226 162.569237 
L 320.406634 162.054919 
L 321.869042 162.812701 
L 323.33145 162.943859 
L 324.793857 161.512027 
L 326.256265 162.23377 
L 327.718673 160.711224 
L 329.181081 160.722556 
L 330.643489 163.113257 
L 332.105897 161.640069 
L 333.568305 163.452967 
L 335.030713 162.427982 
L 336.49312 162.535186 
L 337.955528 162.277758 
L 339.417936 162.813775 
L 340.880344 161.855121 
L 342.342752 162.386089 
L 343.80516 160.710042 
L 346.729975 162.970659 
L 348.100983 164.78968 
L 349.563391 164.289917 
L 351.025799 163.06551 
L 352.488206 167.70904 
L 353.950614 166.764458 
L 355.413022 168.192691 
L 356.87543 171.665148 
L 358.337838 171.871015 
L 359.800246 169.39728 
L 361.262654 170.765359 
L 362.725061 174.419782 
L 364.187469 172.358049 
L 365.649877 176.80624 
L 367.112285 171.335159 
L 368.574693 168.863733 
L 370.037101 168.158156 
L 371.499509 167.207988 
L 372.961916 166.124567 
L 374.424324 165.488866 
L 375.886732 164.538859 
L 377.34914 162.944772 
L 378.811548 162.587069 
L 380.273956 160.773741 
L 381.736364 159.55884 
L 383.198771 158.047412 
L 384.661179 156.287847 
L 386.123587 153.824101 
L 387.585995 151.78165 
L 389.048403 150.701667 
L 393.435627 147.884516 
L 394.898034 149.149473 
L 396.360442 148.896288 
L 397.82285 150.439674 
L 399.285258 151.687552 
L 400.747666 155.660685 
L 402.210074 158.492607 
L 403.672482 160.684584 
L 405.134889 163.952624 
L 406.597297 166.730836 
L 408.059705 167.441247 
L 410.984521 174.595035 
L 412.446929 177.265346 
L 413.909337 181.743667 
L 415.371744 185.27182 
L 416.834152 184.684081 
L 418.29656 187.529859 
L 419.758968 195.811217 
L 422.683784 200.044356 
L 424.146192 205.796228 
L 425.6086 212.740229 
L 427.071007 218.527281 
L 428.533415 219.432548 
L 429.995823 227.928474 
L 431.458231 238.81177 
L 432.920639 241.748747 
L 434.383047 246.558078 
L 435.845455 254.803343 
L 435.845455 254.803343 
" clip-path="url(#p51508a6d7a)" style="fill: none; stroke: #2ca02c; stroke-width: 1.5; stroke-linecap: square"/>
   </g>
   <g id="line2d_18">
    <path d="M 80.754545 223.842465 
L 80.845946 223.880612 
L 81.028747 224.15565 
L 81.714251 224.044059 
L 82.079853 224.1281 
L 82.216953 224.141951 
L 83.679361 223.891955 
L 88.066585 223.913415 
L 96.841032 223.522835 
L 98.30344 223.366414 
L 99.765848 223.39674 
L 102.690663 223.65927 
L 104.153071 223.637897 
L 107.077887 223.971548 
L 110.002703 223.855862 
L 112.927518 223.974868 
L 117.314742 224.157033 
L 118.77715 223.963781 
L 121.701966 224.007788 
L 126.089189 224.059702 
L 127.551597 224.088003 
L 129.014005 223.842489 
L 131.938821 223.88842 
L 133.401229 224.015368 
L 136.326044 224.474857 
L 137.788452 224.307519 
L 140.713268 224.432661 
L 142.175676 224.322994 
L 143.638084 224.655292 
L 145.100491 224.562929 
L 146.562899 224.640257 
L 148.025307 224.500288 
L 153.874939 224.708558 
L 155.337346 224.504084 
L 158.262162 224.82497 
L 159.72457 224.63306 
L 161.186978 224.991347 
L 162.649386 224.871092 
L 164.111794 225.017913 
L 165.574201 224.961485 
L 167.036609 225.118587 
L 168.499017 225.007947 
L 171.332432 225.124267 
L 172.79484 225.052418 
L 174.257248 225.133112 
L 175.719656 224.953778 
L 177.182064 224.886591 
L 181.569287 225.269158 
L 184.494103 224.83643 
L 185.956511 225.010108 
L 187.418919 225.060115 
L 188.881327 224.772251 
L 194.730958 225.127325 
L 196.193366 224.68448 
L 197.655774 224.858766 
L 200.58059 224.707783 
L 202.042998 224.508828 
L 203.505405 224.678179 
L 204.967813 224.597891 
L 206.430221 224.160208 
L 207.892629 224.454189 
L 209.355037 224.20186 
L 212.279853 224.188788 
L 213.74226 223.898077 
L 215.204668 223.727232 
L 219.591892 222.855788 
L 221.0543 223.199342 
L 222.516708 222.981427 
L 226.903931 222.903049 
L 228.366339 222.502489 
L 229.828747 222.271627 
L 234.215971 222.286535 
L 235.678378 221.88047 
L 237.140786 221.861958 
L 238.603194 221.35923 
L 240.065602 221.11244 
L 241.52801 221.090674 
L 242.990418 220.71657 
L 247.377641 220.00433 
L 250.302457 219.069321 
L 251.764865 219.070623 
L 253.227273 218.284073 
L 256.152088 217.752863 
L 258.985504 216.794618 
L 260.447912 216.431821 
L 261.910319 215.335915 
L 263.372727 214.950282 
L 270.684767 211.502034 
L 272.147174 210.46376 
L 273.609582 209.712038 
L 275.07199 208.044872 
L 276.534398 207.273986 
L 279.459214 204.385274 
L 280.921622 202.931002 
L 282.384029 201.312135 
L 283.846437 199.390615 
L 285.308845 197.030853 
L 286.771253 195.211192 
L 288.233661 192.088315 
L 292.620885 184.580401 
L 295.5457 178.222928 
L 299.932924 170.626958 
L 301.395332 166.605607 
L 302.85774 164.692505 
L 304.320147 162.576583 
L 305.782555 160.161465 
L 307.244963 158.515951 
L 308.707371 156.52638 
L 310.169779 155.376548 
L 311.632187 156.233789 
L 313.094595 155.959722 
L 314.557002 155.488683 
L 316.01941 156.327572 
L 317.481818 155.358958 
L 318.944226 154.617081 
L 320.406634 152.773582 
L 321.869042 153.224473 
L 323.33145 153.28645 
L 324.793857 151.411454 
L 326.256265 150.517765 
L 327.718673 150.348504 
L 329.181081 151.645227 
L 330.643489 154.930057 
L 333.568305 153.77466 
L 335.030713 153.281375 
L 336.49312 153.6409 
L 337.955528 154.437464 
L 339.417936 156.973284 
L 340.880344 158.370735 
L 342.342752 159.97497 
L 343.80516 157.648142 
L 345.267568 160.126047 
L 346.729975 159.627378 
L 348.100983 160.366211 
L 349.563391 161.291099 
L 351.025799 161.147413 
L 352.488206 167.041276 
L 353.950614 164.718665 
L 355.413022 166.910153 
L 356.87543 168.174867 
L 358.337838 170.573982 
L 359.800246 169.90762 
L 361.262654 171.183385 
L 362.725061 173.389912 
L 364.187469 174.125662 
L 365.649877 179.539114 
L 367.112285 178.079487 
L 368.574693 175.66968 
L 370.037101 174.753139 
L 375.886732 169.936099 
L 377.34914 168.117076 
L 378.811548 167.163493 
L 380.273956 164.879651 
L 383.198771 160.965148 
L 384.661179 159.447875 
L 386.123587 156.969944 
L 387.585995 155.566732 
L 389.048403 153.686916 
L 390.510811 153.141607 
L 391.973219 151.32788 
L 393.435627 150.104869 
L 394.898034 149.852104 
L 396.360442 148.993442 
L 397.82285 151.323546 
L 399.285258 152.69181 
L 400.747666 156.972451 
L 402.210074 159.81298 
L 403.672482 164.187375 
L 406.597297 169.961072 
L 408.059705 172.550977 
L 409.522113 174.644354 
L 410.984521 178.154272 
L 412.446929 180.689782 
L 413.909337 184.924407 
L 415.371744 190.506138 
L 416.834152 191.976469 
L 418.29656 194.827839 
L 419.758968 202.120482 
L 421.221376 203.966777 
L 422.683784 206.219862 
L 424.146192 211.372889 
L 425.6086 218.239258 
L 427.071007 223.343658 
L 428.533415 224.064525 
L 431.458231 240.047353 
L 432.920639 243.432852 
L 434.383047 245.390936 
L 435.845455 250.929166 
L 435.845455 250.929166 
" clip-path="url(#p51508a6d7a)" style="fill: none; stroke: #d62728; stroke-width: 1.5; stroke-linecap: square"/>
   </g>
   <g id="line2d_19">
    <path d="M 80.754545 226.185017 
L 80.845946 226.224601 
L 81.028747 226.504398 
L 81.714251 226.385809 
L 82.079853 226.460088 
L 82.216953 226.472066 
L 83.679361 226.20258 
L 88.066585 226.183728 
L 92.453808 226.032161 
L 93.916216 225.817566 
L 95.378624 225.928583 
L 98.30344 225.53519 
L 99.765848 225.551813 
L 102.690663 225.780883 
L 104.153071 225.762353 
L 107.077887 226.063178 
L 110.002703 225.923561 
L 112.927518 226.048086 
L 117.314742 226.195356 
L 118.77715 225.981728 
L 123.164373 225.969536 
L 124.626781 225.834135 
L 126.089189 225.999103 
L 127.551597 226.015565 
L 129.014005 225.732034 
L 131.938821 225.740923 
L 133.401229 225.84818 
L 136.326044 226.266494 
L 137.788452 226.074027 
L 140.713268 226.179512 
L 142.175676 226.03533 
L 143.638084 226.346574 
L 145.100491 226.230643 
L 146.562899 226.285399 
L 148.025307 226.120083 
L 153.874939 226.239962 
L 155.337346 226.011563 
L 158.262162 226.267756 
L 159.72457 226.04438 
L 161.186978 226.379874 
L 162.649386 226.219257 
L 164.111794 226.341687 
L 165.574201 226.268669 
L 167.036609 226.402512 
L 168.499017 226.267434 
L 171.332432 226.325816 
L 172.79484 226.22162 
L 174.257248 226.275651 
L 177.182064 225.983796 
L 181.569287 226.287011 
L 184.494103 225.785851 
L 185.956511 225.922917 
L 187.418919 225.925978 
L 188.881327 225.60187 
L 190.343735 225.650477 
L 191.806143 225.566744 
L 193.26855 225.620373 
L 194.730958 225.819876 
L 196.193366 225.333566 
L 197.655774 225.464804 
L 200.58059 225.223006 
L 202.042998 224.994876 
L 203.505405 225.137716 
L 204.967813 225.007391 
L 206.430221 224.518584 
L 207.892629 224.780604 
L 209.355037 224.46662 
L 210.817445 224.473844 
L 212.279853 224.352327 
L 213.74226 224.010925 
L 215.204668 223.795739 
L 219.591892 222.772312 
L 221.0543 223.087074 
L 222.516708 222.820059 
L 225.441523 222.601033 
L 226.903931 222.584115 
L 228.366339 222.12176 
L 229.828747 221.833449 
L 234.215971 221.677612 
L 235.678378 221.220843 
L 237.140786 221.127201 
L 238.603194 220.541396 
L 240.065602 220.224351 
L 241.52801 220.132454 
L 244.452826 219.384044 
L 245.915233 219.005126 
L 247.377641 218.753633 
L 250.302457 217.643734 
L 251.764865 217.567816 
L 253.227273 216.695472 
L 256.152088 215.98439 
L 258.985504 214.795324 
L 260.447912 214.354721 
L 261.910319 213.122231 
L 263.372727 212.62389 
L 267.759951 210.231739 
L 269.222359 209.249614 
L 270.684767 208.483668 
L 272.147174 207.289069 
L 273.609582 206.375746 
L 275.07199 204.540719 
L 276.534398 203.59329 
L 279.459214 200.378852 
L 280.921622 198.726544 
L 282.384029 196.901078 
L 283.846437 194.763455 
L 285.308845 192.081919 
L 286.771253 190.038555 
L 288.233661 186.697041 
L 292.620885 178.54233 
L 297.008108 168.988173 
L 298.470516 166.485005 
L 299.932924 163.642395 
L 301.395332 159.656479 
L 304.320147 155.887763 
L 305.782555 153.632785 
L 307.244963 152.172272 
L 308.707371 150.220107 
L 310.169779 149.237659 
L 311.632187 150.29922 
L 313.094595 150.397723 
L 314.557002 149.952528 
L 316.01941 151.031705 
L 317.481818 150.067358 
L 318.944226 149.581505 
L 320.406634 147.757704 
L 321.869042 148.65658 
L 323.33145 148.848214 
L 324.793857 147.294033 
L 326.256265 146.966085 
L 327.718673 147.076511 
L 329.181081 148.789779 
L 330.643489 152.393662 
L 335.030713 151.60113 
L 336.49312 152.611291 
L 337.955528 154.099141 
L 339.417936 157.277863 
L 340.880344 158.843484 
L 342.342752 160.886526 
L 343.80516 158.513549 
L 345.267568 161.111782 
L 346.729975 160.84329 
L 348.100983 161.844106 
L 349.563391 162.725741 
L 351.025799 162.78031 
L 352.488206 169.345016 
L 353.950614 166.843352 
L 355.413022 169.328313 
L 356.87543 171.026649 
L 358.337838 173.572247 
L 359.800246 172.865543 
L 361.262654 173.517464 
L 362.725061 175.198775 
L 364.187469 175.988782 
L 365.649877 180.993829 
L 367.112285 179.566294 
L 368.574693 177.169685 
L 370.037101 176.274461 
L 375.886732 171.217639 
L 377.34914 169.318914 
L 378.811548 168.221851 
L 380.273956 165.710573 
L 383.198771 161.725946 
L 384.661179 160.112094 
L 386.123587 157.450753 
L 387.585995 155.962472 
L 389.048403 153.896712 
L 390.510811 153.302044 
L 391.973219 151.314752 
L 393.435627 149.921806 
L 394.898034 149.915522 
L 396.360442 148.994088 
L 397.82285 151.442902 
L 399.285258 152.88843 
L 400.747666 157.346235 
L 402.210074 160.461149 
L 403.672482 164.820666 
L 406.597297 170.761917 
L 408.059705 173.305635 
L 409.522113 175.488912 
L 410.984521 179.038709 
L 412.446929 181.504549 
L 413.909337 185.65503 
L 415.371744 190.831731 
L 416.834152 192.078857 
L 418.29656 195.18577 
L 419.758968 202.079498 
L 422.683784 205.343456 
L 424.146192 210.352853 
L 425.6086 217.588199 
L 427.071007 221.830576 
L 428.533415 223.143979 
L 429.995823 232.045812 
L 431.458231 240.028815 
L 432.920639 243.560513 
L 434.383047 245.614001 
L 435.845455 251.270083 
L 435.845455 251.270083 
" clip-path="url(#p51508a6d7a)" style="fill: none; stroke: #9467bd; stroke-width: 1.5; stroke-linecap: square"/>
   </g>
   <g id="line2d_20">
    <path d="M 80.754545 234.554273 
L 80.845946 234.596166 
L 81.028747 234.873358 
L 81.714251 234.780066 
L 82.079853 234.857568 
L 82.216953 234.868202 
L 83.679361 234.630217 
L 86.604177 234.749076 
L 90.9914 234.447177 
L 92.453808 234.52194 
L 93.916216 234.32327 
L 95.378624 234.428217 
L 98.30344 234.027117 
L 99.765848 234.036355 
L 102.690663 234.241309 
L 104.153071 234.235777 
L 107.077887 234.523121 
L 110.002703 234.375743 
L 112.927518 234.502067 
L 117.314742 234.593641 
L 118.77715 234.36151 
L 123.164373 234.307264 
L 124.626781 234.161712 
L 126.089189 234.319241 
L 127.551597 234.333635 
L 129.014005 234.044412 
L 131.938821 234.033187 
L 133.401229 234.129433 
L 136.326044 234.509264 
L 137.788452 234.30474 
L 140.713268 234.400557 
L 142.175676 234.240235 
L 143.638084 234.528761 
L 145.100491 234.405498 
L 146.562899 234.441483 
L 148.025307 234.265317 
L 153.874939 234.347707 
L 155.337346 234.102203 
L 158.262162 234.309574 
L 159.72457 234.075885 
L 161.186978 234.380148 
L 162.649386 234.197644 
L 164.111794 234.294213 
L 165.574201 234.216012 
L 167.036609 234.33385 
L 168.499017 234.190125 
L 171.332432 234.227399 
L 172.79484 234.106768 
L 174.257248 234.144687 
L 177.182064 233.822969 
L 181.569287 234.073146 
L 184.494103 233.549375 
L 185.956511 233.652228 
L 187.418919 233.620861 
L 188.881327 233.276317 
L 190.343735 233.314021 
L 191.806143 233.204347 
L 193.26855 233.234102 
L 194.730958 233.400224 
L 196.193366 232.897453 
L 197.655774 232.993055 
L 200.58059 232.704369 
L 202.042998 232.456501 
L 203.505405 232.572943 
L 204.967813 232.400053 
L 206.430221 231.897604 
L 207.892629 232.122806 
L 209.355037 231.787232 
L 210.817445 231.804526 
L 212.279853 231.650005 
L 213.74226 231.290207 
L 215.204668 231.059741 
L 219.591892 230.007365 
L 221.0543 230.286169 
L 222.516708 229.999308 
L 225.441523 229.706862 
L 226.903931 229.673401 
L 228.366339 229.173101 
L 229.828747 228.847946 
L 234.215971 228.58853 
L 235.678378 228.119435 
L 237.140786 227.991768 
L 238.603194 227.39028 
L 240.065602 227.045736 
L 241.52801 226.918069 
L 244.452826 226.130317 
L 245.915233 225.714931 
L 247.377641 225.417006 
L 250.302457 224.225415 
L 251.764865 224.130189 
L 253.227273 223.241142 
L 256.152088 222.455055 
L 258.985504 221.210775 
L 260.447912 220.740498 
L 261.910319 219.475863 
L 263.372727 218.940759 
L 267.759951 216.345856 
L 269.222359 215.343052 
L 270.684767 214.530594 
L 272.147174 213.264133 
L 273.609582 212.271158 
L 275.07199 210.41293 
L 276.534398 209.386763 
L 279.459214 206.124524 
L 280.921622 204.428497 
L 282.384029 202.521232 
L 283.846437 200.313034 
L 285.308845 197.530203 
L 286.771253 195.437158 
L 288.233661 192.0284 
L 292.620885 183.724539 
L 294.083292 180.465898 
L 295.5457 176.931407 
L 297.008108 173.951678 
L 298.470516 171.474344 
L 299.932924 168.492091 
L 301.395332 164.616708 
L 302.85774 162.697144 
L 304.320147 161.04591 
L 305.782555 158.795444 
L 307.244963 157.461309 
L 308.707371 155.4716 
L 310.169779 154.498606 
L 311.632187 155.303061 
L 313.094595 155.404571 
L 314.557002 154.912435 
L 316.01941 155.585034 
L 317.481818 154.314222 
L 318.944226 153.695386 
L 320.406634 151.690155 
L 321.869042 152.38209 
L 323.33145 152.221822 
L 324.793857 150.60319 
L 326.256265 150.208911 
L 327.718673 150.147629 
L 329.181081 151.456574 
L 330.643489 154.621868 
L 333.568305 153.468303 
L 335.030713 153.44451 
L 336.49312 154.196599 
L 337.955528 155.584229 
L 339.417936 158.433444 
L 340.880344 159.172428 
L 342.342752 160.822856 
L 343.80516 158.053936 
L 345.267568 159.827089 
L 346.729975 159.367822 
L 348.100983 159.876394 
L 349.563391 159.984672 
L 351.025799 159.345533 
L 352.488206 165.192846 
L 353.950614 162.205598 
L 355.413022 163.832824 
L 356.87543 164.805765 
L 358.337838 167.064771 
L 359.800246 165.285871 
L 361.262654 164.219046 
L 362.725061 164.69464 
L 364.187469 164.687282 
L 365.649877 168.67438 
L 367.112285 166.859065 
L 368.574693 164.623046 
L 370.037101 163.600048 
L 372.961916 160.85911 
L 375.886732 157.822879 
L 377.34914 155.690734 
L 378.811548 154.257881 
L 380.273956 151.33879 
L 383.198771 146.757508 
L 384.661179 144.734178 
L 386.123587 141.615879 
L 387.585995 139.55608 
L 389.048403 136.890925 
L 390.510811 135.703148 
L 391.973219 132.990568 
L 393.435627 130.863257 
L 394.898034 130.266441 
L 396.360442 128.547534 
L 397.82285 130.188939 
L 399.285258 130.723344 
L 400.747666 134.042139 
L 402.210074 136.307 
L 403.672482 139.624774 
L 405.134889 141.235887 
L 406.597297 143.300896 
L 408.059705 144.734446 
L 409.522113 145.913254 
L 410.984521 148.087561 
L 412.446929 149.351122 
L 413.909337 151.721199 
L 415.371744 154.724721 
L 416.834152 154.219211 
L 418.29656 156.29899 
L 419.758968 161.122124 
L 421.221376 160.765978 
L 422.683784 160.200314 
L 424.146192 163.717349 
L 425.6086 169.060226 
L 427.071007 170.598402 
L 428.533415 170.419121 
L 429.995823 177.446908 
L 431.458231 183.074551 
L 432.920639 184.468894 
L 434.383047 184.249653 
L 435.845455 187.480848 
L 435.845455 187.480848 
" clip-path="url(#p51508a6d7a)" style="fill: none; stroke: #8c564b; stroke-width: 1.5; stroke-linecap: square"/>
   </g>
   <g id="line2d_21">
    <path d="M 80.754545 254.270129 
L 80.845946 254.315889 
L 81.074447 254.573907 
L 81.211548 254.53427 
L 81.62285 254.486254 
L 81.897052 254.592974 
L 82.216953 254.583844 
L 83.679361 254.361273 
L 86.604177 254.45709 
L 88.066585 254.272331 
L 89.528993 254.218568 
L 90.9914 253.968176 
L 92.453808 253.945188 
L 93.916216 253.66821 
L 95.378624 253.778744 
L 99.765848 253.165869 
L 104.153071 253.124459 
L 107.077887 253.351702 
L 112.927518 252.882929 
L 117.314742 252.878042 
L 118.77715 252.586723 
L 120.239558 252.5053 
L 124.626781 251.990391 
L 126.089189 252.025839 
L 127.551597 251.926101 
L 129.014005 251.589667 
L 131.938821 251.370158 
L 133.401229 251.365109 
L 136.326044 251.516193 
L 137.788452 251.233307 
L 139.25086 251.211125 
L 140.713268 251.067077 
L 142.175676 250.804762 
L 143.638084 250.978403 
L 149.487715 250.319016 
L 153.874939 250.018138 
L 155.337346 249.667417 
L 158.262162 249.68079 
L 159.72457 249.409667 
L 161.186978 249.596682 
L 162.649386 249.297361 
L 164.111794 249.251386 
L 165.574201 249.020813 
L 167.036609 249.042994 
L 168.499017 248.792441 
L 171.332432 248.564983 
L 172.79484 248.309972 
L 174.257248 248.180318 
L 177.182064 247.664872 
L 180.10688 247.427155 
L 181.569287 247.444557 
L 184.494103 246.522854 
L 187.418919 246.321553 
L 188.881327 245.781239 
L 193.26855 245.466127 
L 194.730958 245.479447 
L 196.193366 244.940583 
L 197.655774 245.027324 
L 202.042998 244.25461 
L 203.505405 244.383136 
L 204.967813 244.234899 
L 206.430221 243.632229 
L 207.892629 243.665421 
L 209.355037 243.2003 
L 212.279853 242.800167 
L 213.74226 242.334724 
L 215.204668 242.012952 
L 218.129484 240.969061 
L 219.591892 240.587619 
L 221.0543 240.772701 
L 222.516708 240.319449 
L 225.441523 239.7902 
L 226.903931 239.676229 
L 228.366339 239.065717 
L 229.828747 238.592217 
L 234.215971 238.145465 
L 235.678378 237.67653 
L 237.140786 237.486507 
L 238.603194 236.890014 
L 241.52801 236.252916 
L 245.915233 234.849335 
L 247.377641 234.429813 
L 248.840049 233.774132 
L 250.302457 233.244667 
L 251.764865 233.066085 
L 253.227273 232.149753 
L 256.152088 231.245506 
L 258.985504 229.841334 
L 260.447912 229.370574 
L 261.910319 228.30434 
L 263.372727 227.597098 
L 266.297543 225.653794 
L 267.759951 224.844183 
L 269.222359 223.756251 
L 270.684767 222.871661 
L 273.609582 220.594287 
L 275.07199 218.767048 
L 276.534398 217.44242 
L 277.996806 215.767447 
L 279.459214 213.641747 
L 280.921622 211.91677 
L 283.846437 208.242099 
L 285.308845 205.588867 
L 286.771253 203.423799 
L 288.233661 199.891241 
L 292.620885 191.032296 
L 295.5457 183.416502 
L 297.008108 180.179506 
L 299.932924 174.310333 
L 301.395332 170.646833 
L 302.85774 168.620548 
L 304.320147 166.903467 
L 305.782555 164.317104 
L 307.244963 162.033767 
L 308.707371 159.229184 
L 310.169779 157.914814 
L 311.632187 157.817117 
L 313.094595 157.918466 
L 314.557002 155.029129 
L 316.01941 155.063772 
L 317.481818 154.748607 
L 318.944226 154.595321 
L 320.406634 152.655401 
L 321.869042 152.837636 
L 323.33145 151.48959 
L 324.793857 149.579049 
L 326.256265 146.911746 
L 327.718673 147.926633 
L 329.181081 147.15768 
L 330.643489 148.966657 
L 332.105897 148.150225 
L 333.568305 146.238287 
L 336.49312 147.537618 
L 337.955528 147.997368 
L 340.880344 150.668861 
L 342.342752 151.159279 
L 343.80516 146.353063 
L 345.267568 146.92426 
L 346.729975 146.832256 
L 348.100983 147.097633 
L 349.563391 149.080145 
L 351.025799 149.271671 
L 352.488206 152.241733 
L 353.950614 149.486669 
L 355.413022 150.139074 
L 356.87543 148.738662 
L 358.337838 150.419919 
L 359.800246 148.367263 
L 361.262654 147.2702 
L 362.725061 143.539349 
L 364.187469 144.419803 
L 365.649877 147.096451 
L 367.112285 150.73444 
L 368.574693 149.068866 
L 370.037101 148.073152 
L 371.499509 146.382174 
L 372.961916 144.982621 
L 375.886732 140.996007 
L 377.34914 138.515236 
L 378.811548 136.409515 
L 380.273956 132.696119 
L 381.736364 130.663229 
L 384.661179 124.437588 
L 386.123587 120.958525 
L 387.585995 117.983952 
L 389.048403 113.235205 
L 390.510811 111.067075 
L 393.435627 103.967426 
L 394.898034 101.455288 
L 396.360442 98.498547 
L 397.82285 97.616589 
L 399.285258 95.368916 
L 400.747666 96.016379 
L 402.210074 94.066738 
L 403.672482 94.60211 
L 405.134889 94.115613 
L 409.522113 94.40199 
L 410.984521 92.760156 
L 412.446929 92.997013 
L 413.909337 90.274175 
L 415.371744 89.792457 
L 416.834152 88.652696 
L 418.29656 87.096151 
L 419.758968 87.97204 
L 421.221376 85.608677 
L 422.683784 83.705171 
L 424.146192 80.790753 
L 425.6086 80.514097 
L 427.071007 78.330874 
L 428.533415 77.905659 
L 429.995823 78.42551 
L 431.458231 76.122892 
L 432.920639 75.263599 
L 434.383047 76.275909 
L 435.845455 68.031718 
L 435.845455 68.031718 
" clip-path="url(#p51508a6d7a)" style="fill: none; stroke: #e377c2; stroke-width: 1.5; stroke-linecap: square"/>
   </g>
   <g id="line2d_22">
    <path d="M 80.754545 247.386323 
L 80.845946 247.434333 
L 81.074447 247.697924 
L 81.211548 247.657692 
L 81.62285 247.61217 
L 81.897052 247.716064 
L 82.216953 247.698887 
L 83.679361 247.464625 
L 86.604177 247.546554 
L 88.066585 247.358898 
L 89.528993 247.310402 
L 90.9914 247.046767 
L 92.453808 247.013616 
L 93.916216 246.736275 
L 95.378624 246.844509 
L 98.30344 246.312315 
L 101.228256 246.196126 
L 104.153071 246.170265 
L 107.077887 246.382479 
L 112.927518 245.935015 
L 117.314742 245.92242 
L 118.77715 245.621488 
L 121.701966 245.324497 
L 127.551597 244.907721 
L 129.014005 244.548313 
L 131.938821 244.303009 
L 133.401229 244.280445 
L 136.326044 244.404365 
L 137.788452 244.09772 
L 139.25086 244.068301 
L 140.713268 243.922521 
L 142.175676 243.632672 
L 143.638084 243.791417 
L 149.487715 243.074138 
L 153.874939 242.727949 
L 155.337346 242.368608 
L 158.262162 242.346413 
L 159.72457 242.055732 
L 161.186978 242.222566 
L 162.649386 241.895263 
L 164.111794 241.830966 
L 165.574201 241.585938 
L 167.036609 241.599426 
L 168.499017 241.328054 
L 171.332432 241.066537 
L 172.79484 240.791291 
L 174.257248 240.650184 
L 177.182064 240.092536 
L 180.10688 239.821647 
L 181.569287 239.82971 
L 184.494103 238.876803 
L 187.418919 238.631238 
L 188.881327 238.068346 
L 194.730958 237.676578 
L 196.193366 237.107577 
L 197.655774 237.165844 
L 202.042998 236.31248 
L 203.505405 236.4316 
L 204.967813 236.249526 
L 206.430221 235.61833 
L 207.892629 235.635443 
L 209.355037 235.135089 
L 210.817445 234.965831 
L 212.279853 234.670807 
L 213.74226 234.177361 
L 215.204668 233.837456 
L 218.129484 232.725146 
L 219.591892 232.336883 
L 221.0543 232.489397 
L 222.516708 232.012037 
L 225.441523 231.418873 
L 226.903931 231.287937 
L 228.366339 230.651336 
L 229.828747 230.158736 
L 234.215971 229.654279 
L 235.678378 229.161606 
L 237.140786 228.942808 
L 238.603194 228.302246 
L 241.52801 227.627397 
L 245.915233 226.130571 
L 247.377641 225.687746 
L 250.302457 224.411946 
L 251.764865 224.197418 
L 253.227273 223.247283 
L 256.152088 222.283842 
L 258.985504 220.77148 
L 260.447912 220.290052 
L 261.910319 219.176406 
L 263.372727 218.470655 
L 266.297543 216.446686 
L 267.759951 215.558035 
L 269.222359 214.462174 
L 270.684767 213.541566 
L 273.609582 211.13778 
L 275.07199 209.31028 
L 276.534398 207.963329 
L 277.996806 206.296405 
L 279.459214 204.169403 
L 280.921622 202.451999 
L 283.846437 198.722128 
L 285.308845 195.980707 
L 286.771253 193.8283 
L 288.233661 190.288297 
L 292.620885 181.60641 
L 295.5457 174.191193 
L 297.008108 170.976567 
L 298.470516 168.37256 
L 299.932924 165.527117 
L 301.395332 162.150505 
L 302.85774 160.467448 
L 304.320147 159.258765 
L 305.782555 157.201933 
L 307.244963 155.460938 
L 308.707371 153.022516 
L 310.169779 152.260424 
L 311.632187 152.478161 
L 313.094595 153.324402 
L 314.557002 150.860334 
L 316.01941 151.463448 
L 318.944226 152.04552 
L 320.406634 150.392622 
L 321.869042 151.65339 
L 323.33145 150.812345 
L 324.793857 149.550919 
L 326.256265 147.737538 
L 327.718673 149.533705 
L 329.181081 149.51911 
L 330.643489 151.808475 
L 332.105897 151.675129 
L 333.568305 150.563524 
L 337.955528 155.405967 
L 339.417936 157.705376 
L 340.880344 159.757239 
L 342.342752 161.312239 
L 343.80516 157.330513 
L 345.267568 158.900377 
L 346.729975 159.401027 
L 348.100983 160.437223 
L 349.563391 163.41091 
L 351.025799 164.132694 
L 352.488206 168.120812 
L 353.950614 166.179213 
L 355.413022 167.463452 
L 356.87543 166.787711 
L 358.337838 169.653536 
L 359.800246 168.248841 
L 361.262654 167.529636 
L 362.725061 163.849553 
L 364.187469 165.671353 
L 365.649877 168.583154 
L 367.112285 173.35517 
L 368.574693 171.791778 
L 370.037101 170.898326 
L 371.499509 169.256196 
L 372.961916 167.949077 
L 375.886732 164.020227 
L 377.34914 161.588036 
L 378.811548 159.447002 
L 380.273956 155.645214 
L 381.736364 153.679795 
L 384.661179 147.690609 
L 386.123587 144.278146 
L 387.585995 141.293704 
L 389.048403 136.64926 
L 390.510811 134.787419 
L 391.973219 131.009586 
L 393.435627 127.583964 
L 394.898034 125.262722 
L 396.360442 122.485664 
L 397.82285 121.867083 
L 399.285258 119.73056 
L 400.747666 120.480541 
L 402.210074 118.601124 
L 403.672482 119.145386 
L 405.134889 118.594236 
L 406.597297 118.900096 
L 408.059705 118.734243 
L 409.522113 118.717714 
L 410.984521 117.318161 
L 412.446929 117.501202 
L 413.909337 114.984351 
L 415.371744 114.237781 
L 416.834152 113.268344 
L 418.29656 112.144817 
L 419.758968 112.702653 
L 422.683784 108.193288 
L 424.146192 105.320641 
L 425.6086 105.361004 
L 427.071007 102.76406 
L 428.533415 102.905624 
L 429.995823 104.121478 
L 431.458231 102.183437 
L 432.920639 101.937033 
L 434.383047 103.458774 
L 435.845455 95.494998 
L 435.845455 95.494998 
" clip-path="url(#p51508a6d7a)" style="fill: none; stroke: #7f7f7f; stroke-width: 1.5; stroke-linecap: square"/>
   </g>
   <g id="line2d_23">
    <path d="M 80.754545 250.360285 
L 80.845946 250.409161 
L 81.074447 250.673732 
L 81.211548 250.639895 
L 81.62285 250.601869 
L 81.897052 250.707246 
L 82.216953 250.690435 
L 83.679361 250.485589 
L 86.604177 250.585649 
L 88.066585 250.408033 
L 89.528993 250.361198 
L 90.9914 250.093673 
L 92.453808 250.055755 
L 93.916216 249.791345 
L 95.378624 249.88222 
L 98.30344 249.337717 
L 101.228256 249.199255 
L 104.153071 249.142162 
L 107.077887 249.31806 
L 112.927518 248.838759 
L 117.314742 248.756101 
L 118.77715 248.440076 
L 123.164373 247.969047 
L 124.626781 247.743952 
L 126.089189 247.757111 
L 127.551597 247.641422 
L 129.014005 247.271043 
L 131.938821 246.981873 
L 133.401229 246.937886 
L 136.326044 247.020866 
L 137.788452 246.693617 
L 140.713268 246.499727 
L 142.175676 246.185582 
L 143.638084 246.32254 
L 148.025307 245.621528 
L 150.950123 245.416467 
L 152.412531 245.189922 
L 153.874939 245.134011 
L 155.337346 244.76084 
L 156.799754 244.785975 
L 158.262162 244.692898 
L 159.72457 244.383855 
L 161.186978 244.510179 
L 162.649386 244.163487 
L 164.111794 244.070248 
L 165.574201 243.809919 
L 167.036609 243.803313 
L 168.499017 243.512747 
L 171.332432 243.218904 
L 172.79484 242.922376 
L 174.257248 242.765653 
L 177.182064 242.17018 
L 180.10688 241.859929 
L 181.569287 241.85437 
L 184.494103 240.879307 
L 187.418919 240.563149 
L 188.881327 239.984916 
L 194.730958 239.482333 
L 196.193366 238.897145 
L 197.655774 238.919327 
L 202.042998 237.995932 
L 203.505405 238.08235 
L 204.967813 237.852207 
L 206.430221 237.206892 
L 207.892629 237.197976 
L 209.355037 236.675198 
L 210.817445 236.497474 
L 212.279853 236.171917 
L 213.74226 235.666352 
L 215.204668 235.311416 
L 218.129484 234.175333 
L 219.591892 233.778423 
L 221.0543 233.880685 
L 223.979115 233.012262 
L 225.441523 232.723092 
L 226.903931 232.569511 
L 228.366339 231.909694 
L 229.828747 231.391293 
L 234.215971 230.804924 
L 235.678378 230.309484 
L 237.140786 230.065483 
L 238.603194 229.406875 
L 241.52801 228.672403 
L 245.915233 227.097839 
L 247.377641 226.62254 
L 250.302457 225.272829 
L 251.764865 225.019779 
L 253.227273 224.048637 
L 256.152088 223.043632 
L 258.985504 221.491921 
L 260.447912 220.991835 
L 261.910319 219.855726 
L 263.372727 219.140132 
L 266.297543 217.050095 
L 267.759951 216.106345 
L 269.222359 215.017204 
L 270.684767 214.087553 
L 273.609582 211.573052 
L 275.07199 209.745384 
L 276.534398 208.402951 
L 277.996806 206.729375 
L 279.459214 204.631577 
L 280.921622 202.954912 
L 282.384029 200.963511 
L 283.846437 199.162859 
L 285.308845 196.407392 
L 286.771253 194.288352 
L 288.233661 190.785872 
L 291.158477 185.315946 
L 292.620885 182.271336 
L 295.5457 175.008706 
L 297.008108 171.800042 
L 298.470516 169.337237 
L 299.932924 166.531149 
L 301.395332 163.333603 
L 302.85774 161.66913 
L 304.320147 160.66297 
L 305.782555 158.740774 
L 307.244963 157.312513 
L 308.707371 155.066183 
L 310.169779 154.475839 
L 311.632187 154.554281 
L 313.094595 155.544812 
L 314.557002 153.406382 
L 316.01941 154.116175 
L 318.944226 154.671904 
L 320.406634 153.005739 
L 321.869042 154.385527 
L 323.33145 153.404422 
L 324.793857 152.059814 
L 326.256265 150.444055 
L 327.718673 152.13498 
L 329.181081 151.777895 
L 330.643489 153.736156 
L 332.105897 153.518312 
L 333.568305 152.699731 
L 335.030713 154.817805 
L 336.49312 156.063105 
L 337.955528 158.010168 
L 339.417936 160.144113 
L 342.342752 163.554992 
L 343.80516 159.815493 
L 345.267568 161.233629 
L 346.729975 161.694427 
L 348.100983 162.861097 
L 349.563391 165.80519 
L 351.025799 166.127955 
L 352.488206 170.087714 
L 353.950614 168.410056 
L 355.413022 169.283366 
L 356.87543 168.53023 
L 358.337838 171.680217 
L 359.800246 169.991736 
L 361.262654 168.772324 
L 362.725061 164.886871 
L 364.187469 166.718406 
L 365.649877 169.573664 
L 367.112285 174.347977 
L 368.574693 172.934621 
L 370.037101 171.9522 
L 371.499509 170.22674 
L 372.961916 168.807987 
L 375.886732 164.567114 
L 377.34914 161.944685 
L 378.811548 159.572084 
L 380.273956 155.490055 
L 381.736364 153.187867 
L 384.661179 146.716185 
L 386.123587 142.890832 
L 387.585995 139.401887 
L 389.048403 134.527085 
L 390.510811 132.244017 
L 391.973219 127.761775 
L 393.435627 123.885022 
L 394.898034 120.918747 
L 396.360442 117.627908 
L 397.82285 116.515834 
L 399.285258 113.748363 
L 400.747666 113.399657 
L 402.210074 111.059415 
L 403.672482 110.986962 
L 405.134889 109.4222 
L 406.597297 109.244879 
L 408.059705 108.089811 
L 409.522113 107.112412 
L 410.984521 105.145422 
L 412.446929 104.473413 
L 413.909337 101.238861 
L 416.834152 97.133604 
L 418.29656 95.616455 
L 419.758968 94.997994 
L 421.221376 91.84559 
L 424.146192 84.68243 
L 425.6086 83.553652 
L 427.071007 79.76885 
L 428.533415 79.111477 
L 429.995823 79.382117 
L 431.458231 76.363288 
L 432.920639 75.199196 
L 434.383047 75.400149 
L 435.845455 66.96 
L 435.845455 66.96 
" clip-path="url(#p51508a6d7a)" style="fill: none; stroke: #bcbd22; stroke-width: 1.5; stroke-linecap: square"/>
   </g>
   <g id="patch_3">
    <path d="M 63 384.48 
L 63 51.84 
" style="fill: none; stroke: #000000; stroke-width: 0.8; stroke-linejoin: miter; stroke-linecap: square"/>
   </g>
   <g id="patch_4">
    <path d="M 453.6 384.48 
L 453.6 51.84 
" style="fill: none; stroke: #000000; stroke-width: 0.8; stroke-linejoin: miter; stroke-linecap: square"/>
   </g>
   <g id="patch_5">
    <path d="M 63 384.48 
L 453.6 384.48 
" style="fill: none; stroke: #000000; stroke-width: 0.8; stroke-linejoin: miter; stroke-linecap: square"/>
   </g>
   <g id="patch_6">
    <path d="M 63 51.84 
L 453.6 51.84 
" style="fill: none; stroke: #000000; stroke-width: 0.8; stroke-linejoin: miter; stroke-linecap: square"/>
   </g>
   <g id="text_17">
    <!-- Value of parameters of a convolutional filter kernel -->
    <g transform="translate(105.699375 45.84)scale(0.12 -0.12)">
     <defs>
      <path id="DejaVuSans-56" d="M 1831 0 
L 50 4666 
L 709 4666 
L 2188 738 
L 3669 4666 
L 4325 4666 
L 2547 0 
L 1831 0 
z
" transform="scale(0.015625)"/>
      <path id="DejaVuSans-20" transform="scale(0.015625)"/>
      <path id="DejaVuSans-66" d="M 2375 4863 
L 2375 4384 
L 1825 4384 
Q 1516 4384 1395 4259 
Q 1275 4134 1275 3809 
L 1275 3500 
L 2222 3500 
L 2222 3053 
L 1275 3053 
L 1275 0 
L 697 0 
L 697 3053 
L 147 3053 
L 147 3500 
L 697 3500 
L 697 3744 
Q 697 4328 969 4595 
Q 1241 4863 1831 4863 
L 2375 4863 
z
" transform="scale(0.015625)"/>
      <path id="DejaVuSans-70" d="M 1159 525 
L 1159 -1331 
L 581 -1331 
L 581 3500 
L 1159 3500 
L 1159 2969 
Q 1341 3281 1617 3432 
Q 1894 3584 2278 3584 
Q 2916 3584 3314 3078 
Q 3713 2572 3713 1747 
Q 3713 922 3314 415 
Q 2916 -91 2278 -91 
Q 1894 -91 1617 61 
Q 1341 213 1159 525 
z
M 3116 1747 
Q 3116 2381 2855 2742 
Q 2594 3103 2138 3103 
Q 1681 3103 1420 2742 
Q 1159 2381 1159 1747 
Q 1159 1113 1420 752 
Q 1681 391 2138 391 
Q 2594 391 2855 752 
Q 3116 1113 3116 1747 
z
" transform="scale(0.015625)"/>
      <path id="DejaVuSans-72" d="M 2631 2963 
Q 2534 3019 2420 3045 
Q 2306 3072 2169 3072 
Q 1681 3072 1420 2755 
Q 1159 2438 1159 1844 
L 1159 0 
L 581 0 
L 581 3500 
L 1159 3500 
L 1159 2956 
Q 1341 3275 1631 3429 
Q 1922 3584 2338 3584 
Q 2397 3584 2469 3576 
Q 2541 3569 2628 3553 
L 2631 2963 
z
" transform="scale(0.015625)"/>
      <path id="DejaVuSans-6d" d="M 3328 2828 
Q 3544 3216 3844 3400 
Q 4144 3584 4550 3584 
Q 5097 3584 5394 3201 
Q 5691 2819 5691 2113 
L 5691 0 
L 5113 0 
L 5113 2094 
Q 5113 2597 4934 2840 
Q 4756 3084 4391 3084 
Q 3944 3084 3684 2787 
Q 3425 2491 3425 1978 
L 3425 0 
L 2847 0 
L 2847 2094 
Q 2847 2600 2669 2842 
Q 2491 3084 2119 3084 
Q 1678 3084 1418 2786 
Q 1159 2488 1159 1978 
L 1159 0 
L 581 0 
L 581 3500 
L 1159 3500 
L 1159 2956 
Q 1356 3278 1631 3431 
Q 1906 3584 2284 3584 
Q 2666 3584 2933 3390 
Q 3200 3197 3328 2828 
z
" transform="scale(0.015625)"/>
      <path id="DejaVuSans-73" d="M 2834 3397 
L 2834 2853 
Q 2591 2978 2328 3040 
Q 2066 3103 1784 3103 
Q 1356 3103 1142 2972 
Q 928 2841 928 2578 
Q 928 2378 1081 2264 
Q 1234 2150 1697 2047 
L 1894 2003 
Q 2506 1872 2764 1633 
Q 3022 1394 3022 966 
Q 3022 478 2636 193 
Q 2250 -91 1575 -91 
Q 1294 -91 989 -36 
Q 684 19 347 128 
L 347 722 
Q 666 556 975 473 
Q 1284 391 1588 391 
Q 1994 391 2212 530 
Q 2431 669 2431 922 
Q 2431 1156 2273 1281 
Q 2116 1406 1581 1522 
L 1381 1569 
Q 847 1681 609 1914 
Q 372 2147 372 2553 
Q 372 3047 722 3315 
Q 1072 3584 1716 3584 
Q 2034 3584 2315 3537 
Q 2597 3491 2834 3397 
z
" transform="scale(0.015625)"/>
      <path id="DejaVuSans-69" d="M 603 3500 
L 1178 3500 
L 1178 0 
L 603 0 
L 603 3500 
z
M 603 4863 
L 1178 4863 
L 1178 4134 
L 603 4134 
L 603 4863 
z
" transform="scale(0.015625)"/>
      <path id="DejaVuSans-6b" d="M 581 4863 
L 1159 4863 
L 1159 1991 
L 2875 3500 
L 3609 3500 
L 1753 1863 
L 3688 0 
L 2938 0 
L 1159 1709 
L 1159 0 
L 581 0 
L 581 4863 
z
" transform="scale(0.015625)"/>
     </defs>
     <use xlink:href="#DejaVuSans-56"/>
     <use xlink:href="#DejaVuSans-61" x="60.658203"/>
     <use xlink:href="#DejaVuSans-6c" x="121.9375"/>
     <use xlink:href="#DejaVuSans-75" x="149.720703"/>
     <use xlink:href="#DejaVuSans-65" x="213.099609"/>
     <use xlink:href="#DejaVuSans-20" x="274.623047"/>
     <use xlink:href="#DejaVuSans-6f" x="306.410156"/>
     <use xlink:href="#DejaVuSans-66" x="367.591797"/>
     <use xlink:href="#DejaVuSans-20" x="402.796875"/>
     <use xlink:href="#DejaVuSans-70" x="434.583984"/>
     <use xlink:href="#DejaVuSans-61" x="498.060547"/>
     <use xlink:href="#DejaVuSans-72" x="559.339844"/>
     <use xlink:href="#DejaVuSans-61" x="600.453125"/>
     <use xlink:href="#DejaVuSans-6d" x="661.732422"/>
     <use xlink:href="#DejaVuSans-65" x="759.144531"/>
     <use xlink:href="#DejaVuSans-74" x="820.667969"/>
     <use xlink:href="#DejaVuSans-65" x="859.876953"/>
     <use xlink:href="#DejaVuSans-72" x="921.400391"/>
     <use xlink:href="#DejaVuSans-73" x="962.513672"/>
     <use xlink:href="#DejaVuSans-20" x="1014.613281"/>
     <use xlink:href="#DejaVuSans-6f" x="1046.400391"/>
     <use xlink:href="#DejaVuSans-66" x="1107.582031"/>
     <use xlink:href="#DejaVuSans-20" x="1142.787109"/>
     <use xlink:href="#DejaVuSans-61" x="1174.574219"/>
     <use xlink:href="#DejaVuSans-20" x="1235.853516"/>
     <use xlink:href="#DejaVuSans-63" x="1267.640625"/>
     <use xlink:href="#DejaVuSans-6f" x="1322.621094"/>
     <use xlink:href="#DejaVuSans-6e" x="1383.802734"/>
     <use xlink:href="#DejaVuSans-76" x="1447.181641"/>
     <use xlink:href="#DejaVuSans-6f" x="1506.361328"/>
     <use xlink:href="#DejaVuSans-6c" x="1567.542969"/>
     <use xlink:href="#DejaVuSans-75" x="1595.326172"/>
     <use xlink:href="#DejaVuSans-74" x="1658.705078"/>
     <use xlink:href="#DejaVuSans-69" x="1697.914062"/>
     <use xlink:href="#DejaVuSans-6f" x="1725.697266"/>
     <use xlink:href="#DejaVuSans-6e" x="1786.878906"/>
     <use xlink:href="#DejaVuSans-61" x="1850.257812"/>
     <use xlink:href="#DejaVuSans-6c" x="1911.537109"/>
     <use xlink:href="#DejaVuSans-20" x="1939.320312"/>
     <use xlink:href="#DejaVuSans-66" x="1971.107422"/>
     <use xlink:href="#DejaVuSans-69" x="2006.3125"/>
     <use xlink:href="#DejaVuSans-6c" x="2034.095703"/>
     <use xlink:href="#DejaVuSans-74" x="2061.878906"/>
     <use xlink:href="#DejaVuSans-65" x="2101.087891"/>
     <use xlink:href="#DejaVuSans-72" x="2162.611328"/>
     <use xlink:href="#DejaVuSans-20" x="2203.724609"/>
     <use xlink:href="#DejaVuSans-6b" x="2235.511719"/>
     <use xlink:href="#DejaVuSans-65" x="2289.796875"/>
     <use xlink:href="#DejaVuSans-72" x="2351.320312"/>
     <use xlink:href="#DejaVuSans-6e" x="2390.683594"/>
     <use xlink:href="#DejaVuSans-65" x="2454.0625"/>
     <use xlink:href="#DejaVuSans-6c" x="2515.585938"/>
    </g>
   </g>
   <g id="legend_1">
    <g id="patch_7">
     <path d="M 70 191.943125 
L 158.095313 191.943125 
Q 160.095313 191.943125 160.095313 189.943125 
L 160.095313 58.84 
Q 160.095313 56.84 158.095313 56.84 
L 70 56.84 
Q 68 56.84 68 58.84 
L 68 189.943125 
Q 68 191.943125 70 191.943125 
z
" style="fill: #ffffff; opacity: 0.8; stroke: #cccccc; stroke-linejoin: miter"/>
    </g>
    <g id="line2d_24">
     <path d="M 72 64.938437 
L 82 64.938437 
L 92 64.938437 
" style="fill: none; stroke: #1f77b4; stroke-width: 1.5; stroke-linecap: square"/>
    </g>
    <g id="text_18">
     <!-- c2[20](0,0) -->
     <g transform="translate(100 68.438437)scale(0.1 -0.1)">
      <defs>
       <path id="DejaVuSans-5b" d="M 550 4863 
L 1875 4863 
L 1875 4416 
L 1125 4416 
L 1125 -397 
L 1875 -397 
L 1875 -844 
L 550 -844 
L 550 4863 
z
" transform="scale(0.015625)"/>
       <path id="DejaVuSans-5d" d="M 1947 4863 
L 1947 -844 
L 622 -844 
L 622 -397 
L 1369 -397 
L 1369 4416 
L 622 4416 
L 622 4863 
L 1947 4863 
z
" transform="scale(0.015625)"/>
       <path id="DejaVuSans-28" d="M 1984 4856 
Q 1566 4138 1362 3434 
Q 1159 2731 1159 2009 
Q 1159 1288 1364 580 
Q 1569 -128 1984 -844 
L 1484 -844 
Q 1016 -109 783 600 
Q 550 1309 550 2009 
Q 550 2706 781 3412 
Q 1013 4119 1484 4856 
L 1984 4856 
z
" transform="scale(0.015625)"/>
       <path id="DejaVuSans-2c" d="M 750 794 
L 1409 794 
L 1409 256 
L 897 -744 
L 494 -744 
L 750 256 
L 750 794 
z
" transform="scale(0.015625)"/>
       <path id="DejaVuSans-29" d="M 513 4856 
L 1013 4856 
Q 1481 4119 1714 3412 
Q 1947 2706 1947 2009 
Q 1947 1309 1714 600 
Q 1481 -109 1013 -844 
L 513 -844 
Q 928 -128 1133 580 
Q 1338 1288 1338 2009 
Q 1338 2731 1133 3434 
Q 928 4138 513 4856 
z
" transform="scale(0.015625)"/>
      </defs>
      <use xlink:href="#DejaVuSans-63"/>
      <use xlink:href="#DejaVuSans-32" x="54.980469"/>
      <use xlink:href="#DejaVuSans-5b" x="118.603516"/>
      <use xlink:href="#DejaVuSans-32" x="157.617188"/>
      <use xlink:href="#DejaVuSans-30" x="221.240234"/>
      <use xlink:href="#DejaVuSans-5d" x="284.863281"/>
      <use xlink:href="#DejaVuSans-28" x="323.876953"/>
      <use xlink:href="#DejaVuSans-30" x="362.890625"/>
      <use xlink:href="#DejaVuSans-2c" x="426.513672"/>
      <use xlink:href="#DejaVuSans-30" x="458.300781"/>
      <use xlink:href="#DejaVuSans-29" x="521.923828"/>
     </g>
    </g>
    <g id="line2d_25">
     <path d="M 72 79.616562 
L 82 79.616562 
L 92 79.616562 
" style="fill: none; stroke: #ff7f0e; stroke-width: 1.5; stroke-linecap: square"/>
    </g>
    <g id="text_19">
     <!-- c2[20](1,0) -->
     <g transform="translate(100 83.116562)scale(0.1 -0.1)">
      <use xlink:href="#DejaVuSans-63"/>
      <use xlink:href="#DejaVuSans-32" x="54.980469"/>
      <use xlink:href="#DejaVuSans-5b" x="118.603516"/>
      <use xlink:href="#DejaVuSans-32" x="157.617188"/>
      <use xlink:href="#DejaVuSans-30" x="221.240234"/>
      <use xlink:href="#DejaVuSans-5d" x="284.863281"/>
      <use xlink:href="#DejaVuSans-28" x="323.876953"/>
      <use xlink:href="#DejaVuSans-31" x="362.890625"/>
      <use xlink:href="#DejaVuSans-2c" x="426.513672"/>
      <use xlink:href="#DejaVuSans-30" x="458.300781"/>
      <use xlink:href="#DejaVuSans-29" x="521.923828"/>
     </g>
    </g>
    <g id="line2d_26">
     <path d="M 72 94.294687 
L 82 94.294687 
L 92 94.294687 
" style="fill: none; stroke: #2ca02c; stroke-width: 1.5; stroke-linecap: square"/>
    </g>
    <g id="text_20">
     <!-- c2[20](2,0) -->
     <g transform="translate(100 97.794687)scale(0.1 -0.1)">
      <use xlink:href="#DejaVuSans-63"/>
      <use xlink:href="#DejaVuSans-32" x="54.980469"/>
      <use xlink:href="#DejaVuSans-5b" x="118.603516"/>
      <use xlink:href="#DejaVuSans-32" x="157.617188"/>
      <use xlink:href="#DejaVuSans-30" x="221.240234"/>
      <use xlink:href="#DejaVuSans-5d" x="284.863281"/>
      <use xlink:href="#DejaVuSans-28" x="323.876953"/>
      <use xlink:href="#DejaVuSans-32" x="362.890625"/>
      <use xlink:href="#DejaVuSans-2c" x="426.513672"/>
      <use xlink:href="#DejaVuSans-30" x="458.300781"/>
      <use xlink:href="#DejaVuSans-29" x="521.923828"/>
     </g>
    </g>
    <g id="line2d_27">
     <path d="M 72 108.972812 
L 82 108.972812 
L 92 108.972812 
" style="fill: none; stroke: #d62728; stroke-width: 1.5; stroke-linecap: square"/>
    </g>
    <g id="text_21">
     <!-- c2[20](0,1) -->
     <g transform="translate(100 112.472812)scale(0.1 -0.1)">
      <use xlink:href="#DejaVuSans-63"/>
      <use xlink:href="#DejaVuSans-32" x="54.980469"/>
      <use xlink:href="#DejaVuSans-5b" x="118.603516"/>
      <use xlink:href="#DejaVuSans-32" x="157.617188"/>
      <use xlink:href="#DejaVuSans-30" x="221.240234"/>
      <use xlink:href="#DejaVuSans-5d" x="284.863281"/>
      <use xlink:href="#DejaVuSans-28" x="323.876953"/>
      <use xlink:href="#DejaVuSans-30" x="362.890625"/>
      <use xlink:href="#DejaVuSans-2c" x="426.513672"/>
      <use xlink:href="#DejaVuSans-31" x="458.300781"/>
      <use xlink:href="#DejaVuSans-29" x="521.923828"/>
     </g>
    </g>
    <g id="line2d_28">
     <path d="M 72 123.650937 
L 82 123.650937 
L 92 123.650937 
" style="fill: none; stroke: #9467bd; stroke-width: 1.5; stroke-linecap: square"/>
    </g>
    <g id="text_22">
     <!-- c2[20](1,1) -->
     <g transform="translate(100 127.150937)scale(0.1 -0.1)">
      <use xlink:href="#DejaVuSans-63"/>
      <use xlink:href="#DejaVuSans-32" x="54.980469"/>
      <use xlink:href="#DejaVuSans-5b" x="118.603516"/>
      <use xlink:href="#DejaVuSans-32" x="157.617188"/>
      <use xlink:href="#DejaVuSans-30" x="221.240234"/>
      <use xlink:href="#DejaVuSans-5d" x="284.863281"/>
      <use xlink:href="#DejaVuSans-28" x="323.876953"/>
      <use xlink:href="#DejaVuSans-31" x="362.890625"/>
      <use xlink:href="#DejaVuSans-2c" x="426.513672"/>
      <use xlink:href="#DejaVuSans-31" x="458.300781"/>
      <use xlink:href="#DejaVuSans-29" x="521.923828"/>
     </g>
    </g>
    <g id="line2d_29">
     <path d="M 72 138.329062 
L 82 138.329062 
L 92 138.329062 
" style="fill: none; stroke: #8c564b; stroke-width: 1.5; stroke-linecap: square"/>
    </g>
    <g id="text_23">
     <!-- c2[20](2,1) -->
     <g transform="translate(100 141.829062)scale(0.1 -0.1)">
      <use xlink:href="#DejaVuSans-63"/>
      <use xlink:href="#DejaVuSans-32" x="54.980469"/>
      <use xlink:href="#DejaVuSans-5b" x="118.603516"/>
      <use xlink:href="#DejaVuSans-32" x="157.617188"/>
      <use xlink:href="#DejaVuSans-30" x="221.240234"/>
      <use xlink:href="#DejaVuSans-5d" x="284.863281"/>
      <use xlink:href="#DejaVuSans-28" x="323.876953"/>
      <use xlink:href="#DejaVuSans-32" x="362.890625"/>
      <use xlink:href="#DejaVuSans-2c" x="426.513672"/>
      <use xlink:href="#DejaVuSans-31" x="458.300781"/>
      <use xlink:href="#DejaVuSans-29" x="521.923828"/>
     </g>
    </g>
    <g id="line2d_30">
     <path d="M 72 153.007187 
L 82 153.007187 
L 92 153.007187 
" style="fill: none; stroke: #e377c2; stroke-width: 1.5; stroke-linecap: square"/>
    </g>
    <g id="text_24">
     <!-- c2[20](0,2) -->
     <g transform="translate(100 156.507187)scale(0.1 -0.1)">
      <use xlink:href="#DejaVuSans-63"/>
      <use xlink:href="#DejaVuSans-32" x="54.980469"/>
      <use xlink:href="#DejaVuSans-5b" x="118.603516"/>
      <use xlink:href="#DejaVuSans-32" x="157.617188"/>
      <use xlink:href="#DejaVuSans-30" x="221.240234"/>
      <use xlink:href="#DejaVuSans-5d" x="284.863281"/>
      <use xlink:href="#DejaVuSans-28" x="323.876953"/>
      <use xlink:href="#DejaVuSans-30" x="362.890625"/>
      <use xlink:href="#DejaVuSans-2c" x="426.513672"/>
      <use xlink:href="#DejaVuSans-32" x="458.300781"/>
      <use xlink:href="#DejaVuSans-29" x="521.923828"/>
     </g>
    </g>
    <g id="line2d_31">
     <path d="M 72 167.685312 
L 82 167.685312 
L 92 167.685312 
" style="fill: none; stroke: #7f7f7f; stroke-width: 1.5; stroke-linecap: square"/>
    </g>
    <g id="text_25">
     <!-- c2[20](1,2) -->
     <g transform="translate(100 171.185312)scale(0.1 -0.1)">
      <use xlink:href="#DejaVuSans-63"/>
      <use xlink:href="#DejaVuSans-32" x="54.980469"/>
      <use xlink:href="#DejaVuSans-5b" x="118.603516"/>
      <use xlink:href="#DejaVuSans-32" x="157.617188"/>
      <use xlink:href="#DejaVuSans-30" x="221.240234"/>
      <use xlink:href="#DejaVuSans-5d" x="284.863281"/>
      <use xlink:href="#DejaVuSans-28" x="323.876953"/>
      <use xlink:href="#DejaVuSans-31" x="362.890625"/>
      <use xlink:href="#DejaVuSans-2c" x="426.513672"/>
      <use xlink:href="#DejaVuSans-32" x="458.300781"/>
      <use xlink:href="#DejaVuSans-29" x="521.923828"/>
     </g>
    </g>
    <g id="line2d_32">
     <path d="M 72 182.363437 
L 82 182.363437 
L 92 182.363437 
" style="fill: none; stroke: #bcbd22; stroke-width: 1.5; stroke-linecap: square"/>
    </g>
    <g id="text_26">
     <!-- c2[20](2,2) -->
     <g transform="translate(100 185.863437)scale(0.1 -0.1)">
      <use xlink:href="#DejaVuSans-63"/>
      <use xlink:href="#DejaVuSans-32" x="54.980469"/>
      <use xlink:href="#DejaVuSans-5b" x="118.603516"/>
      <use xlink:href="#DejaVuSans-32" x="157.617188"/>
      <use xlink:href="#DejaVuSans-30" x="221.240234"/>
      <use xlink:href="#DejaVuSans-5d" x="284.863281"/>
      <use xlink:href="#DejaVuSans-28" x="323.876953"/>
      <use xlink:href="#DejaVuSans-32" x="362.890625"/>
      <use xlink:href="#DejaVuSans-2c" x="426.513672"/>
      <use xlink:href="#DejaVuSans-32" x="458.300781"/>
      <use xlink:href="#DejaVuSans-29" x="521.923828"/>
     </g>
    </g>
   </g>
  </g>
 </g>
 <defs>
  <clipPath id="p51508a6d7a">
   <rect x="63" y="51.84" width="390.6" height="332.64"/>
  </clipPath>
 </defs>
</svg>
