<?xml version="1.0" encoding="utf-8" standalone="no"?>
<!DOCTYPE svg PUBLIC "-//W3C//DTD SVG 1.1//EN"
  "http://www.w3.org/Graphics/SVG/1.1/DTD/svg11.dtd">
<svg xmlns:xlink="http://www.w3.org/1999/xlink" width="432pt" height="288pt" viewBox="0 0 432 288" xmlns="http://www.w3.org/2000/svg" version="1.1">
 <metadata>
  <rdf:RDF xmlns:dc="http://purl.org/dc/elements/1.1/" xmlns:cc="http://creativecommons.org/ns#" xmlns:rdf="http://www.w3.org/1999/02/22-rdf-syntax-ns#">
   <cc:Work>
    <dc:type rdf:resource="http://purl.org/dc/dcmitype/StillImage"/>
    <dc:date>2023-03-15T10:55:47.496593</dc:date>
    <dc:format>image/svg+xml</dc:format>
    <dc:creator>
     <cc:Agent>
      <dc:title>Matplotlib v3.5.1, https://matplotlib.org/</dc:title>
     </cc:Agent>
    </dc:creator>
   </cc:Work>
  </rdf:RDF>
 </metadata>
 <defs>
  <style type="text/css">*{stroke-linejoin: round; stroke-linecap: butt}</style>
 </defs>
 <g id="figure_1">
  <g id="patch_1">
   <path d="M 0 288 
L 432 288 
L 432 0 
L 0 0 
z
" style="fill: #ffffff"/>
  </g>
  <g id="axes_1">
   <g id="patch_2">
    <path d="M 54 256.32 
L 388.8 256.32 
L 388.8 34.56 
L 54 34.56 
z
" style="fill: #ffffff"/>
   </g>
   <g id="matplotlib.axis_1">
    <g id="xtick_1">
     <g id="line2d_1">
      <path d="M 65.705065 256.32 
L 65.705065 34.56 
" clip-path="url(#pa8db749b61)" style="fill: none; stroke: #b0b0b0; stroke-width: 0.8; stroke-linecap: square"/>
     </g>
     <g id="line2d_2">
      <defs>
       <path id="me23d1ddcb1" d="M 0 0 
L 0 3.5 
" style="stroke: #000000; stroke-width: 0.8"/>
      </defs>
      <g>
       <use xlink:href="#me23d1ddcb1" x="65.705065" y="256.32" style="stroke: #000000; stroke-width: 0.8"/>
      </g>
     </g>
     <g id="text_1">
      <!-- 0 -->
      <g transform="translate(62.523815 270.918437)scale(0.1 -0.1)">
       <defs>
        <path id="DejaVuSans-30" d="M 2034 4250 
Q 1547 4250 1301 3770 
Q 1056 3291 1056 2328 
Q 1056 1369 1301 889 
Q 1547 409 2034 409 
Q 2525 409 2770 889 
Q 3016 1369 3016 2328 
Q 3016 3291 2770 3770 
Q 2525 4250 2034 4250 
z
M 2034 4750 
Q 2819 4750 3233 4129 
Q 3647 3509 3647 2328 
Q 3647 1150 3233 529 
Q 2819 -91 2034 -91 
Q 1250 -91 836 529 
Q 422 1150 422 2328 
Q 422 3509 836 4129 
Q 1250 4750 2034 4750 
z
" transform="scale(0.015625)"/>
       </defs>
       <use xlink:href="#DejaVuSans-30"/>
      </g>
     </g>
    </g>
    <g id="xtick_2">
     <g id="line2d_3">
      <path d="M 129.57991 256.32 
L 129.57991 34.56 
" clip-path="url(#pa8db749b61)" style="fill: none; stroke: #b0b0b0; stroke-width: 0.8; stroke-linecap: square"/>
     </g>
     <g id="line2d_4">
      <g>
       <use xlink:href="#me23d1ddcb1" x="129.57991" y="256.32" style="stroke: #000000; stroke-width: 0.8"/>
      </g>
     </g>
     <g id="text_2">
      <!-- 10 -->
      <g transform="translate(123.21741 270.918437)scale(0.1 -0.1)">
       <defs>
        <path id="DejaVuSans-31" d="M 794 531 
L 1825 531 
L 1825 4091 
L 703 3866 
L 703 4441 
L 1819 4666 
L 2450 4666 
L 2450 531 
L 3481 531 
L 3481 0 
L 794 0 
L 794 531 
z
" transform="scale(0.015625)"/>
       </defs>
       <use xlink:href="#DejaVuSans-31"/>
       <use xlink:href="#DejaVuSans-30" x="63.623047"/>
      </g>
     </g>
    </g>
    <g id="xtick_3">
     <g id="line2d_5">
      <path d="M 193.454755 256.32 
L 193.454755 34.56 
" clip-path="url(#pa8db749b61)" style="fill: none; stroke: #b0b0b0; stroke-width: 0.8; stroke-linecap: square"/>
     </g>
     <g id="line2d_6">
      <g>
       <use xlink:href="#me23d1ddcb1" x="193.454755" y="256.32" style="stroke: #000000; stroke-width: 0.8"/>
      </g>
     </g>
     <g id="text_3">
      <!-- 20 -->
      <g transform="translate(187.092255 270.918437)scale(0.1 -0.1)">
       <defs>
        <path id="DejaVuSans-32" d="M 1228 531 
L 3431 531 
L 3431 0 
L 469 0 
L 469 531 
Q 828 903 1448 1529 
Q 2069 2156 2228 2338 
Q 2531 2678 2651 2914 
Q 2772 3150 2772 3378 
Q 2772 3750 2511 3984 
Q 2250 4219 1831 4219 
Q 1534 4219 1204 4116 
Q 875 4013 500 3803 
L 500 4441 
Q 881 4594 1212 4672 
Q 1544 4750 1819 4750 
Q 2544 4750 2975 4387 
Q 3406 4025 3406 3419 
Q 3406 3131 3298 2873 
Q 3191 2616 2906 2266 
Q 2828 2175 2409 1742 
Q 1991 1309 1228 531 
z
" transform="scale(0.015625)"/>
       </defs>
       <use xlink:href="#DejaVuSans-32"/>
       <use xlink:href="#DejaVuSans-30" x="63.623047"/>
      </g>
     </g>
    </g>
    <g id="xtick_4">
     <g id="line2d_7">
      <path d="M 257.3296 256.32 
L 257.3296 34.56 
" clip-path="url(#pa8db749b61)" style="fill: none; stroke: #b0b0b0; stroke-width: 0.8; stroke-linecap: square"/>
     </g>
     <g id="line2d_8">
      <g>
       <use xlink:href="#me23d1ddcb1" x="257.3296" y="256.32" style="stroke: #000000; stroke-width: 0.8"/>
      </g>
     </g>
     <g id="text_4">
      <!-- 30 -->
      <g transform="translate(250.9671 270.918437)scale(0.1 -0.1)">
       <defs>
        <path id="DejaVuSans-33" d="M 2597 2516 
Q 3050 2419 3304 2112 
Q 3559 1806 3559 1356 
Q 3559 666 3084 287 
Q 2609 -91 1734 -91 
Q 1441 -91 1130 -33 
Q 819 25 488 141 
L 488 750 
Q 750 597 1062 519 
Q 1375 441 1716 441 
Q 2309 441 2620 675 
Q 2931 909 2931 1356 
Q 2931 1769 2642 2001 
Q 2353 2234 1838 2234 
L 1294 2234 
L 1294 2753 
L 1863 2753 
Q 2328 2753 2575 2939 
Q 2822 3125 2822 3475 
Q 2822 3834 2567 4026 
Q 2313 4219 1838 4219 
Q 1578 4219 1281 4162 
Q 984 4106 628 3988 
L 628 4550 
Q 988 4650 1302 4700 
Q 1616 4750 1894 4750 
Q 2613 4750 3031 4423 
Q 3450 4097 3450 3541 
Q 3450 3153 3228 2886 
Q 3006 2619 2597 2516 
z
" transform="scale(0.015625)"/>
       </defs>
       <use xlink:href="#DejaVuSans-33"/>
       <use xlink:href="#DejaVuSans-30" x="63.623047"/>
      </g>
     </g>
    </g>
    <g id="xtick_5">
     <g id="line2d_9">
      <path d="M 321.204445 256.32 
L 321.204445 34.56 
" clip-path="url(#pa8db749b61)" style="fill: none; stroke: #b0b0b0; stroke-width: 0.8; stroke-linecap: square"/>
     </g>
     <g id="line2d_10">
      <g>
       <use xlink:href="#me23d1ddcb1" x="321.204445" y="256.32" style="stroke: #000000; stroke-width: 0.8"/>
      </g>
     </g>
     <g id="text_5">
      <!-- 40 -->
      <g transform="translate(314.841945 270.918437)scale(0.1 -0.1)">
       <defs>
        <path id="DejaVuSans-34" d="M 2419 4116 
L 825 1625 
L 2419 1625 
L 2419 4116 
z
M 2253 4666 
L 3047 4666 
L 3047 1625 
L 3713 1625 
L 3713 1100 
L 3047 1100 
L 3047 0 
L 2419 0 
L 2419 1100 
L 313 1100 
L 313 1709 
L 2253 4666 
z
" transform="scale(0.015625)"/>
       </defs>
       <use xlink:href="#DejaVuSans-34"/>
       <use xlink:href="#DejaVuSans-30" x="63.623047"/>
      </g>
     </g>
    </g>
    <g id="xtick_6">
     <g id="line2d_11">
      <path d="M 385.07929 256.32 
L 385.07929 34.56 
" clip-path="url(#pa8db749b61)" style="fill: none; stroke: #b0b0b0; stroke-width: 0.8; stroke-linecap: square"/>
     </g>
     <g id="line2d_12">
      <g>
       <use xlink:href="#me23d1ddcb1" x="385.07929" y="256.32" style="stroke: #000000; stroke-width: 0.8"/>
      </g>
     </g>
     <g id="text_6">
      <!-- 50 -->
      <g transform="translate(378.71679 270.918437)scale(0.1 -0.1)">
       <defs>
        <path id="DejaVuSans-35" d="M 691 4666 
L 3169 4666 
L 3169 4134 
L 1269 4134 
L 1269 2991 
Q 1406 3038 1543 3061 
Q 1681 3084 1819 3084 
Q 2600 3084 3056 2656 
Q 3513 2228 3513 1497 
Q 3513 744 3044 326 
Q 2575 -91 1722 -91 
Q 1428 -91 1123 -41 
Q 819 9 494 109 
L 494 744 
Q 775 591 1075 516 
Q 1375 441 1709 441 
Q 2250 441 2565 725 
Q 2881 1009 2881 1497 
Q 2881 1984 2565 2268 
Q 2250 2553 1709 2553 
Q 1456 2553 1204 2497 
Q 953 2441 691 2322 
L 691 4666 
z
" transform="scale(0.015625)"/>
       </defs>
       <use xlink:href="#DejaVuSans-35"/>
       <use xlink:href="#DejaVuSans-30" x="63.623047"/>
      </g>
     </g>
    </g>
    <g id="text_7">
     <!-- Minutes -->
     <g transform="translate(201.717969 284.596563)scale(0.1 -0.1)">
      <defs>
       <path id="DejaVuSans-4d" d="M 628 4666 
L 1569 4666 
L 2759 1491 
L 3956 4666 
L 4897 4666 
L 4897 0 
L 4281 0 
L 4281 4097 
L 3078 897 
L 2444 897 
L 1241 4097 
L 1241 0 
L 628 0 
L 628 4666 
z
" transform="scale(0.015625)"/>
       <path id="DejaVuSans-69" d="M 603 3500 
L 1178 3500 
L 1178 0 
L 603 0 
L 603 3500 
z
M 603 4863 
L 1178 4863 
L 1178 4134 
L 603 4134 
L 603 4863 
z
" transform="scale(0.015625)"/>
       <path id="DejaVuSans-6e" d="M 3513 2113 
L 3513 0 
L 2938 0 
L 2938 2094 
Q 2938 2591 2744 2837 
Q 2550 3084 2163 3084 
Q 1697 3084 1428 2787 
Q 1159 2491 1159 1978 
L 1159 0 
L 581 0 
L 581 3500 
L 1159 3500 
L 1159 2956 
Q 1366 3272 1645 3428 
Q 1925 3584 2291 3584 
Q 2894 3584 3203 3211 
Q 3513 2838 3513 2113 
z
" transform="scale(0.015625)"/>
       <path id="DejaVuSans-75" d="M 544 1381 
L 544 3500 
L 1119 3500 
L 1119 1403 
Q 1119 906 1312 657 
Q 1506 409 1894 409 
Q 2359 409 2629 706 
Q 2900 1003 2900 1516 
L 2900 3500 
L 3475 3500 
L 3475 0 
L 2900 0 
L 2900 538 
Q 2691 219 2414 64 
Q 2138 -91 1772 -91 
Q 1169 -91 856 284 
Q 544 659 544 1381 
z
M 1991 3584 
L 1991 3584 
z
" transform="scale(0.015625)"/>
       <path id="DejaVuSans-74" d="M 1172 4494 
L 1172 3500 
L 2356 3500 
L 2356 3053 
L 1172 3053 
L 1172 1153 
Q 1172 725 1289 603 
Q 1406 481 1766 481 
L 2356 481 
L 2356 0 
L 1766 0 
Q 1100 0 847 248 
Q 594 497 594 1153 
L 594 3053 
L 172 3053 
L 172 3500 
L 594 3500 
L 594 4494 
L 1172 4494 
z
" transform="scale(0.015625)"/>
       <path id="DejaVuSans-65" d="M 3597 1894 
L 3597 1613 
L 953 1613 
Q 991 1019 1311 708 
Q 1631 397 2203 397 
Q 2534 397 2845 478 
Q 3156 559 3463 722 
L 3463 178 
Q 3153 47 2828 -22 
Q 2503 -91 2169 -91 
Q 1331 -91 842 396 
Q 353 884 353 1716 
Q 353 2575 817 3079 
Q 1281 3584 2069 3584 
Q 2775 3584 3186 3129 
Q 3597 2675 3597 1894 
z
M 3022 2063 
Q 3016 2534 2758 2815 
Q 2500 3097 2075 3097 
Q 1594 3097 1305 2825 
Q 1016 2553 972 2059 
L 3022 2063 
z
" transform="scale(0.015625)"/>
       <path id="DejaVuSans-73" d="M 2834 3397 
L 2834 2853 
Q 2591 2978 2328 3040 
Q 2066 3103 1784 3103 
Q 1356 3103 1142 2972 
Q 928 2841 928 2578 
Q 928 2378 1081 2264 
Q 1234 2150 1697 2047 
L 1894 2003 
Q 2506 1872 2764 1633 
Q 3022 1394 3022 966 
Q 3022 478 2636 193 
Q 2250 -91 1575 -91 
Q 1294 -91 989 -36 
Q 684 19 347 128 
L 347 722 
Q 666 556 975 473 
Q 1284 391 1588 391 
Q 1994 391 2212 530 
Q 2431 669 2431 922 
Q 2431 1156 2273 1281 
Q 2116 1406 1581 1522 
L 1381 1569 
Q 847 1681 609 1914 
Q 372 2147 372 2553 
Q 372 3047 722 3315 
Q 1072 3584 1716 3584 
Q 2034 3584 2315 3537 
Q 2597 3491 2834 3397 
z
" transform="scale(0.015625)"/>
      </defs>
      <use xlink:href="#DejaVuSans-4d"/>
      <use xlink:href="#DejaVuSans-69" x="86.279297"/>
      <use xlink:href="#DejaVuSans-6e" x="114.0625"/>
      <use xlink:href="#DejaVuSans-75" x="177.441406"/>
      <use xlink:href="#DejaVuSans-74" x="240.820312"/>
      <use xlink:href="#DejaVuSans-65" x="280.029297"/>
      <use xlink:href="#DejaVuSans-73" x="341.552734"/>
     </g>
    </g>
   </g>
   <g id="matplotlib.axis_2">
    <g id="ytick_1">
     <g id="line2d_13">
      <path d="M 54 231.784186 
L 388.8 231.784186 
" clip-path="url(#pa8db749b61)" style="fill: none; stroke: #b0b0b0; stroke-width: 0.8; stroke-linecap: square"/>
     </g>
     <g id="line2d_14">
      <defs>
       <path id="m12f0da427d" d="M 0 0 
L -3.5 0 
" style="stroke: #000000; stroke-width: 0.8"/>
      </defs>
      <g>
       <use xlink:href="#m12f0da427d" x="54" y="231.784186" style="stroke: #000000; stroke-width: 0.8"/>
      </g>
     </g>
     <g id="text_8">
      <!-- 10 -->
      <g transform="translate(34.275 235.583405)scale(0.1 -0.1)">
       <use xlink:href="#DejaVuSans-31"/>
       <use xlink:href="#DejaVuSans-30" x="63.623047"/>
      </g>
     </g>
    </g>
    <g id="ytick_2">
     <g id="line2d_15">
      <path d="M 54 206.779535 
L 388.8 206.779535 
" clip-path="url(#pa8db749b61)" style="fill: none; stroke: #b0b0b0; stroke-width: 0.8; stroke-linecap: square"/>
     </g>
     <g id="line2d_16">
      <g>
       <use xlink:href="#m12f0da427d" x="54" y="206.779535" style="stroke: #000000; stroke-width: 0.8"/>
      </g>
     </g>
     <g id="text_9">
      <!-- 20 -->
      <g transform="translate(34.275 210.578754)scale(0.1 -0.1)">
       <use xlink:href="#DejaVuSans-32"/>
       <use xlink:href="#DejaVuSans-30" x="63.623047"/>
      </g>
     </g>
    </g>
    <g id="ytick_3">
     <g id="line2d_17">
      <path d="M 54 181.774884 
L 388.8 181.774884 
" clip-path="url(#pa8db749b61)" style="fill: none; stroke: #b0b0b0; stroke-width: 0.8; stroke-linecap: square"/>
     </g>
     <g id="line2d_18">
      <g>
       <use xlink:href="#m12f0da427d" x="54" y="181.774884" style="stroke: #000000; stroke-width: 0.8"/>
      </g>
     </g>
     <g id="text_10">
      <!-- 30 -->
      <g transform="translate(34.275 185.574102)scale(0.1 -0.1)">
       <use xlink:href="#DejaVuSans-33"/>
       <use xlink:href="#DejaVuSans-30" x="63.623047"/>
      </g>
     </g>
    </g>
    <g id="ytick_4">
     <g id="line2d_19">
      <path d="M 54 156.770233 
L 388.8 156.770233 
" clip-path="url(#pa8db749b61)" style="fill: none; stroke: #b0b0b0; stroke-width: 0.8; stroke-linecap: square"/>
     </g>
     <g id="line2d_20">
      <g>
       <use xlink:href="#m12f0da427d" x="54" y="156.770233" style="stroke: #000000; stroke-width: 0.8"/>
      </g>
     </g>
     <g id="text_11">
      <!-- 40 -->
      <g transform="translate(34.275 160.569451)scale(0.1 -0.1)">
       <use xlink:href="#DejaVuSans-34"/>
       <use xlink:href="#DejaVuSans-30" x="63.623047"/>
      </g>
     </g>
    </g>
    <g id="ytick_5">
     <g id="line2d_21">
      <path d="M 54 131.765581 
L 388.8 131.765581 
" clip-path="url(#pa8db749b61)" style="fill: none; stroke: #b0b0b0; stroke-width: 0.8; stroke-linecap: square"/>
     </g>
     <g id="line2d_22">
      <g>
       <use xlink:href="#m12f0da427d" x="54" y="131.765581" style="stroke: #000000; stroke-width: 0.8"/>
      </g>
     </g>
     <g id="text_12">
      <!-- 50 -->
      <g transform="translate(34.275 135.5648)scale(0.1 -0.1)">
       <use xlink:href="#DejaVuSans-35"/>
       <use xlink:href="#DejaVuSans-30" x="63.623047"/>
      </g>
     </g>
    </g>
    <g id="ytick_6">
     <g id="line2d_23">
      <path d="M 54 106.76093 
L 388.8 106.76093 
" clip-path="url(#pa8db749b61)" style="fill: none; stroke: #b0b0b0; stroke-width: 0.8; stroke-linecap: square"/>
     </g>
     <g id="line2d_24">
      <g>
       <use xlink:href="#m12f0da427d" x="54" y="106.76093" style="stroke: #000000; stroke-width: 0.8"/>
      </g>
     </g>
     <g id="text_13">
      <!-- 60 -->
      <g transform="translate(34.275 110.560149)scale(0.1 -0.1)">
       <defs>
        <path id="DejaVuSans-36" d="M 2113 2584 
Q 1688 2584 1439 2293 
Q 1191 2003 1191 1497 
Q 1191 994 1439 701 
Q 1688 409 2113 409 
Q 2538 409 2786 701 
Q 3034 994 3034 1497 
Q 3034 2003 2786 2293 
Q 2538 2584 2113 2584 
z
M 3366 4563 
L 3366 3988 
Q 3128 4100 2886 4159 
Q 2644 4219 2406 4219 
Q 1781 4219 1451 3797 
Q 1122 3375 1075 2522 
Q 1259 2794 1537 2939 
Q 1816 3084 2150 3084 
Q 2853 3084 3261 2657 
Q 3669 2231 3669 1497 
Q 3669 778 3244 343 
Q 2819 -91 2113 -91 
Q 1303 -91 875 529 
Q 447 1150 447 2328 
Q 447 3434 972 4092 
Q 1497 4750 2381 4750 
Q 2619 4750 2861 4703 
Q 3103 4656 3366 4563 
z
" transform="scale(0.015625)"/>
       </defs>
       <use xlink:href="#DejaVuSans-36"/>
       <use xlink:href="#DejaVuSans-30" x="63.623047"/>
      </g>
     </g>
    </g>
    <g id="ytick_7">
     <g id="line2d_25">
      <path d="M 54 81.756279 
L 388.8 81.756279 
" clip-path="url(#pa8db749b61)" style="fill: none; stroke: #b0b0b0; stroke-width: 0.8; stroke-linecap: square"/>
     </g>
     <g id="line2d_26">
      <g>
       <use xlink:href="#m12f0da427d" x="54" y="81.756279" style="stroke: #000000; stroke-width: 0.8"/>
      </g>
     </g>
     <g id="text_14">
      <!-- 70 -->
      <g transform="translate(34.275 85.555498)scale(0.1 -0.1)">
       <defs>
        <path id="DejaVuSans-37" d="M 525 4666 
L 3525 4666 
L 3525 4397 
L 1831 0 
L 1172 0 
L 2766 4134 
L 525 4134 
L 525 4666 
z
" transform="scale(0.015625)"/>
       </defs>
       <use xlink:href="#DejaVuSans-37"/>
       <use xlink:href="#DejaVuSans-30" x="63.623047"/>
      </g>
     </g>
    </g>
    <g id="ytick_8">
     <g id="line2d_27">
      <path d="M 54 56.751628 
L 388.8 56.751628 
" clip-path="url(#pa8db749b61)" style="fill: none; stroke: #b0b0b0; stroke-width: 0.8; stroke-linecap: square"/>
     </g>
     <g id="line2d_28">
      <g>
       <use xlink:href="#m12f0da427d" x="54" y="56.751628" style="stroke: #000000; stroke-width: 0.8"/>
      </g>
     </g>
     <g id="text_15">
      <!-- 80 -->
      <g transform="translate(34.275 60.550847)scale(0.1 -0.1)">
       <defs>
        <path id="DejaVuSans-38" d="M 2034 2216 
Q 1584 2216 1326 1975 
Q 1069 1734 1069 1313 
Q 1069 891 1326 650 
Q 1584 409 2034 409 
Q 2484 409 2743 651 
Q 3003 894 3003 1313 
Q 3003 1734 2745 1975 
Q 2488 2216 2034 2216 
z
M 1403 2484 
Q 997 2584 770 2862 
Q 544 3141 544 3541 
Q 544 4100 942 4425 
Q 1341 4750 2034 4750 
Q 2731 4750 3128 4425 
Q 3525 4100 3525 3541 
Q 3525 3141 3298 2862 
Q 3072 2584 2669 2484 
Q 3125 2378 3379 2068 
Q 3634 1759 3634 1313 
Q 3634 634 3220 271 
Q 2806 -91 2034 -91 
Q 1263 -91 848 271 
Q 434 634 434 1313 
Q 434 1759 690 2068 
Q 947 2378 1403 2484 
z
M 1172 3481 
Q 1172 3119 1398 2916 
Q 1625 2713 2034 2713 
Q 2441 2713 2670 2916 
Q 2900 3119 2900 3481 
Q 2900 3844 2670 4047 
Q 2441 4250 2034 4250 
Q 1625 4250 1398 4047 
Q 1172 3844 1172 3481 
z
" transform="scale(0.015625)"/>
       </defs>
       <use xlink:href="#DejaVuSans-38"/>
       <use xlink:href="#DejaVuSans-30" x="63.623047"/>
      </g>
     </g>
    </g>
    <g id="text_16">
     <!-- % -->
     <g transform="translate(28.195312 150.190781)rotate(-90)scale(0.1 -0.1)">
      <defs>
       <path id="DejaVuSans-25" d="M 4653 2053 
Q 4381 2053 4226 1822 
Q 4072 1591 4072 1178 
Q 4072 772 4226 539 
Q 4381 306 4653 306 
Q 4919 306 5073 539 
Q 5228 772 5228 1178 
Q 5228 1588 5073 1820 
Q 4919 2053 4653 2053 
z
M 4653 2450 
Q 5147 2450 5437 2106 
Q 5728 1763 5728 1178 
Q 5728 594 5436 251 
Q 5144 -91 4653 -91 
Q 4153 -91 3862 251 
Q 3572 594 3572 1178 
Q 3572 1766 3864 2108 
Q 4156 2450 4653 2450 
z
M 1428 4353 
Q 1159 4353 1004 4120 
Q 850 3888 850 3481 
Q 850 3069 1003 2837 
Q 1156 2606 1428 2606 
Q 1700 2606 1854 2837 
Q 2009 3069 2009 3481 
Q 2009 3884 1853 4118 
Q 1697 4353 1428 4353 
z
M 4250 4750 
L 4750 4750 
L 1831 -91 
L 1331 -91 
L 4250 4750 
z
M 1428 4750 
Q 1922 4750 2215 4408 
Q 2509 4066 2509 3481 
Q 2509 2891 2217 2550 
Q 1925 2209 1428 2209 
Q 931 2209 642 2551 
Q 353 2894 353 3481 
Q 353 4063 643 4406 
Q 934 4750 1428 4750 
z
" transform="scale(0.015625)"/>
      </defs>
      <use xlink:href="#DejaVuSans-25"/>
     </g>
    </g>
   </g>
   <g id="line2d_29">
    <path d="M 69.218182 245.849302 
L 69.32464 246.24 
L 69.750472 245.588837 
L 69.85693 245.328372 
L 70.069846 245.71907 
L 70.069846 245.588837 
L 70.602137 244.546977 
L 70.921511 244.026047 
L 71.027969 242.984186 
L 71.134427 243.244651 
L 71.773176 244.156279 
L 71.773176 243.765581 
L 71.879634 243.765581 
L 71.986092 243.765581 
L 72.199008 242.984186 
L 72.305466 243.244651 
L 72.731298 242.723721 
L 72.837756 242.853953 
L 72.944214 243.635349 
L 73.050673 243.635349 
L 73.157131 243.895814 
L 73.263589 243.505116 
L 73.476505 242.202791 
L 73.582963 242.333023 
L 73.689421 241.68186 
L 73.902337 241.291163 
L 74.008795 240.64 
L 74.221711 239.337674 
L 74.328169 239.077209 
L 74.328169 239.077209 
L 74.434627 238.426047 
L 74.541086 238.556279 
L 74.86046 238.165581 
L 75.286292 233.477209 
L 75.499208 232.565581 
L 76.137957 225.923721 
L 76.244415 225.402791 
L 76.563789 221.756279 
L 76.776705 218.24 
L 76.883163 215.635349 
L 77.096079 213.16093 
L 77.202537 212.379535 
L 77.308996 209.644651 
L 78.054202 198.705116 
L 78.480034 196.230698 
L 78.586492 193.626047 
L 79.012325 186.723721 
L 79.118783 186.853953 
L 79.225241 182.686512 
L 79.651073 178.51907 
L 79.757531 178.51907 
L 79.863989 177.737674 
L 79.970447 176.174884 
L 80.502738 172.007442 
L 80.609196 171.356279 
L 80.715654 171.746977 
L 80.715654 171.746977 
L 80.92857 170.835349 
L 81.247944 170.314419 
L 81.46086 169.012093 
L 81.46086 169.402791 
L 81.567319 168.491163 
L 81.780235 167.449302 
L 81.780235 167.449302 
L 81.886693 168.230698 
L 81.993151 167.709767 
L 82.099609 167.84 
L 82.206067 168.88186 
L 82.418983 170.705116 
L 82.631899 170.314419 
L 82.844815 172.137674 
L 83.16419 175.393488 
L 83.270648 175.263256 
L 83.377106 175.263256 
L 83.483564 175.523721 
L 83.483564 175.393488 
L 83.69648 173.049302 
L 83.802938 173.570233 
L 84.122312 173.700465 
L 84.22877 172.658605 
L 84.441687 172.658605 
L 84.441687 172.658605 
L 84.548145 172.267907 
L 85.080435 166.537674 
L 85.186893 164.323721 
L 85.399809 161.067907 
L 85.506267 159.635349 
L 86.038558 151.170233 
L 86.145016 150.649302 
L 86.357932 151.04 
L 86.46439 148.435349 
L 86.570848 149.216744 
L 86.890222 148.044651 
L 86.99668 147.523721 
L 87.635429 140.88186 
L 87.741887 141.533023 
L 87.741887 141.142326 
L 87.848345 140.88186 
L 88.167719 138.277209 
L 88.274177 138.667907 
L 88.380635 137.365581 
L 88.487093 137.626047 
L 88.70001 134.76093 
L 88.912926 130.463256 
L 89.019384 131.374884 
L 89.2323 127.467907 
L 89.551674 126.165581 
L 89.658132 124.993488 
L 89.76459 124.863256 
L 89.871048 125.253953 
L 89.977506 123.430698 
L 90.083965 121.346977 
L 90.190423 121.477209 
L 90.509797 118.351628 
L 90.616255 118.091163 
L 90.722713 116.267907 
L 90.829171 116.137674 
L 91.148545 112.88186 
L 91.255003 112.621395 
L 91.255003 111.188837 
L 91.361461 111.970233 
L 91.574378 111.449302 
L 91.574378 111.449302 
L 91.787294 112.230698 
L 91.893752 112.100465 
L 91.893752 112.621395 
L 92.00021 112.100465 
L 92.319584 111.709767 
L 92.5325 109.756279 
L 92.745416 107.28186 
L 93.064791 105.588837 
L 93.171249 105.328372 
L 93.277707 105.979535 
L 93.384165 105.458605 
L 93.490623 104.286512 
L 93.490623 105.067907 
L 93.597081 105.19814 
L 93.703539 105.067907 
L 93.809997 104.677209 
L 93.809997 103.635349 
L 93.916455 103.765581 
L 94.022913 103.114419 
L 94.022913 103.244651 
L 94.129371 103.895814 
L 94.235829 103.244651 
L 94.342288 103.505116 
L 94.448746 101.942326 
L 94.555204 100.379535 
L 94.661662 100.900465 
L 94.661662 100.249302 
L 94.76812 100.249302 
L 95.087494 100.11907 
L 95.087494 99.728372 
L 95.193952 100.900465 
L 95.406868 101.942326 
L 95.513326 99.59814 
L 95.619784 98.946977 
L 95.726242 99.077209 
L 95.832701 96.993488 
L 96.045617 97.644651 
L 96.152075 95.56093 
L 96.471449 94.51907 
L 96.577907 94.909767 
L 96.684365 94.128372 
L 96.684365 92.305116 
L 96.790823 92.305116 
L 96.897281 92.435349 
L 97.003739 92.305116 
L 97.003739 91.914419 
L 97.110197 92.695814 
L 97.323114 91.914419 
L 97.323114 91.393488 
L 97.429572 91.393488 
L 97.53603 91.263256 
L 97.855404 90.351628 
L 98.06832 89.44 
L 98.174778 91.393488 
L 98.281236 91.393488 
L 98.387694 92.305116 
L 98.387694 91.784186 
L 98.494152 92.044651 
L 98.600611 91.523721 
L 98.707069 91.914419 
L 98.707069 92.695814 
L 98.813527 92.565581 
L 99.132901 91.133023 
L 99.345817 91.914419 
L 99.452275 91.133023 
L 99.558733 91.523721 
L 99.665191 91.263256 
L 99.771649 89.570233 
L 99.878107 90.091163 
L 99.984565 91.263256 
L 100.091024 89.96093 
L 100.091024 91.263256 
L 100.197482 91.393488 
L 100.30394 91.263256 
L 100.516856 90.48186 
L 100.623314 90.612093 
L 100.729772 89.830698 
L 100.83623 87.486512 
L 100.942688 87.356279 
L 101.049146 88.91907 
L 101.049146 87.877209 
L 101.155604 87.746977 
L 101.474979 85.923721 
L 101.581437 85.793488 
L 101.794353 86.184186 
L 101.900811 87.486512 
L 102.326643 84.621395 
L 102.433101 85.793488 
L 102.539559 85.012093 
L 102.646017 86.053953 
L 102.752475 84.88186 
L 102.752475 83.579535 
L 102.858934 83.709767 
L 103.07185 85.142326 
L 103.284766 86.444651 
L 103.497682 86.053953 
L 103.497682 86.053953 
L 103.60414 83.970233 
L 103.817056 85.012093 
L 104.029972 82.667907 
L 104.242888 83.84 
L 104.455805 83.188837 
L 104.455805 82.407442 
L 104.562263 82.667907 
L 104.881637 84.100465 
L 105.094553 81.886512 
L 105.201011 82.277209 
L 105.307469 82.016744 
L 105.413927 82.537674 
L 105.520385 81.365581 
L 105.733302 79.021395 
L 105.83976 79.151628 
L 106.052676 79.802791 
L 106.159134 81.886512 
L 106.265592 81.756279 
L 106.478508 79.802791 
L 106.584966 82.146977 
L 106.691424 82.146977 
L 107.117257 79.28186 
L 107.223715 79.933023 
L 107.330173 79.021395 
L 107.543089 80.974884 
L 107.756005 79.021395 
L 108.181837 82.016744 
L 108.394753 80.714419 
L 108.501211 78.891163 
L 108.820586 77.979535 
L 109.033502 78.24 
L 109.033502 78.109767 
L 109.246418 77.328372 
L 109.459334 79.542326 
L 109.565792 79.151628 
L 109.67225 79.672558 
L 109.67225 79.151628 
L 109.778708 79.021395 
L 109.885166 79.412093 
L 110.098083 77.849302 
L 110.204541 79.542326 
L 110.310999 79.412093 
L 110.310999 79.802791 
L 110.417457 79.151628 
L 110.523915 79.542326 
L 110.630373 79.28186 
L 110.630373 79.802791 
L 110.736831 79.802791 
L 110.949747 79.542326 
L 110.949747 78.891163 
L 111.056205 79.28186 
L 111.162663 79.021395 
L 111.269121 78.24 
L 111.588496 80.323721 
L 111.801412 79.151628 
L 111.90787 79.802791 
L 111.90787 79.021395 
L 112.014328 79.933023 
L 112.120786 80.584186 
L 112.546618 78.76093 
L 112.546618 77.71907 
L 112.653076 78.109767 
L 113.078909 73.812093 
L 113.185367 74.202791 
L 113.185367 73.812093 
L 113.291825 73.421395 
L 113.504741 74.333023 
L 113.504741 75.505116 
L 113.611199 75.374884 
L 113.930573 76.807442 
L 114.143489 75.765581 
L 114.249948 76.677209 
L 114.462864 76.026047 
L 114.67578 74.463256 
L 114.782238 74.202791 
L 114.888696 74.723721 
L 114.995154 73.812093 
L 115.101612 73.942326 
L 115.527444 78.109767 
L 115.740361 76.677209 
L 115.846819 77.067907 
L 115.846819 76.807442 
L 116.059735 76.416744 
L 116.698483 71.988837 
L 116.911399 71.728372 
L 117.017857 70.816744 
L 117.124316 71.207442 
L 117.230774 70.686512 
L 117.230774 69.905116 
L 117.337232 70.556279 
L 117.44369 70.165581 
L 117.550148 69.123721 
L 117.550148 69.644651 
L 117.656606 70.165581 
L 117.763064 69.514419 
L 117.869522 69.644651 
L 117.869522 69.253953 
L 117.97598 69.514419 
L 118.082438 68.993488 
L 118.188896 67.821395 
L 118.295354 69.253953 
L 118.401812 68.733023 
L 118.508271 68.863256 
L 118.508271 69.123721 
L 118.614729 68.472558 
L 118.721187 68.733023 
L 118.827645 68.212093 
L 118.827645 68.863256 
L 118.934103 68.472558 
L 119.147019 67.170233 
L 119.147019 67.56093 
L 119.466393 69.123721 
L 119.679309 69.123721 
L 119.785767 69.384186 
L 119.892226 69.253953 
L 119.892226 69.253953 
L 120.105142 69.905116 
L 120.318058 68.733023 
L 120.424516 68.733023 
L 120.530974 69.123721 
L 120.530974 68.863256 
L 120.637432 68.993488 
L 120.74389 70.426047 
L 120.74389 70.165581 
L 120.956806 67.04 
L 121.063264 66.909767 
L 121.063264 66.258605 
L 121.169722 67.430698 
L 121.27618 67.300465 
L 121.382639 66.909767 
L 121.382639 67.04 
L 121.595555 68.08186 
L 121.702013 68.733023 
L 122.553677 65.99814 
L 122.660135 66.779535 
L 122.873052 68.602791 
L 122.97951 67.821395 
L 123.192426 68.342326 
L 123.298884 67.300465 
L 123.298884 67.56093 
L 123.405342 68.993488 
L 123.5118 68.602791 
L 123.618258 68.733023 
L 123.618258 69.514419 
L 123.724716 68.342326 
L 123.831174 67.691163 
L 123.937632 68.602791 
L 123.937632 67.300465 
L 124.04409 67.430698 
L 124.150549 68.08186 
L 124.257007 67.951628 
L 124.257007 68.212093 
L 124.363465 68.212093 
L 124.469923 68.342326 
L 124.576381 68.733023 
L 124.682839 69.774884 
L 124.895755 70.816744 
L 125.108671 70.816744 
L 125.321587 70.426047 
L 125.428045 68.212093 
L 125.534503 68.993488 
L 125.74742 66.388837 
L 126.066794 67.430698 
L 126.27971 65.216744 
L 126.27971 65.607442 
L 126.386168 66.128372 
L 126.492626 65.607442 
L 126.599084 65.867907 
L 126.705542 66.649302 
L 126.812 66.258605 
L 126.918458 66.649302 
L 126.918458 66.388837 
L 127.024917 66.388837 
L 127.237833 66.649302 
L 127.237833 66.51907 
L 127.344291 66.258605 
L 127.983039 68.08186 
L 127.983039 67.691163 
L 128.089497 66.51907 
L 128.195955 67.430698 
L 128.302413 67.300465 
L 128.302413 68.472558 
L 128.408872 68.472558 
L 128.621788 66.779535 
L 128.728246 68.993488 
L 129.154078 72.64 
L 129.260536 70.556279 
L 129.366994 71.337674 
L 129.473452 70.946977 
L 129.57991 71.207442 
L 129.686368 69.774884 
L 129.792826 68.602791 
L 129.899285 68.733023 
L 130.005743 68.342326 
L 130.112201 68.602791 
L 130.218659 67.430698 
L 130.218659 67.821395 
L 130.325117 68.08186 
L 130.644491 69.253953 
L 130.750949 69.905116 
L 130.963865 69.774884 
L 130.963865 70.295814 
L 131.070323 69.644651 
L 131.176781 70.556279 
L 131.389698 68.993488 
L 131.496156 68.863256 
L 131.602614 66.258605 
L 131.921988 68.342326 
L 131.921988 68.342326 
L 132.134904 67.951628 
L 132.241362 68.472558 
L 132.34782 70.165581 
L 132.454278 69.905116 
L 132.560736 70.426047 
L 132.667195 69.644651 
L 132.773653 70.816744 
L 132.880111 69.774884 
L 132.986569 68.08186 
L 133.093027 68.212093 
L 133.305943 67.170233 
L 133.412401 67.56093 
L 133.518859 66.51907 
L 133.518859 66.779535 
L 133.625317 68.212093 
L 133.731775 67.56093 
L 133.838233 68.602791 
L 133.838233 67.951628 
L 134.157608 68.863256 
L 134.157608 68.733023 
L 134.476982 65.99814 
L 134.58344 64.174884 
L 134.689898 63.914419 
L 134.796356 64.174884 
L 134.902814 62.872558 
L 135.009272 62.872558 
L 135.11573 62.742326 
L 135.222188 64.044651 
L 135.328646 62.742326 
L 135.435104 64.565581 
L 135.648021 63.523721 
L 135.754479 64.044651 
L 135.754479 63.523721 
L 136.073853 63.914419 
L 136.180311 61.96093 
L 136.393227 62.872558 
L 136.499685 61.700465 
L 136.925518 62.351628 
L 137.244892 65.99814 
L 137.35135 65.607442 
L 137.35135 65.867907 
L 137.670724 67.430698 
L 137.670724 67.170233 
L 137.777182 66.909767 
L 137.88364 67.300465 
L 137.990098 65.867907 
L 137.990098 67.300465 
L 138.096556 68.08186 
L 138.309472 67.430698 
L 138.309472 68.08186 
L 138.415931 67.821395 
L 138.522389 68.733023 
L 138.841763 69.644651 
L 139.054679 68.733023 
L 139.054679 69.514419 
L 139.161137 69.253953 
L 139.267595 68.602791 
L 139.480511 69.253953 
L 139.586969 68.08186 
L 139.693427 68.993488 
L 139.693427 68.863256 
L 139.906344 67.691163 
L 140.012802 66.51907 
L 140.332176 64.565581 
L 140.332176 64.956279 
L 140.438634 64.565581 
L 140.545092 64.826047 
L 140.65155 62.612093 
L 140.864466 63.393488 
L 140.970924 62.48186 
L 140.970924 62.612093 
L 141.077382 62.872558 
L 141.290299 61.830698 
L 141.503215 62.091163 
L 141.609673 61.700465 
L 141.929047 59.486512 
L 142.248421 58.574884 
L 142.354879 58.053953 
L 142.354879 58.184186 
L 142.88717 60.137674 
L 143.313002 58.705116 
L 143.632376 60.788837 
L 143.738834 59.616744 
L 143.845292 59.746977 
L 143.845292 59.226047 
L 143.95175 59.616744 
L 144.058209 60.39814 
L 144.271125 60.658605 
L 144.484041 61.049302 
L 144.590499 60.39814 
L 144.696957 60.528372 
L 144.803415 61.179535 
L 144.803415 60.788837 
L 144.909873 60.91907 
L 145.016331 60.137674 
L 145.122789 60.528372 
L 145.335705 60.137674 
L 145.335705 60.267907 
L 145.867996 64.565581 
L 145.974454 63.263256 
L 145.974454 63.263256 
L 146.080912 63.393488 
L 146.18737 63.263256 
L 146.293828 63.393488 
L 146.400286 64.565581 
L 146.506744 64.174884 
L 146.71966 64.565581 
L 146.932577 64.174884 
L 147.039035 64.435349 
L 147.145493 65.216744 
L 147.251951 64.956279 
L 147.358409 63.523721 
L 147.464867 63.523721 
L 147.571325 64.174884 
L 147.571325 64.174884 
L 147.784241 63.914419 
L 147.890699 64.305116 
L 147.890699 64.826047 
L 147.997157 63.784186 
L 148.210073 61.700465 
L 148.210073 61.96093 
L 148.529448 59.877209 
L 148.635906 60.007442 
L 148.742364 59.616744 
L 148.848822 60.267907 
L 148.95528 59.095814 
L 149.061738 59.746977 
L 149.168196 58.574884 
L 149.274654 58.965581 
L 149.381112 59.877209 
L 149.700487 59.226047 
L 149.913403 59.486512 
L 149.913403 59.356279 
L 150.019861 59.877209 
L 150.126319 59.226047 
L 150.126319 59.877209 
L 150.339235 60.528372 
L 150.445693 60.658605 
L 150.445693 60.267907 
L 150.552151 60.528372 
L 150.658609 60.91907 
L 150.871525 63.393488 
L 150.977983 63.263256 
L 151.084441 63.523721 
L 151.403816 62.221395 
L 151.510274 63.393488 
L 151.616732 62.351628 
L 151.72319 62.742326 
L 151.829648 62.48186 
L 151.829648 62.872558 
L 151.936106 62.221395 
L 152.042564 61.96093 
L 152.149022 62.091163 
L 152.149022 61.96093 
L 152.468396 61.830698 
L 152.468396 63.393488 
L 152.574855 62.742326 
L 153.000687 60.267907 
L 153.213603 60.658605 
L 153.426519 59.616744 
L 153.639435 60.007442 
L 153.745893 59.095814 
L 153.852351 59.486512 
L 153.95881 60.137674 
L 154.065268 59.486512 
L 154.065268 59.877209 
L 154.384642 61.44 
L 154.4911 61.179535 
L 154.597558 61.44 
L 154.597558 61.96093 
L 154.704016 61.44 
L 154.810474 61.830698 
L 154.916932 61.179535 
L 155.129848 61.179535 
L 155.449223 63.523721 
L 155.768597 61.309767 
L 155.875055 61.830698 
L 155.875055 61.830698 
L 156.194429 61.049302 
L 156.300887 62.612093 
L 156.407345 63.133023 
L 156.407345 62.221395 
L 156.513803 63.523721 
L 156.620261 62.48186 
L 156.726719 62.612093 
L 156.726719 62.351628 
L 156.833178 62.351628 
L 156.939636 62.221395 
L 157.046094 63.523721 
L 157.152552 62.872558 
L 157.365468 64.565581 
L 157.471926 64.435349 
L 157.578384 64.565581 
L 157.7913 65.737674 
L 158.004216 64.435349 
L 158.110674 64.565581 
L 158.110674 63.914419 
L 158.217133 64.174884 
L 158.323591 63.784186 
L 158.430049 63.914419 
L 158.430049 63.784186 
L 158.536507 63.653953 
L 158.749423 62.612093 
L 158.855881 62.48186 
L 159.068797 60.137674 
L 159.175255 60.267907 
L 159.388171 59.356279 
L 159.707546 57.923721 
L 159.814004 58.184186 
L 159.920462 57.402791 
L 159.920462 57.793488 
L 160.02692 58.184186 
L 160.133378 57.793488 
L 160.239836 56.751628 
L 160.239836 57.012093 
L 160.55921 57.012093 
L 160.665668 58.314419 
L 160.985042 59.095814 
L 161.091501 59.226047 
L 161.517333 61.700465 
L 161.623791 62.742326 
L 161.836707 63.653953 
L 161.943165 63.133023 
L 161.943165 63.393488 
L 162.262539 64.826047 
L 162.262539 65.607442 
L 162.368997 64.305116 
L 162.475455 64.044651 
L 162.688372 64.826047 
L 162.79483 64.044651 
L 162.901288 64.174884 
L 162.901288 63.914419 
L 163.007746 63.914419 
L 163.32712 62.872558 
L 163.540036 63.523721 
L 163.646494 63.002791 
L 163.752952 63.133023 
L 163.85941 62.091163 
L 163.965869 62.872558 
L 164.391701 60.267907 
L 164.498159 60.91907 
L 164.498159 60.39814 
L 164.604617 60.528372 
L 164.817533 58.835349 
L 165.030449 59.616744 
L 165.136907 58.705116 
L 165.243365 57.402791 
L 165.349824 58.444651 
L 165.456282 58.184186 
L 165.456282 57.793488 
L 165.56274 57.923721 
L 165.775656 59.226047 
L 166.201488 58.053953 
L 166.307946 58.184186 
L 166.414404 58.705116 
L 166.414404 58.705116 
L 166.520862 57.663256 
L 166.733778 58.053953 
L 166.840237 58.705116 
L 166.946695 59.877209 
L 167.159611 59.095814 
L 167.585443 60.39814 
L 167.691901 60.39814 
L 167.798359 61.830698 
L 167.904817 61.700465 
L 168.117733 62.48186 
L 168.224192 62.221395 
L 168.33065 62.872558 
L 168.437108 64.565581 
L 168.756482 64.695814 
L 168.756482 65.737674 
L 168.86294 65.477209 
L 169.182314 67.04 
L 169.39523 65.867907 
L 169.501688 66.388837 
L 169.501688 65.346977 
L 169.608147 65.737674 
L 169.714605 66.128372 
L 169.821063 65.99814 
L 169.821063 65.99814 
L 169.927521 66.51907 
L 170.140437 65.477209 
L 170.140437 65.607442 
L 170.353353 64.695814 
L 170.459811 65.607442 
L 170.566269 65.216744 
L 170.779185 65.477209 
L 170.885643 63.002791 
L 171.09856 62.351628 
L 171.09856 62.48186 
L 171.205018 61.570233 
L 171.524392 61.96093 
L 171.63085 61.179535 
L 171.737308 60.91907 
L 171.843766 60.137674 
L 171.843766 60.39814 
L 171.950224 60.528372 
L 172.056682 59.616744 
L 172.056682 60.658605 
L 172.16314 60.658605 
L 172.269598 61.049302 
L 172.376056 60.788837 
L 172.482515 59.226047 
L 172.695431 59.616744 
L 172.801889 58.184186 
L 172.908347 58.705116 
L 173.121263 57.793488 
L 173.227721 57.923721 
L 173.334179 57.923721 
L 173.334179 57.923721 
L 173.440637 59.095814 
L 173.653553 58.314419 
L 173.653553 57.142326 
L 173.760011 57.272558 
L 173.972928 56.621395 
L 174.185844 55.970233 
L 174.292302 56.230698 
L 174.39876 56.88186 
L 174.39876 57.793488 
L 174.505218 57.663256 
L 174.611676 58.184186 
L 174.93105 55.188837 
L 175.037508 55.31907 
L 175.037508 55.058605 
L 175.143966 55.31907 
L 175.356883 55.709767 
L 175.356883 56.36093 
L 175.463341 55.579535 
L 175.676257 56.751628 
L 175.676257 56.751628 
L 175.782715 55.970233 
L 175.889173 56.100465 
L 175.995631 55.579535 
L 175.995631 54.146977 
L 176.102089 54.537674 
L 176.208547 54.537674 
L 176.315005 55.058605 
L 176.421463 54.928372 
L 176.634379 54.928372 
L 176.634379 55.058605 
L 176.953754 55.188837 
L 177.060212 54.277209 
L 177.16667 54.407442 
L 177.486044 56.751628 
L 177.805418 55.579535 
L 177.911876 55.579535 
L 177.911876 55.449302 
L 178.018334 56.36093 
L 178.124793 55.31907 
L 178.337709 57.012093 
L 178.444167 57.012093 
L 178.550625 57.663256 
L 178.550625 58.835349 
L 178.657083 58.053953 
L 178.763541 57.012093 
L 178.976457 57.142326 
L 179.082915 57.012093 
L 179.189373 57.142326 
L 179.189373 56.751628 
L 179.295831 57.793488 
L 179.402289 57.663256 
L 179.615206 57.663256 
L 179.828122 57.012093 
L 179.93458 55.709767 
L 180.041038 55.579535 
L 180.253954 56.751628 
L 180.360412 56.621395 
L 180.573328 55.579535 
L 180.679786 56.751628 
L 180.892702 55.579535 
L 181.105619 55.579535 
L 181.105619 55.188837 
L 181.212077 56.100465 
L 181.424993 57.663256 
L 181.531451 57.923721 
L 181.637909 57.793488 
L 181.744367 57.923721 
L 181.744367 58.444651 
L 181.850825 57.142326 
L 182.063741 56.88186 
L 182.063741 57.533023 
L 182.383116 57.012093 
L 182.596032 58.444651 
L 182.70249 57.793488 
L 182.808948 58.314419 
L 182.808948 58.314419 
L 182.915406 58.184186 
L 183.128322 58.965581 
L 183.23478 57.142326 
L 183.554154 55.84 
L 183.76707 55.058605 
L 183.873529 54.407442 
L 183.979987 54.016744 
L 184.192903 54.407442 
L 184.405819 53.235349 
L 184.512277 54.146977 
L 184.831651 52.193488 
L 185.151025 52.974884 
L 185.257484 53.105116 
L 185.363942 52.974884 
L 185.363942 52.323721 
L 185.4704 53.235349 
L 185.683316 54.79814 
L 185.789774 54.667907 
L 185.896232 54.407442 
L 186.00269 54.537674 
L 186.00269 54.407442 
L 186.322064 55.579535 
L 186.322064 54.79814 
L 186.428522 55.058605 
L 186.53498 54.928372 
L 186.641439 53.886512 
L 186.641439 53.886512 
L 187.386645 57.923721 
L 187.493103 57.142326 
L 187.493103 57.142326 
L 187.812477 57.272558 
L 187.918935 57.142326 
L 187.918935 58.705116 
L 188.025393 58.444651 
L 188.23831 58.184186 
L 188.557684 57.272558 
L 188.664142 57.272558 
L 188.7706 56.751628 
L 188.877058 57.272558 
L 188.983516 58.965581 
L 189.196432 58.705116 
L 189.196432 59.095814 
L 189.30289 58.705116 
L 189.409348 58.574884 
L 189.515807 58.835349 
L 189.728723 56.751628 
L 189.728723 56.751628 
L 189.835181 56.621395 
L 190.048097 55.31907 
L 190.367471 56.100465 
L 190.686845 54.407442 
L 190.793303 54.667907 
L 190.793303 55.188837 
L 190.899762 54.667907 
L 191.219136 57.012093 
L 191.325594 58.965581 
L 191.432052 59.095814 
L 191.432052 58.835349 
L 191.53851 59.095814 
L 191.751426 60.007442 
L 191.964342 61.44 
L 192.177258 62.742326 
L 192.390175 61.570233 
L 192.496633 63.263256 
L 192.816007 64.305116 
L 192.922465 63.393488 
L 193.028923 64.174884 
L 193.028923 63.914419 
L 193.348297 64.044651 
L 193.454755 63.784186 
L 193.667671 65.346977 
L 193.667671 64.956279 
L 193.77413 64.956279 
L 193.880588 64.695814 
L 193.987046 63.002791 
L 194.093504 63.393488 
L 194.199962 62.872558 
L 194.30642 63.133023 
L 194.412878 62.221395 
L 194.519336 62.48186 
L 194.625794 61.309767 
L 194.732252 61.830698 
L 194.83871 60.91907 
L 194.83871 61.830698 
L 194.945168 62.872558 
L 195.051626 62.351628 
L 195.158085 63.002791 
L 195.371001 64.174884 
L 195.477459 64.174884 
L 195.583917 64.435349 
L 195.583917 64.044651 
L 195.690375 65.216744 
L 195.796833 64.695814 
L 196.222665 63.002791 
L 196.222665 63.653953 
L 196.329123 63.523721 
L 196.542039 62.351628 
L 196.861414 60.658605 
L 196.861414 61.309767 
L 196.967872 60.788837 
L 197.07433 60.528372 
L 197.180788 60.91907 
L 197.393704 60.39814 
L 197.500162 61.179535 
L 198.032453 55.84 
L 198.138911 56.621395 
L 198.351827 54.79814 
L 198.564743 55.709767 
L 198.777659 55.31907 
L 198.990575 54.146977 
L 199.522866 58.053953 
L 199.84224 56.100465 
L 199.948698 56.36093 
L 200.055156 54.277209 
L 200.268072 55.709767 
L 200.268072 55.31907 
L 200.480988 55.31907 
L 200.587446 56.230698 
L 200.587446 55.579535 
L 200.693904 54.79814 
L 200.906821 56.36093 
L 200.906821 56.230698 
L 201.119737 55.188837 
L 201.652027 57.663256 
L 201.758485 56.88186 
L 201.758485 57.663256 
L 202.184317 54.407442 
L 202.290776 55.188837 
L 202.397234 55.058605 
L 202.503692 55.449302 
L 202.61015 55.449302 
L 202.716608 55.709767 
L 202.716608 56.100465 
L 202.823066 55.31907 
L 202.929524 55.31907 
L 203.035982 55.579535 
L 203.461814 54.016744 
L 203.461814 53.235349 
L 203.568272 53.365581 
L 203.674731 53.105116 
L 203.781189 53.626047 
L 203.781189 53.495814 
L 203.994105 53.235349 
L 204.100563 53.235349 
L 204.313479 53.105116 
L 204.419937 52.193488 
L 204.526395 52.714419 
L 204.526395 52.584186 
L 204.632853 52.453953 
L 204.952227 54.146977 
L 205.271602 53.495814 
L 205.37806 54.016744 
L 205.484518 53.756279 
L 205.484518 53.756279 
L 205.803892 55.449302 
L 206.123266 55.84 
L 206.229724 55.709767 
L 206.229724 55.31907 
L 206.336182 55.709767 
L 206.549099 54.928372 
L 206.655557 55.058605 
L 206.868473 54.277209 
L 207.294305 53.365581 
L 207.400763 54.146977 
L 207.507221 54.016744 
L 207.613679 54.146977 
L 207.720137 53.886512 
L 207.720137 53.495814 
L 207.826595 54.537674 
L 208.039512 55.058605 
L 208.14597 54.928372 
L 208.252428 55.31907 
L 208.465344 53.886512 
L 208.571802 54.277209 
L 209.423467 58.184186 
L 209.529925 57.533023 
L 209.636383 59.226047 
L 209.742841 58.314419 
L 210.168673 58.053953 
L 210.168673 57.533023 
L 210.275131 57.793488 
L 210.381589 58.314419 
L 210.488047 57.012093 
L 210.488047 57.272558 
L 210.594505 57.533023 
L 210.807422 56.751628 
L 210.91388 57.142326 
L 211.020338 56.751628 
L 211.020338 57.663256 
L 211.126796 57.402791 
L 211.233254 57.533023 
L 211.339712 58.314419 
L 211.339712 57.793488 
L 211.44617 57.793488 
L 211.659086 56.621395 
L 211.765544 56.230698 
L 211.872002 55.31907 
L 211.97846 55.058605 
L 212.084918 55.709767 
L 212.191377 54.016744 
L 212.297835 54.146977 
L 212.510751 54.928372 
L 212.830125 55.058605 
L 212.830125 55.31907 
L 212.936583 54.146977 
L 213.043041 54.537674 
L 213.362415 53.105116 
L 213.468873 52.844651 
L 213.575331 53.105116 
L 213.68179 54.277209 
L 213.68179 54.016744 
L 214.001164 52.063256 
L 214.426996 53.886512 
L 214.533454 56.230698 
L 214.639912 56.230698 
L 214.852828 55.188837 
L 214.852828 55.188837 
L 214.959286 56.36093 
L 215.278661 54.277209 
L 215.385119 55.579535 
L 215.385119 55.188837 
L 215.810951 55.84 
L 216.023867 58.314419 
L 216.130325 57.533023 
L 216.236783 58.835349 
L 216.4497 56.88186 
L 216.556158 57.272558 
L 216.662616 57.272558 
L 216.769074 57.533023 
L 216.769074 58.053953 
L 216.875532 57.923721 
L 216.98199 57.663256 
L 217.088448 59.095814 
L 217.407822 56.751628 
L 217.51428 57.402791 
L 217.620738 59.486512 
L 217.727196 58.705116 
L 217.833654 59.486512 
L 217.940113 61.309767 
L 218.153029 60.007442 
L 218.153029 60.007442 
L 218.578861 58.835349 
L 218.685319 57.923721 
L 218.898235 59.095814 
L 219.111151 59.746977 
L 219.324068 59.746977 
L 219.430526 58.314419 
L 219.536984 58.053953 
L 219.643442 58.184186 
L 219.7499 56.230698 
L 219.856358 56.88186 
L 219.962816 56.621395 
L 219.962816 56.751628 
L 220.069274 57.402791 
L 220.28219 55.579535 
L 220.388648 56.230698 
L 220.388648 55.84 
L 220.495106 55.188837 
L 220.601564 55.31907 
L 220.814481 54.407442 
L 220.920939 54.537674 
L 221.027397 55.579535 
L 221.027397 54.79814 
L 221.346771 54.79814 
L 221.453229 54.537674 
L 221.559687 52.974884 
L 221.666145 53.626047 
L 221.879061 53.235349 
L 221.985519 53.365581 
L 221.985519 53.105116 
L 222.091977 53.886512 
L 222.304894 54.928372 
L 222.411352 55.709767 
L 222.51781 55.058605 
L 222.730726 57.012093 
L 222.837184 55.84 
L 222.837184 56.100465 
L 222.943642 57.142326 
L 223.263016 55.188837 
L 223.263016 55.709767 
L 223.369474 55.709767 
L 223.475932 55.709767 
L 223.582391 55.579535 
L 223.688849 54.146977 
L 224.008223 53.365581 
L 224.221139 53.365581 
L 224.327597 53.495814 
L 224.434055 53.105116 
L 224.540513 53.235349 
L 224.540513 53.495814 
L 224.646971 53.495814 
L 224.753429 53.495814 
L 224.859887 53.105116 
L 224.966346 51.412093 
L 225.072804 52.063256 
L 225.179262 51.28186 
L 225.28572 51.412093 
L 225.392178 50.500465 
L 225.392178 49.19814 
L 225.498636 50.109767 
L 225.605094 50.76093 
L 225.81801 49.71907 
L 226.030926 49.067907 
L 226.243842 49.588837 
L 226.3503 49.588837 
L 226.456759 50.630698 
L 226.563217 51.021395 
L 226.669675 50.76093 
L 226.776133 52.453953 
L 226.882591 52.584186 
L 227.201965 54.537674 
L 227.414881 53.756279 
L 227.734255 55.449302 
L 227.840714 54.79814 
L 228.160088 56.88186 
L 228.373004 55.449302 
L 228.58592 57.533023 
L 228.798836 56.751628 
L 228.905294 57.272558 
L 229.011752 57.142326 
L 229.11821 58.184186 
L 229.331127 59.356279 
L 229.437585 56.88186 
L 229.650501 56.100465 
L 229.650501 55.058605 
L 229.969875 55.188837 
L 230.182791 56.36093 
L 230.289249 56.491163 
L 230.502165 54.277209 
L 230.608623 54.537674 
L 230.715082 54.667907 
L 230.82154 53.886512 
L 230.927998 54.016744 
L 231.034456 53.756279 
L 231.140914 54.407442 
L 231.140914 54.146977 
L 231.35383 54.016744 
L 231.460288 54.537674 
L 231.566746 53.886512 
L 231.673204 54.146977 
L 231.779662 54.016744 
L 231.992578 52.063256 
L 231.992578 52.714419 
L 232.099037 53.105116 
L 232.311953 54.146977 
L 232.311953 53.495814 
L 232.418411 53.756279 
L 232.524869 53.626047 
L 232.631327 52.584186 
L 232.844243 52.063256 
L 232.950701 51.412093 
L 233.163617 52.584186 
L 233.270075 54.016744 
L 233.695908 52.584186 
L 233.802366 52.714419 
L 233.908824 52.453953 
L 233.908824 53.365581 
L 234.015282 53.105116 
L 234.12174 52.323721 
L 234.334656 53.365581 
L 234.441114 53.235349 
L 234.547572 53.365581 
L 234.547572 54.537674 
L 234.65403 53.756279 
L 234.760488 54.537674 
L 234.866946 53.886512 
L 234.866946 54.146977 
L 235.079863 55.058605 
L 235.186321 55.31907 
L 235.505695 55.188837 
L 235.612153 55.579535 
L 235.931527 53.365581 
L 236.144443 54.016744 
L 236.35736 54.537674 
L 236.463818 54.016744 
L 236.570276 54.667907 
L 236.570276 54.146977 
L 236.676734 54.277209 
L 236.783192 54.667907 
L 236.88965 54.537674 
L 236.88965 54.016744 
L 236.996108 54.146977 
L 237.102566 54.667907 
L 237.209024 54.537674 
L 237.209024 54.016744 
L 237.315482 54.407442 
L 237.42194 54.667907 
L 237.528398 55.970233 
L 237.847773 54.407442 
L 237.954231 54.537674 
L 237.954231 54.407442 
L 238.060689 54.146977 
L 238.380063 54.537674 
L 238.380063 54.407442 
L 238.592979 56.621395 
L 238.699437 56.88186 
L 238.805895 57.533023 
L 238.805895 57.533023 
L 238.912353 57.142326 
L 239.125269 57.923721 
L 239.231728 57.402791 
L 239.231728 57.793488 
L 239.338186 57.793488 
L 239.444644 58.314419 
L 239.551102 57.923721 
L 239.870476 58.835349 
L 240.083392 59.746977 
L 240.18985 59.226047 
L 240.296308 58.444651 
L 240.509224 59.877209 
L 240.615683 59.356279 
L 240.722141 60.137674 
L 240.935057 59.746977 
L 241.360889 58.574884 
L 241.573805 56.751628 
L 241.893179 57.272558 
L 241.999638 56.491163 
L 242.106096 56.751628 
L 242.212554 55.84 
L 242.212554 56.751628 
L 242.319012 56.491163 
L 242.42547 56.621395 
L 242.531928 55.970233 
L 242.531928 56.100465 
L 242.638386 56.230698 
L 242.95776 54.928372 
L 242.95776 55.058605 
L 243.170676 54.146977 
L 243.383592 53.365581 
L 243.383592 53.235349 
L 243.490051 54.667907 
L 243.596509 54.667907 
L 243.809425 53.886512 
L 244.128799 54.537674 
L 244.128799 54.537674 
L 244.235257 54.407442 
L 244.341715 55.188837 
L 244.554631 53.886512 
L 244.661089 54.667907 
L 244.661089 54.146977 
L 244.874006 54.928372 
L 244.980464 54.79814 
L 244.980464 54.407442 
L 245.086922 54.667907 
L 245.19338 54.667907 
L 245.299838 53.626047 
L 245.299838 54.277209 
L 245.512754 54.667907 
L 245.619212 54.277209 
L 245.72567 54.667907 
L 245.72567 55.970233 
L 245.832128 55.188837 
L 245.938586 55.579535 
L 246.045044 57.012093 
L 246.151502 56.36093 
L 246.364419 58.574884 
L 246.577335 57.142326 
L 246.896709 57.923721 
L 247.003167 57.533023 
L 247.109625 57.793488 
L 247.216083 57.272558 
L 247.322541 57.663256 
L 247.535457 55.31907 
L 247.641915 56.36093 
L 247.96129 54.407442 
L 248.174206 53.365581 
L 248.280664 53.235349 
L 248.387122 50.630698 
L 248.49358 50.630698 
L 248.600038 50.76093 
L 249.02587 49.19814 
L 249.132329 49.067907 
L 249.132329 49.588837 
L 249.238787 49.328372 
L 249.345245 50.24 
L 249.451703 49.067907 
L 249.451703 49.328372 
L 249.771077 50.109767 
L 249.877535 49.588837 
L 249.983993 51.412093 
L 250.303367 52.844651 
L 250.303367 52.453953 
L 250.409825 52.714419 
L 250.622742 53.495814 
L 250.622742 53.105116 
L 250.7292 53.365581 
L 251.048574 55.188837 
L 251.048574 56.100465 
L 251.155032 56.100465 
L 251.26149 56.100465 
L 251.367948 56.751628 
L 251.79378 54.928372 
L 251.900238 55.31907 
L 252.006697 54.79814 
L 252.006697 55.31907 
L 252.219613 54.537674 
L 252.326071 54.928372 
L 252.645445 53.495814 
L 252.751903 52.453953 
L 252.751903 53.365581 
L 253.071277 52.323721 
L 253.177735 51.933023 
L 253.284193 53.495814 
L 253.390652 53.626047 
L 253.49711 52.974884 
L 253.710026 51.933023 
L 253.816484 52.844651 
L 254.0294 51.672558 
L 254.135858 51.933023 
L 254.455232 52.844651 
L 254.668148 51.412093 
L 254.774607 51.672558 
L 254.774607 50.630698 
L 254.881065 51.021395 
L 255.200439 50.370233 
L 255.413355 51.672558 
L 255.519813 50.891163 
L 255.626271 51.412093 
L 255.626271 50.76093 
L 255.732729 51.672558 
L 255.839187 52.193488 
L 255.945645 52.063256 
L 256.158561 52.453953 
L 256.26502 51.933023 
L 256.26502 51.933023 
L 256.477936 52.323721 
L 256.584394 52.193488 
L 256.690852 51.412093 
L 256.903768 50.500465 
L 257.010226 50.76093 
L 257.116684 50.500465 
L 257.542516 54.537674 
L 257.542516 54.277209 
L 257.755433 55.058605 
L 257.861891 53.756279 
L 257.968349 54.537674 
L 258.181265 53.756279 
L 258.287723 53.886512 
L 258.500639 53.105116 
L 258.713555 52.063256 
L 258.820013 51.28186 
L 259.03293 51.933023 
L 259.139388 51.412093 
L 259.352304 53.495814 
L 259.458762 53.626047 
L 259.458762 53.626047 
L 259.884594 55.579535 
L 259.991052 55.449302 
L 260.203968 54.277209 
L 260.310426 55.188837 
L 260.310426 54.277209 
L 260.416884 53.756279 
L 260.629801 55.058605 
L 260.736259 55.188837 
L 260.736259 55.579535 
L 261.055633 55.970233 
L 261.268549 54.407442 
L 261.375007 55.31907 
L 261.481465 54.79814 
L 261.694381 55.84 
L 261.800839 55.188837 
L 261.907298 55.31907 
L 262.013756 54.146977 
L 262.120214 54.407442 
L 262.226672 55.188837 
L 262.226672 56.36093 
L 262.33313 56.100465 
L 262.652504 54.277209 
L 262.652504 53.756279 
L 262.758962 53.886512 
L 262.86542 54.146977 
L 263.078336 53.105116 
L 263.184794 53.886512 
L 263.184794 54.79814 
L 263.291253 54.407442 
L 263.397711 53.365581 
L 263.504169 53.886512 
L 263.610627 53.756279 
L 263.610627 53.235349 
L 263.717085 54.146977 
L 264.036459 55.31907 
L 264.142917 56.491163 
L 264.249375 55.709767 
L 264.249375 56.36093 
L 264.355833 56.491163 
L 264.462291 57.012093 
L 264.568749 56.621395 
L 264.781666 56.88186 
L 264.994582 56.491163 
L 265.10104 55.970233 
L 265.10104 55.188837 
L 265.207498 55.31907 
L 265.420414 54.016744 
L 265.526872 55.058605 
L 265.63333 54.928372 
L 265.846246 53.886512 
L 265.952704 54.79814 
L 266.165621 53.365581 
L 266.272079 53.756279 
L 266.272079 53.626047 
L 266.378537 52.323721 
L 266.591453 53.105116 
L 266.697911 53.105116 
L 266.804369 51.151628 
L 267.123743 51.151628 
L 267.336659 50.891163 
L 267.549576 50.109767 
L 267.86895 54.016744 
L 267.975408 53.756279 
L 268.081866 54.016744 
L 268.081866 54.016744 
L 268.188324 54.667907 
L 268.294782 54.537674 
L 268.40124 53.756279 
L 268.507698 52.844651 
L 268.720614 54.928372 
L 268.720614 53.756279 
L 268.827072 54.537674 
L 269.039989 55.31907 
L 269.146447 55.31907 
L 269.146447 56.751628 
L 269.252905 56.751628 
L 269.465821 56.36093 
L 269.465821 56.88186 
L 269.572279 56.88186 
L 269.785195 58.053953 
L 270.211027 58.574884 
L 270.423944 57.012093 
L 270.530402 55.31907 
L 270.63686 55.579535 
L 270.849776 55.188837 
L 270.849776 54.277209 
L 270.956234 55.188837 
L 271.062692 55.84 
L 271.16915 55.709767 
L 271.16915 56.491163 
L 271.275608 55.31907 
L 271.382066 55.579535 
L 271.488524 56.36093 
L 271.488524 55.970233 
L 271.70144 54.537674 
L 271.807899 55.449302 
L 271.914357 53.105116 
L 272.020815 53.365581 
L 272.233731 54.146977 
L 272.340189 53.105116 
L 272.446647 53.756279 
L 272.553105 53.626047 
L 272.553105 53.365581 
L 272.978937 53.235349 
L 272.978937 52.714419 
L 273.085395 53.105116 
L 273.191853 53.235349 
L 273.40477 51.933023 
L 273.511228 52.584186 
L 273.617686 51.933023 
L 273.617686 51.151628 
L 273.724144 51.28186 
L 273.830602 52.193488 
L 274.043518 51.021395 
L 274.256434 51.28186 
L 274.256434 52.193488 
L 274.362892 51.933023 
L 274.575808 53.626047 
L 274.682267 51.672558 
L 274.788725 51.28186 
L 274.895183 51.802791 
L 275.108099 51.151628 
L 275.214557 51.542326 
L 275.214557 51.151628 
L 275.321015 50.630698 
L 276.066222 52.844651 
L 276.17268 53.235349 
L 276.279138 54.277209 
L 276.385596 54.016744 
L 276.598512 54.537674 
L 276.70497 54.277209 
L 276.70497 54.277209 
L 276.811428 54.667907 
L 276.917886 54.537674 
L 277.024344 53.626047 
L 277.130802 52.193488 
L 277.343718 53.626047 
L 277.343718 53.626047 
L 277.769551 50.500465 
L 277.876009 50.109767 
L 278.088925 51.151628 
L 278.088925 51.021395 
L 278.408299 50.76093 
L 278.514757 50.891163 
L 278.621215 49.849302 
L 278.834131 50.630698 
L 279.047048 51.28186 
L 279.259964 49.588837 
L 279.366422 50.630698 
L 279.579338 49.849302 
L 279.898712 51.933023 
L 279.898712 51.542326 
L 280.00517 51.933023 
L 280.111628 51.802791 
L 280.324545 53.886512 
L 280.324545 54.277209 
L 280.431003 53.235349 
L 280.537461 52.974884 
L 280.537461 53.886512 
L 280.643919 53.365581 
L 280.750377 53.365581 
L 280.856835 53.105116 
L 280.856835 53.235349 
L 280.963293 54.016744 
L 281.282667 54.537674 
L 281.282667 54.537674 
L 281.389125 55.058605 
L 281.602041 54.277209 
L 281.602041 54.667907 
L 281.921416 56.100465 
L 282.027874 56.100465 
L 282.134332 56.751628 
L 282.24079 56.36093 
L 282.24079 56.491163 
L 282.347248 56.751628 
L 282.560164 57.923721 
L 282.77308 58.184186 
L 282.879538 57.533023 
L 282.985996 58.314419 
L 283.092454 61.44 
L 283.198913 61.96093 
L 283.305371 61.049302 
L 283.305371 61.179535 
L 283.411829 61.179535 
L 283.624745 60.528372 
L 283.731203 60.788837 
L 284.050577 61.179535 
L 284.157035 60.007442 
L 284.263493 59.746977 
L 284.476409 60.91907 
L 284.582867 61.570233 
L 284.795784 60.91907 
L 284.902242 61.830698 
L 285.0087 61.309767 
L 285.115158 59.486512 
L 285.328074 58.444651 
L 285.328074 58.705116 
L 285.647448 58.965581 
L 285.860364 57.272558 
L 285.966822 58.053953 
L 286.073281 56.88186 
L 286.073281 57.012093 
L 286.179739 57.533023 
L 286.499113 57.142326 
L 286.499113 56.621395 
L 286.605571 57.663256 
L 286.924945 57.402791 
L 287.031403 55.970233 
L 287.244319 53.626047 
L 287.350777 54.407442 
L 287.457236 52.323721 
L 287.563694 52.453953 
L 287.883068 54.016744 
L 287.989526 53.756279 
L 288.3089 52.323721 
L 288.521816 52.193488 
L 288.734732 52.714419 
L 288.734732 52.714419 
L 288.84119 52.193488 
L 289.160565 53.235349 
L 289.160565 51.672558 
L 289.267023 52.584186 
L 289.373481 53.626047 
L 289.692855 53.105116 
L 289.692855 53.495814 
L 289.799313 53.365581 
L 289.905771 53.756279 
L 290.012229 53.235349 
L 290.331604 56.230698 
L 290.331604 55.970233 
L 290.438062 55.970233 
L 290.650978 55.449302 
L 290.757436 55.579535 
L 290.970352 56.88186 
L 291.07681 56.751628 
L 291.183268 56.100465 
L 291.289726 57.923721 
L 291.502642 58.574884 
L 291.822017 56.751628 
L 291.928475 57.793488 
L 292.034933 56.36093 
L 292.247849 57.402791 
L 292.567223 57.663256 
L 292.567223 57.533023 
L 292.993055 55.31907 
L 293.205972 56.36093 
L 293.631804 54.667907 
L 293.631804 56.100465 
L 293.738262 55.970233 
L 293.84472 56.491163 
L 294.164094 54.79814 
L 294.270552 55.579535 
L 294.270552 56.621395 
L 294.37701 55.84 
L 294.589927 55.188837 
L 294.589927 55.970233 
L 294.696385 55.449302 
L 294.909301 54.79814 
L 294.909301 54.928372 
L 295.015759 54.79814 
L 295.335133 55.188837 
L 295.335133 54.667907 
L 295.441591 54.928372 
L 295.760965 54.667907 
L 295.867423 54.667907 
L 296.186798 55.709767 
L 296.399714 53.365581 
L 296.506172 52.453953 
L 296.61263 52.584186 
L 296.61263 53.235349 
L 296.719088 53.105116 
L 296.932004 51.802791 
L 296.932004 52.323721 
L 297.038462 51.933023 
L 297.14492 51.802791 
L 297.251378 52.063256 
L 297.357836 53.105116 
L 297.677211 51.28186 
L 297.783669 51.021395 
L 297.996585 50.891163 
L 298.103043 50.500465 
L 298.209501 51.021395 
L 298.422417 50.630698 
L 298.422417 52.063256 
L 298.528875 51.412093 
L 298.635333 51.672558 
L 298.741791 51.28186 
L 298.741791 50.500465 
L 298.84825 50.891163 
L 298.954708 51.672558 
L 299.167624 51.151628 
L 299.274082 51.542326 
L 299.38054 51.28186 
L 299.486998 51.412093 
L 299.593456 52.453953 
L 299.593456 52.323721 
L 299.699914 52.323721 
L 299.806372 52.584186 
L 299.91283 52.323721 
L 300.019288 52.453953 
L 300.125746 51.542326 
L 300.125746 52.193488 
L 300.445121 54.277209 
L 300.551579 53.756279 
L 300.658037 55.449302 
L 300.764495 55.970233 
L 301.190327 55.579535 
L 301.296785 54.79814 
L 301.296785 55.31907 
L 301.403243 55.31907 
L 301.616159 56.751628 
L 301.722618 56.621395 
L 301.829076 55.709767 
L 301.935534 56.491163 
L 301.935534 56.491163 
L 302.361366 54.016744 
L 302.361366 54.407442 
L 302.467824 54.146977 
L 302.574282 55.188837 
L 302.68074 54.537674 
L 302.68074 55.449302 
L 302.787198 54.537674 
L 302.893656 54.407442 
L 303.000114 54.537674 
L 303.000114 54.407442 
L 303.106573 55.188837 
L 303.745321 52.453953 
L 303.851779 52.714419 
L 303.958237 51.542326 
L 304.171153 49.849302 
L 304.277611 49.849302 
L 304.277611 49.458605 
L 304.384069 50.370233 
L 304.809902 55.188837 
L 305.022818 55.579535 
L 305.129276 55.31907 
L 305.235734 55.970233 
L 305.235734 55.84 
L 305.342192 55.579535 
L 305.44865 55.970233 
L 305.555108 55.31907 
L 305.555108 56.100465 
L 305.661566 55.709767 
L 305.874482 55.579535 
L 305.874482 54.79814 
L 305.980941 55.970233 
L 306.193857 56.100465 
L 306.193857 56.751628 
L 306.513231 56.88186 
L 306.619689 57.402791 
L 306.726147 59.356279 
L 306.939063 60.528372 
L 307.258437 57.402791 
L 307.364896 57.533023 
L 307.577812 56.88186 
L 307.897186 55.31907 
L 307.897186 55.970233 
L 308.003644 55.188837 
L 308.110102 55.709767 
L 308.21656 55.188837 
L 308.323018 57.272558 
L 308.429476 56.88186 
L 308.535934 57.793488 
L 308.642392 56.491163 
L 308.748851 57.533023 
L 308.855309 56.36093 
L 308.961767 56.621395 
L 308.961767 56.230698 
L 309.281141 56.621395 
L 309.387599 55.709767 
L 309.494057 56.100465 
L 309.706973 54.928372 
L 309.813431 56.621395 
L 309.919889 56.88186 
L 310.026347 55.84 
L 310.026347 55.84 
L 310.132805 55.970233 
L 310.345722 57.142326 
L 310.45218 56.751628 
L 310.558638 55.970233 
L 310.771554 57.402791 
L 310.98447 55.709767 
L 310.98447 56.100465 
L 311.303844 57.402791 
L 311.303844 57.012093 
L 311.410302 57.272558 
L 311.623219 55.84 
L 311.729677 56.100465 
L 312.474883 53.756279 
L 312.581341 54.667907 
L 312.900715 53.365581 
L 313.113632 54.016744 
L 313.22009 53.495814 
L 313.326548 53.756279 
L 313.433006 53.495814 
L 313.433006 53.756279 
L 313.539464 53.626047 
L 313.645922 53.105116 
L 313.75238 53.365581 
L 313.75238 53.105116 
L 313.858838 53.235349 
L 313.965296 52.844651 
L 314.178212 53.756279 
L 314.28467 53.756279 
L 314.391128 54.79814 
L 314.391128 56.230698 
L 314.710503 56.751628 
L 314.816961 56.36093 
L 314.816961 56.491163 
L 314.923419 56.751628 
L 315.136335 56.100465 
L 315.242793 56.230698 
L 315.349251 56.100465 
L 315.455709 56.491163 
L 315.775083 55.579535 
L 315.775083 56.100465 
L 315.881542 55.709767 
L 316.200916 54.146977 
L 316.413832 53.886512 
L 316.733206 53.886512 
L 316.839664 54.277209 
L 316.946122 53.756279 
L 317.05258 52.063256 
L 317.159038 52.584186 
L 317.371955 52.193488 
L 317.797787 52.974884 
L 317.797787 54.016744 
L 317.904245 53.756279 
L 318.117161 52.974884 
L 318.436535 53.626047 
L 318.542993 53.365581 
L 318.75591 52.063256 
L 318.968826 52.844651 
L 319.075284 52.453953 
L 319.2882 52.584186 
L 319.394658 52.584186 
L 319.394658 53.365581 
L 319.501116 52.844651 
L 319.82049 52.063256 
L 319.926948 50.891163 
L 320.033406 51.021395 
L 320.246323 49.458605 
L 320.565697 49.588837 
L 320.672155 49.328372 
L 320.885071 47.244651 
L 321.097987 48.286512 
L 321.204445 47.895814 
L 321.310903 48.026047 
L 321.52382 47.114419 
L 321.630278 48.026047 
L 321.736736 48.156279 
L 321.843194 48.677209 
L 322.162568 46.463256 
L 322.375484 46.853953 
L 322.481942 46.853953 
L 322.481942 47.765581 
L 322.5884 47.635349 
L 322.694858 47.505116 
L 322.907774 47.895814 
L 323.014233 49.849302 
L 323.120691 49.979535 
L 323.227149 49.849302 
L 323.865897 51.933023 
L 323.972355 51.542326 
L 324.185271 52.844651 
L 324.504646 53.235349 
L 324.611104 53.756279 
L 324.717562 53.235349 
L 324.82402 55.188837 
L 324.930478 55.31907 
L 325.036936 56.621395 
L 325.143394 56.36093 
L 325.35631 55.058605 
L 325.675684 55.84 
L 325.782143 54.667907 
L 325.888601 54.928372 
L 325.995059 55.188837 
L 326.527349 53.495814 
L 326.740265 53.105116 
L 326.846723 52.193488 
L 326.953181 52.974884 
L 327.059639 52.323721 
L 327.166097 53.626047 
L 327.166097 53.105116 
L 327.379014 52.714419 
L 327.804846 51.412093 
L 327.911304 50.76093 
L 327.911304 50.891163 
L 328.017762 52.453953 
L 328.12422 52.323721 
L 328.230678 53.495814 
L 328.443594 52.584186 
L 328.550052 53.235349 
L 328.550052 52.193488 
L 328.656511 52.844651 
L 328.762969 53.495814 
L 328.869427 53.365581 
L 329.082343 53.886512 
L 329.082343 53.756279 
L 329.188801 53.495814 
L 329.614633 54.79814 
L 329.721091 54.667907 
L 329.721091 54.277209 
L 329.827549 55.188837 
L 329.934007 53.235349 
L 330.040466 53.886512 
L 330.146924 53.626047 
L 330.35984 54.277209 
L 330.679214 52.974884 
L 330.679214 53.626047 
L 330.785672 53.495814 
L 330.89213 53.756279 
L 331.105046 50.76093 
L 331.211504 51.933023 
L 331.317962 51.802791 
L 331.42442 51.021395 
L 331.530879 52.063256 
L 331.743795 50.891163 
L 332.063169 52.193488 
L 332.169627 52.323721 
L 332.382543 51.412093 
L 332.808375 52.193488 
L 332.808375 51.542326 
L 332.914834 51.933023 
L 333.021292 51.542326 
L 333.021292 52.584186 
L 333.12775 51.542326 
L 333.340666 51.672558 
L 333.447124 51.151628 
L 333.66004 51.802791 
L 333.872956 50.891163 
L 333.872956 52.323721 
L 333.979414 51.933023 
L 334.085872 51.933023 
L 334.19233 51.542326 
L 334.298789 51.672558 
L 334.511705 51.28186 
L 334.618163 50.370233 
L 334.831079 49.979535 
L 334.937537 49.588837 
L 335.256911 50.24 
L 335.469827 48.807442 
L 335.789202 49.458605 
L 336.002118 48.677209 
L 336.108576 49.849302 
L 336.108576 49.71907 
L 336.215034 49.588837 
L 336.42795 49.849302 
L 336.534408 49.71907 
L 336.534408 49.328372 
L 336.640866 50.630698 
L 336.747324 51.151628 
L 336.853782 49.979535 
L 336.96024 50.76093 
L 337.066698 50.500465 
L 337.066698 52.193488 
L 337.173157 52.193488 
L 337.386073 52.193488 
L 337.705447 54.016744 
L 337.811905 54.016744 
L 337.811905 53.626047 
L 337.918363 54.277209 
L 338.024821 53.626047 
L 338.237737 55.449302 
L 338.237737 54.407442 
L 338.344195 54.79814 
L 338.66357 55.449302 
L 338.770028 55.31907 
L 338.982944 54.537674 
L 339.19586 54.79814 
L 339.302318 54.537674 
L 339.302318 54.537674 
L 339.515234 53.105116 
L 339.72815 53.756279 
L 339.72815 53.756279 
L 339.941066 52.584186 
L 340.047525 52.714419 
L 340.047525 53.105116 
L 340.153983 52.714419 
L 340.260441 52.714419 
L 340.366899 52.453953 
L 340.579815 51.28186 
L 340.686273 51.412093 
L 340.686273 51.412093 
L 340.899189 49.71907 
L 341.005647 50.24 
L 341.005647 50.109767 
L 341.112105 49.328372 
L 341.218563 50.109767 
L 341.43148 50.630698 
L 341.537938 50.370233 
L 341.857312 53.495814 
L 341.96377 53.235349 
L 342.176686 54.016744 
L 342.49606 54.79814 
L 342.602518 55.970233 
L 342.708976 56.230698 
L 342.815435 55.970233 
L 342.815435 55.579535 
L 342.921893 55.709767 
L 343.241267 58.705116 
L 343.241267 58.053953 
L 343.560641 59.616744 
L 343.560641 59.226047 
L 343.667099 59.356279 
L 343.773557 59.746977 
L 343.773557 58.965581 
L 343.880015 59.616744 
L 343.986473 58.965581 
L 344.199389 58.835349 
L 344.305848 58.444651 
L 344.518764 58.574884 
L 344.518764 58.444651 
L 344.625222 58.705116 
L 344.838138 58.705116 
L 344.838138 57.923721 
L 344.944596 57.923721 
L 345.157512 56.491163 
L 345.26397 56.88186 
L 345.476886 57.533023 
L 345.583344 55.579535 
L 345.689803 55.84 
L 345.902719 55.579535 
L 345.902719 54.928372 
L 346.009177 55.058605 
L 346.222093 55.84 
L 346.328551 55.84 
L 346.328551 56.36093 
L 346.435009 56.36093 
L 346.541467 55.058605 
L 346.647925 55.449302 
L 346.754383 55.31907 
L 346.754383 54.928372 
L 347.180216 54.537674 
L 347.286674 55.449302 
L 347.393132 55.058605 
L 347.49959 55.449302 
L 347.606048 54.016744 
L 347.712506 54.277209 
L 348.457712 50.891163 
L 348.457712 50.891163 
L 348.564171 52.063256 
L 348.990003 48.546977 
L 349.309377 49.328372 
L 349.522293 49.328372 
L 349.522293 48.156279 
L 349.841667 48.677209 
L 350.054584 47.765581 
L 350.161042 47.505116 
L 350.373958 48.807442 
L 350.480416 48.807442 
L 351.012706 52.323721 
L 351.119164 53.495814 
L 351.225622 52.714419 
L 351.651455 56.230698 
L 351.757913 55.84 
L 351.864371 56.230698 
L 351.970829 55.579535 
L 351.970829 55.709767 
L 352.183745 56.621395 
L 352.290203 55.579535 
L 352.609577 55.84 
L 352.716035 56.88186 
L 352.822494 56.88186 
L 353.03541 56.230698 
L 353.141868 56.621395 
L 353.248326 55.709767 
L 353.354784 56.36093 
L 353.354784 55.709767 
L 353.461242 55.84 
L 354.206449 52.844651 
L 354.525823 51.412093 
L 354.525823 51.542326 
L 354.738739 51.28186 
L 354.845197 51.802791 
L 354.951655 53.235349 
L 355.058113 53.756279 
L 355.164571 52.714419 
L 355.483945 51.802791 
L 355.590404 51.802791 
L 356.122694 48.677209 
L 356.33561 46.723721 
L 356.442068 46.984186 
L 356.548526 45.68186 
L 356.654984 45.16093 
L 356.761442 45.421395 
L 356.8679 46.202791 
L 356.974358 46.463256 
L 357.080817 47.374884 
L 357.080817 46.984186 
L 357.506649 46.333023 
L 357.719565 44.64 
L 357.719565 45.030698 
L 357.932481 46.853953 
L 358.358313 45.68186 
L 358.464772 47.244651 
L 358.57123 47.114419 
L 358.677688 47.505116 
L 358.784146 49.19814 
L 358.890604 49.328372 
L 358.997062 49.067907 
L 359.10352 49.979535 
L 359.316436 52.063256 
L 359.422894 51.933023 
L 359.63581 52.193488 
L 359.742268 53.886512 
L 359.955185 53.495814 
L 360.061643 52.974884 
L 360.168101 53.626047 
L 360.274559 53.495814 
L 360.274559 54.277209 
L 360.381017 52.844651 
L 360.593933 54.667907 
L 360.593933 55.31907 
L 360.913307 55.449302 
L 361.232681 54.016744 
L 361.33914 54.407442 
L 361.658514 56.88186 
L 361.658514 57.272558 
L 361.764972 56.36093 
L 361.87143 55.188837 
L 361.977888 56.621395 
L 362.084346 56.230698 
L 362.190804 55.709767 
L 362.40372 54.277209 
L 362.510178 54.277209 
L 362.616636 55.31907 
L 362.616636 54.407442 
L 362.723095 53.886512 
L 362.829553 54.79814 
L 362.936011 54.407442 
L 362.936011 55.449302 
L 363.042469 54.79814 
L 363.255385 53.756279 
L 363.361843 55.579535 
L 363.681217 55.188837 
L 363.681217 56.88186 
L 363.787675 56.88186 
L 364.000591 56.751628 
L 364.10705 55.31907 
L 364.319966 53.756279 
L 364.319966 53.756279 
L 364.426424 53.756279 
L 364.63934 51.412093 
L 364.63934 52.323721 
L 364.745798 52.193488 
L 364.958714 51.542326 
L 364.958714 52.193488 
L 365.065172 51.802791 
L 365.17163 50.76093 
L 365.278088 51.542326 
L 365.278088 51.412093 
L 365.384546 50.630698 
L 365.491004 51.021395 
L 365.597463 49.328372 
L 365.703921 49.849302 
L 365.810379 51.672558 
L 366.023295 49.328372 
L 366.129753 49.588837 
L 366.129753 48.677209 
L 366.555585 49.328372 
L 366.662043 50.500465 
L 366.768501 50.76093 
L 366.981418 52.323721 
L 367.087876 53.365581 
L 367.194334 53.626047 
L 367.300792 54.667907 
L 367.300792 53.235349 
L 367.40725 53.756279 
L 367.513708 54.79814 
L 367.620166 53.626047 
L 367.726624 54.016744 
L 367.833082 54.667907 
L 367.93954 54.537674 
L 367.93954 55.058605 
L 368.045998 55.058605 
L 368.152456 54.667907 
L 368.258914 55.449302 
L 368.578289 52.844651 
L 368.791205 53.495814 
L 368.791205 53.495814 
L 369.004121 53.495814 
L 369.323495 52.453953 
L 369.429953 53.105116 
L 369.536411 52.584186 
L 369.642869 50.630698 
L 369.855786 49.71907 
L 369.962244 49.458605 
L 369.962244 50.630698 
L 370.068702 49.849302 
L 370.17516 49.979535 
L 370.281618 50.891163 
L 370.281618 50.109767 
L 370.388076 50.24 
L 370.494534 49.849302 
L 370.600992 49.979535 
L 370.813908 50.76093 
L 370.920366 49.71907 
L 371.026824 49.71907 
L 371.133282 50.500465 
L 371.239741 50.370233 
L 371.452657 49.979535 
L 371.559115 49.328372 
L 371.665573 48.807442 
L 372.091405 50.109767 
L 372.197863 50.24 
L 372.410779 51.933023 
L 372.730154 50.370233 
L 372.730154 50.891163 
L 372.836612 50.500465 
L 372.94307 49.979535 
L 373.049528 51.672558 
L 373.155986 51.542326 
L 373.262444 51.802791 
L 373.368902 50.891163 
L 373.368902 51.412093 
L 373.581818 54.667907 
L 373.581818 54.667907 
" clip-path="url(#pa8db749b61)" style="fill: none; stroke: #1f77b4; stroke-width: 1.5; stroke-linecap: square"/>
   </g>
   <g id="line2d_30">
    <path d="M 92.213126 185.291163 
L 94.981036 168.88186 
L 97.642488 154.816744 
L 100.410398 139.970233 
L 103.178308 125.123721 
L 105.946218 113.988837 
L 108.60767 104.612093 
L 111.37558 96.212093 
L 114.037031 88.984186 
L 116.804941 84.491163 
L 119.572851 83.31907 
L 122.340761 82.146977 
L 125.002213 79.216744 
L 127.770123 75.505116 
L 130.538033 75.114419 
L 133.199485 73.942326 
L 135.967395 72.574884 
L 138.628847 72.574884 
L 141.396757 71.793488 
L 144.164667 69.84 
L 146.826118 66.51907 
L 149.594028 64.370233 
L 152.361938 63.002791 
L 155.02339 62.416744 
L 157.684842 59.68186 
L 160.452752 58.11907 
L 163.114204 57.923721 
L 165.882114 58.11907 
L 168.650024 57.728372 
L 171.417934 58.509767 
L 174.079386 56.751628 
L 176.847296 57.142326 
L 179.508747 55.579535 
L 182.276657 55.774884 
L 184.938109 56.751628 
L 187.706019 57.142326 
L 190.473929 56.165581 
L 193.241839 54.407442 
L 196.009749 54.993488 
L 198.671201 52.844651 
L 201.439111 53.430698 
L 204.207021 51.672558 
L 207.081389 54.407442 
L 209.955757 55.384186 
L 212.723667 55.384186 
L 215.598035 54.993488 
L 218.472403 55.384186 
L 221.240313 54.016744 
L 224.114681 53.235349 
L 226.989049 54.602791 
L 229.863417 55.579535 
L 232.737785 56.556279 
L 235.399237 55.774884 
L 238.273605 55.579535 
L 241.147973 54.79814 
L 244.022341 55.970233 
L 246.790251 57.142326 
L 249.664619 56.36093 
L 252.432529 56.946977 
L 255.306897 56.556279 
L 258.074807 56.36093 
L 260.949175 55.774884 
L 263.930001 54.993488 
L 267.017285 54.407442 
L 269.891653 57.337674 
L 272.766021 54.79814 
L 275.533931 53.821395 
L 278.301841 55.188837 
L 281.176209 54.212093 
L 283.944119 55.579535 
L 286.818487 54.79814 
L 289.586397 54.993488 
L 292.460765 53.430698 
L 295.228675 52.844651 
L 297.890127 51.086512 
L 300.870953 52.258605 
L 303.638863 52.649302 
L 306.406773 53.821395 
L 309.174683 56.36093 
L 311.836135 55.188837 
L 314.604045 55.774884 
L 317.265497 56.946977 
L 320.459239 59.486512 
L 323.440065 59.486512 
L 326.420891 58.900465 
L 329.401717 59.68186 
L 332.595459 58.509767 
L 335.576285 57.923721 
L 338.557112 56.751628 
L 341.325021 57.337674 
L 344.092931 57.142326 
L 346.967299 55.579535 
L 349.735209 53.235349 
L 352.503119 52.649302 
L 355.271029 51.867907 
L 358.038939 50.500465 
L 360.806849 50.109767 
L 363.574759 50.500465 
L 366.342669 50.891163 
L 369.110579 50.305116 
L 371.984947 49.71907 
" clip-path="url(#pa8db749b61)" style="fill: none; stroke: #ff7f0e; stroke-width: 1.5; stroke-linecap: square"/>
   </g>
   <g id="patch_3">
    <path d="M 54 256.32 
L 54 34.56 
" style="fill: none; stroke: #000000; stroke-width: 0.8; stroke-linejoin: miter; stroke-linecap: square"/>
   </g>
   <g id="patch_4">
    <path d="M 388.8 256.32 
L 388.8 34.56 
" style="fill: none; stroke: #000000; stroke-width: 0.8; stroke-linejoin: miter; stroke-linecap: square"/>
   </g>
   <g id="patch_5">
    <path d="M 54 256.32 
L 388.8 256.32 
" style="fill: none; stroke: #000000; stroke-width: 0.8; stroke-linejoin: miter; stroke-linecap: square"/>
   </g>
   <g id="patch_6">
    <path d="M 54 34.56 
L 388.8 34.56 
" style="fill: none; stroke: #000000; stroke-width: 0.8; stroke-linejoin: miter; stroke-linecap: square"/>
   </g>
   <g id="text_17">
    <!-- Percentage of letters classified correctly -->
    <g transform="translate(100.829063 28.56)scale(0.12 -0.12)">
     <defs>
      <path id="DejaVuSans-50" d="M 1259 4147 
L 1259 2394 
L 2053 2394 
Q 2494 2394 2734 2622 
Q 2975 2850 2975 3272 
Q 2975 3691 2734 3919 
Q 2494 4147 2053 4147 
L 1259 4147 
z
M 628 4666 
L 2053 4666 
Q 2838 4666 3239 4311 
Q 3641 3956 3641 3272 
Q 3641 2581 3239 2228 
Q 2838 1875 2053 1875 
L 1259 1875 
L 1259 0 
L 628 0 
L 628 4666 
z
" transform="scale(0.015625)"/>
      <path id="DejaVuSans-72" d="M 2631 2963 
Q 2534 3019 2420 3045 
Q 2306 3072 2169 3072 
Q 1681 3072 1420 2755 
Q 1159 2438 1159 1844 
L 1159 0 
L 581 0 
L 581 3500 
L 1159 3500 
L 1159 2956 
Q 1341 3275 1631 3429 
Q 1922 3584 2338 3584 
Q 2397 3584 2469 3576 
Q 2541 3569 2628 3553 
L 2631 2963 
z
" transform="scale(0.015625)"/>
      <path id="DejaVuSans-63" d="M 3122 3366 
L 3122 2828 
Q 2878 2963 2633 3030 
Q 2388 3097 2138 3097 
Q 1578 3097 1268 2742 
Q 959 2388 959 1747 
Q 959 1106 1268 751 
Q 1578 397 2138 397 
Q 2388 397 2633 464 
Q 2878 531 3122 666 
L 3122 134 
Q 2881 22 2623 -34 
Q 2366 -91 2075 -91 
Q 1284 -91 818 406 
Q 353 903 353 1747 
Q 353 2603 823 3093 
Q 1294 3584 2113 3584 
Q 2378 3584 2631 3529 
Q 2884 3475 3122 3366 
z
" transform="scale(0.015625)"/>
      <path id="DejaVuSans-61" d="M 2194 1759 
Q 1497 1759 1228 1600 
Q 959 1441 959 1056 
Q 959 750 1161 570 
Q 1363 391 1709 391 
Q 2188 391 2477 730 
Q 2766 1069 2766 1631 
L 2766 1759 
L 2194 1759 
z
M 3341 1997 
L 3341 0 
L 2766 0 
L 2766 531 
Q 2569 213 2275 61 
Q 1981 -91 1556 -91 
Q 1019 -91 701 211 
Q 384 513 384 1019 
Q 384 1609 779 1909 
Q 1175 2209 1959 2209 
L 2766 2209 
L 2766 2266 
Q 2766 2663 2505 2880 
Q 2244 3097 1772 3097 
Q 1472 3097 1187 3025 
Q 903 2953 641 2809 
L 641 3341 
Q 956 3463 1253 3523 
Q 1550 3584 1831 3584 
Q 2591 3584 2966 3190 
Q 3341 2797 3341 1997 
z
" transform="scale(0.015625)"/>
      <path id="DejaVuSans-67" d="M 2906 1791 
Q 2906 2416 2648 2759 
Q 2391 3103 1925 3103 
Q 1463 3103 1205 2759 
Q 947 2416 947 1791 
Q 947 1169 1205 825 
Q 1463 481 1925 481 
Q 2391 481 2648 825 
Q 2906 1169 2906 1791 
z
M 3481 434 
Q 3481 -459 3084 -895 
Q 2688 -1331 1869 -1331 
Q 1566 -1331 1297 -1286 
Q 1028 -1241 775 -1147 
L 775 -588 
Q 1028 -725 1275 -790 
Q 1522 -856 1778 -856 
Q 2344 -856 2625 -561 
Q 2906 -266 2906 331 
L 2906 616 
Q 2728 306 2450 153 
Q 2172 0 1784 0 
Q 1141 0 747 490 
Q 353 981 353 1791 
Q 353 2603 747 3093 
Q 1141 3584 1784 3584 
Q 2172 3584 2450 3431 
Q 2728 3278 2906 2969 
L 2906 3500 
L 3481 3500 
L 3481 434 
z
" transform="scale(0.015625)"/>
      <path id="DejaVuSans-20" transform="scale(0.015625)"/>
      <path id="DejaVuSans-6f" d="M 1959 3097 
Q 1497 3097 1228 2736 
Q 959 2375 959 1747 
Q 959 1119 1226 758 
Q 1494 397 1959 397 
Q 2419 397 2687 759 
Q 2956 1122 2956 1747 
Q 2956 2369 2687 2733 
Q 2419 3097 1959 3097 
z
M 1959 3584 
Q 2709 3584 3137 3096 
Q 3566 2609 3566 1747 
Q 3566 888 3137 398 
Q 2709 -91 1959 -91 
Q 1206 -91 779 398 
Q 353 888 353 1747 
Q 353 2609 779 3096 
Q 1206 3584 1959 3584 
z
" transform="scale(0.015625)"/>
      <path id="DejaVuSans-66" d="M 2375 4863 
L 2375 4384 
L 1825 4384 
Q 1516 4384 1395 4259 
Q 1275 4134 1275 3809 
L 1275 3500 
L 2222 3500 
L 2222 3053 
L 1275 3053 
L 1275 0 
L 697 0 
L 697 3053 
L 147 3053 
L 147 3500 
L 697 3500 
L 697 3744 
Q 697 4328 969 4595 
Q 1241 4863 1831 4863 
L 2375 4863 
z
" transform="scale(0.015625)"/>
      <path id="DejaVuSans-6c" d="M 603 4863 
L 1178 4863 
L 1178 0 
L 603 0 
L 603 4863 
z
" transform="scale(0.015625)"/>
      <path id="DejaVuSans-64" d="M 2906 2969 
L 2906 4863 
L 3481 4863 
L 3481 0 
L 2906 0 
L 2906 525 
Q 2725 213 2448 61 
Q 2172 -91 1784 -91 
Q 1150 -91 751 415 
Q 353 922 353 1747 
Q 353 2572 751 3078 
Q 1150 3584 1784 3584 
Q 2172 3584 2448 3432 
Q 2725 3281 2906 2969 
z
M 947 1747 
Q 947 1113 1208 752 
Q 1469 391 1925 391 
Q 2381 391 2643 752 
Q 2906 1113 2906 1747 
Q 2906 2381 2643 2742 
Q 2381 3103 1925 3103 
Q 1469 3103 1208 2742 
Q 947 2381 947 1747 
z
" transform="scale(0.015625)"/>
      <path id="DejaVuSans-79" d="M 2059 -325 
Q 1816 -950 1584 -1140 
Q 1353 -1331 966 -1331 
L 506 -1331 
L 506 -850 
L 844 -850 
Q 1081 -850 1212 -737 
Q 1344 -625 1503 -206 
L 1606 56 
L 191 3500 
L 800 3500 
L 1894 763 
L 2988 3500 
L 3597 3500 
L 2059 -325 
z
" transform="scale(0.015625)"/>
     </defs>
     <use xlink:href="#DejaVuSans-50"/>
     <use xlink:href="#DejaVuSans-65" x="56.677734"/>
     <use xlink:href="#DejaVuSans-72" x="118.201172"/>
     <use xlink:href="#DejaVuSans-63" x="157.064453"/>
     <use xlink:href="#DejaVuSans-65" x="212.044922"/>
     <use xlink:href="#DejaVuSans-6e" x="273.568359"/>
     <use xlink:href="#DejaVuSans-74" x="336.947266"/>
     <use xlink:href="#DejaVuSans-61" x="376.15625"/>
     <use xlink:href="#DejaVuSans-67" x="437.435547"/>
     <use xlink:href="#DejaVuSans-65" x="500.912109"/>
     <use xlink:href="#DejaVuSans-20" x="562.435547"/>
     <use xlink:href="#DejaVuSans-6f" x="594.222656"/>
     <use xlink:href="#DejaVuSans-66" x="655.404297"/>
     <use xlink:href="#DejaVuSans-20" x="690.609375"/>
     <use xlink:href="#DejaVuSans-6c" x="722.396484"/>
     <use xlink:href="#DejaVuSans-65" x="750.179688"/>
     <use xlink:href="#DejaVuSans-74" x="811.703125"/>
     <use xlink:href="#DejaVuSans-74" x="850.912109"/>
     <use xlink:href="#DejaVuSans-65" x="890.121094"/>
     <use xlink:href="#DejaVuSans-72" x="951.644531"/>
     <use xlink:href="#DejaVuSans-73" x="992.757812"/>
     <use xlink:href="#DejaVuSans-20" x="1044.857422"/>
     <use xlink:href="#DejaVuSans-63" x="1076.644531"/>
     <use xlink:href="#DejaVuSans-6c" x="1131.625"/>
     <use xlink:href="#DejaVuSans-61" x="1159.408203"/>
     <use xlink:href="#DejaVuSans-73" x="1220.6875"/>
     <use xlink:href="#DejaVuSans-73" x="1272.787109"/>
     <use xlink:href="#DejaVuSans-69" x="1324.886719"/>
     <use xlink:href="#DejaVuSans-66" x="1352.669922"/>
     <use xlink:href="#DejaVuSans-69" x="1387.875"/>
     <use xlink:href="#DejaVuSans-65" x="1415.658203"/>
     <use xlink:href="#DejaVuSans-64" x="1477.181641"/>
     <use xlink:href="#DejaVuSans-20" x="1540.658203"/>
     <use xlink:href="#DejaVuSans-63" x="1572.445312"/>
     <use xlink:href="#DejaVuSans-6f" x="1627.425781"/>
     <use xlink:href="#DejaVuSans-72" x="1688.607422"/>
     <use xlink:href="#DejaVuSans-72" x="1727.970703"/>
     <use xlink:href="#DejaVuSans-65" x="1766.833984"/>
     <use xlink:href="#DejaVuSans-63" x="1828.357422"/>
     <use xlink:href="#DejaVuSans-74" x="1883.337891"/>
     <use xlink:href="#DejaVuSans-6c" x="1922.546875"/>
     <use xlink:href="#DejaVuSans-79" x="1950.330078"/>
    </g>
   </g>
   <g id="legend_1">
    <g id="patch_7">
     <path d="M 300.565625 251.32 
L 381.8 251.32 
Q 383.8 251.32 383.8 249.32 
L 383.8 220.96375 
Q 383.8 218.96375 381.8 218.96375 
L 300.565625 218.96375 
Q 298.565625 218.96375 298.565625 220.96375 
L 298.565625 249.32 
Q 298.565625 251.32 300.565625 251.32 
z
" style="fill: #ffffff; opacity: 0.8; stroke: #cccccc; stroke-linejoin: miter"/>
    </g>
    <g id="line2d_31">
     <path d="M 302.565625 227.062187 
L 312.565625 227.062187 
L 322.565625 227.062187 
" style="fill: none; stroke: #1f77b4; stroke-width: 1.5; stroke-linecap: square"/>
    </g>
    <g id="text_18">
     <!-- training -->
     <g transform="translate(330.565625 230.562187)scale(0.1 -0.1)">
      <use xlink:href="#DejaVuSans-74"/>
      <use xlink:href="#DejaVuSans-72" x="39.208984"/>
      <use xlink:href="#DejaVuSans-61" x="80.322266"/>
      <use xlink:href="#DejaVuSans-69" x="141.601562"/>
      <use xlink:href="#DejaVuSans-6e" x="169.384766"/>
      <use xlink:href="#DejaVuSans-69" x="232.763672"/>
      <use xlink:href="#DejaVuSans-6e" x="260.546875"/>
      <use xlink:href="#DejaVuSans-67" x="323.925781"/>
     </g>
    </g>
    <g id="line2d_32">
     <path d="M 302.565625 241.740313 
L 312.565625 241.740313 
L 322.565625 241.740313 
" style="fill: none; stroke: #ff7f0e; stroke-width: 1.5; stroke-linecap: square"/>
    </g>
    <g id="text_19">
     <!-- validation -->
     <g transform="translate(330.565625 245.240313)scale(0.1 -0.1)">
      <defs>
       <path id="DejaVuSans-76" d="M 191 3500 
L 800 3500 
L 1894 563 
L 2988 3500 
L 3597 3500 
L 2284 0 
L 1503 0 
L 191 3500 
z
" transform="scale(0.015625)"/>
      </defs>
      <use xlink:href="#DejaVuSans-76"/>
      <use xlink:href="#DejaVuSans-61" x="59.179688"/>
      <use xlink:href="#DejaVuSans-6c" x="120.458984"/>
      <use xlink:href="#DejaVuSans-69" x="148.242188"/>
      <use xlink:href="#DejaVuSans-64" x="176.025391"/>
      <use xlink:href="#DejaVuSans-61" x="239.501953"/>
      <use xlink:href="#DejaVuSans-74" x="300.78125"/>
      <use xlink:href="#DejaVuSans-69" x="339.990234"/>
      <use xlink:href="#DejaVuSans-6f" x="367.773438"/>
      <use xlink:href="#DejaVuSans-6e" x="428.955078"/>
     </g>
    </g>
   </g>
  </g>
 </g>
 <defs>
  <clipPath id="pa8db749b61">
   <rect x="54" y="34.56" width="334.8" height="221.76"/>
  </clipPath>
 </defs>
</svg>
