<?xml version="1.0" encoding="utf-8" standalone="no"?>
<!DOCTYPE svg PUBLIC "-//W3C//DTD SVG 1.1//EN"
  "http://www.w3.org/Graphics/SVG/1.1/DTD/svg11.dtd">
<svg xmlns:xlink="http://www.w3.org/1999/xlink" width="432pt" height="288pt" viewBox="0 0 432 288" xmlns="http://www.w3.org/2000/svg" version="1.1">
 <metadata>
  <rdf:RDF xmlns:dc="http://purl.org/dc/elements/1.1/" xmlns:cc="http://creativecommons.org/ns#" xmlns:rdf="http://www.w3.org/1999/02/22-rdf-syntax-ns#">
   <cc:Work>
    <dc:type rdf:resource="http://purl.org/dc/dcmitype/StillImage"/>
    <dc:date>2023-03-14T23:34:18.299881</dc:date>
    <dc:format>image/svg+xml</dc:format>
    <dc:creator>
     <cc:Agent>
      <dc:title>Matplotlib v3.5.1, https://matplotlib.org/</dc:title>
     </cc:Agent>
    </dc:creator>
   </cc:Work>
  </rdf:RDF>
 </metadata>
 <defs>
  <style type="text/css">*{stroke-linejoin: round; stroke-linecap: butt}</style>
 </defs>
 <g id="figure_1">
  <g id="patch_1">
   <path d="M 0 288 
L 432 288 
L 432 0 
L 0 0 
z
" style="fill: #ffffff"/>
  </g>
  <g id="axes_1">
   <g id="patch_2">
    <path d="M 54 256.32 
L 388.8 256.32 
L 388.8 34.56 
L 54 34.56 
z
" style="fill: #ffffff"/>
   </g>
   <g id="matplotlib.axis_1">
    <g id="xtick_1">
     <g id="line2d_1">
      <path d="M 66.309614 256.32 
L 66.309614 34.56 
" clip-path="url(#pa4f6902cbf)" style="fill: none; stroke: #b0b0b0; stroke-width: 0.8; stroke-linecap: square"/>
     </g>
     <g id="line2d_2">
      <defs>
       <path id="me2be53cc5d" d="M 0 0 
L 0 3.5 
" style="stroke: #000000; stroke-width: 0.8"/>
      </defs>
      <g>
       <use xlink:href="#me2be53cc5d" x="66.309614" y="256.32" style="stroke: #000000; stroke-width: 0.8"/>
      </g>
     </g>
     <g id="text_1">
      <!-- 0.0 -->
      <g transform="translate(58.358051 270.918437)scale(0.1 -0.1)">
       <defs>
        <path id="DejaVuSans-30" d="M 2034 4250 
Q 1547 4250 1301 3770 
Q 1056 3291 1056 2328 
Q 1056 1369 1301 889 
Q 1547 409 2034 409 
Q 2525 409 2770 889 
Q 3016 1369 3016 2328 
Q 3016 3291 2770 3770 
Q 2525 4250 2034 4250 
z
M 2034 4750 
Q 2819 4750 3233 4129 
Q 3647 3509 3647 2328 
Q 3647 1150 3233 529 
Q 2819 -91 2034 -91 
Q 1250 -91 836 529 
Q 422 1150 422 2328 
Q 422 3509 836 4129 
Q 1250 4750 2034 4750 
z
" transform="scale(0.015625)"/>
        <path id="DejaVuSans-2e" d="M 684 794 
L 1344 794 
L 1344 0 
L 684 0 
L 684 794 
z
" transform="scale(0.015625)"/>
       </defs>
       <use xlink:href="#DejaVuSans-30"/>
       <use xlink:href="#DejaVuSans-2e" x="63.623047"/>
       <use xlink:href="#DejaVuSans-30" x="95.410156"/>
      </g>
     </g>
    </g>
    <g id="xtick_2">
     <g id="line2d_3">
      <path d="M 119.047022 256.32 
L 119.047022 34.56 
" clip-path="url(#pa4f6902cbf)" style="fill: none; stroke: #b0b0b0; stroke-width: 0.8; stroke-linecap: square"/>
     </g>
     <g id="line2d_4">
      <g>
       <use xlink:href="#me2be53cc5d" x="119.047022" y="256.32" style="stroke: #000000; stroke-width: 0.8"/>
      </g>
     </g>
     <g id="text_2">
      <!-- 0.5 -->
      <g transform="translate(111.09546 270.918437)scale(0.1 -0.1)">
       <defs>
        <path id="DejaVuSans-35" d="M 691 4666 
L 3169 4666 
L 3169 4134 
L 1269 4134 
L 1269 2991 
Q 1406 3038 1543 3061 
Q 1681 3084 1819 3084 
Q 2600 3084 3056 2656 
Q 3513 2228 3513 1497 
Q 3513 744 3044 326 
Q 2575 -91 1722 -91 
Q 1428 -91 1123 -41 
Q 819 9 494 109 
L 494 744 
Q 775 591 1075 516 
Q 1375 441 1709 441 
Q 2250 441 2565 725 
Q 2881 1009 2881 1497 
Q 2881 1984 2565 2268 
Q 2250 2553 1709 2553 
Q 1456 2553 1204 2497 
Q 953 2441 691 2322 
L 691 4666 
z
" transform="scale(0.015625)"/>
       </defs>
       <use xlink:href="#DejaVuSans-30"/>
       <use xlink:href="#DejaVuSans-2e" x="63.623047"/>
       <use xlink:href="#DejaVuSans-35" x="95.410156"/>
      </g>
     </g>
    </g>
    <g id="xtick_3">
     <g id="line2d_5">
      <path d="M 171.784431 256.32 
L 171.784431 34.56 
" clip-path="url(#pa4f6902cbf)" style="fill: none; stroke: #b0b0b0; stroke-width: 0.8; stroke-linecap: square"/>
     </g>
     <g id="line2d_6">
      <g>
       <use xlink:href="#me2be53cc5d" x="171.784431" y="256.32" style="stroke: #000000; stroke-width: 0.8"/>
      </g>
     </g>
     <g id="text_3">
      <!-- 1.0 -->
      <g transform="translate(163.832869 270.918437)scale(0.1 -0.1)">
       <defs>
        <path id="DejaVuSans-31" d="M 794 531 
L 1825 531 
L 1825 4091 
L 703 3866 
L 703 4441 
L 1819 4666 
L 2450 4666 
L 2450 531 
L 3481 531 
L 3481 0 
L 794 0 
L 794 531 
z
" transform="scale(0.015625)"/>
       </defs>
       <use xlink:href="#DejaVuSans-31"/>
       <use xlink:href="#DejaVuSans-2e" x="63.623047"/>
       <use xlink:href="#DejaVuSans-30" x="95.410156"/>
      </g>
     </g>
    </g>
    <g id="xtick_4">
     <g id="line2d_7">
      <path d="M 224.52184 256.32 
L 224.52184 34.56 
" clip-path="url(#pa4f6902cbf)" style="fill: none; stroke: #b0b0b0; stroke-width: 0.8; stroke-linecap: square"/>
     </g>
     <g id="line2d_8">
      <g>
       <use xlink:href="#me2be53cc5d" x="224.52184" y="256.32" style="stroke: #000000; stroke-width: 0.8"/>
      </g>
     </g>
     <g id="text_4">
      <!-- 1.5 -->
      <g transform="translate(216.570278 270.918437)scale(0.1 -0.1)">
       <use xlink:href="#DejaVuSans-31"/>
       <use xlink:href="#DejaVuSans-2e" x="63.623047"/>
       <use xlink:href="#DejaVuSans-35" x="95.410156"/>
      </g>
     </g>
    </g>
    <g id="xtick_5">
     <g id="line2d_9">
      <path d="M 277.259249 256.32 
L 277.259249 34.56 
" clip-path="url(#pa4f6902cbf)" style="fill: none; stroke: #b0b0b0; stroke-width: 0.8; stroke-linecap: square"/>
     </g>
     <g id="line2d_10">
      <g>
       <use xlink:href="#me2be53cc5d" x="277.259249" y="256.32" style="stroke: #000000; stroke-width: 0.8"/>
      </g>
     </g>
     <g id="text_5">
      <!-- 2.0 -->
      <g transform="translate(269.307687 270.918437)scale(0.1 -0.1)">
       <defs>
        <path id="DejaVuSans-32" d="M 1228 531 
L 3431 531 
L 3431 0 
L 469 0 
L 469 531 
Q 828 903 1448 1529 
Q 2069 2156 2228 2338 
Q 2531 2678 2651 2914 
Q 2772 3150 2772 3378 
Q 2772 3750 2511 3984 
Q 2250 4219 1831 4219 
Q 1534 4219 1204 4116 
Q 875 4013 500 3803 
L 500 4441 
Q 881 4594 1212 4672 
Q 1544 4750 1819 4750 
Q 2544 4750 2975 4387 
Q 3406 4025 3406 3419 
Q 3406 3131 3298 2873 
Q 3191 2616 2906 2266 
Q 2828 2175 2409 1742 
Q 1991 1309 1228 531 
z
" transform="scale(0.015625)"/>
       </defs>
       <use xlink:href="#DejaVuSans-32"/>
       <use xlink:href="#DejaVuSans-2e" x="63.623047"/>
       <use xlink:href="#DejaVuSans-30" x="95.410156"/>
      </g>
     </g>
    </g>
    <g id="xtick_6">
     <g id="line2d_11">
      <path d="M 329.996658 256.32 
L 329.996658 34.56 
" clip-path="url(#pa4f6902cbf)" style="fill: none; stroke: #b0b0b0; stroke-width: 0.8; stroke-linecap: square"/>
     </g>
     <g id="line2d_12">
      <g>
       <use xlink:href="#me2be53cc5d" x="329.996658" y="256.32" style="stroke: #000000; stroke-width: 0.8"/>
      </g>
     </g>
     <g id="text_6">
      <!-- 2.5 -->
      <g transform="translate(322.045095 270.918437)scale(0.1 -0.1)">
       <use xlink:href="#DejaVuSans-32"/>
       <use xlink:href="#DejaVuSans-2e" x="63.623047"/>
       <use xlink:href="#DejaVuSans-35" x="95.410156"/>
      </g>
     </g>
    </g>
    <g id="xtick_7">
     <g id="line2d_13">
      <path d="M 382.734067 256.32 
L 382.734067 34.56 
" clip-path="url(#pa4f6902cbf)" style="fill: none; stroke: #b0b0b0; stroke-width: 0.8; stroke-linecap: square"/>
     </g>
     <g id="line2d_14">
      <g>
       <use xlink:href="#me2be53cc5d" x="382.734067" y="256.32" style="stroke: #000000; stroke-width: 0.8"/>
      </g>
     </g>
     <g id="text_7">
      <!-- 3.0 -->
      <g transform="translate(374.782504 270.918437)scale(0.1 -0.1)">
       <defs>
        <path id="DejaVuSans-33" d="M 2597 2516 
Q 3050 2419 3304 2112 
Q 3559 1806 3559 1356 
Q 3559 666 3084 287 
Q 2609 -91 1734 -91 
Q 1441 -91 1130 -33 
Q 819 25 488 141 
L 488 750 
Q 750 597 1062 519 
Q 1375 441 1716 441 
Q 2309 441 2620 675 
Q 2931 909 2931 1356 
Q 2931 1769 2642 2001 
Q 2353 2234 1838 2234 
L 1294 2234 
L 1294 2753 
L 1863 2753 
Q 2328 2753 2575 2939 
Q 2822 3125 2822 3475 
Q 2822 3834 2567 4026 
Q 2313 4219 1838 4219 
Q 1578 4219 1281 4162 
Q 984 4106 628 3988 
L 628 4550 
Q 988 4650 1302 4700 
Q 1616 4750 1894 4750 
Q 2613 4750 3031 4423 
Q 3450 4097 3450 3541 
Q 3450 3153 3228 2886 
Q 3006 2619 2597 2516 
z
" transform="scale(0.015625)"/>
       </defs>
       <use xlink:href="#DejaVuSans-33"/>
       <use xlink:href="#DejaVuSans-2e" x="63.623047"/>
       <use xlink:href="#DejaVuSans-30" x="95.410156"/>
      </g>
     </g>
    </g>
    <g id="text_8">
     <!-- CPU Hours -->
     <g transform="translate(194.996875 284.596563)scale(0.1 -0.1)">
      <defs>
       <path id="DejaVuSans-43" d="M 4122 4306 
L 4122 3641 
Q 3803 3938 3442 4084 
Q 3081 4231 2675 4231 
Q 1875 4231 1450 3742 
Q 1025 3253 1025 2328 
Q 1025 1406 1450 917 
Q 1875 428 2675 428 
Q 3081 428 3442 575 
Q 3803 722 4122 1019 
L 4122 359 
Q 3791 134 3420 21 
Q 3050 -91 2638 -91 
Q 1578 -91 968 557 
Q 359 1206 359 2328 
Q 359 3453 968 4101 
Q 1578 4750 2638 4750 
Q 3056 4750 3426 4639 
Q 3797 4528 4122 4306 
z
" transform="scale(0.015625)"/>
       <path id="DejaVuSans-50" d="M 1259 4147 
L 1259 2394 
L 2053 2394 
Q 2494 2394 2734 2622 
Q 2975 2850 2975 3272 
Q 2975 3691 2734 3919 
Q 2494 4147 2053 4147 
L 1259 4147 
z
M 628 4666 
L 2053 4666 
Q 2838 4666 3239 4311 
Q 3641 3956 3641 3272 
Q 3641 2581 3239 2228 
Q 2838 1875 2053 1875 
L 1259 1875 
L 1259 0 
L 628 0 
L 628 4666 
z
" transform="scale(0.015625)"/>
       <path id="DejaVuSans-55" d="M 556 4666 
L 1191 4666 
L 1191 1831 
Q 1191 1081 1462 751 
Q 1734 422 2344 422 
Q 2950 422 3222 751 
Q 3494 1081 3494 1831 
L 3494 4666 
L 4128 4666 
L 4128 1753 
Q 4128 841 3676 375 
Q 3225 -91 2344 -91 
Q 1459 -91 1007 375 
Q 556 841 556 1753 
L 556 4666 
z
" transform="scale(0.015625)"/>
       <path id="DejaVuSans-20" transform="scale(0.015625)"/>
       <path id="DejaVuSans-48" d="M 628 4666 
L 1259 4666 
L 1259 2753 
L 3553 2753 
L 3553 4666 
L 4184 4666 
L 4184 0 
L 3553 0 
L 3553 2222 
L 1259 2222 
L 1259 0 
L 628 0 
L 628 4666 
z
" transform="scale(0.015625)"/>
       <path id="DejaVuSans-6f" d="M 1959 3097 
Q 1497 3097 1228 2736 
Q 959 2375 959 1747 
Q 959 1119 1226 758 
Q 1494 397 1959 397 
Q 2419 397 2687 759 
Q 2956 1122 2956 1747 
Q 2956 2369 2687 2733 
Q 2419 3097 1959 3097 
z
M 1959 3584 
Q 2709 3584 3137 3096 
Q 3566 2609 3566 1747 
Q 3566 888 3137 398 
Q 2709 -91 1959 -91 
Q 1206 -91 779 398 
Q 353 888 353 1747 
Q 353 2609 779 3096 
Q 1206 3584 1959 3584 
z
" transform="scale(0.015625)"/>
       <path id="DejaVuSans-75" d="M 544 1381 
L 544 3500 
L 1119 3500 
L 1119 1403 
Q 1119 906 1312 657 
Q 1506 409 1894 409 
Q 2359 409 2629 706 
Q 2900 1003 2900 1516 
L 2900 3500 
L 3475 3500 
L 3475 0 
L 2900 0 
L 2900 538 
Q 2691 219 2414 64 
Q 2138 -91 1772 -91 
Q 1169 -91 856 284 
Q 544 659 544 1381 
z
M 1991 3584 
L 1991 3584 
z
" transform="scale(0.015625)"/>
       <path id="DejaVuSans-72" d="M 2631 2963 
Q 2534 3019 2420 3045 
Q 2306 3072 2169 3072 
Q 1681 3072 1420 2755 
Q 1159 2438 1159 1844 
L 1159 0 
L 581 0 
L 581 3500 
L 1159 3500 
L 1159 2956 
Q 1341 3275 1631 3429 
Q 1922 3584 2338 3584 
Q 2397 3584 2469 3576 
Q 2541 3569 2628 3553 
L 2631 2963 
z
" transform="scale(0.015625)"/>
       <path id="DejaVuSans-73" d="M 2834 3397 
L 2834 2853 
Q 2591 2978 2328 3040 
Q 2066 3103 1784 3103 
Q 1356 3103 1142 2972 
Q 928 2841 928 2578 
Q 928 2378 1081 2264 
Q 1234 2150 1697 2047 
L 1894 2003 
Q 2506 1872 2764 1633 
Q 3022 1394 3022 966 
Q 3022 478 2636 193 
Q 2250 -91 1575 -91 
Q 1294 -91 989 -36 
Q 684 19 347 128 
L 347 722 
Q 666 556 975 473 
Q 1284 391 1588 391 
Q 1994 391 2212 530 
Q 2431 669 2431 922 
Q 2431 1156 2273 1281 
Q 2116 1406 1581 1522 
L 1381 1569 
Q 847 1681 609 1914 
Q 372 2147 372 2553 
Q 372 3047 722 3315 
Q 1072 3584 1716 3584 
Q 2034 3584 2315 3537 
Q 2597 3491 2834 3397 
z
" transform="scale(0.015625)"/>
      </defs>
      <use xlink:href="#DejaVuSans-43"/>
      <use xlink:href="#DejaVuSans-50" x="69.824219"/>
      <use xlink:href="#DejaVuSans-55" x="130.126953"/>
      <use xlink:href="#DejaVuSans-20" x="203.320312"/>
      <use xlink:href="#DejaVuSans-48" x="235.107422"/>
      <use xlink:href="#DejaVuSans-6f" x="310.302734"/>
      <use xlink:href="#DejaVuSans-75" x="371.484375"/>
      <use xlink:href="#DejaVuSans-72" x="434.863281"/>
      <use xlink:href="#DejaVuSans-73" x="475.976562"/>
     </g>
    </g>
   </g>
   <g id="matplotlib.axis_2">
    <g id="ytick_1">
     <g id="line2d_15">
      <path d="M 54 231.784186 
L 388.8 231.784186 
" clip-path="url(#pa4f6902cbf)" style="fill: none; stroke: #b0b0b0; stroke-width: 0.8; stroke-linecap: square"/>
     </g>
     <g id="line2d_16">
      <defs>
       <path id="m403df5978c" d="M 0 0 
L -3.5 0 
" style="stroke: #000000; stroke-width: 0.8"/>
      </defs>
      <g>
       <use xlink:href="#m403df5978c" x="54" y="231.784186" style="stroke: #000000; stroke-width: 0.8"/>
      </g>
     </g>
     <g id="text_9">
      <!-- 10 -->
      <g transform="translate(34.275 235.583405)scale(0.1 -0.1)">
       <use xlink:href="#DejaVuSans-31"/>
       <use xlink:href="#DejaVuSans-30" x="63.623047"/>
      </g>
     </g>
    </g>
    <g id="ytick_2">
     <g id="line2d_17">
      <path d="M 54 206.779535 
L 388.8 206.779535 
" clip-path="url(#pa4f6902cbf)" style="fill: none; stroke: #b0b0b0; stroke-width: 0.8; stroke-linecap: square"/>
     </g>
     <g id="line2d_18">
      <g>
       <use xlink:href="#m403df5978c" x="54" y="206.779535" style="stroke: #000000; stroke-width: 0.8"/>
      </g>
     </g>
     <g id="text_10">
      <!-- 20 -->
      <g transform="translate(34.275 210.578754)scale(0.1 -0.1)">
       <use xlink:href="#DejaVuSans-32"/>
       <use xlink:href="#DejaVuSans-30" x="63.623047"/>
      </g>
     </g>
    </g>
    <g id="ytick_3">
     <g id="line2d_19">
      <path d="M 54 181.774884 
L 388.8 181.774884 
" clip-path="url(#pa4f6902cbf)" style="fill: none; stroke: #b0b0b0; stroke-width: 0.8; stroke-linecap: square"/>
     </g>
     <g id="line2d_20">
      <g>
       <use xlink:href="#m403df5978c" x="54" y="181.774884" style="stroke: #000000; stroke-width: 0.8"/>
      </g>
     </g>
     <g id="text_11">
      <!-- 30 -->
      <g transform="translate(34.275 185.574102)scale(0.1 -0.1)">
       <use xlink:href="#DejaVuSans-33"/>
       <use xlink:href="#DejaVuSans-30" x="63.623047"/>
      </g>
     </g>
    </g>
    <g id="ytick_4">
     <g id="line2d_21">
      <path d="M 54 156.770233 
L 388.8 156.770233 
" clip-path="url(#pa4f6902cbf)" style="fill: none; stroke: #b0b0b0; stroke-width: 0.8; stroke-linecap: square"/>
     </g>
     <g id="line2d_22">
      <g>
       <use xlink:href="#m403df5978c" x="54" y="156.770233" style="stroke: #000000; stroke-width: 0.8"/>
      </g>
     </g>
     <g id="text_12">
      <!-- 40 -->
      <g transform="translate(34.275 160.569451)scale(0.1 -0.1)">
       <defs>
        <path id="DejaVuSans-34" d="M 2419 4116 
L 825 1625 
L 2419 1625 
L 2419 4116 
z
M 2253 4666 
L 3047 4666 
L 3047 1625 
L 3713 1625 
L 3713 1100 
L 3047 1100 
L 3047 0 
L 2419 0 
L 2419 1100 
L 313 1100 
L 313 1709 
L 2253 4666 
z
" transform="scale(0.015625)"/>
       </defs>
       <use xlink:href="#DejaVuSans-34"/>
       <use xlink:href="#DejaVuSans-30" x="63.623047"/>
      </g>
     </g>
    </g>
    <g id="ytick_5">
     <g id="line2d_23">
      <path d="M 54 131.765581 
L 388.8 131.765581 
" clip-path="url(#pa4f6902cbf)" style="fill: none; stroke: #b0b0b0; stroke-width: 0.8; stroke-linecap: square"/>
     </g>
     <g id="line2d_24">
      <g>
       <use xlink:href="#m403df5978c" x="54" y="131.765581" style="stroke: #000000; stroke-width: 0.8"/>
      </g>
     </g>
     <g id="text_13">
      <!-- 50 -->
      <g transform="translate(34.275 135.5648)scale(0.1 -0.1)">
       <use xlink:href="#DejaVuSans-35"/>
       <use xlink:href="#DejaVuSans-30" x="63.623047"/>
      </g>
     </g>
    </g>
    <g id="ytick_6">
     <g id="line2d_25">
      <path d="M 54 106.76093 
L 388.8 106.76093 
" clip-path="url(#pa4f6902cbf)" style="fill: none; stroke: #b0b0b0; stroke-width: 0.8; stroke-linecap: square"/>
     </g>
     <g id="line2d_26">
      <g>
       <use xlink:href="#m403df5978c" x="54" y="106.76093" style="stroke: #000000; stroke-width: 0.8"/>
      </g>
     </g>
     <g id="text_14">
      <!-- 60 -->
      <g transform="translate(34.275 110.560149)scale(0.1 -0.1)">
       <defs>
        <path id="DejaVuSans-36" d="M 2113 2584 
Q 1688 2584 1439 2293 
Q 1191 2003 1191 1497 
Q 1191 994 1439 701 
Q 1688 409 2113 409 
Q 2538 409 2786 701 
Q 3034 994 3034 1497 
Q 3034 2003 2786 2293 
Q 2538 2584 2113 2584 
z
M 3366 4563 
L 3366 3988 
Q 3128 4100 2886 4159 
Q 2644 4219 2406 4219 
Q 1781 4219 1451 3797 
Q 1122 3375 1075 2522 
Q 1259 2794 1537 2939 
Q 1816 3084 2150 3084 
Q 2853 3084 3261 2657 
Q 3669 2231 3669 1497 
Q 3669 778 3244 343 
Q 2819 -91 2113 -91 
Q 1303 -91 875 529 
Q 447 1150 447 2328 
Q 447 3434 972 4092 
Q 1497 4750 2381 4750 
Q 2619 4750 2861 4703 
Q 3103 4656 3366 4563 
z
" transform="scale(0.015625)"/>
       </defs>
       <use xlink:href="#DejaVuSans-36"/>
       <use xlink:href="#DejaVuSans-30" x="63.623047"/>
      </g>
     </g>
    </g>
    <g id="ytick_7">
     <g id="line2d_27">
      <path d="M 54 81.756279 
L 388.8 81.756279 
" clip-path="url(#pa4f6902cbf)" style="fill: none; stroke: #b0b0b0; stroke-width: 0.8; stroke-linecap: square"/>
     </g>
     <g id="line2d_28">
      <g>
       <use xlink:href="#m403df5978c" x="54" y="81.756279" style="stroke: #000000; stroke-width: 0.8"/>
      </g>
     </g>
     <g id="text_15">
      <!-- 70 -->
      <g transform="translate(34.275 85.555498)scale(0.1 -0.1)">
       <defs>
        <path id="DejaVuSans-37" d="M 525 4666 
L 3525 4666 
L 3525 4397 
L 1831 0 
L 1172 0 
L 2766 4134 
L 525 4134 
L 525 4666 
z
" transform="scale(0.015625)"/>
       </defs>
       <use xlink:href="#DejaVuSans-37"/>
       <use xlink:href="#DejaVuSans-30" x="63.623047"/>
      </g>
     </g>
    </g>
    <g id="ytick_8">
     <g id="line2d_29">
      <path d="M 54 56.751628 
L 388.8 56.751628 
" clip-path="url(#pa4f6902cbf)" style="fill: none; stroke: #b0b0b0; stroke-width: 0.8; stroke-linecap: square"/>
     </g>
     <g id="line2d_30">
      <g>
       <use xlink:href="#m403df5978c" x="54" y="56.751628" style="stroke: #000000; stroke-width: 0.8"/>
      </g>
     </g>
     <g id="text_16">
      <!-- 80 -->
      <g transform="translate(34.275 60.550847)scale(0.1 -0.1)">
       <defs>
        <path id="DejaVuSans-38" d="M 2034 2216 
Q 1584 2216 1326 1975 
Q 1069 1734 1069 1313 
Q 1069 891 1326 650 
Q 1584 409 2034 409 
Q 2484 409 2743 651 
Q 3003 894 3003 1313 
Q 3003 1734 2745 1975 
Q 2488 2216 2034 2216 
z
M 1403 2484 
Q 997 2584 770 2862 
Q 544 3141 544 3541 
Q 544 4100 942 4425 
Q 1341 4750 2034 4750 
Q 2731 4750 3128 4425 
Q 3525 4100 3525 3541 
Q 3525 3141 3298 2862 
Q 3072 2584 2669 2484 
Q 3125 2378 3379 2068 
Q 3634 1759 3634 1313 
Q 3634 634 3220 271 
Q 2806 -91 2034 -91 
Q 1263 -91 848 271 
Q 434 634 434 1313 
Q 434 1759 690 2068 
Q 947 2378 1403 2484 
z
M 1172 3481 
Q 1172 3119 1398 2916 
Q 1625 2713 2034 2713 
Q 2441 2713 2670 2916 
Q 2900 3119 2900 3481 
Q 2900 3844 2670 4047 
Q 2441 4250 2034 4250 
Q 1625 4250 1398 4047 
Q 1172 3844 1172 3481 
z
" transform="scale(0.015625)"/>
       </defs>
       <use xlink:href="#DejaVuSans-38"/>
       <use xlink:href="#DejaVuSans-30" x="63.623047"/>
      </g>
     </g>
    </g>
    <g id="text_17">
     <!-- % -->
     <g transform="translate(28.195312 150.190781)rotate(-90)scale(0.1 -0.1)">
      <defs>
       <path id="DejaVuSans-25" d="M 4653 2053 
Q 4381 2053 4226 1822 
Q 4072 1591 4072 1178 
Q 4072 772 4226 539 
Q 4381 306 4653 306 
Q 4919 306 5073 539 
Q 5228 772 5228 1178 
Q 5228 1588 5073 1820 
Q 4919 2053 4653 2053 
z
M 4653 2450 
Q 5147 2450 5437 2106 
Q 5728 1763 5728 1178 
Q 5728 594 5436 251 
Q 5144 -91 4653 -91 
Q 4153 -91 3862 251 
Q 3572 594 3572 1178 
Q 3572 1766 3864 2108 
Q 4156 2450 4653 2450 
z
M 1428 4353 
Q 1159 4353 1004 4120 
Q 850 3888 850 3481 
Q 850 3069 1003 2837 
Q 1156 2606 1428 2606 
Q 1700 2606 1854 2837 
Q 2009 3069 2009 3481 
Q 2009 3884 1853 4118 
Q 1697 4353 1428 4353 
z
M 4250 4750 
L 4750 4750 
L 1831 -91 
L 1331 -91 
L 4250 4750 
z
M 1428 4750 
Q 1922 4750 2215 4408 
Q 2509 4066 2509 3481 
Q 2509 2891 2217 2550 
Q 1925 2209 1428 2209 
Q 931 2209 642 2551 
Q 353 2894 353 3481 
Q 353 4063 643 4406 
Q 934 4750 1428 4750 
z
" transform="scale(0.015625)"/>
      </defs>
      <use xlink:href="#DejaVuSans-25"/>
     </g>
    </g>
   </g>
   <g id="line2d_31">
    <path d="M 69.218182 245.849302 
L 69.313255 246.24 
L 69.655386 245.588837 
L 69.744978 245.328372 
L 69.917284 245.71907 
L 70.0033 245.588837 
L 70.271606 244.546977 
L 70.383428 244.677209 
L 70.828518 244.026047 
L 70.999233 242.984186 
L 71.262788 243.505116 
L 71.347147 243.505116 
L 71.698014 244.156279 
L 71.877408 243.765581 
L 71.963946 243.765581 
L 72.144069 242.984186 
L 72.318023 243.244651 
L 72.577243 242.723721 
L 72.745167 243.114419 
L 72.912491 243.635349 
L 73.000858 243.895814 
L 73.167378 243.505116 
L 73.336702 242.202791 
L 73.418679 242.333023 
L 73.686104 241.551628 
L 73.953069 240.64 
L 74.21454 239.077209 
L 74.30398 239.077209 
L 74.404194 238.426047 
L 74.513207 238.556279 
L 74.772846 238.165581 
L 75.208788 233.477209 
L 75.427339 231.263256 
L 76.546187 220.453953 
L 76.891704 213.942326 
L 77.163027 211.077209 
L 78.032277 198.705116 
L 78.563637 191.412093 
L 78.841239 186.723721 
L 78.938886 186.853953 
L 79.552379 178.51907 
L 79.638106 178.51907 
L 80.513534 171.356279 
L 80.703552 171.746977 
L 80.872026 170.835349 
L 81.095795 170.314419 
L 81.274977 169.012093 
L 81.35808 169.402791 
L 81.609318 167.449302 
L 81.693045 167.449302 
L 81.775443 168.230698 
L 81.859161 167.709767 
L 81.941187 167.84 
L 82.2845 170.705116 
L 82.452721 170.314419 
L 82.536297 170.314419 
L 82.706228 171.877209 
L 82.790732 172.137674 
L 83.134358 175.393488 
L 83.302222 175.263256 
L 83.388933 175.523721 
L 83.473172 175.393488 
L 83.659882 173.049302 
L 83.752658 173.570233 
L 83.899913 173.700465 
L 84.156449 172.658605 
L 84.324019 172.658605 
L 84.41301 172.267907 
L 84.669659 170.053953 
L 84.752677 169.663256 
L 85.340549 160.026047 
L 85.42383 159.635349 
L 85.673745 155.728372 
L 86.092361 150.649302 
L 86.260533 151.04 
L 86.344512 150.258605 
L 86.427675 148.435349 
L 86.510629 149.216744 
L 86.814591 147.523721 
L 87.320676 141.923721 
L 87.409116 142.184186 
L 87.492202 140.88186 
L 87.575878 141.533023 
L 87.824297 139.970233 
L 88.071446 138.277209 
L 88.157154 138.667907 
L 88.325309 137.365581 
L 88.408116 137.626047 
L 88.902536 130.463256 
L 88.984083 131.374884 
L 89.151498 127.858605 
L 89.234245 127.467907 
L 89.529252 124.993488 
L 89.610828 124.863256 
L 89.691983 125.253953 
L 89.950636 121.346977 
L 90.047543 121.477209 
L 90.392752 118.351628 
L 90.47691 118.091163 
L 90.640309 116.267907 
L 90.722764 116.137674 
L 90.980127 113.012093 
L 91.144264 112.621395 
L 91.225722 111.188837 
L 91.307019 111.970233 
L 91.470939 111.449302 
L 91.553655 111.449302 
L 91.889659 112.621395 
L 92.393032 109.756279 
L 92.570199 107.28186 
L 92.824484 105.979535 
L 93.072156 105.328372 
L 93.171562 105.979535 
L 93.338019 104.286512 
L 93.421554 105.067907 
L 93.504306 105.19814 
L 93.58648 105.067907 
L 93.670202 104.677209 
L 93.754123 103.635349 
L 93.835212 103.765581 
L 93.916405 103.114419 
L 94.001403 103.244651 
L 94.085192 103.895814 
L 94.169336 103.244651 
L 94.253377 103.505116 
L 94.336738 103.114419 
L 94.500414 100.379535 
L 94.580734 100.900465 
L 94.745584 100.249302 
L 94.880935 100.11907 
L 94.96459 99.728372 
L 95.214651 101.942326 
L 95.483437 98.946977 
L 95.56453 99.077209 
L 95.730536 96.993488 
L 95.897205 97.644651 
L 96.144923 95.170233 
L 96.314047 94.51907 
L 96.401497 94.51907 
L 96.484594 94.909767 
L 96.734021 92.305116 
L 96.826612 92.435349 
L 96.909857 92.305116 
L 96.993278 91.914419 
L 97.077467 92.695814 
L 97.243817 91.914419 
L 97.413189 91.393488 
L 97.496179 91.263256 
L 97.877066 89.44 
L 98.210862 92.305116 
L 98.294782 91.784186 
L 98.377165 92.044651 
L 98.461232 91.523721 
L 98.628727 92.695814 
L 98.712294 92.565581 
L 98.79497 91.914419 
L 98.879469 92.174884 
L 99.043649 91.133023 
L 99.218935 91.914419 
L 99.38806 91.133023 
L 99.472937 91.523721 
L 99.561101 91.263256 
L 99.756247 89.570233 
L 99.844857 90.091163 
L 99.926994 91.263256 
L 100.009568 89.96093 
L 100.174067 91.393488 
L 100.257113 91.263256 
L 100.638619 88.658605 
L 100.801662 87.356279 
L 100.883901 88.91907 
L 101.131797 86.965581 
L 101.460965 85.793488 
L 101.546754 86.053953 
L 101.629311 85.923721 
L 101.710113 86.184186 
L 101.795051 87.486512 
L 102.235116 84.621395 
L 102.410882 85.793488 
L 102.49279 85.012093 
L 102.577237 86.053953 
L 102.744571 83.579535 
L 102.837182 83.709767 
L 103.165578 86.444651 
L 103.333126 86.053953 
L 103.415231 86.053953 
L 103.497954 83.970233 
L 103.668532 84.88186 
L 103.751534 85.012093 
L 103.918843 82.667907 
L 104.091394 83.709767 
L 104.173487 83.84 
L 104.339161 83.188837 
L 104.422044 82.407442 
L 104.505175 82.667907 
L 104.75302 84.100465 
L 104.836977 84.100465 
L 105.084317 81.886512 
L 105.169347 82.277209 
L 105.253608 82.016744 
L 105.341025 82.537674 
L 105.685389 79.021395 
L 105.769463 79.151628 
L 105.904683 79.802791 
L 106.070178 81.886512 
L 106.152852 81.756279 
L 106.319538 79.802791 
L 106.402946 80.453953 
L 106.571233 82.146977 
L 106.81852 80.193488 
L 106.984226 79.28186 
L 107.067567 79.542326 
L 107.149994 79.933023 
L 107.233044 79.021395 
L 107.398839 80.453953 
L 107.483287 80.974884 
L 107.648817 79.412093 
L 107.731001 79.021395 
L 107.980133 80.714419 
L 108.062788 80.584186 
L 108.150968 82.016744 
L 108.709398 77.979535 
L 108.875746 78.24 
L 108.959467 78.109767 
L 109.12615 77.328372 
L 109.374005 79.542326 
L 109.456852 79.151628 
L 109.547153 79.672558 
L 109.72131 79.021395 
L 109.804335 79.412093 
L 109.968444 77.979535 
L 110.050806 77.849302 
L 110.135359 79.542326 
L 110.217108 79.412093 
L 110.299845 79.802791 
L 110.382294 79.151628 
L 110.46451 79.542326 
L 110.554376 79.28186 
L 110.730996 79.802791 
L 110.896542 79.542326 
L 110.979387 78.891163 
L 111.062062 79.28186 
L 111.144967 79.021395 
L 111.233662 78.24 
L 111.528984 80.323721 
L 111.695894 79.151628 
L 111.77868 79.802791 
L 111.859055 79.021395 
L 112.022833 80.584186 
L 112.270436 79.021395 
L 112.357031 79.542326 
L 113.024224 73.812093 
L 113.107629 74.202791 
L 113.277484 73.421395 
L 113.780505 76.546977 
L 113.863019 76.546977 
L 113.947625 76.807442 
L 114.077352 75.765581 
L 114.159316 76.677209 
L 114.242368 76.416744 
L 114.409695 76.026047 
L 114.603844 74.463256 
L 114.686082 74.202791 
L 114.853275 74.723721 
L 114.937819 73.812093 
L 115.022962 73.942326 
L 115.268173 76.156279 
L 115.515212 78.109767 
L 115.685798 76.677209 
L 115.769939 77.067907 
L 116.020198 76.416744 
L 116.107054 75.635349 
L 116.191011 75.895814 
L 116.614063 73.291163 
L 116.698134 71.988837 
L 116.838729 71.728372 
L 116.92732 70.816744 
L 117.014329 71.207442 
L 117.178901 69.905116 
L 117.262296 70.556279 
L 117.345882 70.165581 
L 117.429406 69.123721 
L 117.602898 70.165581 
L 117.689606 69.514419 
L 117.774779 69.644651 
L 117.858944 69.253953 
L 117.94451 69.514419 
L 118.113038 67.821395 
L 118.281902 69.253953 
L 118.36588 68.733023 
L 118.448138 68.863256 
L 118.531082 69.123721 
L 118.615983 68.472558 
L 118.700481 68.733023 
L 118.78485 68.212093 
L 118.866801 68.863256 
L 119.034416 67.821395 
L 119.11696 67.170233 
L 119.667828 69.384186 
L 119.833594 69.253953 
L 120.001409 69.905116 
L 120.168063 68.863256 
L 120.334943 68.733023 
L 120.417582 69.123721 
L 120.500605 68.863256 
L 120.582402 68.993488 
L 120.662416 70.426047 
L 120.746075 70.165581 
L 120.994234 66.909767 
L 121.077761 66.258605 
L 121.159295 67.430698 
L 121.242137 67.300465 
L 121.330081 66.909767 
L 121.416353 67.04 
L 121.582108 68.08186 
L 121.748989 68.733023 
L 122.165679 67.170233 
L 122.462361 65.99814 
L 122.543972 66.388837 
L 122.717343 67.56093 
L 122.79839 68.602791 
L 122.967147 67.821395 
L 123.132824 68.342326 
L 123.216533 67.300465 
L 123.301806 67.56093 
L 123.382865 68.993488 
L 123.467904 68.602791 
L 123.554436 68.733023 
L 123.638012 69.514419 
L 123.804963 67.691163 
L 123.888077 68.602791 
L 123.971771 67.300465 
L 124.055477 67.430698 
L 124.139882 68.08186 
L 124.22631 67.951628 
L 124.394366 68.212093 
L 124.481151 68.342326 
L 124.738941 69.774884 
L 124.906567 70.816744 
L 125.037161 70.816744 
L 125.221846 70.426047 
L 125.394096 68.212093 
L 125.478188 68.993488 
L 125.726559 66.388837 
L 125.90024 67.04 
L 125.982387 66.779535 
L 126.066598 67.430698 
L 126.233712 65.216744 
L 126.403675 66.128372 
L 126.489468 65.607442 
L 126.57628 65.737674 
L 126.660109 65.867907 
L 126.744517 66.649302 
L 126.830291 66.258605 
L 126.913246 66.649302 
L 127.080818 66.388837 
L 127.25036 66.649302 
L 127.415815 66.258605 
L 127.880274 68.08186 
L 127.962641 67.691163 
L 128.047285 66.51907 
L 128.300412 68.472558 
L 128.385198 68.472558 
L 128.553132 66.779535 
L 129.135068 72.64 
L 129.328741 70.556279 
L 129.41092 71.337674 
L 129.495864 70.946977 
L 129.57804 71.207442 
L 129.744904 69.774884 
L 129.827707 68.602791 
L 129.911529 68.733023 
L 130.077799 68.342326 
L 130.161796 68.602791 
L 130.250002 67.430698 
L 130.549982 69.253953 
L 130.716187 69.905116 
L 130.884258 69.774884 
L 130.966653 70.295814 
L 131.051455 69.644651 
L 131.133552 70.556279 
L 131.29896 69.123721 
L 131.465387 68.863256 
L 131.635777 66.258605 
L 131.900822 68.342326 
L 131.984452 68.342326 
L 132.152126 67.951628 
L 132.234947 68.472558 
L 132.400016 70.165581 
L 132.483198 69.905116 
L 132.567828 70.426047 
L 132.737855 69.644651 
L 132.825439 70.816744 
L 133.073596 68.08186 
L 133.156378 68.212093 
L 133.285941 67.170233 
L 133.367588 67.56093 
L 133.449779 66.51907 
L 133.535167 66.779535 
L 133.619039 68.212093 
L 133.701429 67.56093 
L 133.783025 68.602791 
L 133.866135 67.951628 
L 134.114308 68.863256 
L 134.197864 68.733023 
L 134.702352 63.914419 
L 134.786615 64.174884 
L 134.955421 62.872558 
L 135.038566 62.872558 
L 135.122415 62.742326 
L 135.28816 64.044651 
L 135.373206 62.742326 
L 135.540366 64.565581 
L 135.708474 63.523721 
L 135.795454 64.044651 
L 135.877214 63.523721 
L 136.007964 63.914419 
L 136.179229 61.96093 
L 136.430921 62.872558 
L 136.52579 61.700465 
L 136.608495 61.830698 
L 136.691246 62.091163 
L 136.7764 61.96093 
L 136.941832 62.351628 
L 137.193506 65.346977 
L 137.277241 65.99814 
L 137.363135 65.607442 
L 137.529164 66.388837 
L 137.697194 67.430698 
L 137.865974 66.909767 
L 137.952052 67.300465 
L 138.039083 65.867907 
L 138.208844 68.08186 
L 138.375414 67.430698 
L 138.460281 68.08186 
L 138.543863 67.821395 
L 138.756245 69.514419 
L 138.842937 69.644651 
L 139.013633 68.733023 
L 139.097196 69.514419 
L 139.181351 69.253953 
L 139.263204 68.602791 
L 139.347419 69.123721 
L 139.43074 68.993488 
L 139.516009 69.253953 
L 139.600549 68.08186 
L 139.68507 68.993488 
L 139.768077 68.863256 
L 139.934123 67.691163 
L 140.19026 65.737674 
L 140.361585 64.565581 
L 140.445195 64.956279 
L 140.531495 64.565581 
L 140.618753 64.826047 
L 140.785674 62.612093 
L 140.954587 63.393488 
L 141.038457 62.48186 
L 141.121148 62.612093 
L 141.205877 62.872558 
L 141.375536 61.830698 
L 141.506882 62.091163 
L 141.672871 60.788837 
L 141.843237 60.007442 
L 142.099033 58.705116 
L 142.18266 59.226047 
L 142.348342 58.053953 
L 142.43138 58.184186 
L 142.935895 60.137674 
L 143.200209 59.095814 
L 143.294377 59.095814 
L 143.379201 58.705116 
L 143.71573 60.788837 
L 143.803299 59.616744 
L 143.887582 59.746977 
L 143.969917 59.226047 
L 144.429281 61.049302 
L 144.513713 60.91907 
L 144.596571 60.39814 
L 144.680282 60.528372 
L 144.763243 61.179535 
L 145.093878 60.137674 
L 145.179633 60.528372 
L 145.259293 60.39814 
L 145.344593 60.137674 
L 145.428286 60.267907 
L 145.677975 62.48186 
L 145.760976 62.221395 
L 145.926633 64.565581 
L 146.091931 63.263256 
L 146.174496 63.393488 
L 146.25852 63.263256 
L 146.341608 63.393488 
L 146.507778 64.565581 
L 146.590688 64.174884 
L 146.75634 64.435349 
L 146.839099 64.565581 
L 146.969009 64.174884 
L 147.052559 64.435349 
L 147.138024 65.216744 
L 147.32378 64.435349 
L 147.492648 63.523721 
L 147.660943 64.174884 
L 147.825109 63.914419 
L 147.991797 64.826047 
L 148.494977 60.007442 
L 148.577204 60.007442 
L 148.659868 59.877209 
L 148.744514 60.007442 
L 148.826846 59.616744 
L 148.912448 60.267907 
L 149.076686 59.095814 
L 149.159766 59.746977 
L 149.33169 58.574884 
L 149.497294 59.877209 
L 149.581986 59.616744 
L 149.712333 59.226047 
L 149.88271 59.486512 
L 149.965588 59.356279 
L 150.049848 59.877209 
L 150.1351 59.226047 
L 150.384817 60.528372 
L 150.469466 60.658605 
L 150.554731 60.267907 
L 150.735719 60.91907 
L 150.988693 63.393488 
L 151.071717 63.263256 
L 151.154468 63.523721 
L 151.407061 62.612093 
L 151.489201 62.221395 
L 151.655911 63.393488 
L 151.739922 62.351628 
L 151.822859 62.742326 
L 151.908602 62.48186 
L 151.993399 62.872558 
L 152.159803 61.96093 
L 152.243181 62.091163 
L 152.45826 61.830698 
L 152.541906 63.393488 
L 153.040745 60.267907 
L 153.125474 60.39814 
L 153.213822 60.267907 
L 153.295969 60.658605 
L 153.467684 59.746977 
L 153.550529 59.616744 
L 153.716566 60.007442 
L 153.88012 59.095814 
L 154.048744 60.137674 
L 154.130976 59.486512 
L 154.53988 61.44 
L 154.621092 61.179535 
L 154.786911 61.96093 
L 154.869083 61.44 
L 154.950542 61.830698 
L 155.035209 61.179535 
L 155.163303 61.179535 
L 155.494046 63.523721 
L 155.823916 61.309767 
L 155.991446 61.830698 
L 156.238525 61.049302 
L 156.487417 63.133023 
L 156.5696 62.221395 
L 156.649345 63.523721 
L 156.732787 62.48186 
L 156.816382 62.612093 
L 156.981747 62.351628 
L 157.065591 62.221395 
L 157.233092 63.523721 
L 157.318104 62.872558 
L 157.486202 64.435349 
L 157.574471 64.565581 
L 157.661434 64.435349 
L 157.745923 64.565581 
L 157.876319 65.737674 
L 158.043417 64.435349 
L 158.127922 64.565581 
L 158.211851 63.914419 
L 158.295348 64.174884 
L 158.378658 63.784186 
L 158.463487 63.914419 
L 158.627606 63.653953 
L 158.710889 63.002791 
L 158.791935 63.263256 
L 159.205749 60.137674 
L 159.290561 60.267907 
L 159.372795 59.486512 
L 159.456787 59.616744 
L 159.78904 58.314419 
L 159.875189 57.923721 
L 159.959564 58.184186 
L 160.043607 57.402791 
L 160.212556 58.184186 
L 160.295181 57.793488 
L 160.384652 56.751628 
L 160.467651 57.012093 
L 160.597978 57.012093 
L 160.682036 57.272558 
L 160.84719 58.705116 
L 161.016575 59.095814 
L 161.106344 59.095814 
L 161.196103 59.226047 
L 161.44713 61.179535 
L 161.529306 61.049302 
L 161.95206 63.653953 
L 162.035554 63.133023 
L 162.207134 63.914419 
L 162.458681 65.607442 
L 162.625023 64.044651 
L 162.879066 64.826047 
L 162.963535 64.044651 
L 163.051098 64.174884 
L 163.433054 62.872558 
L 163.68464 63.523721 
L 164.016221 62.091163 
L 164.105736 62.872558 
L 164.526518 60.267907 
L 164.610908 60.91907 
L 165.03234 58.835349 
L 165.19928 59.616744 
L 165.454315 57.402791 
L 165.537724 58.444651 
L 165.621617 58.184186 
L 165.704941 57.793488 
L 165.788185 57.923721 
L 165.95156 59.226047 
L 166.169323 58.314419 
L 166.334206 58.053953 
L 166.417219 58.184186 
L 166.582543 58.705116 
L 166.670529 57.663256 
L 166.751779 57.793488 
L 167.001861 58.705116 
L 167.085505 59.877209 
L 167.1686 59.095814 
L 167.252797 59.226047 
L 167.335049 59.095814 
L 167.674648 60.39814 
L 167.847257 60.39814 
L 168.016815 61.830698 
L 168.101189 61.700465 
L 168.267166 62.48186 
L 168.356876 62.48186 
L 168.439644 62.221395 
L 168.916782 65.737674 
L 169.000026 65.477209 
L 169.16831 66.258605 
L 169.252566 66.258605 
L 169.336685 67.04 
L 169.51729 65.867907 
L 169.606971 66.388837 
L 169.690225 65.346977 
L 169.855634 66.128372 
L 170.031777 65.99814 
L 170.126544 66.51907 
L 170.293469 65.477209 
L 170.377698 65.607442 
L 170.553451 64.695814 
L 170.721815 65.607442 
L 170.805691 65.216744 
L 170.970455 65.477209 
L 171.223852 62.742326 
L 171.474447 61.570233 
L 171.603864 61.96093 
L 171.771983 61.179535 
L 171.855726 60.91907 
L 171.939149 60.137674 
L 172.020909 60.39814 
L 172.106026 60.528372 
L 172.188298 59.616744 
L 172.355367 60.658605 
L 172.436899 61.049302 
L 172.604361 60.267907 
L 172.694348 59.226047 
L 172.776477 59.356279 
L 172.859059 59.616744 
L 173.026642 58.184186 
L 173.109255 58.705116 
L 173.365075 57.793488 
L 173.534299 57.923721 
L 173.618275 57.923721 
L 173.70096 59.095814 
L 174.20139 56.621395 
L 174.331409 55.970233 
L 174.414262 56.230698 
L 174.761719 58.184186 
L 174.929181 57.012093 
L 175.012477 56.491163 
L 175.099479 55.188837 
L 175.182041 55.31907 
L 175.264518 55.058605 
L 175.604662 56.36093 
L 175.686033 55.579535 
L 175.855881 56.751628 
L 175.94564 56.751628 
L 176.033389 55.970233 
L 176.116746 56.100465 
L 176.201291 55.579535 
L 176.287406 54.146977 
L 176.371578 54.537674 
L 176.457598 54.537674 
L 176.628704 55.058605 
L 176.791929 54.928372 
L 176.874834 54.928372 
L 177.085083 55.188837 
L 177.251932 54.277209 
L 177.333438 54.407442 
L 177.673803 56.751628 
L 177.755622 56.230698 
L 177.838191 56.621395 
L 178.085814 55.579535 
L 178.168062 55.449302 
L 178.250794 56.36093 
L 178.335518 55.31907 
L 178.499779 56.491163 
L 178.836665 58.835349 
L 179.005596 57.012093 
L 179.091098 57.142326 
L 179.261384 57.142326 
L 179.344088 57.012093 
L 179.427888 57.142326 
L 179.511433 56.751628 
L 179.595806 57.793488 
L 179.680937 57.663256 
L 179.812419 57.663256 
L 180.233736 55.579535 
L 180.399724 56.621395 
L 180.482874 56.751628 
L 180.564379 56.621395 
L 180.814914 55.579535 
L 180.899443 56.751628 
L 181.066023 55.709767 
L 181.232729 55.579535 
L 181.314861 55.579535 
L 181.401481 55.188837 
L 181.656299 57.533023 
L 181.99133 57.923721 
L 182.078 58.444651 
L 182.246695 56.88186 
L 182.333116 56.88186 
L 182.415835 57.533023 
L 182.548301 57.012093 
L 182.634105 58.053953 
L 182.717963 57.663256 
L 182.802038 58.444651 
L 182.89072 57.793488 
L 183.058144 58.314419 
L 183.141854 58.184186 
L 183.308517 58.965581 
L 183.808769 55.84 
L 183.97889 55.058605 
L 184.237587 54.016744 
L 184.31902 54.407442 
L 184.404141 54.146977 
L 184.484888 54.407442 
L 184.649899 53.235349 
L 184.816418 54.146977 
L 184.984516 52.844651 
L 185.071277 53.365581 
L 185.154848 52.193488 
L 185.371909 52.974884 
L 185.455458 53.105116 
L 185.539138 52.974884 
L 185.623092 52.323721 
L 185.958991 54.79814 
L 186.295779 54.407442 
L 186.545697 55.579535 
L 186.62902 54.79814 
L 186.713187 55.058605 
L 186.795299 54.928372 
L 186.960763 53.886512 
L 187.465524 56.88186 
L 187.548322 56.621395 
L 187.718118 57.923721 
L 187.885249 57.142326 
L 188.014612 57.272558 
L 188.094009 57.142326 
L 188.176481 58.705116 
L 188.259475 58.444651 
L 188.465844 58.184186 
L 188.755479 57.402791 
L 188.929131 57.272558 
L 189.011472 56.751628 
L 189.177496 57.272558 
L 189.26249 58.965581 
L 189.34739 58.705116 
L 189.429607 58.705116 
L 189.513319 59.095814 
L 189.676621 58.574884 
L 189.842482 58.835349 
L 190.006573 56.751628 
L 190.089708 56.751628 
L 190.175412 56.621395 
L 190.350107 55.31907 
L 190.432603 55.709767 
L 190.51587 55.579535 
L 190.600721 55.709767 
L 190.685469 56.100465 
L 190.899371 54.407442 
L 191.070849 55.188837 
L 191.160312 54.667907 
L 191.496479 57.402791 
L 191.66366 59.095814 
L 191.747417 58.835349 
L 192.083965 60.007442 
L 192.251737 61.44 
L 192.503483 62.742326 
L 192.673877 61.570233 
L 192.925213 63.653953 
L 193.178424 64.305116 
L 193.261152 63.393488 
L 193.344792 64.174884 
L 193.429003 63.914419 
L 193.55849 64.044651 
L 193.642497 63.784186 
L 193.807397 65.346977 
L 194.392772 62.872558 
L 194.476146 63.133023 
L 194.641608 62.221395 
L 194.724532 62.48186 
L 194.887575 61.309767 
L 194.971334 61.830698 
L 195.058286 60.91907 
L 195.223963 62.872558 
L 195.30938 62.351628 
L 195.820452 64.435349 
L 195.903866 64.044651 
L 195.984854 65.216744 
L 196.068463 64.956279 
L 196.152352 64.695814 
L 196.368111 63.002791 
L 196.450374 63.653953 
L 196.534603 63.523721 
L 196.960945 61.179535 
L 197.042544 60.658605 
L 197.125388 61.309767 
L 197.292347 60.528372 
L 197.460444 60.91907 
L 197.633197 60.39814 
L 197.802483 61.179535 
L 198.301632 55.84 
L 198.468597 56.621395 
L 198.634973 54.928372 
L 198.719753 54.79814 
L 198.883374 55.709767 
L 199.012563 55.31907 
L 199.259146 54.146977 
L 199.670632 57.533023 
L 199.765742 58.053953 
L 199.933514 56.621395 
L 200.016577 56.751628 
L 200.096226 56.100465 
L 200.17812 56.36093 
L 200.349024 54.277209 
L 200.521696 55.709767 
L 200.687728 55.31907 
L 200.77156 55.31907 
L 200.854049 56.230698 
L 201.018595 54.79814 
L 201.184917 56.36093 
L 201.269686 56.230698 
L 201.441649 55.188837 
L 201.833002 57.663256 
L 201.928713 56.88186 
L 202.015685 57.663256 
L 202.431553 54.407442 
L 202.513453 55.188837 
L 202.597064 55.058605 
L 202.767922 55.449302 
L 202.849938 55.449302 
L 203.018515 56.100465 
L 203.210082 55.31907 
L 203.31065 55.579535 
L 203.56141 54.537674 
L 203.64376 54.79814 
L 203.812729 53.235349 
L 203.896677 53.365581 
L 203.979679 53.105116 
L 204.062272 53.626047 
L 204.142733 53.495814 
L 204.309934 53.235349 
L 204.391869 53.235349 
L 204.523104 53.105116 
L 204.609875 52.193488 
L 204.694957 52.714419 
L 204.77732 52.584186 
L 204.860795 52.453953 
L 205.04611 54.016744 
L 205.135022 53.886512 
L 205.219631 54.146977 
L 205.510556 53.495814 
L 205.628173 54.016744 
L 205.799834 53.756279 
L 206.049152 55.058605 
L 206.215071 55.579535 
L 206.300642 55.579535 
L 206.401121 55.84 
L 206.484245 55.709767 
L 206.567955 55.31907 
L 206.652501 55.709767 
L 206.870167 54.928372 
L 206.962264 55.058605 
L 207.046168 54.277209 
L 207.129857 54.667907 
L 207.449811 53.365581 
L 207.633694 54.146977 
L 207.723469 54.016744 
L 207.80814 54.146977 
L 207.989141 53.495814 
L 208.156619 54.79814 
L 208.322707 55.058605 
L 208.405533 54.928372 
L 208.493511 55.31907 
L 208.770645 53.886512 
L 209.185011 56.230698 
L 209.454184 57.663256 
L 209.538149 57.793488 
L 209.621003 57.402791 
L 209.705733 58.184186 
L 209.79238 57.533023 
L 209.956738 59.226047 
L 210.251384 58.053953 
L 210.335292 58.053953 
L 210.416046 57.533023 
L 210.583178 58.314419 
L 210.664185 57.012093 
L 210.746637 57.272558 
L 210.828312 57.533023 
L 210.911636 56.751628 
L 210.995245 57.142326 
L 211.081237 56.751628 
L 211.162866 57.142326 
L 211.242249 56.751628 
L 211.325484 57.663256 
L 211.410601 57.402791 
L 211.49368 57.533023 
L 211.575698 58.314419 
L 212.178066 55.31907 
L 212.264572 55.058605 
L 212.349789 55.709767 
L 212.523062 54.016744 
L 212.605199 54.146977 
L 212.773448 54.928372 
L 212.860185 54.928372 
L 212.996469 55.058605 
L 213.079143 55.31907 
L 213.170738 54.146977 
L 213.256067 54.537674 
L 213.425449 53.756279 
L 213.507145 53.756279 
L 213.693082 52.844651 
L 213.786407 53.105116 
L 213.883918 54.277209 
L 213.97112 54.016744 
L 214.237289 52.063256 
L 214.499 53.365581 
L 214.594488 53.495814 
L 214.679804 53.886512 
L 214.936416 56.230698 
L 215.108212 55.188837 
L 215.192134 55.188837 
L 215.282987 56.36093 
L 215.560873 54.277209 
L 215.657874 55.579535 
L 215.747604 55.188837 
L 216.070617 56.751628 
L 216.236407 58.314419 
L 216.324195 57.533023 
L 216.417504 58.835349 
L 216.689295 56.88186 
L 217.022792 58.053953 
L 217.194222 57.663256 
L 217.369289 59.095814 
L 217.629047 56.751628 
L 218.226569 61.309767 
L 218.402488 60.007442 
L 218.487875 60.007442 
L 218.57288 59.746977 
L 218.874782 57.923721 
L 219.055364 59.095814 
L 219.142345 59.486512 
L 219.230123 59.356279 
L 219.402281 59.746977 
L 219.484947 59.746977 
L 219.57213 59.486512 
L 219.737579 58.053953 
L 219.824322 58.184186 
L 219.992476 56.230698 
L 220.07554 56.88186 
L 220.161627 56.621395 
L 220.245265 56.751628 
L 220.330433 57.402791 
L 220.499502 55.579535 
L 220.588224 56.230698 
L 221.013702 54.407442 
L 221.097774 54.407442 
L 221.181833 54.537674 
L 221.264229 55.579535 
L 221.350465 54.79814 
L 221.484227 54.79814 
L 221.571916 54.537674 
L 221.767508 52.974884 
L 221.854487 53.626047 
L 222.037849 53.235349 
L 222.136118 53.365581 
L 222.220575 53.105116 
L 222.568615 55.449302 
L 222.657262 55.709767 
L 222.741775 55.058605 
L 222.921427 57.012093 
L 223.006444 55.84 
L 223.092606 56.100465 
L 223.180265 57.142326 
L 223.455572 55.188837 
L 223.635424 55.709767 
L 223.721394 55.709767 
L 223.811855 55.579535 
L 224.159922 53.626047 
L 224.254192 53.365581 
L 224.391756 53.365581 
L 224.47806 53.495814 
L 224.564015 53.105116 
L 224.91608 53.495814 
L 225.006499 53.105116 
L 225.177824 51.412093 
L 225.267033 52.063256 
L 225.359685 51.28186 
L 225.463652 51.412093 
L 225.637715 49.19814 
L 225.818457 50.76093 
L 226.011725 49.71907 
L 226.186979 49.067907 
L 226.276226 49.067907 
L 226.451762 49.588837 
L 226.535615 49.588837 
L 226.789019 51.021395 
L 226.881629 50.76093 
L 227.056158 52.453953 
L 227.143092 52.584186 
L 227.363048 54.537674 
L 227.539878 53.756279 
L 227.712075 54.277209 
L 227.796049 54.277209 
L 227.900048 55.449302 
L 227.985789 54.79814 
L 228.078672 55.579535 
L 228.183139 55.31907 
L 228.267635 55.709767 
L 228.349914 56.88186 
L 228.51669 55.84 
L 228.604218 55.449302 
L 228.857508 57.533023 
L 229.035911 56.751628 
L 229.119486 57.272558 
L 229.202771 57.142326 
L 229.369156 58.184186 
L 229.548689 59.356279 
L 229.8053 56.621395 
L 229.969649 55.058605 
L 230.105723 55.188837 
L 230.19087 56.36093 
L 230.272084 56.230698 
L 230.43891 56.491163 
L 230.698684 54.277209 
L 230.913834 54.667907 
L 231.010791 53.886512 
L 231.130243 54.016744 
L 231.230462 53.756279 
L 231.315007 54.407442 
L 231.488612 54.016744 
L 231.578631 54.016744 
L 231.6753 54.537674 
L 231.770838 53.886512 
L 231.859233 54.016744 
L 231.942549 54.146977 
L 232.02652 54.016744 
L 232.195709 52.063256 
L 232.279118 52.714419 
L 232.535013 54.146977 
L 232.622601 53.495814 
L 232.705513 53.756279 
L 232.789341 53.626047 
L 233.027882 52.063256 
L 233.111659 51.412093 
L 233.280831 52.584186 
L 233.457769 54.016744 
L 233.628953 53.235349 
L 233.712473 53.495814 
L 233.798043 53.235349 
L 233.892004 52.584186 
L 233.973127 52.714419 
L 234.055906 52.453953 
L 234.148547 53.365581 
L 234.230588 53.105116 
L 234.312719 52.323721 
L 234.476938 53.365581 
L 234.560996 53.365581 
L 234.647464 53.235349 
L 234.733617 53.365581 
L 234.816743 54.537674 
L 234.900582 53.756279 
L 234.985284 54.537674 
L 235.068558 53.886512 
L 235.160116 54.146977 
L 235.33288 55.058605 
L 235.502625 55.31907 
L 235.638823 55.188837 
L 235.722621 55.579535 
L 236.060357 53.365581 
L 236.232578 53.886512 
L 236.430188 54.277209 
L 236.530372 54.537674 
L 236.617302 54.016744 
L 236.700525 54.667907 
L 236.784091 54.146977 
L 236.86658 54.277209 
L 236.949254 54.667907 
L 237.034771 54.537674 
L 237.117897 54.016744 
L 237.202089 54.146977 
L 237.285648 54.667907 
L 237.370403 54.537674 
L 237.456046 54.016744 
L 237.802539 55.970233 
L 238.057774 54.407442 
L 238.148522 54.537674 
L 238.3192 54.146977 
L 238.460921 54.537674 
L 238.544477 54.407442 
L 238.813372 56.88186 
L 238.992168 57.533023 
L 239.079398 57.142326 
L 239.25471 57.923721 
L 239.346203 57.402791 
L 239.595561 58.314419 
L 239.68791 57.923721 
L 240.249081 59.746977 
L 240.511336 58.444651 
L 240.766164 59.877209 
L 240.850885 59.356279 
L 240.940113 60.137674 
L 241.023181 60.007442 
L 241.207964 59.746977 
L 241.701837 56.751628 
L 241.961725 57.272558 
L 242.126388 56.491163 
L 242.212101 56.751628 
L 242.298121 55.84 
L 242.383121 56.751628 
L 242.468284 56.491163 
L 242.549934 56.621395 
L 242.635145 55.970233 
L 242.721687 56.100465 
L 242.810311 56.230698 
L 243.612005 53.235349 
L 243.777583 54.667907 
L 244.02902 53.886512 
L 244.245664 54.537674 
L 244.336838 54.407442 
L 244.427653 55.188837 
L 244.608977 53.886512 
L 244.704743 54.667907 
L 244.793293 54.146977 
L 244.964881 54.928372 
L 245.048098 54.79814 
L 245.134973 54.407442 
L 245.302529 54.667907 
L 245.384962 53.626047 
L 245.552652 54.537674 
L 245.643932 54.667907 
L 245.729152 54.277209 
L 245.815542 54.667907 
L 245.899907 55.970233 
L 245.980952 55.188837 
L 246.065243 55.579535 
L 246.231034 57.012093 
L 246.320904 56.36093 
L 246.568964 58.574884 
L 246.817384 57.142326 
L 246.949186 57.923721 
L 247.033151 57.533023 
L 247.21376 57.793488 
L 247.297857 57.272558 
L 247.38043 57.663256 
L 247.627929 55.31907 
L 247.715741 56.36093 
L 248.101295 54.407442 
L 248.275764 53.365581 
L 248.365097 53.235349 
L 248.451845 52.453953 
L 248.621829 50.630698 
L 248.721428 50.76093 
L 248.901898 49.71907 
L 248.988515 49.849302 
L 249.241324 49.067907 
L 249.32438 49.588837 
L 249.407581 49.328372 
L 249.494943 50.24 
L 249.586379 49.067907 
L 249.673074 49.328372 
L 249.809577 50.109767 
L 249.897799 49.588837 
L 250.165152 52.063256 
L 250.252897 52.063256 
L 250.338616 52.844651 
L 250.426715 52.453953 
L 250.681879 53.495814 
L 250.764925 53.105116 
L 250.84707 53.365581 
L 251.275757 56.100465 
L 251.360323 56.100465 
L 251.538753 56.751628 
L 251.970093 54.928372 
L 252.053825 55.31907 
L 252.137894 54.79814 
L 252.220679 55.31907 
L 252.389919 54.537674 
L 252.480059 54.928372 
L 252.782244 52.453953 
L 252.870152 53.365581 
L 253.127444 52.323721 
L 253.216488 51.933023 
L 253.474534 53.626047 
L 253.558459 53.235349 
L 253.640085 52.974884 
L 253.802619 51.933023 
L 253.893229 52.844651 
L 254.177757 51.672558 
L 254.59977 52.844651 
L 254.779879 51.412093 
L 254.886663 51.672558 
L 254.979213 50.630698 
L 255.069982 51.021395 
L 255.335106 50.370233 
L 255.470453 51.672558 
L 255.562811 50.891163 
L 255.648324 51.412093 
L 255.734165 50.76093 
L 255.907492 52.193488 
L 255.994996 52.063256 
L 256.077769 52.193488 
L 256.159559 52.063256 
L 256.241557 52.453953 
L 256.405796 51.933023 
L 256.569695 52.323721 
L 256.652802 52.193488 
L 256.900528 51.021395 
L 257.065417 50.500465 
L 257.151563 50.76093 
L 257.240052 50.500465 
L 257.577616 54.277209 
L 257.664298 54.537674 
L 257.748414 54.277209 
L 257.91942 55.058605 
L 258.006968 53.756279 
L 258.090465 54.537674 
L 258.230995 53.756279 
L 258.312641 53.886512 
L 258.921175 51.28186 
L 259.090348 51.933023 
L 259.255677 51.412093 
L 259.432235 53.495814 
L 259.707103 54.016744 
L 259.973261 55.188837 
L 260.061451 55.579535 
L 260.145228 55.449302 
L 260.318848 54.277209 
L 260.41339 55.188837 
L 260.602481 53.756279 
L 260.865884 55.188837 
L 261.104223 55.970233 
L 261.360414 54.407442 
L 261.445938 55.31907 
L 261.536336 54.79814 
L 261.715932 55.449302 
L 261.80424 55.84 
L 261.896435 55.188837 
L 261.996697 55.31907 
L 262.097453 54.146977 
L 262.18632 54.407442 
L 262.359079 56.36093 
L 262.451663 56.100465 
L 262.806529 53.756279 
L 262.898471 53.886512 
L 262.996215 54.146977 
L 263.178576 53.105116 
L 263.352053 54.79814 
L 263.442047 54.407442 
L 263.53733 53.365581 
L 263.625772 53.886512 
L 263.714734 53.756279 
L 263.79989 53.235349 
L 264.119139 56.491163 
L 264.225343 55.709767 
L 264.406011 56.491163 
L 264.515947 57.012093 
L 264.609549 56.621395 
L 264.800713 56.88186 
L 265.01209 56.491163 
L 265.501344 54.016744 
L 265.584972 55.058605 
L 265.691888 54.928372 
L 265.990119 53.886512 
L 266.089692 54.79814 
L 266.26433 53.365581 
L 266.35048 53.756279 
L 266.437042 53.626047 
L 266.522178 52.323721 
L 266.693387 53.105116 
L 266.796913 53.105116 
L 266.971319 51.151628 
L 267.125095 51.151628 
L 267.343488 50.891163 
L 267.527027 50.109767 
L 267.89536 54.016744 
L 267.980901 53.756279 
L 268.235755 54.667907 
L 268.320985 54.537674 
L 268.590466 52.844651 
L 268.755444 54.928372 
L 268.839258 53.756279 
L 269.102066 55.31907 
L 269.185143 55.31907 
L 269.354335 56.751628 
L 269.52502 56.36093 
L 269.859596 58.053953 
L 270.180496 58.574884 
L 270.549131 55.31907 
L 270.723724 55.449302 
L 270.821105 55.188837 
L 270.911537 54.277209 
L 271.079385 55.84 
L 271.162413 55.709767 
L 271.24513 56.491163 
L 271.329598 55.31907 
L 271.421336 55.579535 
L 271.506027 56.36093 
L 271.590709 55.970233 
L 271.762525 54.537674 
L 271.854818 55.449302 
L 272.021544 53.105116 
L 272.361393 54.146977 
L 272.448402 53.105116 
L 272.530933 53.756279 
L 272.615267 53.626047 
L 272.835008 53.235349 
L 272.919902 53.235349 
L 273.001892 52.714419 
L 273.175159 53.235349 
L 273.424549 51.933023 
L 273.508128 52.584186 
L 273.67237 51.151628 
L 273.75558 51.28186 
L 273.83789 52.193488 
L 273.919308 51.412093 
L 274.001884 51.802791 
L 274.085773 51.021395 
L 274.169465 51.151628 
L 274.253872 51.28186 
L 274.506072 53.235349 
L 274.59983 53.626047 
L 274.850789 51.28186 
L 275.015971 51.802791 
L 275.183557 51.151628 
L 275.271771 51.542326 
L 275.460283 50.630698 
L 275.684843 51.672558 
L 275.767146 51.802791 
L 276.018811 52.844651 
L 276.268696 53.886512 
L 276.353318 54.277209 
L 276.43591 54.016744 
L 276.605193 54.537674 
L 276.775965 54.277209 
L 276.858648 54.667907 
L 276.944488 54.537674 
L 277.19689 52.193488 
L 277.372887 53.626047 
L 277.460069 53.626047 
L 277.798932 50.76093 
L 277.965257 50.109767 
L 278.139019 51.151628 
L 278.356851 50.76093 
L 278.448616 50.891163 
L 278.550513 49.849302 
L 278.66145 50.500465 
L 278.753906 49.979535 
L 279.013777 51.28186 
L 279.103862 49.979535 
L 279.210988 50.370233 
L 279.306116 49.588837 
L 279.393089 50.630698 
L 279.65568 49.849302 
L 279.906987 51.933023 
L 279.993599 51.542326 
L 280.248606 52.584186 
L 280.413646 54.277209 
L 280.578834 52.974884 
L 280.660986 53.886512 
L 280.826953 53.365581 
L 280.910983 53.105116 
L 280.994309 53.235349 
L 281.213259 54.537674 
L 281.297794 54.537674 
L 281.381488 55.058605 
L 281.546698 54.277209 
L 282.142829 56.751628 
L 282.232553 56.36093 
L 282.315451 56.491163 
L 282.400538 56.751628 
L 282.571703 57.923721 
L 282.824602 58.184186 
L 282.909719 57.533023 
L 282.993831 58.314419 
L 283.247851 61.96093 
L 283.331469 61.049302 
L 283.416473 61.179535 
L 283.498679 61.179535 
L 283.665907 60.528372 
L 283.980312 61.179535 
L 284.259922 59.746977 
L 284.453477 60.91907 
L 284.557833 61.570233 
L 284.748276 60.91907 
L 284.829876 61.179535 
L 284.91189 61.830698 
L 285.079832 60.658605 
L 285.32994 58.444651 
L 285.50544 58.835349 
L 285.5926 58.835349 
L 285.680106 58.965581 
L 285.934973 57.272558 
L 286.02627 58.053953 
L 286.110404 56.88186 
L 286.193709 57.012093 
L 286.276962 57.533023 
L 286.361449 57.402791 
L 286.621828 56.621395 
L 286.710648 57.663256 
L 286.840454 57.402791 
L 287.171436 54.277209 
L 287.253113 53.626047 
L 287.334652 54.407442 
L 287.50238 52.323721 
L 287.585276 52.453953 
L 287.835417 53.626047 
L 287.917483 54.016744 
L 288.002463 53.756279 
L 288.249826 52.323721 
L 288.333892 52.323721 
L 288.419584 52.193488 
L 288.501842 52.323721 
L 288.58488 52.193488 
L 288.838576 52.714419 
L 288.932223 52.193488 
L 289.195581 53.235349 
L 289.276934 51.672558 
L 289.457861 53.626047 
L 289.611093 53.105116 
L 289.868205 53.756279 
L 289.954351 53.235349 
L 290.271485 56.230698 
L 290.637974 55.449302 
L 290.745722 55.579535 
L 290.99191 56.88186 
L 291.07377 56.751628 
L 291.163467 56.100465 
L 291.496407 58.314419 
L 291.5777 58.574884 
L 291.914608 56.751628 
L 291.99731 57.793488 
L 292.161762 56.36093 
L 292.331561 57.402791 
L 292.470105 57.663256 
L 292.555476 57.533023 
L 293.004842 55.31907 
L 293.175518 56.36093 
L 293.596366 54.667907 
L 293.677812 56.100465 
L 293.761729 55.970233 
L 293.850485 56.491163 
L 294.185803 54.79814 
L 294.351547 56.621395 
L 294.601254 55.188837 
L 294.685521 55.970233 
L 294.937082 54.79814 
L 295.022093 54.928372 
L 295.106381 54.79814 
L 295.242593 55.188837 
L 295.327647 54.667907 
L 295.41815 54.928372 
L 295.666696 54.667907 
L 295.832364 54.667907 
L 296.001475 55.058605 
L 296.089598 55.188837 
L 296.176187 55.709767 
L 296.259171 53.886512 
L 296.342688 54.016744 
L 296.510025 52.453953 
L 296.593767 52.584186 
L 296.67761 53.235349 
L 296.759436 53.105116 
L 296.925063 51.802791 
L 297.008884 52.323721 
L 297.17424 51.802791 
L 297.339329 52.584186 
L 297.424192 53.105116 
L 297.684359 51.28186 
L 297.772091 51.28186 
L 298.071856 50.500465 
L 298.158416 51.021395 
L 298.334841 50.630698 
L 298.416034 52.063256 
L 298.503089 51.412093 
L 298.590507 51.672558 
L 298.776047 50.500465 
L 298.873677 50.891163 
L 298.988311 51.672558 
L 299.1759 51.151628 
L 299.270732 51.542326 
L 299.380223 51.28186 
L 299.481774 51.412093 
L 299.564536 52.453953 
L 299.649231 52.323721 
L 299.732101 52.323721 
L 299.816574 52.584186 
L 299.940002 52.323721 
L 300.046764 52.453953 
L 300.132803 51.542326 
L 300.477871 54.277209 
L 300.560885 53.756279 
L 300.73285 55.449302 
L 300.825969 55.970233 
L 301.134583 55.579535 
L 301.224847 54.79814 
L 301.566851 56.751628 
L 301.648562 56.621395 
L 301.814048 55.709767 
L 301.982753 56.491163 
L 302.319465 54.016744 
L 302.406 54.407442 
L 302.49219 54.146977 
L 302.573085 55.188837 
L 302.657433 54.537674 
L 302.742383 55.449302 
L 302.910415 54.407442 
L 302.99555 54.537674 
L 303.077318 54.407442 
L 303.159477 55.188837 
L 303.579641 52.974884 
L 303.708734 52.453953 
L 303.791087 52.714419 
L 304.30115 49.458605 
L 304.887911 55.579535 
L 304.970074 55.188837 
L 305.05726 55.579535 
L 305.140434 55.31907 
L 305.224671 55.970233 
L 305.307108 55.84 
L 305.389857 55.579535 
L 305.474897 55.970233 
L 305.559895 55.31907 
L 305.64405 56.100465 
L 305.810806 55.579535 
L 305.915374 55.579535 
L 305.997786 54.79814 
L 306.165239 56.100465 
L 306.250826 56.100465 
L 306.338123 56.751628 
L 306.472132 56.88186 
L 306.643531 58.444651 
L 306.809973 59.877209 
L 306.891682 59.877209 
L 306.974975 60.528372 
L 307.305653 57.402791 
L 307.388672 57.533023 
L 307.640971 56.88186 
L 307.893638 55.31907 
L 307.981946 55.970233 
L 308.071592 55.188837 
L 308.154542 55.709767 
L 308.241122 55.188837 
L 308.420053 57.272558 
L 308.513639 56.88186 
L 308.603192 57.793488 
L 308.769861 56.491163 
L 308.851817 57.533023 
L 308.936175 56.36093 
L 309.018516 56.621395 
L 309.103184 56.230698 
L 309.239098 56.621395 
L 309.40872 55.709767 
L 309.493444 56.100465 
L 309.659442 54.928372 
L 309.911306 56.88186 
L 310.077644 55.84 
L 310.163834 55.970233 
L 310.411317 57.142326 
L 310.586812 55.970233 
L 310.750701 57.142326 
L 310.834209 57.402791 
L 311.000445 55.709767 
L 311.083739 56.100465 
L 311.333411 57.402791 
L 311.41538 57.012093 
L 311.498533 57.272558 
L 311.57969 56.621395 
L 311.661346 57.012093 
L 311.742833 55.84 
L 311.825499 56.100465 
L 312.120109 54.928372 
L 312.201952 55.058605 
L 312.448898 53.756279 
L 312.613449 54.667907 
L 312.956588 53.365581 
L 313.123171 54.016744 
L 313.206335 53.886512 
L 313.288765 53.495814 
L 313.372679 53.756279 
L 313.455077 53.495814 
L 313.537207 53.756279 
L 313.625564 53.626047 
L 313.707793 53.105116 
L 313.791636 53.365581 
L 313.874461 53.105116 
L 313.956919 53.235349 
L 314.039238 52.844651 
L 314.286668 53.756279 
L 314.368676 53.756279 
L 314.688408 56.751628 
L 314.770472 56.36093 
L 314.855076 56.491163 
L 314.937838 56.751628 
L 315.107101 56.100465 
L 315.188995 56.491163 
L 315.360304 56.100465 
L 315.526278 56.491163 
L 315.778114 55.579535 
L 315.863257 56.100465 
L 316.359287 53.886512 
L 316.859548 53.886512 
L 316.941426 54.277209 
L 317.192855 52.063256 
L 317.28143 52.584186 
L 317.412054 52.193488 
L 317.767598 52.974884 
L 317.860856 54.016744 
L 318.061826 53.235349 
L 318.159624 52.974884 
L 318.454365 53.626047 
L 318.558171 53.365581 
L 318.656236 52.584186 
L 318.755184 52.714419 
L 318.850809 52.063256 
L 319.040106 52.844651 
L 319.126756 52.453953 
L 319.335425 52.584186 
L 319.433073 52.584186 
L 319.519566 53.365581 
L 319.797881 52.063256 
L 319.912549 52.063256 
L 320.017834 50.891163 
L 320.127011 51.021395 
L 320.402719 49.458605 
L 320.555868 49.588837 
L 320.651263 49.328372 
L 320.839506 47.244651 
L 320.932411 47.895814 
L 321.016483 47.765581 
L 321.100951 48.286512 
L 321.186618 47.895814 
L 321.278762 48.026047 
L 321.485682 47.114419 
L 321.682681 48.026047 
L 321.768936 48.156279 
L 321.860798 48.677209 
L 322.037956 47.505116 
L 322.142508 47.374884 
L 322.23849 46.463256 
L 322.421652 46.853953 
L 322.51109 46.853953 
L 322.594142 47.765581 
L 322.676359 47.635349 
L 322.758878 47.505116 
L 323.035685 48.937674 
L 323.218938 49.979535 
L 323.308327 49.849302 
L 323.82237 51.933023 
L 323.92615 51.542326 
L 324.107708 52.714419 
L 324.486519 53.235349 
L 324.579039 53.756279 
L 324.667284 53.235349 
L 325.102884 56.621395 
L 325.191586 56.36093 
L 325.368266 55.058605 
L 325.449819 55.449302 
L 325.53353 55.058605 
L 325.702057 55.84 
L 325.873146 54.667907 
L 326.046869 55.188837 
L 326.450783 53.495814 
L 326.646651 53.105116 
L 326.812696 52.193488 
L 326.899646 52.974884 
L 326.984212 52.323721 
L 327.069279 53.626047 
L 327.331264 52.714419 
L 327.762684 51.412093 
L 327.854616 50.76093 
L 327.94612 50.891163 
L 328.038272 52.453953 
L 328.129685 52.323721 
L 328.22203 53.495814 
L 328.42229 52.584186 
L 328.513706 53.235349 
L 328.606601 52.193488 
L 328.794599 53.495814 
L 328.886529 53.365581 
L 329.070216 53.886512 
L 329.259923 53.495814 
L 329.497883 54.79814 
L 329.586648 54.667907 
L 329.677267 54.277209 
L 329.780128 55.188837 
L 329.868335 53.235349 
L 329.974483 53.886512 
L 330.098576 53.626047 
L 330.305984 54.277209 
L 330.57952 52.974884 
L 330.663756 53.626047 
L 330.7481 53.495814 
L 330.843207 53.756279 
L 331.109527 50.76093 
L 331.199336 51.933023 
L 331.301943 51.802791 
L 331.398371 51.021395 
L 331.503041 52.063256 
L 331.705841 50.891163 
L 331.812044 51.412093 
L 331.904023 51.28186 
L 332.183911 52.323721 
L 332.403479 51.412093 
L 332.644456 52.193488 
L 332.726465 51.542326 
L 332.80995 51.933023 
L 332.89323 51.542326 
L 332.977512 52.584186 
L 333.062862 51.542326 
L 333.148388 51.672558 
L 333.247179 51.672558 
L 333.341848 51.151628 
L 333.429783 51.542326 
L 333.512466 51.28186 
L 333.603273 51.802791 
L 333.779038 50.891163 
L 333.868173 52.323721 
L 334.160122 51.542326 
L 334.268101 51.672558 
L 334.441806 51.28186 
L 334.637746 50.370233 
L 334.851878 49.979535 
L 334.953797 49.588837 
L 335.232956 50.24 
L 335.432514 48.807442 
L 335.66693 49.458605 
L 335.849434 48.677209 
L 335.936644 49.849302 
L 336.018737 49.71907 
L 336.1062 49.588837 
L 336.28274 49.849302 
L 336.370833 49.71907 
L 336.461844 49.328372 
L 336.653441 51.151628 
L 336.749836 49.979535 
L 336.840711 50.76093 
L 336.927042 50.500465 
L 337.09563 52.193488 
L 337.266755 52.193488 
L 337.380371 52.844651 
L 337.468995 52.584186 
L 337.719583 54.016744 
L 337.806514 53.626047 
L 337.902997 54.277209 
L 337.993719 53.626047 
L 338.165527 55.449302 
L 338.251457 54.407442 
L 338.485074 55.449302 
L 338.591143 55.31907 
L 338.692689 54.537674 
L 338.781791 55.058605 
L 338.866361 54.537674 
L 339.042737 54.79814 
L 339.322239 53.756279 
L 339.407226 53.105116 
L 339.572148 53.756279 
L 339.657172 53.756279 
L 339.8352 52.584186 
L 339.921863 52.714419 
L 340.007148 53.105116 
L 340.17335 52.714419 
L 340.262652 52.453953 
L 340.34694 51.412093 
L 340.429762 51.672558 
L 340.515091 51.28186 
L 340.598732 51.412093 
L 340.680884 51.412093 
L 340.848889 49.71907 
L 340.932219 50.24 
L 341.014803 50.109767 
L 341.098158 49.328372 
L 341.31321 50.630698 
L 341.394883 50.370233 
L 341.738815 53.495814 
L 341.827968 53.235349 
L 342.342127 54.79814 
L 342.511793 55.970233 
L 342.599781 56.230698 
L 342.775076 55.579535 
L 342.862595 55.709767 
L 343.115676 58.705116 
L 343.198119 58.053953 
L 343.449612 59.616744 
L 343.533396 59.226047 
L 343.617898 59.356279 
L 343.699846 59.746977 
L 343.781847 58.965581 
L 343.864659 59.616744 
L 343.949149 58.965581 
L 344.085384 58.835349 
L 344.167876 58.444651 
L 344.335542 58.574884 
L 344.419886 58.444651 
L 344.586329 58.705116 
L 344.669459 58.705116 
L 344.918414 57.402791 
L 345.00408 57.402791 
L 345.086394 56.491163 
L 345.336494 57.533023 
L 345.516227 55.579535 
L 345.610373 55.84 
L 345.783527 55.579535 
L 345.881026 54.928372 
L 345.969736 55.058605 
L 346.145624 55.84 
L 346.239928 55.84 
L 346.413184 56.36093 
L 346.50266 55.058605 
L 346.587982 55.449302 
L 346.684836 55.31907 
L 346.909236 54.667907 
L 346.993772 54.537674 
L 347.157863 55.449302 
L 347.241244 55.058605 
L 347.405671 55.449302 
L 347.489225 54.016744 
L 347.570578 54.277209 
L 347.653775 53.756279 
L 347.737247 54.277209 
L 347.90321 52.974884 
L 347.988159 52.844651 
L 348.330483 50.891163 
L 348.415675 50.891163 
L 348.496553 52.063256 
L 348.66334 50.76093 
L 348.745438 50.76093 
L 348.915068 48.546977 
L 349.002312 48.937674 
L 349.094816 48.937674 
L 349.264952 49.328372 
L 349.451317 49.328372 
L 349.533616 48.156279 
L 349.669744 48.677209 
L 349.755 48.026047 
L 349.837948 48.156279 
L 350.009362 47.505116 
L 350.185354 48.546977 
L 350.453253 49.458605 
L 351.041002 53.495814 
L 351.124448 52.714419 
L 351.37875 54.667907 
L 351.461837 54.928372 
L 351.625887 56.230698 
L 351.711477 55.84 
L 351.798377 56.230698 
L 351.886467 55.579535 
L 351.969833 55.709767 
L 352.135017 56.621395 
L 352.300378 55.579535 
L 352.43237 55.84 
L 352.685818 56.88186 
L 352.852793 56.230698 
L 353.023506 56.621395 
L 353.106475 55.709767 
L 353.189729 56.36093 
L 353.274978 55.709767 
L 353.358438 55.84 
L 353.612024 54.667907 
L 353.694116 54.79814 
L 354.046082 53.235349 
L 354.436185 51.412093 
L 354.526117 51.542326 
L 354.693668 51.28186 
L 355.035096 53.756279 
L 355.275168 51.933023 
L 355.453433 51.802791 
L 355.708449 50.370233 
L 355.791148 50.630698 
L 356.042662 48.677209 
L 356.208686 46.723721 
L 356.292017 46.984186 
L 356.541354 45.16093 
L 356.630453 45.421395 
L 356.794769 46.202791 
L 356.877454 46.463256 
L 356.961222 47.374884 
L 357.213989 46.593488 
L 357.383819 46.593488 
L 357.470587 46.333023 
L 357.641446 44.64 
L 357.725247 45.030698 
L 357.892381 46.853953 
L 358.186785 45.68186 
L 358.351499 47.244651 
L 358.434674 47.114419 
L 358.516774 47.505116 
L 358.767399 49.328372 
L 358.849453 49.067907 
L 359.014535 49.979535 
L 359.264846 52.063256 
L 359.346177 51.933023 
L 359.515858 52.193488 
L 359.68129 53.886512 
L 359.852569 53.495814 
L 360.027361 52.974884 
L 360.298772 54.277209 
L 360.38204 52.844651 
L 360.769523 55.449302 
L 361.02046 54.277209 
L 361.103365 54.016744 
L 361.355987 55.058605 
L 361.603939 57.272558 
L 361.767058 55.188837 
L 361.93259 56.621395 
L 362.101864 55.709767 
L 362.270257 54.277209 
L 362.440204 54.277209 
L 362.521891 55.31907 
L 362.696187 53.886512 
L 362.784674 54.79814 
L 362.868598 54.407442 
L 362.954022 55.449302 
L 363.209569 53.756279 
L 363.379438 55.579535 
L 363.509965 55.188837 
L 363.675478 56.88186 
L 363.926576 56.36093 
L 364.18204 53.756279 
L 364.34696 53.756279 
L 364.513196 51.412093 
L 364.598253 52.323721 
L 364.683321 52.193488 
L 364.854464 51.542326 
L 364.943846 52.193488 
L 365.032434 51.802791 
L 365.116998 50.76093 
L 365.203355 51.542326 
L 365.29088 51.412093 
L 365.3785 50.630698 
L 365.462832 51.021395 
L 365.550495 49.328372 
L 365.638066 49.849302 
L 365.818101 51.672558 
L 365.99615 49.328372 
L 366.082912 49.588837 
L 366.170385 48.677209 
L 366.74996 51.412093 
L 367.002076 53.365581 
L 367.087071 53.626047 
L 367.175699 54.667907 
L 367.261361 53.235349 
L 367.428675 54.79814 
L 367.51317 54.146977 
L 367.597511 53.626047 
L 367.940229 55.058605 
L 368.044995 55.058605 
L 368.141571 54.667907 
L 368.226964 55.449302 
L 368.480083 52.844651 
L 368.565159 52.844651 
L 368.733384 53.495814 
L 368.992763 53.495814 
L 369.218225 52.453953 
L 369.307961 53.105116 
L 369.391028 52.584186 
L 369.647851 49.849302 
L 369.819277 49.458605 
L 369.901731 50.630698 
L 369.989521 49.849302 
L 370.074797 49.979535 
L 370.169748 50.891163 
L 370.253661 50.109767 
L 370.350619 50.24 
L 370.437458 49.849302 
L 370.521917 49.979535 
L 370.711916 50.76093 
L 370.884865 49.71907 
L 370.968589 49.71907 
L 371.137615 50.500465 
L 371.486587 49.849302 
L 371.66441 48.807442 
L 372.319178 51.933023 
L 372.576255 50.370233 
L 372.66313 50.891163 
L 372.831753 49.979535 
L 373.000461 51.672558 
L 373.082033 51.542326 
L 373.16616 51.802791 
L 373.249708 50.891163 
L 373.331557 51.412093 
L 373.581818 54.667907 
L 373.581818 54.667907 
" clip-path="url(#pa4f6902cbf)" style="fill: none; stroke: #1f77b4; stroke-width: 1.5; stroke-linecap: square"/>
   </g>
   <g id="line2d_32">
    <path d="M 92.01944 185.291163 
L 94.789983 168.88186 
L 97.53755 154.816744 
L 100.298581 139.970233 
L 103.069828 125.123721 
L 105.810831 113.988837 
L 108.53649 104.612093 
L 111.274595 96.212093 
L 113.989102 88.984186 
L 116.740462 84.491163 
L 119.486891 83.31907 
L 122.207433 82.146977 
L 124.947349 79.216744 
L 127.706404 75.505116 
L 130.46063 75.114419 
L 133.197683 73.942326 
L 135.917802 72.574884 
L 138.667728 72.574884 
L 141.417046 71.793488 
L 144.175671 69.84 
L 146.879921 66.51907 
L 149.622964 64.370233 
L 152.369801 63.002791 
L 155.076302 62.416744 
L 157.78724 59.68186 
L 160.508869 58.11907 
L 163.260017 57.923721 
L 165.993148 58.11907 
L 168.742076 57.728372 
L 171.515283 58.509767 
L 174.242343 56.751628 
L 176.996856 57.142326 
L 179.722178 55.579535 
L 182.457711 55.774884 
L 185.195703 56.751628 
L 187.926561 57.142326 
L 190.726916 56.165581 
L 193.470361 54.407442 
L 196.193722 54.993488 
L 198.925137 52.844651 
L 201.65893 53.430698 
L 204.432768 51.672558 
L 207.347975 54.407442 
L 210.16246 55.384186 
L 212.904243 55.384186 
L 215.792207 54.993488 
L 218.617058 55.384186 
L 221.394482 54.016744 
L 224.298289 53.235349 
L 227.184096 54.602791 
L 230.011326 55.579535 
L 232.929014 56.556279 
L 235.547731 55.774884 
L 238.36449 55.579535 
L 241.252949 54.79814 
L 244.071318 55.970233 
L 246.85904 57.142326 
L 249.716277 56.36093 
L 252.521146 56.946977 
L 255.37716 56.556279 
L 258.133109 56.36093 
L 261.008741 55.774884 
L 263.939123 54.993488 
L 267.01888 54.407442 
L 269.904924 57.337674 
L 272.740808 54.79814 
L 275.502153 53.821395 
L 278.262682 55.188837 
L 281.12195 54.212093 
L 283.886631 55.579535 
L 286.753341 54.79814 
L 289.5058 54.993488 
L 292.37554 53.430698 
L 295.149934 52.844651 
L 297.897228 51.086512 
L 300.868135 52.258605 
L 303.620094 52.649302 
L 306.382174 53.821395 
L 309.145055 56.36093 
L 311.866996 55.188837 
L 314.599467 55.774884 
L 317.322497 56.946977 
L 320.455427 59.486512 
L 323.441244 59.486512 
L 326.345664 58.900465 
L 329.308501 59.68186 
L 332.451878 58.509767 
L 335.484956 57.923721 
L 338.380856 56.751628 
L 341.221924 57.337674 
L 343.989606 57.142326 
L 346.817476 55.579535 
L 349.577943 53.235349 
L 352.342906 52.649302 
L 355.177533 51.867907 
L 357.933439 50.500465 
L 360.675173 50.109767 
L 363.421049 50.500465 
L 366.215028 50.891163 
L 369.036346 50.305116 
L 371.876142 49.71907 
" clip-path="url(#pa4f6902cbf)" style="fill: none; stroke: #ff7f0e; stroke-width: 1.5; stroke-linecap: square"/>
   </g>
   <g id="patch_3">
    <path d="M 54 256.32 
L 54 34.56 
" style="fill: none; stroke: #000000; stroke-width: 0.8; stroke-linejoin: miter; stroke-linecap: square"/>
   </g>
   <g id="patch_4">
    <path d="M 388.8 256.32 
L 388.8 34.56 
" style="fill: none; stroke: #000000; stroke-width: 0.8; stroke-linejoin: miter; stroke-linecap: square"/>
   </g>
   <g id="patch_5">
    <path d="M 54 256.32 
L 388.8 256.32 
" style="fill: none; stroke: #000000; stroke-width: 0.8; stroke-linejoin: miter; stroke-linecap: square"/>
   </g>
   <g id="patch_6">
    <path d="M 54 34.56 
L 388.8 34.56 
" style="fill: none; stroke: #000000; stroke-width: 0.8; stroke-linejoin: miter; stroke-linecap: square"/>
   </g>
   <g id="text_18">
    <!-- Percentage of letters classified correctly -->
    <g transform="translate(100.829063 28.56)scale(0.12 -0.12)">
     <defs>
      <path id="DejaVuSans-65" d="M 3597 1894 
L 3597 1613 
L 953 1613 
Q 991 1019 1311 708 
Q 1631 397 2203 397 
Q 2534 397 2845 478 
Q 3156 559 3463 722 
L 3463 178 
Q 3153 47 2828 -22 
Q 2503 -91 2169 -91 
Q 1331 -91 842 396 
Q 353 884 353 1716 
Q 353 2575 817 3079 
Q 1281 3584 2069 3584 
Q 2775 3584 3186 3129 
Q 3597 2675 3597 1894 
z
M 3022 2063 
Q 3016 2534 2758 2815 
Q 2500 3097 2075 3097 
Q 1594 3097 1305 2825 
Q 1016 2553 972 2059 
L 3022 2063 
z
" transform="scale(0.015625)"/>
      <path id="DejaVuSans-63" d="M 3122 3366 
L 3122 2828 
Q 2878 2963 2633 3030 
Q 2388 3097 2138 3097 
Q 1578 3097 1268 2742 
Q 959 2388 959 1747 
Q 959 1106 1268 751 
Q 1578 397 2138 397 
Q 2388 397 2633 464 
Q 2878 531 3122 666 
L 3122 134 
Q 2881 22 2623 -34 
Q 2366 -91 2075 -91 
Q 1284 -91 818 406 
Q 353 903 353 1747 
Q 353 2603 823 3093 
Q 1294 3584 2113 3584 
Q 2378 3584 2631 3529 
Q 2884 3475 3122 3366 
z
" transform="scale(0.015625)"/>
      <path id="DejaVuSans-6e" d="M 3513 2113 
L 3513 0 
L 2938 0 
L 2938 2094 
Q 2938 2591 2744 2837 
Q 2550 3084 2163 3084 
Q 1697 3084 1428 2787 
Q 1159 2491 1159 1978 
L 1159 0 
L 581 0 
L 581 3500 
L 1159 3500 
L 1159 2956 
Q 1366 3272 1645 3428 
Q 1925 3584 2291 3584 
Q 2894 3584 3203 3211 
Q 3513 2838 3513 2113 
z
" transform="scale(0.015625)"/>
      <path id="DejaVuSans-74" d="M 1172 4494 
L 1172 3500 
L 2356 3500 
L 2356 3053 
L 1172 3053 
L 1172 1153 
Q 1172 725 1289 603 
Q 1406 481 1766 481 
L 2356 481 
L 2356 0 
L 1766 0 
Q 1100 0 847 248 
Q 594 497 594 1153 
L 594 3053 
L 172 3053 
L 172 3500 
L 594 3500 
L 594 4494 
L 1172 4494 
z
" transform="scale(0.015625)"/>
      <path id="DejaVuSans-61" d="M 2194 1759 
Q 1497 1759 1228 1600 
Q 959 1441 959 1056 
Q 959 750 1161 570 
Q 1363 391 1709 391 
Q 2188 391 2477 730 
Q 2766 1069 2766 1631 
L 2766 1759 
L 2194 1759 
z
M 3341 1997 
L 3341 0 
L 2766 0 
L 2766 531 
Q 2569 213 2275 61 
Q 1981 -91 1556 -91 
Q 1019 -91 701 211 
Q 384 513 384 1019 
Q 384 1609 779 1909 
Q 1175 2209 1959 2209 
L 2766 2209 
L 2766 2266 
Q 2766 2663 2505 2880 
Q 2244 3097 1772 3097 
Q 1472 3097 1187 3025 
Q 903 2953 641 2809 
L 641 3341 
Q 956 3463 1253 3523 
Q 1550 3584 1831 3584 
Q 2591 3584 2966 3190 
Q 3341 2797 3341 1997 
z
" transform="scale(0.015625)"/>
      <path id="DejaVuSans-67" d="M 2906 1791 
Q 2906 2416 2648 2759 
Q 2391 3103 1925 3103 
Q 1463 3103 1205 2759 
Q 947 2416 947 1791 
Q 947 1169 1205 825 
Q 1463 481 1925 481 
Q 2391 481 2648 825 
Q 2906 1169 2906 1791 
z
M 3481 434 
Q 3481 -459 3084 -895 
Q 2688 -1331 1869 -1331 
Q 1566 -1331 1297 -1286 
Q 1028 -1241 775 -1147 
L 775 -588 
Q 1028 -725 1275 -790 
Q 1522 -856 1778 -856 
Q 2344 -856 2625 -561 
Q 2906 -266 2906 331 
L 2906 616 
Q 2728 306 2450 153 
Q 2172 0 1784 0 
Q 1141 0 747 490 
Q 353 981 353 1791 
Q 353 2603 747 3093 
Q 1141 3584 1784 3584 
Q 2172 3584 2450 3431 
Q 2728 3278 2906 2969 
L 2906 3500 
L 3481 3500 
L 3481 434 
z
" transform="scale(0.015625)"/>
      <path id="DejaVuSans-66" d="M 2375 4863 
L 2375 4384 
L 1825 4384 
Q 1516 4384 1395 4259 
Q 1275 4134 1275 3809 
L 1275 3500 
L 2222 3500 
L 2222 3053 
L 1275 3053 
L 1275 0 
L 697 0 
L 697 3053 
L 147 3053 
L 147 3500 
L 697 3500 
L 697 3744 
Q 697 4328 969 4595 
Q 1241 4863 1831 4863 
L 2375 4863 
z
" transform="scale(0.015625)"/>
      <path id="DejaVuSans-6c" d="M 603 4863 
L 1178 4863 
L 1178 0 
L 603 0 
L 603 4863 
z
" transform="scale(0.015625)"/>
      <path id="DejaVuSans-69" d="M 603 3500 
L 1178 3500 
L 1178 0 
L 603 0 
L 603 3500 
z
M 603 4863 
L 1178 4863 
L 1178 4134 
L 603 4134 
L 603 4863 
z
" transform="scale(0.015625)"/>
      <path id="DejaVuSans-64" d="M 2906 2969 
L 2906 4863 
L 3481 4863 
L 3481 0 
L 2906 0 
L 2906 525 
Q 2725 213 2448 61 
Q 2172 -91 1784 -91 
Q 1150 -91 751 415 
Q 353 922 353 1747 
Q 353 2572 751 3078 
Q 1150 3584 1784 3584 
Q 2172 3584 2448 3432 
Q 2725 3281 2906 2969 
z
M 947 1747 
Q 947 1113 1208 752 
Q 1469 391 1925 391 
Q 2381 391 2643 752 
Q 2906 1113 2906 1747 
Q 2906 2381 2643 2742 
Q 2381 3103 1925 3103 
Q 1469 3103 1208 2742 
Q 947 2381 947 1747 
z
" transform="scale(0.015625)"/>
      <path id="DejaVuSans-79" d="M 2059 -325 
Q 1816 -950 1584 -1140 
Q 1353 -1331 966 -1331 
L 506 -1331 
L 506 -850 
L 844 -850 
Q 1081 -850 1212 -737 
Q 1344 -625 1503 -206 
L 1606 56 
L 191 3500 
L 800 3500 
L 1894 763 
L 2988 3500 
L 3597 3500 
L 2059 -325 
z
" transform="scale(0.015625)"/>
     </defs>
     <use xlink:href="#DejaVuSans-50"/>
     <use xlink:href="#DejaVuSans-65" x="56.677734"/>
     <use xlink:href="#DejaVuSans-72" x="118.201172"/>
     <use xlink:href="#DejaVuSans-63" x="157.064453"/>
     <use xlink:href="#DejaVuSans-65" x="212.044922"/>
     <use xlink:href="#DejaVuSans-6e" x="273.568359"/>
     <use xlink:href="#DejaVuSans-74" x="336.947266"/>
     <use xlink:href="#DejaVuSans-61" x="376.15625"/>
     <use xlink:href="#DejaVuSans-67" x="437.435547"/>
     <use xlink:href="#DejaVuSans-65" x="500.912109"/>
     <use xlink:href="#DejaVuSans-20" x="562.435547"/>
     <use xlink:href="#DejaVuSans-6f" x="594.222656"/>
     <use xlink:href="#DejaVuSans-66" x="655.404297"/>
     <use xlink:href="#DejaVuSans-20" x="690.609375"/>
     <use xlink:href="#DejaVuSans-6c" x="722.396484"/>
     <use xlink:href="#DejaVuSans-65" x="750.179688"/>
     <use xlink:href="#DejaVuSans-74" x="811.703125"/>
     <use xlink:href="#DejaVuSans-74" x="850.912109"/>
     <use xlink:href="#DejaVuSans-65" x="890.121094"/>
     <use xlink:href="#DejaVuSans-72" x="951.644531"/>
     <use xlink:href="#DejaVuSans-73" x="992.757812"/>
     <use xlink:href="#DejaVuSans-20" x="1044.857422"/>
     <use xlink:href="#DejaVuSans-63" x="1076.644531"/>
     <use xlink:href="#DejaVuSans-6c" x="1131.625"/>
     <use xlink:href="#DejaVuSans-61" x="1159.408203"/>
     <use xlink:href="#DejaVuSans-73" x="1220.6875"/>
     <use xlink:href="#DejaVuSans-73" x="1272.787109"/>
     <use xlink:href="#DejaVuSans-69" x="1324.886719"/>
     <use xlink:href="#DejaVuSans-66" x="1352.669922"/>
     <use xlink:href="#DejaVuSans-69" x="1387.875"/>
     <use xlink:href="#DejaVuSans-65" x="1415.658203"/>
     <use xlink:href="#DejaVuSans-64" x="1477.181641"/>
     <use xlink:href="#DejaVuSans-20" x="1540.658203"/>
     <use xlink:href="#DejaVuSans-63" x="1572.445312"/>
     <use xlink:href="#DejaVuSans-6f" x="1627.425781"/>
     <use xlink:href="#DejaVuSans-72" x="1688.607422"/>
     <use xlink:href="#DejaVuSans-72" x="1727.970703"/>
     <use xlink:href="#DejaVuSans-65" x="1766.833984"/>
     <use xlink:href="#DejaVuSans-63" x="1828.357422"/>
     <use xlink:href="#DejaVuSans-74" x="1883.337891"/>
     <use xlink:href="#DejaVuSans-6c" x="1922.546875"/>
     <use xlink:href="#DejaVuSans-79" x="1950.330078"/>
    </g>
   </g>
   <g id="legend_1">
    <g id="patch_7">
     <path d="M 300.565625 251.32 
L 381.8 251.32 
Q 383.8 251.32 383.8 249.32 
L 383.8 220.96375 
Q 383.8 218.96375 381.8 218.96375 
L 300.565625 218.96375 
Q 298.565625 218.96375 298.565625 220.96375 
L 298.565625 249.32 
Q 298.565625 251.32 300.565625 251.32 
z
" style="fill: #ffffff; opacity: 0.8; stroke: #cccccc; stroke-linejoin: miter"/>
    </g>
    <g id="line2d_33">
     <path d="M 302.565625 227.062187 
L 312.565625 227.062187 
L 322.565625 227.062187 
" style="fill: none; stroke: #1f77b4; stroke-width: 1.5; stroke-linecap: square"/>
    </g>
    <g id="text_19">
     <!-- training -->
     <g transform="translate(330.565625 230.562187)scale(0.1 -0.1)">
      <use xlink:href="#DejaVuSans-74"/>
      <use xlink:href="#DejaVuSans-72" x="39.208984"/>
      <use xlink:href="#DejaVuSans-61" x="80.322266"/>
      <use xlink:href="#DejaVuSans-69" x="141.601562"/>
      <use xlink:href="#DejaVuSans-6e" x="169.384766"/>
      <use xlink:href="#DejaVuSans-69" x="232.763672"/>
      <use xlink:href="#DejaVuSans-6e" x="260.546875"/>
      <use xlink:href="#DejaVuSans-67" x="323.925781"/>
     </g>
    </g>
    <g id="line2d_34">
     <path d="M 302.565625 241.740313 
L 312.565625 241.740313 
L 322.565625 241.740313 
" style="fill: none; stroke: #ff7f0e; stroke-width: 1.5; stroke-linecap: square"/>
    </g>
    <g id="text_20">
     <!-- validation -->
     <g transform="translate(330.565625 245.240313)scale(0.1 -0.1)">
      <defs>
       <path id="DejaVuSans-76" d="M 191 3500 
L 800 3500 
L 1894 563 
L 2988 3500 
L 3597 3500 
L 2284 0 
L 1503 0 
L 191 3500 
z
" transform="scale(0.015625)"/>
      </defs>
      <use xlink:href="#DejaVuSans-76"/>
      <use xlink:href="#DejaVuSans-61" x="59.179688"/>
      <use xlink:href="#DejaVuSans-6c" x="120.458984"/>
      <use xlink:href="#DejaVuSans-69" x="148.242188"/>
      <use xlink:href="#DejaVuSans-64" x="176.025391"/>
      <use xlink:href="#DejaVuSans-61" x="239.501953"/>
      <use xlink:href="#DejaVuSans-74" x="300.78125"/>
      <use xlink:href="#DejaVuSans-69" x="339.990234"/>
      <use xlink:href="#DejaVuSans-6f" x="367.773438"/>
      <use xlink:href="#DejaVuSans-6e" x="428.955078"/>
     </g>
    </g>
   </g>
  </g>
 </g>
 <defs>
  <clipPath id="pa4f6902cbf">
   <rect x="54" y="34.56" width="334.8" height="221.76"/>
  </clipPath>
 </defs>
</svg>
