<?xml version="1.0" encoding="utf-8" standalone="no"?>
<!DOCTYPE svg PUBLIC "-//W3C//DTD SVG 1.1//EN"
  "http://www.w3.org/Graphics/SVG/1.1/DTD/svg11.dtd">
<svg xmlns:xlink="http://www.w3.org/1999/xlink" width="432pt" height="288pt" viewBox="0 0 432 288" xmlns="http://www.w3.org/2000/svg" version="1.1">
 <metadata>
  <rdf:RDF xmlns:dc="http://purl.org/dc/elements/1.1/" xmlns:cc="http://creativecommons.org/ns#" xmlns:rdf="http://www.w3.org/1999/02/22-rdf-syntax-ns#">
   <cc:Work>
    <dc:type rdf:resource="http://purl.org/dc/dcmitype/StillImage"/>
    <dc:date>2023-01-30T22:30:57.853643</dc:date>
    <dc:format>image/svg+xml</dc:format>
    <dc:creator>
     <cc:Agent>
      <dc:title>Matplotlib v3.5.1, https://matplotlib.org/</dc:title>
     </cc:Agent>
    </dc:creator>
   </cc:Work>
  </rdf:RDF>
 </metadata>
 <defs>
  <style type="text/css">*{stroke-linejoin: round; stroke-linecap: butt}</style>
 </defs>
 <g id="figure_1">
  <g id="patch_1">
   <path d="M 0 288 
L 432 288 
L 432 0 
L 0 0 
z
" style="fill: #ffffff"/>
  </g>
  <g id="axes_1">
   <g id="patch_2">
    <path d="M 54 256.32 
L 388.8 256.32 
L 388.8 34.56 
L 54 34.56 
z
" style="fill: #ffffff"/>
   </g>
   <g id="matplotlib.axis_1">
    <g id="xtick_1">
     <g id="line2d_1">
      <path d="M 69.218182 256.32 
L 69.218182 34.56 
" clip-path="url(#p321a665cec)" style="fill: none; stroke: #b0b0b0; stroke-width: 0.8; stroke-linecap: square"/>
     </g>
     <g id="line2d_2">
      <defs>
       <path id="m6bb949f5e3" d="M 0 0 
L 0 3.5 
" style="stroke: #000000; stroke-width: 0.8"/>
      </defs>
      <g>
       <use xlink:href="#m6bb949f5e3" x="69.218182" y="256.32" style="stroke: #000000; stroke-width: 0.8"/>
      </g>
     </g>
     <g id="text_1">
      <!-- 0 -->
      <g transform="translate(66.036932 270.918437)scale(0.1 -0.1)">
       <defs>
        <path id="DejaVuSans-30" d="M 2034 4250 
Q 1547 4250 1301 3770 
Q 1056 3291 1056 2328 
Q 1056 1369 1301 889 
Q 1547 409 2034 409 
Q 2525 409 2770 889 
Q 3016 1369 3016 2328 
Q 3016 3291 2770 3770 
Q 2525 4250 2034 4250 
z
M 2034 4750 
Q 2819 4750 3233 4129 
Q 3647 3509 3647 2328 
Q 3647 1150 3233 529 
Q 2819 -91 2034 -91 
Q 1250 -91 836 529 
Q 422 1150 422 2328 
Q 422 3509 836 4129 
Q 1250 4750 2034 4750 
z
" transform="scale(0.015625)"/>
       </defs>
       <use xlink:href="#DejaVuSans-30"/>
      </g>
     </g>
    </g>
    <g id="xtick_2">
     <g id="line2d_3">
      <path d="M 109.8 256.32 
L 109.8 34.56 
" clip-path="url(#p321a665cec)" style="fill: none; stroke: #b0b0b0; stroke-width: 0.8; stroke-linecap: square"/>
     </g>
     <g id="line2d_4">
      <g>
       <use xlink:href="#m6bb949f5e3" x="109.8" y="256.32" style="stroke: #000000; stroke-width: 0.8"/>
      </g>
     </g>
     <g id="text_2">
      <!-- 500 -->
      <g transform="translate(100.25625 270.918437)scale(0.1 -0.1)">
       <defs>
        <path id="DejaVuSans-35" d="M 691 4666 
L 3169 4666 
L 3169 4134 
L 1269 4134 
L 1269 2991 
Q 1406 3038 1543 3061 
Q 1681 3084 1819 3084 
Q 2600 3084 3056 2656 
Q 3513 2228 3513 1497 
Q 3513 744 3044 326 
Q 2575 -91 1722 -91 
Q 1428 -91 1123 -41 
Q 819 9 494 109 
L 494 744 
Q 775 591 1075 516 
Q 1375 441 1709 441 
Q 2250 441 2565 725 
Q 2881 1009 2881 1497 
Q 2881 1984 2565 2268 
Q 2250 2553 1709 2553 
Q 1456 2553 1204 2497 
Q 953 2441 691 2322 
L 691 4666 
z
" transform="scale(0.015625)"/>
       </defs>
       <use xlink:href="#DejaVuSans-35"/>
       <use xlink:href="#DejaVuSans-30" x="63.623047"/>
       <use xlink:href="#DejaVuSans-30" x="127.246094"/>
      </g>
     </g>
    </g>
    <g id="xtick_3">
     <g id="line2d_5">
      <path d="M 150.381818 256.32 
L 150.381818 34.56 
" clip-path="url(#p321a665cec)" style="fill: none; stroke: #b0b0b0; stroke-width: 0.8; stroke-linecap: square"/>
     </g>
     <g id="line2d_6">
      <g>
       <use xlink:href="#m6bb949f5e3" x="150.381818" y="256.32" style="stroke: #000000; stroke-width: 0.8"/>
      </g>
     </g>
     <g id="text_3">
      <!-- 1000 -->
      <g transform="translate(137.656818 270.918437)scale(0.1 -0.1)">
       <defs>
        <path id="DejaVuSans-31" d="M 794 531 
L 1825 531 
L 1825 4091 
L 703 3866 
L 703 4441 
L 1819 4666 
L 2450 4666 
L 2450 531 
L 3481 531 
L 3481 0 
L 794 0 
L 794 531 
z
" transform="scale(0.015625)"/>
       </defs>
       <use xlink:href="#DejaVuSans-31"/>
       <use xlink:href="#DejaVuSans-30" x="63.623047"/>
       <use xlink:href="#DejaVuSans-30" x="127.246094"/>
       <use xlink:href="#DejaVuSans-30" x="190.869141"/>
      </g>
     </g>
    </g>
    <g id="xtick_4">
     <g id="line2d_7">
      <path d="M 190.963636 256.32 
L 190.963636 34.56 
" clip-path="url(#p321a665cec)" style="fill: none; stroke: #b0b0b0; stroke-width: 0.8; stroke-linecap: square"/>
     </g>
     <g id="line2d_8">
      <g>
       <use xlink:href="#m6bb949f5e3" x="190.963636" y="256.32" style="stroke: #000000; stroke-width: 0.8"/>
      </g>
     </g>
     <g id="text_4">
      <!-- 1500 -->
      <g transform="translate(178.238636 270.918437)scale(0.1 -0.1)">
       <use xlink:href="#DejaVuSans-31"/>
       <use xlink:href="#DejaVuSans-35" x="63.623047"/>
       <use xlink:href="#DejaVuSans-30" x="127.246094"/>
       <use xlink:href="#DejaVuSans-30" x="190.869141"/>
      </g>
     </g>
    </g>
    <g id="xtick_5">
     <g id="line2d_9">
      <path d="M 231.545455 256.32 
L 231.545455 34.56 
" clip-path="url(#p321a665cec)" style="fill: none; stroke: #b0b0b0; stroke-width: 0.8; stroke-linecap: square"/>
     </g>
     <g id="line2d_10">
      <g>
       <use xlink:href="#m6bb949f5e3" x="231.545455" y="256.32" style="stroke: #000000; stroke-width: 0.8"/>
      </g>
     </g>
     <g id="text_5">
      <!-- 2000 -->
      <g transform="translate(218.820455 270.918437)scale(0.1 -0.1)">
       <defs>
        <path id="DejaVuSans-32" d="M 1228 531 
L 3431 531 
L 3431 0 
L 469 0 
L 469 531 
Q 828 903 1448 1529 
Q 2069 2156 2228 2338 
Q 2531 2678 2651 2914 
Q 2772 3150 2772 3378 
Q 2772 3750 2511 3984 
Q 2250 4219 1831 4219 
Q 1534 4219 1204 4116 
Q 875 4013 500 3803 
L 500 4441 
Q 881 4594 1212 4672 
Q 1544 4750 1819 4750 
Q 2544 4750 2975 4387 
Q 3406 4025 3406 3419 
Q 3406 3131 3298 2873 
Q 3191 2616 2906 2266 
Q 2828 2175 2409 1742 
Q 1991 1309 1228 531 
z
" transform="scale(0.015625)"/>
       </defs>
       <use xlink:href="#DejaVuSans-32"/>
       <use xlink:href="#DejaVuSans-30" x="63.623047"/>
       <use xlink:href="#DejaVuSans-30" x="127.246094"/>
       <use xlink:href="#DejaVuSans-30" x="190.869141"/>
      </g>
     </g>
    </g>
    <g id="xtick_6">
     <g id="line2d_11">
      <path d="M 272.127273 256.32 
L 272.127273 34.56 
" clip-path="url(#p321a665cec)" style="fill: none; stroke: #b0b0b0; stroke-width: 0.8; stroke-linecap: square"/>
     </g>
     <g id="line2d_12">
      <g>
       <use xlink:href="#m6bb949f5e3" x="272.127273" y="256.32" style="stroke: #000000; stroke-width: 0.8"/>
      </g>
     </g>
     <g id="text_6">
      <!-- 2500 -->
      <g transform="translate(259.402273 270.918437)scale(0.1 -0.1)">
       <use xlink:href="#DejaVuSans-32"/>
       <use xlink:href="#DejaVuSans-35" x="63.623047"/>
       <use xlink:href="#DejaVuSans-30" x="127.246094"/>
       <use xlink:href="#DejaVuSans-30" x="190.869141"/>
      </g>
     </g>
    </g>
    <g id="xtick_7">
     <g id="line2d_13">
      <path d="M 312.709091 256.32 
L 312.709091 34.56 
" clip-path="url(#p321a665cec)" style="fill: none; stroke: #b0b0b0; stroke-width: 0.8; stroke-linecap: square"/>
     </g>
     <g id="line2d_14">
      <g>
       <use xlink:href="#m6bb949f5e3" x="312.709091" y="256.32" style="stroke: #000000; stroke-width: 0.8"/>
      </g>
     </g>
     <g id="text_7">
      <!-- 3000 -->
      <g transform="translate(299.984091 270.918437)scale(0.1 -0.1)">
       <defs>
        <path id="DejaVuSans-33" d="M 2597 2516 
Q 3050 2419 3304 2112 
Q 3559 1806 3559 1356 
Q 3559 666 3084 287 
Q 2609 -91 1734 -91 
Q 1441 -91 1130 -33 
Q 819 25 488 141 
L 488 750 
Q 750 597 1062 519 
Q 1375 441 1716 441 
Q 2309 441 2620 675 
Q 2931 909 2931 1356 
Q 2931 1769 2642 2001 
Q 2353 2234 1838 2234 
L 1294 2234 
L 1294 2753 
L 1863 2753 
Q 2328 2753 2575 2939 
Q 2822 3125 2822 3475 
Q 2822 3834 2567 4026 
Q 2313 4219 1838 4219 
Q 1578 4219 1281 4162 
Q 984 4106 628 3988 
L 628 4550 
Q 988 4650 1302 4700 
Q 1616 4750 1894 4750 
Q 2613 4750 3031 4423 
Q 3450 4097 3450 3541 
Q 3450 3153 3228 2886 
Q 3006 2619 2597 2516 
z
" transform="scale(0.015625)"/>
       </defs>
       <use xlink:href="#DejaVuSans-33"/>
       <use xlink:href="#DejaVuSans-30" x="63.623047"/>
       <use xlink:href="#DejaVuSans-30" x="127.246094"/>
       <use xlink:href="#DejaVuSans-30" x="190.869141"/>
      </g>
     </g>
    </g>
    <g id="xtick_8">
     <g id="line2d_15">
      <path d="M 353.290909 256.32 
L 353.290909 34.56 
" clip-path="url(#p321a665cec)" style="fill: none; stroke: #b0b0b0; stroke-width: 0.8; stroke-linecap: square"/>
     </g>
     <g id="line2d_16">
      <g>
       <use xlink:href="#m6bb949f5e3" x="353.290909" y="256.32" style="stroke: #000000; stroke-width: 0.8"/>
      </g>
     </g>
     <g id="text_8">
      <!-- 3500 -->
      <g transform="translate(340.565909 270.918437)scale(0.1 -0.1)">
       <use xlink:href="#DejaVuSans-33"/>
       <use xlink:href="#DejaVuSans-35" x="63.623047"/>
       <use xlink:href="#DejaVuSans-30" x="127.246094"/>
       <use xlink:href="#DejaVuSans-30" x="190.869141"/>
      </g>
     </g>
    </g>
    <g id="text_9">
     <!-- Batch number -->
     <g transform="translate(185.924219 284.596563)scale(0.1 -0.1)">
      <defs>
       <path id="DejaVuSans-42" d="M 1259 2228 
L 1259 519 
L 2272 519 
Q 2781 519 3026 730 
Q 3272 941 3272 1375 
Q 3272 1813 3026 2020 
Q 2781 2228 2272 2228 
L 1259 2228 
z
M 1259 4147 
L 1259 2741 
L 2194 2741 
Q 2656 2741 2882 2914 
Q 3109 3088 3109 3444 
Q 3109 3797 2882 3972 
Q 2656 4147 2194 4147 
L 1259 4147 
z
M 628 4666 
L 2241 4666 
Q 2963 4666 3353 4366 
Q 3744 4066 3744 3513 
Q 3744 3084 3544 2831 
Q 3344 2578 2956 2516 
Q 3422 2416 3680 2098 
Q 3938 1781 3938 1306 
Q 3938 681 3513 340 
Q 3088 0 2303 0 
L 628 0 
L 628 4666 
z
" transform="scale(0.015625)"/>
       <path id="DejaVuSans-61" d="M 2194 1759 
Q 1497 1759 1228 1600 
Q 959 1441 959 1056 
Q 959 750 1161 570 
Q 1363 391 1709 391 
Q 2188 391 2477 730 
Q 2766 1069 2766 1631 
L 2766 1759 
L 2194 1759 
z
M 3341 1997 
L 3341 0 
L 2766 0 
L 2766 531 
Q 2569 213 2275 61 
Q 1981 -91 1556 -91 
Q 1019 -91 701 211 
Q 384 513 384 1019 
Q 384 1609 779 1909 
Q 1175 2209 1959 2209 
L 2766 2209 
L 2766 2266 
Q 2766 2663 2505 2880 
Q 2244 3097 1772 3097 
Q 1472 3097 1187 3025 
Q 903 2953 641 2809 
L 641 3341 
Q 956 3463 1253 3523 
Q 1550 3584 1831 3584 
Q 2591 3584 2966 3190 
Q 3341 2797 3341 1997 
z
" transform="scale(0.015625)"/>
       <path id="DejaVuSans-74" d="M 1172 4494 
L 1172 3500 
L 2356 3500 
L 2356 3053 
L 1172 3053 
L 1172 1153 
Q 1172 725 1289 603 
Q 1406 481 1766 481 
L 2356 481 
L 2356 0 
L 1766 0 
Q 1100 0 847 248 
Q 594 497 594 1153 
L 594 3053 
L 172 3053 
L 172 3500 
L 594 3500 
L 594 4494 
L 1172 4494 
z
" transform="scale(0.015625)"/>
       <path id="DejaVuSans-63" d="M 3122 3366 
L 3122 2828 
Q 2878 2963 2633 3030 
Q 2388 3097 2138 3097 
Q 1578 3097 1268 2742 
Q 959 2388 959 1747 
Q 959 1106 1268 751 
Q 1578 397 2138 397 
Q 2388 397 2633 464 
Q 2878 531 3122 666 
L 3122 134 
Q 2881 22 2623 -34 
Q 2366 -91 2075 -91 
Q 1284 -91 818 406 
Q 353 903 353 1747 
Q 353 2603 823 3093 
Q 1294 3584 2113 3584 
Q 2378 3584 2631 3529 
Q 2884 3475 3122 3366 
z
" transform="scale(0.015625)"/>
       <path id="DejaVuSans-68" d="M 3513 2113 
L 3513 0 
L 2938 0 
L 2938 2094 
Q 2938 2591 2744 2837 
Q 2550 3084 2163 3084 
Q 1697 3084 1428 2787 
Q 1159 2491 1159 1978 
L 1159 0 
L 581 0 
L 581 4863 
L 1159 4863 
L 1159 2956 
Q 1366 3272 1645 3428 
Q 1925 3584 2291 3584 
Q 2894 3584 3203 3211 
Q 3513 2838 3513 2113 
z
" transform="scale(0.015625)"/>
       <path id="DejaVuSans-20" transform="scale(0.015625)"/>
       <path id="DejaVuSans-6e" d="M 3513 2113 
L 3513 0 
L 2938 0 
L 2938 2094 
Q 2938 2591 2744 2837 
Q 2550 3084 2163 3084 
Q 1697 3084 1428 2787 
Q 1159 2491 1159 1978 
L 1159 0 
L 581 0 
L 581 3500 
L 1159 3500 
L 1159 2956 
Q 1366 3272 1645 3428 
Q 1925 3584 2291 3584 
Q 2894 3584 3203 3211 
Q 3513 2838 3513 2113 
z
" transform="scale(0.015625)"/>
       <path id="DejaVuSans-75" d="M 544 1381 
L 544 3500 
L 1119 3500 
L 1119 1403 
Q 1119 906 1312 657 
Q 1506 409 1894 409 
Q 2359 409 2629 706 
Q 2900 1003 2900 1516 
L 2900 3500 
L 3475 3500 
L 3475 0 
L 2900 0 
L 2900 538 
Q 2691 219 2414 64 
Q 2138 -91 1772 -91 
Q 1169 -91 856 284 
Q 544 659 544 1381 
z
M 1991 3584 
L 1991 3584 
z
" transform="scale(0.015625)"/>
       <path id="DejaVuSans-6d" d="M 3328 2828 
Q 3544 3216 3844 3400 
Q 4144 3584 4550 3584 
Q 5097 3584 5394 3201 
Q 5691 2819 5691 2113 
L 5691 0 
L 5113 0 
L 5113 2094 
Q 5113 2597 4934 2840 
Q 4756 3084 4391 3084 
Q 3944 3084 3684 2787 
Q 3425 2491 3425 1978 
L 3425 0 
L 2847 0 
L 2847 2094 
Q 2847 2600 2669 2842 
Q 2491 3084 2119 3084 
Q 1678 3084 1418 2786 
Q 1159 2488 1159 1978 
L 1159 0 
L 581 0 
L 581 3500 
L 1159 3500 
L 1159 2956 
Q 1356 3278 1631 3431 
Q 1906 3584 2284 3584 
Q 2666 3584 2933 3390 
Q 3200 3197 3328 2828 
z
" transform="scale(0.015625)"/>
       <path id="DejaVuSans-62" d="M 3116 1747 
Q 3116 2381 2855 2742 
Q 2594 3103 2138 3103 
Q 1681 3103 1420 2742 
Q 1159 2381 1159 1747 
Q 1159 1113 1420 752 
Q 1681 391 2138 391 
Q 2594 391 2855 752 
Q 3116 1113 3116 1747 
z
M 1159 2969 
Q 1341 3281 1617 3432 
Q 1894 3584 2278 3584 
Q 2916 3584 3314 3078 
Q 3713 2572 3713 1747 
Q 3713 922 3314 415 
Q 2916 -91 2278 -91 
Q 1894 -91 1617 61 
Q 1341 213 1159 525 
L 1159 0 
L 581 0 
L 581 4863 
L 1159 4863 
L 1159 2969 
z
" transform="scale(0.015625)"/>
       <path id="DejaVuSans-65" d="M 3597 1894 
L 3597 1613 
L 953 1613 
Q 991 1019 1311 708 
Q 1631 397 2203 397 
Q 2534 397 2845 478 
Q 3156 559 3463 722 
L 3463 178 
Q 3153 47 2828 -22 
Q 2503 -91 2169 -91 
Q 1331 -91 842 396 
Q 353 884 353 1716 
Q 353 2575 817 3079 
Q 1281 3584 2069 3584 
Q 2775 3584 3186 3129 
Q 3597 2675 3597 1894 
z
M 3022 2063 
Q 3016 2534 2758 2815 
Q 2500 3097 2075 3097 
Q 1594 3097 1305 2825 
Q 1016 2553 972 2059 
L 3022 2063 
z
" transform="scale(0.015625)"/>
       <path id="DejaVuSans-72" d="M 2631 2963 
Q 2534 3019 2420 3045 
Q 2306 3072 2169 3072 
Q 1681 3072 1420 2755 
Q 1159 2438 1159 1844 
L 1159 0 
L 581 0 
L 581 3500 
L 1159 3500 
L 1159 2956 
Q 1341 3275 1631 3429 
Q 1922 3584 2338 3584 
Q 2397 3584 2469 3576 
Q 2541 3569 2628 3553 
L 2631 2963 
z
" transform="scale(0.015625)"/>
      </defs>
      <use xlink:href="#DejaVuSans-42"/>
      <use xlink:href="#DejaVuSans-61" x="68.603516"/>
      <use xlink:href="#DejaVuSans-74" x="129.882812"/>
      <use xlink:href="#DejaVuSans-63" x="169.091797"/>
      <use xlink:href="#DejaVuSans-68" x="224.072266"/>
      <use xlink:href="#DejaVuSans-20" x="287.451172"/>
      <use xlink:href="#DejaVuSans-6e" x="319.238281"/>
      <use xlink:href="#DejaVuSans-75" x="382.617188"/>
      <use xlink:href="#DejaVuSans-6d" x="445.996094"/>
      <use xlink:href="#DejaVuSans-62" x="543.408203"/>
      <use xlink:href="#DejaVuSans-65" x="606.884766"/>
      <use xlink:href="#DejaVuSans-72" x="668.408203"/>
     </g>
    </g>
   </g>
   <g id="matplotlib.axis_2">
    <g id="ytick_1">
     <g id="line2d_17">
      <path d="M 54 253.644334 
L 388.8 253.644334 
" clip-path="url(#p321a665cec)" style="fill: none; stroke: #b0b0b0; stroke-width: 0.8; stroke-linecap: square"/>
     </g>
     <g id="line2d_18">
      <defs>
       <path id="md3cc623a2f" d="M 0 0 
L -3.5 0 
" style="stroke: #000000; stroke-width: 0.8"/>
      </defs>
      <g>
       <use xlink:href="#md3cc623a2f" x="54" y="253.644334" style="stroke: #000000; stroke-width: 0.8"/>
      </g>
     </g>
     <g id="text_10">
      <!-- 0.0 -->
      <g transform="translate(31.096875 257.443553)scale(0.1 -0.1)">
       <defs>
        <path id="DejaVuSans-2e" d="M 684 794 
L 1344 794 
L 1344 0 
L 684 0 
L 684 794 
z
" transform="scale(0.015625)"/>
       </defs>
       <use xlink:href="#DejaVuSans-30"/>
       <use xlink:href="#DejaVuSans-2e" x="63.623047"/>
       <use xlink:href="#DejaVuSans-30" x="95.410156"/>
      </g>
     </g>
    </g>
    <g id="ytick_2">
     <g id="line2d_19">
      <path d="M 54 208.78771 
L 388.8 208.78771 
" clip-path="url(#p321a665cec)" style="fill: none; stroke: #b0b0b0; stroke-width: 0.8; stroke-linecap: square"/>
     </g>
     <g id="line2d_20">
      <g>
       <use xlink:href="#md3cc623a2f" x="54" y="208.78771" style="stroke: #000000; stroke-width: 0.8"/>
      </g>
     </g>
     <g id="text_11">
      <!-- 0.5 -->
      <g transform="translate(31.096875 212.586929)scale(0.1 -0.1)">
       <use xlink:href="#DejaVuSans-30"/>
       <use xlink:href="#DejaVuSans-2e" x="63.623047"/>
       <use xlink:href="#DejaVuSans-35" x="95.410156"/>
      </g>
     </g>
    </g>
    <g id="ytick_3">
     <g id="line2d_21">
      <path d="M 54 163.931086 
L 388.8 163.931086 
" clip-path="url(#p321a665cec)" style="fill: none; stroke: #b0b0b0; stroke-width: 0.8; stroke-linecap: square"/>
     </g>
     <g id="line2d_22">
      <g>
       <use xlink:href="#md3cc623a2f" x="54" y="163.931086" style="stroke: #000000; stroke-width: 0.8"/>
      </g>
     </g>
     <g id="text_12">
      <!-- 1.0 -->
      <g transform="translate(31.096875 167.730305)scale(0.1 -0.1)">
       <use xlink:href="#DejaVuSans-31"/>
       <use xlink:href="#DejaVuSans-2e" x="63.623047"/>
       <use xlink:href="#DejaVuSans-30" x="95.410156"/>
      </g>
     </g>
    </g>
    <g id="ytick_4">
     <g id="line2d_23">
      <path d="M 54 119.074461 
L 388.8 119.074461 
" clip-path="url(#p321a665cec)" style="fill: none; stroke: #b0b0b0; stroke-width: 0.8; stroke-linecap: square"/>
     </g>
     <g id="line2d_24">
      <g>
       <use xlink:href="#md3cc623a2f" x="54" y="119.074461" style="stroke: #000000; stroke-width: 0.8"/>
      </g>
     </g>
     <g id="text_13">
      <!-- 1.5 -->
      <g transform="translate(31.096875 122.87368)scale(0.1 -0.1)">
       <use xlink:href="#DejaVuSans-31"/>
       <use xlink:href="#DejaVuSans-2e" x="63.623047"/>
       <use xlink:href="#DejaVuSans-35" x="95.410156"/>
      </g>
     </g>
    </g>
    <g id="ytick_5">
     <g id="line2d_25">
      <path d="M 54 74.217837 
L 388.8 74.217837 
" clip-path="url(#p321a665cec)" style="fill: none; stroke: #b0b0b0; stroke-width: 0.8; stroke-linecap: square"/>
     </g>
     <g id="line2d_26">
      <g>
       <use xlink:href="#md3cc623a2f" x="54" y="74.217837" style="stroke: #000000; stroke-width: 0.8"/>
      </g>
     </g>
     <g id="text_14">
      <!-- 2.0 -->
      <g transform="translate(31.096875 78.017056)scale(0.1 -0.1)">
       <use xlink:href="#DejaVuSans-32"/>
       <use xlink:href="#DejaVuSans-2e" x="63.623047"/>
       <use xlink:href="#DejaVuSans-30" x="95.410156"/>
      </g>
     </g>
    </g>
    <g id="text_15">
     <!-- loss -->
     <g transform="translate(25.017187 155.097813)rotate(-90)scale(0.1 -0.1)">
      <defs>
       <path id="DejaVuSans-6c" d="M 603 4863 
L 1178 4863 
L 1178 0 
L 603 0 
L 603 4863 
z
" transform="scale(0.015625)"/>
       <path id="DejaVuSans-6f" d="M 1959 3097 
Q 1497 3097 1228 2736 
Q 959 2375 959 1747 
Q 959 1119 1226 758 
Q 1494 397 1959 397 
Q 2419 397 2687 759 
Q 2956 1122 2956 1747 
Q 2956 2369 2687 2733 
Q 2419 3097 1959 3097 
z
M 1959 3584 
Q 2709 3584 3137 3096 
Q 3566 2609 3566 1747 
Q 3566 888 3137 398 
Q 2709 -91 1959 -91 
Q 1206 -91 779 398 
Q 353 888 353 1747 
Q 353 2609 779 3096 
Q 1206 3584 1959 3584 
z
" transform="scale(0.015625)"/>
       <path id="DejaVuSans-73" d="M 2834 3397 
L 2834 2853 
Q 2591 2978 2328 3040 
Q 2066 3103 1784 3103 
Q 1356 3103 1142 2972 
Q 928 2841 928 2578 
Q 928 2378 1081 2264 
Q 1234 2150 1697 2047 
L 1894 2003 
Q 2506 1872 2764 1633 
Q 3022 1394 3022 966 
Q 3022 478 2636 193 
Q 2250 -91 1575 -91 
Q 1294 -91 989 -36 
Q 684 19 347 128 
L 347 722 
Q 666 556 975 473 
Q 1284 391 1588 391 
Q 1994 391 2212 530 
Q 2431 669 2431 922 
Q 2431 1156 2273 1281 
Q 2116 1406 1581 1522 
L 1381 1569 
Q 847 1681 609 1914 
Q 372 2147 372 2553 
Q 372 3047 722 3315 
Q 1072 3584 1716 3584 
Q 2034 3584 2315 3537 
Q 2597 3491 2834 3397 
z
" transform="scale(0.015625)"/>
      </defs>
      <use xlink:href="#DejaVuSans-6c"/>
      <use xlink:href="#DejaVuSans-6f" x="27.783203"/>
      <use xlink:href="#DejaVuSans-73" x="88.964844"/>
      <use xlink:href="#DejaVuSans-73" x="141.064453"/>
     </g>
    </g>
   </g>
   <g id="line2d_27">
    <path d="M 69.218182 46.399377 
L 69.299345 46.371721 
L 69.380509 45.628421 
L 69.705164 46.771872 
L 69.786327 48.650153 
L 69.867491 44.64 
L 69.948655 48.519207 
L 70.029818 48.050953 
L 70.192145 45.026804 
L 70.273309 45.73864 
L 70.354473 47.455774 
L 70.435636 46.618254 
L 70.5168 47.597735 
L 70.597964 47.311909 
L 70.679127 46.2393 
L 70.760291 46.434841 
L 70.922618 49.399762 
L 71.003782 49.091392 
L 71.084945 46.593271 
L 71.166109 47.175809 
L 71.247273 46.813325 
L 71.328436 47.318968 
L 71.4096 45.599396 
L 71.490764 46.270485 
L 71.571927 48.274663 
L 71.653091 47.334432 
L 71.734255 47.997993 
L 71.815418 46.584352 
L 71.977745 48.448344 
L 72.058909 47.134998 
L 72.140073 48.314148 
L 72.221236 47.78395 
L 72.3024 49.570791 
L 72.464727 47.104497 
L 72.545891 47.151169 
L 72.627055 48.098351 
L 72.708218 47.509311 
L 72.789382 47.659165 
L 73.032873 48.774489 
L 73.276364 47.120111 
L 73.357527 47.284253 
L 73.438691 50.380291 
L 73.519855 47.260917 
L 73.601018 47.779437 
L 73.682182 47.336036 
L 73.925673 49.649418 
L 74.006836 46.760942 
L 74.169164 48.459339 
L 74.250327 47.923066 
L 74.331491 48.689552 
L 74.412655 47.074274 
L 74.574982 49.047951 
L 74.737309 47.408546 
L 74.9808 49.562128 
L 75.143127 46.75136 
L 75.305455 49.063394 
L 75.386618 48.404774 
L 75.467782 48.9862 
L 75.548945 48.896579 
L 75.630109 48.657895 
L 75.711273 49.436295 
L 75.792436 48.924855 
L 75.8736 46.36293 
L 75.954764 49.803742 
L 76.035927 47.523728 
L 76.279418 49.943435 
L 76.360582 49.378244 
L 76.604073 50.993886 
L 76.685236 47.828268 
L 76.7664 50.814622 
L 76.847564 49.760642 
L 76.928727 47.523621 
L 77.091055 49.777754 
L 77.172218 48.973965 
L 77.334545 49.893449 
L 77.415709 52.670764 
L 77.496873 47.950765 
L 77.578036 50.084092 
L 77.6592 48.944705 
L 77.740364 49.861792 
L 77.821527 49.029171 
L 77.902691 49.203601 
L 77.983855 50.52824 
L 78.065018 48.16207 
L 78.146182 48.496941 
L 78.308509 51.487936 
L 78.470836 49.446583 
L 78.552 49.364898 
L 78.714327 49.89809 
L 78.795491 49.216926 
L 79.038982 52.04887 
L 79.363636 49.063758 
L 79.4448 51.76405 
L 79.525964 49.420724 
L 79.688291 51.615609 
L 79.769455 50.113352 
L 79.850618 50.571404 
L 79.931782 51.261059 
L 80.012945 50.000074 
L 80.094109 50.679698 
L 80.175273 49.288409 
L 80.256436 50.834129 
L 80.418764 48.113602 
L 80.662255 51.728352 
L 80.743418 49.782823 
L 80.824582 50.129159 
L 80.986909 51.923871 
L 81.149236 50.042211 
L 81.2304 52.095456 
L 81.311564 50.352549 
L 81.392727 51.927101 
L 81.473891 50.532518 
L 81.555055 51.03906 
L 81.636218 51.053476 
L 81.717382 51.494951 
L 81.798545 49.387057 
L 81.960873 51.939207 
L 82.042036 50.082231 
L 82.285527 52.566941 
L 82.366691 51.131975 
L 82.447855 53.043366 
L 82.691345 50.575083 
L 82.853673 50.917226 
L 83.016 53.662993 
L 83.097164 51.295518 
L 83.178327 53.681324 
L 83.259491 52.177826 
L 83.340655 52.409195 
L 83.421818 52.56632 
L 83.502982 52.502409 
L 83.584145 52.436145 
L 83.665309 52.54029 
L 83.746473 53.770239 
L 83.827636 52.700046 
L 83.9088 54.545002 
L 83.989964 52.523028 
L 84.071127 52.979904 
L 84.152291 54.223842 
L 84.233455 53.793831 
L 84.314618 53.045762 
L 84.395782 54.754211 
L 84.476945 54.027381 
L 84.558109 51.961495 
L 84.639273 52.035951 
L 84.720436 52.637718 
L 84.8016 50.184386 
L 84.882764 53.324507 
L 84.963927 52.704688 
L 85.045091 52.683299 
L 85.207418 54.586476 
L 85.288582 55.561037 
L 85.369745 54.632399 
L 85.532073 56.281322 
L 85.6944 52.818693 
L 85.775564 53.293215 
L 85.856727 54.845907 
L 85.937891 54.185619 
L 86.019055 55.488891 
L 86.100218 53.965716 
L 86.181382 56.058018 
L 86.262545 55.051522 
L 86.343709 55.648883 
L 86.506036 53.222715 
L 86.5872 56.252853 
L 86.668364 53.603081 
L 86.749527 55.506366 
L 86.993018 54.18917 
L 87.155345 56.925867 
L 87.236509 54.952875 
L 87.48 56.596921 
L 87.561164 55.538942 
L 87.642327 55.777155 
L 87.723491 56.704488 
L 87.804655 54.801332 
L 87.885818 54.991033 
L 87.966982 56.968624 
L 88.048145 56.370366 
L 88.129309 57.999225 
L 88.210473 54.691177 
L 88.291636 55.961552 
L 88.3728 55.668925 
L 88.453964 55.188521 
L 88.616291 57.169748 
L 88.697455 55.64576 
L 88.859782 56.695996 
L 89.022109 55.396339 
L 89.103273 57.532447 
L 89.184436 55.23085 
L 89.427927 59.04005 
L 89.590255 56.131083 
L 89.752582 60.390485 
L 90.077236 56.409037 
L 90.1584 58.854049 
L 90.239564 57.814507 
L 90.320727 54.326318 
L 90.483055 59.475644 
L 90.564218 59.85201 
L 90.726545 57.910481 
L 90.888873 60.469925 
L 90.970036 58.723938 
L 91.0512 60.737441 
L 91.213527 56.383969 
L 91.375855 62.367114 
L 91.538182 58.874561 
L 91.619345 60.512725 
L 91.700509 58.656198 
L 91.781673 59.00279 
L 91.862836 59.150376 
L 92.025164 61.700388 
L 92.187491 58.754011 
L 92.268655 63.271646 
L 92.430982 57.440194 
L 92.512145 60.955591 
L 92.593309 57.321035 
L 92.674473 63.613426 
L 92.755636 60.559889 
L 92.8368 60.739495 
L 92.917964 60.038995 
L 92.999127 61.202295 
L 93.080291 59.516839 
L 93.161455 63.997963 
L 93.242618 62.835005 
L 93.486109 61.209546 
L 93.567273 63.945859 
L 93.7296 60.57561 
L 93.810764 64.462261 
L 93.973091 60.233295 
L 94.054255 64.018133 
L 94.135418 59.980795 
L 94.216582 61.93905 
L 94.297745 60.60455 
L 94.378909 61.660775 
L 94.460073 64.754588 
L 94.541236 63.801032 
L 94.784727 60.828068 
L 94.865891 61.736686 
L 94.947055 66.491849 
L 95.028218 61.141956 
L 95.109382 65.42448 
L 95.190545 61.936804 
L 95.271709 62.687825 
L 95.352873 65.592514 
L 95.434036 62.039173 
L 95.677527 65.469889 
L 95.758691 64.725627 
L 95.839855 62.694948 
L 95.921018 65.866511 
L 96.083345 63.187201 
L 96.164509 65.120067 
L 96.245673 70.105529 
L 96.326836 63.092383 
L 96.489164 68.76812 
L 96.570327 62.331886 
L 96.651491 64.363314 
L 96.732655 66.338659 
L 96.813818 62.22372 
L 96.894982 63.027017 
L 96.976145 71.270455 
L 97.138473 65.25497 
L 97.3008 68.288786 
L 97.463127 63.688182 
L 97.625455 72.623714 
L 97.706618 64.317712 
L 97.787782 66.28217 
L 97.868945 68.696744 
L 97.950109 65.033034 
L 98.031273 74.849314 
L 98.112436 65.70868 
L 98.1936 66.674214 
L 98.274764 71.71116 
L 98.355927 66.052705 
L 98.437091 68.627742 
L 98.518255 65.844502 
L 98.599418 68.447088 
L 98.761745 66.825693 
L 98.924073 72.91895 
L 99.005236 71.803947 
L 99.0864 71.285813 
L 99.167564 68.615208 
L 99.248727 73.1565 
L 99.329891 69.287666 
L 99.411055 70.623386 
L 99.492218 70.308386 
L 99.573382 74.408031 
L 99.654545 68.042574 
L 99.735709 68.146996 
L 99.816873 77.27885 
L 99.898036 69.655605 
L 100.060364 75.454599 
L 100.141527 71.564579 
L 100.222691 75.219274 
L 100.385018 68.879837 
L 100.466182 73.278633 
L 100.547345 71.316463 
L 100.628509 72.321504 
L 100.709673 70.63376 
L 100.790836 77.043151 
L 100.872 69.569663 
L 100.953164 76.312855 
L 101.034327 75.941965 
L 101.115491 67.097551 
L 101.277818 73.653373 
L 101.358982 74.291844 
L 101.440145 75.927131 
L 101.521309 73.07214 
L 101.602473 79.211117 
L 101.683636 77.561649 
L 101.7648 69.81179 
L 102.008291 77.107019 
L 102.089455 74.154354 
L 102.170618 76.070589 
L 102.332945 71.675804 
L 102.495273 81.049453 
L 102.576436 74.465825 
L 102.6576 78.398495 
L 102.738764 73.579153 
L 102.901091 77.403881 
L 103.063418 79.153655 
L 103.225745 74.20325 
L 103.306909 75.768423 
L 103.388073 73.705136 
L 103.469236 79.53663 
L 103.5504 75.614634 
L 103.631564 80.254551 
L 103.712727 79.128052 
L 103.793891 77.083993 
L 104.037382 86.124055 
L 104.362036 75.860375 
L 104.4432 87.326647 
L 104.524364 76.67826 
L 104.605527 80.042669 
L 104.686691 78.780123 
L 104.767855 83.122312 
L 104.849018 79.448945 
L 104.930182 86.562215 
L 105.011345 85.083561 
L 105.092509 85.497712 
L 105.173673 81.66123 
L 105.254836 81.94344 
L 105.336 81.801693 
L 105.579491 84.671176 
L 105.660655 78.540241 
L 105.741818 89.517105 
L 105.822982 85.100791 
L 105.904145 88.856581 
L 105.985309 83.752804 
L 106.147636 88.853373 
L 106.2288 90.209412 
L 106.309964 85.604776 
L 106.391127 93.834739 
L 106.553455 84.453379 
L 106.634618 84.289173 
L 106.715782 83.407378 
L 106.796945 90.109834 
L 106.878109 86.88684 
L 106.959273 88.616283 
L 107.040436 84.509783 
L 107.202764 94.556938 
L 107.283927 83.362396 
L 107.365091 94.087432 
L 107.446255 93.572848 
L 107.527418 92.676219 
L 107.689745 97.421298 
L 107.852073 81.879454 
L 108.0144 84.779983 
L 108.095564 92.434028 
L 108.176727 87.572143 
L 108.257891 95.240819 
L 108.339055 94.530501 
L 108.420218 95.114996 
L 108.501382 89.951521 
L 108.663709 96.774261 
L 108.744873 89.689791 
L 108.826036 92.026808 
L 108.9072 92.691363 
L 108.988364 88.707166 
L 109.069527 91.51755 
L 109.150691 106.296908 
L 109.313018 95.720869 
L 109.394182 96.923119 
L 109.475345 94.145943 
L 109.556509 96.805468 
L 109.637673 95.1534 
L 109.8 99.325374 
L 109.881164 89.339648 
L 109.962327 101.875428 
L 110.043491 94.453521 
L 110.124655 97.266728 
L 110.205818 89.853312 
L 110.286982 91.034719 
L 110.449309 106.966885 
L 110.530473 91.293069 
L 110.6928 99.835305 
L 110.773964 100.613085 
L 110.855127 99.804216 
L 111.098618 104.199601 
L 111.179782 96.456897 
L 111.260945 108.314411 
L 111.423273 97.817727 
L 111.504436 98.71395 
L 111.5856 106.264631 
L 111.666764 100.143076 
L 111.747927 103.506202 
L 111.829091 99.627647 
L 111.910255 106.949795 
L 111.991418 97.808476 
L 112.072582 97.837576 
L 112.153745 98.559679 
L 112.397236 108.381477 
L 112.4784 99.820237 
L 112.559564 99.853861 
L 112.721891 108.342089 
L 112.803055 107.777229 
L 112.965382 102.316091 
L 113.208873 115.293431 
L 113.290036 101.96753 
L 113.3712 104.22068 
L 113.614691 113.08937 
L 113.695855 105.485087 
L 113.858182 115.982702 
L 114.020509 107.753904 
L 114.101673 115.226472 
L 114.345164 104.597121 
L 114.507491 117.999938 
L 114.588655 115.729645 
L 114.750982 110.335005 
L 114.913309 120.033857 
L 114.994473 116.091306 
L 115.075636 105.527213 
L 115.237964 115.095997 
L 115.319127 111.523716 
L 115.481455 120.808386 
L 115.562618 110.201525 
L 115.643782 115.850815 
L 115.724945 111.65156 
L 115.968436 123.403967 
L 116.211927 115.412612 
L 116.293091 125.086236 
L 116.374255 115.99053 
L 116.536582 127.704554 
L 116.617745 121.496843 
L 116.698909 121.89555 
L 116.780073 122.200156 
L 116.861236 120.401272 
L 116.9424 122.164831 
L 117.023564 110.380725 
L 117.267055 123.248435 
L 117.348218 120.857645 
L 117.429382 122.634166 
L 117.510545 127.303013 
L 117.591709 123.447537 
L 117.672873 129.60155 
L 117.754036 117.597091 
L 117.916364 127.317055 
L 117.997527 118.923838 
L 118.078691 121.933388 
L 118.159855 131.509038 
L 118.241018 113.465715 
L 118.322182 129.524175 
L 118.403345 120.187796 
L 118.484509 135.193164 
L 118.565673 129.953565 
L 118.728 120.48976 
L 118.809164 129.872959 
L 118.890327 122.864326 
L 118.971491 123.287823 
L 119.052655 123.41417 
L 119.133818 135.293373 
L 119.214982 126.317276 
L 119.296145 126.573178 
L 119.377309 125.385226 
L 119.539636 133.119642 
L 119.6208 135.97598 
L 119.701964 125.787206 
L 119.864291 138.576171 
L 120.107782 127.872097 
L 120.188945 139.720125 
L 120.270109 137.302128 
L 120.432436 131.169664 
L 120.5136 129.070037 
L 120.594764 139.201552 
L 120.675927 136.634429 
L 120.757091 129.633859 
L 121.000582 145.981309 
L 121.081745 130.29066 
L 121.162909 135.262754 
L 121.244073 143.803258 
L 121.325236 129.772547 
L 121.4064 133.660716 
L 121.487564 143.364969 
L 121.568727 131.53586 
L 121.649891 135.217836 
L 121.731055 130.846247 
L 121.812218 143.827631 
L 121.893382 137.347559 
L 121.974545 146.46275 
L 122.055709 143.847544 
L 122.136873 139.751792 
L 122.218036 149.240034 
L 122.2992 131.525946 
L 122.380364 141.336258 
L 122.461527 135.186255 
L 122.623855 140.155076 
L 122.705018 138.955896 
L 122.867345 130.060255 
L 122.948509 150.295564 
L 123.110836 135.811732 
L 123.192 151.808398 
L 123.273164 140.04551 
L 123.354327 140.944128 
L 123.435491 139.618194 
L 123.678982 149.259873 
L 123.760145 146.519507 
L 123.841309 155.925882 
L 124.003636 143.625309 
L 124.0848 145.781041 
L 124.165964 154.853058 
L 124.409455 141.394779 
L 124.490618 140.841513 
L 124.571782 156.880754 
L 124.734109 144.817292 
L 124.896436 148.308786 
L 124.9776 154.982314 
L 125.058764 145.57719 
L 125.221091 155.262984 
L 125.383418 147.053758 
L 125.464582 157.086947 
L 125.545745 149.094234 
L 125.626909 151.580922 
L 125.789236 146.56267 
L 125.8704 137.377194 
L 125.951564 167.885583 
L 126.113891 151.067098 
L 126.195055 161.558616 
L 126.276218 150.98107 
L 126.357382 157.719471 
L 126.438545 152.530297 
L 126.519709 159.744054 
L 126.600873 158.51741 
L 126.682036 156.032882 
L 126.7632 164.041925 
L 126.925527 149.21288 
L 127.006691 154.153457 
L 127.087855 164.627976 
L 127.250182 159.395687 
L 127.331345 162.517402 
L 127.412509 146.03028 
L 127.574836 164.064683 
L 127.656 163.062327 
L 127.737164 147.518815 
L 127.818327 152.791974 
L 127.980655 154.785671 
L 128.061818 165.158479 
L 128.142982 158.215361 
L 128.224145 161.314671 
L 128.305309 159.151507 
L 128.386473 140.136949 
L 128.467636 160.150858 
L 128.5488 155.223949 
L 128.629964 153.607677 
L 128.711127 159.510547 
L 128.792291 157.12995 
L 128.873455 159.548599 
L 128.954618 166.555233 
L 129.035782 165.510253 
L 129.116945 162.604478 
L 129.198109 168.078788 
L 129.360436 156.468229 
L 129.603927 181.257546 
L 129.766255 150.611281 
L 129.928582 169.331928 
L 130.009745 164.224478 
L 130.172073 170.341797 
L 130.253236 166.965988 
L 130.415564 169.968672 
L 130.496727 157.516989 
L 130.659055 173.07465 
L 130.740218 172.325233 
L 130.821382 172.599856 
L 130.902545 175.322554 
L 131.064873 164.181239 
L 131.2272 171.726926 
L 131.551855 157.080177 
L 131.876509 178.237023 
L 132.038836 160.684596 
L 132.12 178.912407 
L 132.201164 157.464468 
L 132.363491 173.835174 
L 132.444655 171.028132 
L 132.525818 172.805321 
L 132.606982 169.60584 
L 132.850473 174.058745 
L 132.931636 157.971491 
L 133.0128 175.135627 
L 133.093964 170.32744 
L 133.175127 182.817714 
L 133.337455 172.709695 
L 133.418618 175.717032 
L 133.499782 164.771557 
L 133.662109 170.92749 
L 133.743273 163.639603 
L 133.824436 176.494442 
L 133.986764 170.746339 
L 134.067927 173.622329 
L 134.149091 181.580583 
L 134.230255 175.84079 
L 134.311418 176.35223 
L 134.392582 182.477843 
L 134.473745 174.771057 
L 134.554909 175.004591 
L 134.879564 192.525395 
L 135.041891 167.638767 
L 135.123055 177.226667 
L 135.204218 176.456658 
L 135.285382 181.11966 
L 135.366545 179.36224 
L 135.447709 186.374798 
L 135.772364 171.701131 
L 136.015855 186.227004 
L 136.340509 167.893898 
L 136.421673 172.585156 
L 136.502836 187.141562 
L 136.665164 170.781278 
L 136.827491 184.11728 
L 136.989818 171.078301 
L 137.314473 188.29967 
L 137.639127 165.904629 
L 137.882618 193.542071 
L 137.963782 184.614223 
L 138.044945 186.395674 
L 138.126109 191.868941 
L 138.207273 190.718314 
L 138.3696 179.531766 
L 138.450764 180.683532 
L 138.531927 188.253293 
L 138.613091 179.553637 
L 138.775418 188.554465 
L 138.856582 190.594079 
L 139.018909 179.321691 
L 139.100073 190.03268 
L 139.181236 178.111832 
L 139.424727 190.948532 
L 139.505891 178.52349 
L 139.587055 186.359874 
L 139.668218 185.739515 
L 139.830545 189.931786 
L 139.911709 184.544537 
L 139.992873 190.609041 
L 140.074036 186.017244 
L 140.1552 191.246384 
L 140.317527 177.737214 
L 140.398691 184.207752 
L 140.479855 178.24706 
L 140.561018 190.931677 
L 140.642182 187.94711 
L 140.723345 176.415596 
L 140.804509 180.022581 
L 140.885673 170.043828 
L 141.048 191.328342 
L 141.129164 195.415945 
L 141.210327 180.79966 
L 141.291491 186.721717 
L 141.372655 176.039454 
L 141.453818 187.588668 
L 141.534982 178.841517 
L 141.616145 195.705974 
L 141.697309 179.175078 
L 141.778473 194.613691 
L 141.859636 193.044165 
L 141.9408 199.675882 
L 142.021964 186.00309 
L 142.103127 189.958651 
L 142.184291 184.087843 
L 142.346618 191.53377 
L 142.427782 191.423161 
L 142.590109 182.98061 
L 142.671273 183.9701 
L 142.752436 177.723477 
L 142.8336 199.080441 
L 142.914764 194.382906 
L 143.077091 190.86967 
L 143.158255 175.964784 
L 143.239418 193.294276 
L 143.320582 188.21623 
L 143.482909 197.114507 
L 143.645236 180.113031 
L 143.7264 196.900727 
L 143.888727 184.590267 
L 143.969891 195.82855 
L 144.051055 187.647093 
L 144.132218 188.12532 
L 144.213382 198.389187 
L 144.294545 188.474094 
L 144.375709 194.289734 
L 144.456873 193.276715 
L 144.538036 194.984593 
L 144.6192 193.054924 
L 144.700364 199.132011 
L 144.781527 192.749993 
L 144.862691 202.724088 
L 144.943855 199.393629 
L 145.025018 187.14984 
L 145.106182 202.829254 
L 145.187345 195.65011 
L 145.430836 202.681213 
L 145.593164 186.797381 
L 145.836655 201.340334 
L 145.917818 195.880238 
L 145.998982 196.720345 
L 146.080145 199.637018 
L 146.161309 195.830005 
L 146.242473 200.894479 
L 146.323636 186.581194 
L 146.4048 187.673477 
L 146.485964 180.801414 
L 146.567127 198.648463 
L 146.648291 197.931253 
L 146.729455 191.677731 
L 146.810618 193.703191 
L 146.891782 189.437405 
L 146.972945 200.458228 
L 147.054109 181.224099 
L 147.135273 199.110985 
L 147.216436 193.610346 
L 147.2976 195.977003 
L 147.378764 201.592193 
L 147.459927 201.047814 
L 147.541091 190.570915 
L 147.622255 204.620229 
L 147.703418 203.274697 
L 147.784582 193.246134 
L 147.865745 193.714613 
L 147.946909 193.00821 
L 148.109236 207.099762 
L 148.1904 201.457953 
L 148.271564 188.018866 
L 148.352727 188.042464 
L 148.433891 183.174563 
L 148.515055 197.848551 
L 148.596218 162.466453 
L 148.677382 202.557882 
L 148.758545 195.989569 
L 148.839709 205.059661 
L 148.920873 175.833496 
L 149.002036 207.449328 
L 149.0832 203.200187 
L 149.164364 206.46026 
L 149.407855 194.303145 
L 149.489018 194.332647 
L 149.570182 206.275878 
L 149.651345 189.287572 
L 149.813673 210.91081 
L 149.894836 194.060714 
L 149.976 204.992178 
L 150.057164 192.90829 
L 150.138327 194.628995 
L 150.219491 193.432504 
L 150.462982 213.847928 
L 150.625309 202.913079 
L 150.706473 188.427503 
L 150.787636 192.913669 
L 150.8688 186.99103 
L 150.949964 201.368862 
L 151.031127 192.494182 
L 151.112291 201.233387 
L 151.193455 194.256009 
L 151.355782 205.429627 
L 151.436945 193.036187 
L 151.518109 195.163076 
L 151.599273 191.362715 
L 151.842764 208.303536 
L 152.005091 198.918936 
L 152.086255 193.462214 
L 152.167418 200.621043 
L 152.248582 200.431609 
L 152.329745 192.077508 
L 152.410909 201.77474 
L 152.492073 188.660117 
L 152.573236 200.497397 
L 152.6544 200.285771 
L 152.735564 198.561826 
L 152.897891 211.427343 
L 153.060218 199.439611 
L 153.222545 210.915593 
L 153.466036 199.218632 
L 153.5472 203.308711 
L 153.628364 205.379191 
L 153.790691 199.030053 
L 153.871855 202.49334 
L 154.034182 197.123507 
L 154.115345 188.943226 
L 154.196509 209.821602 
L 154.277673 198.438495 
L 154.521164 215.546613 
L 154.602327 194.168425 
L 154.683491 199.535461 
L 154.764655 190.545151 
L 154.845818 200.585906 
L 154.926982 200.015721 
L 155.008145 199.813512 
L 155.089309 196.394217 
L 155.170473 212.124656 
L 155.251636 196.827672 
L 155.3328 201.993526 
L 155.495127 197.517931 
L 155.576291 211.831633 
L 155.657455 206.592274 
L 155.738618 210.739586 
L 155.900945 196.008221 
L 155.982109 210.09746 
L 156.063273 206.169632 
L 156.144436 202.831318 
L 156.2256 206.606322 
L 156.306764 188.53176 
L 156.387927 194.973684 
L 156.469091 212.863854 
L 156.631418 204.590941 
L 156.793745 211.566037 
L 156.956073 189.963009 
L 157.037236 209.536924 
L 157.1184 206.735043 
L 157.280727 196.989653 
L 157.443055 209.066929 
L 157.524218 193.200912 
L 157.605382 203.775945 
L 157.686545 203.219443 
L 157.767709 205.752696 
L 157.848873 199.165148 
L 157.930036 209.44911 
L 158.0112 204.844506 
L 158.173527 213.446226 
L 158.254691 202.74891 
L 158.335855 202.933473 
L 158.417018 203.754892 
L 158.498182 201.631613 
L 158.579345 209.046606 
L 158.660509 201.763762 
L 158.741673 227.412691 
L 158.904 199.249246 
L 158.985164 210.4091 
L 159.147491 205.947264 
L 159.228655 210.816587 
L 159.390982 191.445652 
L 159.472145 216.545777 
L 159.553309 195.996109 
L 159.634473 202.376624 
L 159.715636 200.87086 
L 159.7968 214.725135 
L 159.877964 210.53796 
L 159.959127 185.120519 
L 160.121455 213.103936 
L 160.202618 206.458324 
L 160.283782 187.789492 
L 160.608436 210.664929 
L 160.770764 189.469403 
L 160.851927 190.327804 
L 161.014255 210.423783 
L 161.095418 206.568035 
L 161.176582 214.523774 
L 161.257745 193.258893 
L 161.420073 210.837124 
L 161.501236 209.331549 
L 161.5824 213.136292 
L 161.825891 196.738318 
L 161.907055 204.841169 
L 161.988218 198.065075 
L 162.069382 199.431541 
L 162.150545 211.879473 
L 162.231709 208.497644 
L 162.312873 209.604145 
L 162.394036 214.848926 
L 162.4752 209.253369 
L 162.556364 217.290261 
L 162.718691 200.73754 
L 162.799855 195.786595 
L 162.881018 214.515576 
L 162.962182 211.066853 
L 163.043345 212.213849 
L 163.124509 210.15038 
L 163.205673 195.015163 
L 163.286836 217.819441 
L 163.368 201.405106 
L 163.530327 213.054644 
L 163.611491 210.560496 
L 163.692655 218.77519 
L 163.773818 201.506037 
L 163.854982 212.088994 
L 163.936145 211.964503 
L 164.098473 206.528352 
L 164.179636 210.424628 
L 164.2608 185.141443 
L 164.423127 207.772964 
L 164.504291 208.199975 
L 164.666618 217.825055 
L 164.828945 210.696085 
L 164.910109 215.320384 
L 164.991273 208.587057 
L 165.072436 213.43066 
L 165.1536 190.761397 
L 165.315927 214.370632 
L 165.397091 212.285412 
L 165.478255 221.301462 
L 165.559418 203.745032 
L 165.640582 209.463896 
L 165.802909 199.229498 
L 165.884073 217.875486 
L 166.0464 205.764984 
L 166.127564 215.722246 
L 166.208727 213.043417 
L 166.371055 215.130219 
L 166.533382 197.738305 
L 166.614545 222.777647 
L 166.695709 207.456338 
L 166.776873 211.17057 
L 166.858036 207.294405 
L 166.9392 195.209111 
L 167.020364 214.241828 
L 167.182691 191.588875 
L 167.263855 221.188465 
L 167.345018 207.172374 
L 167.426182 214.132903 
L 167.507345 211.47087 
L 167.588509 195.920546 
L 167.669673 217.283887 
L 167.750836 211.459938 
L 167.832 213.975761 
L 167.913164 208.352833 
L 167.994327 219.869373 
L 168.075491 199.155614 
L 168.237818 218.043194 
L 168.400145 198.355141 
L 168.481309 220.518784 
L 168.643636 188.771438 
L 168.887127 215.312617 
L 168.968291 188.067398 
L 169.130618 212.163493 
L 169.211782 199.186399 
L 169.292945 211.491059 
L 169.374109 195.773099 
L 169.455273 215.770714 
L 169.536436 212.49938 
L 169.6176 204.316009 
L 169.779927 216.804836 
L 169.861091 195.486364 
L 169.942255 215.284725 
L 170.023418 214.803562 
L 170.104582 206.812413 
L 170.185745 223.2498 
L 170.266909 218.868166 
L 170.348073 212.681088 
L 170.429236 214.225626 
L 170.5104 210.026253 
L 170.591564 218.468253 
L 170.672727 215.683887 
L 170.753891 216.195567 
L 170.835055 210.360912 
L 170.997382 222.796529 
L 171.078545 205.499864 
L 171.240873 223.039083 
L 171.322036 208.295788 
L 171.4032 209.544488 
L 171.484364 203.397338 
L 171.565527 222.548506 
L 171.646691 204.603411 
L 171.727855 206.538261 
L 171.809018 213.233416 
L 171.890182 201.936438 
L 171.971345 225.067982 
L 172.052509 219.54437 
L 172.214836 193.903123 
L 172.296 216.515249 
L 172.377164 212.770655 
L 172.458327 211.397264 
L 172.539491 214.357229 
L 172.620655 210.908299 
L 172.701818 215.134417 
L 172.864145 205.292334 
L 172.945309 219.296519 
L 173.107636 204.677167 
L 173.269964 217.973714 
L 173.351127 215.46943 
L 173.432291 205.109744 
L 173.513455 206.362318 
L 173.675782 217.192664 
L 173.756945 220.320586 
L 173.838109 228.753704 
L 173.919273 199.915908 
L 174.000436 215.004859 
L 174.0816 204.617432 
L 174.243927 222.740756 
L 174.325091 216.913357 
L 174.487418 223.490935 
L 174.568582 211.071206 
L 174.649745 212.933805 
L 174.730909 205.447626 
L 174.812073 218.601589 
L 174.893236 213.56349 
L 174.9744 218.295 
L 175.136727 203.160671 
L 175.217891 208.423643 
L 175.299055 223.591954 
L 175.461382 204.689562 
L 175.542545 210.75878 
L 175.623709 201.599839 
L 175.704873 203.574757 
L 175.786036 221.053715 
L 175.8672 206.955176 
L 175.948364 209.259957 
L 176.029527 208.805832 
L 176.110691 201.040595 
L 176.191855 211.611042 
L 176.273018 201.817417 
L 176.354182 225.43468 
L 176.435345 221.721708 
L 176.678836 213.391959 
L 176.76 220.061692 
L 176.841164 219.36631 
L 176.922327 220.461862 
L 177.003491 206.986255 
L 177.084655 228.191361 
L 177.165818 210.910968 
L 177.246982 212.626855 
L 177.328145 223.911714 
L 177.409309 217.49905 
L 177.490473 221.234893 
L 177.571636 206.850433 
L 177.6528 218.679387 
L 177.815127 203.677099 
L 177.896291 224.655326 
L 177.977455 223.868507 
L 178.058618 202.938858 
L 178.302109 224.381038 
L 178.383273 218.926562 
L 178.464436 198.926412 
L 178.5456 214.292039 
L 178.626764 205.390254 
L 178.707927 214.760203 
L 178.789091 198.610475 
L 178.870255 228.29962 
L 178.951418 207.175058 
L 179.032582 208.907362 
L 179.113745 215.972429 
L 179.194909 204.702519 
L 179.276073 217.31754 
L 179.357236 211.965626 
L 179.4384 214.126203 
L 179.519564 209.28041 
L 179.600727 214.876769 
L 179.681891 214.30518 
L 179.763055 201.909952 
L 179.925382 220.555202 
L 180.006545 209.762298 
L 180.087709 219.372825 
L 180.168873 219.202572 
L 180.250036 215.615692 
L 180.3312 223.867243 
L 180.493527 212.449843 
L 180.655855 220.262276 
L 180.737018 204.716347 
L 180.899345 221.579523 
L 180.980509 215.662078 
L 181.061673 186.016784 
L 181.224 207.60085 
L 181.386327 220.55294 
L 181.467491 191.061473 
L 181.548655 210.732987 
L 181.629818 205.715329 
L 181.710982 211.887173 
L 181.792145 180.769715 
L 181.954473 216.394581 
L 182.035636 204.954394 
L 182.1168 225.658819 
L 182.197964 210.093137 
L 182.279127 219.65991 
L 182.360291 204.253643 
L 182.441455 221.853383 
L 182.603782 206.693922 
L 182.684945 213.462257 
L 182.766109 210.100193 
L 183.0096 221.434666 
L 183.090764 222.010702 
L 183.171927 220.248774 
L 183.253091 224.670069 
L 183.334255 219.401238 
L 183.415418 223.341394 
L 183.577745 210.632554 
L 183.740073 220.119572 
L 183.821236 197.931836 
L 183.9024 215.129931 
L 183.983564 213.438012 
L 184.064727 206.516214 
L 184.227055 226.862352 
L 184.389382 214.235376 
L 184.551709 221.392655 
L 184.632873 206.25157 
L 184.714036 212.930353 
L 184.7952 203.697414 
L 184.957527 217.117195 
L 185.038691 214.893881 
L 185.119855 216.484219 
L 185.201018 223.336274 
L 185.363345 202.056442 
L 185.444509 213.333221 
L 185.606836 199.843173 
L 185.688 228.03031 
L 185.769164 210.282272 
L 185.850327 227.16407 
L 185.931491 204.905835 
L 186.093818 225.647779 
L 186.174982 224.199074 
L 186.256145 192.403331 
L 186.337309 217.760812 
L 186.418473 217.250121 
L 186.499636 210.487323 
L 186.5808 222.408575 
L 186.743127 200.861641 
L 186.905455 223.332483 
L 186.986618 212.608853 
L 187.148945 227.350135 
L 187.230109 207.413442 
L 187.392436 228.143181 
L 187.4736 218.970212 
L 187.554764 226.292683 
L 187.717091 206.544646 
L 187.798255 214.211124 
L 187.879418 211.290318 
L 187.960582 220.689776 
L 188.204073 212.37151 
L 188.3664 225.783299 
L 188.447564 215.300016 
L 188.528727 228.605736 
L 188.772218 190.107163 
L 188.934545 216.770947 
L 189.015709 203.182744 
L 189.178036 221.488698 
L 189.2592 218.708819 
L 189.340364 226.977411 
L 189.421527 225.34365 
L 189.583855 210.121365 
L 189.665018 219.54567 
L 189.746182 209.692793 
L 189.827345 213.654617 
L 189.989673 202.507013 
L 190.152 232.239554 
L 190.233164 228.598207 
L 190.314327 210.900487 
L 190.395491 226.623765 
L 190.476655 222.874022 
L 190.557818 234.368767 
L 190.720145 219.832548 
L 190.801309 231.633923 
L 190.882473 228.351436 
L 191.0448 205.555989 
L 191.125964 211.380217 
L 191.207127 218.844838 
L 191.288291 205.866787 
L 191.369455 223.116157 
L 191.531782 203.189808 
L 191.694109 213.788963 
L 191.856436 220.195581 
L 191.9376 188.916511 
L 192.099927 227.566761 
L 192.181091 205.406457 
L 192.262255 208.768128 
L 192.343418 195.739582 
L 192.424582 216.425743 
L 192.505745 213.171261 
L 192.586909 217.919813 
L 192.8304 193.928319 
L 192.992727 226.016215 
L 193.073891 221.484543 
L 193.155055 224.679718 
L 193.317382 216.580294 
L 193.398545 191.107995 
L 193.560873 218.292489 
L 193.642036 209.035551 
L 193.7232 229.971879 
L 193.804364 209.313823 
L 193.885527 215.084559 
L 193.966691 218.231941 
L 194.047855 211.886646 
L 194.129018 217.976264 
L 194.291345 209.294062 
L 194.372509 225.687176 
L 194.453673 199.784321 
L 194.534836 210.090763 
L 194.616 198.469445 
L 194.697164 216.201385 
L 194.778327 214.280912 
L 194.859491 190.548167 
L 194.940655 214.6047 
L 195.021818 213.286261 
L 195.102982 225.477427 
L 195.265309 206.175707 
L 195.346473 208.99416 
L 195.427636 219.19092 
L 195.5088 212.674166 
L 195.589964 225.61111 
L 195.671127 221.264544 
L 195.833455 211.086459 
L 195.995782 229.655357 
L 196.076945 209.59598 
L 196.158109 212.201299 
L 196.239273 217.078282 
L 196.320436 213.6927 
L 196.4016 218.507708 
L 196.482764 212.423363 
L 196.563927 219.440124 
L 196.645091 210.233106 
L 196.726255 219.960331 
L 196.807418 215.110648 
L 196.888582 217.647725 
L 196.969745 216.875183 
L 197.050909 214.479394 
L 197.213236 218.641932 
L 197.2944 207.450798 
L 197.375564 230.778186 
L 197.456727 222.571759 
L 197.537891 219.523422 
L 197.619055 228.676978 
L 197.700218 227.015703 
L 197.862545 220.413787 
L 197.943709 197.520974 
L 198.024873 218.566165 
L 198.106036 212.416949 
L 198.268364 226.110352 
L 198.430691 210.664795 
L 198.674182 230.433457 
L 198.836509 220.610338 
L 198.917673 219.652402 
L 198.998836 215.614591 
L 199.08 232.213857 
L 199.161164 219.056352 
L 199.242327 228.711821 
L 199.404655 206.775912 
L 199.485818 219.761015 
L 199.566982 207.972756 
L 199.648145 218.063952 
L 199.729309 213.784324 
L 199.810473 222.820525 
L 199.891636 205.520173 
L 200.053964 221.353681 
L 200.135127 207.985606 
L 200.216291 221.378453 
L 200.297455 211.656155 
L 200.378618 214.327915 
L 200.459782 218.294093 
L 200.540945 208.155881 
L 200.622109 224.778946 
L 200.703273 222.023386 
L 200.784436 230.738576 
L 200.946764 206.174761 
L 201.027927 225.138401 
L 201.109091 220.060278 
L 201.190255 227.854081 
L 201.352582 215.906918 
L 201.514909 224.171225 
L 201.677236 218.912103 
L 201.7584 225.271961 
L 202.001891 209.306064 
L 202.164218 222.85055 
L 202.245382 222.356249 
L 202.326545 216.808726 
L 202.488873 226.470636 
L 202.570036 213.244247 
L 202.6512 221.793972 
L 202.732364 199.941553 
L 202.813527 231.264004 
L 202.894691 222.96413 
L 203.057018 213.768279 
L 203.138182 219.761389 
L 203.219345 215.395155 
L 203.300509 221.736034 
L 203.381673 220.905404 
L 203.462836 197.607675 
L 203.625164 232.586767 
L 203.706327 217.674889 
L 203.787491 215.10232 
L 203.868655 223.73018 
L 203.949818 204.544446 
L 204.112145 231.735673 
L 204.274473 213.844078 
L 204.517964 229.316449 
L 204.599127 214.080432 
L 204.761455 224.754714 
L 204.923782 218.85826 
L 205.086109 232.355856 
L 205.167273 227.434786 
L 205.248436 213.111633 
L 205.3296 222.636424 
L 205.410764 222.143238 
L 205.491927 224.334511 
L 205.573091 216.968087 
L 205.816582 228.865498 
L 205.897745 226.612432 
L 205.978909 221.033216 
L 206.141236 228.290765 
L 206.2224 215.62878 
L 206.384727 231.093114 
L 206.465891 221.429688 
L 206.628218 237.027291 
L 206.790545 213.143057 
L 206.871709 229.548739 
L 206.952873 220.477567 
L 207.034036 227.773764 
L 207.196364 222.019442 
L 207.277527 226.003454 
L 207.358691 208.614756 
L 207.439855 213.988327 
L 207.521018 222.639799 
L 207.602182 208.575485 
L 207.683345 215.386445 
L 207.764509 202.874166 
L 207.845673 225.202216 
L 207.926836 213.249803 
L 208.008 215.659228 
L 208.089164 217.141338 
L 208.251491 223.19588 
L 208.332655 220.393095 
L 208.576145 226.201182 
L 208.657309 222.784823 
L 208.819636 232.162947 
L 208.9008 209.278178 
L 208.981964 225.65522 
L 209.063127 221.758057 
L 209.144291 222.875078 
L 209.225455 227.056433 
L 209.306618 214.046886 
L 209.387782 215.319394 
L 209.631273 228.752341 
L 209.712436 199.526724 
L 209.7936 202.385806 
L 209.874764 230.366974 
L 209.955927 228.004405 
L 210.037091 196.734462 
L 210.199418 230.71282 
L 210.280582 232.597322 
L 210.442909 214.139223 
L 210.605236 224.168538 
L 210.767564 213.785359 
L 210.848727 239.903052 
L 210.929891 233.418451 
L 211.011055 221.14417 
L 211.092218 221.250234 
L 211.173382 222.112312 
L 211.254545 229.001483 
L 211.335709 214.853158 
L 211.416873 216.857563 
L 211.498036 214.271011 
L 211.5792 229.356695 
L 211.660364 225.592266 
L 211.903855 218.556938 
L 211.985018 222.887497 
L 212.066182 221.401756 
L 212.147345 222.39738 
L 212.228509 231.551445 
L 212.309673 222.134538 
L 212.390836 227.304055 
L 212.472 201.325062 
L 212.553164 201.785857 
L 212.715491 226.089102 
L 212.796655 221.972776 
L 212.877818 210.405464 
L 212.958982 227.524103 
L 213.040145 227.071951 
L 213.121309 229.630952 
L 213.202473 216.520885 
L 213.283636 218.973559 
L 213.3648 221.993045 
L 213.527127 216.358059 
L 213.608291 220.785298 
L 213.689455 216.182052 
L 213.770618 231.995716 
L 213.851782 190.567455 
L 214.095273 225.207903 
L 214.176436 226.315871 
L 214.2576 213.113673 
L 214.419927 240.188881 
L 214.582255 222.243845 
L 214.663418 223.720477 
L 214.744582 231.662501 
L 214.906909 213.552595 
L 215.1504 233.002449 
L 215.231564 221.545899 
L 215.312727 229.737257 
L 215.393891 208.687549 
L 215.556218 231.877094 
L 215.637382 209.404506 
L 215.718545 215.426076 
L 215.799709 215.243174 
L 215.962036 226.705226 
L 216.0432 221.531851 
L 216.124364 224.660933 
L 216.205527 214.254012 
L 216.286691 229.739716 
L 216.367855 224.990096 
L 216.449018 208.11215 
L 216.611345 225.161678 
L 216.692509 221.516678 
L 216.854836 197.485446 
L 216.936 225.63617 
L 217.098327 208.569951 
L 217.179491 224.074131 
L 217.260655 208.212942 
L 217.341818 227.772617 
L 217.422982 215.336744 
L 217.504145 218.975295 
L 217.585309 229.442459 
L 217.747636 211.166327 
L 217.8288 224.651546 
L 217.909964 210.619231 
L 217.991127 211.283497 
L 218.153455 220.724723 
L 218.234618 225.643902 
L 218.315782 237.316466 
L 218.478109 222.188752 
L 218.559273 222.208093 
L 218.640436 205.667866 
L 218.883927 236.79074 
L 218.965091 201.551184 
L 219.127418 232.015621 
L 219.208582 221.020821 
L 219.289745 223.890378 
L 219.370909 220.945546 
L 219.452073 205.124102 
L 219.533236 215.183112 
L 219.6144 209.700916 
L 219.695564 229.291632 
L 219.939055 201.74818 
L 220.182545 223.914136 
L 220.344873 218.891013 
L 220.426036 227.266188 
L 220.5072 224.680197 
L 220.588364 224.770719 
L 220.669527 229.543686 
L 220.750691 225.05175 
L 220.831855 225.568658 
L 220.913018 236.183934 
L 220.994182 203.10808 
L 221.075345 205.215466 
L 221.156509 235.17722 
L 221.237673 226.379061 
L 221.318836 218.009468 
L 221.4 230.460028 
L 221.562327 204.580509 
L 221.643491 237.750982 
L 221.724655 222.069608 
L 221.805818 229.906115 
L 221.886982 224.096924 
L 221.968145 238.902879 
L 222.211636 198.774077 
L 222.2928 235.375002 
L 222.373964 224.715267 
L 222.455127 227.043335 
L 222.617455 194.692634 
L 222.698618 228.989008 
L 222.779782 222.867616 
L 222.860945 217.146228 
L 222.942109 236.564077 
L 223.1856 215.22919 
L 223.266764 232.599239 
L 223.347927 211.265487 
L 223.510255 225.606196 
L 223.591418 208.060714 
L 223.672582 229.143773 
L 223.753745 207.794872 
L 223.834909 221.665075 
L 223.916073 210.262583 
L 224.321891 236.438443 
L 224.565382 211.981371 
L 224.727709 238.79705 
L 224.890036 218.425547 
L 224.9712 227.4121 
L 225.052364 212.338206 
L 225.133527 237.455577 
L 225.377018 215.473943 
L 225.458182 231.720605 
L 225.539345 228.842034 
L 225.782836 212.668137 
L 225.945164 223.676581 
L 226.107491 224.810278 
L 226.188655 228.465293 
L 226.269818 227.585273 
L 226.350982 223.998843 
L 226.432145 225.575564 
L 226.513309 232.729854 
L 226.594473 201.265594 
L 226.675636 226.89572 
L 226.7568 220.113518 
L 226.837964 227.40986 
L 226.919127 226.949952 
L 227.000291 225.630261 
L 227.081455 228.139615 
L 227.162618 234.685287 
L 227.324945 224.892798 
L 227.406109 209.452503 
L 227.487273 231.611208 
L 227.568436 212.526213 
L 227.6496 214.864433 
L 227.811927 227.469282 
L 227.893091 225.623307 
L 228.136582 202.412462 
L 228.217745 235.211758 
L 228.298909 228.420357 
L 228.380073 204.9939 
L 228.5424 233.26616 
L 228.623564 218.152905 
L 228.704727 225.413406 
L 228.785891 205.056645 
L 228.948218 228.603009 
L 229.029382 222.249374 
L 229.110545 227.516049 
L 229.191709 218.389268 
L 229.272873 229.21109 
L 229.354036 221.326335 
L 229.4352 225.103178 
L 229.516364 223.344386 
L 229.597527 225.814859 
L 229.678691 234.871368 
L 229.841018 211.606259 
L 229.922182 224.221992 
L 230.003345 219.788909 
L 230.084509 211.077451 
L 230.246836 225.431092 
L 230.328 226.902299 
L 230.409164 235.388621 
L 230.571491 206.203117 
L 230.652655 227.255247 
L 230.733818 223.486842 
L 230.814982 229.697831 
L 230.896145 210.33582 
L 230.977309 233.487369 
L 231.058473 228.849354 
L 231.139636 239.793499 
L 231.301964 211.926369 
L 231.464291 229.710247 
L 231.545455 216.970913 
L 231.626618 220.245207 
L 231.707782 220.072689 
L 231.788945 208.228845 
L 231.951273 227.616748 
L 232.032436 221.240858 
L 232.1136 235.676163 
L 232.194764 222.632655 
L 232.275927 223.23063 
L 232.357091 222.197056 
L 232.438255 233.654755 
L 232.600582 217.119743 
L 232.681745 228.812918 
L 232.762909 218.47475 
L 232.925236 224.780494 
L 233.0064 225.707437 
L 233.168727 211.613502 
L 233.249891 226.178798 
L 233.331055 221.025291 
L 233.412218 228.966656 
L 233.493382 213.344199 
L 233.574545 232.737607 
L 233.655709 225.559155 
L 233.736873 233.80221 
L 233.818036 218.663024 
L 233.8992 228.732069 
L 233.980364 218.385656 
L 234.061527 233.083635 
L 234.142691 214.906608 
L 234.305018 225.712009 
L 234.386182 225.089152 
L 234.467345 221.553454 
L 234.548509 211.399756 
L 234.710836 233.302725 
L 234.873164 208.329455 
L 235.035491 231.451436 
L 235.116655 210.084972 
L 235.197818 219.052828 
L 235.278982 215.189313 
L 235.360145 218.555414 
L 235.441309 208.845357 
L 235.522473 230.378329 
L 235.603636 221.851964 
L 235.6848 234.082001 
L 235.765964 232.227579 
L 235.847127 212.516652 
L 235.928291 233.151442 
L 236.009455 226.117015 
L 236.090618 222.000039 
L 236.171782 211.71582 
L 236.252945 225.468029 
L 236.334109 206.654704 
L 236.496436 232.035094 
L 236.5776 215.024337 
L 236.739927 233.407529 
L 236.902255 205.327995 
L 236.983418 223.103075 
L 237.064582 193.756659 
L 237.145745 232.01304 
L 237.226909 228.997058 
L 237.308073 225.835684 
L 237.389236 201.730624 
L 237.632727 231.124425 
L 237.795055 213.413319 
L 238.038545 240.839925 
L 238.119709 220.228823 
L 238.200873 231.045576 
L 238.282036 221.257825 
L 238.3632 229.227961 
L 238.444364 224.148817 
L 238.525527 224.735852 
L 238.606691 223.16982 
L 238.769018 227.311784 
L 238.850182 217.500088 
L 238.931345 233.683958 
L 239.012509 207.335077 
L 239.093673 235.051836 
L 239.174836 233.998405 
L 239.337164 220.374372 
L 239.418327 231.12616 
L 239.499491 212.931321 
L 239.580655 215.125137 
L 239.824145 228.405754 
L 239.905309 219.756544 
L 239.986473 230.096359 
L 240.067636 229.855294 
L 240.1488 229.556169 
L 240.229964 234.52664 
L 240.311127 232.661798 
L 240.392291 211.588394 
L 240.473455 227.696284 
L 240.554618 211.057431 
L 240.635782 233.612844 
L 240.716945 232.27473 
L 240.798109 230.85477 
L 240.879273 227.333398 
L 240.960436 206.446341 
L 241.122764 228.479266 
L 241.203927 231.877329 
L 241.285091 202.457834 
L 241.447418 228.96036 
L 241.528582 225.705709 
L 241.690909 227.230967 
L 241.772073 216.447092 
L 241.853236 234.125219 
L 241.9344 232.224979 
L 242.015564 229.904393 
L 242.259055 199.949264 
L 242.340218 234.391103 
L 242.421382 219.446739 
L 242.502545 235.429175 
L 242.746036 218.439479 
L 242.8272 222.162167 
L 242.908364 236.687685 
L 242.989527 230.596216 
L 243.070691 203.187904 
L 243.233018 230.210615 
L 243.314182 208.032951 
L 243.395345 237.552084 
L 243.476509 204.932106 
L 243.638836 236.96048 
L 243.72 232.42358 
L 243.801164 219.022097 
L 243.882327 234.692079 
L 243.963491 214.958362 
L 244.044655 227.275626 
L 244.125818 223.227475 
L 244.206982 220.016002 
L 244.450473 232.240856 
L 244.6128 218.875944 
L 244.693964 230.08094 
L 244.775127 222.887284 
L 244.856291 230.831512 
L 244.937455 215.949652 
L 245.018618 234.995033 
L 245.099782 212.896933 
L 245.180945 223.685736 
L 245.262109 214.654053 
L 245.424436 226.404038 
L 245.5056 223.012491 
L 245.667927 211.896902 
L 245.830255 238.034837 
L 246.073745 221.882443 
L 246.154909 226.613528 
L 246.317236 213.1582 
L 246.3984 229.822049 
L 246.479564 221.628849 
L 246.560727 230.669408 
L 246.641891 228.79167 
L 246.723055 225.3443 
L 246.804218 215.463991 
L 246.885382 224.904995 
L 246.966545 215.954181 
L 247.047709 236.981067 
L 247.210036 219.567981 
L 247.2912 235.375697 
L 247.372364 210.596652 
L 247.453527 226.952182 
L 247.534691 223.606836 
L 247.615855 211.330655 
L 247.778182 234.174669 
L 247.859345 216.939126 
L 247.940509 234.137221 
L 248.021673 210.18975 
L 248.102836 224.251376 
L 248.184 221.753495 
L 248.265164 225.271172 
L 248.346327 234.822564 
L 248.508655 214.678865 
L 248.589818 211.066701 
L 248.833309 237.712067 
L 248.914473 231.998062 
L 248.995636 240.669823 
L 249.239127 205.378447 
L 249.320291 233.143778 
L 249.482618 218.578445 
L 249.563782 234.298812 
L 249.644945 201.581814 
L 249.726109 221.083203 
L 249.807273 220.572196 
L 249.888436 219.816359 
L 249.9696 235.607276 
L 250.050764 212.38983 
L 250.213091 233.934247 
L 250.294255 214.466245 
L 250.375418 225.799349 
L 250.456582 224.795947 
L 250.537745 210.538133 
L 250.618909 229.675998 
L 250.700073 228.323584 
L 250.943564 210.569346 
L 251.024727 228.903916 
L 251.187055 218.836981 
L 251.511709 240.683672 
L 251.592873 218.002653 
L 251.674036 232.243061 
L 251.7552 216.10181 
L 251.917527 226.995084 
L 251.998691 228.89462 
L 252.161018 222.756806 
L 252.242182 228.578734 
L 252.404509 205.390548 
L 252.485673 236.957046 
L 252.566836 231.127979 
L 252.648 212.293252 
L 252.729164 234.91412 
L 252.891491 213.115521 
L 252.972655 229.098882 
L 253.053818 220.798123 
L 253.134982 233.447627 
L 253.216145 227.13867 
L 253.378473 233.505451 
L 253.459636 213.815336 
L 253.5408 218.659944 
L 253.784291 236.209639 
L 253.946618 224.969578 
L 254.108945 233.952039 
L 254.190109 232.539242 
L 254.271273 222.941783 
L 254.352436 231.151122 
L 254.4336 205.53368 
L 254.514764 228.373269 
L 254.595927 221.732889 
L 254.677091 217.795848 
L 254.839418 237.050999 
L 254.920582 206.449699 
L 255.082909 231.569509 
L 255.164073 227.574087 
L 255.245236 215.763329 
L 255.3264 233.452403 
L 255.407564 229.722372 
L 255.488727 208.885507 
L 255.569891 229.891321 
L 255.651055 222.003804 
L 255.732218 238.686228 
L 255.894545 217.545719 
L 255.975709 230.717226 
L 256.056873 227.1536 
L 256.138036 215.678208 
L 256.2192 234.293247 
L 256.300364 233.574372 
L 256.543855 211.485377 
L 256.625018 217.49477 
L 256.706182 232.81966 
L 256.787345 215.399029 
L 256.868509 218.331059 
L 256.949673 208.244588 
L 257.030836 231.55611 
L 257.112 225.33869 
L 257.193164 220.237325 
L 257.274327 220.841993 
L 257.436655 231.564028 
L 257.517818 228.207416 
L 257.598982 217.945271 
L 257.680145 221.283714 
L 257.842473 237.188697 
L 258.0048 206.169386 
L 258.085964 225.062097 
L 258.167127 222.168421 
L 258.248291 209.241816 
L 258.329455 233.086696 
L 258.491782 215.587894 
L 258.572945 220.147755 
L 258.654109 214.889689 
L 258.735273 235.683331 
L 258.978764 204.730122 
L 259.141091 227.1344 
L 259.303418 219.252508 
L 259.384582 219.792468 
L 259.465745 230.188475 
L 259.628073 217.3168 
L 259.709236 229.677752 
L 259.7904 222.885016 
L 259.871564 223.452565 
L 259.952727 234.77909 
L 260.115055 222.947387 
L 260.277382 220.919221 
L 260.520873 229.535031 
L 260.602036 227.523341 
L 260.6832 210.441732 
L 260.926691 239.824597 
L 261.170182 218.375827 
L 261.251345 217.66717 
L 261.413673 221.760941 
L 261.494836 231.235247 
L 261.576 230.886544 
L 261.657164 210.335633 
L 261.738327 221.631365 
L 261.819491 206.953075 
L 261.900655 229.43393 
L 261.981818 223.899506 
L 262.062982 228.372362 
L 262.144145 226.107451 
L 262.225309 211.140085 
L 262.306473 228.750333 
L 262.387636 215.212635 
L 262.4688 237.62698 
L 262.549964 231.2469 
L 262.712291 222.224392 
L 262.793455 226.815959 
L 262.874618 215.480654 
L 263.036945 230.843372 
L 263.118109 224.472306 
L 263.280436 235.331031 
L 263.442764 212.893045 
L 263.605091 235.486413 
L 263.686255 240.534511 
L 263.767418 226.917563 
L 263.848582 226.927164 
L 263.929745 238.441531 
L 264.010909 211.489401 
L 264.092073 242.013844 
L 264.173236 223.936891 
L 264.2544 228.658712 
L 264.335564 215.503572 
L 264.416727 236.52556 
L 264.497891 229.752467 
L 264.579055 215.340917 
L 264.660218 239.834749 
L 264.822545 208.10283 
L 264.903709 209.879891 
L 265.1472 236.967736 
L 265.228364 210.406231 
L 265.309527 237.691088 
L 265.553018 195.258648 
L 265.715345 220.860909 
L 265.796509 221.598645 
L 265.877673 225.65044 
L 265.958836 216.687286 
L 266.04 219.842134 
L 266.202327 231.475269 
L 266.283491 226.710798 
L 266.364655 230.660922 
L 266.445818 227.043231 
L 266.526982 216.370727 
L 266.608145 217.156966 
L 266.770473 226.02125 
L 266.851636 225.045015 
L 266.9328 236.726787 
L 267.013964 225.206964 
L 267.095127 231.34635 
L 267.176291 214.875553 
L 267.338618 234.917396 
L 267.500945 223.206388 
L 267.582109 234.90196 
L 267.663273 226.609857 
L 267.744436 232.76456 
L 267.8256 231.71695 
L 267.906764 228.781048 
L 267.987927 237.278802 
L 268.069091 226.29629 
L 268.231418 232.623749 
L 268.312582 225.643659 
L 268.393745 234.823588 
L 268.474909 231.683589 
L 268.556073 239.020469 
L 268.637236 185.284329 
L 268.7184 231.891835 
L 268.799564 225.393271 
L 268.880727 234.594361 
L 269.043055 218.482998 
L 269.124218 221.292818 
L 269.205382 239.05553 
L 269.286545 227.320511 
L 269.448873 239.838819 
L 269.6112 212.441942 
L 269.692364 230.545569 
L 269.773527 208.329466 
L 269.854691 216.283763 
L 269.935855 226.341699 
L 270.098182 221.723823 
L 270.179345 230.034274 
L 270.260509 222.900294 
L 270.341673 199.79393 
L 270.422836 216.329127 
L 270.504 216.05517 
L 270.585164 203.076803 
L 270.747491 236.561341 
L 270.828655 225.944853 
L 271.072145 236.190665 
L 271.315636 209.972258 
L 271.3968 241.537528 
L 271.640291 197.25772 
L 271.721455 231.637548 
L 271.802618 224.689835 
L 271.883782 233.019125 
L 271.964945 224.757653 
L 272.046109 236.113176 
L 272.208436 228.428309 
L 272.2896 237.173226 
L 272.370764 235.970993 
L 272.533091 217.511566 
L 272.614255 218.640464 
L 272.776582 228.846734 
L 272.857745 226.056358 
L 272.938909 235.839103 
L 273.101236 225.175835 
L 273.1824 227.057904 
L 273.263564 207.219826 
L 273.425891 231.564736 
L 273.588218 221.371311 
L 273.669382 212.890802 
L 273.750545 233.835706 
L 273.831709 220.056917 
L 273.912873 224.027446 
L 273.994036 232.18211 
L 274.0752 225.618743 
L 274.156364 234.139547 
L 274.237527 224.572496 
L 274.318691 230.27601 
L 274.481018 226.268088 
L 274.562182 233.957916 
L 274.724509 206.597082 
L 274.805673 214.972251 
L 274.968 235.479606 
L 275.211491 224.355846 
L 275.292655 243.598738 
L 275.373818 213.354043 
L 275.454982 229.688184 
L 275.536145 225.541156 
L 275.779636 217.330818 
L 275.941964 226.475794 
L 276.023127 224.506713 
L 276.104291 219.468492 
L 276.185455 233.773068 
L 276.266618 216.951286 
L 276.347782 237.89621 
L 276.428945 217.860789 
L 276.510109 223.833103 
L 276.591273 211.543105 
L 276.672436 234.804666 
L 276.7536 202.958429 
L 276.834764 214.683776 
L 276.997091 238.708257 
L 277.240582 206.021463 
L 277.321745 227.065813 
L 277.402909 219.421069 
L 277.484073 229.543448 
L 277.6464 215.718195 
L 277.727564 235.821026 
L 277.808727 187.769461 
L 277.889891 229.719835 
L 277.971055 227.488112 
L 278.214545 222.088866 
L 278.295709 234.701402 
L 278.458036 213.787121 
L 278.5392 222.030781 
L 278.620364 217.313249 
L 278.782691 225.920319 
L 278.863855 222.714084 
L 278.945018 212.642822 
L 279.026182 237.629457 
L 279.107345 226.307364 
L 279.188509 231.541441 
L 279.269673 221.944593 
L 279.350836 238.46716 
L 279.513164 222.702619 
L 279.594327 221.468809 
L 279.675491 236.037265 
L 279.756655 208.600094 
L 279.837818 209.943243 
L 280.081309 228.172982 
L 280.162473 227.597171 
L 280.243636 227.784098 
L 280.3248 232.116566 
L 280.487127 204.090276 
L 280.730618 236.487855 
L 280.811782 228.446118 
L 280.892945 232.758889 
L 280.974109 204.303293 
L 281.136436 229.094238 
L 281.298764 205.052218 
L 281.379927 219.130185 
L 281.461091 196.708859 
L 281.623418 231.142475 
L 281.785745 217.879844 
L 281.866909 226.541636 
L 281.948073 218.532079 
L 282.029236 235.719129 
L 282.1104 214.668283 
L 282.272727 232.018028 
L 282.435055 216.57269 
L 282.516218 237.531057 
L 282.597382 223.191779 
L 282.678545 239.270804 
L 282.759709 224.352141 
L 282.840873 231.736191 
L 282.922036 218.796651 
L 283.0032 240.001297 
L 283.246691 215.688232 
L 283.327855 233.069501 
L 283.490182 206.736807 
L 283.571345 233.265721 
L 283.652509 225.086553 
L 283.733673 215.826711 
L 283.814836 226.809563 
L 283.896 205.79864 
L 283.977164 238.003733 
L 284.058327 232.075196 
L 284.139491 235.536413 
L 284.301818 209.956184 
L 284.382982 211.966944 
L 284.464145 229.285162 
L 284.545309 213.039749 
L 284.626473 238.741658 
L 284.707636 220.284029 
L 284.7888 233.782779 
L 284.869964 228.711332 
L 284.951127 230.828988 
L 285.032291 225.40343 
L 285.113455 238.608871 
L 285.194618 210.213254 
L 285.438109 235.223887 
L 285.519273 237.545401 
L 285.600436 212.142053 
L 285.6816 235.373197 
L 285.762764 226.282611 
L 285.843927 236.554579 
L 285.925091 202.368379 
L 286.006255 209.208959 
L 286.087418 201.782809 
L 286.168582 233.64745 
L 286.249745 209.095577 
L 286.412073 233.699232 
L 286.5744 223.744447 
L 286.655564 226.295798 
L 286.736727 213.189669 
L 286.817891 234.609437 
L 286.980218 218.714008 
L 287.061382 218.542051 
L 287.142545 236.217449 
L 287.223709 221.074527 
L 287.386036 238.674715 
L 287.629527 217.362137 
L 287.710691 213.050984 
L 287.791855 236.670474 
L 287.954182 212.255339 
L 288.035345 217.091322 
L 288.197673 227.531661 
L 288.278836 227.914872 
L 288.684655 238.570056 
L 288.928145 216.240554 
L 289.171636 224.657885 
L 289.2528 215.701779 
L 289.333964 239.110463 
L 289.415127 220.546037 
L 289.496291 231.966776 
L 289.577455 229.262799 
L 289.658618 227.745343 
L 289.739782 236.995364 
L 289.820945 234.848004 
L 289.902109 226.128571 
L 289.983273 237.326722 
L 290.064436 217.272203 
L 290.1456 233.36569 
L 290.307927 211.747621 
L 290.470255 231.145101 
L 290.551418 203.091369 
L 290.632582 224.945397 
L 290.713745 224.925195 
L 290.794909 226.175194 
L 290.876073 237.259108 
L 290.957236 223.710264 
L 291.119564 244.811712 
L 291.363055 201.613609 
L 291.525382 234.58302 
L 291.687709 216.173229 
L 291.768873 235.720455 
L 291.850036 235.089315 
L 291.9312 222.67319 
L 292.093527 234.619816 
L 292.174691 230.894915 
L 292.255855 232.053357 
L 292.337018 234.762459 
L 292.418182 215.021805 
L 292.661673 233.015638 
L 292.742836 208.743055 
L 292.824 234.539031 
L 292.905164 214.840731 
L 293.067491 229.955989 
L 293.148655 224.762815 
L 293.229818 236.99949 
L 293.310982 223.766838 
L 293.392145 232.771562 
L 293.473309 225.620484 
L 293.554473 203.285466 
L 293.7168 226.568677 
L 293.797964 224.14437 
L 293.879127 238.294747 
L 293.960291 224.144477 
L 294.041455 230.388935 
L 294.122618 217.442743 
L 294.203782 231.773549 
L 294.284945 197.402862 
L 294.366109 230.731932 
L 294.447273 216.617067 
L 294.528436 238.429782 
L 294.853091 210.601764 
L 295.096582 235.804674 
L 295.258909 212.107293 
L 295.340073 220.647021 
L 295.421236 237.115195 
L 295.5024 214.783579 
L 295.583564 229.340835 
L 295.664727 219.29188 
L 295.827055 230.341547 
L 295.908218 229.380849 
L 295.989382 238.964869 
L 296.151709 220.461103 
L 296.232873 234.528912 
L 296.3952 217.720435 
L 296.476364 222.083805 
L 296.557527 234.775593 
L 296.638691 224.777288 
L 296.882182 241.526643 
L 297.044509 223.597831 
L 297.206836 238.584293 
L 297.369164 217.591078 
L 297.531491 233.607154 
L 297.612655 233.725996 
L 297.693818 224.688827 
L 297.774982 224.798185 
L 297.937309 233.196437 
L 298.099636 223.832258 
L 298.1808 230.855842 
L 298.261964 212.290375 
L 298.424291 238.976683 
L 298.505455 223.520827 
L 298.586618 237.13197 
L 298.748945 213.845548 
L 298.830109 227.793327 
L 298.911273 219.117146 
L 299.0736 235.213466 
L 299.154764 214.988783 
L 299.235927 232.000956 
L 299.317091 231.609428 
L 299.479418 225.34257 
L 299.560582 238.155308 
L 299.641745 209.83896 
L 299.804073 229.742272 
L 299.9664 215.410181 
L 300.128727 228.885256 
L 300.291055 223.912826 
L 300.372218 202.587357 
L 300.534545 242.504387 
L 300.615709 235.816605 
L 300.696873 191.985127 
L 300.8592 222.382309 
L 300.940364 233.648796 
L 301.102691 221.550056 
L 301.183855 221.171166 
L 301.265018 234.477504 
L 301.346182 230.047471 
L 301.427345 232.072006 
L 301.508509 226.003414 
L 301.589673 236.976876 
L 301.670836 234.184091 
L 301.752 212.170557 
L 301.914327 228.342874 
L 301.995491 235.19523 
L 302.076655 208.803434 
L 302.238982 230.721405 
L 302.320145 232.398033 
L 302.401309 243.385194 
L 302.563636 220.33093 
L 302.6448 226.533286 
L 302.725964 225.841943 
L 303.050618 235.279571 
L 303.131782 228.494073 
L 303.212945 232.453634 
L 303.375273 222.599178 
L 303.456436 223.309845 
L 303.5376 240.579617 
L 303.781091 217.582003 
L 303.862255 225.915913 
L 303.943418 222.037358 
L 304.024582 240.405531 
L 304.105745 234.846203 
L 304.186909 236.6507 
L 304.268073 236.571697 
L 304.349236 224.45228 
L 304.4304 233.785275 
L 304.511564 219.048181 
L 304.592727 222.358529 
L 304.673891 231.624852 
L 304.755055 223.208412 
L 304.917382 233.988051 
L 304.998545 227.742875 
L 305.079709 236.23167 
L 305.242036 216.164245 
L 305.3232 233.707356 
L 305.404364 233.574632 
L 305.485527 233.975018 
L 305.566691 235.328337 
L 305.647855 226.402119 
L 305.729018 234.517897 
L 305.810182 209.202339 
L 305.891345 235.479815 
L 306.053673 211.234748 
L 306.297164 237.322019 
L 306.378327 236.234067 
L 306.459491 232.335621 
L 306.540655 236.91175 
L 306.702982 225.913258 
L 306.865309 228.89355 
L 306.946473 226.016197 
L 307.027636 237.33429 
L 307.271127 214.514146 
L 307.433455 240.687934 
L 307.514618 224.413255 
L 307.595782 239.487991 
L 307.676945 226.826351 
L 307.839273 238.947804 
L 308.245091 220.423845 
L 308.488582 236.665682 
L 308.569745 223.771066 
L 308.650909 241.409362 
L 308.813236 217.297012 
L 308.975564 230.991643 
L 309.056727 220.774533 
L 309.137891 223.612044 
L 309.219055 225.80829 
L 309.300218 223.435949 
L 309.381382 229.040778 
L 309.543709 221.448289 
L 309.624873 238.104888 
L 309.706036 225.793235 
L 309.7872 237.582922 
L 309.949527 215.728315 
L 310.111855 239.603316 
L 310.274182 216.040369 
L 310.436509 235.591382 
L 310.68 217.183622 
L 310.761164 229.339985 
L 310.842327 224.597134 
L 310.923491 226.754828 
L 311.004655 224.859385 
L 311.085818 209.340974 
L 311.248145 236.280265 
L 311.329309 218.204592 
L 311.410473 221.587848 
L 311.491636 220.683728 
L 311.653964 229.950032 
L 311.735127 214.481899 
L 311.816291 216.395653 
L 311.978618 227.918861 
L 312.140945 227.201044 
L 312.222109 227.611352 
L 312.303273 226.086225 
L 312.384436 233.544965 
L 312.546764 219.398624 
L 312.709091 244.166368 
L 312.790255 217.887015 
L 312.871418 234.097286 
L 312.952582 215.649854 
L 313.033745 237.912086 
L 313.114909 220.488419 
L 313.196073 234.880962 
L 313.277236 225.333209 
L 313.3584 236.00811 
L 313.439564 220.419789 
L 313.601891 234.809244 
L 313.683055 223.15365 
L 313.764218 228.606399 
L 313.845382 226.84577 
L 313.926545 220.445515 
L 314.007709 231.974804 
L 314.088873 229.98176 
L 314.170036 235.713677 
L 314.2512 226.791145 
L 314.332364 233.736419 
L 314.413527 218.777115 
L 314.575855 240.772125 
L 314.657018 224.931542 
L 314.738182 235.868568 
L 314.981673 207.984071 
L 315.144 235.242888 
L 315.225164 221.693073 
L 315.306327 235.731093 
L 315.387491 210.944314 
L 315.468655 218.318186 
L 315.549818 233.096347 
L 315.630982 226.561993 
L 315.712145 206.710648 
L 315.874473 236.471917 
L 315.955636 229.798053 
L 316.0368 210.724129 
L 316.117964 237.959803 
L 316.199127 237.781167 
L 316.280291 232.270927 
L 316.361455 211.158126 
L 316.442618 227.258889 
L 316.523782 204.594016 
L 316.686109 241.551077 
L 316.848436 228.753605 
L 316.9296 236.393526 
L 317.010764 206.659335 
L 317.091927 233.304743 
L 317.173091 229.509033 
L 317.254255 228.184318 
L 317.335418 219.187019 
L 317.497745 228.663294 
L 317.578909 229.940688 
L 317.741236 229.019522 
L 317.8224 224.094282 
L 317.903564 224.124698 
L 317.984727 236.271238 
L 318.228218 214.555122 
L 318.390545 236.30653 
L 318.471709 217.56898 
L 318.634036 228.149101 
L 318.7152 230.74053 
L 318.796364 214.629196 
L 318.877527 235.555001 
L 318.958691 234.41636 
L 319.039855 226.698256 
L 319.121018 196.684812 
L 319.283345 242.614469 
L 319.364509 228.81103 
L 319.445673 233.504801 
L 319.526836 220.56233 
L 319.608 226.274336 
L 319.689164 225.837492 
L 319.770327 228.395366 
L 320.013818 209.938498 
L 320.176145 228.580812 
L 320.257309 220.576228 
L 320.338473 228.209341 
L 320.419636 222.06041 
L 320.5008 233.360245 
L 320.581964 228.813335 
L 320.663127 233.805462 
L 320.744291 227.149268 
L 320.825455 232.247122 
L 320.906618 218.35828 
L 321.068945 240.875451 
L 321.231273 222.017632 
L 321.312436 238.903527 
L 321.3936 238.151816 
L 321.474764 203.482681 
L 321.555927 227.897274 
L 321.637091 227.764176 
L 321.718255 218.764722 
L 321.799418 220.608975 
L 321.880582 227.539308 
L 321.961745 227.35306 
L 322.042909 228.022465 
L 322.124073 227.311351 
L 322.205236 232.7988 
L 322.2864 228.981246 
L 322.367564 235.551421 
L 322.692218 215.498971 
L 322.773382 235.405753 
L 322.854545 229.96478 
L 322.935709 228.019032 
L 323.098036 232.169246 
L 323.260364 216.8047 
L 323.341527 236.170739 
L 323.422691 226.154283 
L 323.503855 230.663496 
L 323.585018 230.646826 
L 323.666182 204.640431 
L 323.828509 237.645686 
L 323.909673 222.325881 
L 323.990836 224.391444 
L 324.072 234.744468 
L 324.153164 229.644347 
L 324.234327 240.779445 
L 324.396655 220.170339 
L 324.477818 235.480232 
L 324.558982 232.945515 
L 324.640145 234.12148 
L 324.721309 203.323727 
L 324.883636 233.896473 
L 324.9648 222.192364 
L 325.045964 233.65705 
L 325.127127 232.203831 
L 325.208291 218.629801 
L 325.289455 235.928634 
L 325.614109 182.582774 
L 325.695273 234.488233 
L 325.776436 221.652391 
L 325.8576 205.83581 
L 325.938764 238.601777 
L 326.019927 231.899563 
L 326.263418 223.422155 
L 326.344582 235.125977 
L 326.506909 222.059614 
L 326.669236 237.874492 
L 326.7504 233.231039 
L 326.831564 214.365386 
L 326.912727 235.13962 
L 326.993891 222.236099 
L 327.075055 237.280154 
L 327.156218 232.75051 
L 327.237382 221.009313 
L 327.318545 236.707628 
L 327.399709 223.927691 
L 327.562036 240.420387 
L 327.724364 224.873906 
L 327.805527 230.48746 
L 327.886691 236.014439 
L 327.967855 234.035261 
L 328.049018 216.055989 
L 328.130182 233.099786 
L 328.211345 232.634439 
L 328.373673 224.516379 
L 328.454836 225.261627 
L 328.536 232.991922 
L 328.617164 220.793725 
L 328.698327 241.543185 
L 328.860655 217.004385 
L 328.941818 222.270175 
L 329.104145 234.71077 
L 329.185309 234.828466 
L 329.4288 220.265038 
L 329.509964 219.998928 
L 329.672291 228.166132 
L 329.834618 214.385666 
L 329.915782 227.695872 
L 329.996945 218.582434 
L 330.159273 236.650388 
L 330.240436 233.408004 
L 330.3216 232.168464 
L 330.483927 237.80501 
L 330.565091 232.451431 
L 330.727418 213.528749 
L 330.889745 231.682268 
L 330.970909 211.465977 
L 331.133236 233.16837 
L 331.2144 240.392097 
L 331.295564 234.809162 
L 331.376727 219.791171 
L 331.457891 230.13983 
L 331.539055 226.506988 
L 331.620218 226.928082 
L 331.701382 231.679172 
L 331.863709 199.864835 
L 331.944873 232.698478 
L 332.026036 225.458061 
L 332.1072 222.719795 
L 332.188364 223.773814 
L 332.269527 227.928203 
L 332.350691 227.269706 
L 332.513018 229.451985 
L 332.594182 219.008146 
L 332.756509 235.421338 
L 332.837673 216.533884 
L 333 237.275567 
L 333.162327 218.636191 
L 333.243491 236.931684 
L 333.405818 225.051344 
L 333.568145 231.25932 
L 333.649309 212.742742 
L 333.811636 238.38475 
L 333.8928 236.302052 
L 334.055127 228.710877 
L 334.136291 237.105558 
L 334.217455 235.288419 
L 334.460945 211.607858 
L 334.542109 223.665611 
L 334.623273 215.105087 
L 334.704436 242.718252 
L 334.7856 222.610124 
L 334.866764 239.054207 
L 334.947927 233.799334 
L 335.029091 224.033515 
L 335.110255 235.578069 
L 335.191418 188.493666 
L 335.434909 240.911122 
L 335.516073 223.898161 
L 335.759564 239.889966 
L 335.921891 225.892398 
L 336.084218 241.330776 
L 336.327709 226.277082 
L 336.408873 200.628343 
L 336.652364 236.077533 
L 336.733527 236.812269 
L 336.814691 205.961071 
L 336.977018 230.738292 
L 337.058182 216.813897 
L 337.139345 231.431616 
L 337.220509 219.982921 
L 337.301673 223.298594 
L 337.382836 218.455321 
L 337.464 229.399594 
L 337.545164 226.770926 
L 337.626327 230.290876 
L 337.707491 218.014225 
L 337.788655 232.247178 
L 337.869818 229.796588 
L 338.113309 213.478815 
L 338.275636 244.807388 
L 338.437964 218.217907 
L 338.519127 227.058342 
L 338.600291 216.711501 
L 338.681455 230.036819 
L 338.762618 221.012412 
L 338.843782 225.332188 
L 338.924945 220.153163 
L 339.006109 232.201428 
L 339.087273 231.82574 
L 339.168436 224.419964 
L 339.2496 240.24551 
L 339.330764 227.47834 
L 339.493091 236.339258 
L 339.574255 235.504851 
L 339.655418 228.471847 
L 339.736582 238.413303 
L 339.817745 224.758471 
L 339.898909 231.841847 
L 339.980073 222.34645 
L 340.061236 231.329621 
L 340.1424 212.885906 
L 340.223564 240.454577 
L 340.304727 217.8045 
L 340.467055 234.784444 
L 340.548218 237.730157 
L 340.629382 237.364881 
L 340.710545 215.63448 
L 340.791709 235.073573 
L 340.872873 231.692289 
L 341.0352 224.901736 
L 341.116364 232.109908 
L 341.197527 230.942961 
L 341.278691 225.520232 
L 341.359855 234.876002 
L 341.441018 209.145008 
L 341.603345 235.838527 
L 341.765673 239.647021 
L 342.090327 196.891128 
L 342.252655 237.534423 
L 342.333818 230.80562 
L 342.496145 239.657758 
L 342.577309 234.65892 
L 342.658473 240.37303 
L 342.901964 226.277403 
L 342.983127 232.153363 
L 343.064291 221.969035 
L 343.145455 237.9367 
L 343.226618 229.93276 
L 343.307782 238.638686 
L 343.388945 228.235637 
L 343.470109 230.488778 
L 343.551273 232.370219 
L 343.632436 237.985176 
L 343.794764 219.903737 
L 343.875927 231.036726 
L 343.957091 213.149701 
L 344.038255 233.828634 
L 344.200582 204.824133 
L 344.444073 241.229567 
L 344.525236 216.438044 
L 344.6064 239.298507 
L 344.687564 237.291427 
L 344.768727 218.729636 
L 344.849891 234.594534 
L 344.931055 211.922414 
L 345.174545 229.435405 
L 345.336873 230.483861 
L 345.418036 235.240661 
L 345.661527 199.148433 
L 345.823855 232.611546 
L 345.905018 199.37664 
L 346.067345 231.820624 
L 346.148509 220.877507 
L 346.229673 236.10623 
L 346.310836 230.571055 
L 346.473164 240.069647 
L 346.554327 218.191152 
L 346.635491 236.935204 
L 346.716655 224.164982 
L 346.797818 228.358855 
L 346.960145 243.147808 
L 347.041309 219.488202 
L 347.122473 232.427046 
L 347.203636 220.383377 
L 347.365964 234.200475 
L 347.447127 237.839346 
L 347.609455 227.098741 
L 347.690618 229.77399 
L 347.771782 225.917153 
L 347.852945 232.863703 
L 348.015273 223.041324 
L 348.096436 230.192576 
L 348.1776 213.265732 
L 348.258764 233.868396 
L 348.339927 226.388662 
L 348.421091 234.404914 
L 348.583418 223.829637 
L 348.664582 235.353691 
L 348.745745 221.126631 
L 348.826909 235.591293 
L 348.908073 228.746239 
L 349.0704 241.758471 
L 349.313891 229.636385 
L 349.395055 216.135166 
L 349.557382 232.32498 
L 349.638545 233.932932 
L 349.800873 228.236904 
L 349.882036 225.9753 
L 349.9632 217.716657 
L 350.044364 231.644189 
L 350.287855 219.732623 
L 350.531345 233.097212 
L 350.693673 221.925575 
L 350.774836 226.041719 
L 350.856 220.544978 
L 351.018327 235.463769 
L 351.180655 225.041908 
L 351.342982 233.958846 
L 351.424145 232.646312 
L 351.505309 234.337929 
L 351.586473 213.709873 
L 351.667636 231.93939 
L 351.7488 204.378059 
L 351.911127 230.674445 
L 351.992291 217.91027 
L 352.073455 218.675831 
L 352.154618 240.798467 
L 352.235782 237.526314 
L 352.316945 226.732487 
L 352.398109 235.369307 
L 352.479273 226.289236 
L 352.560436 227.085935 
L 352.6416 233.112377 
L 352.722764 224.155661 
L 352.885091 235.761333 
L 352.966255 209.645309 
L 353.128582 238.636194 
L 353.290909 216.245771 
L 353.372073 228.56285 
L 353.453236 220.684915 
L 353.777891 240.856579 
L 353.859055 220.853513 
L 353.940218 241.317056 
L 354.021382 221.476087 
L 354.102545 238.520783 
L 354.183709 217.435104 
L 354.264873 223.433181 
L 354.346036 245.313172 
L 354.4272 228.471331 
L 354.508364 229.367441 
L 354.670691 234.891224 
L 354.833018 216.637398 
L 354.914182 227.182625 
L 354.995345 226.486061 
L 355.076509 229.691721 
L 355.157673 224.845833 
L 355.238836 246.24 
L 355.32 212.356794 
L 355.482327 234.522157 
L 355.563491 235.366026 
L 355.725818 206.806323 
L 355.806982 232.406471 
L 355.888145 230.912233 
L 355.969309 223.876993 
L 356.050473 225.817375 
L 356.2128 236.617373 
L 356.293964 227.734961 
L 356.375127 229.571062 
L 356.456291 233.132838 
L 356.537455 227.621977 
L 356.618618 233.293461 
L 356.780945 225.100721 
L 357.1056 231.6458 
L 357.186764 239.51905 
L 357.267927 220.626022 
L 357.511418 235.25539 
L 357.673745 230.040632 
L 357.754909 231.621771 
L 357.917236 235.215086 
L 357.9984 224.350095 
L 358.079564 233.776217 
L 358.241891 223.128854 
L 358.323055 226.466532 
L 358.404218 225.757375 
L 358.485382 215.67455 
L 358.647709 232.947794 
L 358.728873 221.065097 
L 359.053527 242.635786 
L 359.297018 224.371241 
L 359.378182 223.265511 
L 359.459345 234.452099 
L 359.540509 230.648703 
L 359.621673 234.035784 
L 359.702836 212.327662 
L 359.784 232.297797 
L 359.865164 230.136253 
L 359.946327 235.311454 
L 360.108655 214.093146 
L 360.189818 229.165569 
L 360.352145 217.543192 
L 360.433309 234.887718 
L 360.6768 205.667577 
L 360.839127 234.643878 
L 360.920291 240.378487 
L 361.001455 237.21838 
L 361.082618 228.090232 
L 361.163782 232.558423 
L 361.244945 216.301522 
L 361.326109 238.554081 
L 361.407273 231.884655 
L 361.488436 231.448237 
L 361.5696 232.690685 
L 361.731927 200.521503 
L 361.813091 234.637775 
L 361.894255 230.359619 
L 361.975418 243.95578 
L 362.056582 206.382729 
L 362.137745 216.410875 
L 362.218909 234.410752 
L 362.300073 216.763774 
L 362.381236 232.956828 
L 362.4624 230.194175 
L 362.543564 208.105627 
L 362.705891 232.887225 
L 362.787055 215.763116 
L 362.868218 232.58154 
L 362.949382 226.542293 
L 363.030545 228.203812 
L 363.111709 227.161754 
L 363.192873 215.049151 
L 363.274036 219.670899 
L 363.3552 237.155225 
L 363.436364 227.457558 
L 363.517527 231.515763 
L 363.598691 220.075424 
L 363.679855 224.956046 
L 363.761018 216.635125 
L 363.923345 237.053501 
L 364.085673 218.903763 
L 364.329164 244.154998 
L 364.410327 242.322339 
L 364.572655 223.660897 
L 364.653818 223.564383 
L 364.734982 235.700725 
L 364.816145 223.976635 
L 364.978473 238.653024 
L 365.1408 219.634582 
L 365.221964 240.043859 
L 365.303127 236.745664 
L 365.384291 233.954631 
L 365.465455 210.816069 
L 365.546618 235.053576 
L 365.627782 208.549524 
L 365.708945 240.41404 
L 365.790109 236.5168 
L 365.871273 219.069784 
L 365.952436 221.633001 
L 366.114764 235.723248 
L 366.195927 210.222898 
L 366.277091 213.926956 
L 366.358255 226.066619 
L 366.439418 211.095004 
L 366.601745 240.825177 
L 366.682909 229.41284 
L 366.764073 238.244668 
L 366.9264 223.105813 
L 367.007564 198.449794 
L 367.088727 237.595776 
L 367.169891 224.9262 
L 367.251055 235.491818 
L 367.332218 217.685391 
L 367.413382 228.686432 
L 367.494545 220.522525 
L 367.575709 234.410619 
L 367.738036 199.808325 
L 367.8192 230.647246 
L 367.900364 222.861215 
L 367.981527 227.35044 
L 368.062691 213.905374 
L 368.143855 238.031778 
L 368.225018 237.647492 
L 368.306182 237.358606 
L 368.387345 227.05784 
L 368.468509 236.70593 
L 368.549673 223.87247 
L 368.712 241.106374 
L 368.793164 221.289358 
L 368.874327 241.659891 
L 368.955491 235.120026 
L 369.036655 243.653802 
L 369.117818 224.963177 
L 369.198982 241.515429 
L 369.280145 215.200769 
L 369.361309 244.252355 
L 369.442473 238.142042 
L 369.6048 202.161945 
L 369.685964 237.463762 
L 369.848291 202.887422 
L 370.010618 245.098157 
L 370.091782 237.404341 
L 370.172945 218.165089 
L 370.254109 219.645649 
L 370.335273 234.989499 
L 370.416436 215.66512 
L 370.659927 235.228826 
L 370.741091 239.13094 
L 370.822255 232.385039 
L 370.903418 201.129735 
L 370.984582 233.070579 
L 371.065745 225.931629 
L 371.146909 231.190684 
L 371.228073 225.846122 
L 371.309236 235.796658 
L 371.3904 232.781697 
L 371.552727 214.089319 
L 371.633891 239.491055 
L 371.715055 209.375063 
L 371.796218 237.697311 
L 371.877382 215.89059 
L 371.958545 231.18096 
L 372.039709 212.714797 
L 372.2832 236.525539 
L 372.364364 212.37121 
L 372.445527 228.468144 
L 372.526691 225.279324 
L 372.607855 230.218508 
L 372.770182 212.585953 
L 372.932509 231.836216 
L 373.013673 229.873033 
L 373.257164 213.814967 
L 373.338327 223.769427 
L 373.419491 212.899932 
L 373.500655 238.282316 
L 373.500655 238.282316 
" clip-path="url(#p321a665cec)" style="fill: none; stroke: #1f77b4; stroke-width: 1.5; stroke-linecap: square"/>
   </g>
   <g id="line2d_28">
    <path d="M 69.218182 46.714656 
L 71.815418 46.625462 
L 74.412655 49.114065 
L 77.009891 49.684582 
L 79.607127 49.626959 
L 82.204364 50.935771 
L 84.8016 54.022162 
L 87.398836 56.12225 
L 89.996073 57.654622 
L 92.593309 60.152423 
L 95.190545 62.578889 
L 97.787782 67.169099 
L 100.385018 72.233102 
L 102.982255 80.423249 
L 105.579491 84.045806 
L 108.176727 88.754758 
L 110.773964 104.015139 
L 113.3712 104.327092 
L 115.968436 119.008561 
L 118.565673 128.388499 
L 121.162909 144.279245 
L 123.760145 145.648566 
L 126.357382 154.03603 
L 128.954618 162.486495 
L 131.551855 181.318757 
L 134.149091 169.89544 
L 136.746327 177.914745 
L 139.343564 193.399506 
L 141.9408 185.979631 
L 144.538036 191.493826 
L 147.135273 198.793996 
L 149.732509 206.108593 
L 152.329745 190.248562 
L 154.926982 196.739077 
L 157.524218 212.851817 
L 160.121455 212.148989 
L 162.718691 208.258459 
L 165.315927 208.236283 
L 167.913164 217.053562 
L 170.5104 219.555009 
L 173.107636 195.319982 
L 175.704873 182.518472 
L 178.302109 221.732229 
L 180.899345 208.638889 
L 183.496582 212.768081 
L 186.093818 215.23381 
L 188.691055 210.014451 
L 191.288291 222.515217 
L 193.885527 221.676446 
L 196.482764 218.409772 
L 199.08 218.109854 
L 201.677236 220.500873 
L 204.274473 217.060409 
L 206.871709 223.672153 
L 209.468945 221.258555 
L 212.066182 210.556247 
L 214.663418 230.055749 
L 217.260655 220.232015 
L 219.857891 219.871129 
L 222.455127 231.916844 
L 225.052364 223.306851 
L 227.6496 217.230537 
L 230.246836 229.579331 
L 232.844073 222.978482 
L 235.441309 226.179892 
L 238.038545 212.880139 
L 240.635782 231.457131 
L 243.233018 221.103982 
L 245.830255 201.991323 
L 248.427491 228.51166 
L 251.024727 227.319359 
L 253.621964 215.576259 
L 256.2192 224.485011 
L 258.816436 221.289219 
L 261.413673 224.26307 
L 264.010909 214.148843 
L 266.608145 233.3063 
L 269.205382 217.819414 
L 271.802618 232.779146 
L 274.399855 228.874851 
L 276.997091 221.94883 
L 279.594327 219.925204 
L 282.191564 226.43293 
L 284.7888 219.361216 
L 287.386036 228.057964 
L 289.983273 231.488037 
L 292.580509 223.852147 
L 295.177745 219.100275 
L 297.774982 225.131821 
L 300.372218 222.483207 
L 302.969455 225.641247 
L 305.566691 226.101321 
L 308.163927 225.692641 
L 310.761164 224.91642 
L 313.3584 221.525865 
L 315.955636 230.276952 
L 318.552873 213.502269 
L 321.150109 224.657347 
L 323.747345 224.230679 
L 326.344582 237.357165 
L 328.941818 238.620779 
L 331.539055 227.318803 
L 334.136291 230.765973 
L 336.733527 224.707987 
L 339.330764 234.05892 
L 341.928 225.695362 
L 344.525236 234.521366 
L 347.122473 226.110374 
L 349.719709 235.655549 
L 352.316945 227.417046 
L 354.914182 226.764074 
L 357.511418 230.632276 
L 360.108655 213.3202 
L 362.705891 240.519874 
L 365.303127 224.006605 
L 367.900364 240.373824 
L 370.4976 228.746017 
L 373.094836 241.700212 
L 373.581818 228.837826 
" clip-path="url(#p321a665cec)" style="fill: none; stroke: #ff7f0e; stroke-width: 1.5; stroke-linecap: square"/>
   </g>
   <g id="patch_3">
    <path d="M 54 256.32 
L 54 34.56 
" style="fill: none; stroke: #000000; stroke-width: 0.8; stroke-linejoin: miter; stroke-linecap: square"/>
   </g>
   <g id="patch_4">
    <path d="M 388.8 256.32 
L 388.8 34.56 
" style="fill: none; stroke: #000000; stroke-width: 0.8; stroke-linejoin: miter; stroke-linecap: square"/>
   </g>
   <g id="patch_5">
    <path d="M 54 256.32 
L 388.8 256.32 
" style="fill: none; stroke: #000000; stroke-width: 0.8; stroke-linejoin: miter; stroke-linecap: square"/>
   </g>
   <g id="patch_6">
    <path d="M 54 34.56 
L 388.8 34.56 
" style="fill: none; stroke: #000000; stroke-width: 0.8; stroke-linejoin: miter; stroke-linecap: square"/>
   </g>
   <g id="text_16">
    <!-- Average loss -->
    <g transform="translate(183.264375 28.56)scale(0.12 -0.12)">
     <defs>
      <path id="DejaVuSans-41" d="M 2188 4044 
L 1331 1722 
L 3047 1722 
L 2188 4044 
z
M 1831 4666 
L 2547 4666 
L 4325 0 
L 3669 0 
L 3244 1197 
L 1141 1197 
L 716 0 
L 50 0 
L 1831 4666 
z
" transform="scale(0.015625)"/>
      <path id="DejaVuSans-76" d="M 191 3500 
L 800 3500 
L 1894 563 
L 2988 3500 
L 3597 3500 
L 2284 0 
L 1503 0 
L 191 3500 
z
" transform="scale(0.015625)"/>
      <path id="DejaVuSans-67" d="M 2906 1791 
Q 2906 2416 2648 2759 
Q 2391 3103 1925 3103 
Q 1463 3103 1205 2759 
Q 947 2416 947 1791 
Q 947 1169 1205 825 
Q 1463 481 1925 481 
Q 2391 481 2648 825 
Q 2906 1169 2906 1791 
z
M 3481 434 
Q 3481 -459 3084 -895 
Q 2688 -1331 1869 -1331 
Q 1566 -1331 1297 -1286 
Q 1028 -1241 775 -1147 
L 775 -588 
Q 1028 -725 1275 -790 
Q 1522 -856 1778 -856 
Q 2344 -856 2625 -561 
Q 2906 -266 2906 331 
L 2906 616 
Q 2728 306 2450 153 
Q 2172 0 1784 0 
Q 1141 0 747 490 
Q 353 981 353 1791 
Q 353 2603 747 3093 
Q 1141 3584 1784 3584 
Q 2172 3584 2450 3431 
Q 2728 3278 2906 2969 
L 2906 3500 
L 3481 3500 
L 3481 434 
z
" transform="scale(0.015625)"/>
     </defs>
     <use xlink:href="#DejaVuSans-41"/>
     <use xlink:href="#DejaVuSans-76" x="62.533203"/>
     <use xlink:href="#DejaVuSans-65" x="121.712891"/>
     <use xlink:href="#DejaVuSans-72" x="183.236328"/>
     <use xlink:href="#DejaVuSans-61" x="224.349609"/>
     <use xlink:href="#DejaVuSans-67" x="285.628906"/>
     <use xlink:href="#DejaVuSans-65" x="349.105469"/>
     <use xlink:href="#DejaVuSans-20" x="410.628906"/>
     <use xlink:href="#DejaVuSans-6c" x="442.416016"/>
     <use xlink:href="#DejaVuSans-6f" x="470.199219"/>
     <use xlink:href="#DejaVuSans-73" x="531.380859"/>
     <use xlink:href="#DejaVuSans-73" x="583.480469"/>
    </g>
   </g>
   <g id="legend_1">
    <g id="patch_7">
     <path d="M 300.565625 71.91625 
L 381.8 71.91625 
Q 383.8 71.91625 383.8 69.91625 
L 383.8 41.56 
Q 383.8 39.56 381.8 39.56 
L 300.565625 39.56 
Q 298.565625 39.56 298.565625 41.56 
L 298.565625 69.91625 
Q 298.565625 71.91625 300.565625 71.91625 
z
" style="fill: #ffffff; opacity: 0.8; stroke: #cccccc; stroke-linejoin: miter"/>
    </g>
    <g id="line2d_29">
     <path d="M 302.565625 47.658437 
L 312.565625 47.658437 
L 322.565625 47.658437 
" style="fill: none; stroke: #1f77b4; stroke-width: 1.5; stroke-linecap: square"/>
    </g>
    <g id="text_17">
     <!-- training -->
     <g transform="translate(330.565625 51.158437)scale(0.1 -0.1)">
      <defs>
       <path id="DejaVuSans-69" d="M 603 3500 
L 1178 3500 
L 1178 0 
L 603 0 
L 603 3500 
z
M 603 4863 
L 1178 4863 
L 1178 4134 
L 603 4134 
L 603 4863 
z
" transform="scale(0.015625)"/>
      </defs>
      <use xlink:href="#DejaVuSans-74"/>
      <use xlink:href="#DejaVuSans-72" x="39.208984"/>
      <use xlink:href="#DejaVuSans-61" x="80.322266"/>
      <use xlink:href="#DejaVuSans-69" x="141.601562"/>
      <use xlink:href="#DejaVuSans-6e" x="169.384766"/>
      <use xlink:href="#DejaVuSans-69" x="232.763672"/>
      <use xlink:href="#DejaVuSans-6e" x="260.546875"/>
      <use xlink:href="#DejaVuSans-67" x="323.925781"/>
     </g>
    </g>
    <g id="line2d_30">
     <path d="M 302.565625 62.336562 
L 312.565625 62.336562 
L 322.565625 62.336562 
" style="fill: none; stroke: #ff7f0e; stroke-width: 1.5; stroke-linecap: square"/>
    </g>
    <g id="text_18">
     <!-- validation -->
     <g transform="translate(330.565625 65.836562)scale(0.1 -0.1)">
      <defs>
       <path id="DejaVuSans-64" d="M 2906 2969 
L 2906 4863 
L 3481 4863 
L 3481 0 
L 2906 0 
L 2906 525 
Q 2725 213 2448 61 
Q 2172 -91 1784 -91 
Q 1150 -91 751 415 
Q 353 922 353 1747 
Q 353 2572 751 3078 
Q 1150 3584 1784 3584 
Q 2172 3584 2448 3432 
Q 2725 3281 2906 2969 
z
M 947 1747 
Q 947 1113 1208 752 
Q 1469 391 1925 391 
Q 2381 391 2643 752 
Q 2906 1113 2906 1747 
Q 2906 2381 2643 2742 
Q 2381 3103 1925 3103 
Q 1469 3103 1208 2742 
Q 947 2381 947 1747 
z
" transform="scale(0.015625)"/>
      </defs>
      <use xlink:href="#DejaVuSans-76"/>
      <use xlink:href="#DejaVuSans-61" x="59.179688"/>
      <use xlink:href="#DejaVuSans-6c" x="120.458984"/>
      <use xlink:href="#DejaVuSans-69" x="148.242188"/>
      <use xlink:href="#DejaVuSans-64" x="176.025391"/>
      <use xlink:href="#DejaVuSans-61" x="239.501953"/>
      <use xlink:href="#DejaVuSans-74" x="300.78125"/>
      <use xlink:href="#DejaVuSans-69" x="339.990234"/>
      <use xlink:href="#DejaVuSans-6f" x="367.773438"/>
      <use xlink:href="#DejaVuSans-6e" x="428.955078"/>
     </g>
    </g>
   </g>
  </g>
 </g>
 <defs>
  <clipPath id="p321a665cec">
   <rect x="54" y="34.56" width="334.8" height="221.76"/>
  </clipPath>
 </defs>
</svg>
