<?xml version="1.0" encoding="utf-8" standalone="no"?>
<!DOCTYPE svg PUBLIC "-//W3C//DTD SVG 1.1//EN"
  "http://www.w3.org/Graphics/SVG/1.1/DTD/svg11.dtd">
<svg xmlns:xlink="http://www.w3.org/1999/xlink" width="432pt" height="288pt" viewBox="0 0 432 288" xmlns="http://www.w3.org/2000/svg" version="1.1">
 <metadata>
  <rdf:RDF xmlns:dc="http://purl.org/dc/elements/1.1/" xmlns:cc="http://creativecommons.org/ns#" xmlns:rdf="http://www.w3.org/1999/02/22-rdf-syntax-ns#">
   <cc:Work>
    <dc:type rdf:resource="http://purl.org/dc/dcmitype/StillImage"/>
    <dc:date>2023-01-30T22:29:15.312290</dc:date>
    <dc:format>image/svg+xml</dc:format>
    <dc:creator>
     <cc:Agent>
      <dc:title>Matplotlib v3.5.1, https://matplotlib.org/</dc:title>
     </cc:Agent>
    </dc:creator>
   </cc:Work>
  </rdf:RDF>
 </metadata>
 <defs>
  <style type="text/css">*{stroke-linejoin: round; stroke-linecap: butt}</style>
 </defs>
 <g id="figure_1">
  <g id="patch_1">
   <path d="M 0 288 
L 432 288 
L 432 0 
L 0 0 
z
" style="fill: #ffffff"/>
  </g>
  <g id="axes_1">
   <g id="patch_2">
    <path d="M 54 256.32 
L 388.8 256.32 
L 388.8 34.56 
L 54 34.56 
z
" style="fill: #ffffff"/>
   </g>
   <g id="matplotlib.axis_1">
    <g id="xtick_1">
     <g id="line2d_1">
      <path d="M 69.218182 256.32 
L 69.218182 34.56 
" clip-path="url(#p412071a30a)" style="fill: none; stroke: #b0b0b0; stroke-width: 0.8; stroke-linecap: square"/>
     </g>
     <g id="line2d_2">
      <defs>
       <path id="m042fbde3b0" d="M 0 0 
L 0 3.5 
" style="stroke: #000000; stroke-width: 0.8"/>
      </defs>
      <g>
       <use xlink:href="#m042fbde3b0" x="69.218182" y="256.32" style="stroke: #000000; stroke-width: 0.8"/>
      </g>
     </g>
     <g id="text_1">
      <!-- 0 -->
      <g transform="translate(66.036932 270.918437)scale(0.1 -0.1)">
       <defs>
        <path id="DejaVuSans-30" d="M 2034 4250 
Q 1547 4250 1301 3770 
Q 1056 3291 1056 2328 
Q 1056 1369 1301 889 
Q 1547 409 2034 409 
Q 2525 409 2770 889 
Q 3016 1369 3016 2328 
Q 3016 3291 2770 3770 
Q 2525 4250 2034 4250 
z
M 2034 4750 
Q 2819 4750 3233 4129 
Q 3647 3509 3647 2328 
Q 3647 1150 3233 529 
Q 2819 -91 2034 -91 
Q 1250 -91 836 529 
Q 422 1150 422 2328 
Q 422 3509 836 4129 
Q 1250 4750 2034 4750 
z
" transform="scale(0.015625)"/>
       </defs>
       <use xlink:href="#DejaVuSans-30"/>
      </g>
     </g>
    </g>
    <g id="xtick_2">
     <g id="line2d_3">
      <path d="M 109.8 256.32 
L 109.8 34.56 
" clip-path="url(#p412071a30a)" style="fill: none; stroke: #b0b0b0; stroke-width: 0.8; stroke-linecap: square"/>
     </g>
     <g id="line2d_4">
      <g>
       <use xlink:href="#m042fbde3b0" x="109.8" y="256.32" style="stroke: #000000; stroke-width: 0.8"/>
      </g>
     </g>
     <g id="text_2">
      <!-- 500 -->
      <g transform="translate(100.25625 270.918437)scale(0.1 -0.1)">
       <defs>
        <path id="DejaVuSans-35" d="M 691 4666 
L 3169 4666 
L 3169 4134 
L 1269 4134 
L 1269 2991 
Q 1406 3038 1543 3061 
Q 1681 3084 1819 3084 
Q 2600 3084 3056 2656 
Q 3513 2228 3513 1497 
Q 3513 744 3044 326 
Q 2575 -91 1722 -91 
Q 1428 -91 1123 -41 
Q 819 9 494 109 
L 494 744 
Q 775 591 1075 516 
Q 1375 441 1709 441 
Q 2250 441 2565 725 
Q 2881 1009 2881 1497 
Q 2881 1984 2565 2268 
Q 2250 2553 1709 2553 
Q 1456 2553 1204 2497 
Q 953 2441 691 2322 
L 691 4666 
z
" transform="scale(0.015625)"/>
       </defs>
       <use xlink:href="#DejaVuSans-35"/>
       <use xlink:href="#DejaVuSans-30" x="63.623047"/>
       <use xlink:href="#DejaVuSans-30" x="127.246094"/>
      </g>
     </g>
    </g>
    <g id="xtick_3">
     <g id="line2d_5">
      <path d="M 150.381818 256.32 
L 150.381818 34.56 
" clip-path="url(#p412071a30a)" style="fill: none; stroke: #b0b0b0; stroke-width: 0.8; stroke-linecap: square"/>
     </g>
     <g id="line2d_6">
      <g>
       <use xlink:href="#m042fbde3b0" x="150.381818" y="256.32" style="stroke: #000000; stroke-width: 0.8"/>
      </g>
     </g>
     <g id="text_3">
      <!-- 1000 -->
      <g transform="translate(137.656818 270.918437)scale(0.1 -0.1)">
       <defs>
        <path id="DejaVuSans-31" d="M 794 531 
L 1825 531 
L 1825 4091 
L 703 3866 
L 703 4441 
L 1819 4666 
L 2450 4666 
L 2450 531 
L 3481 531 
L 3481 0 
L 794 0 
L 794 531 
z
" transform="scale(0.015625)"/>
       </defs>
       <use xlink:href="#DejaVuSans-31"/>
       <use xlink:href="#DejaVuSans-30" x="63.623047"/>
       <use xlink:href="#DejaVuSans-30" x="127.246094"/>
       <use xlink:href="#DejaVuSans-30" x="190.869141"/>
      </g>
     </g>
    </g>
    <g id="xtick_4">
     <g id="line2d_7">
      <path d="M 190.963636 256.32 
L 190.963636 34.56 
" clip-path="url(#p412071a30a)" style="fill: none; stroke: #b0b0b0; stroke-width: 0.8; stroke-linecap: square"/>
     </g>
     <g id="line2d_8">
      <g>
       <use xlink:href="#m042fbde3b0" x="190.963636" y="256.32" style="stroke: #000000; stroke-width: 0.8"/>
      </g>
     </g>
     <g id="text_4">
      <!-- 1500 -->
      <g transform="translate(178.238636 270.918437)scale(0.1 -0.1)">
       <use xlink:href="#DejaVuSans-31"/>
       <use xlink:href="#DejaVuSans-35" x="63.623047"/>
       <use xlink:href="#DejaVuSans-30" x="127.246094"/>
       <use xlink:href="#DejaVuSans-30" x="190.869141"/>
      </g>
     </g>
    </g>
    <g id="xtick_5">
     <g id="line2d_9">
      <path d="M 231.545455 256.32 
L 231.545455 34.56 
" clip-path="url(#p412071a30a)" style="fill: none; stroke: #b0b0b0; stroke-width: 0.8; stroke-linecap: square"/>
     </g>
     <g id="line2d_10">
      <g>
       <use xlink:href="#m042fbde3b0" x="231.545455" y="256.32" style="stroke: #000000; stroke-width: 0.8"/>
      </g>
     </g>
     <g id="text_5">
      <!-- 2000 -->
      <g transform="translate(218.820455 270.918437)scale(0.1 -0.1)">
       <defs>
        <path id="DejaVuSans-32" d="M 1228 531 
L 3431 531 
L 3431 0 
L 469 0 
L 469 531 
Q 828 903 1448 1529 
Q 2069 2156 2228 2338 
Q 2531 2678 2651 2914 
Q 2772 3150 2772 3378 
Q 2772 3750 2511 3984 
Q 2250 4219 1831 4219 
Q 1534 4219 1204 4116 
Q 875 4013 500 3803 
L 500 4441 
Q 881 4594 1212 4672 
Q 1544 4750 1819 4750 
Q 2544 4750 2975 4387 
Q 3406 4025 3406 3419 
Q 3406 3131 3298 2873 
Q 3191 2616 2906 2266 
Q 2828 2175 2409 1742 
Q 1991 1309 1228 531 
z
" transform="scale(0.015625)"/>
       </defs>
       <use xlink:href="#DejaVuSans-32"/>
       <use xlink:href="#DejaVuSans-30" x="63.623047"/>
       <use xlink:href="#DejaVuSans-30" x="127.246094"/>
       <use xlink:href="#DejaVuSans-30" x="190.869141"/>
      </g>
     </g>
    </g>
    <g id="xtick_6">
     <g id="line2d_11">
      <path d="M 272.127273 256.32 
L 272.127273 34.56 
" clip-path="url(#p412071a30a)" style="fill: none; stroke: #b0b0b0; stroke-width: 0.8; stroke-linecap: square"/>
     </g>
     <g id="line2d_12">
      <g>
       <use xlink:href="#m042fbde3b0" x="272.127273" y="256.32" style="stroke: #000000; stroke-width: 0.8"/>
      </g>
     </g>
     <g id="text_6">
      <!-- 2500 -->
      <g transform="translate(259.402273 270.918437)scale(0.1 -0.1)">
       <use xlink:href="#DejaVuSans-32"/>
       <use xlink:href="#DejaVuSans-35" x="63.623047"/>
       <use xlink:href="#DejaVuSans-30" x="127.246094"/>
       <use xlink:href="#DejaVuSans-30" x="190.869141"/>
      </g>
     </g>
    </g>
    <g id="xtick_7">
     <g id="line2d_13">
      <path d="M 312.709091 256.32 
L 312.709091 34.56 
" clip-path="url(#p412071a30a)" style="fill: none; stroke: #b0b0b0; stroke-width: 0.8; stroke-linecap: square"/>
     </g>
     <g id="line2d_14">
      <g>
       <use xlink:href="#m042fbde3b0" x="312.709091" y="256.32" style="stroke: #000000; stroke-width: 0.8"/>
      </g>
     </g>
     <g id="text_7">
      <!-- 3000 -->
      <g transform="translate(299.984091 270.918437)scale(0.1 -0.1)">
       <defs>
        <path id="DejaVuSans-33" d="M 2597 2516 
Q 3050 2419 3304 2112 
Q 3559 1806 3559 1356 
Q 3559 666 3084 287 
Q 2609 -91 1734 -91 
Q 1441 -91 1130 -33 
Q 819 25 488 141 
L 488 750 
Q 750 597 1062 519 
Q 1375 441 1716 441 
Q 2309 441 2620 675 
Q 2931 909 2931 1356 
Q 2931 1769 2642 2001 
Q 2353 2234 1838 2234 
L 1294 2234 
L 1294 2753 
L 1863 2753 
Q 2328 2753 2575 2939 
Q 2822 3125 2822 3475 
Q 2822 3834 2567 4026 
Q 2313 4219 1838 4219 
Q 1578 4219 1281 4162 
Q 984 4106 628 3988 
L 628 4550 
Q 988 4650 1302 4700 
Q 1616 4750 1894 4750 
Q 2613 4750 3031 4423 
Q 3450 4097 3450 3541 
Q 3450 3153 3228 2886 
Q 3006 2619 2597 2516 
z
" transform="scale(0.015625)"/>
       </defs>
       <use xlink:href="#DejaVuSans-33"/>
       <use xlink:href="#DejaVuSans-30" x="63.623047"/>
       <use xlink:href="#DejaVuSans-30" x="127.246094"/>
       <use xlink:href="#DejaVuSans-30" x="190.869141"/>
      </g>
     </g>
    </g>
    <g id="xtick_8">
     <g id="line2d_15">
      <path d="M 353.290909 256.32 
L 353.290909 34.56 
" clip-path="url(#p412071a30a)" style="fill: none; stroke: #b0b0b0; stroke-width: 0.8; stroke-linecap: square"/>
     </g>
     <g id="line2d_16">
      <g>
       <use xlink:href="#m042fbde3b0" x="353.290909" y="256.32" style="stroke: #000000; stroke-width: 0.8"/>
      </g>
     </g>
     <g id="text_8">
      <!-- 3500 -->
      <g transform="translate(340.565909 270.918437)scale(0.1 -0.1)">
       <use xlink:href="#DejaVuSans-33"/>
       <use xlink:href="#DejaVuSans-35" x="63.623047"/>
       <use xlink:href="#DejaVuSans-30" x="127.246094"/>
       <use xlink:href="#DejaVuSans-30" x="190.869141"/>
      </g>
     </g>
    </g>
    <g id="text_9">
     <!-- Batch number -->
     <g transform="translate(185.924219 284.596563)scale(0.1 -0.1)">
      <defs>
       <path id="DejaVuSans-42" d="M 1259 2228 
L 1259 519 
L 2272 519 
Q 2781 519 3026 730 
Q 3272 941 3272 1375 
Q 3272 1813 3026 2020 
Q 2781 2228 2272 2228 
L 1259 2228 
z
M 1259 4147 
L 1259 2741 
L 2194 2741 
Q 2656 2741 2882 2914 
Q 3109 3088 3109 3444 
Q 3109 3797 2882 3972 
Q 2656 4147 2194 4147 
L 1259 4147 
z
M 628 4666 
L 2241 4666 
Q 2963 4666 3353 4366 
Q 3744 4066 3744 3513 
Q 3744 3084 3544 2831 
Q 3344 2578 2956 2516 
Q 3422 2416 3680 2098 
Q 3938 1781 3938 1306 
Q 3938 681 3513 340 
Q 3088 0 2303 0 
L 628 0 
L 628 4666 
z
" transform="scale(0.015625)"/>
       <path id="DejaVuSans-61" d="M 2194 1759 
Q 1497 1759 1228 1600 
Q 959 1441 959 1056 
Q 959 750 1161 570 
Q 1363 391 1709 391 
Q 2188 391 2477 730 
Q 2766 1069 2766 1631 
L 2766 1759 
L 2194 1759 
z
M 3341 1997 
L 3341 0 
L 2766 0 
L 2766 531 
Q 2569 213 2275 61 
Q 1981 -91 1556 -91 
Q 1019 -91 701 211 
Q 384 513 384 1019 
Q 384 1609 779 1909 
Q 1175 2209 1959 2209 
L 2766 2209 
L 2766 2266 
Q 2766 2663 2505 2880 
Q 2244 3097 1772 3097 
Q 1472 3097 1187 3025 
Q 903 2953 641 2809 
L 641 3341 
Q 956 3463 1253 3523 
Q 1550 3584 1831 3584 
Q 2591 3584 2966 3190 
Q 3341 2797 3341 1997 
z
" transform="scale(0.015625)"/>
       <path id="DejaVuSans-74" d="M 1172 4494 
L 1172 3500 
L 2356 3500 
L 2356 3053 
L 1172 3053 
L 1172 1153 
Q 1172 725 1289 603 
Q 1406 481 1766 481 
L 2356 481 
L 2356 0 
L 1766 0 
Q 1100 0 847 248 
Q 594 497 594 1153 
L 594 3053 
L 172 3053 
L 172 3500 
L 594 3500 
L 594 4494 
L 1172 4494 
z
" transform="scale(0.015625)"/>
       <path id="DejaVuSans-63" d="M 3122 3366 
L 3122 2828 
Q 2878 2963 2633 3030 
Q 2388 3097 2138 3097 
Q 1578 3097 1268 2742 
Q 959 2388 959 1747 
Q 959 1106 1268 751 
Q 1578 397 2138 397 
Q 2388 397 2633 464 
Q 2878 531 3122 666 
L 3122 134 
Q 2881 22 2623 -34 
Q 2366 -91 2075 -91 
Q 1284 -91 818 406 
Q 353 903 353 1747 
Q 353 2603 823 3093 
Q 1294 3584 2113 3584 
Q 2378 3584 2631 3529 
Q 2884 3475 3122 3366 
z
" transform="scale(0.015625)"/>
       <path id="DejaVuSans-68" d="M 3513 2113 
L 3513 0 
L 2938 0 
L 2938 2094 
Q 2938 2591 2744 2837 
Q 2550 3084 2163 3084 
Q 1697 3084 1428 2787 
Q 1159 2491 1159 1978 
L 1159 0 
L 581 0 
L 581 4863 
L 1159 4863 
L 1159 2956 
Q 1366 3272 1645 3428 
Q 1925 3584 2291 3584 
Q 2894 3584 3203 3211 
Q 3513 2838 3513 2113 
z
" transform="scale(0.015625)"/>
       <path id="DejaVuSans-20" transform="scale(0.015625)"/>
       <path id="DejaVuSans-6e" d="M 3513 2113 
L 3513 0 
L 2938 0 
L 2938 2094 
Q 2938 2591 2744 2837 
Q 2550 3084 2163 3084 
Q 1697 3084 1428 2787 
Q 1159 2491 1159 1978 
L 1159 0 
L 581 0 
L 581 3500 
L 1159 3500 
L 1159 2956 
Q 1366 3272 1645 3428 
Q 1925 3584 2291 3584 
Q 2894 3584 3203 3211 
Q 3513 2838 3513 2113 
z
" transform="scale(0.015625)"/>
       <path id="DejaVuSans-75" d="M 544 1381 
L 544 3500 
L 1119 3500 
L 1119 1403 
Q 1119 906 1312 657 
Q 1506 409 1894 409 
Q 2359 409 2629 706 
Q 2900 1003 2900 1516 
L 2900 3500 
L 3475 3500 
L 3475 0 
L 2900 0 
L 2900 538 
Q 2691 219 2414 64 
Q 2138 -91 1772 -91 
Q 1169 -91 856 284 
Q 544 659 544 1381 
z
M 1991 3584 
L 1991 3584 
z
" transform="scale(0.015625)"/>
       <path id="DejaVuSans-6d" d="M 3328 2828 
Q 3544 3216 3844 3400 
Q 4144 3584 4550 3584 
Q 5097 3584 5394 3201 
Q 5691 2819 5691 2113 
L 5691 0 
L 5113 0 
L 5113 2094 
Q 5113 2597 4934 2840 
Q 4756 3084 4391 3084 
Q 3944 3084 3684 2787 
Q 3425 2491 3425 1978 
L 3425 0 
L 2847 0 
L 2847 2094 
Q 2847 2600 2669 2842 
Q 2491 3084 2119 3084 
Q 1678 3084 1418 2786 
Q 1159 2488 1159 1978 
L 1159 0 
L 581 0 
L 581 3500 
L 1159 3500 
L 1159 2956 
Q 1356 3278 1631 3431 
Q 1906 3584 2284 3584 
Q 2666 3584 2933 3390 
Q 3200 3197 3328 2828 
z
" transform="scale(0.015625)"/>
       <path id="DejaVuSans-62" d="M 3116 1747 
Q 3116 2381 2855 2742 
Q 2594 3103 2138 3103 
Q 1681 3103 1420 2742 
Q 1159 2381 1159 1747 
Q 1159 1113 1420 752 
Q 1681 391 2138 391 
Q 2594 391 2855 752 
Q 3116 1113 3116 1747 
z
M 1159 2969 
Q 1341 3281 1617 3432 
Q 1894 3584 2278 3584 
Q 2916 3584 3314 3078 
Q 3713 2572 3713 1747 
Q 3713 922 3314 415 
Q 2916 -91 2278 -91 
Q 1894 -91 1617 61 
Q 1341 213 1159 525 
L 1159 0 
L 581 0 
L 581 4863 
L 1159 4863 
L 1159 2969 
z
" transform="scale(0.015625)"/>
       <path id="DejaVuSans-65" d="M 3597 1894 
L 3597 1613 
L 953 1613 
Q 991 1019 1311 708 
Q 1631 397 2203 397 
Q 2534 397 2845 478 
Q 3156 559 3463 722 
L 3463 178 
Q 3153 47 2828 -22 
Q 2503 -91 2169 -91 
Q 1331 -91 842 396 
Q 353 884 353 1716 
Q 353 2575 817 3079 
Q 1281 3584 2069 3584 
Q 2775 3584 3186 3129 
Q 3597 2675 3597 1894 
z
M 3022 2063 
Q 3016 2534 2758 2815 
Q 2500 3097 2075 3097 
Q 1594 3097 1305 2825 
Q 1016 2553 972 2059 
L 3022 2063 
z
" transform="scale(0.015625)"/>
       <path id="DejaVuSans-72" d="M 2631 2963 
Q 2534 3019 2420 3045 
Q 2306 3072 2169 3072 
Q 1681 3072 1420 2755 
Q 1159 2438 1159 1844 
L 1159 0 
L 581 0 
L 581 3500 
L 1159 3500 
L 1159 2956 
Q 1341 3275 1631 3429 
Q 1922 3584 2338 3584 
Q 2397 3584 2469 3576 
Q 2541 3569 2628 3553 
L 2631 2963 
z
" transform="scale(0.015625)"/>
      </defs>
      <use xlink:href="#DejaVuSans-42"/>
      <use xlink:href="#DejaVuSans-61" x="68.603516"/>
      <use xlink:href="#DejaVuSans-74" x="129.882812"/>
      <use xlink:href="#DejaVuSans-63" x="169.091797"/>
      <use xlink:href="#DejaVuSans-68" x="224.072266"/>
      <use xlink:href="#DejaVuSans-20" x="287.451172"/>
      <use xlink:href="#DejaVuSans-6e" x="319.238281"/>
      <use xlink:href="#DejaVuSans-75" x="382.617188"/>
      <use xlink:href="#DejaVuSans-6d" x="445.996094"/>
      <use xlink:href="#DejaVuSans-62" x="543.408203"/>
      <use xlink:href="#DejaVuSans-65" x="606.884766"/>
      <use xlink:href="#DejaVuSans-72" x="668.408203"/>
     </g>
    </g>
   </g>
   <g id="matplotlib.axis_2">
    <g id="ytick_1">
     <g id="line2d_17">
      <path d="M 54 246.24 
L 388.8 246.24 
" clip-path="url(#p412071a30a)" style="fill: none; stroke: #b0b0b0; stroke-width: 0.8; stroke-linecap: square"/>
     </g>
     <g id="line2d_18">
      <defs>
       <path id="m884d327cd2" d="M 0 0 
L -3.5 0 
" style="stroke: #000000; stroke-width: 0.8"/>
      </defs>
      <g>
       <use xlink:href="#m884d327cd2" x="54" y="246.24" style="stroke: #000000; stroke-width: 0.8"/>
      </g>
     </g>
     <g id="text_10">
      <!-- 0 -->
      <g transform="translate(40.6375 250.039219)scale(0.1 -0.1)">
       <use xlink:href="#DejaVuSans-30"/>
      </g>
     </g>
    </g>
    <g id="ytick_2">
     <g id="line2d_19">
      <path d="M 54 205.92 
L 388.8 205.92 
" clip-path="url(#p412071a30a)" style="fill: none; stroke: #b0b0b0; stroke-width: 0.8; stroke-linecap: square"/>
     </g>
     <g id="line2d_20">
      <g>
       <use xlink:href="#m884d327cd2" x="54" y="205.92" style="stroke: #000000; stroke-width: 0.8"/>
      </g>
     </g>
     <g id="text_11">
      <!-- 20 -->
      <g transform="translate(34.275 209.719219)scale(0.1 -0.1)">
       <use xlink:href="#DejaVuSans-32"/>
       <use xlink:href="#DejaVuSans-30" x="63.623047"/>
      </g>
     </g>
    </g>
    <g id="ytick_3">
     <g id="line2d_21">
      <path d="M 54 165.6 
L 388.8 165.6 
" clip-path="url(#p412071a30a)" style="fill: none; stroke: #b0b0b0; stroke-width: 0.8; stroke-linecap: square"/>
     </g>
     <g id="line2d_22">
      <g>
       <use xlink:href="#m884d327cd2" x="54" y="165.6" style="stroke: #000000; stroke-width: 0.8"/>
      </g>
     </g>
     <g id="text_12">
      <!-- 40 -->
      <g transform="translate(34.275 169.399219)scale(0.1 -0.1)">
       <defs>
        <path id="DejaVuSans-34" d="M 2419 4116 
L 825 1625 
L 2419 1625 
L 2419 4116 
z
M 2253 4666 
L 3047 4666 
L 3047 1625 
L 3713 1625 
L 3713 1100 
L 3047 1100 
L 3047 0 
L 2419 0 
L 2419 1100 
L 313 1100 
L 313 1709 
L 2253 4666 
z
" transform="scale(0.015625)"/>
       </defs>
       <use xlink:href="#DejaVuSans-34"/>
       <use xlink:href="#DejaVuSans-30" x="63.623047"/>
      </g>
     </g>
    </g>
    <g id="ytick_4">
     <g id="line2d_23">
      <path d="M 54 125.28 
L 388.8 125.28 
" clip-path="url(#p412071a30a)" style="fill: none; stroke: #b0b0b0; stroke-width: 0.8; stroke-linecap: square"/>
     </g>
     <g id="line2d_24">
      <g>
       <use xlink:href="#m884d327cd2" x="54" y="125.28" style="stroke: #000000; stroke-width: 0.8"/>
      </g>
     </g>
     <g id="text_13">
      <!-- 60 -->
      <g transform="translate(34.275 129.079219)scale(0.1 -0.1)">
       <defs>
        <path id="DejaVuSans-36" d="M 2113 2584 
Q 1688 2584 1439 2293 
Q 1191 2003 1191 1497 
Q 1191 994 1439 701 
Q 1688 409 2113 409 
Q 2538 409 2786 701 
Q 3034 994 3034 1497 
Q 3034 2003 2786 2293 
Q 2538 2584 2113 2584 
z
M 3366 4563 
L 3366 3988 
Q 3128 4100 2886 4159 
Q 2644 4219 2406 4219 
Q 1781 4219 1451 3797 
Q 1122 3375 1075 2522 
Q 1259 2794 1537 2939 
Q 1816 3084 2150 3084 
Q 2853 3084 3261 2657 
Q 3669 2231 3669 1497 
Q 3669 778 3244 343 
Q 2819 -91 2113 -91 
Q 1303 -91 875 529 
Q 447 1150 447 2328 
Q 447 3434 972 4092 
Q 1497 4750 2381 4750 
Q 2619 4750 2861 4703 
Q 3103 4656 3366 4563 
z
" transform="scale(0.015625)"/>
       </defs>
       <use xlink:href="#DejaVuSans-36"/>
       <use xlink:href="#DejaVuSans-30" x="63.623047"/>
      </g>
     </g>
    </g>
    <g id="ytick_5">
     <g id="line2d_25">
      <path d="M 54 84.96 
L 388.8 84.96 
" clip-path="url(#p412071a30a)" style="fill: none; stroke: #b0b0b0; stroke-width: 0.8; stroke-linecap: square"/>
     </g>
     <g id="line2d_26">
      <g>
       <use xlink:href="#m884d327cd2" x="54" y="84.96" style="stroke: #000000; stroke-width: 0.8"/>
      </g>
     </g>
     <g id="text_14">
      <!-- 80 -->
      <g transform="translate(34.275 88.759219)scale(0.1 -0.1)">
       <defs>
        <path id="DejaVuSans-38" d="M 2034 2216 
Q 1584 2216 1326 1975 
Q 1069 1734 1069 1313 
Q 1069 891 1326 650 
Q 1584 409 2034 409 
Q 2484 409 2743 651 
Q 3003 894 3003 1313 
Q 3003 1734 2745 1975 
Q 2488 2216 2034 2216 
z
M 1403 2484 
Q 997 2584 770 2862 
Q 544 3141 544 3541 
Q 544 4100 942 4425 
Q 1341 4750 2034 4750 
Q 2731 4750 3128 4425 
Q 3525 4100 3525 3541 
Q 3525 3141 3298 2862 
Q 3072 2584 2669 2484 
Q 3125 2378 3379 2068 
Q 3634 1759 3634 1313 
Q 3634 634 3220 271 
Q 2806 -91 2034 -91 
Q 1263 -91 848 271 
Q 434 634 434 1313 
Q 434 1759 690 2068 
Q 947 2378 1403 2484 
z
M 1172 3481 
Q 1172 3119 1398 2916 
Q 1625 2713 2034 2713 
Q 2441 2713 2670 2916 
Q 2900 3119 2900 3481 
Q 2900 3844 2670 4047 
Q 2441 4250 2034 4250 
Q 1625 4250 1398 4047 
Q 1172 3844 1172 3481 
z
" transform="scale(0.015625)"/>
       </defs>
       <use xlink:href="#DejaVuSans-38"/>
       <use xlink:href="#DejaVuSans-30" x="63.623047"/>
      </g>
     </g>
    </g>
    <g id="ytick_6">
     <g id="line2d_27">
      <path d="M 54 44.64 
L 388.8 44.64 
" clip-path="url(#p412071a30a)" style="fill: none; stroke: #b0b0b0; stroke-width: 0.8; stroke-linecap: square"/>
     </g>
     <g id="line2d_28">
      <g>
       <use xlink:href="#m884d327cd2" x="54" y="44.64" style="stroke: #000000; stroke-width: 0.8"/>
      </g>
     </g>
     <g id="text_15">
      <!-- 100 -->
      <g transform="translate(27.9125 48.439219)scale(0.1 -0.1)">
       <use xlink:href="#DejaVuSans-31"/>
       <use xlink:href="#DejaVuSans-30" x="63.623047"/>
       <use xlink:href="#DejaVuSans-30" x="127.246094"/>
      </g>
     </g>
    </g>
    <g id="text_16">
     <!-- % -->
     <g transform="translate(21.832812 150.190781)rotate(-90)scale(0.1 -0.1)">
      <defs>
       <path id="DejaVuSans-25" d="M 4653 2053 
Q 4381 2053 4226 1822 
Q 4072 1591 4072 1178 
Q 4072 772 4226 539 
Q 4381 306 4653 306 
Q 4919 306 5073 539 
Q 5228 772 5228 1178 
Q 5228 1588 5073 1820 
Q 4919 2053 4653 2053 
z
M 4653 2450 
Q 5147 2450 5437 2106 
Q 5728 1763 5728 1178 
Q 5728 594 5436 251 
Q 5144 -91 4653 -91 
Q 4153 -91 3862 251 
Q 3572 594 3572 1178 
Q 3572 1766 3864 2108 
Q 4156 2450 4653 2450 
z
M 1428 4353 
Q 1159 4353 1004 4120 
Q 850 3888 850 3481 
Q 850 3069 1003 2837 
Q 1156 2606 1428 2606 
Q 1700 2606 1854 2837 
Q 2009 3069 2009 3481 
Q 2009 3884 1853 4118 
Q 1697 4353 1428 4353 
z
M 4250 4750 
L 4750 4750 
L 1831 -91 
L 1331 -91 
L 4250 4750 
z
M 1428 4750 
Q 1922 4750 2215 4408 
Q 2509 4066 2509 3481 
Q 2509 2891 2217 2550 
Q 1925 2209 1428 2209 
Q 931 2209 642 2551 
Q 353 2894 353 3481 
Q 353 4063 643 4406 
Q 934 4750 1428 4750 
z
" transform="scale(0.015625)"/>
      </defs>
      <use xlink:href="#DejaVuSans-25"/>
     </g>
    </g>
   </g>
   <g id="line2d_29">
    <path d="M 69.218182 227.34 
L 69.380509 227.34 
L 69.461673 224.19 
L 69.542836 230.49 
L 69.786327 217.89 
L 69.867491 239.94 
L 70.029818 208.44 
L 70.192145 224.19 
L 70.273309 233.64 
L 70.354473 217.89 
L 70.435636 221.04 
L 70.760291 230.49 
L 70.841455 230.49 
L 70.922618 208.44 
L 71.003782 214.74 
L 71.084945 233.64 
L 71.166109 217.89 
L 71.247273 227.34 
L 71.328436 217.89 
L 71.4096 239.94 
L 71.571927 217.89 
L 71.653091 227.34 
L 71.734255 224.19 
L 71.815418 230.49 
L 71.977745 221.04 
L 72.140073 224.19 
L 72.3024 211.59 
L 72.464727 230.49 
L 72.627055 224.19 
L 72.870545 233.64 
L 72.951709 221.04 
L 73.032873 233.64 
L 73.114036 230.49 
L 73.1952 230.49 
L 73.438691 205.29 
L 73.519855 236.79 
L 73.601018 227.34 
L 73.682182 224.19 
L 73.763345 227.34 
L 73.925673 211.59 
L 74.006836 236.79 
L 74.088 230.49 
L 74.169164 221.04 
L 74.250327 227.34 
L 74.331491 217.89 
L 74.412655 230.49 
L 74.493818 217.89 
L 74.574982 227.34 
L 74.656145 217.89 
L 74.899636 230.49 
L 74.9808 208.44 
L 75.061964 239.94 
L 75.143127 230.49 
L 75.224291 230.49 
L 75.467782 217.89 
L 75.548945 217.89 
L 75.630109 224.19 
L 75.711273 217.89 
L 75.8736 236.79 
L 75.954764 208.44 
L 76.035927 230.49 
L 76.117091 227.34 
L 76.279418 221.04 
L 76.360582 227.34 
L 76.522909 224.19 
L 76.604073 211.59 
L 76.685236 233.64 
L 76.7664 202.14 
L 76.847564 211.59 
L 76.928727 230.49 
L 77.009891 227.34 
L 77.091055 224.19 
L 77.172218 233.64 
L 77.334545 227.34 
L 77.415709 202.14 
L 77.496873 230.49 
L 77.578036 217.89 
L 77.6592 227.34 
L 77.740364 217.89 
L 77.902691 227.34 
L 77.983855 221.04 
L 78.065018 243.09 
L 78.146182 221.04 
L 78.227345 224.19 
L 78.308509 214.74 
L 78.552 239.94 
L 78.633164 217.89 
L 78.795491 227.34 
L 79.038982 214.74 
L 79.363636 236.79 
L 79.4448 214.74 
L 79.525964 230.49 
L 79.688291 214.74 
L 79.769455 227.34 
L 79.931782 217.89 
L 80.012945 227.34 
L 80.094109 221.04 
L 80.3376 236.79 
L 80.418764 236.79 
L 80.499927 224.19 
L 80.581091 239.94 
L 80.662255 214.74 
L 80.824582 233.64 
L 80.986909 214.74 
L 81.068073 217.89 
L 81.149236 230.49 
L 81.2304 227.34 
L 81.311564 221.04 
L 81.473891 227.34 
L 81.636218 224.19 
L 81.798545 233.64 
L 81.960873 224.19 
L 82.042036 233.64 
L 82.1232 217.89 
L 82.204364 233.64 
L 82.285527 211.59 
L 82.447855 227.34 
L 82.529018 217.89 
L 82.691345 233.64 
L 82.853673 230.49 
L 83.016 214.74 
L 83.097164 230.49 
L 83.178327 214.74 
L 83.259491 233.64 
L 83.340655 227.34 
L 83.502982 221.04 
L 83.584145 230.49 
L 83.746473 221.04 
L 83.827636 224.19 
L 83.9088 217.89 
L 83.989964 227.34 
L 84.152291 208.44 
L 84.233455 214.74 
L 84.314618 211.59 
L 84.395782 202.14 
L 84.558109 227.34 
L 84.639273 227.34 
L 84.8016 246.24 
L 84.882764 211.59 
L 84.963927 221.04 
L 85.126255 227.34 
L 85.207418 211.59 
L 85.288582 221.04 
L 85.532073 205.29 
L 85.6944 233.64 
L 86.019055 208.44 
L 86.100218 221.04 
L 86.181382 205.29 
L 86.262545 211.59 
L 86.343709 202.14 
L 86.506036 227.34 
L 86.5872 195.84 
L 86.668364 217.89 
L 86.749527 208.44 
L 86.993018 224.19 
L 87.155345 208.44 
L 87.236509 208.44 
L 87.317673 211.59 
L 87.48 208.44 
L 87.642327 214.74 
L 87.723491 205.29 
L 87.804655 224.19 
L 87.966982 205.29 
L 88.048145 205.29 
L 88.129309 202.14 
L 88.210473 227.34 
L 88.3728 211.59 
L 88.453964 217.89 
L 88.616291 198.99 
L 88.778618 214.74 
L 88.940945 198.99 
L 89.022109 221.04 
L 89.103273 198.99 
L 89.184436 217.89 
L 89.2656 208.44 
L 89.346764 214.74 
L 89.427927 186.39 
L 89.590255 211.59 
L 89.671418 183.24 
L 89.752582 192.69 
L 89.833745 189.54 
L 89.996073 205.29 
L 90.1584 202.14 
L 90.239564 205.29 
L 90.320727 224.19 
L 90.483055 192.69 
L 90.564218 189.54 
L 90.726545 208.44 
L 90.888873 195.84 
L 90.970036 198.99 
L 91.0512 189.54 
L 91.213527 208.44 
L 91.375855 173.79 
L 91.538182 202.14 
L 91.700509 192.69 
L 91.781673 211.59 
L 91.862836 202.14 
L 91.944 208.44 
L 92.025164 192.69 
L 92.187491 214.74 
L 92.268655 186.39 
L 92.430982 214.74 
L 92.512145 186.39 
L 92.593309 211.59 
L 92.674473 180.09 
L 92.755636 195.84 
L 92.8368 186.39 
L 92.917964 205.29 
L 92.999127 198.99 
L 93.080291 208.44 
L 93.161455 186.39 
L 93.242618 192.69 
L 93.404945 202.14 
L 93.567273 186.39 
L 93.7296 202.14 
L 93.810764 192.69 
L 93.891927 195.84 
L 93.973091 202.14 
L 94.054255 183.24 
L 94.135418 202.14 
L 94.216582 198.99 
L 94.297745 205.29 
L 94.541236 170.64 
L 94.703564 211.59 
L 94.784727 205.29 
L 94.865891 198.99 
L 94.947055 180.09 
L 95.028218 198.99 
L 95.109382 192.69 
L 95.190545 198.99 
L 95.271709 195.84 
L 95.352873 180.09 
L 95.434036 198.99 
L 95.5152 195.84 
L 95.677527 183.24 
L 95.839855 198.99 
L 95.921018 183.24 
L 96.083345 202.14 
L 96.245673 158.04 
L 96.326836 208.44 
L 96.489164 167.49 
L 96.570327 202.14 
L 96.732655 176.94 
L 96.894982 205.29 
L 96.976145 154.89 
L 97.138473 186.39 
L 97.219636 173.79 
L 97.463127 195.84 
L 97.625455 154.89 
L 97.706618 195.84 
L 97.787782 189.54 
L 97.868945 167.49 
L 97.950109 183.24 
L 98.031273 132.84 
L 98.112436 180.09 
L 98.1936 173.79 
L 98.274764 148.59 
L 98.355927 180.09 
L 98.437091 164.34 
L 98.518255 173.79 
L 98.599418 161.19 
L 98.680582 170.64 
L 99.005236 151.74 
L 99.167564 170.64 
L 99.248727 164.34 
L 99.329891 167.49 
L 99.411055 183.24 
L 99.573382 148.59 
L 99.654545 173.79 
L 99.735709 170.64 
L 99.816873 151.74 
L 99.9792 167.49 
L 100.060364 142.29 
L 100.141527 173.79 
L 100.222691 158.04 
L 100.385018 180.09 
L 100.466182 158.04 
L 100.547345 170.64 
L 100.628509 154.89 
L 100.709673 170.64 
L 100.790836 145.44 
L 100.872 170.64 
L 101.034327 151.74 
L 101.115491 189.54 
L 101.277818 142.29 
L 101.358982 170.64 
L 101.440145 142.29 
L 101.521309 151.74 
L 101.602473 135.99 
L 101.683636 139.14 
L 101.7648 170.64 
L 101.845964 167.49 
L 102.008291 142.29 
L 102.089455 158.04 
L 102.170618 154.89 
L 102.332945 167.49 
L 102.414109 135.99 
L 102.495273 145.44 
L 102.576436 151.74 
L 102.6576 139.14 
L 102.738764 158.04 
L 102.901091 126.54 
L 102.982255 148.59 
L 103.063418 139.14 
L 103.144582 158.04 
L 103.306909 148.59 
L 103.388073 151.74 
L 103.469236 139.14 
L 103.5504 145.44 
L 103.631564 135.99 
L 103.712727 139.14 
L 103.793891 142.29 
L 103.956218 126.54 
L 104.037382 129.69 
L 104.118545 123.39 
L 104.199709 126.54 
L 104.362036 161.19 
L 104.4432 117.09 
L 104.524364 145.44 
L 104.686691 110.79 
L 104.849018 142.29 
L 104.930182 113.94 
L 105.011345 126.54 
L 105.092509 120.24 
L 105.173673 154.89 
L 105.254836 129.69 
L 105.336 161.19 
L 105.498327 132.84 
L 105.579491 135.99 
L 105.660655 151.74 
L 105.741818 123.39 
L 105.822982 132.84 
L 105.904145 129.69 
L 105.985309 139.14 
L 106.147636 120.24 
L 106.2288 95.04 
L 106.309964 135.99 
L 106.391127 123.39 
L 106.634618 151.74 
L 106.959273 129.69 
L 107.040436 151.74 
L 107.1216 101.34 
L 107.283927 142.29 
L 107.365091 117.09 
L 107.446255 123.39 
L 107.527418 110.79 
L 107.608582 139.14 
L 107.770909 117.09 
L 107.933236 148.59 
L 108.095564 145.44 
L 108.339055 107.64 
L 108.582545 145.44 
L 108.663709 117.09 
L 108.744873 154.89 
L 108.826036 123.39 
L 108.988364 139.14 
L 109.150691 88.74 
L 109.231855 104.49 
L 109.313018 132.84 
L 109.475345 120.24 
L 109.556509 123.39 
L 109.637673 110.79 
L 109.718836 126.54 
L 109.8 113.94 
L 109.881164 132.84 
L 109.962327 101.34 
L 110.043491 135.99 
L 110.124655 132.84 
L 110.286982 129.69 
L 110.449309 95.04 
L 110.530473 126.54 
L 110.611636 123.39 
L 110.773964 120.24 
L 110.855127 104.49 
L 110.936291 107.64 
L 111.017455 104.49 
L 111.098618 107.64 
L 111.179782 132.84 
L 111.260945 110.79 
L 111.342109 117.09 
L 111.423273 129.69 
L 111.5856 110.79 
L 111.747927 123.39 
L 111.829091 113.94 
L 111.910255 117.09 
L 112.072582 139.14 
L 112.234909 110.79 
L 112.316073 120.24 
L 112.397236 98.19 
L 112.559564 117.09 
L 112.640727 98.19 
L 112.721891 104.49 
L 112.803055 101.34 
L 112.884218 120.24 
L 112.965382 110.79 
L 113.046545 117.09 
L 113.208873 85.59 
L 113.290036 120.24 
L 113.3712 110.79 
L 113.452364 113.94 
L 113.533527 91.89 
L 113.614691 98.19 
L 113.777018 107.64 
L 113.939345 91.89 
L 114.020509 117.09 
L 114.101673 98.19 
L 114.182836 101.34 
L 114.345164 117.09 
L 114.426327 113.94 
L 114.507491 104.49 
L 114.588655 107.64 
L 114.750982 117.09 
L 114.832145 95.04 
L 115.075636 123.39 
L 115.237964 104.49 
L 115.319127 113.94 
L 115.400291 91.89 
L 115.562618 113.94 
L 115.643782 110.79 
L 115.724945 113.94 
L 115.806109 91.89 
L 115.887273 107.64 
L 116.0496 85.59 
L 116.130764 107.64 
L 116.211927 104.49 
L 116.293091 98.19 
L 116.455418 113.94 
L 116.536582 88.74 
L 116.617745 95.04 
L 116.698909 95.04 
L 116.861236 110.79 
L 116.9424 101.34 
L 117.023564 120.24 
L 117.267055 88.74 
L 117.348218 91.89 
L 117.429382 95.04 
L 117.510545 117.09 
L 117.591709 95.04 
L 117.754036 113.94 
L 117.916364 98.19 
L 117.997527 120.24 
L 118.078691 95.04 
L 118.159855 98.19 
L 118.241018 110.79 
L 118.484509 76.14 
L 118.728 101.34 
L 118.809164 88.74 
L 118.890327 91.89 
L 118.971491 91.89 
L 119.052655 98.19 
L 119.133818 91.89 
L 119.214982 98.19 
L 119.296145 85.59 
L 119.377309 110.79 
L 119.458473 104.49 
L 119.539636 104.49 
L 119.6208 91.89 
L 119.701964 101.34 
L 119.864291 82.44 
L 119.945455 76.14 
L 120.026618 104.49 
L 120.107782 95.04 
L 120.188945 91.89 
L 120.270109 82.44 
L 120.351273 88.74 
L 120.432436 82.44 
L 120.594764 95.04 
L 120.675927 95.04 
L 120.757091 110.79 
L 120.919418 82.44 
L 121.000582 82.44 
L 121.081745 104.49 
L 121.244073 72.99 
L 121.325236 98.19 
L 121.4064 88.74 
L 121.649891 107.64 
L 121.812218 82.44 
L 121.893382 95.04 
L 121.974545 76.14 
L 122.055709 88.74 
L 122.136873 85.59 
L 122.218036 76.14 
L 122.2992 98.19 
L 122.380364 88.74 
L 122.461527 110.79 
L 122.542691 88.74 
L 122.786182 110.79 
L 122.867345 117.09 
L 123.029673 95.04 
L 123.110836 107.64 
L 123.192 72.99 
L 123.273164 98.19 
L 123.354327 91.89 
L 123.435491 95.04 
L 123.597818 76.14 
L 123.678982 79.29 
L 123.760145 82.44 
L 123.922473 72.99 
L 124.003636 85.59 
L 124.0848 82.44 
L 124.165964 76.14 
L 124.328291 98.19 
L 124.409455 91.89 
L 124.490618 98.19 
L 124.571782 63.54 
L 124.652945 72.99 
L 124.734109 98.19 
L 124.815273 91.89 
L 124.896436 95.04 
L 124.9776 85.59 
L 125.058764 88.74 
L 125.139927 91.89 
L 125.221091 79.29 
L 125.464582 95.04 
L 125.626909 79.29 
L 125.8704 101.34 
L 126.032727 69.84 
L 126.276218 95.04 
L 126.438545 85.59 
L 126.600873 72.99 
L 126.682036 104.49 
L 126.7632 72.99 
L 126.844364 82.44 
L 126.925527 82.44 
L 127.006691 91.89 
L 127.087855 69.84 
L 127.169018 76.14 
L 127.412509 91.89 
L 127.574836 79.29 
L 127.656 85.59 
L 127.737164 117.09 
L 127.899491 72.99 
L 127.980655 88.74 
L 128.061818 69.84 
L 128.142982 85.59 
L 128.224145 79.29 
L 128.386473 101.34 
L 128.5488 82.44 
L 128.711127 82.44 
L 128.792291 88.74 
L 129.035782 72.99 
L 129.116945 88.74 
L 129.198109 72.99 
L 129.279273 88.74 
L 129.360436 85.59 
L 129.603927 54.09 
L 129.685091 95.04 
L 129.766255 88.74 
L 129.928582 76.14 
L 130.009745 88.74 
L 130.172073 79.29 
L 130.253236 91.89 
L 130.415564 66.69 
L 130.496727 101.34 
L 130.659055 63.54 
L 130.740218 79.29 
L 130.821382 76.14 
L 130.902545 69.84 
L 131.064873 91.89 
L 131.2272 72.99 
L 131.551855 104.49 
L 131.876509 60.39 
L 132.038836 95.04 
L 132.12 76.14 
L 132.201164 110.79 
L 132.282327 66.69 
L 132.363491 76.14 
L 132.444655 85.59 
L 132.525818 66.69 
L 132.688145 88.74 
L 132.850473 72.99 
L 132.931636 98.19 
L 133.175127 66.69 
L 133.256291 82.44 
L 133.418618 72.99 
L 133.499782 82.44 
L 133.580945 76.14 
L 133.662109 79.29 
L 133.743273 95.04 
L 133.824436 76.14 
L 133.986764 95.04 
L 134.230255 66.69 
L 134.311418 76.14 
L 134.392582 66.69 
L 134.554909 91.89 
L 134.636073 66.69 
L 134.7984 76.14 
L 134.879564 69.84 
L 134.960727 85.59 
L 135.041891 82.44 
L 135.123055 72.99 
L 135.366545 95.04 
L 135.447709 60.39 
L 135.610036 88.74 
L 135.6912 79.29 
L 135.772364 85.59 
L 135.934691 72.99 
L 136.015855 88.74 
L 136.178182 72.99 
L 136.259345 79.29 
L 136.340509 76.14 
L 136.421673 98.19 
L 136.584 69.84 
L 136.665164 91.89 
L 136.746327 85.59 
L 136.908655 72.99 
L 136.989818 91.89 
L 137.152145 72.99 
L 137.639127 88.74 
L 137.720291 72.99 
L 137.801455 82.44 
L 137.882618 63.54 
L 137.963782 76.14 
L 138.044945 72.99 
L 138.126109 63.54 
L 138.207273 66.69 
L 138.3696 85.59 
L 138.531927 69.84 
L 138.613091 88.74 
L 138.856582 66.69 
L 139.018909 88.74 
L 139.100073 63.54 
L 139.181236 88.74 
L 139.2624 63.54 
L 139.343564 76.14 
L 139.424727 69.84 
L 139.505891 85.59 
L 139.587055 82.44 
L 139.668218 76.14 
L 139.749382 79.29 
L 139.830545 76.14 
L 139.911709 88.74 
L 139.992873 57.24 
L 140.1552 82.44 
L 140.317527 91.89 
L 140.398691 76.14 
L 140.479855 82.44 
L 140.642182 76.14 
L 140.723345 85.59 
L 140.804509 72.99 
L 140.885673 85.59 
L 141.129164 60.39 
L 141.210327 85.59 
L 141.291491 76.14 
L 141.372655 88.74 
L 141.453818 85.59 
L 141.534982 88.74 
L 141.616145 63.54 
L 141.697309 88.74 
L 141.859636 66.69 
L 141.9408 63.54 
L 142.184291 88.74 
L 142.346618 72.99 
L 142.427782 69.84 
L 142.590109 88.74 
L 142.671273 76.14 
L 142.752436 88.74 
L 142.8336 66.69 
L 142.995927 76.14 
L 143.077091 79.29 
L 143.158255 98.19 
L 143.320582 63.54 
L 143.645236 88.74 
L 143.7264 63.54 
L 143.888727 76.14 
L 143.969891 72.99 
L 144.051055 82.44 
L 144.213382 63.54 
L 144.294545 85.59 
L 144.375709 79.29 
L 144.456873 69.84 
L 144.6192 79.29 
L 144.862691 63.54 
L 145.025018 69.84 
L 145.106182 69.84 
L 145.187345 66.69 
L 145.268509 54.09 
L 145.349673 66.69 
L 145.430836 63.54 
L 145.512 60.39 
L 145.593164 85.59 
L 145.836655 63.54 
L 145.917818 76.14 
L 145.998982 63.54 
L 146.161309 79.29 
L 146.242473 63.54 
L 146.485964 85.59 
L 146.648291 63.54 
L 146.729455 79.29 
L 146.810618 76.14 
L 146.891782 82.44 
L 146.972945 76.14 
L 147.054109 85.59 
L 147.135273 72.99 
L 147.216436 82.44 
L 147.378764 66.69 
L 147.459927 72.99 
L 147.703418 63.54 
L 147.865745 79.29 
L 148.109236 60.39 
L 148.433891 91.89 
L 148.515055 79.29 
L 148.596218 104.49 
L 148.677382 66.69 
L 148.758545 76.14 
L 148.839709 66.69 
L 148.920873 95.04 
L 149.0832 60.39 
L 149.164364 66.69 
L 149.245527 60.39 
L 149.326691 79.29 
L 149.407855 72.99 
L 149.489018 66.69 
L 149.570182 69.84 
L 149.651345 91.89 
L 149.732509 66.69 
L 149.813673 69.84 
L 149.894836 88.74 
L 150.057164 69.84 
L 150.219491 82.44 
L 150.300655 82.44 
L 150.381818 79.29 
L 150.544145 66.69 
L 150.706473 82.44 
L 150.787636 79.29 
L 150.949964 72.99 
L 151.031127 76.14 
L 151.112291 72.99 
L 151.193455 88.74 
L 151.274618 63.54 
L 151.355782 66.69 
L 151.436945 79.29 
L 151.518109 72.99 
L 151.599273 76.14 
L 151.680436 88.74 
L 151.923927 63.54 
L 152.086255 76.14 
L 152.167418 76.14 
L 152.248582 72.99 
L 152.329745 88.74 
L 152.410909 76.14 
L 152.492073 85.59 
L 152.6544 66.69 
L 152.735564 76.14 
L 152.816727 72.99 
L 152.897891 60.39 
L 152.979055 63.54 
L 153.060218 79.29 
L 153.141382 57.24 
L 153.222545 69.84 
L 153.303709 63.54 
L 153.466036 76.14 
L 153.5472 66.69 
L 153.628364 69.84 
L 153.709527 66.69 
L 153.871855 79.29 
L 154.034182 72.99 
L 154.115345 95.04 
L 154.196509 60.39 
L 154.277673 76.14 
L 154.44 69.84 
L 154.521164 66.69 
L 154.764655 91.89 
L 154.845818 66.69 
L 154.926982 79.29 
L 155.008145 72.99 
L 155.089309 82.44 
L 155.170473 63.54 
L 155.251636 69.84 
L 155.495127 82.44 
L 155.576291 63.54 
L 155.738618 72.99 
L 155.819782 60.39 
L 155.900945 76.14 
L 155.982109 63.54 
L 156.063273 66.69 
L 156.306764 79.29 
L 156.387927 85.59 
L 156.469091 63.54 
L 156.550255 72.99 
L 156.631418 69.84 
L 156.712582 66.69 
L 156.874909 82.44 
L 157.037236 69.84 
L 157.1184 76.14 
L 157.199564 69.84 
L 157.280727 85.59 
L 157.361891 63.54 
L 157.443055 69.84 
L 157.524218 91.89 
L 157.686545 76.14 
L 157.767709 69.84 
L 157.930036 76.14 
L 158.092364 72.99 
L 158.173527 57.24 
L 158.254691 79.29 
L 158.335855 76.14 
L 158.417018 76.14 
L 158.579345 66.69 
L 158.660509 69.84 
L 158.741673 47.79 
L 158.985164 79.29 
L 159.066327 72.99 
L 159.147491 72.99 
L 159.228655 63.54 
L 159.390982 88.74 
L 159.472145 60.39 
L 159.553309 82.44 
L 159.634473 66.69 
L 159.715636 79.29 
L 159.7968 63.54 
L 159.959127 82.44 
L 160.121455 72.99 
L 160.202618 72.99 
L 160.283782 85.59 
L 160.527273 69.84 
L 160.6896 85.59 
L 160.770764 79.29 
L 160.851927 85.59 
L 161.014255 63.54 
L 161.095418 69.84 
L 161.176582 66.69 
L 161.257745 95.04 
L 161.338909 66.69 
L 161.420073 69.84 
L 161.501236 60.39 
L 161.5824 66.69 
L 161.744727 63.54 
L 161.988218 79.29 
L 162.150545 63.54 
L 162.231709 76.14 
L 162.312873 72.99 
L 162.556364 60.39 
L 162.718691 72.99 
L 162.799855 79.29 
L 162.881018 63.54 
L 163.043345 69.84 
L 163.124509 66.69 
L 163.205673 82.44 
L 163.286836 66.69 
L 163.368 82.44 
L 163.530327 63.54 
L 163.611491 76.14 
L 163.692655 57.24 
L 163.773818 79.29 
L 163.854982 72.99 
L 163.936145 63.54 
L 164.017309 79.29 
L 164.179636 69.84 
L 164.2608 88.74 
L 164.423127 60.39 
L 164.504291 79.29 
L 164.666618 57.24 
L 164.828945 76.14 
L 164.991273 63.54 
L 165.072436 66.69 
L 165.1536 88.74 
L 165.234764 63.54 
L 165.315927 66.69 
L 165.397091 72.99 
L 165.559418 66.69 
L 165.721745 69.84 
L 165.802909 82.44 
L 165.884073 63.54 
L 165.965236 66.69 
L 166.0464 66.69 
L 166.127564 72.99 
L 166.289891 63.54 
L 166.371055 63.54 
L 166.533382 76.14 
L 166.614545 54.09 
L 166.858036 82.44 
L 166.9392 82.44 
L 167.020364 63.54 
L 167.182691 88.74 
L 167.345018 60.39 
L 167.426182 60.39 
L 167.588509 82.44 
L 167.669673 60.39 
L 167.750836 63.54 
L 167.913164 76.14 
L 167.994327 63.54 
L 168.075491 76.14 
L 168.237818 66.69 
L 168.400145 72.99 
L 168.481309 63.54 
L 168.643636 91.89 
L 168.805964 69.84 
L 168.887127 69.84 
L 168.968291 79.29 
L 169.130618 63.54 
L 169.374109 82.44 
L 169.455273 57.24 
L 169.536436 66.69 
L 169.6176 60.39 
L 169.698764 69.84 
L 169.779927 60.39 
L 169.861091 79.29 
L 169.942255 60.39 
L 170.023418 66.69 
L 170.104582 79.29 
L 170.185745 54.09 
L 170.266909 60.39 
L 170.348073 60.39 
L 170.5104 82.44 
L 170.672727 66.69 
L 170.753891 69.84 
L 170.835055 63.54 
L 170.916218 69.84 
L 171.078545 63.54 
L 171.159709 72.99 
L 171.240873 60.39 
L 171.484364 72.99 
L 171.565527 63.54 
L 171.727855 85.59 
L 171.809018 69.84 
L 171.890182 85.59 
L 172.052509 60.39 
L 172.214836 88.74 
L 172.377164 60.39 
L 172.458327 72.99 
L 172.620655 60.39 
L 172.701818 63.54 
L 172.782982 76.14 
L 172.945309 66.69 
L 173.107636 72.99 
L 173.269964 66.69 
L 173.351127 69.84 
L 173.432291 82.44 
L 173.594618 69.84 
L 173.675782 72.99 
L 173.838109 54.09 
L 174.0816 76.14 
L 174.243927 60.39 
L 174.325091 79.29 
L 174.487418 63.54 
L 174.649745 66.69 
L 174.730909 60.39 
L 174.893236 63.54 
L 174.9744 60.39 
L 175.217891 76.14 
L 175.299055 66.69 
L 175.380218 69.84 
L 175.542545 66.69 
L 175.704873 79.29 
L 175.786036 60.39 
L 175.948364 76.14 
L 176.273018 63.54 
L 176.354182 54.09 
L 176.516509 60.39 
L 176.597673 60.39 
L 176.678836 69.84 
L 176.76 66.69 
L 176.841164 57.24 
L 176.922327 72.99 
L 177.003491 69.84 
L 177.084655 63.54 
L 177.165818 72.99 
L 177.409309 60.39 
L 177.490473 60.39 
L 177.571636 76.14 
L 177.733964 54.09 
L 177.815127 82.44 
L 177.977455 57.24 
L 178.058618 85.59 
L 178.220945 57.24 
L 178.464436 76.14 
L 178.5456 69.84 
L 178.626764 82.44 
L 178.707927 63.54 
L 178.789091 72.99 
L 178.870255 50.94 
L 179.032582 69.84 
L 179.113745 69.84 
L 179.194909 76.14 
L 179.357236 69.84 
L 179.4384 66.69 
L 179.519564 76.14 
L 179.681891 57.24 
L 179.844218 72.99 
L 179.925382 66.69 
L 180.006545 79.29 
L 180.087709 63.54 
L 180.168873 66.69 
L 180.250036 72.99 
L 180.3312 60.39 
L 180.493527 72.99 
L 180.574691 54.09 
L 180.655855 60.39 
L 180.737018 76.14 
L 180.818182 63.54 
L 180.899345 69.84 
L 180.980509 66.69 
L 181.061673 85.59 
L 181.305164 69.84 
L 181.386327 63.54 
L 181.467491 82.44 
L 181.629818 66.69 
L 181.710982 69.84 
L 181.873309 88.74 
L 181.954473 66.69 
L 182.035636 82.44 
L 182.1168 54.09 
L 182.197964 76.14 
L 182.279127 66.69 
L 182.360291 72.99 
L 182.441455 60.39 
L 182.522618 76.14 
L 182.684945 66.69 
L 182.766109 72.99 
L 182.847273 63.54 
L 182.928436 69.84 
L 183.171927 50.94 
L 183.334255 66.69 
L 183.415418 54.09 
L 183.496582 72.99 
L 183.577745 69.84 
L 183.658909 69.84 
L 183.740073 57.24 
L 183.821236 76.14 
L 183.9024 69.84 
L 183.983564 66.69 
L 184.064727 69.84 
L 184.227055 60.39 
L 184.389382 69.84 
L 184.470545 57.24 
L 184.714036 79.29 
L 184.876364 69.84 
L 185.119855 57.24 
L 185.282182 72.99 
L 185.363345 60.39 
L 185.444509 66.69 
L 185.525673 88.74 
L 185.688 57.24 
L 185.769164 69.84 
L 185.850327 57.24 
L 185.931491 72.99 
L 186.012655 69.84 
L 186.093818 60.39 
L 186.174982 63.54 
L 186.256145 79.29 
L 186.337309 60.39 
L 186.499636 69.84 
L 186.5808 60.39 
L 186.661964 79.29 
L 186.743127 76.14 
L 186.905455 63.54 
L 186.986618 66.69 
L 187.067782 57.24 
L 187.148945 60.39 
L 187.230109 72.99 
L 187.311273 50.94 
L 187.392436 54.09 
L 187.4736 63.54 
L 187.554764 57.24 
L 187.717091 79.29 
L 188.041745 60.39 
L 188.204073 69.84 
L 188.3664 60.39 
L 188.447564 63.54 
L 188.528727 57.24 
L 188.609891 76.14 
L 188.691055 63.54 
L 188.772218 76.14 
L 188.934545 66.69 
L 189.015709 76.14 
L 189.2592 63.54 
L 189.340364 60.39 
L 189.502691 66.69 
L 189.583855 76.14 
L 189.665018 66.69 
L 189.746182 79.29 
L 189.908509 69.84 
L 190.070836 72.99 
L 190.152 50.94 
L 190.233164 54.09 
L 190.314327 72.99 
L 190.557818 50.94 
L 190.638982 63.54 
L 190.720145 60.39 
L 190.882473 54.09 
L 190.963636 60.39 
L 191.0448 79.29 
L 191.125964 76.14 
L 191.207127 60.39 
L 191.288291 85.59 
L 191.369455 66.69 
L 191.450618 69.84 
L 191.531782 69.84 
L 191.856436 60.39 
L 192.018764 76.14 
L 192.099927 57.24 
L 192.343418 82.44 
L 192.424582 60.39 
L 192.668073 76.14 
L 192.749236 72.99 
L 192.8304 82.44 
L 192.911564 76.14 
L 192.992727 54.09 
L 193.073891 60.39 
L 193.155055 60.39 
L 193.236218 63.54 
L 193.317382 60.39 
L 193.398545 79.29 
L 193.560873 69.84 
L 193.642036 76.14 
L 193.7232 60.39 
L 193.804364 76.14 
L 193.966691 66.69 
L 194.047855 69.84 
L 194.129018 60.39 
L 194.210182 63.54 
L 194.291345 82.44 
L 194.372509 63.54 
L 194.453673 79.29 
L 194.534836 66.69 
L 194.616 85.59 
L 194.778327 63.54 
L 194.859491 88.74 
L 195.102982 57.24 
L 195.346473 85.59 
L 195.427636 60.39 
L 195.5088 69.84 
L 195.589964 63.54 
L 195.671127 69.84 
L 195.752291 66.69 
L 195.833455 69.84 
L 195.995782 57.24 
L 196.158109 66.69 
L 196.239273 66.69 
L 196.320436 63.54 
L 196.4016 69.84 
L 196.482764 66.69 
L 196.563927 69.84 
L 196.726255 57.24 
L 196.969745 76.14 
L 197.132073 60.39 
L 197.213236 63.54 
L 197.2944 66.69 
L 197.375564 57.24 
L 197.456727 66.69 
L 197.619055 57.24 
L 197.943709 69.84 
L 198.024873 63.54 
L 198.106036 76.14 
L 198.268364 66.69 
L 198.430691 72.99 
L 198.593018 57.24 
L 198.998836 72.99 
L 199.08 60.39 
L 199.161164 72.99 
L 199.323491 54.09 
L 199.404655 72.99 
L 199.485818 63.54 
L 199.566982 79.29 
L 199.648145 57.24 
L 199.729309 69.84 
L 199.810473 63.54 
L 199.891636 82.44 
L 200.053964 57.24 
L 200.135127 76.14 
L 200.216291 69.84 
L 200.297455 66.69 
L 200.378618 76.14 
L 200.459782 60.39 
L 200.540945 76.14 
L 200.784436 54.09 
L 200.8656 60.39 
L 200.946764 79.29 
L 201.109091 57.24 
L 201.352582 72.99 
L 201.514909 60.39 
L 201.677236 66.69 
L 201.7584 60.39 
L 201.839564 72.99 
L 201.920727 60.39 
L 202.001891 72.99 
L 202.164218 60.39 
L 202.326545 66.69 
L 202.488873 57.24 
L 202.570036 72.99 
L 202.6512 66.69 
L 202.732364 72.99 
L 202.894691 54.09 
L 203.057018 72.99 
L 203.138182 57.24 
L 203.219345 72.99 
L 203.381673 63.54 
L 203.462836 79.29 
L 203.625164 54.09 
L 203.787491 79.29 
L 203.868655 57.24 
L 203.949818 69.84 
L 204.112145 54.09 
L 204.274473 72.99 
L 204.355636 54.09 
L 204.599127 72.99 
L 204.680291 57.24 
L 204.761455 66.69 
L 204.842618 57.24 
L 205.004945 66.69 
L 205.086109 50.94 
L 205.167273 54.09 
L 205.3296 69.84 
L 205.491927 54.09 
L 205.573091 66.69 
L 205.654255 63.54 
L 205.735418 57.24 
L 205.978909 72.99 
L 206.141236 57.24 
L 206.2224 79.29 
L 206.384727 57.24 
L 206.465891 63.54 
L 206.547055 60.39 
L 206.628218 47.79 
L 206.790545 60.39 
L 206.871709 66.69 
L 206.952873 60.39 
L 207.1152 66.69 
L 207.196364 69.84 
L 207.277527 66.69 
L 207.358691 69.84 
L 207.439855 82.44 
L 207.521018 60.39 
L 207.683345 76.14 
L 207.845673 60.39 
L 207.926836 79.29 
L 208.089164 63.54 
L 208.251491 63.54 
L 208.332655 79.29 
L 208.494982 60.39 
L 208.576145 60.39 
L 208.657309 63.54 
L 208.738473 60.39 
L 208.819636 50.94 
L 208.981964 69.84 
L 209.063127 69.84 
L 209.225455 57.24 
L 209.306618 72.99 
L 209.387782 63.54 
L 209.468945 66.69 
L 209.631273 57.24 
L 209.7936 69.84 
L 209.955927 54.09 
L 210.037091 79.29 
L 210.199418 50.94 
L 210.442909 76.14 
L 210.605236 60.39 
L 210.767564 69.84 
L 210.848727 44.64 
L 211.173382 72.99 
L 211.254545 60.39 
L 211.335709 69.84 
L 211.416873 66.69 
L 211.498036 72.99 
L 211.5792 50.94 
L 211.660364 69.84 
L 211.741527 57.24 
L 211.903855 72.99 
L 211.985018 57.24 
L 212.066182 66.69 
L 212.147345 60.39 
L 212.228509 63.54 
L 212.390836 57.24 
L 212.472 88.74 
L 212.553164 85.59 
L 212.715491 60.39 
L 212.796655 69.84 
L 212.877818 66.69 
L 212.958982 66.69 
L 213.121309 47.79 
L 213.202473 69.84 
L 213.283636 60.39 
L 213.3648 63.54 
L 213.527127 69.84 
L 213.770618 54.09 
L 213.851782 95.04 
L 214.095273 60.39 
L 214.176436 54.09 
L 214.2576 66.69 
L 214.419927 44.64 
L 214.582255 63.54 
L 214.744582 54.09 
L 214.906909 72.99 
L 214.988073 69.84 
L 215.1504 54.09 
L 215.312727 63.54 
L 215.475055 63.54 
L 215.556218 50.94 
L 215.718545 76.14 
L 215.880873 63.54 
L 215.962036 63.54 
L 216.0432 69.84 
L 216.124364 60.39 
L 216.205527 72.99 
L 216.286691 57.24 
L 216.449018 72.99 
L 216.530182 63.54 
L 216.611345 69.84 
L 216.692509 60.39 
L 216.773673 69.84 
L 216.854836 66.69 
L 216.936 66.69 
L 217.017164 69.84 
L 217.179491 63.54 
L 217.260655 85.59 
L 217.341818 60.39 
L 217.422982 63.54 
L 217.585309 57.24 
L 217.666473 76.14 
L 217.747636 72.99 
L 217.8288 63.54 
L 217.909964 72.99 
L 217.991127 63.54 
L 218.072291 66.69 
L 218.153455 66.69 
L 218.234618 63.54 
L 218.315782 50.94 
L 218.396945 66.69 
L 218.478109 63.54 
L 218.640436 72.99 
L 218.802764 54.09 
L 218.883927 44.64 
L 218.965091 79.29 
L 219.127418 54.09 
L 219.208582 69.84 
L 219.370909 60.39 
L 219.452073 76.14 
L 219.533236 69.84 
L 219.6144 72.99 
L 219.695564 60.39 
L 219.939055 82.44 
L 220.101382 60.39 
L 220.182545 60.39 
L 220.344873 69.84 
L 220.426036 60.39 
L 220.5072 72.99 
L 220.669527 60.39 
L 220.831855 69.84 
L 220.913018 50.94 
L 220.994182 69.84 
L 221.075345 63.54 
L 221.156509 50.94 
L 221.318836 66.69 
L 221.4 57.24 
L 221.481164 60.39 
L 221.562327 82.44 
L 221.643491 47.79 
L 221.724655 66.69 
L 221.805818 63.54 
L 221.886982 69.84 
L 221.968145 50.94 
L 222.130473 79.29 
L 222.2928 50.94 
L 222.373964 63.54 
L 222.455127 72.99 
L 222.536291 60.39 
L 222.617455 82.44 
L 222.698618 54.09 
L 222.779782 60.39 
L 222.860945 66.69 
L 222.942109 50.94 
L 223.104436 66.69 
L 223.1856 69.84 
L 223.266764 54.09 
L 223.347927 76.14 
L 223.510255 57.24 
L 223.916073 69.84 
L 224.0784 66.69 
L 224.159564 66.69 
L 224.321891 54.09 
L 224.403055 69.84 
L 224.484218 60.39 
L 224.565382 79.29 
L 224.727709 44.64 
L 224.890036 69.84 
L 224.9712 63.54 
L 225.052364 66.69 
L 225.133527 47.79 
L 225.377018 76.14 
L 225.539345 54.09 
L 225.701673 69.84 
L 225.782836 63.54 
L 225.864 76.14 
L 225.945164 60.39 
L 226.026327 63.54 
L 226.107491 57.24 
L 226.188655 66.69 
L 226.269818 60.39 
L 226.350982 63.54 
L 226.432145 57.24 
L 226.513309 60.39 
L 226.594473 79.29 
L 226.675636 63.54 
L 226.7568 69.84 
L 227.162618 54.09 
L 227.243782 69.84 
L 227.324945 60.39 
L 227.406109 72.99 
L 227.487273 57.24 
L 227.568436 76.14 
L 227.6496 63.54 
L 227.730764 66.69 
L 227.893091 57.24 
L 228.055418 79.29 
L 228.217745 57.24 
L 228.380073 85.59 
L 228.5424 57.24 
L 228.704727 66.69 
L 228.785891 63.54 
L 228.867055 50.94 
L 229.029382 66.69 
L 229.110545 63.54 
L 229.191709 63.54 
L 229.272873 57.24 
L 229.354036 69.84 
L 229.4352 63.54 
L 229.516364 66.69 
L 229.597527 63.54 
L 229.678691 54.09 
L 229.759855 79.29 
L 229.922182 66.69 
L 230.003345 63.54 
L 230.084509 79.29 
L 230.246836 60.39 
L 230.328 69.84 
L 230.409164 50.94 
L 230.490327 57.24 
L 230.571491 69.84 
L 230.652655 57.24 
L 230.733818 66.69 
L 230.814982 57.24 
L 230.896145 72.99 
L 231.058473 54.09 
L 231.139636 50.94 
L 231.301964 72.99 
L 231.464291 63.54 
L 231.545455 76.14 
L 231.707782 60.39 
L 231.788945 66.69 
L 231.951273 57.24 
L 232.032436 63.54 
L 232.1136 50.94 
L 232.194764 63.54 
L 232.275927 60.39 
L 232.438255 50.94 
L 232.519418 54.09 
L 232.600582 66.69 
L 232.681745 63.54 
L 232.762909 69.84 
L 232.844073 57.24 
L 232.925236 63.54 
L 233.0064 60.39 
L 233.168727 72.99 
L 233.249891 60.39 
L 233.331055 63.54 
L 233.412218 63.54 
L 233.493382 76.14 
L 233.574545 54.09 
L 233.655709 60.39 
L 233.736873 57.24 
L 233.818036 69.84 
L 234.061527 54.09 
L 234.142691 72.99 
L 234.223855 63.54 
L 234.305018 69.84 
L 234.386182 57.24 
L 234.548509 69.84 
L 234.710836 50.94 
L 234.873164 82.44 
L 235.035491 54.09 
L 235.116655 76.14 
L 235.197818 69.84 
L 235.278982 63.54 
L 235.441309 69.84 
L 235.6848 54.09 
L 236.171782 69.84 
L 236.252945 63.54 
L 236.334109 69.84 
L 236.415273 66.69 
L 236.496436 54.09 
L 236.5776 72.99 
L 236.739927 54.09 
L 236.902255 69.84 
L 236.983418 54.09 
L 237.064582 82.44 
L 237.145745 57.24 
L 237.226909 60.39 
L 237.308073 54.09 
L 237.389236 79.29 
L 237.4704 72.99 
L 237.632727 54.09 
L 237.795055 76.14 
L 238.038545 50.94 
L 238.119709 69.84 
L 238.200873 57.24 
L 238.282036 60.39 
L 238.3632 57.24 
L 238.444364 63.54 
L 238.525527 60.39 
L 238.606691 66.69 
L 238.769018 57.24 
L 238.850182 69.84 
L 238.931345 54.09 
L 239.012509 66.69 
L 239.174836 54.09 
L 239.256 57.24 
L 239.337164 72.99 
L 239.418327 54.09 
L 239.580655 72.99 
L 239.661818 72.99 
L 239.742982 66.69 
L 239.824145 72.99 
L 239.986473 57.24 
L 240.1488 63.54 
L 240.311127 54.09 
L 240.392291 69.84 
L 240.473455 63.54 
L 240.554618 79.29 
L 240.635782 54.09 
L 240.716945 57.24 
L 240.798109 57.24 
L 240.879273 63.54 
L 240.960436 82.44 
L 241.122764 60.39 
L 241.203927 60.39 
L 241.366255 79.29 
L 241.447418 57.24 
L 241.528582 66.69 
L 241.609745 63.54 
L 241.690909 57.24 
L 241.772073 66.69 
L 241.853236 57.24 
L 241.9344 60.39 
L 242.015564 66.69 
L 242.096727 60.39 
L 242.259055 76.14 
L 242.421382 57.24 
L 242.502545 54.09 
L 242.8272 63.54 
L 242.989527 54.09 
L 243.070691 76.14 
L 243.233018 54.09 
L 243.314182 60.39 
L 243.395345 50.94 
L 243.476509 66.69 
L 243.638836 50.94 
L 243.801164 72.99 
L 243.882327 60.39 
L 243.963491 69.84 
L 244.044655 66.69 
L 244.125818 60.39 
L 244.288145 66.69 
L 244.450473 57.24 
L 244.6128 69.84 
L 244.693964 66.69 
L 244.775127 69.84 
L 244.856291 57.24 
L 244.937455 63.54 
L 245.018618 54.09 
L 245.099782 72.99 
L 245.180945 60.39 
L 245.262109 76.14 
L 245.424436 63.54 
L 245.667927 69.84 
L 245.830255 54.09 
L 245.911418 54.09 
L 245.992582 57.24 
L 246.236073 76.14 
L 246.3984 57.24 
L 246.479564 66.69 
L 246.560727 63.54 
L 246.641891 63.54 
L 246.723055 60.39 
L 246.804218 63.54 
L 246.885382 60.39 
L 246.966545 66.69 
L 247.047709 54.09 
L 247.210036 63.54 
L 247.2912 54.09 
L 247.372364 66.69 
L 247.453527 60.39 
L 247.615855 72.99 
L 247.778182 60.39 
L 247.859345 69.84 
L 247.940509 54.09 
L 248.021673 79.29 
L 248.184 60.39 
L 248.265164 69.84 
L 248.346327 50.94 
L 248.427491 76.14 
L 248.508655 72.99 
L 248.752145 50.94 
L 248.914473 60.39 
L 248.995636 50.94 
L 249.239127 82.44 
L 249.320291 57.24 
L 249.401455 76.14 
L 249.563782 54.09 
L 249.644945 69.84 
L 249.726109 66.69 
L 249.9696 54.09 
L 250.050764 63.54 
L 250.131927 57.24 
L 250.375418 66.69 
L 250.456582 60.39 
L 250.537745 79.29 
L 250.700073 60.39 
L 250.8624 69.84 
L 250.943564 72.99 
L 251.024727 63.54 
L 251.187055 72.99 
L 251.430545 50.94 
L 251.511709 50.94 
L 251.592873 79.29 
L 251.674036 63.54 
L 251.7552 72.99 
L 251.836364 57.24 
L 251.998691 63.54 
L 252.079855 54.09 
L 252.161018 66.69 
L 252.242182 60.39 
L 252.404509 72.99 
L 252.485673 50.94 
L 252.566836 54.09 
L 252.648 66.69 
L 252.729164 57.24 
L 252.810327 76.14 
L 252.972655 60.39 
L 253.053818 63.54 
L 253.216145 57.24 
L 253.5408 69.84 
L 253.621964 63.54 
L 253.703127 66.69 
L 253.784291 50.94 
L 253.946618 63.54 
L 254.027782 54.09 
L 254.108945 60.39 
L 254.190109 57.24 
L 254.352436 63.54 
L 254.4336 66.69 
L 254.595927 60.39 
L 254.677091 63.54 
L 254.839418 57.24 
L 254.920582 76.14 
L 255.082909 57.24 
L 255.245236 63.54 
L 255.3264 54.09 
L 255.488727 85.59 
L 255.651055 57.24 
L 255.732218 54.09 
L 255.813382 57.24 
L 255.894545 79.29 
L 255.975709 60.39 
L 256.138036 79.29 
L 256.300364 50.94 
L 256.462691 66.69 
L 256.625018 66.69 
L 256.706182 54.09 
L 256.787345 69.84 
L 256.868509 66.69 
L 256.949673 76.14 
L 257.030836 54.09 
L 257.112 60.39 
L 257.274327 69.84 
L 257.436655 63.54 
L 257.517818 69.84 
L 257.598982 63.54 
L 257.680145 66.69 
L 257.842473 50.94 
L 258.0048 66.69 
L 258.167127 60.39 
L 258.248291 66.69 
L 258.329455 60.39 
L 258.410618 79.29 
L 258.491782 66.69 
L 258.572945 69.84 
L 258.654109 72.99 
L 258.816436 57.24 
L 258.8976 63.54 
L 258.978764 82.44 
L 259.141091 60.39 
L 259.303418 69.84 
L 259.465745 54.09 
L 259.628073 76.14 
L 259.7904 63.54 
L 259.871564 66.69 
L 259.952727 57.24 
L 260.033891 60.39 
L 260.277382 69.84 
L 260.358545 60.39 
L 260.520873 66.69 
L 260.602036 60.39 
L 260.764364 69.84 
L 260.926691 50.94 
L 261.007855 54.09 
L 261.089018 69.84 
L 261.170182 66.69 
L 261.332509 60.39 
L 261.413673 66.69 
L 261.576 57.24 
L 261.657164 79.29 
L 261.738327 60.39 
L 261.819491 79.29 
L 261.900655 57.24 
L 261.981818 69.84 
L 262.144145 54.09 
L 262.387636 72.99 
L 262.549964 50.94 
L 262.631127 66.69 
L 262.712291 60.39 
L 262.793455 66.69 
L 262.955782 60.39 
L 263.036945 50.94 
L 263.118109 69.84 
L 263.199273 60.39 
L 263.442764 72.99 
L 263.523927 54.09 
L 263.605091 57.24 
L 263.686255 47.79 
L 263.767418 69.84 
L 263.848582 63.54 
L 263.929745 54.09 
L 264.010909 72.99 
L 264.092073 54.09 
L 264.173236 72.99 
L 264.2544 57.24 
L 264.335564 63.54 
L 264.416727 54.09 
L 264.497891 63.54 
L 264.579055 60.39 
L 264.660218 50.94 
L 264.822545 72.99 
L 265.066036 50.94 
L 265.1472 54.09 
L 265.228364 76.14 
L 265.390691 50.94 
L 265.553018 76.14 
L 265.634182 60.39 
L 265.715345 69.84 
L 265.796509 66.69 
L 265.877673 72.99 
L 266.121164 60.39 
L 266.202327 54.09 
L 266.283491 66.69 
L 266.445818 60.39 
L 266.608145 69.84 
L 266.770473 60.39 
L 266.851636 63.54 
L 266.9328 54.09 
L 267.095127 69.84 
L 267.176291 69.84 
L 267.419782 63.54 
L 267.500945 79.29 
L 267.582109 60.39 
L 267.663273 69.84 
L 267.8256 57.24 
L 268.069091 63.54 
L 268.393745 54.09 
L 268.474909 63.54 
L 268.556073 54.09 
L 268.637236 82.44 
L 268.799564 57.24 
L 268.880727 54.09 
L 269.043055 63.54 
L 269.205382 57.24 
L 269.286545 60.39 
L 269.448873 54.09 
L 269.6112 66.69 
L 269.692364 57.24 
L 269.773527 72.99 
L 269.935855 63.54 
L 270.017018 69.84 
L 270.098182 54.09 
L 270.341673 79.29 
L 270.504 69.84 
L 270.585164 79.29 
L 270.747491 54.09 
L 270.909818 63.54 
L 271.072145 50.94 
L 271.315636 79.29 
L 271.3968 50.94 
L 271.477964 60.39 
L 271.559127 66.69 
L 271.640291 85.59 
L 271.721455 60.39 
L 271.802618 66.69 
L 271.883782 54.09 
L 271.964945 63.54 
L 272.046109 54.09 
L 272.127273 63.54 
L 272.208436 60.39 
L 272.370764 54.09 
L 272.614255 66.69 
L 272.776582 60.39 
L 272.857745 60.39 
L 272.938909 54.09 
L 273.101236 60.39 
L 273.344727 66.69 
L 273.507055 60.39 
L 273.588218 63.54 
L 273.669382 72.99 
L 273.750545 57.24 
L 273.831709 66.69 
L 273.912873 63.54 
L 273.994036 57.24 
L 274.0752 66.69 
L 274.156364 60.39 
L 274.237527 66.69 
L 274.318691 60.39 
L 274.481018 66.69 
L 274.562182 60.39 
L 274.643345 63.54 
L 274.724509 79.29 
L 275.049164 54.09 
L 275.130327 54.09 
L 275.211491 69.84 
L 275.292655 44.64 
L 275.373818 76.14 
L 275.454982 54.09 
L 275.617309 66.69 
L 275.8608 66.69 
L 275.941964 54.09 
L 276.104291 66.69 
L 276.185455 54.09 
L 276.266618 66.69 
L 276.347782 57.24 
L 276.428945 76.14 
L 276.510109 57.24 
L 276.591273 60.39 
L 276.672436 50.94 
L 276.7536 76.14 
L 276.915927 57.24 
L 276.997091 57.24 
L 277.159418 63.54 
L 277.240582 66.69 
L 277.321745 63.54 
L 277.402909 72.99 
L 277.565236 60.39 
L 277.6464 66.69 
L 277.727564 63.54 
L 277.808727 82.44 
L 277.889891 60.39 
L 277.971055 66.69 
L 278.052218 63.54 
L 278.133382 76.14 
L 278.295709 50.94 
L 278.458036 72.99 
L 278.5392 66.69 
L 278.620364 79.29 
L 278.782691 60.39 
L 278.945018 69.84 
L 279.026182 54.09 
L 279.107345 66.69 
L 279.188509 50.94 
L 279.269673 60.39 
L 279.350836 50.94 
L 279.513164 66.69 
L 279.594327 63.54 
L 279.756655 50.94 
L 279.837818 72.99 
L 279.918982 69.84 
L 280.000145 60.39 
L 280.081309 69.84 
L 280.243636 57.24 
L 280.405964 66.69 
L 280.487127 82.44 
L 280.649455 60.39 
L 280.730618 57.24 
L 280.811782 63.54 
L 280.892945 60.39 
L 281.055273 63.54 
L 281.2176 60.39 
L 281.298764 66.69 
L 281.379927 60.39 
L 281.461091 72.99 
L 281.542255 69.84 
L 281.623418 54.09 
L 281.785745 72.99 
L 281.866909 57.24 
L 281.948073 60.39 
L 282.029236 54.09 
L 282.1104 66.69 
L 282.191564 63.54 
L 282.272727 54.09 
L 282.435055 69.84 
L 282.516218 54.09 
L 282.597382 57.24 
L 282.678545 57.24 
L 282.759709 69.84 
L 283.0032 54.09 
L 283.084364 69.84 
L 283.165527 66.69 
L 283.246691 72.99 
L 283.409018 63.54 
L 283.490182 76.14 
L 283.652509 54.09 
L 283.896 76.14 
L 283.977164 50.94 
L 284.058327 60.39 
L 284.139491 54.09 
L 284.301818 72.99 
L 284.382982 72.99 
L 284.626473 50.94 
L 284.707636 66.69 
L 284.869964 54.09 
L 285.032291 57.24 
L 285.113455 54.09 
L 285.194618 69.84 
L 285.438109 54.09 
L 285.600436 63.54 
L 285.762764 57.24 
L 285.843927 60.39 
L 286.006255 72.99 
L 286.087418 72.99 
L 286.168582 57.24 
L 286.249745 69.84 
L 286.330909 54.09 
L 286.412073 57.24 
L 286.493236 63.54 
L 286.5744 60.39 
L 286.655564 63.54 
L 286.736727 76.14 
L 286.817891 54.09 
L 286.980218 69.84 
L 287.061382 72.99 
L 287.142545 50.94 
L 287.223709 60.39 
L 287.304873 50.94 
L 287.386036 57.24 
L 287.4672 50.94 
L 287.710691 66.69 
L 287.791855 57.24 
L 287.873018 69.84 
L 287.954182 66.69 
L 288.035345 66.69 
L 288.116509 57.24 
L 288.197673 60.39 
L 288.278836 63.54 
L 288.441164 54.09 
L 288.522327 60.39 
L 288.684655 54.09 
L 288.928145 66.69 
L 289.090473 60.39 
L 289.171636 60.39 
L 289.2528 72.99 
L 289.333964 57.24 
L 289.415127 60.39 
L 289.496291 60.39 
L 289.577455 57.24 
L 289.658618 63.54 
L 289.739782 57.24 
L 289.902109 66.69 
L 289.983273 57.24 
L 290.064436 63.54 
L 290.1456 54.09 
L 290.307927 76.14 
L 290.470255 57.24 
L 290.551418 79.29 
L 290.713745 66.69 
L 290.794909 63.54 
L 290.876073 54.09 
L 290.957236 66.69 
L 291.119564 44.64 
L 291.363055 91.89 
L 291.525382 57.24 
L 291.687709 79.29 
L 291.768873 54.09 
L 291.850036 57.24 
L 291.9312 69.84 
L 292.093527 57.24 
L 292.174691 60.39 
L 292.255855 57.24 
L 292.580509 66.69 
L 292.661673 57.24 
L 292.742836 72.99 
L 292.824 54.09 
L 292.986327 63.54 
L 293.067491 60.39 
L 293.148655 69.84 
L 293.229818 50.94 
L 293.310982 63.54 
L 293.473309 54.09 
L 293.554473 72.99 
L 293.635636 57.24 
L 293.797964 63.54 
L 293.879127 47.79 
L 294.122618 69.84 
L 294.203782 60.39 
L 294.284945 76.14 
L 294.366109 57.24 
L 294.447273 63.54 
L 294.528436 54.09 
L 294.6096 66.69 
L 294.690764 60.39 
L 294.853091 72.99 
L 295.015418 54.09 
L 295.096582 57.24 
L 295.258909 72.99 
L 295.340073 66.69 
L 295.421236 50.94 
L 295.5024 66.69 
L 295.583564 63.54 
L 295.745891 60.39 
L 295.827055 63.54 
L 295.989382 50.94 
L 296.151709 66.69 
L 296.232873 54.09 
L 296.314036 66.69 
L 296.3952 60.39 
L 296.476364 69.84 
L 296.557527 54.09 
L 296.638691 60.39 
L 296.882182 47.79 
L 297.044509 63.54 
L 297.125673 60.39 
L 297.206836 50.94 
L 297.369164 72.99 
L 297.531491 57.24 
L 297.612655 60.39 
L 297.693818 60.39 
L 297.774982 72.99 
L 297.937309 50.94 
L 298.018473 66.69 
L 298.099636 63.54 
L 298.261964 63.54 
L 298.424291 50.94 
L 298.505455 60.39 
L 298.586618 57.24 
L 298.667782 60.39 
L 298.748945 72.99 
L 298.911273 60.39 
L 298.992436 60.39 
L 299.0736 57.24 
L 299.154764 72.99 
L 299.235927 57.24 
L 299.317091 60.39 
L 299.479418 69.84 
L 299.560582 57.24 
L 299.641745 79.29 
L 299.722909 60.39 
L 299.804073 63.54 
L 299.9664 63.54 
L 300.128727 57.24 
L 300.291055 69.84 
L 300.372218 69.84 
L 300.534545 50.94 
L 300.615709 54.09 
L 300.696873 69.84 
L 300.778036 66.69 
L 300.8592 72.99 
L 300.940364 60.39 
L 301.021527 66.69 
L 301.102691 63.54 
L 301.183855 69.84 
L 301.265018 54.09 
L 301.346182 63.54 
L 301.427345 60.39 
L 301.589673 54.09 
L 301.914327 66.69 
L 301.995491 54.09 
L 302.076655 72.99 
L 302.238982 54.09 
L 302.320145 60.39 
L 302.401309 44.64 
L 302.563636 66.69 
L 302.725964 57.24 
L 302.807127 60.39 
L 302.888291 60.39 
L 302.969455 66.69 
L 303.050618 57.24 
L 303.131782 63.54 
L 303.294109 54.09 
L 303.375273 72.99 
L 303.5376 54.09 
L 303.781091 72.99 
L 303.943418 63.54 
L 304.024582 47.79 
L 304.105745 57.24 
L 304.186909 54.09 
L 304.511564 69.84 
L 304.592727 54.09 
L 304.755055 66.69 
L 304.836218 47.79 
L 304.917382 54.09 
L 305.079709 60.39 
L 305.160873 72.99 
L 305.3232 57.24 
L 305.404364 60.39 
L 305.566691 57.24 
L 305.647855 63.54 
L 305.729018 57.24 
L 305.810182 72.99 
L 305.891345 57.24 
L 305.972509 60.39 
L 306.134836 72.99 
L 306.378327 57.24 
L 306.459491 60.39 
L 306.540655 57.24 
L 306.621818 63.54 
L 306.784145 57.24 
L 306.946473 66.69 
L 307.027636 54.09 
L 307.189964 69.84 
L 307.271127 60.39 
L 307.352291 72.99 
L 307.433455 50.94 
L 307.514618 69.84 
L 307.595782 47.79 
L 307.676945 66.69 
L 307.839273 47.79 
L 308.082764 60.39 
L 308.163927 63.54 
L 308.245091 72.99 
L 308.488582 50.94 
L 308.569745 66.69 
L 308.650909 50.94 
L 308.813236 66.69 
L 308.975564 57.24 
L 309.056727 69.84 
L 309.219055 60.39 
L 309.300218 66.69 
L 309.624873 54.09 
L 309.706036 63.54 
L 309.7872 57.24 
L 309.868364 66.69 
L 310.111855 47.79 
L 310.274182 63.54 
L 310.355345 50.94 
L 310.598836 69.84 
L 310.761164 60.39 
L 310.842327 72.99 
L 310.923491 54.09 
L 311.004655 60.39 
L 311.085818 76.14 
L 311.248145 60.39 
L 311.329309 60.39 
L 311.410473 54.09 
L 311.491636 66.69 
L 311.653964 54.09 
L 311.735127 69.84 
L 311.978618 57.24 
L 312.059782 76.14 
L 312.140945 57.24 
L 312.222109 60.39 
L 312.303273 60.39 
L 312.384436 54.09 
L 312.546764 63.54 
L 312.627927 63.54 
L 312.709091 50.94 
L 312.790255 60.39 
L 312.871418 54.09 
L 312.952582 69.84 
L 313.033745 50.94 
L 313.114909 63.54 
L 313.196073 54.09 
L 313.277236 69.84 
L 313.3584 60.39 
L 313.439564 66.69 
L 313.601891 57.24 
L 313.683055 63.54 
L 313.845382 57.24 
L 313.926545 66.69 
L 314.170036 50.94 
L 314.2512 66.69 
L 314.332364 54.09 
L 314.413527 69.84 
L 314.575855 47.79 
L 314.657018 66.69 
L 314.738182 54.09 
L 314.981673 79.29 
L 315.144 54.09 
L 315.225164 66.69 
L 315.387491 54.09 
L 315.468655 79.29 
L 315.549818 57.24 
L 315.712145 76.14 
L 315.793309 50.94 
L 315.874473 54.09 
L 315.955636 63.54 
L 316.0368 60.39 
L 316.117964 50.94 
L 316.199127 54.09 
L 316.442618 60.39 
L 316.523782 72.99 
L 316.686109 54.09 
L 316.848436 60.39 
L 316.9296 54.09 
L 317.010764 66.69 
L 317.091927 54.09 
L 317.335418 69.84 
L 317.497745 60.39 
L 317.578909 57.24 
L 317.660073 60.39 
L 317.741236 57.24 
L 317.903564 60.39 
L 318.065891 54.09 
L 318.147055 57.24 
L 318.228218 69.84 
L 318.390545 57.24 
L 318.552873 66.69 
L 318.7152 54.09 
L 318.796364 66.69 
L 318.958691 57.24 
L 319.121018 79.29 
L 319.283345 47.79 
L 319.364509 60.39 
L 319.445673 54.09 
L 319.526836 72.99 
L 319.608 63.54 
L 319.689164 69.84 
L 319.770327 63.54 
L 319.932655 72.99 
L 320.013818 63.54 
L 320.094982 69.84 
L 320.5008 54.09 
L 320.581964 63.54 
L 320.663127 57.24 
L 320.906618 66.69 
L 321.068945 47.79 
L 321.231273 66.69 
L 321.312436 50.94 
L 321.3936 54.09 
L 321.474764 69.84 
L 321.555927 66.69 
L 321.637091 54.09 
L 321.799418 69.84 
L 321.961745 60.39 
L 322.124073 66.69 
L 322.205236 54.09 
L 322.2864 66.69 
L 322.529891 54.09 
L 322.692218 66.69 
L 322.773382 54.09 
L 322.935709 60.39 
L 323.098036 57.24 
L 323.260364 63.54 
L 323.341527 50.94 
L 323.422691 63.54 
L 323.503855 57.24 
L 323.585018 60.39 
L 323.666182 72.99 
L 323.828509 60.39 
L 323.909673 69.84 
L 323.990836 66.69 
L 324.072 54.09 
L 324.153164 63.54 
L 324.234327 54.09 
L 324.396655 66.69 
L 324.477818 57.24 
L 324.558982 60.39 
L 324.640145 57.24 
L 324.721309 66.69 
L 324.883636 54.09 
L 324.9648 69.84 
L 325.045964 54.09 
L 325.208291 69.84 
L 325.289455 54.09 
L 325.370618 79.29 
L 325.451782 63.54 
L 325.532945 76.14 
L 325.695273 50.94 
L 325.8576 72.99 
L 325.938764 54.09 
L 326.182255 69.84 
L 326.263418 76.14 
L 326.344582 60.39 
L 326.425745 63.54 
L 326.506909 72.99 
L 326.669236 54.09 
L 326.831564 66.69 
L 327.156218 57.24 
L 327.237382 63.54 
L 327.318545 57.24 
L 327.399709 69.84 
L 327.562036 54.09 
L 327.6432 54.09 
L 327.805527 66.69 
L 327.967855 54.09 
L 328.049018 69.84 
L 328.211345 54.09 
L 328.373673 60.39 
L 328.454836 63.54 
L 328.536 57.24 
L 328.617164 66.69 
L 328.698327 57.24 
L 328.860655 66.69 
L 329.022982 60.39 
L 329.185309 50.94 
L 329.266473 69.84 
L 329.347636 63.54 
L 329.509964 69.84 
L 329.591127 66.69 
L 329.672291 72.99 
L 329.915782 57.24 
L 329.996945 76.14 
L 330.3216 50.94 
L 330.402764 63.54 
L 330.483927 50.94 
L 330.727418 69.84 
L 330.808582 63.54 
L 330.889745 66.69 
L 330.970909 79.29 
L 331.2144 54.09 
L 331.295564 54.09 
L 331.376727 66.69 
L 331.457891 60.39 
L 331.539055 72.99 
L 331.701382 54.09 
L 331.863709 76.14 
L 331.944873 57.24 
L 332.026036 63.54 
L 332.1072 72.99 
L 332.350691 57.24 
L 332.513018 63.54 
L 332.675345 57.24 
L 332.837673 66.69 
L 333 57.24 
L 333.081164 57.24 
L 333.162327 69.84 
L 333.243491 57.24 
L 333.324655 60.39 
L 333.405818 57.24 
L 333.486982 66.69 
L 333.568145 50.94 
L 333.649309 63.54 
L 333.730473 60.39 
L 333.811636 50.94 
L 333.973964 60.39 
L 334.217455 54.09 
L 334.623273 66.69 
L 334.704436 47.79 
L 334.7856 66.69 
L 334.866764 54.09 
L 334.947927 57.24 
L 335.029091 72.99 
L 335.110255 60.39 
L 335.191418 69.84 
L 335.353745 54.09 
L 335.434909 54.09 
L 335.597236 63.54 
L 335.6784 54.09 
L 335.759564 57.24 
L 335.921891 66.69 
L 336.003055 50.94 
L 336.084218 54.09 
L 336.165382 50.94 
L 336.327709 69.84 
L 336.408873 66.69 
L 336.490036 60.39 
L 336.5712 63.54 
L 336.652364 57.24 
L 336.814691 60.39 
L 336.895855 60.39 
L 336.977018 54.09 
L 337.058182 66.69 
L 337.139345 63.54 
L 337.220509 63.54 
L 337.382836 69.84 
L 337.464 60.39 
L 337.545164 66.69 
L 337.626327 60.39 
L 337.707491 72.99 
L 337.788655 57.24 
L 337.869818 72.99 
L 337.950982 63.54 
L 338.032145 72.99 
L 338.113309 66.69 
L 338.275636 47.79 
L 338.437964 69.84 
L 338.519127 63.54 
L 338.600291 66.69 
L 338.843782 60.39 
L 338.924945 69.84 
L 339.2496 50.94 
L 339.330764 63.54 
L 339.493091 54.09 
L 339.574255 57.24 
L 339.655418 54.09 
L 340.1424 69.84 
L 340.223564 54.09 
L 340.304727 63.54 
L 340.385891 54.09 
L 340.467055 57.24 
L 340.629382 50.94 
L 340.710545 72.99 
L 340.872873 54.09 
L 340.954036 66.69 
L 341.0352 63.54 
L 341.197527 57.24 
L 341.278691 60.39 
L 341.359855 57.24 
L 341.441018 72.99 
L 341.603345 54.09 
L 341.765673 54.09 
L 341.846836 57.24 
L 342.090327 82.44 
L 342.333818 57.24 
L 342.496145 50.94 
L 342.739636 60.39 
L 342.8208 50.94 
L 342.901964 63.54 
L 342.983127 57.24 
L 343.064291 63.54 
L 343.145455 50.94 
L 343.226618 63.54 
L 343.307782 54.09 
L 343.388945 60.39 
L 343.470109 57.24 
L 343.551273 63.54 
L 343.7136 50.94 
L 343.794764 57.24 
L 343.875927 54.09 
L 343.957091 76.14 
L 344.038255 50.94 
L 344.200582 79.29 
L 344.362909 69.84 
L 344.444073 50.94 
L 344.525236 66.69 
L 344.687564 50.94 
L 344.768727 69.84 
L 344.849891 57.24 
L 344.931055 69.84 
L 345.093382 54.09 
L 345.255709 63.54 
L 345.418036 54.09 
L 345.661527 69.84 
L 345.823855 57.24 
L 345.905018 76.14 
L 346.067345 60.39 
L 346.148509 60.39 
L 346.229673 50.94 
L 346.310836 69.84 
L 346.473164 50.94 
L 346.554327 60.39 
L 346.635491 50.94 
L 346.797818 63.54 
L 346.960145 47.79 
L 347.041309 66.69 
L 347.122473 60.39 
L 347.203636 66.69 
L 347.2848 63.54 
L 347.365964 47.79 
L 347.447127 50.94 
L 347.528291 69.84 
L 347.609455 63.54 
L 347.690618 60.39 
L 347.771782 63.54 
L 347.852945 60.39 
L 347.934109 63.54 
L 348.015273 54.09 
L 348.1776 69.84 
L 348.258764 60.39 
L 348.339927 66.69 
L 348.421091 57.24 
L 348.502255 60.39 
L 348.583418 66.69 
L 348.745745 57.24 
L 348.826909 57.24 
L 348.908073 60.39 
L 349.0704 50.94 
L 349.151564 54.09 
L 349.313891 54.09 
L 349.395055 66.69 
L 349.557382 57.24 
L 349.638545 57.24 
L 349.719709 66.69 
L 349.800873 63.54 
L 349.882036 60.39 
L 349.9632 63.54 
L 350.125527 57.24 
L 350.206691 57.24 
L 350.287855 72.99 
L 350.531345 57.24 
L 350.693673 66.69 
L 351.018327 57.24 
L 351.099491 57.24 
L 351.180655 60.39 
L 351.342982 54.09 
L 351.505309 54.09 
L 351.586473 72.99 
L 351.667636 63.54 
L 351.7488 72.99 
L 351.911127 54.09 
L 351.992291 69.84 
L 352.154618 54.09 
L 352.235782 57.24 
L 352.398109 57.24 
L 352.479273 60.39 
L 352.560436 69.84 
L 352.6416 54.09 
L 352.722764 57.24 
L 352.966255 66.69 
L 353.128582 57.24 
L 353.290909 69.84 
L 353.372073 60.39 
L 353.453236 66.69 
L 353.615564 60.39 
L 353.696727 63.54 
L 353.777891 54.09 
L 353.859055 63.54 
L 353.940218 50.94 
L 354.183709 66.69 
L 354.264873 63.54 
L 354.346036 44.64 
L 354.4272 66.69 
L 354.508364 60.39 
L 354.589527 60.39 
L 354.670691 54.09 
L 354.833018 72.99 
L 355.076509 57.24 
L 355.157673 63.54 
L 355.238836 47.79 
L 355.32 76.14 
L 355.401164 60.39 
L 355.482327 66.69 
L 355.563491 54.09 
L 355.725818 72.99 
L 355.806982 54.09 
L 355.888145 60.39 
L 356.050473 60.39 
L 356.2128 54.09 
L 356.293964 69.84 
L 356.375127 66.69 
L 356.537455 60.39 
L 356.618618 66.69 
L 356.862109 60.39 
L 356.943273 66.69 
L 357.1056 54.09 
L 357.186764 57.24 
L 357.267927 66.69 
L 357.349091 63.54 
L 357.430255 57.24 
L 357.511418 60.39 
L 357.592582 57.24 
L 357.673745 60.39 
L 357.917236 54.09 
L 357.9984 60.39 
L 358.079564 54.09 
L 358.241891 69.84 
L 358.404218 63.54 
L 358.485382 63.54 
L 358.647709 54.09 
L 358.728873 66.69 
L 358.810036 60.39 
L 358.8912 69.84 
L 359.053527 44.64 
L 359.297018 69.84 
L 359.378182 54.09 
L 359.459345 57.24 
L 359.540509 60.39 
L 359.621673 57.24 
L 359.702836 66.69 
L 359.784 57.24 
L 359.865164 66.69 
L 360.027491 57.24 
L 360.108655 72.99 
L 360.189818 60.39 
L 360.270982 72.99 
L 360.352145 66.69 
L 360.433309 50.94 
L 360.6768 69.84 
L 360.920291 50.94 
L 361.001455 54.09 
L 361.082618 66.69 
L 361.163782 54.09 
L 361.244945 76.14 
L 361.407273 57.24 
L 361.488436 72.99 
L 361.5696 57.24 
L 361.731927 72.99 
L 361.813091 57.24 
L 361.894255 66.69 
L 361.975418 44.64 
L 362.137745 82.44 
L 362.300073 57.24 
L 362.4624 57.24 
L 362.543564 66.69 
L 362.624727 57.24 
L 362.787055 69.84 
L 362.868218 60.39 
L 362.949382 79.29 
L 363.030545 60.39 
L 363.111709 63.54 
L 363.274036 79.29 
L 363.3552 57.24 
L 363.436364 60.39 
L 363.598691 66.69 
L 363.761018 60.39 
L 363.842182 60.39 
L 363.923345 57.24 
L 364.085673 66.69 
L 364.166836 63.54 
L 364.248 63.54 
L 364.410327 47.79 
L 364.491491 66.69 
L 364.572655 63.54 
L 364.734982 57.24 
L 364.816145 66.69 
L 364.978473 54.09 
L 365.1408 66.69 
L 365.221964 47.79 
L 365.303127 57.24 
L 365.384291 54.09 
L 365.546618 57.24 
L 365.627782 72.99 
L 365.708945 50.94 
L 365.790109 57.24 
L 365.871273 69.84 
L 365.952436 66.69 
L 366.0336 50.94 
L 366.114764 54.09 
L 366.195927 76.14 
L 366.358255 60.39 
L 366.439418 63.54 
L 366.601745 50.94 
L 366.682909 60.39 
L 366.764073 54.09 
L 367.007564 79.29 
L 367.088727 60.39 
L 367.169891 69.84 
L 367.251055 57.24 
L 367.332218 69.84 
L 367.413382 57.24 
L 367.494545 60.39 
L 367.656873 54.09 
L 367.738036 72.99 
L 367.8192 60.39 
L 367.900364 63.54 
L 367.981527 57.24 
L 368.062691 66.69 
L 368.225018 47.79 
L 368.306182 60.39 
L 368.387345 54.09 
L 368.468509 57.24 
L 368.549673 66.69 
L 368.712 54.09 
L 368.793164 66.69 
L 368.874327 47.79 
L 368.955491 57.24 
L 369.036655 50.94 
L 369.117818 69.84 
L 369.198982 50.94 
L 369.280145 69.84 
L 369.361309 47.79 
L 369.442473 54.09 
L 369.6048 72.99 
L 369.685964 60.39 
L 369.848291 79.29 
L 370.010618 50.94 
L 370.091782 54.09 
L 370.172945 72.99 
L 370.254109 69.84 
L 370.335273 60.39 
L 370.416436 63.54 
L 370.4976 69.84 
L 370.741091 47.79 
L 370.903418 72.99 
L 371.065745 60.39 
L 371.309236 60.39 
L 371.471564 57.24 
L 371.552727 66.69 
L 371.633891 50.94 
L 371.715055 76.14 
L 371.796218 54.09 
L 371.877382 69.84 
L 371.958545 57.24 
L 372.039709 72.99 
L 372.2832 57.24 
L 372.364364 66.69 
L 372.445527 57.24 
L 372.526691 66.69 
L 372.607855 57.24 
L 372.689018 60.39 
L 372.851345 63.54 
L 373.013673 57.24 
L 373.176 63.54 
L 373.257164 60.39 
L 373.338327 63.54 
L 373.419491 72.99 
L 373.500655 54.09 
L 373.500655 54.09 
" clip-path="url(#p412071a30a)" style="fill: none; stroke: #1f77b4; stroke-width: 1.5; stroke-linecap: square"/>
   </g>
   <g id="line2d_30">
    <path d="M 69.218182 227.34 
L 71.815418 228.915 
L 74.412655 222.615 
L 77.009891 219.465 
L 79.607127 227.34 
L 82.204364 224.19 
L 84.8016 221.04 
L 87.398836 210.015 
L 89.996073 205.29 
L 92.593309 205.29 
L 95.190545 192.69 
L 97.787782 170.64 
L 100.385018 172.215 
L 102.982255 140.715 
L 105.579491 117.09 
L 108.176727 132.84 
L 110.773964 110.79 
L 113.3712 117.09 
L 115.968436 101.34 
L 118.565673 91.89 
L 121.162909 88.74 
L 123.760145 82.44 
L 126.357382 91.89 
L 128.954618 84.015 
L 131.551855 76.14 
L 134.149091 77.715 
L 136.746327 82.44 
L 139.343564 66.69 
L 141.9408 82.44 
L 144.538036 76.14 
L 147.135273 69.84 
L 149.732509 71.415 
L 152.329745 80.865 
L 154.926982 77.715 
L 157.524218 60.39 
L 160.121455 66.69 
L 162.718691 66.69 
L 165.315927 74.565 
L 167.913164 72.99 
L 170.5104 61.965 
L 173.107636 76.14 
L 175.704873 88.74 
L 178.302109 65.115 
L 180.899345 76.14 
L 183.496582 69.84 
L 186.093818 65.115 
L 188.691055 74.565 
L 191.288291 63.54 
L 193.885527 63.54 
L 196.482764 58.815 
L 199.08 65.115 
L 201.677236 68.265 
L 204.274473 68.265 
L 206.871709 69.84 
L 209.468945 65.115 
L 212.066182 74.565 
L 214.663418 57.24 
L 217.260655 61.965 
L 219.857891 61.965 
L 222.455127 58.815 
L 225.052364 58.815 
L 227.6496 69.84 
L 230.246836 55.665 
L 232.844073 65.115 
L 235.441309 65.115 
L 238.038545 69.84 
L 240.635782 58.815 
L 243.233018 63.54 
L 245.830255 68.265 
L 248.427491 61.965 
L 251.024727 58.815 
L 253.621964 69.84 
L 256.2192 55.665 
L 258.816436 65.115 
L 261.413673 63.54 
L 264.010909 69.84 
L 266.608145 55.665 
L 269.205382 66.69 
L 271.802618 61.965 
L 274.399855 57.24 
L 276.997091 66.69 
L 279.594327 63.54 
L 282.191564 61.965 
L 284.7888 71.415 
L 287.386036 63.54 
L 289.983273 58.815 
L 292.580509 58.815 
L 295.177745 69.84 
L 297.774982 60.39 
L 300.372218 66.69 
L 302.969455 66.69 
L 305.566691 68.265 
L 308.163927 68.265 
L 310.761164 69.84 
L 313.3584 55.665 
L 315.955636 58.815 
L 318.552873 68.265 
L 321.150109 65.115 
L 323.747345 69.84 
L 326.344582 57.24 
L 328.941818 54.09 
L 331.539055 66.69 
L 334.136291 60.39 
L 336.733527 66.69 
L 339.330764 57.24 
L 341.928 63.54 
L 344.525236 55.665 
L 347.122473 63.54 
L 349.719709 60.39 
L 352.316945 60.39 
L 354.914182 63.54 
L 357.511418 60.39 
L 360.108655 66.69 
L 362.705891 52.515 
L 365.303127 63.54 
L 367.900364 54.09 
L 370.4976 66.69 
L 373.094836 54.09 
L 373.581818 60.3144 
" clip-path="url(#p412071a30a)" style="fill: none; stroke: #ff7f0e; stroke-width: 1.5; stroke-linecap: square"/>
   </g>
   <g id="patch_3">
    <path d="M 54 256.32 
L 54 34.56 
" style="fill: none; stroke: #000000; stroke-width: 0.8; stroke-linejoin: miter; stroke-linecap: square"/>
   </g>
   <g id="patch_4">
    <path d="M 388.8 256.32 
L 388.8 34.56 
" style="fill: none; stroke: #000000; stroke-width: 0.8; stroke-linejoin: miter; stroke-linecap: square"/>
   </g>
   <g id="patch_5">
    <path d="M 54 256.32 
L 388.8 256.32 
" style="fill: none; stroke: #000000; stroke-width: 0.8; stroke-linejoin: miter; stroke-linecap: square"/>
   </g>
   <g id="patch_6">
    <path d="M 54 34.56 
L 388.8 34.56 
" style="fill: none; stroke: #000000; stroke-width: 0.8; stroke-linejoin: miter; stroke-linecap: square"/>
   </g>
   <g id="text_17">
    <!-- Percentage of digits classified correctly -->
    <g transform="translate(103.746563 28.56)scale(0.12 -0.12)">
     <defs>
      <path id="DejaVuSans-50" d="M 1259 4147 
L 1259 2394 
L 2053 2394 
Q 2494 2394 2734 2622 
Q 2975 2850 2975 3272 
Q 2975 3691 2734 3919 
Q 2494 4147 2053 4147 
L 1259 4147 
z
M 628 4666 
L 2053 4666 
Q 2838 4666 3239 4311 
Q 3641 3956 3641 3272 
Q 3641 2581 3239 2228 
Q 2838 1875 2053 1875 
L 1259 1875 
L 1259 0 
L 628 0 
L 628 4666 
z
" transform="scale(0.015625)"/>
      <path id="DejaVuSans-67" d="M 2906 1791 
Q 2906 2416 2648 2759 
Q 2391 3103 1925 3103 
Q 1463 3103 1205 2759 
Q 947 2416 947 1791 
Q 947 1169 1205 825 
Q 1463 481 1925 481 
Q 2391 481 2648 825 
Q 2906 1169 2906 1791 
z
M 3481 434 
Q 3481 -459 3084 -895 
Q 2688 -1331 1869 -1331 
Q 1566 -1331 1297 -1286 
Q 1028 -1241 775 -1147 
L 775 -588 
Q 1028 -725 1275 -790 
Q 1522 -856 1778 -856 
Q 2344 -856 2625 -561 
Q 2906 -266 2906 331 
L 2906 616 
Q 2728 306 2450 153 
Q 2172 0 1784 0 
Q 1141 0 747 490 
Q 353 981 353 1791 
Q 353 2603 747 3093 
Q 1141 3584 1784 3584 
Q 2172 3584 2450 3431 
Q 2728 3278 2906 2969 
L 2906 3500 
L 3481 3500 
L 3481 434 
z
" transform="scale(0.015625)"/>
      <path id="DejaVuSans-6f" d="M 1959 3097 
Q 1497 3097 1228 2736 
Q 959 2375 959 1747 
Q 959 1119 1226 758 
Q 1494 397 1959 397 
Q 2419 397 2687 759 
Q 2956 1122 2956 1747 
Q 2956 2369 2687 2733 
Q 2419 3097 1959 3097 
z
M 1959 3584 
Q 2709 3584 3137 3096 
Q 3566 2609 3566 1747 
Q 3566 888 3137 398 
Q 2709 -91 1959 -91 
Q 1206 -91 779 398 
Q 353 888 353 1747 
Q 353 2609 779 3096 
Q 1206 3584 1959 3584 
z
" transform="scale(0.015625)"/>
      <path id="DejaVuSans-66" d="M 2375 4863 
L 2375 4384 
L 1825 4384 
Q 1516 4384 1395 4259 
Q 1275 4134 1275 3809 
L 1275 3500 
L 2222 3500 
L 2222 3053 
L 1275 3053 
L 1275 0 
L 697 0 
L 697 3053 
L 147 3053 
L 147 3500 
L 697 3500 
L 697 3744 
Q 697 4328 969 4595 
Q 1241 4863 1831 4863 
L 2375 4863 
z
" transform="scale(0.015625)"/>
      <path id="DejaVuSans-64" d="M 2906 2969 
L 2906 4863 
L 3481 4863 
L 3481 0 
L 2906 0 
L 2906 525 
Q 2725 213 2448 61 
Q 2172 -91 1784 -91 
Q 1150 -91 751 415 
Q 353 922 353 1747 
Q 353 2572 751 3078 
Q 1150 3584 1784 3584 
Q 2172 3584 2448 3432 
Q 2725 3281 2906 2969 
z
M 947 1747 
Q 947 1113 1208 752 
Q 1469 391 1925 391 
Q 2381 391 2643 752 
Q 2906 1113 2906 1747 
Q 2906 2381 2643 2742 
Q 2381 3103 1925 3103 
Q 1469 3103 1208 2742 
Q 947 2381 947 1747 
z
" transform="scale(0.015625)"/>
      <path id="DejaVuSans-69" d="M 603 3500 
L 1178 3500 
L 1178 0 
L 603 0 
L 603 3500 
z
M 603 4863 
L 1178 4863 
L 1178 4134 
L 603 4134 
L 603 4863 
z
" transform="scale(0.015625)"/>
      <path id="DejaVuSans-73" d="M 2834 3397 
L 2834 2853 
Q 2591 2978 2328 3040 
Q 2066 3103 1784 3103 
Q 1356 3103 1142 2972 
Q 928 2841 928 2578 
Q 928 2378 1081 2264 
Q 1234 2150 1697 2047 
L 1894 2003 
Q 2506 1872 2764 1633 
Q 3022 1394 3022 966 
Q 3022 478 2636 193 
Q 2250 -91 1575 -91 
Q 1294 -91 989 -36 
Q 684 19 347 128 
L 347 722 
Q 666 556 975 473 
Q 1284 391 1588 391 
Q 1994 391 2212 530 
Q 2431 669 2431 922 
Q 2431 1156 2273 1281 
Q 2116 1406 1581 1522 
L 1381 1569 
Q 847 1681 609 1914 
Q 372 2147 372 2553 
Q 372 3047 722 3315 
Q 1072 3584 1716 3584 
Q 2034 3584 2315 3537 
Q 2597 3491 2834 3397 
z
" transform="scale(0.015625)"/>
      <path id="DejaVuSans-6c" d="M 603 4863 
L 1178 4863 
L 1178 0 
L 603 0 
L 603 4863 
z
" transform="scale(0.015625)"/>
      <path id="DejaVuSans-79" d="M 2059 -325 
Q 1816 -950 1584 -1140 
Q 1353 -1331 966 -1331 
L 506 -1331 
L 506 -850 
L 844 -850 
Q 1081 -850 1212 -737 
Q 1344 -625 1503 -206 
L 1606 56 
L 191 3500 
L 800 3500 
L 1894 763 
L 2988 3500 
L 3597 3500 
L 2059 -325 
z
" transform="scale(0.015625)"/>
     </defs>
     <use xlink:href="#DejaVuSans-50"/>
     <use xlink:href="#DejaVuSans-65" x="56.677734"/>
     <use xlink:href="#DejaVuSans-72" x="118.201172"/>
     <use xlink:href="#DejaVuSans-63" x="157.064453"/>
     <use xlink:href="#DejaVuSans-65" x="212.044922"/>
     <use xlink:href="#DejaVuSans-6e" x="273.568359"/>
     <use xlink:href="#DejaVuSans-74" x="336.947266"/>
     <use xlink:href="#DejaVuSans-61" x="376.15625"/>
     <use xlink:href="#DejaVuSans-67" x="437.435547"/>
     <use xlink:href="#DejaVuSans-65" x="500.912109"/>
     <use xlink:href="#DejaVuSans-20" x="562.435547"/>
     <use xlink:href="#DejaVuSans-6f" x="594.222656"/>
     <use xlink:href="#DejaVuSans-66" x="655.404297"/>
     <use xlink:href="#DejaVuSans-20" x="690.609375"/>
     <use xlink:href="#DejaVuSans-64" x="722.396484"/>
     <use xlink:href="#DejaVuSans-69" x="785.873047"/>
     <use xlink:href="#DejaVuSans-67" x="813.65625"/>
     <use xlink:href="#DejaVuSans-69" x="877.132812"/>
     <use xlink:href="#DejaVuSans-74" x="904.916016"/>
     <use xlink:href="#DejaVuSans-73" x="944.125"/>
     <use xlink:href="#DejaVuSans-20" x="996.224609"/>
     <use xlink:href="#DejaVuSans-63" x="1028.011719"/>
     <use xlink:href="#DejaVuSans-6c" x="1082.992188"/>
     <use xlink:href="#DejaVuSans-61" x="1110.775391"/>
     <use xlink:href="#DejaVuSans-73" x="1172.054688"/>
     <use xlink:href="#DejaVuSans-73" x="1224.154297"/>
     <use xlink:href="#DejaVuSans-69" x="1276.253906"/>
     <use xlink:href="#DejaVuSans-66" x="1304.037109"/>
     <use xlink:href="#DejaVuSans-69" x="1339.242188"/>
     <use xlink:href="#DejaVuSans-65" x="1367.025391"/>
     <use xlink:href="#DejaVuSans-64" x="1428.548828"/>
     <use xlink:href="#DejaVuSans-20" x="1492.025391"/>
     <use xlink:href="#DejaVuSans-63" x="1523.8125"/>
     <use xlink:href="#DejaVuSans-6f" x="1578.792969"/>
     <use xlink:href="#DejaVuSans-72" x="1639.974609"/>
     <use xlink:href="#DejaVuSans-72" x="1679.337891"/>
     <use xlink:href="#DejaVuSans-65" x="1718.201172"/>
     <use xlink:href="#DejaVuSans-63" x="1779.724609"/>
     <use xlink:href="#DejaVuSans-74" x="1834.705078"/>
     <use xlink:href="#DejaVuSans-6c" x="1873.914062"/>
     <use xlink:href="#DejaVuSans-79" x="1901.697266"/>
    </g>
   </g>
   <g id="legend_1">
    <g id="patch_7">
     <path d="M 300.565625 251.32 
L 381.8 251.32 
Q 383.8 251.32 383.8 249.32 
L 383.8 220.96375 
Q 383.8 218.96375 381.8 218.96375 
L 300.565625 218.96375 
Q 298.565625 218.96375 298.565625 220.96375 
L 298.565625 249.32 
Q 298.565625 251.32 300.565625 251.32 
z
" style="fill: #ffffff; opacity: 0.8; stroke: #cccccc; stroke-linejoin: miter"/>
    </g>
    <g id="line2d_31">
     <path d="M 302.565625 227.062187 
L 312.565625 227.062187 
L 322.565625 227.062187 
" style="fill: none; stroke: #1f77b4; stroke-width: 1.5; stroke-linecap: square"/>
    </g>
    <g id="text_18">
     <!-- training -->
     <g transform="translate(330.565625 230.562187)scale(0.1 -0.1)">
      <use xlink:href="#DejaVuSans-74"/>
      <use xlink:href="#DejaVuSans-72" x="39.208984"/>
      <use xlink:href="#DejaVuSans-61" x="80.322266"/>
      <use xlink:href="#DejaVuSans-69" x="141.601562"/>
      <use xlink:href="#DejaVuSans-6e" x="169.384766"/>
      <use xlink:href="#DejaVuSans-69" x="232.763672"/>
      <use xlink:href="#DejaVuSans-6e" x="260.546875"/>
      <use xlink:href="#DejaVuSans-67" x="323.925781"/>
     </g>
    </g>
    <g id="line2d_32">
     <path d="M 302.565625 241.740313 
L 312.565625 241.740313 
L 322.565625 241.740313 
" style="fill: none; stroke: #ff7f0e; stroke-width: 1.5; stroke-linecap: square"/>
    </g>
    <g id="text_19">
     <!-- validation -->
     <g transform="translate(330.565625 245.240313)scale(0.1 -0.1)">
      <defs>
       <path id="DejaVuSans-76" d="M 191 3500 
L 800 3500 
L 1894 563 
L 2988 3500 
L 3597 3500 
L 2284 0 
L 1503 0 
L 191 3500 
z
" transform="scale(0.015625)"/>
      </defs>
      <use xlink:href="#DejaVuSans-76"/>
      <use xlink:href="#DejaVuSans-61" x="59.179688"/>
      <use xlink:href="#DejaVuSans-6c" x="120.458984"/>
      <use xlink:href="#DejaVuSans-69" x="148.242188"/>
      <use xlink:href="#DejaVuSans-64" x="176.025391"/>
      <use xlink:href="#DejaVuSans-61" x="239.501953"/>
      <use xlink:href="#DejaVuSans-74" x="300.78125"/>
      <use xlink:href="#DejaVuSans-69" x="339.990234"/>
      <use xlink:href="#DejaVuSans-6f" x="367.773438"/>
      <use xlink:href="#DejaVuSans-6e" x="428.955078"/>
     </g>
    </g>
   </g>
  </g>
 </g>
 <defs>
  <clipPath id="p412071a30a">
   <rect x="54" y="34.56" width="334.8" height="221.76"/>
  </clipPath>
 </defs>
</svg>
