<?xml version="1.0" encoding="utf-8" standalone="no"?>
<!DOCTYPE svg PUBLIC "-//W3C//DTD SVG 1.1//EN"
  "http://www.w3.org/Graphics/SVG/1.1/DTD/svg11.dtd">
<svg xmlns:xlink="http://www.w3.org/1999/xlink" width="432pt" height="288pt" viewBox="0 0 432 288" xmlns="http://www.w3.org/2000/svg" version="1.1">
 <metadata>
  <rdf:RDF xmlns:dc="http://purl.org/dc/elements/1.1/" xmlns:cc="http://creativecommons.org/ns#" xmlns:rdf="http://www.w3.org/1999/02/22-rdf-syntax-ns#">
   <cc:Work>
    <dc:type rdf:resource="http://purl.org/dc/dcmitype/StillImage"/>
    <dc:date>2023-03-21T20:57:19.356085</dc:date>
    <dc:format>image/svg+xml</dc:format>
    <dc:creator>
     <cc:Agent>
      <dc:title>Matplotlib v3.5.1, https://matplotlib.org/</dc:title>
     </cc:Agent>
    </dc:creator>
   </cc:Work>
  </rdf:RDF>
 </metadata>
 <defs>
  <style type="text/css">*{stroke-linejoin: round; stroke-linecap: butt}</style>
 </defs>
 <g id="figure_1">
  <g id="patch_1">
   <path d="M 0 288 
L 432 288 
L 432 0 
L 0 0 
z
" style="fill: #ffffff"/>
  </g>
  <g id="axes_1">
   <g id="patch_2">
    <path d="M 54 256.32 
L 388.8 256.32 
L 388.8 34.56 
L 54 34.56 
z
" style="fill: #ffffff"/>
   </g>
   <g id="matplotlib.axis_1">
    <g id="xtick_1">
     <g id="line2d_1">
      <path d="M 60.53711 256.32 
L 60.53711 34.56 
" clip-path="url(#p35656821f7)" style="fill: none; stroke: #b0b0b0; stroke-width: 0.8; stroke-linecap: square"/>
     </g>
     <g id="line2d_2">
      <defs>
       <path id="m602711c110" d="M 0 0 
L 0 3.5 
" style="stroke: #000000; stroke-width: 0.8"/>
      </defs>
      <g>
       <use xlink:href="#m602711c110" x="60.53711" y="256.32" style="stroke: #000000; stroke-width: 0.8"/>
      </g>
     </g>
     <g id="text_1">
      <!-- 0.0 -->
      <g transform="translate(52.585548 270.918437)scale(0.1 -0.1)">
       <defs>
        <path id="DejaVuSans-30" d="M 2034 4250 
Q 1547 4250 1301 3770 
Q 1056 3291 1056 2328 
Q 1056 1369 1301 889 
Q 1547 409 2034 409 
Q 2525 409 2770 889 
Q 3016 1369 3016 2328 
Q 3016 3291 2770 3770 
Q 2525 4250 2034 4250 
z
M 2034 4750 
Q 2819 4750 3233 4129 
Q 3647 3509 3647 2328 
Q 3647 1150 3233 529 
Q 2819 -91 2034 -91 
Q 1250 -91 836 529 
Q 422 1150 422 2328 
Q 422 3509 836 4129 
Q 1250 4750 2034 4750 
z
" transform="scale(0.015625)"/>
        <path id="DejaVuSans-2e" d="M 684 794 
L 1344 794 
L 1344 0 
L 684 0 
L 684 794 
z
" transform="scale(0.015625)"/>
       </defs>
       <use xlink:href="#DejaVuSans-30"/>
       <use xlink:href="#DejaVuSans-2e" x="63.623047"/>
       <use xlink:href="#DejaVuSans-30" x="95.410156"/>
      </g>
     </g>
    </g>
    <g id="xtick_2">
     <g id="line2d_3">
      <path d="M 99.996527 256.32 
L 99.996527 34.56 
" clip-path="url(#p35656821f7)" style="fill: none; stroke: #b0b0b0; stroke-width: 0.8; stroke-linecap: square"/>
     </g>
     <g id="line2d_4">
      <g>
       <use xlink:href="#m602711c110" x="99.996527" y="256.32" style="stroke: #000000; stroke-width: 0.8"/>
      </g>
     </g>
     <g id="text_2">
      <!-- 2.5 -->
      <g transform="translate(92.044965 270.918437)scale(0.1 -0.1)">
       <defs>
        <path id="DejaVuSans-32" d="M 1228 531 
L 3431 531 
L 3431 0 
L 469 0 
L 469 531 
Q 828 903 1448 1529 
Q 2069 2156 2228 2338 
Q 2531 2678 2651 2914 
Q 2772 3150 2772 3378 
Q 2772 3750 2511 3984 
Q 2250 4219 1831 4219 
Q 1534 4219 1204 4116 
Q 875 4013 500 3803 
L 500 4441 
Q 881 4594 1212 4672 
Q 1544 4750 1819 4750 
Q 2544 4750 2975 4387 
Q 3406 4025 3406 3419 
Q 3406 3131 3298 2873 
Q 3191 2616 2906 2266 
Q 2828 2175 2409 1742 
Q 1991 1309 1228 531 
z
" transform="scale(0.015625)"/>
        <path id="DejaVuSans-35" d="M 691 4666 
L 3169 4666 
L 3169 4134 
L 1269 4134 
L 1269 2991 
Q 1406 3038 1543 3061 
Q 1681 3084 1819 3084 
Q 2600 3084 3056 2656 
Q 3513 2228 3513 1497 
Q 3513 744 3044 326 
Q 2575 -91 1722 -91 
Q 1428 -91 1123 -41 
Q 819 9 494 109 
L 494 744 
Q 775 591 1075 516 
Q 1375 441 1709 441 
Q 2250 441 2565 725 
Q 2881 1009 2881 1497 
Q 2881 1984 2565 2268 
Q 2250 2553 1709 2553 
Q 1456 2553 1204 2497 
Q 953 2441 691 2322 
L 691 4666 
z
" transform="scale(0.015625)"/>
       </defs>
       <use xlink:href="#DejaVuSans-32"/>
       <use xlink:href="#DejaVuSans-2e" x="63.623047"/>
       <use xlink:href="#DejaVuSans-35" x="95.410156"/>
      </g>
     </g>
    </g>
    <g id="xtick_3">
     <g id="line2d_5">
      <path d="M 139.455944 256.32 
L 139.455944 34.56 
" clip-path="url(#p35656821f7)" style="fill: none; stroke: #b0b0b0; stroke-width: 0.8; stroke-linecap: square"/>
     </g>
     <g id="line2d_6">
      <g>
       <use xlink:href="#m602711c110" x="139.455944" y="256.32" style="stroke: #000000; stroke-width: 0.8"/>
      </g>
     </g>
     <g id="text_3">
      <!-- 5.0 -->
      <g transform="translate(131.504382 270.918437)scale(0.1 -0.1)">
       <use xlink:href="#DejaVuSans-35"/>
       <use xlink:href="#DejaVuSans-2e" x="63.623047"/>
       <use xlink:href="#DejaVuSans-30" x="95.410156"/>
      </g>
     </g>
    </g>
    <g id="xtick_4">
     <g id="line2d_7">
      <path d="M 178.915361 256.32 
L 178.915361 34.56 
" clip-path="url(#p35656821f7)" style="fill: none; stroke: #b0b0b0; stroke-width: 0.8; stroke-linecap: square"/>
     </g>
     <g id="line2d_8">
      <g>
       <use xlink:href="#m602711c110" x="178.915361" y="256.32" style="stroke: #000000; stroke-width: 0.8"/>
      </g>
     </g>
     <g id="text_4">
      <!-- 7.5 -->
      <g transform="translate(170.963799 270.918437)scale(0.1 -0.1)">
       <defs>
        <path id="DejaVuSans-37" d="M 525 4666 
L 3525 4666 
L 3525 4397 
L 1831 0 
L 1172 0 
L 2766 4134 
L 525 4134 
L 525 4666 
z
" transform="scale(0.015625)"/>
       </defs>
       <use xlink:href="#DejaVuSans-37"/>
       <use xlink:href="#DejaVuSans-2e" x="63.623047"/>
       <use xlink:href="#DejaVuSans-35" x="95.410156"/>
      </g>
     </g>
    </g>
    <g id="xtick_5">
     <g id="line2d_9">
      <path d="M 218.374778 256.32 
L 218.374778 34.56 
" clip-path="url(#p35656821f7)" style="fill: none; stroke: #b0b0b0; stroke-width: 0.8; stroke-linecap: square"/>
     </g>
     <g id="line2d_10">
      <g>
       <use xlink:href="#m602711c110" x="218.374778" y="256.32" style="stroke: #000000; stroke-width: 0.8"/>
      </g>
     </g>
     <g id="text_5">
      <!-- 10.0 -->
      <g transform="translate(207.241966 270.918437)scale(0.1 -0.1)">
       <defs>
        <path id="DejaVuSans-31" d="M 794 531 
L 1825 531 
L 1825 4091 
L 703 3866 
L 703 4441 
L 1819 4666 
L 2450 4666 
L 2450 531 
L 3481 531 
L 3481 0 
L 794 0 
L 794 531 
z
" transform="scale(0.015625)"/>
       </defs>
       <use xlink:href="#DejaVuSans-31"/>
       <use xlink:href="#DejaVuSans-30" x="63.623047"/>
       <use xlink:href="#DejaVuSans-2e" x="127.246094"/>
       <use xlink:href="#DejaVuSans-30" x="159.033203"/>
      </g>
     </g>
    </g>
    <g id="xtick_6">
     <g id="line2d_11">
      <path d="M 257.834195 256.32 
L 257.834195 34.56 
" clip-path="url(#p35656821f7)" style="fill: none; stroke: #b0b0b0; stroke-width: 0.8; stroke-linecap: square"/>
     </g>
     <g id="line2d_12">
      <g>
       <use xlink:href="#m602711c110" x="257.834195" y="256.32" style="stroke: #000000; stroke-width: 0.8"/>
      </g>
     </g>
     <g id="text_6">
      <!-- 12.5 -->
      <g transform="translate(246.701383 270.918437)scale(0.1 -0.1)">
       <use xlink:href="#DejaVuSans-31"/>
       <use xlink:href="#DejaVuSans-32" x="63.623047"/>
       <use xlink:href="#DejaVuSans-2e" x="127.246094"/>
       <use xlink:href="#DejaVuSans-35" x="159.033203"/>
      </g>
     </g>
    </g>
    <g id="xtick_7">
     <g id="line2d_13">
      <path d="M 297.293612 256.32 
L 297.293612 34.56 
" clip-path="url(#p35656821f7)" style="fill: none; stroke: #b0b0b0; stroke-width: 0.8; stroke-linecap: square"/>
     </g>
     <g id="line2d_14">
      <g>
       <use xlink:href="#m602711c110" x="297.293612" y="256.32" style="stroke: #000000; stroke-width: 0.8"/>
      </g>
     </g>
     <g id="text_7">
      <!-- 15.0 -->
      <g transform="translate(286.1608 270.918437)scale(0.1 -0.1)">
       <use xlink:href="#DejaVuSans-31"/>
       <use xlink:href="#DejaVuSans-35" x="63.623047"/>
       <use xlink:href="#DejaVuSans-2e" x="127.246094"/>
       <use xlink:href="#DejaVuSans-30" x="159.033203"/>
      </g>
     </g>
    </g>
    <g id="xtick_8">
     <g id="line2d_15">
      <path d="M 336.753029 256.32 
L 336.753029 34.56 
" clip-path="url(#p35656821f7)" style="fill: none; stroke: #b0b0b0; stroke-width: 0.8; stroke-linecap: square"/>
     </g>
     <g id="line2d_16">
      <g>
       <use xlink:href="#m602711c110" x="336.753029" y="256.32" style="stroke: #000000; stroke-width: 0.8"/>
      </g>
     </g>
     <g id="text_8">
      <!-- 17.5 -->
      <g transform="translate(325.620216 270.918437)scale(0.1 -0.1)">
       <use xlink:href="#DejaVuSans-31"/>
       <use xlink:href="#DejaVuSans-37" x="63.623047"/>
       <use xlink:href="#DejaVuSans-2e" x="127.246094"/>
       <use xlink:href="#DejaVuSans-35" x="159.033203"/>
      </g>
     </g>
    </g>
    <g id="xtick_9">
     <g id="line2d_17">
      <path d="M 376.212446 256.32 
L 376.212446 34.56 
" clip-path="url(#p35656821f7)" style="fill: none; stroke: #b0b0b0; stroke-width: 0.8; stroke-linecap: square"/>
     </g>
     <g id="line2d_18">
      <g>
       <use xlink:href="#m602711c110" x="376.212446" y="256.32" style="stroke: #000000; stroke-width: 0.8"/>
      </g>
     </g>
     <g id="text_9">
      <!-- 20.0 -->
      <g transform="translate(365.079633 270.918437)scale(0.1 -0.1)">
       <use xlink:href="#DejaVuSans-32"/>
       <use xlink:href="#DejaVuSans-30" x="63.623047"/>
       <use xlink:href="#DejaVuSans-2e" x="127.246094"/>
       <use xlink:href="#DejaVuSans-30" x="159.033203"/>
      </g>
     </g>
    </g>
    <g id="text_10">
     <!-- Minutes -->
     <g transform="translate(201.717969 284.596563)scale(0.1 -0.1)">
      <defs>
       <path id="DejaVuSans-4d" d="M 628 4666 
L 1569 4666 
L 2759 1491 
L 3956 4666 
L 4897 4666 
L 4897 0 
L 4281 0 
L 4281 4097 
L 3078 897 
L 2444 897 
L 1241 4097 
L 1241 0 
L 628 0 
L 628 4666 
z
" transform="scale(0.015625)"/>
       <path id="DejaVuSans-69" d="M 603 3500 
L 1178 3500 
L 1178 0 
L 603 0 
L 603 3500 
z
M 603 4863 
L 1178 4863 
L 1178 4134 
L 603 4134 
L 603 4863 
z
" transform="scale(0.015625)"/>
       <path id="DejaVuSans-6e" d="M 3513 2113 
L 3513 0 
L 2938 0 
L 2938 2094 
Q 2938 2591 2744 2837 
Q 2550 3084 2163 3084 
Q 1697 3084 1428 2787 
Q 1159 2491 1159 1978 
L 1159 0 
L 581 0 
L 581 3500 
L 1159 3500 
L 1159 2956 
Q 1366 3272 1645 3428 
Q 1925 3584 2291 3584 
Q 2894 3584 3203 3211 
Q 3513 2838 3513 2113 
z
" transform="scale(0.015625)"/>
       <path id="DejaVuSans-75" d="M 544 1381 
L 544 3500 
L 1119 3500 
L 1119 1403 
Q 1119 906 1312 657 
Q 1506 409 1894 409 
Q 2359 409 2629 706 
Q 2900 1003 2900 1516 
L 2900 3500 
L 3475 3500 
L 3475 0 
L 2900 0 
L 2900 538 
Q 2691 219 2414 64 
Q 2138 -91 1772 -91 
Q 1169 -91 856 284 
Q 544 659 544 1381 
z
M 1991 3584 
L 1991 3584 
z
" transform="scale(0.015625)"/>
       <path id="DejaVuSans-74" d="M 1172 4494 
L 1172 3500 
L 2356 3500 
L 2356 3053 
L 1172 3053 
L 1172 1153 
Q 1172 725 1289 603 
Q 1406 481 1766 481 
L 2356 481 
L 2356 0 
L 1766 0 
Q 1100 0 847 248 
Q 594 497 594 1153 
L 594 3053 
L 172 3053 
L 172 3500 
L 594 3500 
L 594 4494 
L 1172 4494 
z
" transform="scale(0.015625)"/>
       <path id="DejaVuSans-65" d="M 3597 1894 
L 3597 1613 
L 953 1613 
Q 991 1019 1311 708 
Q 1631 397 2203 397 
Q 2534 397 2845 478 
Q 3156 559 3463 722 
L 3463 178 
Q 3153 47 2828 -22 
Q 2503 -91 2169 -91 
Q 1331 -91 842 396 
Q 353 884 353 1716 
Q 353 2575 817 3079 
Q 1281 3584 2069 3584 
Q 2775 3584 3186 3129 
Q 3597 2675 3597 1894 
z
M 3022 2063 
Q 3016 2534 2758 2815 
Q 2500 3097 2075 3097 
Q 1594 3097 1305 2825 
Q 1016 2553 972 2059 
L 3022 2063 
z
" transform="scale(0.015625)"/>
       <path id="DejaVuSans-73" d="M 2834 3397 
L 2834 2853 
Q 2591 2978 2328 3040 
Q 2066 3103 1784 3103 
Q 1356 3103 1142 2972 
Q 928 2841 928 2578 
Q 928 2378 1081 2264 
Q 1234 2150 1697 2047 
L 1894 2003 
Q 2506 1872 2764 1633 
Q 3022 1394 3022 966 
Q 3022 478 2636 193 
Q 2250 -91 1575 -91 
Q 1294 -91 989 -36 
Q 684 19 347 128 
L 347 722 
Q 666 556 975 473 
Q 1284 391 1588 391 
Q 1994 391 2212 530 
Q 2431 669 2431 922 
Q 2431 1156 2273 1281 
Q 2116 1406 1581 1522 
L 1381 1569 
Q 847 1681 609 1914 
Q 372 2147 372 2553 
Q 372 3047 722 3315 
Q 1072 3584 1716 3584 
Q 2034 3584 2315 3537 
Q 2597 3491 2834 3397 
z
" transform="scale(0.015625)"/>
      </defs>
      <use xlink:href="#DejaVuSans-4d"/>
      <use xlink:href="#DejaVuSans-69" x="86.279297"/>
      <use xlink:href="#DejaVuSans-6e" x="114.0625"/>
      <use xlink:href="#DejaVuSans-75" x="177.441406"/>
      <use xlink:href="#DejaVuSans-74" x="240.820312"/>
      <use xlink:href="#DejaVuSans-65" x="280.029297"/>
      <use xlink:href="#DejaVuSans-73" x="341.552734"/>
     </g>
    </g>
   </g>
   <g id="matplotlib.axis_2">
    <g id="ytick_1">
     <g id="line2d_19">
      <path d="M 54 230.420282 
L 388.8 230.420282 
" clip-path="url(#p35656821f7)" style="fill: none; stroke: #b0b0b0; stroke-width: 0.8; stroke-linecap: square"/>
     </g>
     <g id="line2d_20">
      <defs>
       <path id="m9ac9ebb756" d="M 0 0 
L -3.5 0 
" style="stroke: #000000; stroke-width: 0.8"/>
      </defs>
      <g>
       <use xlink:href="#m9ac9ebb756" x="54" y="230.420282" style="stroke: #000000; stroke-width: 0.8"/>
      </g>
     </g>
     <g id="text_11">
      <!-- 10 -->
      <g transform="translate(34.275 234.2195)scale(0.1 -0.1)">
       <use xlink:href="#DejaVuSans-31"/>
       <use xlink:href="#DejaVuSans-30" x="63.623047"/>
      </g>
     </g>
    </g>
    <g id="ytick_2">
     <g id="line2d_21">
      <path d="M 54 204.459718 
L 388.8 204.459718 
" clip-path="url(#p35656821f7)" style="fill: none; stroke: #b0b0b0; stroke-width: 0.8; stroke-linecap: square"/>
     </g>
     <g id="line2d_22">
      <g>
       <use xlink:href="#m9ac9ebb756" x="54" y="204.459718" style="stroke: #000000; stroke-width: 0.8"/>
      </g>
     </g>
     <g id="text_12">
      <!-- 20 -->
      <g transform="translate(34.275 208.258937)scale(0.1 -0.1)">
       <use xlink:href="#DejaVuSans-32"/>
       <use xlink:href="#DejaVuSans-30" x="63.623047"/>
      </g>
     </g>
    </g>
    <g id="ytick_3">
     <g id="line2d_23">
      <path d="M 54 178.499155 
L 388.8 178.499155 
" clip-path="url(#p35656821f7)" style="fill: none; stroke: #b0b0b0; stroke-width: 0.8; stroke-linecap: square"/>
     </g>
     <g id="line2d_24">
      <g>
       <use xlink:href="#m9ac9ebb756" x="54" y="178.499155" style="stroke: #000000; stroke-width: 0.8"/>
      </g>
     </g>
     <g id="text_13">
      <!-- 30 -->
      <g transform="translate(34.275 182.298374)scale(0.1 -0.1)">
       <defs>
        <path id="DejaVuSans-33" d="M 2597 2516 
Q 3050 2419 3304 2112 
Q 3559 1806 3559 1356 
Q 3559 666 3084 287 
Q 2609 -91 1734 -91 
Q 1441 -91 1130 -33 
Q 819 25 488 141 
L 488 750 
Q 750 597 1062 519 
Q 1375 441 1716 441 
Q 2309 441 2620 675 
Q 2931 909 2931 1356 
Q 2931 1769 2642 2001 
Q 2353 2234 1838 2234 
L 1294 2234 
L 1294 2753 
L 1863 2753 
Q 2328 2753 2575 2939 
Q 2822 3125 2822 3475 
Q 2822 3834 2567 4026 
Q 2313 4219 1838 4219 
Q 1578 4219 1281 4162 
Q 984 4106 628 3988 
L 628 4550 
Q 988 4650 1302 4700 
Q 1616 4750 1894 4750 
Q 2613 4750 3031 4423 
Q 3450 4097 3450 3541 
Q 3450 3153 3228 2886 
Q 3006 2619 2597 2516 
z
" transform="scale(0.015625)"/>
       </defs>
       <use xlink:href="#DejaVuSans-33"/>
       <use xlink:href="#DejaVuSans-30" x="63.623047"/>
      </g>
     </g>
    </g>
    <g id="ytick_4">
     <g id="line2d_25">
      <path d="M 54 152.538592 
L 388.8 152.538592 
" clip-path="url(#p35656821f7)" style="fill: none; stroke: #b0b0b0; stroke-width: 0.8; stroke-linecap: square"/>
     </g>
     <g id="line2d_26">
      <g>
       <use xlink:href="#m9ac9ebb756" x="54" y="152.538592" style="stroke: #000000; stroke-width: 0.8"/>
      </g>
     </g>
     <g id="text_14">
      <!-- 40 -->
      <g transform="translate(34.275 156.33781)scale(0.1 -0.1)">
       <defs>
        <path id="DejaVuSans-34" d="M 2419 4116 
L 825 1625 
L 2419 1625 
L 2419 4116 
z
M 2253 4666 
L 3047 4666 
L 3047 1625 
L 3713 1625 
L 3713 1100 
L 3047 1100 
L 3047 0 
L 2419 0 
L 2419 1100 
L 313 1100 
L 313 1709 
L 2253 4666 
z
" transform="scale(0.015625)"/>
       </defs>
       <use xlink:href="#DejaVuSans-34"/>
       <use xlink:href="#DejaVuSans-30" x="63.623047"/>
      </g>
     </g>
    </g>
    <g id="ytick_5">
     <g id="line2d_27">
      <path d="M 54 126.578028 
L 388.8 126.578028 
" clip-path="url(#p35656821f7)" style="fill: none; stroke: #b0b0b0; stroke-width: 0.8; stroke-linecap: square"/>
     </g>
     <g id="line2d_28">
      <g>
       <use xlink:href="#m9ac9ebb756" x="54" y="126.578028" style="stroke: #000000; stroke-width: 0.8"/>
      </g>
     </g>
     <g id="text_15">
      <!-- 50 -->
      <g transform="translate(34.275 130.377247)scale(0.1 -0.1)">
       <use xlink:href="#DejaVuSans-35"/>
       <use xlink:href="#DejaVuSans-30" x="63.623047"/>
      </g>
     </g>
    </g>
    <g id="ytick_6">
     <g id="line2d_29">
      <path d="M 54 100.617465 
L 388.8 100.617465 
" clip-path="url(#p35656821f7)" style="fill: none; stroke: #b0b0b0; stroke-width: 0.8; stroke-linecap: square"/>
     </g>
     <g id="line2d_30">
      <g>
       <use xlink:href="#m9ac9ebb756" x="54" y="100.617465" style="stroke: #000000; stroke-width: 0.8"/>
      </g>
     </g>
     <g id="text_16">
      <!-- 60 -->
      <g transform="translate(34.275 104.416684)scale(0.1 -0.1)">
       <defs>
        <path id="DejaVuSans-36" d="M 2113 2584 
Q 1688 2584 1439 2293 
Q 1191 2003 1191 1497 
Q 1191 994 1439 701 
Q 1688 409 2113 409 
Q 2538 409 2786 701 
Q 3034 994 3034 1497 
Q 3034 2003 2786 2293 
Q 2538 2584 2113 2584 
z
M 3366 4563 
L 3366 3988 
Q 3128 4100 2886 4159 
Q 2644 4219 2406 4219 
Q 1781 4219 1451 3797 
Q 1122 3375 1075 2522 
Q 1259 2794 1537 2939 
Q 1816 3084 2150 3084 
Q 2853 3084 3261 2657 
Q 3669 2231 3669 1497 
Q 3669 778 3244 343 
Q 2819 -91 2113 -91 
Q 1303 -91 875 529 
Q 447 1150 447 2328 
Q 447 3434 972 4092 
Q 1497 4750 2381 4750 
Q 2619 4750 2861 4703 
Q 3103 4656 3366 4563 
z
" transform="scale(0.015625)"/>
       </defs>
       <use xlink:href="#DejaVuSans-36"/>
       <use xlink:href="#DejaVuSans-30" x="63.623047"/>
      </g>
     </g>
    </g>
    <g id="ytick_7">
     <g id="line2d_31">
      <path d="M 54 74.656901 
L 388.8 74.656901 
" clip-path="url(#p35656821f7)" style="fill: none; stroke: #b0b0b0; stroke-width: 0.8; stroke-linecap: square"/>
     </g>
     <g id="line2d_32">
      <g>
       <use xlink:href="#m9ac9ebb756" x="54" y="74.656901" style="stroke: #000000; stroke-width: 0.8"/>
      </g>
     </g>
     <g id="text_17">
      <!-- 70 -->
      <g transform="translate(34.275 78.45612)scale(0.1 -0.1)">
       <use xlink:href="#DejaVuSans-37"/>
       <use xlink:href="#DejaVuSans-30" x="63.623047"/>
      </g>
     </g>
    </g>
    <g id="ytick_8">
     <g id="line2d_33">
      <path d="M 54 48.696338 
L 388.8 48.696338 
" clip-path="url(#p35656821f7)" style="fill: none; stroke: #b0b0b0; stroke-width: 0.8; stroke-linecap: square"/>
     </g>
     <g id="line2d_34">
      <g>
       <use xlink:href="#m9ac9ebb756" x="54" y="48.696338" style="stroke: #000000; stroke-width: 0.8"/>
      </g>
     </g>
     <g id="text_18">
      <!-- 80 -->
      <g transform="translate(34.275 52.495557)scale(0.1 -0.1)">
       <defs>
        <path id="DejaVuSans-38" d="M 2034 2216 
Q 1584 2216 1326 1975 
Q 1069 1734 1069 1313 
Q 1069 891 1326 650 
Q 1584 409 2034 409 
Q 2484 409 2743 651 
Q 3003 894 3003 1313 
Q 3003 1734 2745 1975 
Q 2488 2216 2034 2216 
z
M 1403 2484 
Q 997 2584 770 2862 
Q 544 3141 544 3541 
Q 544 4100 942 4425 
Q 1341 4750 2034 4750 
Q 2731 4750 3128 4425 
Q 3525 4100 3525 3541 
Q 3525 3141 3298 2862 
Q 3072 2584 2669 2484 
Q 3125 2378 3379 2068 
Q 3634 1759 3634 1313 
Q 3634 634 3220 271 
Q 2806 -91 2034 -91 
Q 1263 -91 848 271 
Q 434 634 434 1313 
Q 434 1759 690 2068 
Q 947 2378 1403 2484 
z
M 1172 3481 
Q 1172 3119 1398 2916 
Q 1625 2713 2034 2713 
Q 2441 2713 2670 2916 
Q 2900 3119 2900 3481 
Q 2900 3844 2670 4047 
Q 2441 4250 2034 4250 
Q 1625 4250 1398 4047 
Q 1172 3844 1172 3481 
z
" transform="scale(0.015625)"/>
       </defs>
       <use xlink:href="#DejaVuSans-38"/>
       <use xlink:href="#DejaVuSans-30" x="63.623047"/>
      </g>
     </g>
    </g>
    <g id="text_19">
     <!-- % -->
     <g transform="translate(28.195312 150.190781)rotate(-90)scale(0.1 -0.1)">
      <defs>
       <path id="DejaVuSans-25" d="M 4653 2053 
Q 4381 2053 4226 1822 
Q 4072 1591 4072 1178 
Q 4072 772 4226 539 
Q 4381 306 4653 306 
Q 4919 306 5073 539 
Q 5228 772 5228 1178 
Q 5228 1588 5073 1820 
Q 4919 2053 4653 2053 
z
M 4653 2450 
Q 5147 2450 5437 2106 
Q 5728 1763 5728 1178 
Q 5728 594 5436 251 
Q 5144 -91 4653 -91 
Q 4153 -91 3862 251 
Q 3572 594 3572 1178 
Q 3572 1766 3864 2108 
Q 4156 2450 4653 2450 
z
M 1428 4353 
Q 1159 4353 1004 4120 
Q 850 3888 850 3481 
Q 850 3069 1003 2837 
Q 1156 2606 1428 2606 
Q 1700 2606 1854 2837 
Q 2009 3069 2009 3481 
Q 2009 3884 1853 4118 
Q 1697 4353 1428 4353 
z
M 4250 4750 
L 4750 4750 
L 1831 -91 
L 1331 -91 
L 4250 4750 
z
M 1428 4750 
Q 1922 4750 2215 4408 
Q 2509 4066 2509 3481 
Q 2509 2891 2217 2550 
Q 1925 2209 1428 2209 
Q 931 2209 642 2551 
Q 353 2894 353 3481 
Q 353 4063 643 4406 
Q 934 4750 1428 4750 
z
" transform="scale(0.015625)"/>
      </defs>
      <use xlink:href="#DejaVuSans-25"/>
     </g>
    </g>
   </g>
   <g id="line2d_35">
    <path d="M 69.218182 245.969577 
L 69.481245 245.563944 
L 69.744307 245.699155 
L 70.270433 245.428732 
L 70.533496 244.887887 
L 70.533496 244.617465 
L 71.322684 244.211831 
L 71.322684 244.07662 
L 71.585747 243.806197 
L 71.84881 244.211831 
L 72.111872 244.07662 
L 72.374935 244.482254 
L 72.374935 245.15831 
L 73.164124 244.752676 
L 73.427186 244.347042 
L 73.690249 244.347042 
L 73.953312 245.15831 
L 74.216375 245.293521 
L 74.216375 244.617465 
L 74.7425 244.617465 
L 75.268626 244.07662 
L 75.268626 243.806197 
L 76.320877 245.023099 
L 76.58394 245.428732 
L 77.636191 245.428732 
L 77.636191 245.428732 
L 77.899254 245.563944 
L 78.162316 245.293521 
L 78.425379 245.834366 
L 78.425379 246.24 
L 78.688442 246.24 
L 79.214567 245.293521 
L 79.214567 245.293521 
L 79.740693 245.699155 
L 80.003756 245.15831 
L 80.003756 245.428732 
L 80.266819 245.293521 
L 80.529881 244.482254 
L 80.792944 244.347042 
L 80.792944 244.617465 
L 81.056007 243.941408 
L 81.31907 243.670986 
L 81.582132 242.99493 
L 81.845195 243.130141 
L 82.108258 242.859718 
L 82.108258 242.318873 
L 82.371321 240.831549 
L 82.897446 239.88507 
L 82.897446 239.344225 
L 83.686635 238.532958 
L 83.949697 237.992113 
L 84.475823 237.72169 
L 84.738886 237.856901 
L 85.265011 234.882254 
L 85.791137 235.152676 
L 85.791137 234.341408 
L 86.317263 232.854085 
L 86.580325 232.718873 
L 86.580325 232.042817 
L 87.369514 229.744225 
L 87.369514 228.527324 
L 87.632576 227.851268 
L 88.158702 225.823099 
L 88.158702 224.065352 
L 88.421765 222.442817 
L 88.94789 221.361127 
L 89.210953 220.414648 
L 89.210953 219.60338 
L 89.737079 216.223099 
L 90.000141 215.006197 
L 90.000141 213.113239 
L 90.263204 212.166761 
L 90.78933 208.786479 
L 91.578518 207.84 
L 91.841581 204.189296 
L 92.630769 197.15831 
L 93.156895 194.048451 
L 93.156895 193.507606 
L 93.419958 192.696338 
L 94.209146 187.152676 
L 94.472209 185.124507 
L 94.998334 183.637183 
L 95.261397 184.042817 
L 95.52446 184.178028 
L 95.52446 182.555493 
L 95.787523 181.338592 
L 96.313648 178.093521 
L 96.576711 177.147042 
L 96.576711 177.282254 
L 96.839774 177.011831 
L 97.102836 175.659718 
L 97.365899 173.361127 
L 97.628962 172.955493 
L 97.628962 171.468169 
L 97.892025 170.251268 
L 98.155088 169.845634 
L 98.944276 169.575211 
L 98.944276 168.899155 
L 99.207339 167.817465 
L 99.470402 167.817465 
L 99.996527 166.600563 
L 99.996527 164.031549 
L 100.25959 163.08507 
L 100.522653 163.490704 
L 100.785715 161.462535 
L 101.048778 161.462535 
L 101.311841 162.409014 
L 101.574904 161.192113 
L 101.574904 159.84 
L 102.101029 157.000563 
L 102.364092 156.459718 
L 102.627155 155.378028 
L 102.890218 155.378028 
L 103.15328 155.918873 
L 103.15328 154.296338 
L 103.416343 153.214648 
L 103.679406 153.349859 
L 103.942469 154.025915 
L 104.205532 153.620282 
L 104.205532 154.025915 
L 104.468594 154.025915 
L 104.731657 154.296338 
L 104.99472 153.755493 
L 105.257783 153.755493 
L 106.310034 151.997746 
L 106.573097 151.727324 
L 106.836159 152.673803 
L 107.099222 152.132958 
L 107.099222 151.051268 
L 107.362285 152.40338 
L 107.625348 152.673803 
L 107.88841 151.186479 
L 108.414536 150.780845 
L 108.940662 149.699155 
L 108.940662 149.834366 
L 109.203724 149.834366 
L 109.466787 150.375211 
L 109.72985 149.428732 
L 110.255975 149.023099 
L 110.255975 147.806197 
L 111.045164 146.589296 
L 111.308227 145.913239 
L 111.308227 145.507606 
L 111.834352 142.668169 
L 112.097415 142.668169 
L 112.360478 143.479437 
L 112.360478 142.397746 
L 113.149666 142.262535 
L 113.412729 142.668169 
L 113.675792 141.451268 
L 113.675792 140.504789 
L 113.938854 139.963944 
L 114.201917 138.747042 
L 114.46498 138.341408 
L 114.728043 138.341408 
L 114.728043 137.39493 
L 114.991106 137.39493 
L 115.254168 138.611831 
L 115.517231 138.611831 
L 116.306419 137.665352 
L 116.569482 138.341408 
L 116.832545 138.206197 
L 116.832545 137.800563 
L 117.095608 138.611831 
L 117.358671 138.882254 
L 117.621733 138.070986 
L 118.147859 134.555493 
L 118.410922 135.501972 
L 119.20011 132.932958 
L 119.20011 134.014648 
L 119.726236 130.499155 
L 120.515424 129.552676 
L 120.515424 129.282254 
L 120.778487 129.687887 
L 121.567675 127.524507 
L 121.567675 127.254085 
L 121.830738 126.578028 
L 122.093801 123.60338 
L 122.356863 122.792113 
L 122.356863 121.845634 
L 122.619926 121.575211 
L 122.882989 122.251268 
L 123.146052 121.44 
L 123.409114 121.169577 
L 123.409114 120.35831 
L 123.672177 121.575211 
L 123.93524 120.087887 
L 124.198303 120.35831 
L 124.198303 120.628732 
L 124.461366 121.845634 
L 124.724428 121.845634 
L 124.987491 123.332958 
L 125.250554 121.845634 
L 125.513617 122.792113 
L 125.513617 122.386479 
L 125.77668 122.927324 
L 126.039742 122.386479 
L 126.565868 124.009014 
L 126.565868 125.090704 
L 126.828931 125.090704 
L 127.618119 124.009014 
L 127.618119 123.738592 
L 127.881182 122.386479 
L 128.144245 122.927324 
L 128.407307 122.927324 
L 128.407307 123.468169 
L 128.67037 124.68507 
L 129.196496 125.766761 
L 129.196496 124.820282 
L 129.459558 123.60338 
L 129.722621 123.738592 
L 129.985684 122.52169 
L 129.985684 121.710423 
L 130.248747 120.763944 
L 130.51181 122.386479 
L 130.774872 122.656901 
L 130.774872 122.116056 
L 131.037935 121.304789 
L 131.300998 121.034366 
L 131.564061 121.034366 
L 131.564061 121.44 
L 131.827123 121.845634 
L 132.090186 123.873803 
L 132.353249 123.062535 
L 132.353249 122.656901 
L 132.616312 122.251268 
L 132.879375 121.44 
L 133.142437 121.304789 
L 133.142437 122.52169 
L 133.4055 122.927324 
L 133.668563 124.009014 
L 134.194688 125.496338 
L 134.457751 125.901972 
L 134.983877 124.009014 
L 134.983877 123.332958 
L 135.24694 122.656901 
L 135.510002 122.386479 
L 135.773065 122.52169 
L 135.773065 122.386479 
L 136.036128 121.980845 
L 136.299191 121.304789 
L 136.562253 121.304789 
L 136.562253 119.682254 
L 136.825316 119.27662 
L 137.351442 117.518873 
L 137.614505 118.19493 
L 137.614505 118.870986 
L 137.877567 117.924507 
L 138.14063 117.924507 
L 138.403693 116.437183 
L 138.403693 114.814648 
L 138.666756 114.138592 
L 138.929818 114.138592 
L 139.192881 113.327324 
L 139.192881 113.868169 
L 139.455944 114.138592 
L 139.98207 110.893521 
L 139.98207 109.541408 
L 140.508195 107.648451 
L 141.034321 108.054085 
L 141.297384 108.054085 
L 141.823509 109.135775 
L 141.823509 108.59493 
L 142.086572 107.783662 
L 142.349635 108.324507 
L 142.612697 108.054085 
L 142.612697 108.59493 
L 142.87576 109.135775 
L 143.401886 107.242817 
L 143.401886 107.513239 
L 143.664949 107.918873 
L 144.191074 105.755493 
L 144.454137 105.620282 
L 144.7172 105.890704 
L 145.243325 104.944225 
L 145.506388 104.538592 
L 145.769451 103.32169 
L 145.769451 101.969577 
L 146.295576 102.510423 
L 146.558639 102.104789 
L 146.558639 101.428732 
L 146.821702 101.023099 
L 147.084765 99.941408 
L 147.347827 100.887887 
L 148.137016 100.211831 
L 148.137016 100.482254 
L 148.400079 100.211831 
L 148.663141 98.99493 
L 148.926204 99.400563 
L 148.926204 98.859718 
L 149.189267 98.183662 
L 149.715392 100.07662 
L 149.715392 99.130141 
L 149.978455 99.130141 
L 150.504581 97.507606 
L 150.504581 96.696338 
L 150.767644 95.88507 
L 151.030706 95.88507 
L 151.293769 96.020282 
L 151.293769 95.614648 
L 151.556832 95.479437 
L 151.819895 95.614648 
L 152.082957 96.155493 
L 152.082957 95.479437 
L 152.34602 94.262535 
L 152.609083 95.749859 
L 152.872146 94.938592 
L 152.872146 95.344225 
L 153.398271 95.614648 
L 153.924397 92.910423 
L 154.713585 91.828732 
L 154.713585 91.423099 
L 154.976648 91.963944 
L 155.239711 90.47662 
L 155.502774 90.070986 
L 155.765836 89.665352 
L 156.028899 86.825915 
L 156.291962 86.961127 
L 156.291962 86.555493 
L 156.555025 86.961127 
L 156.818088 86.961127 
L 157.08115 87.231549 
L 157.08115 87.096338 
L 157.344213 86.961127 
L 157.870339 87.231549 
L 157.870339 86.420282 
L 158.396464 84.797746 
L 158.659527 84.527324 
L 158.659527 84.527324 
L 158.92259 82.363944 
L 159.185653 83.310423 
L 159.448715 83.716056 
L 159.448715 83.310423 
L 159.711778 82.904789 
L 160.500966 81.147042 
L 160.500966 81.417465 
L 161.290155 81.417465 
L 161.553218 82.228732 
L 162.079343 82.228732 
L 162.079343 82.228732 
L 162.342406 84.256901 
L 162.605469 82.634366 
L 162.868531 82.228732 
L 162.868531 81.687887 
L 163.131594 80.335775 
L 163.65772 80.606197 
L 163.65772 79.389296 
L 164.183845 77.901972 
L 164.446908 77.901972 
L 164.446908 78.848451 
L 164.973034 78.848451 
L 165.499159 78.578028 
L 165.499159 78.172394 
L 165.762222 78.307606 
L 166.025285 78.172394 
L 166.288348 79.389296 
L 166.288348 80.065352 
L 166.55141 80.470986 
L 166.814473 80.335775 
L 167.077536 80.606197 
L 167.077536 81.147042 
L 167.340599 80.200563 
L 167.603662 80.200563 
L 168.129787 80.335775 
L 168.39285 79.118873 
L 168.655913 78.442817 
L 168.655913 77.225915 
L 168.918975 77.901972 
L 169.182038 77.090704 
L 169.445101 77.631549 
L 169.445101 79.389296 
L 169.971227 78.172394 
L 170.234289 78.713239 
L 170.234289 77.766761 
L 170.497352 78.307606 
L 170.760415 78.307606 
L 171.023478 78.172394 
L 171.28654 78.848451 
L 171.28654 79.254085 
L 171.549603 78.713239 
L 171.812666 79.254085 
L 172.075729 80.065352 
L 172.338792 79.118873 
L 172.601854 78.848451 
L 172.601854 77.090704 
L 173.12798 76.144225 
L 173.391043 76.144225 
L 173.917168 74.656901 
L 173.917168 74.927324 
L 174.443294 74.116056 
L 175.232482 76.549859 
L 175.495545 76.144225 
L 175.758608 75.468169 
L 176.02167 75.738592 
L 176.284733 74.386479 
L 176.284733 73.304789 
L 176.547796 73.575211 
L 176.810859 74.52169 
L 177.073922 73.980845 
L 177.336984 74.52169 
L 177.600047 74.386479 
L 177.600047 74.656901 
L 177.86311 74.656901 
L 178.389235 73.44 
L 178.652298 74.52169 
L 178.652298 73.44 
L 178.915361 73.034366 
L 179.178424 71.817465 
L 179.704549 71.141408 
L 179.967612 71.27662 
L 179.967612 71.411831 
L 180.230675 71.141408 
L 180.493738 70.059718 
L 180.756801 70.330141 
L 181.019863 69.518873 
L 181.019863 70.465352 
L 181.282926 70.735775 
L 181.545989 69.789296 
L 181.809052 67.896338 
L 182.59824 68.301972 
L 183.124366 67.625915 
L 183.124366 67.761127 
L 183.387428 66.949859 
L 183.650491 65.597746 
L 183.913554 66.409014 
L 183.913554 67.355493 
L 184.176617 66.409014 
L 184.439679 66.409014 
L 184.965805 65.192113 
L 184.965805 65.192113 
L 185.228868 64.110423 
L 185.491931 64.110423 
L 185.754993 63.704789 
L 186.018056 64.92169 
L 186.544182 65.868169 
L 186.544182 65.056901 
L 187.070307 62.75831 
L 187.33337 63.299155 
L 187.596433 63.028732 
L 187.859496 64.110423 
L 187.859496 62.893521 
L 188.122558 63.434366 
L 188.385621 63.163944 
L 188.648684 63.569577 
L 188.911747 64.245634 
L 189.174809 64.110423 
L 189.437872 64.110423 
L 189.963998 63.84 
L 190.227061 64.110423 
L 190.490123 65.327324 
L 190.753186 65.192113 
L 190.753186 64.245634 
L 191.016249 63.163944 
L 191.279312 63.434366 
L 191.542374 63.028732 
L 191.542374 63.163944 
L 191.805437 63.84 
L 192.0685 63.975211 
L 192.331563 64.516056 
L 192.594626 64.380845 
L 192.857688 63.84 
L 192.857688 63.975211 
L 193.120751 63.569577 
L 193.383814 63.84 
L 193.646877 64.516056 
L 193.909939 66.138592 
L 193.909939 68.707606 
L 194.173002 69.113239 
L 194.436065 70.059718 
L 194.699128 68.842817 
L 195.225253 71.27662 
L 195.751379 72.628732 
L 196.014442 72.493521 
L 196.014442 72.899155 
L 196.277505 74.386479 
L 196.540567 73.575211 
L 197.329756 72.493521 
L 197.329756 73.034366 
L 197.592818 73.169577 
L 198.118944 75.197746 
L 198.382007 74.656901 
L 198.64507 74.386479 
L 199.171195 74.927324 
L 199.434258 74.251268 
L 199.434258 75.60338 
L 199.697321 76.68507 
L 200.223446 75.468169 
L 200.486509 74.656901 
L 200.486509 74.251268 
L 200.749572 73.169577 
L 201.012635 71.006197 
L 201.275697 71.27662 
L 201.53876 70.465352 
L 201.53876 70.600563 
L 201.801823 70.059718 
L 202.064886 68.437183 
L 202.327948 68.978028 
L 202.327948 68.031549 
L 202.591011 67.08507 
L 202.854074 67.355493 
L 203.117137 68.301972 
L 203.3802 67.896338 
L 203.3802 67.490704 
L 203.643262 67.220282 
L 203.906325 66.544225 
L 204.958576 67.355493 
L 205.221639 67.761127 
L 205.484702 67.761127 
L 205.747765 66.814648 
L 205.747765 66.273803 
L 206.010827 67.08507 
L 206.536953 64.110423 
L 206.800016 64.516056 
L 206.800016 65.327324 
L 207.063078 65.732958 
L 207.326141 66.814648 
L 207.852267 67.761127 
L 207.852267 67.355493 
L 208.378392 66.814648 
L 208.641455 66.00338 
L 208.904518 66.273803 
L 208.904518 65.597746 
L 209.167581 66.00338 
L 209.430644 65.732958 
L 209.693706 65.732958 
L 209.956769 64.516056 
L 210.219832 64.516056 
L 210.219832 65.327324 
L 210.482895 66.409014 
L 210.745957 66.814648 
L 211.00902 67.625915 
L 211.00902 66.814648 
L 211.798209 65.462535 
L 212.061271 65.462535 
L 212.587397 66.138592 
L 212.85046 65.868169 
L 213.376585 66.949859 
L 213.639648 66.00338 
L 213.639648 66.00338 
L 213.902711 65.597746 
L 214.165774 64.516056 
L 214.691899 65.327324 
L 214.954962 66.814648 
L 214.954962 66.409014 
L 215.481087 68.166761 
L 215.74415 68.572394 
L 216.270276 66.814648 
L 216.533339 67.220282 
L 216.796401 67.08507 
L 217.059464 68.031549 
L 217.322527 67.625915 
L 217.58559 66.409014 
L 217.848652 66.138592 
L 218.111715 65.597746 
L 218.374778 65.597746 
L 218.374778 65.597746 
L 218.637841 65.192113 
L 219.427029 65.056901 
L 219.427029 65.868169 
L 219.690092 65.868169 
L 219.953155 66.00338 
L 220.216217 66.409014 
L 220.47928 67.355493 
L 220.742343 66.814648 
L 221.005406 68.031549 
L 221.268469 67.625915 
L 221.531531 66.544225 
L 221.794594 66.544225 
L 222.057657 65.462535 
L 222.32072 66.273803 
L 222.583783 65.732958 
L 222.583783 65.327324 
L 222.846845 64.516056 
L 223.636034 67.08507 
L 223.899096 67.355493 
L 224.425222 66.273803 
L 224.688285 66.273803 
L 224.951348 67.896338 
L 224.951348 69.113239 
L 225.477473 68.301972 
L 225.740536 67.625915 
L 226.003599 67.355493 
L 226.529724 66.273803 
L 227.05585 66.273803 
L 227.318913 66.949859 
L 227.845038 65.597746 
L 227.845038 66.814648 
L 228.108101 66.679437 
L 228.371164 65.868169 
L 229.160352 67.220282 
L 229.160352 67.625915 
L 229.686478 66.949859 
L 229.94954 66.814648 
L 230.212603 67.08507 
L 230.475666 65.732958 
L 230.475666 64.92169 
L 230.738729 64.380845 
L 231.001791 64.380845 
L 231.527917 65.192113 
L 231.79098 64.516056 
L 232.054043 65.056901 
L 232.054043 65.462535 
L 232.317105 64.92169 
L 232.580168 64.651268 
L 232.843231 64.92169 
L 233.106294 66.409014 
L 233.369356 66.679437 
L 233.632419 66.273803 
L 233.632419 66.00338 
L 233.895482 65.192113 
L 234.68467 66.273803 
L 234.947733 66.273803 
L 235.210796 65.732958 
L 235.473859 65.597746 
L 235.473859 65.056901 
L 235.999984 64.380845 
L 236.52611 62.352676 
L 236.52611 61.406197 
L 236.789173 61.541408 
L 237.052235 61.541408 
L 237.315298 61.947042 
L 237.578361 63.434366 
L 237.841424 63.84 
L 237.841424 63.163944 
L 238.104487 63.028732 
L 238.630612 61.000563 
L 238.893675 61.947042 
L 239.4198 58.566761 
L 239.682863 58.161127 
L 239.682863 58.701972 
L 239.945926 59.378028 
L 240.208989 58.161127 
L 240.735114 58.837183 
L 240.998177 59.783662 
L 240.998177 59.513239 
L 241.26124 58.566761 
L 241.524303 58.431549 
L 242.050428 57.620282 
L 242.576554 57.349859 
L 242.839617 57.890704 
L 243.365742 58.431549 
L 243.628805 58.161127 
L 244.417993 56.40338 
L 244.681056 56.40338 
L 244.681056 56.809014 
L 244.944119 56.538592 
L 245.207182 57.48507 
L 245.470244 57.620282 
L 245.470244 57.620282 
L 245.99637 58.296338 
L 246.259433 59.242817 
L 246.522495 58.972394 
L 246.522495 58.566761 
L 246.785558 58.972394 
L 247.048621 59.107606 
L 247.311684 59.378028 
L 247.574747 57.620282 
L 247.837809 58.431549 
L 248.100872 58.431549 
L 248.363935 58.161127 
L 248.626998 58.296338 
L 249.153123 57.755493 
L 249.416186 57.890704 
L 249.679249 57.349859 
L 250.205374 57.890704 
L 250.7315 59.513239 
L 250.994563 59.783662 
L 250.994563 59.242817 
L 251.257626 59.107606 
L 251.520688 58.701972 
L 252.046814 57.620282 
L 252.572939 58.837183 
L 253.099065 58.161127 
L 253.362128 57.48507 
L 253.625191 57.349859 
L 253.888253 56.944225 
L 254.414379 55.186479 
L 254.414379 55.727324 
L 255.203567 54.645634 
L 255.46663 55.727324 
L 255.46663 55.32169 
L 255.729693 55.727324 
L 255.992756 54.24 
L 256.781944 55.186479 
L 256.781944 55.592113 
L 257.045007 54.375211 
L 257.308069 54.510423 
L 257.834195 52.887887 
L 257.834195 53.563944 
L 258.097258 53.428732 
L 258.360321 53.428732 
L 258.623383 53.699155 
L 258.623383 53.969577 
L 258.886446 53.023099 
L 259.149509 53.563944 
L 259.412572 53.023099 
L 259.675634 53.15831 
L 259.675634 52.617465 
L 259.938697 53.428732 
L 260.20176 53.15831 
L 260.464823 53.293521 
L 260.464823 53.428732 
L 260.990948 54.780845 
L 261.254011 54.916056 
L 261.517074 55.456901 
L 261.517074 55.051268 
L 262.043199 55.727324 
L 262.569325 57.755493 
L 262.832388 59.242817 
L 262.832388 58.161127 
L 263.095451 57.48507 
L 264.147702 58.025915 
L 264.410765 58.701972 
L 264.673827 58.837183 
L 264.93689 59.242817 
L 264.93689 59.648451 
L 265.199953 59.783662 
L 265.726078 60.59493 
L 265.726078 60.865352 
L 265.989141 60.189296 
L 266.252204 60.324507 
L 266.515267 60.324507 
L 266.515267 61.270986 
L 266.77833 60.730141 
L 267.041392 60.730141 
L 267.304455 61.541408 
L 267.567518 61.135775 
L 267.567518 60.730141 
L 267.830581 60.730141 
L 268.093643 59.783662 
L 268.356706 59.648451 
L 268.619769 59.648451 
L 268.882832 60.054085 
L 268.882832 59.648451 
L 269.67202 56.944225 
L 269.935083 56.809014 
L 270.198146 57.349859 
L 270.461208 57.214648 
L 270.461208 57.48507 
L 271.250397 57.349859 
L 271.51346 57.620282 
L 271.51346 56.809014 
L 271.776522 57.079437 
L 272.039585 56.268169 
L 272.302648 56.538592 
L 272.828773 56.268169 
L 272.828773 56.132958 
L 273.354899 55.862535 
L 273.881025 56.538592 
L 273.881025 56.538592 
L 274.144087 56.40338 
L 274.40715 56.673803 
L 274.670213 56.40338 
L 274.933276 55.862535 
L 274.933276 56.132958 
L 275.196338 56.944225 
L 275.459401 56.673803 
L 275.722464 56.809014 
L 275.985527 56.809014 
L 275.985527 56.673803 
L 276.24859 56.538592 
L 277.037778 60.865352 
L 277.300841 60.730141 
L 277.826966 59.107606 
L 278.616155 59.513239 
L 278.879217 58.972394 
L 279.14228 59.783662 
L 279.14228 59.378028 
L 279.405343 58.701972 
L 279.668406 59.107606 
L 279.931469 58.972394 
L 279.931469 58.296338 
L 280.194531 58.296338 
L 280.457594 56.944225 
L 280.720657 56.944225 
L 280.720657 57.620282 
L 281.246782 57.214648 
L 281.509845 57.755493 
L 281.772908 57.890704 
L 281.772908 58.296338 
L 282.035971 57.214648 
L 282.299034 57.48507 
L 282.562096 56.809014 
L 282.825159 57.349859 
L 283.088222 57.620282 
L 283.351285 55.862535 
L 283.614347 55.186479 
L 283.87741 53.834366 
L 284.140473 53.834366 
L 284.140473 54.24 
L 284.403536 54.24 
L 284.666599 53.834366 
L 284.929661 52.617465 
L 285.71885 52.752676 
L 286.244975 52.211831 
L 286.508038 51.670986 
L 286.771101 52.752676 
L 286.771101 53.969577 
L 287.034164 53.969577 
L 287.297226 55.051268 
L 287.560289 54.510423 
L 287.823352 54.780845 
L 287.823352 55.051268 
L 288.086415 55.186479 
L 288.349477 54.375211 
L 288.61254 54.24 
L 288.61254 54.510423 
L 288.875603 54.780845 
L 289.401729 54.780845 
L 289.401729 53.834366 
L 289.664791 53.023099 
L 289.927854 53.699155 
L 290.190917 53.834366 
L 290.45398 53.699155 
L 290.45398 54.24 
L 291.243168 53.428732 
L 291.243168 53.428732 
L 291.506231 53.699155 
L 291.769294 53.563944 
L 292.032356 53.699155 
L 292.295419 54.510423 
L 293.084608 56.132958 
L 293.34767 54.24 
L 294.136859 56.673803 
L 294.136859 56.40338 
L 294.399921 56.132958 
L 294.662984 56.673803 
L 294.926047 56.809014 
L 294.926047 56.673803 
L 295.18911 56.809014 
L 295.978298 56.40338 
L 295.978298 56.673803 
L 296.241361 57.214648 
L 296.504424 55.997746 
L 296.767486 56.268169 
L 297.293612 54.916056 
L 298.345863 58.837183 
L 298.345863 59.918873 
L 298.608926 60.865352 
L 298.871989 59.783662 
L 299.135051 59.648451 
L 299.398114 59.107606 
L 300.187303 59.513239 
L 300.187303 59.107606 
L 301.502616 53.969577 
L 301.502616 54.510423 
L 301.765679 55.186479 
L 302.028742 55.32169 
L 302.291805 55.592113 
L 302.291805 55.32169 
L 302.554868 55.727324 
L 302.81793 56.40338 
L 303.080993 55.32169 
L 303.344056 55.32169 
L 303.344056 55.32169 
L 303.607119 55.592113 
L 304.133244 54.780845 
L 304.133244 54.780845 
L 304.922433 52.07662 
L 304.922433 51.400563 
L 305.185495 52.617465 
L 305.711621 52.07662 
L 305.711621 52.752676 
L 306.237747 51.806197 
L 307.026935 52.752676 
L 307.026935 53.023099 
L 307.289998 53.563944 
L 307.55306 53.428732 
L 307.816123 54.510423 
L 307.816123 53.699155 
L 308.342249 53.969577 
L 308.605312 53.15831 
L 308.605312 54.104789 
L 308.868374 54.24 
L 309.131437 54.510423 
L 309.3945 54.24 
L 309.3945 55.456901 
L 309.657563 56.944225 
L 309.920625 57.48507 
L 310.183688 57.48507 
L 310.446751 58.161127 
L 310.709814 57.890704 
L 310.972877 56.944225 
L 311.235939 58.161127 
L 311.235939 58.025915 
L 311.499002 58.025915 
L 311.762065 57.890704 
L 312.025128 57.079437 
L 312.025128 56.40338 
L 312.28819 56.40338 
L 312.551253 55.862535 
L 312.814316 56.809014 
L 313.077379 56.809014 
L 313.077379 56.673803 
L 313.340442 56.268169 
L 314.12963 56.132958 
L 314.12963 56.673803 
L 314.392693 56.538592 
L 314.918818 57.755493 
L 314.918818 56.538592 
L 315.181881 56.40338 
L 315.444944 55.051268 
L 315.708007 55.862535 
L 315.708007 55.592113 
L 315.971069 55.592113 
L 316.234132 55.997746 
L 316.497195 53.023099 
L 317.02332 53.969577 
L 317.286383 53.834366 
L 317.286383 53.834366 
L 317.549446 52.07662 
L 317.812509 52.347042 
L 318.075572 51.535775 
L 318.338634 51.941408 
L 318.338634 52.752676 
L 318.601697 52.752676 
L 318.86476 52.617465 
L 319.127823 52.887887 
L 319.127823 53.293521 
L 319.390886 54.104789 
L 319.653948 53.969577 
L 319.917011 54.375211 
L 319.917011 54.780845 
L 320.180074 55.456901 
L 320.969262 55.32169 
L 320.969262 55.32169 
L 321.232325 55.456901 
L 321.495388 57.079437 
L 321.758451 57.620282 
L 322.021513 57.349859 
L 322.547639 56.132958 
L 322.547639 56.268169 
L 322.810702 58.566761 
L 323.073764 58.701972 
L 323.336827 59.378028 
L 323.336827 59.378028 
L 323.59989 59.378028 
L 323.862953 59.107606 
L 324.126016 60.324507 
L 324.126016 60.189296 
L 324.389078 60.865352 
L 324.652141 60.189296 
L 324.915204 60.324507 
L 325.178267 60.59493 
L 325.178267 60.59493 
L 325.441329 60.054085 
L 325.967455 57.620282 
L 325.967455 57.620282 
L 326.230518 56.809014 
L 326.493581 56.944225 
L 326.756643 55.592113 
L 327.019706 55.862535 
L 327.808894 54.916056 
L 327.808894 53.969577 
L 328.071957 55.051268 
L 328.33502 55.32169 
L 328.598083 54.780845 
L 328.861146 54.510423 
L 328.861146 54.24 
L 329.124208 53.563944 
L 329.387271 52.347042 
L 329.650334 52.752676 
L 329.650334 51.400563 
L 329.913397 50.99493 
L 330.176459 51.400563 
L 330.439522 51.400563 
L 330.439522 50.724507 
L 330.702585 51.265352 
L 330.965648 51.400563 
L 331.228711 51.400563 
L 331.228711 50.318873 
L 331.491773 50.859718 
L 331.754836 50.859718 
L 332.017899 50.589296 
L 332.017899 51.400563 
L 332.280962 52.211831 
L 332.544025 52.211831 
L 332.807087 52.07662 
L 333.07015 52.347042 
L 333.07015 51.130141 
L 333.333213 51.806197 
L 333.596276 51.670986 
L 334.122401 50.859718 
L 334.91159 48.425915 
L 335.174652 48.696338 
L 335.437715 48.020282 
L 335.700778 48.290704 
L 335.700778 47.749859 
L 335.963841 48.020282 
L 336.226903 47.749859 
L 336.489966 48.290704 
L 337.016092 47.209014 
L 337.279155 47.344225 
L 337.542217 47.749859 
L 337.542217 47.344225 
L 337.80528 48.155493 
L 338.068343 48.020282 
L 338.331406 47.344225 
L 338.331406 47.344225 
L 338.594468 48.155493 
L 338.857531 48.020282 
L 339.383657 46.938592 
L 339.64672 45.451268 
L 339.909782 46.262535 
L 339.909782 44.910423 
L 340.172845 44.64 
L 340.435908 44.775211 
L 340.698971 45.180845 
L 340.962033 45.856901 
L 340.962033 46.397746 
L 341.751222 46.127324 
L 341.751222 47.614648 
L 342.277347 49.237183 
L 342.54041 48.696338 
L 342.54041 48.966761 
L 342.803473 48.561127 
L 343.592661 49.913239 
L 343.592661 50.454085 
L 343.855724 49.507606 
L 344.38185 48.966761 
L 344.38185 49.101972 
L 344.644912 48.966761 
L 345.171038 47.479437 
L 345.434101 47.479437 
L 345.434101 47.749859 
L 345.697164 46.532958 
L 345.960226 46.532958 
L 346.223289 46.668169 
L 346.486352 47.073803 
L 346.486352 48.155493 
L 346.749415 48.155493 
L 347.012477 47.749859 
L 347.538603 46.668169 
L 348.327791 47.344225 
L 349.11698 46.80338 
L 349.380042 46.127324 
L 349.643105 46.532958 
L 349.906168 45.992113 
L 350.169231 46.938592 
L 350.432294 47.209014 
L 350.695356 46.938592 
L 350.958419 47.209014 
L 351.221482 46.127324 
L 351.221482 46.668169 
L 351.484545 46.532958 
L 351.747607 46.938592 
L 352.01067 46.668169 
L 352.273733 47.209014 
L 352.536796 49.101972 
L 352.799859 49.101972 
L 353.062921 49.237183 
L 353.325984 49.642817 
L 353.589047 50.589296 
L 354.378235 51.806197 
L 354.641298 51.941408 
L 354.904361 52.347042 
L 355.167424 52.07662 
L 356.219675 53.15831 
L 356.482737 52.617465 
L 356.7458 52.752676 
L 357.008863 53.428732 
L 357.798051 53.023099 
L 358.061114 53.023099 
L 358.324177 51.941408 
L 358.58724 52.347042 
L 358.850303 52.211831 
L 358.850303 51.535775 
L 359.113365 52.211831 
L 359.376428 51.806197 
L 359.639491 51.670986 
L 359.902554 50.99493 
L 360.165616 51.806197 
L 360.165616 51.670986 
L 360.428679 50.589296 
L 360.691742 50.724507 
L 360.954805 50.99493 
L 361.217868 50.318873 
L 361.48093 50.318873 
L 361.743993 49.913239 
L 361.743993 49.237183 
L 362.007056 48.696338 
L 362.270119 47.88507 
L 362.533181 47.749859 
L 362.796244 48.831549 
L 363.059307 49.372394 
L 363.32237 49.237183 
L 363.32237 48.425915 
L 363.585433 47.344225 
L 364.111558 46.397746 
L 364.374621 45.856901 
L 364.374621 45.451268 
L 364.637684 45.451268 
L 365.426872 45.72169 
L 365.689935 44.775211 
L 365.952998 45.992113 
L 366.21606 46.127324 
L 366.21606 45.72169 
L 366.479123 46.397746 
L 366.742186 46.668169 
L 367.005249 46.397746 
L 367.268311 45.856901 
L 367.268311 46.532958 
L 367.531374 46.938592 
L 367.794437 47.614648 
L 368.0575 47.614648 
L 368.583625 48.020282 
L 369.109751 49.237183 
L 369.109751 48.831549 
L 369.635876 49.642817 
L 369.898939 49.507606 
L 370.162002 49.778028 
L 370.162002 50.724507 
L 371.214253 54.104789 
L 371.477316 54.104789 
L 372.003442 55.456901 
L 372.266504 55.186479 
L 372.266504 55.456901 
L 373.055693 53.834366 
L 373.581818 55.997746 
L 373.581818 54.645634 
L 373.581818 54.645634 
" clip-path="url(#p35656821f7)" style="fill: none; stroke: #1f77b4; stroke-width: 1.5; stroke-linecap: square"/>
   </g>
   <g id="line2d_36">
    <path d="M 127.355056 199.389296 
L 133.931626 191.27662 
L 140.771258 183.163944 
L 147.61089 174.645634 
L 154.450523 164.910423 
L 161.027092 158.014648 
L 167.866724 153.95831 
L 174.969419 149.090704 
L 182.335177 141.383662 
L 189.700935 137.530141 
L 197.066693 133.473803 
L 204.169388 128.200563 
L 211.535146 125.766761 
L 219.163966 121.710423 
L 226.792787 119.27662 
L 234.421608 118.059718 
L 241.787365 116.842817 
L 248.890061 119.479437 
L 256.255818 117.045634 
L 263.621576 118.262535 
L 270.987334 117.654085 
L 278.353092 115.017465 
L 285.455787 111.772394 
L 292.558482 109.541408 
L 299.661177 108.324507 
L 306.763872 109.338592 
L 313.866567 106.904789 
L 320.706199 103.254085 
L 327.545832 104.87662 
L 334.385464 102.037183 
L 341.488159 103.862535 
L 348.853917 105.687887 
L 357.534989 103.254085 
L 365.163809 101.631549 
L 372.79263 104.065352 
" clip-path="url(#p35656821f7)" style="fill: none; stroke: #ff7f0e; stroke-width: 1.5; stroke-linecap: square"/>
   </g>
   <g id="patch_3">
    <path d="M 54 256.32 
L 54 34.56 
" style="fill: none; stroke: #000000; stroke-width: 0.8; stroke-linejoin: miter; stroke-linecap: square"/>
   </g>
   <g id="patch_4">
    <path d="M 388.8 256.32 
L 388.8 34.56 
" style="fill: none; stroke: #000000; stroke-width: 0.8; stroke-linejoin: miter; stroke-linecap: square"/>
   </g>
   <g id="patch_5">
    <path d="M 54 256.32 
L 388.8 256.32 
" style="fill: none; stroke: #000000; stroke-width: 0.8; stroke-linejoin: miter; stroke-linecap: square"/>
   </g>
   <g id="patch_6">
    <path d="M 54 34.56 
L 388.8 34.56 
" style="fill: none; stroke: #000000; stroke-width: 0.8; stroke-linejoin: miter; stroke-linecap: square"/>
   </g>
   <g id="text_20">
    <!-- Percentage of slightly modified letters classified correctly -->
    <g transform="translate(49.1025 28.56)scale(0.12 -0.12)">
     <defs>
      <path id="DejaVuSans-50" d="M 1259 4147 
L 1259 2394 
L 2053 2394 
Q 2494 2394 2734 2622 
Q 2975 2850 2975 3272 
Q 2975 3691 2734 3919 
Q 2494 4147 2053 4147 
L 1259 4147 
z
M 628 4666 
L 2053 4666 
Q 2838 4666 3239 4311 
Q 3641 3956 3641 3272 
Q 3641 2581 3239 2228 
Q 2838 1875 2053 1875 
L 1259 1875 
L 1259 0 
L 628 0 
L 628 4666 
z
" transform="scale(0.015625)"/>
      <path id="DejaVuSans-72" d="M 2631 2963 
Q 2534 3019 2420 3045 
Q 2306 3072 2169 3072 
Q 1681 3072 1420 2755 
Q 1159 2438 1159 1844 
L 1159 0 
L 581 0 
L 581 3500 
L 1159 3500 
L 1159 2956 
Q 1341 3275 1631 3429 
Q 1922 3584 2338 3584 
Q 2397 3584 2469 3576 
Q 2541 3569 2628 3553 
L 2631 2963 
z
" transform="scale(0.015625)"/>
      <path id="DejaVuSans-63" d="M 3122 3366 
L 3122 2828 
Q 2878 2963 2633 3030 
Q 2388 3097 2138 3097 
Q 1578 3097 1268 2742 
Q 959 2388 959 1747 
Q 959 1106 1268 751 
Q 1578 397 2138 397 
Q 2388 397 2633 464 
Q 2878 531 3122 666 
L 3122 134 
Q 2881 22 2623 -34 
Q 2366 -91 2075 -91 
Q 1284 -91 818 406 
Q 353 903 353 1747 
Q 353 2603 823 3093 
Q 1294 3584 2113 3584 
Q 2378 3584 2631 3529 
Q 2884 3475 3122 3366 
z
" transform="scale(0.015625)"/>
      <path id="DejaVuSans-61" d="M 2194 1759 
Q 1497 1759 1228 1600 
Q 959 1441 959 1056 
Q 959 750 1161 570 
Q 1363 391 1709 391 
Q 2188 391 2477 730 
Q 2766 1069 2766 1631 
L 2766 1759 
L 2194 1759 
z
M 3341 1997 
L 3341 0 
L 2766 0 
L 2766 531 
Q 2569 213 2275 61 
Q 1981 -91 1556 -91 
Q 1019 -91 701 211 
Q 384 513 384 1019 
Q 384 1609 779 1909 
Q 1175 2209 1959 2209 
L 2766 2209 
L 2766 2266 
Q 2766 2663 2505 2880 
Q 2244 3097 1772 3097 
Q 1472 3097 1187 3025 
Q 903 2953 641 2809 
L 641 3341 
Q 956 3463 1253 3523 
Q 1550 3584 1831 3584 
Q 2591 3584 2966 3190 
Q 3341 2797 3341 1997 
z
" transform="scale(0.015625)"/>
      <path id="DejaVuSans-67" d="M 2906 1791 
Q 2906 2416 2648 2759 
Q 2391 3103 1925 3103 
Q 1463 3103 1205 2759 
Q 947 2416 947 1791 
Q 947 1169 1205 825 
Q 1463 481 1925 481 
Q 2391 481 2648 825 
Q 2906 1169 2906 1791 
z
M 3481 434 
Q 3481 -459 3084 -895 
Q 2688 -1331 1869 -1331 
Q 1566 -1331 1297 -1286 
Q 1028 -1241 775 -1147 
L 775 -588 
Q 1028 -725 1275 -790 
Q 1522 -856 1778 -856 
Q 2344 -856 2625 -561 
Q 2906 -266 2906 331 
L 2906 616 
Q 2728 306 2450 153 
Q 2172 0 1784 0 
Q 1141 0 747 490 
Q 353 981 353 1791 
Q 353 2603 747 3093 
Q 1141 3584 1784 3584 
Q 2172 3584 2450 3431 
Q 2728 3278 2906 2969 
L 2906 3500 
L 3481 3500 
L 3481 434 
z
" transform="scale(0.015625)"/>
      <path id="DejaVuSans-20" transform="scale(0.015625)"/>
      <path id="DejaVuSans-6f" d="M 1959 3097 
Q 1497 3097 1228 2736 
Q 959 2375 959 1747 
Q 959 1119 1226 758 
Q 1494 397 1959 397 
Q 2419 397 2687 759 
Q 2956 1122 2956 1747 
Q 2956 2369 2687 2733 
Q 2419 3097 1959 3097 
z
M 1959 3584 
Q 2709 3584 3137 3096 
Q 3566 2609 3566 1747 
Q 3566 888 3137 398 
Q 2709 -91 1959 -91 
Q 1206 -91 779 398 
Q 353 888 353 1747 
Q 353 2609 779 3096 
Q 1206 3584 1959 3584 
z
" transform="scale(0.015625)"/>
      <path id="DejaVuSans-66" d="M 2375 4863 
L 2375 4384 
L 1825 4384 
Q 1516 4384 1395 4259 
Q 1275 4134 1275 3809 
L 1275 3500 
L 2222 3500 
L 2222 3053 
L 1275 3053 
L 1275 0 
L 697 0 
L 697 3053 
L 147 3053 
L 147 3500 
L 697 3500 
L 697 3744 
Q 697 4328 969 4595 
Q 1241 4863 1831 4863 
L 2375 4863 
z
" transform="scale(0.015625)"/>
      <path id="DejaVuSans-6c" d="M 603 4863 
L 1178 4863 
L 1178 0 
L 603 0 
L 603 4863 
z
" transform="scale(0.015625)"/>
      <path id="DejaVuSans-68" d="M 3513 2113 
L 3513 0 
L 2938 0 
L 2938 2094 
Q 2938 2591 2744 2837 
Q 2550 3084 2163 3084 
Q 1697 3084 1428 2787 
Q 1159 2491 1159 1978 
L 1159 0 
L 581 0 
L 581 4863 
L 1159 4863 
L 1159 2956 
Q 1366 3272 1645 3428 
Q 1925 3584 2291 3584 
Q 2894 3584 3203 3211 
Q 3513 2838 3513 2113 
z
" transform="scale(0.015625)"/>
      <path id="DejaVuSans-79" d="M 2059 -325 
Q 1816 -950 1584 -1140 
Q 1353 -1331 966 -1331 
L 506 -1331 
L 506 -850 
L 844 -850 
Q 1081 -850 1212 -737 
Q 1344 -625 1503 -206 
L 1606 56 
L 191 3500 
L 800 3500 
L 1894 763 
L 2988 3500 
L 3597 3500 
L 2059 -325 
z
" transform="scale(0.015625)"/>
      <path id="DejaVuSans-6d" d="M 3328 2828 
Q 3544 3216 3844 3400 
Q 4144 3584 4550 3584 
Q 5097 3584 5394 3201 
Q 5691 2819 5691 2113 
L 5691 0 
L 5113 0 
L 5113 2094 
Q 5113 2597 4934 2840 
Q 4756 3084 4391 3084 
Q 3944 3084 3684 2787 
Q 3425 2491 3425 1978 
L 3425 0 
L 2847 0 
L 2847 2094 
Q 2847 2600 2669 2842 
Q 2491 3084 2119 3084 
Q 1678 3084 1418 2786 
Q 1159 2488 1159 1978 
L 1159 0 
L 581 0 
L 581 3500 
L 1159 3500 
L 1159 2956 
Q 1356 3278 1631 3431 
Q 1906 3584 2284 3584 
Q 2666 3584 2933 3390 
Q 3200 3197 3328 2828 
z
" transform="scale(0.015625)"/>
      <path id="DejaVuSans-64" d="M 2906 2969 
L 2906 4863 
L 3481 4863 
L 3481 0 
L 2906 0 
L 2906 525 
Q 2725 213 2448 61 
Q 2172 -91 1784 -91 
Q 1150 -91 751 415 
Q 353 922 353 1747 
Q 353 2572 751 3078 
Q 1150 3584 1784 3584 
Q 2172 3584 2448 3432 
Q 2725 3281 2906 2969 
z
M 947 1747 
Q 947 1113 1208 752 
Q 1469 391 1925 391 
Q 2381 391 2643 752 
Q 2906 1113 2906 1747 
Q 2906 2381 2643 2742 
Q 2381 3103 1925 3103 
Q 1469 3103 1208 2742 
Q 947 2381 947 1747 
z
" transform="scale(0.015625)"/>
     </defs>
     <use xlink:href="#DejaVuSans-50"/>
     <use xlink:href="#DejaVuSans-65" x="56.677734"/>
     <use xlink:href="#DejaVuSans-72" x="118.201172"/>
     <use xlink:href="#DejaVuSans-63" x="157.064453"/>
     <use xlink:href="#DejaVuSans-65" x="212.044922"/>
     <use xlink:href="#DejaVuSans-6e" x="273.568359"/>
     <use xlink:href="#DejaVuSans-74" x="336.947266"/>
     <use xlink:href="#DejaVuSans-61" x="376.15625"/>
     <use xlink:href="#DejaVuSans-67" x="437.435547"/>
     <use xlink:href="#DejaVuSans-65" x="500.912109"/>
     <use xlink:href="#DejaVuSans-20" x="562.435547"/>
     <use xlink:href="#DejaVuSans-6f" x="594.222656"/>
     <use xlink:href="#DejaVuSans-66" x="655.404297"/>
     <use xlink:href="#DejaVuSans-20" x="690.609375"/>
     <use xlink:href="#DejaVuSans-73" x="722.396484"/>
     <use xlink:href="#DejaVuSans-6c" x="774.496094"/>
     <use xlink:href="#DejaVuSans-69" x="802.279297"/>
     <use xlink:href="#DejaVuSans-67" x="830.0625"/>
     <use xlink:href="#DejaVuSans-68" x="893.539062"/>
     <use xlink:href="#DejaVuSans-74" x="956.917969"/>
     <use xlink:href="#DejaVuSans-6c" x="996.126953"/>
     <use xlink:href="#DejaVuSans-79" x="1023.910156"/>
     <use xlink:href="#DejaVuSans-20" x="1083.089844"/>
     <use xlink:href="#DejaVuSans-6d" x="1114.876953"/>
     <use xlink:href="#DejaVuSans-6f" x="1212.289062"/>
     <use xlink:href="#DejaVuSans-64" x="1273.470703"/>
     <use xlink:href="#DejaVuSans-69" x="1336.947266"/>
     <use xlink:href="#DejaVuSans-66" x="1364.730469"/>
     <use xlink:href="#DejaVuSans-69" x="1399.935547"/>
     <use xlink:href="#DejaVuSans-65" x="1427.71875"/>
     <use xlink:href="#DejaVuSans-64" x="1489.242188"/>
     <use xlink:href="#DejaVuSans-20" x="1552.71875"/>
     <use xlink:href="#DejaVuSans-6c" x="1584.505859"/>
     <use xlink:href="#DejaVuSans-65" x="1612.289062"/>
     <use xlink:href="#DejaVuSans-74" x="1673.8125"/>
     <use xlink:href="#DejaVuSans-74" x="1713.021484"/>
     <use xlink:href="#DejaVuSans-65" x="1752.230469"/>
     <use xlink:href="#DejaVuSans-72" x="1813.753906"/>
     <use xlink:href="#DejaVuSans-73" x="1854.867188"/>
     <use xlink:href="#DejaVuSans-20" x="1906.966797"/>
     <use xlink:href="#DejaVuSans-63" x="1938.753906"/>
     <use xlink:href="#DejaVuSans-6c" x="1993.734375"/>
     <use xlink:href="#DejaVuSans-61" x="2021.517578"/>
     <use xlink:href="#DejaVuSans-73" x="2082.796875"/>
     <use xlink:href="#DejaVuSans-73" x="2134.896484"/>
     <use xlink:href="#DejaVuSans-69" x="2186.996094"/>
     <use xlink:href="#DejaVuSans-66" x="2214.779297"/>
     <use xlink:href="#DejaVuSans-69" x="2249.984375"/>
     <use xlink:href="#DejaVuSans-65" x="2277.767578"/>
     <use xlink:href="#DejaVuSans-64" x="2339.291016"/>
     <use xlink:href="#DejaVuSans-20" x="2402.767578"/>
     <use xlink:href="#DejaVuSans-63" x="2434.554688"/>
     <use xlink:href="#DejaVuSans-6f" x="2489.535156"/>
     <use xlink:href="#DejaVuSans-72" x="2550.716797"/>
     <use xlink:href="#DejaVuSans-72" x="2590.080078"/>
     <use xlink:href="#DejaVuSans-65" x="2628.943359"/>
     <use xlink:href="#DejaVuSans-63" x="2690.466797"/>
     <use xlink:href="#DejaVuSans-74" x="2745.447266"/>
     <use xlink:href="#DejaVuSans-6c" x="2784.65625"/>
     <use xlink:href="#DejaVuSans-79" x="2812.439453"/>
    </g>
   </g>
   <g id="legend_1">
    <g id="patch_7">
     <path d="M 61 71.91625 
L 142.234375 71.91625 
Q 144.234375 71.91625 144.234375 69.91625 
L 144.234375 41.56 
Q 144.234375 39.56 142.234375 39.56 
L 61 39.56 
Q 59 39.56 59 41.56 
L 59 69.91625 
Q 59 71.91625 61 71.91625 
z
" style="fill: #ffffff; opacity: 0.8; stroke: #cccccc; stroke-linejoin: miter"/>
    </g>
    <g id="line2d_37">
     <path d="M 63 47.658437 
L 73 47.658437 
L 83 47.658437 
" style="fill: none; stroke: #1f77b4; stroke-width: 1.5; stroke-linecap: square"/>
    </g>
    <g id="text_21">
     <!-- training -->
     <g transform="translate(91 51.158437)scale(0.1 -0.1)">
      <use xlink:href="#DejaVuSans-74"/>
      <use xlink:href="#DejaVuSans-72" x="39.208984"/>
      <use xlink:href="#DejaVuSans-61" x="80.322266"/>
      <use xlink:href="#DejaVuSans-69" x="141.601562"/>
      <use xlink:href="#DejaVuSans-6e" x="169.384766"/>
      <use xlink:href="#DejaVuSans-69" x="232.763672"/>
      <use xlink:href="#DejaVuSans-6e" x="260.546875"/>
      <use xlink:href="#DejaVuSans-67" x="323.925781"/>
     </g>
    </g>
    <g id="line2d_38">
     <path d="M 63 62.336562 
L 73 62.336562 
L 83 62.336562 
" style="fill: none; stroke: #ff7f0e; stroke-width: 1.5; stroke-linecap: square"/>
    </g>
    <g id="text_22">
     <!-- validation -->
     <g transform="translate(91 65.836562)scale(0.1 -0.1)">
      <defs>
       <path id="DejaVuSans-76" d="M 191 3500 
L 800 3500 
L 1894 563 
L 2988 3500 
L 3597 3500 
L 2284 0 
L 1503 0 
L 191 3500 
z
" transform="scale(0.015625)"/>
      </defs>
      <use xlink:href="#DejaVuSans-76"/>
      <use xlink:href="#DejaVuSans-61" x="59.179688"/>
      <use xlink:href="#DejaVuSans-6c" x="120.458984"/>
      <use xlink:href="#DejaVuSans-69" x="148.242188"/>
      <use xlink:href="#DejaVuSans-64" x="176.025391"/>
      <use xlink:href="#DejaVuSans-61" x="239.501953"/>
      <use xlink:href="#DejaVuSans-74" x="300.78125"/>
      <use xlink:href="#DejaVuSans-69" x="339.990234"/>
      <use xlink:href="#DejaVuSans-6f" x="367.773438"/>
      <use xlink:href="#DejaVuSans-6e" x="428.955078"/>
     </g>
    </g>
   </g>
  </g>
 </g>
 <defs>
  <clipPath id="p35656821f7">
   <rect x="54" y="34.56" width="334.8" height="221.76"/>
  </clipPath>
 </defs>
</svg>
