<?xml version="1.0" encoding="utf-8" standalone="no"?>
<!DOCTYPE svg PUBLIC "-//W3C//DTD SVG 1.1//EN"
  "http://www.w3.org/Graphics/SVG/1.1/DTD/svg11.dtd">
<svg xmlns:xlink="http://www.w3.org/1999/xlink" width="432pt" height="288pt" viewBox="0 0 432 288" xmlns="http://www.w3.org/2000/svg" version="1.1">
 <metadata>
  <rdf:RDF xmlns:dc="http://purl.org/dc/elements/1.1/" xmlns:cc="http://creativecommons.org/ns#" xmlns:rdf="http://www.w3.org/1999/02/22-rdf-syntax-ns#">
   <cc:Work>
    <dc:type rdf:resource="http://purl.org/dc/dcmitype/StillImage"/>
    <dc:date>2023-03-21T22:03:46.997681</dc:date>
    <dc:format>image/svg+xml</dc:format>
    <dc:creator>
     <cc:Agent>
      <dc:title>Matplotlib v3.5.1, https://matplotlib.org/</dc:title>
     </cc:Agent>
    </dc:creator>
   </cc:Work>
  </rdf:RDF>
 </metadata>
 <defs>
  <style type="text/css">*{stroke-linejoin: round; stroke-linecap: butt}</style>
 </defs>
 <g id="figure_1">
  <g id="patch_1">
   <path d="M 0 288 
L 432 288 
L 432 0 
L 0 0 
z
" style="fill: #ffffff"/>
  </g>
  <g id="axes_1">
   <g id="patch_2">
    <path d="M 54 256.32 
L 388.8 256.32 
L 388.8 34.56 
L 54 34.56 
z
" style="fill: #ffffff"/>
   </g>
   <g id="matplotlib.axis_1">
    <g id="xtick_1">
     <g id="line2d_1">
      <path d="M 67.641622 256.32 
L 67.641622 34.56 
" clip-path="url(#p2c867c866b)" style="fill: none; stroke: #b0b0b0; stroke-width: 0.8; stroke-linecap: square"/>
     </g>
     <g id="line2d_2">
      <defs>
       <path id="mce35fdf907" d="M 0 0 
L 0 3.5 
" style="stroke: #000000; stroke-width: 0.8"/>
      </defs>
      <g>
       <use xlink:href="#mce35fdf907" x="67.641622" y="256.32" style="stroke: #000000; stroke-width: 0.8"/>
      </g>
     </g>
     <g id="text_1">
      <!-- 0 -->
      <g transform="translate(64.460372 270.918437)scale(0.1 -0.1)">
       <defs>
        <path id="DejaVuSans-30" d="M 2034 4250 
Q 1547 4250 1301 3770 
Q 1056 3291 1056 2328 
Q 1056 1369 1301 889 
Q 1547 409 2034 409 
Q 2525 409 2770 889 
Q 3016 1369 3016 2328 
Q 3016 3291 2770 3770 
Q 2525 4250 2034 4250 
z
M 2034 4750 
Q 2819 4750 3233 4129 
Q 3647 3509 3647 2328 
Q 3647 1150 3233 529 
Q 2819 -91 2034 -91 
Q 1250 -91 836 529 
Q 422 1150 422 2328 
Q 422 3509 836 4129 
Q 1250 4750 2034 4750 
z
" transform="scale(0.015625)"/>
       </defs>
       <use xlink:href="#DejaVuSans-30"/>
      </g>
     </g>
    </g>
    <g id="xtick_2">
     <g id="line2d_3">
      <path d="M 120.193617 256.32 
L 120.193617 34.56 
" clip-path="url(#p2c867c866b)" style="fill: none; stroke: #b0b0b0; stroke-width: 0.8; stroke-linecap: square"/>
     </g>
     <g id="line2d_4">
      <g>
       <use xlink:href="#mce35fdf907" x="120.193617" y="256.32" style="stroke: #000000; stroke-width: 0.8"/>
      </g>
     </g>
     <g id="text_2">
      <!-- 10 -->
      <g transform="translate(113.831117 270.918437)scale(0.1 -0.1)">
       <defs>
        <path id="DejaVuSans-31" d="M 794 531 
L 1825 531 
L 1825 4091 
L 703 3866 
L 703 4441 
L 1819 4666 
L 2450 4666 
L 2450 531 
L 3481 531 
L 3481 0 
L 794 0 
L 794 531 
z
" transform="scale(0.015625)"/>
       </defs>
       <use xlink:href="#DejaVuSans-31"/>
       <use xlink:href="#DejaVuSans-30" x="63.623047"/>
      </g>
     </g>
    </g>
    <g id="xtick_3">
     <g id="line2d_5">
      <path d="M 172.745612 256.32 
L 172.745612 34.56 
" clip-path="url(#p2c867c866b)" style="fill: none; stroke: #b0b0b0; stroke-width: 0.8; stroke-linecap: square"/>
     </g>
     <g id="line2d_6">
      <g>
       <use xlink:href="#mce35fdf907" x="172.745612" y="256.32" style="stroke: #000000; stroke-width: 0.8"/>
      </g>
     </g>
     <g id="text_3">
      <!-- 20 -->
      <g transform="translate(166.383112 270.918437)scale(0.1 -0.1)">
       <defs>
        <path id="DejaVuSans-32" d="M 1228 531 
L 3431 531 
L 3431 0 
L 469 0 
L 469 531 
Q 828 903 1448 1529 
Q 2069 2156 2228 2338 
Q 2531 2678 2651 2914 
Q 2772 3150 2772 3378 
Q 2772 3750 2511 3984 
Q 2250 4219 1831 4219 
Q 1534 4219 1204 4116 
Q 875 4013 500 3803 
L 500 4441 
Q 881 4594 1212 4672 
Q 1544 4750 1819 4750 
Q 2544 4750 2975 4387 
Q 3406 4025 3406 3419 
Q 3406 3131 3298 2873 
Q 3191 2616 2906 2266 
Q 2828 2175 2409 1742 
Q 1991 1309 1228 531 
z
" transform="scale(0.015625)"/>
       </defs>
       <use xlink:href="#DejaVuSans-32"/>
       <use xlink:href="#DejaVuSans-30" x="63.623047"/>
      </g>
     </g>
    </g>
    <g id="xtick_4">
     <g id="line2d_7">
      <path d="M 225.297606 256.32 
L 225.297606 34.56 
" clip-path="url(#p2c867c866b)" style="fill: none; stroke: #b0b0b0; stroke-width: 0.8; stroke-linecap: square"/>
     </g>
     <g id="line2d_8">
      <g>
       <use xlink:href="#mce35fdf907" x="225.297606" y="256.32" style="stroke: #000000; stroke-width: 0.8"/>
      </g>
     </g>
     <g id="text_4">
      <!-- 30 -->
      <g transform="translate(218.935106 270.918437)scale(0.1 -0.1)">
       <defs>
        <path id="DejaVuSans-33" d="M 2597 2516 
Q 3050 2419 3304 2112 
Q 3559 1806 3559 1356 
Q 3559 666 3084 287 
Q 2609 -91 1734 -91 
Q 1441 -91 1130 -33 
Q 819 25 488 141 
L 488 750 
Q 750 597 1062 519 
Q 1375 441 1716 441 
Q 2309 441 2620 675 
Q 2931 909 2931 1356 
Q 2931 1769 2642 2001 
Q 2353 2234 1838 2234 
L 1294 2234 
L 1294 2753 
L 1863 2753 
Q 2328 2753 2575 2939 
Q 2822 3125 2822 3475 
Q 2822 3834 2567 4026 
Q 2313 4219 1838 4219 
Q 1578 4219 1281 4162 
Q 984 4106 628 3988 
L 628 4550 
Q 988 4650 1302 4700 
Q 1616 4750 1894 4750 
Q 2613 4750 3031 4423 
Q 3450 4097 3450 3541 
Q 3450 3153 3228 2886 
Q 3006 2619 2597 2516 
z
" transform="scale(0.015625)"/>
       </defs>
       <use xlink:href="#DejaVuSans-33"/>
       <use xlink:href="#DejaVuSans-30" x="63.623047"/>
      </g>
     </g>
    </g>
    <g id="xtick_5">
     <g id="line2d_9">
      <path d="M 277.849601 256.32 
L 277.849601 34.56 
" clip-path="url(#p2c867c866b)" style="fill: none; stroke: #b0b0b0; stroke-width: 0.8; stroke-linecap: square"/>
     </g>
     <g id="line2d_10">
      <g>
       <use xlink:href="#mce35fdf907" x="277.849601" y="256.32" style="stroke: #000000; stroke-width: 0.8"/>
      </g>
     </g>
     <g id="text_5">
      <!-- 40 -->
      <g transform="translate(271.487101 270.918437)scale(0.1 -0.1)">
       <defs>
        <path id="DejaVuSans-34" d="M 2419 4116 
L 825 1625 
L 2419 1625 
L 2419 4116 
z
M 2253 4666 
L 3047 4666 
L 3047 1625 
L 3713 1625 
L 3713 1100 
L 3047 1100 
L 3047 0 
L 2419 0 
L 2419 1100 
L 313 1100 
L 313 1709 
L 2253 4666 
z
" transform="scale(0.015625)"/>
       </defs>
       <use xlink:href="#DejaVuSans-34"/>
       <use xlink:href="#DejaVuSans-30" x="63.623047"/>
      </g>
     </g>
    </g>
    <g id="xtick_6">
     <g id="line2d_11">
      <path d="M 330.401596 256.32 
L 330.401596 34.56 
" clip-path="url(#p2c867c866b)" style="fill: none; stroke: #b0b0b0; stroke-width: 0.8; stroke-linecap: square"/>
     </g>
     <g id="line2d_12">
      <g>
       <use xlink:href="#mce35fdf907" x="330.401596" y="256.32" style="stroke: #000000; stroke-width: 0.8"/>
      </g>
     </g>
     <g id="text_6">
      <!-- 50 -->
      <g transform="translate(324.039096 270.918437)scale(0.1 -0.1)">
       <defs>
        <path id="DejaVuSans-35" d="M 691 4666 
L 3169 4666 
L 3169 4134 
L 1269 4134 
L 1269 2991 
Q 1406 3038 1543 3061 
Q 1681 3084 1819 3084 
Q 2600 3084 3056 2656 
Q 3513 2228 3513 1497 
Q 3513 744 3044 326 
Q 2575 -91 1722 -91 
Q 1428 -91 1123 -41 
Q 819 9 494 109 
L 494 744 
Q 775 591 1075 516 
Q 1375 441 1709 441 
Q 2250 441 2565 725 
Q 2881 1009 2881 1497 
Q 2881 1984 2565 2268 
Q 2250 2553 1709 2553 
Q 1456 2553 1204 2497 
Q 953 2441 691 2322 
L 691 4666 
z
" transform="scale(0.015625)"/>
       </defs>
       <use xlink:href="#DejaVuSans-35"/>
       <use xlink:href="#DejaVuSans-30" x="63.623047"/>
      </g>
     </g>
    </g>
    <g id="xtick_7">
     <g id="line2d_13">
      <path d="M 382.953591 256.32 
L 382.953591 34.56 
" clip-path="url(#p2c867c866b)" style="fill: none; stroke: #b0b0b0; stroke-width: 0.8; stroke-linecap: square"/>
     </g>
     <g id="line2d_14">
      <g>
       <use xlink:href="#mce35fdf907" x="382.953591" y="256.32" style="stroke: #000000; stroke-width: 0.8"/>
      </g>
     </g>
     <g id="text_7">
      <!-- 60 -->
      <g transform="translate(376.591091 270.918437)scale(0.1 -0.1)">
       <defs>
        <path id="DejaVuSans-36" d="M 2113 2584 
Q 1688 2584 1439 2293 
Q 1191 2003 1191 1497 
Q 1191 994 1439 701 
Q 1688 409 2113 409 
Q 2538 409 2786 701 
Q 3034 994 3034 1497 
Q 3034 2003 2786 2293 
Q 2538 2584 2113 2584 
z
M 3366 4563 
L 3366 3988 
Q 3128 4100 2886 4159 
Q 2644 4219 2406 4219 
Q 1781 4219 1451 3797 
Q 1122 3375 1075 2522 
Q 1259 2794 1537 2939 
Q 1816 3084 2150 3084 
Q 2853 3084 3261 2657 
Q 3669 2231 3669 1497 
Q 3669 778 3244 343 
Q 2819 -91 2113 -91 
Q 1303 -91 875 529 
Q 447 1150 447 2328 
Q 447 3434 972 4092 
Q 1497 4750 2381 4750 
Q 2619 4750 2861 4703 
Q 3103 4656 3366 4563 
z
" transform="scale(0.015625)"/>
       </defs>
       <use xlink:href="#DejaVuSans-36"/>
       <use xlink:href="#DejaVuSans-30" x="63.623047"/>
      </g>
     </g>
    </g>
    <g id="text_8">
     <!-- Minutes -->
     <g transform="translate(201.717969 284.596563)scale(0.1 -0.1)">
      <defs>
       <path id="DejaVuSans-4d" d="M 628 4666 
L 1569 4666 
L 2759 1491 
L 3956 4666 
L 4897 4666 
L 4897 0 
L 4281 0 
L 4281 4097 
L 3078 897 
L 2444 897 
L 1241 4097 
L 1241 0 
L 628 0 
L 628 4666 
z
" transform="scale(0.015625)"/>
       <path id="DejaVuSans-69" d="M 603 3500 
L 1178 3500 
L 1178 0 
L 603 0 
L 603 3500 
z
M 603 4863 
L 1178 4863 
L 1178 4134 
L 603 4134 
L 603 4863 
z
" transform="scale(0.015625)"/>
       <path id="DejaVuSans-6e" d="M 3513 2113 
L 3513 0 
L 2938 0 
L 2938 2094 
Q 2938 2591 2744 2837 
Q 2550 3084 2163 3084 
Q 1697 3084 1428 2787 
Q 1159 2491 1159 1978 
L 1159 0 
L 581 0 
L 581 3500 
L 1159 3500 
L 1159 2956 
Q 1366 3272 1645 3428 
Q 1925 3584 2291 3584 
Q 2894 3584 3203 3211 
Q 3513 2838 3513 2113 
z
" transform="scale(0.015625)"/>
       <path id="DejaVuSans-75" d="M 544 1381 
L 544 3500 
L 1119 3500 
L 1119 1403 
Q 1119 906 1312 657 
Q 1506 409 1894 409 
Q 2359 409 2629 706 
Q 2900 1003 2900 1516 
L 2900 3500 
L 3475 3500 
L 3475 0 
L 2900 0 
L 2900 538 
Q 2691 219 2414 64 
Q 2138 -91 1772 -91 
Q 1169 -91 856 284 
Q 544 659 544 1381 
z
M 1991 3584 
L 1991 3584 
z
" transform="scale(0.015625)"/>
       <path id="DejaVuSans-74" d="M 1172 4494 
L 1172 3500 
L 2356 3500 
L 2356 3053 
L 1172 3053 
L 1172 1153 
Q 1172 725 1289 603 
Q 1406 481 1766 481 
L 2356 481 
L 2356 0 
L 1766 0 
Q 1100 0 847 248 
Q 594 497 594 1153 
L 594 3053 
L 172 3053 
L 172 3500 
L 594 3500 
L 594 4494 
L 1172 4494 
z
" transform="scale(0.015625)"/>
       <path id="DejaVuSans-65" d="M 3597 1894 
L 3597 1613 
L 953 1613 
Q 991 1019 1311 708 
Q 1631 397 2203 397 
Q 2534 397 2845 478 
Q 3156 559 3463 722 
L 3463 178 
Q 3153 47 2828 -22 
Q 2503 -91 2169 -91 
Q 1331 -91 842 396 
Q 353 884 353 1716 
Q 353 2575 817 3079 
Q 1281 3584 2069 3584 
Q 2775 3584 3186 3129 
Q 3597 2675 3597 1894 
z
M 3022 2063 
Q 3016 2534 2758 2815 
Q 2500 3097 2075 3097 
Q 1594 3097 1305 2825 
Q 1016 2553 972 2059 
L 3022 2063 
z
" transform="scale(0.015625)"/>
       <path id="DejaVuSans-73" d="M 2834 3397 
L 2834 2853 
Q 2591 2978 2328 3040 
Q 2066 3103 1784 3103 
Q 1356 3103 1142 2972 
Q 928 2841 928 2578 
Q 928 2378 1081 2264 
Q 1234 2150 1697 2047 
L 1894 2003 
Q 2506 1872 2764 1633 
Q 3022 1394 3022 966 
Q 3022 478 2636 193 
Q 2250 -91 1575 -91 
Q 1294 -91 989 -36 
Q 684 19 347 128 
L 347 722 
Q 666 556 975 473 
Q 1284 391 1588 391 
Q 1994 391 2212 530 
Q 2431 669 2431 922 
Q 2431 1156 2273 1281 
Q 2116 1406 1581 1522 
L 1381 1569 
Q 847 1681 609 1914 
Q 372 2147 372 2553 
Q 372 3047 722 3315 
Q 1072 3584 1716 3584 
Q 2034 3584 2315 3537 
Q 2597 3491 2834 3397 
z
" transform="scale(0.015625)"/>
      </defs>
      <use xlink:href="#DejaVuSans-4d"/>
      <use xlink:href="#DejaVuSans-69" x="86.279297"/>
      <use xlink:href="#DejaVuSans-6e" x="114.0625"/>
      <use xlink:href="#DejaVuSans-75" x="177.441406"/>
      <use xlink:href="#DejaVuSans-74" x="240.820312"/>
      <use xlink:href="#DejaVuSans-65" x="280.029297"/>
      <use xlink:href="#DejaVuSans-73" x="341.552734"/>
     </g>
    </g>
   </g>
   <g id="matplotlib.axis_2">
    <g id="ytick_1">
     <g id="line2d_15">
      <path d="M 54 253.988223 
L 388.8 253.988223 
" clip-path="url(#p2c867c866b)" style="fill: none; stroke: #b0b0b0; stroke-width: 0.8; stroke-linecap: square"/>
     </g>
     <g id="line2d_16">
      <defs>
       <path id="m3fdc51180a" d="M 0 0 
L -3.5 0 
" style="stroke: #000000; stroke-width: 0.8"/>
      </defs>
      <g>
       <use xlink:href="#m3fdc51180a" x="54" y="253.988223" style="stroke: #000000; stroke-width: 0.8"/>
      </g>
     </g>
     <g id="text_9">
      <!-- 0 -->
      <g transform="translate(40.6375 257.787442)scale(0.1 -0.1)">
       <use xlink:href="#DejaVuSans-30"/>
      </g>
     </g>
    </g>
    <g id="ytick_2">
     <g id="line2d_17">
      <path d="M 54 225.919188 
L 388.8 225.919188 
" clip-path="url(#p2c867c866b)" style="fill: none; stroke: #b0b0b0; stroke-width: 0.8; stroke-linecap: square"/>
     </g>
     <g id="line2d_18">
      <g>
       <use xlink:href="#m3fdc51180a" x="54" y="225.919188" style="stroke: #000000; stroke-width: 0.8"/>
      </g>
     </g>
     <g id="text_10">
      <!-- 10 -->
      <g transform="translate(34.275 229.718407)scale(0.1 -0.1)">
       <use xlink:href="#DejaVuSans-31"/>
       <use xlink:href="#DejaVuSans-30" x="63.623047"/>
      </g>
     </g>
    </g>
    <g id="ytick_3">
     <g id="line2d_19">
      <path d="M 54 197.850152 
L 388.8 197.850152 
" clip-path="url(#p2c867c866b)" style="fill: none; stroke: #b0b0b0; stroke-width: 0.8; stroke-linecap: square"/>
     </g>
     <g id="line2d_20">
      <g>
       <use xlink:href="#m3fdc51180a" x="54" y="197.850152" style="stroke: #000000; stroke-width: 0.8"/>
      </g>
     </g>
     <g id="text_11">
      <!-- 20 -->
      <g transform="translate(34.275 201.649371)scale(0.1 -0.1)">
       <use xlink:href="#DejaVuSans-32"/>
       <use xlink:href="#DejaVuSans-30" x="63.623047"/>
      </g>
     </g>
    </g>
    <g id="ytick_4">
     <g id="line2d_21">
      <path d="M 54 169.781117 
L 388.8 169.781117 
" clip-path="url(#p2c867c866b)" style="fill: none; stroke: #b0b0b0; stroke-width: 0.8; stroke-linecap: square"/>
     </g>
     <g id="line2d_22">
      <g>
       <use xlink:href="#m3fdc51180a" x="54" y="169.781117" style="stroke: #000000; stroke-width: 0.8"/>
      </g>
     </g>
     <g id="text_12">
      <!-- 30 -->
      <g transform="translate(34.275 173.580336)scale(0.1 -0.1)">
       <use xlink:href="#DejaVuSans-33"/>
       <use xlink:href="#DejaVuSans-30" x="63.623047"/>
      </g>
     </g>
    </g>
    <g id="ytick_5">
     <g id="line2d_23">
      <path d="M 54 141.712081 
L 388.8 141.712081 
" clip-path="url(#p2c867c866b)" style="fill: none; stroke: #b0b0b0; stroke-width: 0.8; stroke-linecap: square"/>
     </g>
     <g id="line2d_24">
      <g>
       <use xlink:href="#m3fdc51180a" x="54" y="141.712081" style="stroke: #000000; stroke-width: 0.8"/>
      </g>
     </g>
     <g id="text_13">
      <!-- 40 -->
      <g transform="translate(34.275 145.5113)scale(0.1 -0.1)">
       <use xlink:href="#DejaVuSans-34"/>
       <use xlink:href="#DejaVuSans-30" x="63.623047"/>
      </g>
     </g>
    </g>
    <g id="ytick_6">
     <g id="line2d_25">
      <path d="M 54 113.643046 
L 388.8 113.643046 
" clip-path="url(#p2c867c866b)" style="fill: none; stroke: #b0b0b0; stroke-width: 0.8; stroke-linecap: square"/>
     </g>
     <g id="line2d_26">
      <g>
       <use xlink:href="#m3fdc51180a" x="54" y="113.643046" style="stroke: #000000; stroke-width: 0.8"/>
      </g>
     </g>
     <g id="text_14">
      <!-- 50 -->
      <g transform="translate(34.275 117.442264)scale(0.1 -0.1)">
       <use xlink:href="#DejaVuSans-35"/>
       <use xlink:href="#DejaVuSans-30" x="63.623047"/>
      </g>
     </g>
    </g>
    <g id="ytick_7">
     <g id="line2d_27">
      <path d="M 54 85.57401 
L 388.8 85.57401 
" clip-path="url(#p2c867c866b)" style="fill: none; stroke: #b0b0b0; stroke-width: 0.8; stroke-linecap: square"/>
     </g>
     <g id="line2d_28">
      <g>
       <use xlink:href="#m3fdc51180a" x="54" y="85.57401" style="stroke: #000000; stroke-width: 0.8"/>
      </g>
     </g>
     <g id="text_15">
      <!-- 60 -->
      <g transform="translate(34.275 89.373229)scale(0.1 -0.1)">
       <use xlink:href="#DejaVuSans-36"/>
       <use xlink:href="#DejaVuSans-30" x="63.623047"/>
      </g>
     </g>
    </g>
    <g id="ytick_8">
     <g id="line2d_29">
      <path d="M 54 57.504975 
L 388.8 57.504975 
" clip-path="url(#p2c867c866b)" style="fill: none; stroke: #b0b0b0; stroke-width: 0.8; stroke-linecap: square"/>
     </g>
     <g id="line2d_30">
      <g>
       <use xlink:href="#m3fdc51180a" x="54" y="57.504975" style="stroke: #000000; stroke-width: 0.8"/>
      </g>
     </g>
     <g id="text_16">
      <!-- 70 -->
      <g transform="translate(34.275 61.304193)scale(0.1 -0.1)">
       <defs>
        <path id="DejaVuSans-37" d="M 525 4666 
L 3525 4666 
L 3525 4397 
L 1831 0 
L 1172 0 
L 2766 4134 
L 525 4134 
L 525 4666 
z
" transform="scale(0.015625)"/>
       </defs>
       <use xlink:href="#DejaVuSans-37"/>
       <use xlink:href="#DejaVuSans-30" x="63.623047"/>
      </g>
     </g>
    </g>
    <g id="text_17">
     <!-- % -->
     <g transform="translate(28.195312 150.190781)rotate(-90)scale(0.1 -0.1)">
      <defs>
       <path id="DejaVuSans-25" d="M 4653 2053 
Q 4381 2053 4226 1822 
Q 4072 1591 4072 1178 
Q 4072 772 4226 539 
Q 4381 306 4653 306 
Q 4919 306 5073 539 
Q 5228 772 5228 1178 
Q 5228 1588 5073 1820 
Q 4919 2053 4653 2053 
z
M 4653 2450 
Q 5147 2450 5437 2106 
Q 5728 1763 5728 1178 
Q 5728 594 5436 251 
Q 5144 -91 4653 -91 
Q 4153 -91 3862 251 
Q 3572 594 3572 1178 
Q 3572 1766 3864 2108 
Q 4156 2450 4653 2450 
z
M 1428 4353 
Q 1159 4353 1004 4120 
Q 850 3888 850 3481 
Q 850 3069 1003 2837 
Q 1156 2606 1428 2606 
Q 1700 2606 1854 2837 
Q 2009 3069 2009 3481 
Q 2009 3884 1853 4118 
Q 1697 4353 1428 4353 
z
M 4250 4750 
L 4750 4750 
L 1831 -91 
L 1331 -91 
L 4250 4750 
z
M 1428 4750 
Q 1922 4750 2215 4408 
Q 2509 4066 2509 3481 
Q 2509 2891 2217 2550 
Q 1925 2209 1428 2209 
Q 931 2209 642 2551 
Q 353 2894 353 3481 
Q 353 4063 643 4406 
Q 934 4750 1428 4750 
z
" transform="scale(0.015625)"/>
      </defs>
      <use xlink:href="#DejaVuSans-25"/>
     </g>
    </g>
   </g>
   <g id="line2d_31">
    <path d="M 69.218182 245.801421 
L 69.305768 245.070457 
L 69.393355 245.21665 
L 69.480942 245.21665 
L 69.568528 245.655228 
L 69.743702 245.509036 
L 69.918875 245.655228 
L 70.006462 245.655228 
L 70.094048 246.24 
L 70.356808 245.509036 
L 70.531982 245.509036 
L 70.969915 244.193299 
L 71.057502 244.485685 
L 71.145088 244.339492 
L 71.145088 244.047107 
L 71.232675 244.047107 
L 71.407848 243.023756 
L 71.495435 243.316142 
L 71.583022 242.438985 
L 71.670608 242.731371 
L 71.670608 242.585178 
L 71.758195 242.438985 
L 71.845782 243.023756 
L 71.933368 242.877563 
L 72.020955 242.731371 
L 72.020955 242.146599 
L 72.108542 242.438985 
L 72.196128 242.438985 
L 72.283715 242.292792 
L 72.283715 242.000406 
L 72.371302 242.000406 
L 72.458888 241.854213 
L 72.634061 242.292792 
L 72.721648 242.146599 
L 72.809235 242.146599 
L 72.809235 242.438985 
L 72.896821 242.438985 
L 73.159581 242.438985 
L 73.334755 242.000406 
L 73.422341 242.292792 
L 73.597515 242.000406 
L 73.685101 242.731371 
L 73.860275 242.292792 
L 73.947861 240.830863 
L 74.123035 240.538477 
L 74.123035 240.830863 
L 74.210621 239.807513 
L 74.298208 239.807513 
L 74.385795 239.953706 
L 74.385795 239.953706 
L 74.648555 236.591269 
L 74.823728 236.15269 
L 74.911315 234.836954 
L 74.998901 235.12934 
L 75.086488 234.690761 
L 75.174075 232.497868 
L 75.436835 231.913096 
L 75.524421 230.012589 
L 75.612008 229.720203 
L 75.962354 225.480609 
L 76.049941 225.188223 
L 76.137528 225.334416 
L 76.663048 219.048122 
L 76.750634 219.340508 
L 76.838221 219.048122 
L 77.013394 217.147614 
L 77.451328 210.130355 
L 77.538914 210.422741 
L 77.626501 207.35269 
L 78.677541 199.019695 
L 78.852714 199.019695 
L 78.940301 198.434924 
L 79.115474 197.119188 
L 79.290647 193.902944 
L 79.378234 194.049137 
L 79.816167 188.64 
L 79.903754 188.64 
L 79.991341 187.178071 
L 79.991341 187.61665 
L 80.078927 187.61665 
L 80.341687 184.10802 
L 80.692034 182.353706 
L 81.392727 171.681624 
L 81.655487 168.026802 
L 81.830661 167.880609 
L 81.918247 164.664365 
L 82.706527 152.968934 
L 82.794114 153.115127 
L 82.969287 151.653198 
L 83.232047 151.360812 
L 84.020327 140.834924 
L 84.1955 140.688731 
L 84.370674 139.957766 
L 84.545847 140.981117 
L 84.633434 139.080609 
L 84.72102 139.519188 
L 84.896194 140.981117 
L 85.158954 138.349645 
L 85.24654 138.495838 
L 85.334127 137.033909 
L 85.421714 137.180102 
L 85.5093 137.033909 
L 85.684474 137.472487 
L 85.859647 136.449137 
L 85.947233 136.741523 
L 86.122407 136.302944 
L 86.209993 136.302944 
L 86.29758 135.279594 
L 86.29758 135.57198 
L 86.472753 136.010558 
L 86.647927 132.794315 
L 86.735513 133.232893 
L 87.261033 128.993299 
L 87.34862 129.431878 
L 87.87414 124.315127 
L 88.049313 123.145584 
L 88.487247 121.976041 
L 88.574833 122.122234 
L 88.66242 120.660305 
L 88.750007 120.806497 
L 88.837593 120.221726 
L 89.012767 120.95269 
L 89.100353 119.636954 
L 89.18794 119.198376 
L 89.363113 121.391269 
L 89.4507 121.098883 
L 89.538286 121.537462 
L 89.625873 121.098883 
L 89.625873 121.245076 
L 89.71346 121.245076 
L 89.801046 121.683655 
L 89.888633 121.098883 
L 89.888633 120.221726 
L 89.97622 120.95269 
L 90.063806 121.391269 
L 90.23898 120.367919 
L 90.326566 121.098883 
L 90.50174 120.660305 
L 90.50174 119.490761 
L 90.7645 119.490761 
L 90.852086 119.92934 
L 90.852086 119.344569 
L 90.939673 120.806497 
L 91.02726 119.783147 
L 91.202433 121.098883 
L 91.29002 120.514112 
L 91.465193 121.391269 
L 91.55278 118.613604 
L 91.640366 118.175025 
L 91.81554 114.958782 
L 91.903126 115.982132 
L 91.990713 114.666396 
L 92.0783 114.812589 
L 92.165886 116.128325 
L 92.691406 111.011574 
L 92.778993 111.450152 
L 92.866579 112.32731 
L 92.954166 112.32731 
L 93.216926 111.157766 
L 93.304513 108.964873 
L 93.742446 105.748629 
L 93.917619 102.24 
L 94.005206 102.386193 
L 94.092793 103.848122 
L 94.180379 103.409543 
L 94.180379 102.824772 
L 94.267966 104.432893 
L 94.355553 103.409543 
L 94.443139 104.432893 
L 94.530726 103.117157 
L 94.618313 103.701929 
L 94.793486 102.678579 
L 94.968659 103.409543 
L 95.056246 103.409543 
L 95.143833 102.532386 
L 95.319006 100.485685 
L 95.406593 101.947614 
L 95.669353 102.386193 
L 95.844526 100.193299 
L 95.932112 100.485685 
L 96.019699 100.631878 
L 96.019699 101.362843 
L 96.107286 101.362843 
L 96.194872 101.509036 
L 96.282459 102.24 
L 96.282459 101.21665 
L 96.370046 101.947614 
L 96.457632 101.21665 
L 96.720392 96.977056 
L 96.807979 98.585178 
L 96.807979 97.269442 
L 96.895566 97.269442 
L 97.070739 95.953706 
L 97.158326 96.977056 
L 97.158326 96.830863 
L 97.245912 96.538477 
L 97.333499 95.515127 
L 97.508672 96.538477 
L 97.596259 96.392284 
L 97.683846 95.66132 
L 97.771432 96.099898 
L 98.034192 95.953706 
L 98.121779 96.392284 
L 98.209366 96.246091 
L 98.296952 96.977056 
L 98.384539 96.68467 
L 98.472126 95.222741 
L 98.559712 95.368934 
L 98.647299 94.491777 
L 98.647299 95.515127 
L 98.822472 96.538477 
L 98.997646 94.63797 
L 99.260405 95.807513 
L 99.347992 95.076548 
L 99.610752 96.830863 
L 99.698339 94.930355 
L 99.785925 94.199391 
L 99.873512 95.66132 
L 100.048685 94.345584 
L 100.136272 94.63797 
L 100.486619 94.345584 
L 100.836965 96.830863 
L 101.187312 92.15269 
L 101.450072 92.591269 
L 101.537659 89.813604 
L 101.712832 88.644061 
L 101.888005 89.667411 
L 101.975592 89.521218 
L 102.063179 87.913096 
L 102.238352 86.889746 
L 102.325939 85.866396 
L 102.325939 86.743553 
L 102.676285 84.55066 
L 102.763872 83.234924 
L 102.939045 84.55066 
L 103.026632 84.112081 
L 103.114218 84.112081 
L 103.201805 86.743553 
L 103.289392 86.59736 
L 103.376978 86.889746 
L 103.552152 86.304975 
L 103.727325 90.10599 
L 103.902498 89.667411 
L 104.077672 89.08264 
L 104.165258 87.766904 
L 104.252845 87.913096 
L 104.515605 90.690761 
L 104.515605 90.252183 
L 104.603192 89.813604 
L 104.778365 92.006497 
L 104.953538 91.275533 
L 105.041125 89.959797 
L 105.041125 89.959797 
L 105.303885 91.567919 
L 105.479058 89.521218 
L 105.566645 89.08264 
L 105.654232 89.228832 
L 105.829405 88.790254 
L 105.916991 88.059289 
L 106.004578 88.351675 
L 106.267338 85.720203 
L 106.354925 85.866396 
L 106.442511 87.620711 
L 106.442511 87.182132 
L 106.530098 86.889746 
L 106.705271 84.696853 
L 106.792858 86.012589 
L 106.792858 85.135431 
L 106.880445 84.843046 
L 106.968031 83.234924 
L 107.143205 84.843046 
L 107.230791 84.55066 
L 107.405965 84.112081 
L 107.581138 82.503959 
L 107.668725 83.234924 
L 107.668725 82.796345 
L 107.756311 82.211574 
L 107.931485 84.112081 
L 108.281831 79.141523 
L 108.369418 80.164873 
L 108.369418 80.457259 
L 108.457005 80.164873 
L 108.632178 81.772995 
L 108.719765 80.749645 
L 108.719765 81.188223 
L 108.894938 82.065381 
L 108.982525 83.234924 
L 109.070111 81.480609 
L 109.070111 82.796345 
L 109.157698 82.650152 
L 109.245284 83.52731 
L 109.420458 81.919188 
L 109.420458 82.211574 
L 109.508044 82.650152 
L 109.595631 83.819695 
L 109.858391 83.234924 
L 109.945978 81.919188 
L 110.121151 83.381117 
L 110.208738 82.357766 
L 110.208738 82.503959 
L 110.296324 83.819695 
L 110.383911 83.234924 
L 110.559084 84.989239 
L 110.646671 85.281624 
L 110.734258 84.404467 
L 110.821844 84.989239 
L 110.909431 86.59736 
L 110.997018 86.158782 
L 111.172191 83.673503 
L 111.522538 82.357766 
L 111.610124 82.503959 
L 111.697711 81.188223 
L 111.960471 84.55066 
L 112.135644 83.234924 
L 112.223231 83.381117 
L 112.310818 83.088731 
L 112.398404 83.819695 
L 112.573578 84.112081 
L 112.661164 83.819695 
L 112.923924 81.919188 
L 113.011511 83.381117 
L 113.099097 82.650152 
L 113.186684 82.796345 
L 113.274271 83.381117 
L 113.361857 83.234924 
L 113.449444 82.065381 
L 113.537031 82.065381 
L 113.712204 82.942538 
L 113.799791 82.796345 
L 113.887377 81.919188 
L 113.974964 82.211574 
L 114.062551 81.919188 
L 114.237724 82.650152 
L 114.325311 80.457259 
L 114.412897 81.04203 
L 114.500484 79.287716 
L 114.588071 79.580102 
L 114.675657 79.580102 
L 114.763244 79.726294 
L 114.763244 80.457259 
L 114.850831 79.872487 
L 115.026004 77.241015 
L 115.376351 78.264365 
L 115.463937 77.241015 
L 115.551524 78.118173 
L 115.726697 77.094822 
L 115.989457 76.071472 
L 115.989457 77.094822 
L 116.077044 76.363858 
L 116.252217 77.241015 
L 116.339804 78.702944 
L 116.42739 78.556751 
L 116.514977 78.410558 
L 116.602564 79.726294 
L 116.602564 79.141523 
L 116.69015 77.679594 
L 116.777737 77.97198 
L 116.95291 77.241015 
L 117.040497 75.194315 
L 117.128084 74.46335 
L 117.303257 76.510051 
L 117.390844 74.755736 
L 117.653604 74.609543 
L 117.74119 74.901929 
L 117.828777 73.732386 
L 117.916364 73.878579 
L 118.00395 74.46335 
L 118.179124 72.709036 
L 118.26671 73.147614 
L 118.26671 74.170964 
L 118.354297 73.586193 
L 118.441884 74.170964 
L 118.617057 72.41665 
L 118.79223 72.562843 
L 118.879817 73.878579 
L 118.967404 73.878579 
L 119.05499 74.317157 
L 119.05499 74.024772 
L 119.142577 74.024772 
L 119.31775 76.071472 
L 119.405337 75.632893 
L 119.405337 75.925279 
L 119.58051 77.094822 
L 119.668097 77.094822 
L 119.668097 77.241015 
L 119.930857 77.094822 
L 120.018443 78.118173 
L 120.281203 79.726294 
L 120.456377 78.264365 
L 120.456377 78.410558 
L 120.543963 78.556751 
L 120.63155 78.118173 
L 120.719137 78.410558 
L 120.806723 76.948629 
L 120.89431 76.802437 
L 121.069483 76.071472 
L 121.15707 77.97198 
L 121.244657 78.849137 
L 121.41983 77.679594 
L 121.595003 78.99533 
L 121.68259 77.97198 
L 121.770177 78.118173 
L 121.94535 77.533401 
L 121.94535 78.118173 
L 122.20811 77.533401 
L 122.20811 75.632893 
L 122.295697 75.632893 
L 122.47087 76.217665 
L 122.558457 75.925279 
L 122.646043 76.802437 
L 122.73363 76.363858 
L 122.821216 78.702944 
L 122.908803 77.825787 
L 122.908803 78.556751 
L 122.99639 79.433909 
L 123.171563 78.118173 
L 123.171563 78.410558 
L 123.25915 77.533401 
L 123.434323 74.755736 
L 123.609496 74.46335 
L 123.697083 72.855228 
L 123.78467 72.562843 
L 123.872256 71.831878 
L 124.04743 72.41665 
L 124.135016 70.808528 
L 124.397776 73.001421 
L 124.57295 72.41665 
L 124.748123 73.293807 
L 125.09847 70.808528 
L 125.09847 71.539492 
L 125.186056 72.270457 
L 125.273643 71.247107 
L 125.36123 71.685685 
L 125.36123 72.709036 
L 125.448816 72.41665 
L 125.62399 72.855228 
L 125.62399 72.562843 
L 125.88675 74.609543 
L 125.88675 74.170964 
L 125.974336 74.46335 
L 126.061923 75.340508 
L 126.149509 75.048122 
L 126.237096 75.925279 
L 126.237096 77.241015 
L 126.324683 76.948629 
L 126.587443 74.609543 
L 126.675029 74.170964 
L 126.937789 73.878579 
L 127.025376 75.194315 
L 127.112963 75.779086 
L 127.200549 75.340508 
L 127.200549 74.170964 
L 127.288136 74.170964 
L 127.375723 73.732386 
L 127.726069 75.925279 
L 127.988829 75.340508 
L 127.988829 76.217665 
L 128.076416 75.632893 
L 128.251589 76.071472 
L 128.251589 76.071472 
L 128.339176 75.632893 
L 128.514349 77.387208 
L 128.601936 79.141523 
L 128.601936 77.97198 
L 128.689523 77.825787 
L 128.777109 78.410558 
L 128.952283 76.948629 
L 128.952283 77.094822 
L 129.215043 76.656244 
L 129.302629 75.779086 
L 129.302629 76.363858 
L 129.390216 76.948629 
L 129.477802 76.217665 
L 129.565389 73.878579 
L 129.652976 74.317157 
L 129.652976 75.048122 
L 129.740562 73.001421 
L 129.828149 73.586193 
L 129.915736 72.709036 
L 129.915736 73.293807 
L 130.003322 73.878579 
L 130.528842 69.785178 
L 130.616429 70.223756 
L 130.704016 70.223756 
L 130.791602 67.738477 
L 131.141949 72.124264 
L 131.229536 71.100914 
L 131.317122 71.831878 
L 131.317122 71.831878 
L 131.579882 71.539492 
L 131.755056 70.077563 
L 131.755056 72.270457 
L 131.842642 70.662335 
L 131.930229 69.931371 
L 132.017816 70.808528 
L 132.105402 70.369949 
L 132.192989 70.662335 
L 132.280576 70.516142 
L 132.455749 72.124264 
L 132.455749 73.293807 
L 132.543336 72.562843 
L 132.630922 72.562843 
L 132.718509 73.147614 
L 132.806095 74.46335 
L 132.893682 74.901929 
L 133.156442 71.978071 
L 133.244029 71.685685 
L 133.331615 69.785178 
L 133.419202 68.177056 
L 133.594375 69.200406 
L 133.681962 68.761827 
L 133.769549 68.90802 
L 133.769549 69.200406 
L 134.032309 69.931371 
L 134.119895 68.323249 
L 134.207482 69.638985 
L 134.295069 69.346599 
L 134.382655 69.492792 
L 134.820589 66.130355 
L 134.908175 66.568934 
L 135.258522 65.253198 
L 135.258522 65.399391 
L 135.433695 67.738477 
L 135.521282 67.446091 
L 135.608869 67.299898 
L 135.696455 67.592284 
L 135.784042 69.200406 
L 136.046802 66.568934 
L 136.221975 67.446091 
L 136.484735 66.86132 
L 136.572322 67.007513 
L 136.572322 67.007513 
L 136.835082 68.761827 
L 137.010255 70.077563 
L 137.185428 68.90802 
L 137.273015 68.90802 
L 137.360602 69.200406 
L 137.360602 69.785178 
L 137.448188 69.346599 
L 137.710948 68.323249 
L 137.886122 68.90802 
L 138.061295 67.299898 
L 138.148882 68.469442 
L 138.236468 67.592284 
L 138.324055 70.077563 
L 138.499228 70.954721 
L 138.499228 70.954721 
L 138.761988 71.247107 
L 138.849575 70.516142 
L 139.024748 67.153706 
L 139.112335 67.446091 
L 139.199922 67.153706 
L 139.287508 67.592284 
L 139.375095 66.130355 
L 139.550268 64.960812 
L 139.637855 65.107005 
L 139.813028 64.376041 
L 139.813028 64.083655 
L 139.900615 65.253198 
L 139.988201 65.107005 
L 140.075788 65.83797 
L 140.163375 65.399391 
L 140.163375 65.545584 
L 140.250961 66.86132 
L 140.338548 65.83797 
L 140.426135 66.715127 
L 140.513721 62.914112 
L 140.601308 62.183147 
L 140.776481 63.35269 
L 140.864068 62.767919 
L 141.039241 63.206497 
L 141.214415 64.960812 
L 141.302001 63.060305 
L 141.389588 62.914112 
L 141.564761 65.107005 
L 141.652348 64.668426 
L 141.739935 63.645076 
L 141.827521 63.937462 
L 141.827521 64.814619 
L 141.915108 64.522234 
L 142.002695 65.107005 
L 142.177868 63.645076 
L 142.265455 64.229848 
L 142.265455 63.937462 
L 142.353041 63.498883 
L 142.528215 63.645076 
L 142.615801 66.715127 
L 142.790974 67.299898 
L 142.878561 66.86132 
L 142.878561 65.83797 
L 142.966148 66.715127 
L 143.053734 66.86132 
L 143.141321 65.253198 
L 143.316494 64.376041 
L 143.579254 66.130355 
L 143.579254 65.984162 
L 143.666841 65.984162 
L 143.754428 64.229848 
L 143.842014 65.253198 
L 143.929601 64.814619 
L 144.017188 63.206497 
L 144.104774 63.35269 
L 144.192361 63.35269 
L 144.279948 63.060305 
L 144.279948 63.060305 
L 144.455121 63.35269 
L 144.630294 64.522234 
L 144.717881 64.668426 
L 144.717881 65.107005 
L 144.805468 64.522234 
L 144.980641 63.645076 
L 145.068228 63.206497 
L 145.068228 63.206497 
L 145.155814 64.083655 
L 145.330988 62.183147 
L 145.418574 65.399391 
L 145.506161 64.814619 
L 145.681334 65.253198 
L 145.856508 64.083655 
L 145.944094 64.668426 
L 146.031681 66.276548 
L 146.031681 65.399391 
L 146.119267 64.960812 
L 146.206854 65.253198 
L 146.294441 67.153706 
L 146.382027 66.568934 
L 146.469614 66.568934 
L 146.557201 67.007513 
L 146.557201 66.86132 
L 146.644787 66.715127 
L 146.732374 66.86132 
L 146.732374 66.276548 
L 146.819961 66.422741 
L 147.082721 64.814619 
L 147.082721 65.253198 
L 147.257894 65.984162 
L 147.345481 65.107005 
L 147.433067 67.446091 
L 147.608241 66.568934 
L 147.608241 67.007513 
L 147.695827 67.007513 
L 147.783414 67.446091 
L 147.958587 66.86132 
L 148.046174 67.007513 
L 148.133761 66.276548 
L 148.221347 67.88467 
L 148.308934 68.615635 
L 148.484107 67.592284 
L 148.484107 68.030863 
L 148.571694 67.738477 
L 148.834454 65.984162 
L 148.922041 68.177056 
L 149.009627 68.030863 
L 149.184801 66.715127 
L 149.272387 67.007513 
L 149.44756 67.738477 
L 149.535147 65.83797 
L 149.71032 65.399391 
L 149.797907 65.691777 
L 149.885494 65.107005 
L 150.060667 66.715127 
L 150.23584 67.153706 
L 150.4986 65.545584 
L 150.586187 65.83797 
L 150.673774 64.229848 
L 150.76136 64.083655 
L 150.848947 65.107005 
L 150.936534 64.522234 
L 151.199294 60.575025 
L 151.199294 60.867411 
L 151.374467 61.890761 
L 151.462054 61.890761 
L 151.54964 61.013604 
L 151.724814 59.551675 
L 151.8124 60.28264 
L 151.8124 59.697868 
L 151.987574 60.28264 
L 152.33792 56.77401 
L 152.33792 56.920203 
L 152.688267 57.212589 
L 152.775853 58.089746 
L 152.951027 60.428832 
L 153.038613 59.113096 
L 153.1262 59.697868 
L 153.213787 59.990254 
L 153.564133 56.627817 
L 153.65172 56.481624 
L 153.65172 56.189239 
L 153.739307 56.627817 
L 153.91448 57.79736 
L 153.91448 57.79736 
L 154.002067 59.405482 
L 154.17724 57.358782 
L 154.352413 57.651168 
L 154.352413 58.528325 
L 154.44 58.235939 
L 154.527587 57.943553 
L 154.615173 58.089746 
L 154.70276 56.043046 
L 154.96552 54.72731 
L 155.053107 55.75066 
L 155.053107 55.165888 
L 155.140693 55.019695 
L 155.22828 54.434924 
L 155.315867 55.019695 
L 155.315867 54.434924 
L 155.49104 54.72731 
L 155.578627 57.066396 
L 155.666213 55.75066 
L 155.7538 55.604467 
L 156.01656 56.920203 
L 156.104147 56.920203 
L 156.191733 56.481624 
L 156.366906 57.79736 
L 156.366906 57.066396 
L 156.54208 55.604467 
L 156.629666 55.312081 
L 156.717253 56.335431 
L 156.80484 56.627817 
L 156.892426 58.235939 
L 156.980013 57.943553 
L 157.242773 57.943553 
L 157.33036 57.212589 
L 157.33036 58.674518 
L 157.417946 57.651168 
L 157.505533 58.966904 
L 157.59312 58.235939 
L 157.680706 60.575025 
L 157.768293 59.990254 
L 157.85588 60.867411 
L 157.943466 60.721218 
L 158.031053 60.136447 
L 158.11864 60.575025 
L 158.206226 59.990254 
L 158.206226 60.136447 
L 158.293813 60.575025 
L 158.468986 58.966904 
L 158.556573 58.820711 
L 158.64416 58.966904 
L 158.731746 60.575025 
L 158.90692 62.183147 
L 159.082093 60.721218 
L 159.16968 61.159797 
L 159.344853 60.428832 
L 159.607613 59.405482 
L 159.695199 61.159797 
L 159.782786 60.136447 
L 159.870373 60.428832 
L 160.045546 58.235939 
L 160.133133 58.674518 
L 160.220719 58.820711 
L 160.308306 59.551675 
L 160.483479 61.598376 
L 160.571066 62.036954 
L 160.658653 63.060305 
L 160.746239 62.32934 
L 160.746239 62.767919 
L 161.096586 65.691777 
L 161.184173 65.107005 
L 161.184173 64.376041 
L 161.271759 64.376041 
L 161.446933 66.715127 
L 161.534519 66.86132 
L 161.534519 66.422741 
L 161.622106 66.568934 
L 161.884866 64.814619 
L 162.060039 65.107005 
L 162.235213 67.592284 
L 162.322799 68.615635 
L 162.410386 69.054213 
L 162.497973 68.469442 
L 162.585559 65.691777 
L 162.673146 65.253198 
L 162.760733 65.399391 
L 162.848319 63.35269 
L 162.935906 65.399391 
L 163.023492 64.376041 
L 163.111079 64.668426 
L 163.198666 62.621726 
L 163.286252 62.32934 
L 163.461426 63.498883 
L 163.549012 60.721218 
L 163.636599 62.32934 
L 163.986946 66.276548 
L 164.074532 65.984162 
L 164.337292 62.914112 
L 164.600052 61.598376 
L 164.687639 62.036954 
L 164.687639 62.621726 
L 164.775226 62.475533 
L 165.037986 65.107005 
L 165.125572 62.621726 
L 165.213159 63.645076 
L 165.300746 63.498883 
L 165.475919 64.668426 
L 165.563506 63.645076 
L 165.826266 64.668426 
L 165.913852 62.914112 
L 166.001439 62.767919 
L 166.264199 60.867411 
L 166.526959 63.060305 
L 166.526959 63.498883 
L 166.789719 63.060305 
L 167.140065 64.960812 
L 167.227652 64.522234 
L 167.227652 63.645076 
L 167.315239 64.083655 
L 167.490412 63.206497 
L 167.665585 62.036954 
L 167.753172 62.32934 
L 167.928345 61.159797 
L 168.015932 62.32934 
L 168.191105 61.159797 
L 168.278692 60.721218 
L 168.366279 61.890761 
L 168.453865 62.036954 
L 168.716625 60.575025 
L 168.716625 61.30599 
L 168.804212 61.159797 
L 168.891799 61.159797 
L 168.979385 61.013604 
L 169.154559 61.30599 
L 169.242145 59.990254 
L 169.329732 61.013604 
L 169.504905 60.28264 
L 169.504905 60.575025 
L 169.592492 60.136447 
L 169.680078 61.013604 
L 169.767665 60.428832 
L 169.942838 62.036954 
L 170.118012 62.183147 
L 170.205598 61.30599 
L 170.293185 62.32934 
L 170.380772 61.013604 
L 170.468358 61.452183 
L 170.555945 61.159797 
L 170.731118 59.697868 
L 170.818705 59.697868 
L 170.906292 58.966904 
L 171.081465 60.28264 
L 171.169052 60.136447 
L 171.169052 60.428832 
L 171.256638 59.844061 
L 171.344225 60.136447 
L 171.519398 61.598376 
L 171.519398 62.914112 
L 171.957332 61.159797 
L 171.957332 61.744569 
L 172.044918 61.890761 
L 172.395265 59.405482 
L 172.482852 59.844061 
L 172.658025 58.235939 
L 172.920785 60.575025 
L 172.920785 61.890761 
L 173.008371 61.598376 
L 173.095958 60.575025 
L 173.183545 60.721218 
L 173.271131 60.721218 
L 173.533891 59.113096 
L 173.621478 59.844061 
L 173.796651 57.212589 
L 173.796651 57.504975 
L 173.884238 57.651168 
L 173.971825 57.358782 
L 174.146998 57.651168 
L 174.409758 56.335431 
L 174.672518 58.528325 
L 174.760105 58.235939 
L 175.022865 60.721218 
L 175.198038 59.551675 
L 175.285625 59.113096 
L 175.373211 59.551675 
L 175.460798 60.867411 
L 175.723558 59.405482 
L 175.811145 59.259289 
L 175.811145 60.136447 
L 175.898731 58.674518 
L 175.986318 59.990254 
L 176.073905 59.697868 
L 176.249078 58.820711 
L 176.249078 58.089746 
L 176.336664 59.990254 
L 176.424251 60.136447 
L 176.687011 61.744569 
L 176.774598 60.575025 
L 176.862184 61.30599 
L 176.949771 61.159797 
L 177.037358 61.30599 
L 177.037358 62.036954 
L 177.124944 62.036954 
L 177.212531 62.32934 
L 177.300118 61.890761 
L 177.738051 66.86132 
L 177.738051 66.130355 
L 177.825638 65.253198 
L 177.913224 65.691777 
L 178.088398 66.715127 
L 178.175984 66.86132 
L 178.263571 67.738477 
L 178.263571 67.446091 
L 178.351158 67.007513 
L 178.613918 69.346599 
L 178.701504 67.007513 
L 178.789091 66.276548 
L 178.876678 67.007513 
L 179.051851 67.153706 
L 179.314611 66.568934 
L 179.402198 65.545584 
L 179.402198 64.229848 
L 179.489784 64.668426 
L 179.664957 62.767919 
L 179.752544 61.598376 
L 180.015304 57.504975 
L 180.278064 62.036954 
L 180.278064 61.013604 
L 180.365651 60.867411 
L 180.540824 59.990254 
L 180.540824 59.990254 
L 180.628411 60.721218 
L 180.803584 59.551675 
L 181.066344 61.30599 
L 181.241517 59.551675 
L 181.504277 59.990254 
L 181.591864 58.674518 
L 181.679451 58.966904 
L 181.854624 58.382132 
L 181.854624 58.528325 
L 181.942211 58.966904 
L 182.380144 55.75066 
L 182.467731 53.557766 
L 182.642904 54.873503 
L 182.730491 53.703959 
L 182.818077 53.411574 
L 182.905664 52.534416 
L 183.168424 53.850152 
L 183.25601 52.826802 
L 183.25601 52.826802 
L 183.431184 54.72731 
L 183.51877 53.265381 
L 183.51877 54.434924 
L 183.78153 54.581117 
L 183.956704 55.604467 
L 184.131877 54.434924 
L 184.219464 54.434924 
L 184.30705 54.581117 
L 184.394637 55.165888 
L 184.482224 54.72731 
L 184.56981 54.873503 
L 184.744984 56.043046 
L 184.83257 56.189239 
L 184.920157 55.458274 
L 185.09533 57.651168 
L 185.182917 57.358782 
L 185.270504 57.943553 
L 185.270504 57.651168 
L 185.35809 57.504975 
L 185.445677 57.79736 
L 185.533264 56.77401 
L 185.62085 57.358782 
L 185.62085 58.528325 
L 185.708437 57.79736 
L 185.796024 57.943553 
L 185.971197 58.966904 
L 186.058784 58.235939 
L 186.40913 57.358782 
L 186.496717 57.79736 
L 186.496717 58.382132 
L 186.584303 57.943553 
L 186.759477 60.136447 
L 186.93465 58.674518 
L 187.022237 58.966904 
L 187.109823 56.481624 
L 187.19741 56.481624 
L 187.372583 57.79736 
L 187.46017 57.651168 
L 187.72293 55.458274 
L 187.898103 55.019695 
L 187.98569 55.312081 
L 188.073277 53.703959 
L 188.073277 53.850152 
L 188.24845 55.75066 
L 188.336037 55.458274 
L 188.686383 56.920203 
L 189.03673 53.996345 
L 189.124317 53.557766 
L 189.124317 53.703959 
L 189.211903 53.703959 
L 189.474663 56.920203 
L 189.474663 56.043046 
L 189.737423 52.972995 
L 189.912596 53.411574 
L 190.000183 53.119188 
L 190.08777 53.557766 
L 190.08777 52.388223 
L 190.175356 52.972995 
L 190.262943 52.388223 
L 190.35053 52.826802 
L 190.700876 49.464365 
L 190.788463 50.19533 
L 190.788463 49.610558 
L 190.87605 49.318173 
L 191.226396 49.17198 
L 191.226396 48.733401 
L 191.313983 49.610558 
L 191.40157 49.318173 
L 191.489156 50.926294 
L 191.489156 50.341523 
L 191.576743 50.487716 
L 191.66433 50.19533 
L 191.839503 49.025787 
L 191.92709 48.879594 
L 192.102263 49.318173 
L 192.102263 49.610558 
L 192.18985 49.025787 
L 192.45261 51.511066 
L 192.540196 49.756751 
L 192.71537 51.657259 
L 192.978129 53.703959 
L 192.978129 55.165888 
L 193.065716 54.581117 
L 193.240889 53.850152 
L 193.416063 55.604467 
L 193.591236 56.481624 
L 193.678823 55.312081 
L 193.766409 55.896853 
L 193.853996 54.72731 
L 193.941583 56.920203 
L 194.204343 56.335431 
L 194.642276 60.867411 
L 194.729863 58.528325 
L 194.817449 58.528325 
L 194.905036 59.551675 
L 195.167796 57.651168 
L 195.255383 58.382132 
L 195.430556 56.77401 
L 195.518143 57.066396 
L 195.605729 57.504975 
L 195.693316 57.358782 
L 195.780903 57.212589 
L 196.043663 57.651168 
L 196.043663 58.382132 
L 196.131249 57.212589 
L 196.218836 56.77401 
L 196.394009 57.358782 
L 196.394009 57.79736 
L 196.481596 57.066396 
L 196.656769 57.79736 
L 196.919529 55.75066 
L 197.007116 55.896853 
L 197.182289 55.458274 
L 197.269876 55.165888 
L 197.357462 53.703959 
L 197.445049 54.72731 
L 197.532636 53.996345 
L 197.620222 54.288731 
L 197.795396 56.481624 
L 197.795396 56.043046 
L 197.882982 56.043046 
L 198.058156 54.581117 
L 198.145742 55.604467 
L 198.233329 54.581117 
L 198.583676 54.873503 
L 198.671262 54.72731 
L 198.758849 55.604467 
L 198.934022 53.703959 
L 198.934022 52.680609 
L 199.021609 53.119188 
L 199.109196 53.557766 
L 199.196782 52.680609 
L 199.284369 55.019695 
L 199.459542 54.288731 
L 199.547129 55.458274 
L 199.634716 55.019695 
L 199.722302 54.873503 
L 199.985062 56.920203 
L 200.072649 56.77401 
L 200.072649 56.481624 
L 200.160235 57.212589 
L 200.335409 58.235939 
L 200.335409 57.943553 
L 200.422995 58.089746 
L 200.510582 57.358782 
L 200.598169 58.235939 
L 200.860929 57.79736 
L 200.948515 55.896853 
L 201.036102 55.896853 
L 201.298862 59.113096 
L 201.386449 59.697868 
L 201.474035 59.405482 
L 201.474035 58.674518 
L 201.561622 59.551675 
L 201.649209 59.844061 
L 201.736795 60.575025 
L 201.824382 62.32934 
L 202.174729 59.405482 
L 202.262315 59.259289 
L 202.349902 59.405482 
L 202.437489 58.235939 
L 202.525075 57.651168 
L 202.700249 59.697868 
L 202.787835 59.113096 
L 202.875422 59.551675 
L 202.875422 59.551675 
L 203.138182 60.28264 
L 203.225768 61.452183 
L 203.225768 60.721218 
L 203.400942 58.382132 
L 203.488528 59.113096 
L 203.488528 58.235939 
L 203.663702 57.358782 
L 203.663702 56.77401 
L 203.751288 58.235939 
L 204.014048 53.557766 
L 204.101635 53.703959 
L 204.189222 54.581117 
L 204.451982 52.826802 
L 204.539568 53.703959 
L 204.627155 53.557766 
L 204.714742 53.411574 
L 204.714742 53.119188 
L 204.802328 53.411574 
L 204.889915 53.411574 
L 204.977502 53.850152 
L 204.977502 53.703959 
L 205.240262 53.411574 
L 205.415435 53.557766 
L 205.503022 52.388223 
L 205.765782 54.288731 
L 206.028542 58.674518 
L 206.116128 58.382132 
L 206.203715 60.28264 
L 206.291302 61.013604 
L 206.378888 60.28264 
L 206.466475 62.183147 
L 206.466475 62.183147 
L 206.641648 61.452183 
L 206.816821 60.867411 
L 206.816821 61.890761 
L 206.904408 61.159797 
L 206.991995 61.013604 
L 207.079581 61.30599 
L 207.079581 60.575025 
L 207.167168 61.013604 
L 207.254755 60.575025 
L 207.342341 61.890761 
L 207.429928 61.452183 
L 207.517515 64.376041 
L 207.780275 64.522234 
L 207.867861 64.960812 
L 207.955448 64.522234 
L 208.043035 63.060305 
L 208.130621 64.814619 
L 208.218208 64.522234 
L 208.305795 65.545584 
L 208.393381 65.399391 
L 208.480968 63.498883 
L 208.656141 61.598376 
L 208.656141 62.036954 
L 208.831315 61.598376 
L 209.006488 61.159797 
L 209.181661 59.405482 
L 209.356835 60.28264 
L 209.532008 59.551675 
L 209.532008 57.504975 
L 209.619595 58.674518 
L 209.969941 54.434924 
L 210.145114 53.850152 
L 210.232701 53.996345 
L 210.320288 53.411574 
L 210.320288 52.388223 
L 210.407874 52.388223 
L 210.495461 52.24203 
L 210.583048 51.072487 
L 210.583048 51.511066 
L 210.845808 53.119188 
L 211.108568 51.21868 
L 211.196154 51.511066 
L 211.283741 53.119188 
L 211.371328 53.703959 
L 211.546501 51.657259 
L 211.634088 52.095838 
L 211.721674 51.949645 
L 211.809261 52.826802 
L 211.896848 51.803452 
L 211.896848 52.24203 
L 212.072021 51.949645 
L 212.247194 51.364873 
L 212.334781 50.049137 
L 212.509954 50.780102 
L 212.772714 48.441015 
L 212.860301 48.733401 
L 213.035474 49.17198 
L 213.123061 50.487716 
L 213.385821 54.142538 
L 213.385821 53.557766 
L 213.473407 53.265381 
L 214.086514 57.79736 
L 214.174101 57.943553 
L 214.261687 60.136447 
L 214.436861 62.036954 
L 214.699621 62.036954 
L 214.787207 62.621726 
L 214.874794 61.744569 
L 214.962381 61.013604 
L 215.137554 62.036954 
L 215.225141 62.183147 
L 215.312727 59.551675 
L 215.487901 59.844061 
L 215.575487 60.136447 
L 215.575487 59.844061 
L 215.663074 59.551675 
L 216.276181 52.534416 
L 216.363767 52.388223 
L 216.451354 51.657259 
L 216.626527 51.949645 
L 216.626527 51.803452 
L 216.714114 50.633909 
L 217.06446 52.826802 
L 217.152047 52.534416 
L 217.32722 52.388223 
L 217.414807 50.633909 
L 217.414807 51.803452 
L 217.502394 52.680609 
L 217.677567 51.657259 
L 217.677567 51.949645 
L 217.765154 52.095838 
L 217.940327 51.21868 
L 218.027914 51.21868 
L 218.027914 51.657259 
L 218.1155 51.072487 
L 218.203087 51.072487 
L 218.37826 52.388223 
L 218.553434 51.511066 
L 218.64102 52.24203 
L 218.728607 51.657259 
L 218.816194 52.680609 
L 218.90378 51.511066 
L 218.991367 52.095838 
L 219.16654 50.926294 
L 219.604474 48.879594 
L 219.604474 49.902944 
L 219.69206 49.756751 
L 219.779647 49.464365 
L 219.867233 48.587208 
L 220.392753 52.24203 
L 220.567927 51.803452 
L 220.655513 50.780102 
L 220.830687 51.511066 
L 220.918273 51.364873 
L 220.918273 50.19533 
L 221.00586 50.19533 
L 221.181033 49.17198 
L 221.356207 50.780102 
L 221.443793 50.049137 
L 221.53138 52.534416 
L 221.79414 51.949645 
L 221.881727 50.780102 
L 221.881727 51.21868 
L 222.0569 51.949645 
L 222.144487 52.680609 
L 222.144487 52.388223 
L 222.232073 52.388223 
L 222.407247 51.511066 
L 222.407247 50.341523 
L 222.58242 50.341523 
L 222.670007 49.464365 
L 222.84518 49.902944 
L 223.020353 49.902944 
L 223.195526 51.072487 
L 223.283113 50.926294 
L 223.3707 50.780102 
L 223.545873 49.464365 
L 223.545873 50.487716 
L 223.63346 49.610558 
L 223.721046 50.633909 
L 223.808633 50.19533 
L 223.89622 48.148629 
L 223.983806 49.025787 
L 224.246566 49.17198 
L 224.334153 48.879594 
L 224.42174 47.856244 
L 224.42174 48.002437 
L 224.509326 48.148629 
L 224.6845 46.979086 
L 224.859673 48.879594 
L 225.034846 48.002437 
L 225.21002 49.610558 
L 225.297606 49.464365 
L 225.385193 49.025787 
L 225.47278 47.125279 
L 225.560366 47.563858 
L 225.647953 48.294822 
L 225.823126 47.710051 
L 225.910713 47.563858 
L 226.085886 48.733401 
L 226.173473 48.733401 
L 226.26106 51.21868 
L 226.348646 51.21868 
L 226.436233 51.072487 
L 226.523819 51.511066 
L 226.698993 51.657259 
L 226.961753 53.265381 
L 227.049339 54.288731 
L 227.136926 53.119188 
L 227.399686 54.142538 
L 227.487273 53.996345 
L 227.487273 53.119188 
L 227.574859 53.557766 
L 227.662446 55.019695 
L 227.750033 54.142538 
L 227.750033 55.019695 
L 227.837619 54.72731 
L 228.100379 56.335431 
L 228.100379 57.358782 
L 228.187966 55.896853 
L 228.275553 55.604467 
L 228.538313 53.265381 
L 228.625899 53.703959 
L 228.713486 53.265381 
L 228.801073 53.411574 
L 228.801073 54.142538 
L 228.888659 54.142538 
L 229.151419 53.557766 
L 229.239006 53.996345 
L 229.239006 53.411574 
L 229.326593 54.434924 
L 229.414179 54.873503 
L 229.501766 56.920203 
L 229.589353 56.481624 
L 229.676939 56.77401 
L 229.852112 59.259289 
L 229.939699 58.820711 
L 230.027286 61.013604 
L 230.114872 60.136447 
L 230.202459 61.452183 
L 230.202459 60.721218 
L 230.290046 61.013604 
L 230.377632 61.890761 
L 230.465219 61.598376 
L 230.552806 62.914112 
L 230.640392 63.937462 
L 230.727979 63.645076 
L 230.815566 63.937462 
L 230.990739 63.060305 
L 231.078326 63.060305 
L 231.341086 61.744569 
L 231.428672 60.28264 
L 231.603846 59.844061 
L 231.691432 59.259289 
L 231.779019 59.697868 
L 231.866606 58.674518 
L 231.954192 59.113096 
L 232.041779 59.990254 
L 232.129366 58.528325 
L 232.216952 59.697868 
L 232.304539 58.528325 
L 232.392126 60.136447 
L 232.567299 59.551675 
L 232.567299 60.28264 
L 232.654886 60.136447 
L 232.742472 59.551675 
L 232.830059 59.844061 
L 232.917646 60.575025 
L 233.092819 59.844061 
L 233.092819 59.844061 
L 233.180405 60.136447 
L 233.267992 59.844061 
L 233.355579 60.136447 
L 233.443165 58.674518 
L 233.530752 58.966904 
L 233.618339 58.820711 
L 233.793512 61.598376 
L 234.056272 61.013604 
L 234.056272 61.013604 
L 234.143859 60.28264 
L 234.319032 61.30599 
L 234.319032 60.721218 
L 234.494205 59.259289 
L 234.581792 59.990254 
L 234.669379 59.259289 
L 234.756965 60.136447 
L 234.756965 61.30599 
L 234.844552 60.575025 
L 235.019725 59.551675 
L 235.019725 60.428832 
L 235.107312 58.820711 
L 235.282485 59.697868 
L 235.370072 59.551675 
L 235.632832 61.30599 
L 235.808005 62.621726 
L 235.983179 59.990254 
L 236.070765 59.844061 
L 236.158352 60.575025 
L 236.421112 60.721218 
L 236.508698 60.28264 
L 236.596285 59.259289 
L 236.771458 60.136447 
L 236.859045 59.405482 
L 237.034218 56.627817 
L 237.121805 56.77401 
L 237.559738 54.142538 
L 237.647325 54.288731 
L 237.734912 54.288731 
L 237.822498 54.581117 
L 237.997672 53.265381 
L 238.085258 53.850152 
L 238.085258 53.850152 
L 238.260432 52.095838 
L 238.435605 51.803452 
L 238.523192 51.657259 
L 238.610778 50.19533 
L 238.961125 50.487716 
L 238.961125 51.072487 
L 239.048712 50.341523 
L 239.311472 52.972995 
L 239.399058 51.803452 
L 239.574232 52.534416 
L 239.661818 52.095838 
L 239.661818 52.24203 
L 239.924578 53.703959 
L 240.099751 51.803452 
L 240.362511 49.756751 
L 240.450098 49.025787 
L 240.712858 53.411574 
L 240.800445 53.119188 
L 240.888031 53.265381 
L 241.063205 54.434924 
L 241.325965 53.119188 
L 241.325965 53.850152 
L 241.413551 52.534416 
L 241.588725 50.487716 
L 241.676311 50.341523 
L 241.676311 51.657259 
L 241.763898 51.657259 
L 241.851485 51.511066 
L 241.939071 53.411574 
L 242.026658 52.972995 
L 242.114245 53.265381 
L 242.201831 52.972995 
L 242.289418 54.288731 
L 242.464591 54.873503 
L 242.552178 56.043046 
L 242.639765 56.043046 
L 242.727351 55.312081 
L 242.814938 56.043046 
L 242.814938 55.312081 
L 243.252871 53.557766 
L 243.340458 54.873503 
L 243.340458 54.142538 
L 243.603218 55.019695 
L 243.778391 57.358782 
L 244.041151 55.896853 
L 244.128738 56.189239 
L 244.216324 55.75066 
L 244.391498 55.896853 
L 244.391498 57.358782 
L 244.479084 56.627817 
L 244.566671 56.77401 
L 244.654258 56.627817 
L 244.741844 57.066396 
L 244.741844 57.066396 
L 245.092191 55.165888 
L 245.092191 55.312081 
L 245.354951 58.089746 
L 245.617711 57.504975 
L 245.880471 54.581117 
L 246.055644 54.72731 
L 246.143231 53.265381 
L 246.230818 53.411574 
L 246.318404 52.972995 
L 246.405991 54.434924 
L 246.405991 53.557766 
L 246.581164 53.119188 
L 246.668751 52.972995 
L 246.843924 49.025787 
L 246.931511 49.464365 
L 247.019097 49.025787 
L 247.019097 49.025787 
L 247.194271 50.049137 
L 247.281857 49.902944 
L 247.369444 50.19533 
L 247.369444 49.610558 
L 247.457031 49.610558 
L 247.632204 49.318173 
L 247.719791 49.464365 
L 247.807377 50.19533 
L 247.894964 50.049137 
L 247.982551 50.780102 
L 248.070137 51.949645 
L 248.157724 52.24203 
L 248.245311 51.949645 
L 248.508071 52.972995 
L 248.683244 51.949645 
L 248.770831 51.657259 
L 248.858417 52.095838 
L 249.208764 55.019695 
L 249.296351 54.581117 
L 249.559111 55.019695 
L 249.646697 55.458274 
L 249.821871 54.434924 
L 249.997044 55.896853 
L 250.08463 55.75066 
L 250.08463 55.75066 
L 250.259804 54.142538 
L 250.434977 55.019695 
L 250.434977 54.72731 
L 250.522564 54.72731 
L 250.61015 55.312081 
L 250.785324 55.165888 
L 250.960497 56.77401 
L 251.13567 56.043046 
L 251.223257 56.920203 
L 251.310844 55.604467 
L 251.39843 55.896853 
L 251.66119 56.481624 
L 251.748777 55.896853 
L 251.836364 56.189239 
L 251.92395 56.043046 
L 252.011537 56.189239 
L 252.099124 55.896853 
L 252.18671 54.142538 
L 252.361884 54.581117 
L 252.361884 54.72731 
L 252.44947 52.972995 
L 252.624644 51.21868 
L 252.71223 52.534416 
L 252.887404 51.657259 
L 253.150164 51.072487 
L 253.23775 50.487716 
L 253.412923 51.364873 
L 253.50051 51.21868 
L 253.675683 52.534416 
L 253.76327 52.095838 
L 253.850857 50.926294 
L 253.938443 51.949645 
L 254.113617 51.511066 
L 254.113617 50.633909 
L 254.201203 50.633909 
L 254.28879 50.341523 
L 254.376377 52.388223 
L 254.463963 52.095838 
L 254.55155 52.388223 
L 254.639137 53.703959 
L 254.639137 55.75066 
L 254.726723 55.458274 
L 254.81431 55.458274 
L 255.164657 53.996345 
L 255.252243 53.996345 
L 255.515003 55.165888 
L 255.60259 55.165888 
L 255.690177 53.996345 
L 255.777763 54.72731 
L 255.777763 54.288731 
L 255.86535 52.826802 
L 255.952937 53.119188 
L 256.040523 53.557766 
L 256.12811 51.511066 
L 256.215697 51.657259 
L 256.39087 52.24203 
L 256.478457 51.511066 
L 256.566043 50.341523 
L 256.65363 49.464365 
L 256.741216 49.610558 
L 256.91639 48.879594 
L 257.091563 50.487716 
L 257.617083 55.896853 
L 257.617083 55.312081 
L 257.70467 56.627817 
L 257.96743 56.627817 
L 258.142603 57.212589 
L 258.23019 59.844061 
L 258.317776 59.844061 
L 258.49295 63.206497 
L 258.49295 62.914112 
L 258.580536 62.475533 
L 258.843296 64.083655 
L 258.843296 63.060305 
L 258.930883 63.206497 
L 259.01847 63.060305 
L 259.106056 63.206497 
L 259.106056 61.744569 
L 259.193643 61.744569 
L 259.28123 61.890761 
L 259.456403 59.113096 
L 259.54399 59.405482 
L 259.80675 56.920203 
L 259.894336 57.212589 
L 260.069509 53.850152 
L 260.332269 53.411574 
L 260.507443 52.24203 
L 260.595029 51.072487 
L 260.770203 50.487716 
L 260.857789 50.633909 
L 260.945376 50.19533 
L 261.032963 49.318173 
L 261.208136 48.587208 
L 261.295723 49.756751 
L 261.383309 49.610558 
L 261.646069 50.780102 
L 261.733656 50.487716 
L 261.821243 50.780102 
L 261.908829 49.318173 
L 261.996416 51.511066 
L 262.084003 50.926294 
L 262.171589 50.341523 
L 262.259176 48.879594 
L 262.346763 49.756751 
L 262.434349 49.025787 
L 262.521936 50.341523 
L 262.609523 49.610558 
L 262.872283 49.902944 
L 262.959869 50.926294 
L 263.047456 50.341523 
L 263.135043 50.780102 
L 263.222629 51.803452 
L 263.310216 51.511066 
L 263.572976 54.581117 
L 263.572976 53.850152 
L 263.660562 52.534416 
L 263.748149 53.265381 
L 263.923322 51.511066 
L 264.010909 50.487716 
L 264.098496 50.926294 
L 264.186082 50.780102 
L 264.186082 50.926294 
L 264.361256 49.318173 
L 264.624016 51.657259 
L 264.799189 50.780102 
L 264.799189 50.926294 
L 264.886776 50.926294 
L 264.974362 50.780102 
L 265.412296 48.294822 
L 265.499882 48.294822 
L 265.499882 48.294822 
L 265.587469 48.148629 
L 265.762642 46.248122 
L 265.850229 46.979086 
L 265.850229 46.686701 
L 265.937816 46.248122 
L 266.112989 47.125279 
L 266.200576 46.832893 
L 266.200576 47.563858 
L 266.288162 47.563858 
L 266.375749 47.271472 
L 266.463336 47.417665 
L 266.638509 47.856244 
L 266.638509 46.686701 
L 266.726095 46.979086 
L 266.901269 46.540508 
L 267.076442 47.710051 
L 267.164029 47.417665 
L 267.251615 47.710051 
L 267.339202 47.271472 
L 267.426789 47.710051 
L 267.514375 46.101929 
L 267.689549 46.101929 
L 267.952309 45.809543 
L 268.039895 47.856244 
L 268.127482 47.417665 
L 268.302655 47.417665 
L 268.390242 46.979086 
L 268.477829 48.587208 
L 268.653002 49.610558 
L 268.740589 49.610558 
L 268.828175 50.926294 
L 268.915762 51.949645 
L 269.003349 51.657259 
L 269.090935 51.803452 
L 269.266109 53.119188 
L 269.353695 52.24203 
L 269.441282 52.388223 
L 269.528869 52.972995 
L 269.616455 52.826802 
L 269.704042 52.826802 
L 269.791629 54.434924 
L 269.791629 53.996345 
L 269.879215 53.703959 
L 270.141975 54.72731 
L 270.141975 54.72731 
L 270.229562 53.996345 
L 270.404735 55.019695 
L 270.492322 56.189239 
L 270.755082 52.826802 
L 270.842668 53.557766 
L 271.368188 48.733401 
L 271.368188 49.464365 
L 271.455775 49.756751 
L 271.543362 48.294822 
L 271.630948 48.587208 
L 271.718535 48.587208 
L 271.718535 48.587208 
L 271.806122 49.610558 
L 271.981295 48.587208 
L 272.068882 49.902944 
L 272.068882 49.17198 
L 272.156468 49.025787 
L 272.331642 50.049137 
L 272.769575 48.879594 
L 272.769575 48.733401 
L 272.857162 48.733401 
L 273.032335 50.19533 
L 273.119922 48.441015 
L 273.470268 51.072487 
L 273.557855 50.633909 
L 273.645441 50.19533 
L 273.645441 49.464365 
L 273.733028 49.464365 
L 273.820615 49.464365 
L 274.170961 53.411574 
L 274.258548 52.826802 
L 274.258548 53.119188 
L 274.433721 54.434924 
L 274.696481 52.388223 
L 274.871655 52.24203 
L 274.959241 51.949645 
L 275.134415 55.165888 
L 275.222001 55.312081 
L 275.397175 54.434924 
L 275.484761 55.165888 
L 275.659935 53.996345 
L 275.835108 56.77401 
L 275.922695 56.481624 
L 276.010281 56.335431 
L 276.097868 55.604467 
L 276.185455 56.043046 
L 276.273041 54.72731 
L 276.273041 52.972995 
L 276.360628 53.703959 
L 276.448215 53.703959 
L 276.535801 53.265381 
L 276.535801 52.388223 
L 276.623388 52.388223 
L 276.798561 52.095838 
L 276.886148 51.21868 
L 277.061321 52.972995 
L 277.236494 51.364873 
L 277.324081 51.657259 
L 277.411668 50.780102 
L 277.411668 51.949645 
L 277.499254 51.949645 
L 277.586841 51.949645 
L 277.674428 52.24203 
L 277.762014 52.680609 
L 278.024774 49.025787 
L 278.199948 50.926294 
L 278.199948 50.926294 
L 278.287534 50.633909 
L 278.375121 51.364873 
L 278.462708 51.072487 
L 278.462708 49.610558 
L 278.550294 49.610558 
L 278.813054 52.534416 
L 278.900641 52.388223 
L 278.988228 52.680609 
L 278.988228 53.119188 
L 279.075814 52.095838 
L 279.250988 50.487716 
L 279.513748 51.072487 
L 279.601334 49.318173 
L 279.688921 49.902944 
L 279.776508 49.610558 
L 279.776508 50.049137 
L 279.864094 49.318173 
L 280.126854 53.411574 
L 280.302027 52.095838 
L 280.302027 52.24203 
L 280.389614 51.949645 
L 280.477201 51.21868 
L 280.564787 51.803452 
L 280.564787 52.972995 
L 280.652374 52.680609 
L 280.915134 49.902944 
L 281.002721 49.756751 
L 281.090307 51.21868 
L 281.177894 53.850152 
L 281.353067 55.458274 
L 281.353067 56.335431 
L 281.440654 56.335431 
L 281.528241 56.189239 
L 281.966174 58.966904 
L 282.228934 56.335431 
L 282.316521 57.066396 
L 282.404107 55.896853 
L 282.491694 56.189239 
L 282.579281 56.189239 
L 282.666867 55.896853 
L 282.754454 54.142538 
L 282.842041 54.142538 
L 282.929627 52.826802 
L 283.017214 53.265381 
L 283.104801 53.557766 
L 283.192387 52.972995 
L 283.192387 51.364873 
L 283.279974 51.364873 
L 283.455147 49.318173 
L 283.542734 49.756751 
L 283.63032 50.341523 
L 283.717907 48.002437 
L 283.980667 46.979086 
L 284.068254 47.125279 
L 284.15584 45.955736 
L 284.243427 45.955736 
L 284.331014 45.370964 
L 284.331014 46.394315 
L 284.4186 45.224772 
L 284.593774 46.540508 
L 284.593774 46.101929 
L 284.68136 45.66335 
L 284.768947 46.101929 
L 285.119294 51.072487 
L 285.20688 50.926294 
L 285.294467 50.926294 
L 285.382054 50.049137 
L 285.46964 50.19533 
L 285.644814 50.633909 
L 285.644814 49.610558 
L 285.7324 49.902944 
L 285.907574 52.680609 
L 285.99516 51.364873 
L 286.25792 50.926294 
L 286.25792 51.21868 
L 286.345507 51.21868 
L 286.433094 52.680609 
L 286.695853 50.487716 
L 286.78344 50.780102 
L 286.78344 52.095838 
L 286.871027 51.803452 
L 287.0462 49.025787 
L 287.133787 49.17198 
L 287.221373 49.464365 
L 287.30896 49.318173 
L 287.396547 48.294822 
L 287.484133 48.294822 
L 287.57172 49.025787 
L 287.57172 49.025787 
L 287.659307 48.441015 
L 287.746893 48.733401 
L 287.83448 48.441015 
L 287.83448 49.025787 
L 287.922067 49.025787 
L 288.009653 50.19533 
L 288.09724 48.294822 
L 288.09724 50.19533 
L 288.272413 52.826802 
L 288.447587 52.972995 
L 288.535173 51.803452 
L 288.710347 54.581117 
L 288.797933 53.996345 
L 288.973107 52.826802 
L 289.060693 53.850152 
L 289.14828 54.581117 
L 289.14828 54.288731 
L 289.235867 54.288731 
L 289.323453 54.142538 
L 289.41104 54.288731 
L 289.498627 55.896853 
L 289.6738 56.77401 
L 289.6738 56.627817 
L 289.93656 57.943553 
L 290.024147 56.335431 
L 290.111733 55.312081 
L 290.19932 55.604467 
L 290.19932 56.043046 
L 290.286906 55.458274 
L 290.46208 54.142538 
L 290.549666 54.873503 
L 290.72484 53.557766 
L 290.900013 54.288731 
L 290.9876 55.75066 
L 291.075186 54.72731 
L 291.162773 57.651168 
L 291.77588 53.996345 
L 291.77588 54.581117 
L 291.863466 54.288731 
L 291.951053 54.142538 
L 292.126226 55.165888 
L 292.3014 57.651168 
L 292.3014 56.627817 
L 292.476573 56.335431 
L 292.56416 58.235939 
L 292.56416 56.77401 
L 292.739333 55.75066 
L 292.914506 55.75066 
L 293.08968 54.873503 
L 293.177266 55.019695 
L 293.264853 52.972995 
L 293.527613 56.77401 
L 293.615199 56.920203 
L 293.790373 58.235939 
L 294.228306 55.165888 
L 294.228306 55.75066 
L 294.315893 55.165888 
L 294.403479 54.873503 
L 294.753826 57.943553 
L 294.841413 59.990254 
L 294.928999 59.844061 
L 295.279346 60.575025 
L 295.366933 60.136447 
L 295.454519 57.504975 
L 295.542106 57.651168 
L 295.629693 55.896853 
L 295.717279 56.189239 
L 295.804866 55.75066 
L 295.804866 54.873503 
L 295.892453 55.458274 
L 296.067626 56.043046 
L 296.067626 55.896853 
L 296.155213 55.458274 
L 296.242799 57.212589 
L 296.593146 54.434924 
L 296.593146 53.850152 
L 296.680733 54.142538 
L 297.118666 49.318173 
L 297.206252 49.17198 
L 297.206252 48.879594 
L 297.469012 49.025787 
L 297.556599 50.926294 
L 297.731772 49.756751 
L 297.819359 50.341523 
L 297.906946 50.19533 
L 297.994532 50.633909 
L 297.994532 49.610558 
L 298.082119 49.610558 
L 298.257292 50.19533 
L 298.257292 50.19533 
L 298.344879 50.341523 
L 298.520052 51.364873 
L 298.520052 51.364873 
L 298.607639 50.487716 
L 298.782812 51.21868 
L 298.870399 49.318173 
L 299.045572 51.803452 
L 299.133159 54.434924 
L 299.308332 56.627817 
L 299.395919 56.627817 
L 299.658679 55.75066 
L 299.746266 55.896853 
L 299.833852 57.358782 
L 299.921439 57.212589 
L 300.009026 56.481624 
L 300.359372 59.844061 
L 300.446959 59.259289 
L 300.534545 58.966904 
L 300.622132 59.405482 
L 300.709719 60.575025 
L 300.797305 60.28264 
L 300.884892 59.259289 
L 300.972479 62.767919 
L 301.060065 62.32934 
L 301.410412 59.697868 
L 301.497999 58.966904 
L 301.585585 59.259289 
L 301.673172 59.697868 
L 301.935932 59.405482 
L 302.111105 60.136447 
L 302.373865 57.504975 
L 302.461452 57.504975 
L 302.549039 57.212589 
L 302.549039 56.77401 
L 302.636625 57.066396 
L 302.724212 56.335431 
L 302.811799 56.481624 
L 302.811799 57.504975 
L 302.899385 57.212589 
L 302.986972 57.651168 
L 303.074559 56.920203 
L 303.162145 56.043046 
L 303.249732 56.335431 
L 303.424905 55.75066 
L 303.512492 56.189239 
L 303.600078 55.019695 
L 303.687665 56.043046 
L 303.775252 55.458274 
L 303.950425 56.043046 
L 303.950425 55.604467 
L 304.213185 55.458274 
L 304.300772 55.604467 
L 304.388358 56.481624 
L 304.475945 56.335431 
L 304.475945 57.066396 
L 304.563532 56.481624 
L 304.651118 56.481624 
L 304.738705 56.77401 
L 304.738705 56.627817 
L 304.913878 55.75066 
L 305.089052 54.581117 
L 305.176638 54.581117 
L 305.264225 54.72731 
L 305.351812 53.850152 
L 305.439398 54.142538 
L 305.614572 51.072487 
L 305.789745 53.265381 
L 305.789745 52.095838 
L 305.964918 53.265381 
L 306.052505 52.24203 
L 306.052505 52.534416 
L 306.140092 52.972995 
L 306.227678 52.095838 
L 306.578025 51.511066 
L 306.665612 49.756751 
L 306.665612 50.19533 
L 306.840785 51.657259 
L 306.928371 51.511066 
L 306.928371 51.511066 
L 307.103545 51.803452 
L 307.278718 50.926294 
L 307.453891 50.487716 
L 307.453891 52.095838 
L 307.541478 51.364873 
L 307.716651 52.388223 
L 307.804238 53.265381 
L 307.891825 53.411574 
L 307.979411 52.972995 
L 308.066998 51.072487 
L 308.154585 52.388223 
L 308.242171 51.949645 
L 308.329758 53.265381 
L 308.504931 51.949645 
L 308.680105 52.388223 
L 308.767691 53.411574 
L 308.942865 51.803452 
L 309.293211 54.288731 
L 309.293211 52.826802 
L 309.380798 54.288731 
L 309.468385 55.604467 
L 309.731145 53.411574 
L 309.818731 54.581117 
L 309.818731 54.581117 
L 309.993905 53.557766 
L 310.081491 53.850152 
L 310.169078 55.604467 
L 310.344251 53.996345 
L 310.431838 54.288731 
L 310.607011 54.142538 
L 310.607011 52.972995 
L 310.694598 53.265381 
L 310.957358 53.265381 
L 311.044944 53.850152 
L 311.132531 54.288731 
L 311.132531 55.019695 
L 311.220118 54.873503 
L 311.307704 53.703959 
L 311.395291 55.019695 
L 311.482878 54.72731 
L 311.570464 53.996345 
L 311.658051 54.288731 
L 311.658051 54.288731 
L 311.833224 57.066396 
L 311.920811 55.604467 
L 312.008398 56.189239 
L 312.183571 57.504975 
L 312.358744 56.920203 
L 312.446331 57.943553 
L 312.446331 57.79736 
L 312.621504 57.212589 
L 312.796678 59.405482 
L 312.884264 59.113096 
L 312.971851 59.405482 
L 313.147024 59.113096 
L 313.322198 57.358782 
L 313.409784 58.528325 
L 313.497371 57.651168 
L 313.497371 58.674518 
L 313.672544 58.235939 
L 313.760131 57.651168 
L 313.847717 57.066396 
L 313.935304 57.212589 
L 314.022891 56.920203 
L 314.022891 58.528325 
L 314.110477 57.943553 
L 314.198064 57.943553 
L 314.373237 58.674518 
L 314.460824 59.551675 
L 314.635997 57.79736 
L 314.811171 60.867411 
L 314.811171 60.136447 
L 314.898757 58.820711 
L 314.986344 58.966904 
L 315.073931 58.966904 
L 315.073931 58.382132 
L 315.161517 58.382132 
L 315.336691 58.820711 
L 315.424277 59.551675 
L 315.599451 59.259289 
L 315.599451 59.405482 
L 315.687037 58.966904 
L 315.774624 58.966904 
L 316.037384 56.189239 
L 316.124971 56.77401 
L 316.124971 55.604467 
L 316.212557 56.335431 
L 316.300144 56.627817 
L 316.387731 55.75066 
L 316.475317 53.265381 
L 316.562904 51.949645 
L 316.562904 52.972995 
L 316.650491 53.119188 
L 316.738077 53.557766 
L 316.825664 50.633909 
L 316.91325 51.364873 
L 317.088424 54.142538 
L 317.17601 53.996345 
L 317.263597 54.142538 
L 317.43877 51.657259 
L 317.613944 53.850152 
L 317.876704 52.24203 
L 317.876704 52.534416 
L 318.051877 54.434924 
L 318.139464 55.165888 
L 318.22705 53.265381 
L 318.314637 53.703959 
L 318.314637 53.557766 
L 318.402224 52.680609 
L 318.48981 52.972995 
L 318.664984 54.873503 
L 318.75257 53.996345 
L 319.01533 56.77401 
L 319.102917 56.335431 
L 319.365677 53.850152 
L 319.365677 53.265381 
L 319.453264 53.265381 
L 319.54085 52.826802 
L 319.628437 51.072487 
L 319.628437 51.803452 
L 319.891197 52.095838 
L 319.978784 51.949645 
L 319.978784 51.364873 
L 320.06637 51.803452 
L 320.153957 52.095838 
L 320.59189 49.756751 
L 320.679477 49.464365 
L 320.767063 51.364873 
L 320.85465 50.926294 
L 320.942237 49.902944 
L 321.204997 45.66335 
L 321.204997 46.101929 
L 321.38017 45.809543 
L 321.555343 48.587208 
L 321.64293 49.464365 
L 321.90569 47.417665 
L 322.080863 47.417665 
L 322.256037 45.809543 
L 322.343623 46.394315 
L 322.43121 46.979086 
L 322.518797 47.271472 
L 322.518797 47.856244 
L 322.606383 47.710051 
L 322.69397 48.441015 
L 322.781557 47.271472 
L 322.95673 45.955736 
L 323.307077 48.587208 
L 323.307077 48.441015 
L 323.394663 48.002437 
L 323.48225 48.441015 
L 323.569836 47.417665 
L 323.569836 47.563858 
L 323.657423 47.856244 
L 323.74501 48.587208 
L 323.832596 48.294822 
L 323.832596 48.587208 
L 324.095356 51.072487 
L 324.358116 51.803452 
L 324.445703 51.511066 
L 324.53329 52.24203 
L 324.620876 52.24203 
L 324.708463 53.119188 
L 324.883636 51.21868 
L 325.05881 52.095838 
L 325.146396 51.364873 
L 325.233983 51.511066 
L 325.409156 50.049137 
L 325.58433 51.21868 
L 325.84709 49.17198 
L 325.934676 50.19533 
L 325.934676 49.17198 
L 326.022263 49.17198 
L 326.10985 49.464365 
L 326.197436 46.394315 
L 326.285023 46.686701 
L 326.37261 45.517157 
L 326.63537 45.078579 
L 326.722956 45.66335 
L 326.722956 44.64 
L 326.810543 44.786193 
L 326.898129 46.248122 
L 326.985716 45.955736 
L 327.073303 45.078579 
L 327.511236 49.610558 
L 327.598823 47.271472 
L 327.686409 47.125279 
L 327.773996 47.563858 
L 327.773996 47.563858 
L 327.861583 48.879594 
L 328.036756 46.540508 
L 328.036756 47.856244 
L 328.211929 47.125279 
L 328.299516 48.733401 
L 328.299516 48.148629 
L 328.387103 48.148629 
L 328.474689 49.17198 
L 328.825036 47.710051 
L 328.912623 46.394315 
L 329.000209 45.955736 
L 329.262969 48.002437 
L 329.350556 47.710051 
L 329.350556 48.002437 
L 329.613316 45.809543 
L 329.613316 45.955736 
L 329.700903 46.686701 
L 329.788489 46.101929 
L 330.138836 48.879594 
L 330.226422 48.294822 
L 330.401596 46.979086 
L 330.401596 47.710051 
L 330.489182 46.979086 
L 330.664356 48.294822 
L 330.664356 49.17198 
L 330.751942 48.733401 
L 330.839529 50.049137 
L 331.014702 50.926294 
L 331.189876 52.388223 
L 331.277462 52.24203 
L 331.365049 51.364873 
L 331.978156 55.458274 
L 331.978156 54.873503 
L 332.065742 54.581117 
L 332.240916 53.265381 
L 332.328502 55.019695 
L 332.503676 55.312081 
L 332.591262 57.212589 
L 332.678849 57.358782 
L 332.766436 56.77401 
L 332.854022 57.79736 
L 332.941609 57.358782 
L 332.941609 57.943553 
L 333.029196 57.212589 
L 333.291956 56.77401 
L 333.291956 57.358782 
L 333.379542 57.358782 
L 333.467129 58.528325 
L 333.554716 58.235939 
L 333.642302 57.651168 
L 333.992649 61.013604 
L 333.992649 60.428832 
L 334.342995 57.943553 
L 334.430582 57.79736 
L 334.693342 59.113096 
L 334.693342 59.113096 
L 334.780929 59.259289 
L 334.868515 58.966904 
L 334.956102 59.551675 
L 335.043689 57.504975 
L 335.218862 57.212589 
L 335.218862 55.312081 
L 335.481622 55.312081 
L 335.569209 54.434924 
L 335.656795 55.165888 
L 335.744382 57.066396 
L 335.831969 55.019695 
L 335.919555 55.458274 
L 336.007142 55.165888 
L 336.094729 54.288731 
L 336.094729 55.019695 
L 336.357489 57.504975 
L 336.445075 57.212589 
L 336.532662 57.212589 
L 336.532662 57.79736 
L 336.620249 57.358782 
L 336.795422 55.896853 
L 336.883009 57.651168 
L 337.058182 56.920203 
L 337.145768 59.259289 
L 337.233355 59.405482 
L 337.320942 59.990254 
L 337.320942 61.30599 
L 337.408528 61.013604 
L 337.671288 63.060305 
L 337.934048 60.867411 
L 338.109222 58.966904 
L 338.371982 57.79736 
L 338.459568 58.089746 
L 338.547155 57.943553 
L 338.634742 59.259289 
L 338.985088 57.943553 
L 339.072675 55.604467 
L 339.072675 56.627817 
L 339.160262 57.066396 
L 339.247848 56.627817 
L 339.598195 57.79736 
L 339.685782 55.75066 
L 339.773368 54.581117 
L 339.948542 53.850152 
L 340.123715 55.458274 
L 340.211302 54.72731 
L 340.298888 55.458274 
L 340.561648 53.119188 
L 340.649235 52.972995 
L 340.736821 50.926294 
L 340.824408 51.949645 
L 340.911995 50.341523 
L 340.999581 51.21868 
L 341.174755 51.949645 
L 341.262341 49.318173 
L 341.349928 49.902944 
L 341.437515 49.318173 
L 341.437515 49.318173 
L 341.612688 47.563858 
L 341.700275 47.417665 
L 341.700275 48.879594 
L 341.787861 48.294822 
L 341.963035 49.318173 
L 341.963035 49.025787 
L 342.225795 49.025787 
L 342.313381 51.364873 
L 342.400968 50.926294 
L 342.488555 51.072487 
L 342.576141 52.388223 
L 342.576141 52.24203 
L 342.751315 50.487716 
L 342.838901 50.926294 
L 342.926488 49.902944 
L 343.101661 50.487716 
L 343.189248 49.902944 
L 343.276835 50.487716 
L 343.364421 48.879594 
L 343.452008 49.902944 
L 343.539595 49.610558 
L 343.627181 50.19533 
L 343.627181 49.318173 
L 343.714768 50.19533 
L 343.889941 48.879594 
L 344.152701 49.902944 
L 344.152701 49.756751 
L 344.240288 50.049137 
L 344.327874 48.148629 
L 344.590634 46.101929 
L 344.678221 46.540508 
L 344.765808 45.955736 
L 344.853394 47.125279 
L 345.028568 49.17198 
L 345.028568 49.17198 
L 345.203741 48.294822 
L 345.291328 50.19533 
L 345.291328 49.464365 
L 345.378914 49.025787 
L 345.554088 53.557766 
L 345.554088 53.265381 
L 345.729261 50.926294 
L 345.904434 51.949645 
L 346.342368 49.464365 
L 346.605128 52.24203 
L 346.780301 52.388223 
L 346.867888 53.850152 
L 346.955474 53.703959 
L 347.043061 53.703959 
L 347.130647 52.24203 
L 347.130647 52.680609 
L 347.305821 55.019695 
L 347.393407 53.703959 
L 347.480994 54.873503 
L 347.743754 51.511066 
L 347.918927 54.72731 
L 348.006514 53.996345 
L 348.181687 53.850152 
L 348.532034 55.604467 
L 348.532034 55.458274 
L 348.619621 54.288731 
L 348.707207 54.434924 
L 348.794794 53.850152 
L 348.794794 54.288731 
L 348.882381 52.24203 
L 349.145141 52.095838 
L 349.145141 52.388223 
L 349.232727 52.388223 
L 349.320314 52.534416 
L 349.495487 50.049137 
L 349.495487 49.025787 
L 349.583074 49.025787 
L 349.845834 46.540508 
L 350.021007 48.002437 
L 350.108594 46.686701 
L 350.283767 45.370964 
L 351.159634 51.803452 
L 351.334807 54.142538 
L 351.50998 54.142538 
L 351.597567 53.996345 
L 351.947914 56.627817 
L 352.29826 58.674518 
L 352.29826 58.382132 
L 352.385847 58.089746 
L 352.473434 58.820711 
L 352.56102 58.528325 
L 352.648607 59.113096 
L 352.82378 57.212589 
L 352.911367 58.235939 
L 353.174127 55.458274 
L 353.261714 55.165888 
L 353.3493 55.75066 
L 353.3493 55.312081 
L 353.436887 53.996345 
L 353.524474 54.142538 
L 353.61206 53.850152 
L 353.699647 53.996345 
L 353.87482 53.850152 
L 354.049993 55.75066 
L 354.049993 55.019695 
L 354.13758 54.873503 
L 354.225167 55.019695 
L 354.312753 55.604467 
L 354.40034 53.850152 
L 354.575513 55.604467 
L 354.6631 54.581117 
L 354.750687 54.72731 
L 354.92586 53.850152 
L 355.013447 53.703959 
L 355.101033 53.850152 
L 355.101033 54.434924 
L 355.18862 53.265381 
L 355.276207 52.680609 
L 355.363793 53.265381 
L 355.363793 52.826802 
L 355.45138 51.657259 
L 355.538967 52.095838 
L 355.626553 51.803452 
L 355.71414 50.19533 
L 355.801727 50.19533 
L 356.064487 49.902944 
L 356.23966 49.756751 
L 356.23966 50.19533 
L 356.327247 49.610558 
L 356.414833 49.610558 
L 356.50242 50.19533 
L 356.50242 51.364873 
L 356.590007 50.633909 
L 356.677593 51.657259 
L 356.76518 50.487716 
L 356.76518 52.095838 
L 356.852767 51.21868 
L 357.115526 54.581117 
L 357.203113 54.288731 
L 357.2907 53.557766 
L 357.2907 53.703959 
L 357.378286 54.581117 
L 357.55346 53.411574 
L 357.641046 53.411574 
L 357.641046 53.119188 
L 357.728633 54.873503 
L 357.81622 54.72731 
L 357.991393 57.066396 
L 358.254153 55.019695 
L 358.34174 55.604467 
L 358.429326 54.581117 
L 358.516913 55.165888 
L 358.516913 54.72731 
L 358.6045 54.72731 
L 358.86726 53.850152 
L 358.86726 54.873503 
L 358.954846 54.72731 
L 359.042433 55.458274 
L 359.217606 53.411574 
L 359.305193 53.703959 
L 359.305193 54.288731 
L 359.39278 53.850152 
L 359.480366 55.604467 
L 359.567953 55.312081 
L 359.65554 55.604467 
L 359.9183 59.259289 
L 360.093473 56.335431 
L 360.268646 55.165888 
L 360.356233 55.604467 
L 360.531406 56.627817 
L 360.706579 56.627817 
L 360.881753 57.504975 
L 360.969339 56.627817 
L 361.144513 57.358782 
L 361.319686 55.458274 
L 361.494859 56.189239 
L 361.582446 55.604467 
L 361.757619 53.703959 
L 361.845206 53.411574 
L 361.932793 54.142538 
L 362.107966 52.680609 
L 362.107966 52.972995 
L 362.195553 52.972995 
L 362.283139 52.388223 
L 362.633486 55.165888 
L 362.721073 55.165888 
L 362.808659 55.312081 
L 362.896246 54.72731 
L 362.983833 56.189239 
L 363.071419 54.72731 
L 363.421766 53.119188 
L 363.509353 51.364873 
L 363.509353 52.388223 
L 363.596939 52.24203 
L 364.034872 55.604467 
L 364.034872 54.434924 
L 364.210046 55.458274 
L 364.385219 54.288731 
L 364.472806 55.458274 
L 364.560392 55.165888 
L 364.735566 56.043046 
L 364.910739 53.996345 
L 364.998326 55.458274 
L 364.998326 54.72731 
L 365.085912 54.434924 
L 365.261086 55.312081 
L 365.348672 55.604467 
L 365.348672 56.189239 
L 365.436259 54.873503 
L 365.523846 55.312081 
L 365.699019 58.528325 
L 365.874192 59.259289 
L 366.312126 55.458274 
L 366.312126 54.288731 
L 366.399712 54.434924 
L 366.487299 54.72731 
L 366.662472 53.557766 
L 366.837646 54.873503 
L 367.012819 54.142538 
L 367.100405 55.896853 
L 367.187992 54.142538 
L 367.275579 54.288731 
L 367.363165 53.850152 
L 367.450752 53.996345 
L 367.625925 53.265381 
L 367.625925 52.826802 
L 367.713512 53.850152 
L 367.801099 54.142538 
L 368.063859 50.049137 
L 368.326619 50.487716 
L 368.414205 51.21868 
L 368.501792 49.318173 
L 368.589379 50.049137 
L 368.676965 49.464365 
L 368.764552 52.095838 
L 368.852139 52.24203 
L 368.939725 52.826802 
L 369.027312 52.388223 
L 369.027312 52.680609 
L 369.202485 50.341523 
L 369.465245 52.680609 
L 369.552832 52.388223 
L 369.640419 52.388223 
L 369.728005 50.926294 
L 369.815592 51.364873 
L 370.078352 49.610558 
L 370.165939 49.610558 
L 370.516285 52.680609 
L 370.779045 53.703959 
L 370.779045 53.703959 
L 370.954218 56.335431 
L 371.129392 53.703959 
L 371.129392 54.142538 
L 371.304565 55.165888 
L 371.392152 54.581117 
L 371.392152 54.72731 
L 371.479738 56.481624 
L 371.742498 54.434924 
L 371.830085 54.434924 
L 372.180432 59.259289 
L 372.355605 58.820711 
L 372.443192 58.528325 
L 372.530778 59.990254 
L 373.231472 56.043046 
L 373.231472 56.335431 
L 373.319058 57.212589 
L 373.581818 55.458274 
L 373.581818 55.75066 
" clip-path="url(#p2c867c866b)" style="fill: none; stroke: #1f77b4; stroke-width: 1.5; stroke-linecap: square"/>
   </g>
   <g id="line2d_32">
    <path d="M 80.429274 189.078579 
L 83.14446 173.947614 
L 85.77206 161.009543 
L 90.676913 131.405482 
L 93.129339 118.467411 
L 95.581766 110.353706 
L 100.223859 100.047107 
L 102.588698 91.933401 
L 104.865952 87.766904 
L 107.318378 86.670457 
L 109.770804 82.723249 
L 112.485991 83.600406 
L 115.113591 81.626802 
L 117.566017 80.968934 
L 119.84327 77.021726 
L 122.120523 76.144569 
L 124.485363 76.363858 
L 126.850203 78.556751 
L 129.127456 75.70599 
L 131.492296 76.144569 
L 133.944722 75.70599 
L 136.397148 71.758782 
L 138.674402 74.609543 
L 140.951655 73.293807 
L 143.228908 73.513096 
L 145.593748 72.855228 
L 147.871001 68.250152 
L 150.148254 64.522234 
L 152.513094 66.057259 
L 154.877933 65.180102 
L 157.155186 61.452183 
L 159.520026 62.110051 
L 161.972453 57.066396 
L 164.249706 58.382132 
L 166.702132 57.724264 
L 169.066972 56.408528 
L 171.694572 59.04 
L 174.059411 59.917157 
L 176.599424 58.382132 
L 178.964264 56.408528 
L 181.416691 58.820711 
L 183.693944 57.285685 
L 186.14637 58.382132 
L 188.51121 55.092792 
L 191.051223 55.75066 
L 193.503649 55.969949 
L 195.956076 53.996345 
L 198.408502 53.557766 
L 200.685755 49.610558 
L 203.050595 50.268426 
L 205.327848 49.17198 
L 207.692688 49.17198 
L 210.057528 48.514112 
L 212.422368 50.049137 
L 214.612034 49.610558 
L 216.889287 49.391269 
L 219.254127 51.803452 
L 221.706553 53.338477 
L 224.15898 55.531371 
L 226.611406 56.408528 
L 229.063833 58.162843 
L 231.516259 59.04 
L 233.968685 59.697868 
L 236.333525 58.162843 
L 238.785952 58.382132 
L 241.238378 57.943553 
L 243.515631 56.847107 
L 245.968058 57.504975 
L 248.332897 57.724264 
L 250.697737 57.066396 
L 253.062577 56.847107 
L 255.427417 54.873503 
L 260.244683 56.627817 
L 262.784696 54.434924 
L 265.149536 56.847107 
L 267.601962 55.969949 
L 270.054388 54.873503 
L 272.506815 55.312081 
L 274.784068 54.215635 
L 277.148908 53.777056 
L 279.426161 56.189239 
L 281.615827 53.996345 
L 283.89308 55.531371 
L 286.170334 59.259289 
L 288.36 59.478579 
L 290.637253 59.259289 
L 292.82692 59.478579 
L 295.104173 59.917157 
L 297.381426 60.136447 
L 299.571092 58.820711 
L 301.848345 60.794315 
L 304.125598 61.232893 
L 306.315265 59.697868 
L 308.592518 57.724264 
L 310.869771 55.312081 
L 313.059438 54.873503 
L 315.249104 52.680609 
L 317.526357 54.873503 
L 319.80361 55.092792 
L 321.993277 55.531371 
L 324.27053 52.46132 
L 326.460196 52.24203 
L 328.737449 53.777056 
L 330.927116 53.557766 
L 333.204369 52.24203 
L 335.394035 51.145584 
L 337.583702 53.777056 
L 339.860955 49.610558 
L 342.138208 47.856244 
L 344.415461 46.759797 
L 346.692714 45.88264 
L 349.057554 47.198376 
L 351.422394 44.786193 
L 353.787233 45.005482 
L 355.889313 45.88264 
L 358.166566 47.856244 
L 360.618993 47.856244 
L 363.246593 49.610558 
L 363.246593 49.610558 
" clip-path="url(#p2c867c866b)" style="fill: none; stroke: #ff7f0e; stroke-width: 1.5; stroke-linecap: square"/>
   </g>
   <g id="patch_3">
    <path d="M 54 256.32 
L 54 34.56 
" style="fill: none; stroke: #000000; stroke-width: 0.8; stroke-linejoin: miter; stroke-linecap: square"/>
   </g>
   <g id="patch_4">
    <path d="M 388.8 256.32 
L 388.8 34.56 
" style="fill: none; stroke: #000000; stroke-width: 0.8; stroke-linejoin: miter; stroke-linecap: square"/>
   </g>
   <g id="patch_5">
    <path d="M 54 256.32 
L 388.8 256.32 
" style="fill: none; stroke: #000000; stroke-width: 0.8; stroke-linejoin: miter; stroke-linecap: square"/>
   </g>
   <g id="patch_6">
    <path d="M 54 34.56 
L 388.8 34.56 
" style="fill: none; stroke: #000000; stroke-width: 0.8; stroke-linejoin: miter; stroke-linecap: square"/>
   </g>
   <g id="text_18">
    <!-- Percentage of slightly modified letters classified correctly -->
    <g transform="translate(49.1025 28.56)scale(0.12 -0.12)">
     <defs>
      <path id="DejaVuSans-50" d="M 1259 4147 
L 1259 2394 
L 2053 2394 
Q 2494 2394 2734 2622 
Q 2975 2850 2975 3272 
Q 2975 3691 2734 3919 
Q 2494 4147 2053 4147 
L 1259 4147 
z
M 628 4666 
L 2053 4666 
Q 2838 4666 3239 4311 
Q 3641 3956 3641 3272 
Q 3641 2581 3239 2228 
Q 2838 1875 2053 1875 
L 1259 1875 
L 1259 0 
L 628 0 
L 628 4666 
z
" transform="scale(0.015625)"/>
      <path id="DejaVuSans-72" d="M 2631 2963 
Q 2534 3019 2420 3045 
Q 2306 3072 2169 3072 
Q 1681 3072 1420 2755 
Q 1159 2438 1159 1844 
L 1159 0 
L 581 0 
L 581 3500 
L 1159 3500 
L 1159 2956 
Q 1341 3275 1631 3429 
Q 1922 3584 2338 3584 
Q 2397 3584 2469 3576 
Q 2541 3569 2628 3553 
L 2631 2963 
z
" transform="scale(0.015625)"/>
      <path id="DejaVuSans-63" d="M 3122 3366 
L 3122 2828 
Q 2878 2963 2633 3030 
Q 2388 3097 2138 3097 
Q 1578 3097 1268 2742 
Q 959 2388 959 1747 
Q 959 1106 1268 751 
Q 1578 397 2138 397 
Q 2388 397 2633 464 
Q 2878 531 3122 666 
L 3122 134 
Q 2881 22 2623 -34 
Q 2366 -91 2075 -91 
Q 1284 -91 818 406 
Q 353 903 353 1747 
Q 353 2603 823 3093 
Q 1294 3584 2113 3584 
Q 2378 3584 2631 3529 
Q 2884 3475 3122 3366 
z
" transform="scale(0.015625)"/>
      <path id="DejaVuSans-61" d="M 2194 1759 
Q 1497 1759 1228 1600 
Q 959 1441 959 1056 
Q 959 750 1161 570 
Q 1363 391 1709 391 
Q 2188 391 2477 730 
Q 2766 1069 2766 1631 
L 2766 1759 
L 2194 1759 
z
M 3341 1997 
L 3341 0 
L 2766 0 
L 2766 531 
Q 2569 213 2275 61 
Q 1981 -91 1556 -91 
Q 1019 -91 701 211 
Q 384 513 384 1019 
Q 384 1609 779 1909 
Q 1175 2209 1959 2209 
L 2766 2209 
L 2766 2266 
Q 2766 2663 2505 2880 
Q 2244 3097 1772 3097 
Q 1472 3097 1187 3025 
Q 903 2953 641 2809 
L 641 3341 
Q 956 3463 1253 3523 
Q 1550 3584 1831 3584 
Q 2591 3584 2966 3190 
Q 3341 2797 3341 1997 
z
" transform="scale(0.015625)"/>
      <path id="DejaVuSans-67" d="M 2906 1791 
Q 2906 2416 2648 2759 
Q 2391 3103 1925 3103 
Q 1463 3103 1205 2759 
Q 947 2416 947 1791 
Q 947 1169 1205 825 
Q 1463 481 1925 481 
Q 2391 481 2648 825 
Q 2906 1169 2906 1791 
z
M 3481 434 
Q 3481 -459 3084 -895 
Q 2688 -1331 1869 -1331 
Q 1566 -1331 1297 -1286 
Q 1028 -1241 775 -1147 
L 775 -588 
Q 1028 -725 1275 -790 
Q 1522 -856 1778 -856 
Q 2344 -856 2625 -561 
Q 2906 -266 2906 331 
L 2906 616 
Q 2728 306 2450 153 
Q 2172 0 1784 0 
Q 1141 0 747 490 
Q 353 981 353 1791 
Q 353 2603 747 3093 
Q 1141 3584 1784 3584 
Q 2172 3584 2450 3431 
Q 2728 3278 2906 2969 
L 2906 3500 
L 3481 3500 
L 3481 434 
z
" transform="scale(0.015625)"/>
      <path id="DejaVuSans-20" transform="scale(0.015625)"/>
      <path id="DejaVuSans-6f" d="M 1959 3097 
Q 1497 3097 1228 2736 
Q 959 2375 959 1747 
Q 959 1119 1226 758 
Q 1494 397 1959 397 
Q 2419 397 2687 759 
Q 2956 1122 2956 1747 
Q 2956 2369 2687 2733 
Q 2419 3097 1959 3097 
z
M 1959 3584 
Q 2709 3584 3137 3096 
Q 3566 2609 3566 1747 
Q 3566 888 3137 398 
Q 2709 -91 1959 -91 
Q 1206 -91 779 398 
Q 353 888 353 1747 
Q 353 2609 779 3096 
Q 1206 3584 1959 3584 
z
" transform="scale(0.015625)"/>
      <path id="DejaVuSans-66" d="M 2375 4863 
L 2375 4384 
L 1825 4384 
Q 1516 4384 1395 4259 
Q 1275 4134 1275 3809 
L 1275 3500 
L 2222 3500 
L 2222 3053 
L 1275 3053 
L 1275 0 
L 697 0 
L 697 3053 
L 147 3053 
L 147 3500 
L 697 3500 
L 697 3744 
Q 697 4328 969 4595 
Q 1241 4863 1831 4863 
L 2375 4863 
z
" transform="scale(0.015625)"/>
      <path id="DejaVuSans-6c" d="M 603 4863 
L 1178 4863 
L 1178 0 
L 603 0 
L 603 4863 
z
" transform="scale(0.015625)"/>
      <path id="DejaVuSans-68" d="M 3513 2113 
L 3513 0 
L 2938 0 
L 2938 2094 
Q 2938 2591 2744 2837 
Q 2550 3084 2163 3084 
Q 1697 3084 1428 2787 
Q 1159 2491 1159 1978 
L 1159 0 
L 581 0 
L 581 4863 
L 1159 4863 
L 1159 2956 
Q 1366 3272 1645 3428 
Q 1925 3584 2291 3584 
Q 2894 3584 3203 3211 
Q 3513 2838 3513 2113 
z
" transform="scale(0.015625)"/>
      <path id="DejaVuSans-79" d="M 2059 -325 
Q 1816 -950 1584 -1140 
Q 1353 -1331 966 -1331 
L 506 -1331 
L 506 -850 
L 844 -850 
Q 1081 -850 1212 -737 
Q 1344 -625 1503 -206 
L 1606 56 
L 191 3500 
L 800 3500 
L 1894 763 
L 2988 3500 
L 3597 3500 
L 2059 -325 
z
" transform="scale(0.015625)"/>
      <path id="DejaVuSans-6d" d="M 3328 2828 
Q 3544 3216 3844 3400 
Q 4144 3584 4550 3584 
Q 5097 3584 5394 3201 
Q 5691 2819 5691 2113 
L 5691 0 
L 5113 0 
L 5113 2094 
Q 5113 2597 4934 2840 
Q 4756 3084 4391 3084 
Q 3944 3084 3684 2787 
Q 3425 2491 3425 1978 
L 3425 0 
L 2847 0 
L 2847 2094 
Q 2847 2600 2669 2842 
Q 2491 3084 2119 3084 
Q 1678 3084 1418 2786 
Q 1159 2488 1159 1978 
L 1159 0 
L 581 0 
L 581 3500 
L 1159 3500 
L 1159 2956 
Q 1356 3278 1631 3431 
Q 1906 3584 2284 3584 
Q 2666 3584 2933 3390 
Q 3200 3197 3328 2828 
z
" transform="scale(0.015625)"/>
      <path id="DejaVuSans-64" d="M 2906 2969 
L 2906 4863 
L 3481 4863 
L 3481 0 
L 2906 0 
L 2906 525 
Q 2725 213 2448 61 
Q 2172 -91 1784 -91 
Q 1150 -91 751 415 
Q 353 922 353 1747 
Q 353 2572 751 3078 
Q 1150 3584 1784 3584 
Q 2172 3584 2448 3432 
Q 2725 3281 2906 2969 
z
M 947 1747 
Q 947 1113 1208 752 
Q 1469 391 1925 391 
Q 2381 391 2643 752 
Q 2906 1113 2906 1747 
Q 2906 2381 2643 2742 
Q 2381 3103 1925 3103 
Q 1469 3103 1208 2742 
Q 947 2381 947 1747 
z
" transform="scale(0.015625)"/>
     </defs>
     <use xlink:href="#DejaVuSans-50"/>
     <use xlink:href="#DejaVuSans-65" x="56.677734"/>
     <use xlink:href="#DejaVuSans-72" x="118.201172"/>
     <use xlink:href="#DejaVuSans-63" x="157.064453"/>
     <use xlink:href="#DejaVuSans-65" x="212.044922"/>
     <use xlink:href="#DejaVuSans-6e" x="273.568359"/>
     <use xlink:href="#DejaVuSans-74" x="336.947266"/>
     <use xlink:href="#DejaVuSans-61" x="376.15625"/>
     <use xlink:href="#DejaVuSans-67" x="437.435547"/>
     <use xlink:href="#DejaVuSans-65" x="500.912109"/>
     <use xlink:href="#DejaVuSans-20" x="562.435547"/>
     <use xlink:href="#DejaVuSans-6f" x="594.222656"/>
     <use xlink:href="#DejaVuSans-66" x="655.404297"/>
     <use xlink:href="#DejaVuSans-20" x="690.609375"/>
     <use xlink:href="#DejaVuSans-73" x="722.396484"/>
     <use xlink:href="#DejaVuSans-6c" x="774.496094"/>
     <use xlink:href="#DejaVuSans-69" x="802.279297"/>
     <use xlink:href="#DejaVuSans-67" x="830.0625"/>
     <use xlink:href="#DejaVuSans-68" x="893.539062"/>
     <use xlink:href="#DejaVuSans-74" x="956.917969"/>
     <use xlink:href="#DejaVuSans-6c" x="996.126953"/>
     <use xlink:href="#DejaVuSans-79" x="1023.910156"/>
     <use xlink:href="#DejaVuSans-20" x="1083.089844"/>
     <use xlink:href="#DejaVuSans-6d" x="1114.876953"/>
     <use xlink:href="#DejaVuSans-6f" x="1212.289062"/>
     <use xlink:href="#DejaVuSans-64" x="1273.470703"/>
     <use xlink:href="#DejaVuSans-69" x="1336.947266"/>
     <use xlink:href="#DejaVuSans-66" x="1364.730469"/>
     <use xlink:href="#DejaVuSans-69" x="1399.935547"/>
     <use xlink:href="#DejaVuSans-65" x="1427.71875"/>
     <use xlink:href="#DejaVuSans-64" x="1489.242188"/>
     <use xlink:href="#DejaVuSans-20" x="1552.71875"/>
     <use xlink:href="#DejaVuSans-6c" x="1584.505859"/>
     <use xlink:href="#DejaVuSans-65" x="1612.289062"/>
     <use xlink:href="#DejaVuSans-74" x="1673.8125"/>
     <use xlink:href="#DejaVuSans-74" x="1713.021484"/>
     <use xlink:href="#DejaVuSans-65" x="1752.230469"/>
     <use xlink:href="#DejaVuSans-72" x="1813.753906"/>
     <use xlink:href="#DejaVuSans-73" x="1854.867188"/>
     <use xlink:href="#DejaVuSans-20" x="1906.966797"/>
     <use xlink:href="#DejaVuSans-63" x="1938.753906"/>
     <use xlink:href="#DejaVuSans-6c" x="1993.734375"/>
     <use xlink:href="#DejaVuSans-61" x="2021.517578"/>
     <use xlink:href="#DejaVuSans-73" x="2082.796875"/>
     <use xlink:href="#DejaVuSans-73" x="2134.896484"/>
     <use xlink:href="#DejaVuSans-69" x="2186.996094"/>
     <use xlink:href="#DejaVuSans-66" x="2214.779297"/>
     <use xlink:href="#DejaVuSans-69" x="2249.984375"/>
     <use xlink:href="#DejaVuSans-65" x="2277.767578"/>
     <use xlink:href="#DejaVuSans-64" x="2339.291016"/>
     <use xlink:href="#DejaVuSans-20" x="2402.767578"/>
     <use xlink:href="#DejaVuSans-63" x="2434.554688"/>
     <use xlink:href="#DejaVuSans-6f" x="2489.535156"/>
     <use xlink:href="#DejaVuSans-72" x="2550.716797"/>
     <use xlink:href="#DejaVuSans-72" x="2590.080078"/>
     <use xlink:href="#DejaVuSans-65" x="2628.943359"/>
     <use xlink:href="#DejaVuSans-63" x="2690.466797"/>
     <use xlink:href="#DejaVuSans-74" x="2745.447266"/>
     <use xlink:href="#DejaVuSans-6c" x="2784.65625"/>
     <use xlink:href="#DejaVuSans-79" x="2812.439453"/>
    </g>
   </g>
   <g id="legend_1">
    <g id="patch_7">
     <path d="M 300.565625 251.32 
L 381.8 251.32 
Q 383.8 251.32 383.8 249.32 
L 383.8 220.96375 
Q 383.8 218.96375 381.8 218.96375 
L 300.565625 218.96375 
Q 298.565625 218.96375 298.565625 220.96375 
L 298.565625 249.32 
Q 298.565625 251.32 300.565625 251.32 
z
" style="fill: #ffffff; opacity: 0.8; stroke: #cccccc; stroke-linejoin: miter"/>
    </g>
    <g id="line2d_33">
     <path d="M 302.565625 227.062187 
L 312.565625 227.062187 
L 322.565625 227.062187 
" style="fill: none; stroke: #1f77b4; stroke-width: 1.5; stroke-linecap: square"/>
    </g>
    <g id="text_19">
     <!-- training -->
     <g transform="translate(330.565625 230.562187)scale(0.1 -0.1)">
      <use xlink:href="#DejaVuSans-74"/>
      <use xlink:href="#DejaVuSans-72" x="39.208984"/>
      <use xlink:href="#DejaVuSans-61" x="80.322266"/>
      <use xlink:href="#DejaVuSans-69" x="141.601562"/>
      <use xlink:href="#DejaVuSans-6e" x="169.384766"/>
      <use xlink:href="#DejaVuSans-69" x="232.763672"/>
      <use xlink:href="#DejaVuSans-6e" x="260.546875"/>
      <use xlink:href="#DejaVuSans-67" x="323.925781"/>
     </g>
    </g>
    <g id="line2d_34">
     <path d="M 302.565625 241.740313 
L 312.565625 241.740313 
L 322.565625 241.740313 
" style="fill: none; stroke: #ff7f0e; stroke-width: 1.5; stroke-linecap: square"/>
    </g>
    <g id="text_20">
     <!-- validation -->
     <g transform="translate(330.565625 245.240313)scale(0.1 -0.1)">
      <defs>
       <path id="DejaVuSans-76" d="M 191 3500 
L 800 3500 
L 1894 563 
L 2988 3500 
L 3597 3500 
L 2284 0 
L 1503 0 
L 191 3500 
z
" transform="scale(0.015625)"/>
      </defs>
      <use xlink:href="#DejaVuSans-76"/>
      <use xlink:href="#DejaVuSans-61" x="59.179688"/>
      <use xlink:href="#DejaVuSans-6c" x="120.458984"/>
      <use xlink:href="#DejaVuSans-69" x="148.242188"/>
      <use xlink:href="#DejaVuSans-64" x="176.025391"/>
      <use xlink:href="#DejaVuSans-61" x="239.501953"/>
      <use xlink:href="#DejaVuSans-74" x="300.78125"/>
      <use xlink:href="#DejaVuSans-69" x="339.990234"/>
      <use xlink:href="#DejaVuSans-6f" x="367.773438"/>
      <use xlink:href="#DejaVuSans-6e" x="428.955078"/>
     </g>
    </g>
   </g>
  </g>
 </g>
 <defs>
  <clipPath id="p2c867c866b">
   <rect x="54" y="34.56" width="334.8" height="221.76"/>
  </clipPath>
 </defs>
</svg>
