<?xml version="1.0" encoding="utf-8" standalone="no"?>
<!DOCTYPE svg PUBLIC "-//W3C//DTD SVG 1.1//EN"
  "http://www.w3.org/Graphics/SVG/1.1/DTD/svg11.dtd">
<svg xmlns:xlink="http://www.w3.org/1999/xlink" width="432pt" height="288pt" viewBox="0 0 432 288" xmlns="http://www.w3.org/2000/svg" version="1.1">
 <metadata>
  <rdf:RDF xmlns:dc="http://purl.org/dc/elements/1.1/" xmlns:cc="http://creativecommons.org/ns#" xmlns:rdf="http://www.w3.org/1999/02/22-rdf-syntax-ns#">
   <cc:Work>
    <dc:type rdf:resource="http://purl.org/dc/dcmitype/StillImage"/>
    <dc:date>2023-03-25T14:30:45.038821</dc:date>
    <dc:format>image/svg+xml</dc:format>
    <dc:creator>
     <cc:Agent>
      <dc:title>Matplotlib v3.5.1, https://matplotlib.org/</dc:title>
     </cc:Agent>
    </dc:creator>
   </cc:Work>
  </rdf:RDF>
 </metadata>
 <defs>
  <style type="text/css">*{stroke-linejoin: round; stroke-linecap: butt}</style>
 </defs>
 <g id="figure_1">
  <g id="patch_1">
   <path d="M 0 288 
L 432 288 
L 432 0 
L 0 0 
z
" style="fill: #ffffff"/>
  </g>
  <g id="axes_1">
   <g id="patch_2">
    <path d="M 57.44 242.728 
L 421.2 242.728 
L 421.2 25.44 
L 57.44 25.44 
z
" style="fill: #ffffff"/>
   </g>
   <g id="patch_3">
    <path d="M 73.974545 242.728 
L 77.314858 242.728 
L 77.314858 241.311009 
L 73.974545 241.311009 
z
" clip-path="url(#p591c697e97)" style="fill: #2ca02c"/>
   </g>
   <g id="patch_4">
    <path d="M 77.314858 242.728 
L 80.65517 242.728 
L 80.65517 241.642645 
L 77.314858 241.642645 
z
" clip-path="url(#p591c697e97)" style="fill: #2ca02c"/>
   </g>
   <g id="patch_5">
    <path d="M 80.65517 242.728 
L 83.995482 242.728 
L 83.995482 241.672794 
L 80.65517 241.672794 
z
" clip-path="url(#p591c697e97)" style="fill: #2ca02c"/>
   </g>
   <g id="patch_6">
    <path d="M 83.995482 242.728 
L 87.335794 242.728 
L 87.335794 241.311009 
L 83.995482 241.311009 
z
" clip-path="url(#p591c697e97)" style="fill: #2ca02c"/>
   </g>
   <g id="patch_7">
    <path d="M 87.335794 242.728 
L 90.676107 242.728 
L 90.676107 241.039671 
L 87.335794 241.039671 
z
" clip-path="url(#p591c697e97)" style="fill: #2ca02c"/>
   </g>
   <g id="patch_8">
    <path d="M 90.676107 242.728 
L 94.016419 242.728 
L 94.016419 240.527142 
L 90.676107 240.527142 
z
" clip-path="url(#p591c697e97)" style="fill: #2ca02c"/>
   </g>
   <g id="patch_9">
    <path d="M 94.016419 242.728 
L 97.356731 242.728 
L 97.356731 240.587439 
L 94.016419 240.587439 
z
" clip-path="url(#p591c697e97)" style="fill: #2ca02c"/>
   </g>
   <g id="patch_10">
    <path d="M 97.356731 242.728 
L 100.697043 242.728 
L 100.697043 240.436696 
L 97.356731 240.436696 
z
" clip-path="url(#p591c697e97)" style="fill: #2ca02c"/>
   </g>
   <g id="patch_11">
    <path d="M 100.697043 242.728 
L 104.037355 242.728 
L 104.037355 239.682977 
L 100.697043 239.682977 
z
" clip-path="url(#p591c697e97)" style="fill: #2ca02c"/>
   </g>
   <g id="patch_12">
    <path d="M 104.037355 242.728 
L 107.377668 242.728 
L 107.377668 240.014613 
L 104.037355 240.014613 
z
" clip-path="url(#p591c697e97)" style="fill: #2ca02c"/>
   </g>
   <g id="patch_13">
    <path d="M 107.377668 242.728 
L 110.71798 242.728 
L 110.71798 239.351341 
L 107.377668 239.351341 
z
" clip-path="url(#p591c697e97)" style="fill: #2ca02c"/>
   </g>
   <g id="patch_14">
    <path d="M 110.71798 242.728 
L 114.058292 242.728 
L 114.058292 239.532234 
L 110.71798 239.532234 
z
" clip-path="url(#p591c697e97)" style="fill: #2ca02c"/>
   </g>
   <g id="patch_15">
    <path d="M 114.058292 242.728 
L 117.398604 242.728 
L 117.398604 239.351341 
L 114.058292 239.351341 
z
" clip-path="url(#p591c697e97)" style="fill: #2ca02c"/>
   </g>
   <g id="patch_16">
    <path d="M 117.398604 242.728 
L 120.738916 242.728 
L 120.738916 237.843904 
L 117.398604 237.843904 
z
" clip-path="url(#p591c697e97)" style="fill: #2ca02c"/>
   </g>
   <g id="patch_17">
    <path d="M 120.738916 242.728 
L 124.079229 242.728 
L 124.079229 238.41673 
L 120.738916 238.41673 
z
" clip-path="url(#p591c697e97)" style="fill: #2ca02c"/>
   </g>
   <g id="patch_18">
    <path d="M 124.079229 242.728 
L 127.419541 242.728 
L 127.419541 236.668103 
L 124.079229 236.668103 
z
" clip-path="url(#p591c697e97)" style="fill: #2ca02c"/>
   </g>
   <g id="patch_19">
    <path d="M 127.419541 242.728 
L 130.759853 242.728 
L 130.759853 236.969591 
L 127.419541 236.969591 
z
" clip-path="url(#p591c697e97)" style="fill: #2ca02c"/>
   </g>
   <g id="patch_20">
    <path d="M 130.759853 242.728 
L 134.100165 242.728 
L 134.100165 236.51736 
L 130.759853 236.51736 
z
" clip-path="url(#p591c697e97)" style="fill: #2ca02c"/>
   </g>
   <g id="patch_21">
    <path d="M 134.100165 242.728 
L 137.440478 242.728 
L 137.440478 234.617989 
L 134.100165 234.617989 
z
" clip-path="url(#p591c697e97)" style="fill: #2ca02c"/>
   </g>
   <g id="patch_22">
    <path d="M 137.440478 242.728 
L 140.78079 242.728 
L 140.78079 235.040071 
L 137.440478 235.040071 
z
" clip-path="url(#p591c697e97)" style="fill: #2ca02c"/>
   </g>
   <g id="patch_23">
    <path d="M 140.78079 242.728 
L 144.121102 242.728 
L 144.121102 232.628172 
L 140.78079 232.628172 
z
" clip-path="url(#p591c697e97)" style="fill: #2ca02c"/>
   </g>
   <g id="patch_24">
    <path d="M 144.121102 242.728 
L 147.461414 242.728 
L 147.461414 234.075312 
L 144.121102 234.075312 
z
" clip-path="url(#p591c697e97)" style="fill: #2ca02c"/>
   </g>
   <g id="patch_25">
    <path d="M 147.461414 242.728 
L 150.801726 242.728 
L 150.801726 232.748767 
L 147.461414 232.748767 
z
" clip-path="url(#p591c697e97)" style="fill: #2ca02c"/>
   </g>
   <g id="patch_26">
    <path d="M 150.801726 242.728 
L 154.142039 242.728 
L 154.142039 230.186124 
L 150.801726 230.186124 
z
" clip-path="url(#p591c697e97)" style="fill: #2ca02c"/>
   </g>
   <g id="patch_27">
    <path d="M 154.142039 242.728 
L 157.482351 242.728 
L 157.482351 228.316902 
L 154.142039 228.316902 
z
" clip-path="url(#p591c697e97)" style="fill: #2ca02c"/>
   </g>
   <g id="patch_28">
    <path d="M 157.482351 242.728 
L 160.822663 242.728 
L 160.822663 227.744076 
L 157.482351 227.744076 
z
" clip-path="url(#p591c697e97)" style="fill: #2ca02c"/>
   </g>
   <g id="patch_29">
    <path d="M 160.822663 242.728 
L 164.162975 242.728 
L 164.162975 227.563184 
L 160.822663 227.563184 
z
" clip-path="url(#p591c697e97)" style="fill: #2ca02c"/>
   </g>
   <g id="patch_30">
    <path d="M 164.162975 242.728 
L 167.503287 242.728 
L 167.503287 225.362326 
L 164.162975 225.362326 
z
" clip-path="url(#p591c697e97)" style="fill: #2ca02c"/>
   </g>
   <g id="patch_31">
    <path d="M 167.503287 242.728 
L 170.8436 242.728 
L 170.8436 222.679088 
L 167.503287 222.679088 
z
" clip-path="url(#p591c697e97)" style="fill: #2ca02c"/>
   </g>
   <g id="patch_32">
    <path d="M 170.8436 242.728 
L 174.183912 242.728 
L 174.183912 221.503287 
L 170.8436 221.503287 
z
" clip-path="url(#p591c697e97)" style="fill: #2ca02c"/>
   </g>
   <g id="patch_33">
    <path d="M 174.183912 242.728 
L 177.524224 242.728 
L 177.524224 219.543619 
L 174.183912 219.543619 
z
" clip-path="url(#p591c697e97)" style="fill: #2ca02c"/>
   </g>
   <g id="patch_34">
    <path d="M 177.524224 242.728 
L 180.864536 242.728 
L 180.864536 217.704546 
L 177.524224 217.704546 
z
" clip-path="url(#p591c697e97)" style="fill: #2ca02c"/>
   </g>
   <g id="patch_35">
    <path d="M 180.864536 242.728 
L 184.204848 242.728 
L 184.204848 211.704946 
L 180.864536 211.704946 
z
" clip-path="url(#p591c697e97)" style="fill: #2ca02c"/>
   </g>
   <g id="patch_36">
    <path d="M 184.204848 242.728 
L 187.545161 242.728 
L 187.545161 207.333379 
L 184.204848 207.333379 
z
" clip-path="url(#p591c697e97)" style="fill: #2ca02c"/>
   </g>
   <g id="patch_37">
    <path d="M 187.545161 242.728 
L 190.885473 242.728 
L 190.885473 205.976686 
L 187.545161 205.976686 
z
" clip-path="url(#p591c697e97)" style="fill: #2ca02c"/>
   </g>
   <g id="patch_38">
    <path d="M 190.885473 242.728 
L 194.225785 242.728 
L 194.225785 201.665416 
L 190.885473 201.665416 
z
" clip-path="url(#p591c697e97)" style="fill: #2ca02c"/>
   </g>
   <g id="patch_39">
    <path d="M 194.225785 242.728 
L 197.566097 242.728 
L 197.566097 196.389386 
L 194.225785 196.389386 
z
" clip-path="url(#p591c697e97)" style="fill: #2ca02c"/>
   </g>
   <g id="patch_40">
    <path d="M 197.566097 242.728 
L 200.90641 242.728 
L 200.90641 191.957522 
L 197.566097 191.957522 
z
" clip-path="url(#p591c697e97)" style="fill: #2ca02c"/>
   </g>
   <g id="patch_41">
    <path d="M 200.90641 242.728 
L 204.246722 242.728 
L 204.246722 188.671309 
L 200.90641 188.671309 
z
" clip-path="url(#p591c697e97)" style="fill: #2ca02c"/>
   </g>
   <g id="patch_42">
    <path d="M 204.246722 242.728 
L 207.587034 242.728 
L 207.587034 182.973197 
L 204.246722 182.973197 
z
" clip-path="url(#p591c697e97)" style="fill: #2ca02c"/>
   </g>
   <g id="patch_43">
    <path d="M 207.587034 242.728 
L 210.927346 242.728 
L 210.927346 176.400772 
L 207.587034 176.400772 
z
" clip-path="url(#p591c697e97)" style="fill: #2ca02c"/>
   </g>
   <g id="patch_44">
    <path d="M 210.927346 242.728 
L 214.267658 242.728 
L 214.267658 169.436413 
L 210.927346 169.436413 
z
" clip-path="url(#p591c697e97)" style="fill: #2ca02c"/>
   </g>
   <g id="patch_45">
    <path d="M 214.267658 242.728 
L 217.607971 242.728 
L 217.607971 162.291161 
L 214.267658 162.291161 
z
" clip-path="url(#p591c697e97)" style="fill: #2ca02c"/>
   </g>
   <g id="patch_46">
    <path d="M 217.607971 242.728 
L 220.948283 242.728 
L 220.948283 150.744194 
L 217.607971 150.744194 
z
" clip-path="url(#p591c697e97)" style="fill: #2ca02c"/>
   </g>
   <g id="patch_47">
    <path d="M 220.948283 242.728 
L 224.288595 242.728 
L 224.288595 148.302146 
L 220.948283 148.302146 
z
" clip-path="url(#p591c697e97)" style="fill: #2ca02c"/>
   </g>
   <g id="patch_48">
    <path d="M 224.288595 242.728 
L 227.628907 242.728 
L 227.628907 136.122055 
L 224.288595 136.122055 
z
" clip-path="url(#p591c697e97)" style="fill: #2ca02c"/>
   </g>
   <g id="patch_49">
    <path d="M 227.628907 242.728 
L 230.969219 242.728 
L 230.969219 129.489332 
L 227.628907 129.489332 
z
" clip-path="url(#p591c697e97)" style="fill: #2ca02c"/>
   </g>
   <g id="patch_50">
    <path d="M 230.969219 242.728 
L 234.309532 242.728 
L 234.309532 116.947456 
L 230.969219 116.947456 
z
" clip-path="url(#p591c697e97)" style="fill: #2ca02c"/>
   </g>
   <g id="patch_51">
    <path d="M 234.309532 242.728 
L 237.649844 242.728 
L 237.649844 112.696484 
L 234.309532 112.696484 
z
" clip-path="url(#p591c697e97)" style="fill: #2ca02c"/>
   </g>
   <g id="patch_52">
    <path d="M 237.649844 242.728 
L 240.990156 242.728 
L 240.990156 112.394996 
L 237.649844 112.394996 
z
" clip-path="url(#p591c697e97)" style="fill: #2ca02c"/>
   </g>
   <g id="patch_53">
    <path d="M 240.990156 242.728 
L 244.330468 242.728 
L 244.330468 102.445912 
L 240.990156 102.445912 
z
" clip-path="url(#p591c697e97)" style="fill: #2ca02c"/>
   </g>
   <g id="patch_54">
    <path d="M 244.330468 242.728 
L 247.670781 242.728 
L 247.670781 95.240363 
L 244.330468 95.240363 
z
" clip-path="url(#p591c697e97)" style="fill: #2ca02c"/>
   </g>
   <g id="patch_55">
    <path d="M 247.670781 242.728 
L 251.011093 242.728 
L 251.011093 93.371141 
L 247.670781 93.371141 
z
" clip-path="url(#p591c697e97)" style="fill: #2ca02c"/>
   </g>
   <g id="patch_56">
    <path d="M 251.011093 242.728 
L 254.351405 242.728 
L 254.351405 95.511702 
L 251.011093 95.511702 
z
" clip-path="url(#p591c697e97)" style="fill: #2ca02c"/>
   </g>
   <g id="patch_57">
    <path d="M 254.351405 242.728 
L 257.691717 242.728 
L 257.691717 92.949059 
L 254.351405 92.949059 
z
" clip-path="url(#p591c697e97)" style="fill: #2ca02c"/>
   </g>
   <g id="patch_58">
    <path d="M 257.691717 242.728 
L 261.032029 242.728 
L 261.032029 101.028921 
L 257.691717 101.028921 
z
" clip-path="url(#p591c697e97)" style="fill: #2ca02c"/>
   </g>
   <g id="patch_59">
    <path d="M 261.032029 242.728 
L 264.372342 242.728 
L 264.372342 103.470969 
L 261.032029 103.470969 
z
" clip-path="url(#p591c697e97)" style="fill: #2ca02c"/>
   </g>
   <g id="patch_60">
    <path d="M 264.372342 242.728 
L 267.712654 242.728 
L 267.712654 105.068852 
L 264.372342 105.068852 
z
" clip-path="url(#p591c697e97)" style="fill: #2ca02c"/>
   </g>
   <g id="patch_61">
    <path d="M 267.712654 242.728 
L 271.052966 242.728 
L 271.052966 107.239562 
L 267.712654 107.239562 
z
" clip-path="url(#p591c697e97)" style="fill: #2ca02c"/>
   </g>
   <g id="patch_62">
    <path d="M 271.052966 242.728 
L 274.393278 242.728 
L 274.393278 111.942765 
L 271.052966 111.942765 
z
" clip-path="url(#p591c697e97)" style="fill: #2ca02c"/>
   </g>
   <g id="patch_63">
    <path d="M 274.393278 242.728 
L 277.73359 242.728 
L 277.73359 120.414561 
L 274.393278 120.414561 
z
" clip-path="url(#p591c697e97)" style="fill: #2ca02c"/>
   </g>
   <g id="patch_64">
    <path d="M 277.73359 242.728 
L 281.073903 242.728 
L 281.073903 124.75598 
L 277.73359 124.75598 
z
" clip-path="url(#p591c697e97)" style="fill: #2ca02c"/>
   </g>
   <g id="patch_65">
    <path d="M 281.073903 242.728 
L 284.414215 242.728 
L 284.414215 133.438817 
L 281.073903 133.438817 
z
" clip-path="url(#p591c697e97)" style="fill: #2ca02c"/>
   </g>
   <g id="patch_66">
    <path d="M 284.414215 242.728 
L 287.754527 242.728 
L 287.754527 141.428233 
L 284.414215 141.428233 
z
" clip-path="url(#p591c697e97)" style="fill: #2ca02c"/>
   </g>
   <g id="patch_67">
    <path d="M 287.754527 242.728 
L 291.094839 242.728 
L 291.094839 147.427832 
L 287.754527 147.427832 
z
" clip-path="url(#p591c697e97)" style="fill: #2ca02c"/>
   </g>
   <g id="patch_68">
    <path d="M 291.094839 242.728 
L 294.435152 242.728 
L 294.435152 156.683496 
L 291.094839 156.683496 
z
" clip-path="url(#p591c697e97)" style="fill: #2ca02c"/>
   </g>
   <g id="patch_69">
    <path d="M 294.435152 242.728 
L 297.775464 242.728 
L 297.775464 168.592248 
L 294.435152 168.592248 
z
" clip-path="url(#p591c697e97)" style="fill: #2ca02c"/>
   </g>
   <g id="patch_70">
    <path d="M 297.775464 242.728 
L 301.115776 242.728 
L 301.115776 178.36044 
L 297.775464 178.36044 
z
" clip-path="url(#p591c697e97)" style="fill: #2ca02c"/>
   </g>
   <g id="patch_71">
    <path d="M 301.115776 242.728 
L 304.456088 242.728 
L 304.456088 187.706549 
L 301.115776 187.706549 
z
" clip-path="url(#p591c697e97)" style="fill: #2ca02c"/>
   </g>
   <g id="patch_72">
    <path d="M 304.456088 242.728 
L 307.7964 242.728 
L 307.7964 195.545222 
L 304.456088 195.545222 
z
" clip-path="url(#p591c697e97)" style="fill: #2ca02c"/>
   </g>
   <g id="patch_73">
    <path d="M 307.7964 242.728 
L 311.136713 242.728 
L 311.136713 203.293448 
L 307.7964 203.293448 
z
" clip-path="url(#p591c697e97)" style="fill: #2ca02c"/>
   </g>
   <g id="patch_74">
    <path d="M 311.136713 242.728 
L 314.477025 242.728 
L 314.477025 209.504088 
L 311.136713 209.504088 
z
" clip-path="url(#p591c697e97)" style="fill: #2ca02c"/>
   </g>
   <g id="patch_75">
    <path d="M 314.477025 242.728 
L 317.817337 242.728 
L 317.817337 215.292646 
L 314.477025 215.292646 
z
" clip-path="url(#p591c697e97)" style="fill: #2ca02c"/>
   </g>
   <g id="patch_76">
    <path d="M 317.817337 242.728 
L 321.157649 242.728 
L 321.157649 222.61879 
L 317.817337 222.61879 
z
" clip-path="url(#p591c697e97)" style="fill: #2ca02c"/>
   </g>
   <g id="patch_77">
    <path d="M 321.157649 242.728 
L 324.497961 242.728 
L 324.497961 225.693962 
L 321.157649 225.693962 
z
" clip-path="url(#p591c697e97)" style="fill: #2ca02c"/>
   </g>
   <g id="patch_78">
    <path d="M 324.497961 242.728 
L 327.838274 242.728 
L 327.838274 229.643447 
L 324.497961 229.643447 
z
" clip-path="url(#p591c697e97)" style="fill: #2ca02c"/>
   </g>
   <g id="patch_79">
    <path d="M 327.838274 242.728 
L 331.178586 242.728 
L 331.178586 232.598023 
L 327.838274 232.598023 
z
" clip-path="url(#p591c697e97)" style="fill: #2ca02c"/>
   </g>
   <g id="patch_80">
    <path d="M 331.178586 242.728 
L 334.518898 242.728 
L 334.518898 233.86427 
L 331.178586 233.86427 
z
" clip-path="url(#p591c697e97)" style="fill: #2ca02c"/>
   </g>
   <g id="patch_81">
    <path d="M 334.518898 242.728 
L 337.85921 242.728 
L 337.85921 236.577657 
L 334.518898 236.577657 
z
" clip-path="url(#p591c697e97)" style="fill: #2ca02c"/>
   </g>
   <g id="patch_82">
    <path d="M 337.85921 242.728 
L 341.199522 242.728 
L 341.199522 237.964499 
L 337.85921 237.964499 
z
" clip-path="url(#p591c697e97)" style="fill: #2ca02c"/>
   </g>
   <g id="patch_83">
    <path d="M 341.199522 242.728 
L 344.539835 242.728 
L 344.539835 238.356433 
L 341.199522 238.356433 
z
" clip-path="url(#p591c697e97)" style="fill: #2ca02c"/>
   </g>
   <g id="patch_84">
    <path d="M 344.539835 242.728 
L 347.880147 242.728 
L 347.880147 239.773423 
L 344.539835 239.773423 
z
" clip-path="url(#p591c697e97)" style="fill: #2ca02c"/>
   </g>
   <g id="patch_85">
    <path d="M 347.880147 242.728 
L 351.220459 242.728 
L 351.220459 240.496993 
L 347.880147 240.496993 
z
" clip-path="url(#p591c697e97)" style="fill: #2ca02c"/>
   </g>
   <g id="patch_86">
    <path d="M 351.220459 242.728 
L 354.560771 242.728 
L 354.560771 240.34625 
L 351.220459 240.34625 
z
" clip-path="url(#p591c697e97)" style="fill: #2ca02c"/>
   </g>
   <g id="patch_87">
    <path d="M 354.560771 242.728 
L 357.901084 242.728 
L 357.901084 241.431604 
L 354.560771 241.431604 
z
" clip-path="url(#p591c697e97)" style="fill: #2ca02c"/>
   </g>
   <g id="patch_88">
    <path d="M 357.901084 242.728 
L 361.241396 242.728 
L 361.241396 241.130117 
L 357.901084 241.130117 
z
" clip-path="url(#p591c697e97)" style="fill: #2ca02c"/>
   </g>
   <g id="patch_89">
    <path d="M 361.241396 242.728 
L 364.581708 242.728 
L 364.581708 241.582348 
L 361.241396 241.582348 
z
" clip-path="url(#p591c697e97)" style="fill: #2ca02c"/>
   </g>
   <g id="patch_90">
    <path d="M 364.581708 242.728 
L 367.92202 242.728 
L 367.92202 241.642645 
L 364.581708 241.642645 
z
" clip-path="url(#p591c697e97)" style="fill: #2ca02c"/>
   </g>
   <g id="patch_91">
    <path d="M 367.92202 242.728 
L 371.262332 242.728 
L 371.262332 242.094876 
L 367.92202 242.094876 
z
" clip-path="url(#p591c697e97)" style="fill: #2ca02c"/>
   </g>
   <g id="patch_92">
    <path d="M 371.262332 242.728 
L 374.602645 242.728 
L 374.602645 242.215471 
L 371.262332 242.215471 
z
" clip-path="url(#p591c697e97)" style="fill: #2ca02c"/>
   </g>
   <g id="patch_93">
    <path d="M 374.602645 242.728 
L 377.942957 242.728 
L 377.942957 242.185323 
L 374.602645 242.185323 
z
" clip-path="url(#p591c697e97)" style="fill: #2ca02c"/>
   </g>
   <g id="patch_94">
    <path d="M 377.942957 242.728 
L 381.283269 242.728 
L 381.283269 242.185323 
L 377.942957 242.185323 
z
" clip-path="url(#p591c697e97)" style="fill: #2ca02c"/>
   </g>
   <g id="patch_95">
    <path d="M 381.283269 242.728 
L 384.623581 242.728 
L 384.623581 242.336066 
L 381.283269 242.336066 
z
" clip-path="url(#p591c697e97)" style="fill: #2ca02c"/>
   </g>
   <g id="patch_96">
    <path d="M 384.623581 242.728 
L 387.963893 242.728 
L 387.963893 242.426513 
L 384.623581 242.426513 
z
" clip-path="url(#p591c697e97)" style="fill: #2ca02c"/>
   </g>
   <g id="patch_97">
    <path d="M 387.963893 242.728 
L 391.304206 242.728 
L 391.304206 242.516959 
L 387.963893 242.516959 
z
" clip-path="url(#p591c697e97)" style="fill: #2ca02c"/>
   </g>
   <g id="patch_98">
    <path d="M 391.304206 242.728 
L 394.644518 242.728 
L 394.644518 242.48681 
L 391.304206 242.48681 
z
" clip-path="url(#p591c697e97)" style="fill: #2ca02c"/>
   </g>
   <g id="patch_99">
    <path d="M 394.644518 242.728 
L 397.98483 242.728 
L 397.98483 242.607405 
L 394.644518 242.607405 
z
" clip-path="url(#p591c697e97)" style="fill: #2ca02c"/>
   </g>
   <g id="patch_100">
    <path d="M 397.98483 242.728 
L 401.325142 242.728 
L 401.325142 242.547108 
L 397.98483 242.547108 
z
" clip-path="url(#p591c697e97)" style="fill: #2ca02c"/>
   </g>
   <g id="patch_101">
    <path d="M 401.325142 242.728 
L 404.665455 242.728 
L 404.665455 242.728 
L 401.325142 242.728 
z
" clip-path="url(#p591c697e97)" style="fill: #2ca02c"/>
   </g>
   <g id="matplotlib.axis_1">
    <g id="xtick_1">
     <g id="line2d_1">
      <defs>
       <path id="mfe1cc787bb" d="M 0 0 
L 0 3.5 
" style="stroke: #000000; stroke-width: 0.8"/>
      </defs>
      <g>
       <use xlink:href="#mfe1cc787bb" x="110.71798" y="242.728" style="stroke: #000000; stroke-width: 0.8"/>
      </g>
     </g>
     <g id="text_1">
      <!-- $\mathdefault{10^{-8}}$ -->
      <g transform="translate(98.96798 257.326437)scale(0.1 -0.1)">
       <defs>
        <path id="DejaVuSans-31" d="M 794 531 
L 1825 531 
L 1825 4091 
L 703 3866 
L 703 4441 
L 1819 4666 
L 2450 4666 
L 2450 531 
L 3481 531 
L 3481 0 
L 794 0 
L 794 531 
z
" transform="scale(0.015625)"/>
        <path id="DejaVuSans-30" d="M 2034 4250 
Q 1547 4250 1301 3770 
Q 1056 3291 1056 2328 
Q 1056 1369 1301 889 
Q 1547 409 2034 409 
Q 2525 409 2770 889 
Q 3016 1369 3016 2328 
Q 3016 3291 2770 3770 
Q 2525 4250 2034 4250 
z
M 2034 4750 
Q 2819 4750 3233 4129 
Q 3647 3509 3647 2328 
Q 3647 1150 3233 529 
Q 2819 -91 2034 -91 
Q 1250 -91 836 529 
Q 422 1150 422 2328 
Q 422 3509 836 4129 
Q 1250 4750 2034 4750 
z
" transform="scale(0.015625)"/>
        <path id="DejaVuSans-2212" d="M 678 2272 
L 4684 2272 
L 4684 1741 
L 678 1741 
L 678 2272 
z
" transform="scale(0.015625)"/>
        <path id="DejaVuSans-38" d="M 2034 2216 
Q 1584 2216 1326 1975 
Q 1069 1734 1069 1313 
Q 1069 891 1326 650 
Q 1584 409 2034 409 
Q 2484 409 2743 651 
Q 3003 894 3003 1313 
Q 3003 1734 2745 1975 
Q 2488 2216 2034 2216 
z
M 1403 2484 
Q 997 2584 770 2862 
Q 544 3141 544 3541 
Q 544 4100 942 4425 
Q 1341 4750 2034 4750 
Q 2731 4750 3128 4425 
Q 3525 4100 3525 3541 
Q 3525 3141 3298 2862 
Q 3072 2584 2669 2484 
Q 3125 2378 3379 2068 
Q 3634 1759 3634 1313 
Q 3634 634 3220 271 
Q 2806 -91 2034 -91 
Q 1263 -91 848 271 
Q 434 634 434 1313 
Q 434 1759 690 2068 
Q 947 2378 1403 2484 
z
M 1172 3481 
Q 1172 3119 1398 2916 
Q 1625 2713 2034 2713 
Q 2441 2713 2670 2916 
Q 2900 3119 2900 3481 
Q 2900 3844 2670 4047 
Q 2441 4250 2034 4250 
Q 1625 4250 1398 4047 
Q 1172 3844 1172 3481 
z
" transform="scale(0.015625)"/>
       </defs>
       <use xlink:href="#DejaVuSans-31" transform="translate(0 0.765625)"/>
       <use xlink:href="#DejaVuSans-30" transform="translate(63.623047 0.765625)"/>
       <use xlink:href="#DejaVuSans-2212" transform="translate(128.203125 39.046875)scale(0.7)"/>
       <use xlink:href="#DejaVuSans-38" transform="translate(186.855469 39.046875)scale(0.7)"/>
      </g>
     </g>
    </g>
    <g id="xtick_2">
     <g id="line2d_2">
      <g>
       <use xlink:href="#mfe1cc787bb" x="184.204848" y="242.728" style="stroke: #000000; stroke-width: 0.8"/>
      </g>
     </g>
     <g id="text_2">
      <!-- $\mathdefault{10^{-6}}$ -->
      <g transform="translate(172.454848 257.326437)scale(0.1 -0.1)">
       <defs>
        <path id="DejaVuSans-36" d="M 2113 2584 
Q 1688 2584 1439 2293 
Q 1191 2003 1191 1497 
Q 1191 994 1439 701 
Q 1688 409 2113 409 
Q 2538 409 2786 701 
Q 3034 994 3034 1497 
Q 3034 2003 2786 2293 
Q 2538 2584 2113 2584 
z
M 3366 4563 
L 3366 3988 
Q 3128 4100 2886 4159 
Q 2644 4219 2406 4219 
Q 1781 4219 1451 3797 
Q 1122 3375 1075 2522 
Q 1259 2794 1537 2939 
Q 1816 3084 2150 3084 
Q 2853 3084 3261 2657 
Q 3669 2231 3669 1497 
Q 3669 778 3244 343 
Q 2819 -91 2113 -91 
Q 1303 -91 875 529 
Q 447 1150 447 2328 
Q 447 3434 972 4092 
Q 1497 4750 2381 4750 
Q 2619 4750 2861 4703 
Q 3103 4656 3366 4563 
z
" transform="scale(0.015625)"/>
       </defs>
       <use xlink:href="#DejaVuSans-31" transform="translate(0 0.765625)"/>
       <use xlink:href="#DejaVuSans-30" transform="translate(63.623047 0.765625)"/>
       <use xlink:href="#DejaVuSans-2212" transform="translate(128.203125 39.046875)scale(0.7)"/>
       <use xlink:href="#DejaVuSans-36" transform="translate(186.855469 39.046875)scale(0.7)"/>
      </g>
     </g>
    </g>
    <g id="xtick_3">
     <g id="line2d_3">
      <g>
       <use xlink:href="#mfe1cc787bb" x="257.691717" y="242.728" style="stroke: #000000; stroke-width: 0.8"/>
      </g>
     </g>
     <g id="text_3">
      <!-- $\mathdefault{10^{-4}}$ -->
      <g transform="translate(245.941717 257.326437)scale(0.1 -0.1)">
       <defs>
        <path id="DejaVuSans-34" d="M 2419 4116 
L 825 1625 
L 2419 1625 
L 2419 4116 
z
M 2253 4666 
L 3047 4666 
L 3047 1625 
L 3713 1625 
L 3713 1100 
L 3047 1100 
L 3047 0 
L 2419 0 
L 2419 1100 
L 313 1100 
L 313 1709 
L 2253 4666 
z
" transform="scale(0.015625)"/>
       </defs>
       <use xlink:href="#DejaVuSans-31" transform="translate(0 0.684375)"/>
       <use xlink:href="#DejaVuSans-30" transform="translate(63.623047 0.684375)"/>
       <use xlink:href="#DejaVuSans-2212" transform="translate(128.203125 38.965625)scale(0.7)"/>
       <use xlink:href="#DejaVuSans-34" transform="translate(186.855469 38.965625)scale(0.7)"/>
      </g>
     </g>
    </g>
    <g id="xtick_4">
     <g id="line2d_4">
      <g>
       <use xlink:href="#mfe1cc787bb" x="331.178586" y="242.728" style="stroke: #000000; stroke-width: 0.8"/>
      </g>
     </g>
     <g id="text_4">
      <!-- $\mathdefault{10^{-2}}$ -->
      <g transform="translate(319.428586 257.326437)scale(0.1 -0.1)">
       <defs>
        <path id="DejaVuSans-32" d="M 1228 531 
L 3431 531 
L 3431 0 
L 469 0 
L 469 531 
Q 828 903 1448 1529 
Q 2069 2156 2228 2338 
Q 2531 2678 2651 2914 
Q 2772 3150 2772 3378 
Q 2772 3750 2511 3984 
Q 2250 4219 1831 4219 
Q 1534 4219 1204 4116 
Q 875 4013 500 3803 
L 500 4441 
Q 881 4594 1212 4672 
Q 1544 4750 1819 4750 
Q 2544 4750 2975 4387 
Q 3406 4025 3406 3419 
Q 3406 3131 3298 2873 
Q 3191 2616 2906 2266 
Q 2828 2175 2409 1742 
Q 1991 1309 1228 531 
z
" transform="scale(0.015625)"/>
       </defs>
       <use xlink:href="#DejaVuSans-31" transform="translate(0 0.765625)"/>
       <use xlink:href="#DejaVuSans-30" transform="translate(63.623047 0.765625)"/>
       <use xlink:href="#DejaVuSans-2212" transform="translate(128.203125 39.046875)scale(0.7)"/>
       <use xlink:href="#DejaVuSans-32" transform="translate(186.855469 39.046875)scale(0.7)"/>
      </g>
     </g>
    </g>
    <g id="xtick_5">
     <g id="line2d_5">
      <g>
       <use xlink:href="#mfe1cc787bb" x="404.665455" y="242.728" style="stroke: #000000; stroke-width: 0.8"/>
      </g>
     </g>
     <g id="text_5">
      <!-- $\mathdefault{10^{0}}$ -->
      <g transform="translate(395.865455 257.326437)scale(0.1 -0.1)">
       <use xlink:href="#DejaVuSans-31" transform="translate(0 0.765625)"/>
       <use xlink:href="#DejaVuSans-30" transform="translate(63.623047 0.765625)"/>
       <use xlink:href="#DejaVuSans-30" transform="translate(128.203125 39.046875)scale(0.7)"/>
      </g>
     </g>
    </g>
    <g id="text_6">
     <!-- Squared value of parameter -->
     <g transform="translate(168.903594 271.004562)scale(0.1 -0.1)">
      <defs>
       <path id="DejaVuSans-53" d="M 3425 4513 
L 3425 3897 
Q 3066 4069 2747 4153 
Q 2428 4238 2131 4238 
Q 1616 4238 1336 4038 
Q 1056 3838 1056 3469 
Q 1056 3159 1242 3001 
Q 1428 2844 1947 2747 
L 2328 2669 
Q 3034 2534 3370 2195 
Q 3706 1856 3706 1288 
Q 3706 609 3251 259 
Q 2797 -91 1919 -91 
Q 1588 -91 1214 -16 
Q 841 59 441 206 
L 441 856 
Q 825 641 1194 531 
Q 1563 422 1919 422 
Q 2459 422 2753 634 
Q 3047 847 3047 1241 
Q 3047 1584 2836 1778 
Q 2625 1972 2144 2069 
L 1759 2144 
Q 1053 2284 737 2584 
Q 422 2884 422 3419 
Q 422 4038 858 4394 
Q 1294 4750 2059 4750 
Q 2388 4750 2728 4690 
Q 3069 4631 3425 4513 
z
" transform="scale(0.015625)"/>
       <path id="DejaVuSans-71" d="M 947 1747 
Q 947 1113 1208 752 
Q 1469 391 1925 391 
Q 2381 391 2643 752 
Q 2906 1113 2906 1747 
Q 2906 2381 2643 2742 
Q 2381 3103 1925 3103 
Q 1469 3103 1208 2742 
Q 947 2381 947 1747 
z
M 2906 525 
Q 2725 213 2448 61 
Q 2172 -91 1784 -91 
Q 1150 -91 751 415 
Q 353 922 353 1747 
Q 353 2572 751 3078 
Q 1150 3584 1784 3584 
Q 2172 3584 2448 3432 
Q 2725 3281 2906 2969 
L 2906 3500 
L 3481 3500 
L 3481 -1331 
L 2906 -1331 
L 2906 525 
z
" transform="scale(0.015625)"/>
       <path id="DejaVuSans-75" d="M 544 1381 
L 544 3500 
L 1119 3500 
L 1119 1403 
Q 1119 906 1312 657 
Q 1506 409 1894 409 
Q 2359 409 2629 706 
Q 2900 1003 2900 1516 
L 2900 3500 
L 3475 3500 
L 3475 0 
L 2900 0 
L 2900 538 
Q 2691 219 2414 64 
Q 2138 -91 1772 -91 
Q 1169 -91 856 284 
Q 544 659 544 1381 
z
M 1991 3584 
L 1991 3584 
z
" transform="scale(0.015625)"/>
       <path id="DejaVuSans-61" d="M 2194 1759 
Q 1497 1759 1228 1600 
Q 959 1441 959 1056 
Q 959 750 1161 570 
Q 1363 391 1709 391 
Q 2188 391 2477 730 
Q 2766 1069 2766 1631 
L 2766 1759 
L 2194 1759 
z
M 3341 1997 
L 3341 0 
L 2766 0 
L 2766 531 
Q 2569 213 2275 61 
Q 1981 -91 1556 -91 
Q 1019 -91 701 211 
Q 384 513 384 1019 
Q 384 1609 779 1909 
Q 1175 2209 1959 2209 
L 2766 2209 
L 2766 2266 
Q 2766 2663 2505 2880 
Q 2244 3097 1772 3097 
Q 1472 3097 1187 3025 
Q 903 2953 641 2809 
L 641 3341 
Q 956 3463 1253 3523 
Q 1550 3584 1831 3584 
Q 2591 3584 2966 3190 
Q 3341 2797 3341 1997 
z
" transform="scale(0.015625)"/>
       <path id="DejaVuSans-72" d="M 2631 2963 
Q 2534 3019 2420 3045 
Q 2306 3072 2169 3072 
Q 1681 3072 1420 2755 
Q 1159 2438 1159 1844 
L 1159 0 
L 581 0 
L 581 3500 
L 1159 3500 
L 1159 2956 
Q 1341 3275 1631 3429 
Q 1922 3584 2338 3584 
Q 2397 3584 2469 3576 
Q 2541 3569 2628 3553 
L 2631 2963 
z
" transform="scale(0.015625)"/>
       <path id="DejaVuSans-65" d="M 3597 1894 
L 3597 1613 
L 953 1613 
Q 991 1019 1311 708 
Q 1631 397 2203 397 
Q 2534 397 2845 478 
Q 3156 559 3463 722 
L 3463 178 
Q 3153 47 2828 -22 
Q 2503 -91 2169 -91 
Q 1331 -91 842 396 
Q 353 884 353 1716 
Q 353 2575 817 3079 
Q 1281 3584 2069 3584 
Q 2775 3584 3186 3129 
Q 3597 2675 3597 1894 
z
M 3022 2063 
Q 3016 2534 2758 2815 
Q 2500 3097 2075 3097 
Q 1594 3097 1305 2825 
Q 1016 2553 972 2059 
L 3022 2063 
z
" transform="scale(0.015625)"/>
       <path id="DejaVuSans-64" d="M 2906 2969 
L 2906 4863 
L 3481 4863 
L 3481 0 
L 2906 0 
L 2906 525 
Q 2725 213 2448 61 
Q 2172 -91 1784 -91 
Q 1150 -91 751 415 
Q 353 922 353 1747 
Q 353 2572 751 3078 
Q 1150 3584 1784 3584 
Q 2172 3584 2448 3432 
Q 2725 3281 2906 2969 
z
M 947 1747 
Q 947 1113 1208 752 
Q 1469 391 1925 391 
Q 2381 391 2643 752 
Q 2906 1113 2906 1747 
Q 2906 2381 2643 2742 
Q 2381 3103 1925 3103 
Q 1469 3103 1208 2742 
Q 947 2381 947 1747 
z
" transform="scale(0.015625)"/>
       <path id="DejaVuSans-20" transform="scale(0.015625)"/>
       <path id="DejaVuSans-76" d="M 191 3500 
L 800 3500 
L 1894 563 
L 2988 3500 
L 3597 3500 
L 2284 0 
L 1503 0 
L 191 3500 
z
" transform="scale(0.015625)"/>
       <path id="DejaVuSans-6c" d="M 603 4863 
L 1178 4863 
L 1178 0 
L 603 0 
L 603 4863 
z
" transform="scale(0.015625)"/>
       <path id="DejaVuSans-6f" d="M 1959 3097 
Q 1497 3097 1228 2736 
Q 959 2375 959 1747 
Q 959 1119 1226 758 
Q 1494 397 1959 397 
Q 2419 397 2687 759 
Q 2956 1122 2956 1747 
Q 2956 2369 2687 2733 
Q 2419 3097 1959 3097 
z
M 1959 3584 
Q 2709 3584 3137 3096 
Q 3566 2609 3566 1747 
Q 3566 888 3137 398 
Q 2709 -91 1959 -91 
Q 1206 -91 779 398 
Q 353 888 353 1747 
Q 353 2609 779 3096 
Q 1206 3584 1959 3584 
z
" transform="scale(0.015625)"/>
       <path id="DejaVuSans-66" d="M 2375 4863 
L 2375 4384 
L 1825 4384 
Q 1516 4384 1395 4259 
Q 1275 4134 1275 3809 
L 1275 3500 
L 2222 3500 
L 2222 3053 
L 1275 3053 
L 1275 0 
L 697 0 
L 697 3053 
L 147 3053 
L 147 3500 
L 697 3500 
L 697 3744 
Q 697 4328 969 4595 
Q 1241 4863 1831 4863 
L 2375 4863 
z
" transform="scale(0.015625)"/>
       <path id="DejaVuSans-70" d="M 1159 525 
L 1159 -1331 
L 581 -1331 
L 581 3500 
L 1159 3500 
L 1159 2969 
Q 1341 3281 1617 3432 
Q 1894 3584 2278 3584 
Q 2916 3584 3314 3078 
Q 3713 2572 3713 1747 
Q 3713 922 3314 415 
Q 2916 -91 2278 -91 
Q 1894 -91 1617 61 
Q 1341 213 1159 525 
z
M 3116 1747 
Q 3116 2381 2855 2742 
Q 2594 3103 2138 3103 
Q 1681 3103 1420 2742 
Q 1159 2381 1159 1747 
Q 1159 1113 1420 752 
Q 1681 391 2138 391 
Q 2594 391 2855 752 
Q 3116 1113 3116 1747 
z
" transform="scale(0.015625)"/>
       <path id="DejaVuSans-6d" d="M 3328 2828 
Q 3544 3216 3844 3400 
Q 4144 3584 4550 3584 
Q 5097 3584 5394 3201 
Q 5691 2819 5691 2113 
L 5691 0 
L 5113 0 
L 5113 2094 
Q 5113 2597 4934 2840 
Q 4756 3084 4391 3084 
Q 3944 3084 3684 2787 
Q 3425 2491 3425 1978 
L 3425 0 
L 2847 0 
L 2847 2094 
Q 2847 2600 2669 2842 
Q 2491 3084 2119 3084 
Q 1678 3084 1418 2786 
Q 1159 2488 1159 1978 
L 1159 0 
L 581 0 
L 581 3500 
L 1159 3500 
L 1159 2956 
Q 1356 3278 1631 3431 
Q 1906 3584 2284 3584 
Q 2666 3584 2933 3390 
Q 3200 3197 3328 2828 
z
" transform="scale(0.015625)"/>
       <path id="DejaVuSans-74" d="M 1172 4494 
L 1172 3500 
L 2356 3500 
L 2356 3053 
L 1172 3053 
L 1172 1153 
Q 1172 725 1289 603 
Q 1406 481 1766 481 
L 2356 481 
L 2356 0 
L 1766 0 
Q 1100 0 847 248 
Q 594 497 594 1153 
L 594 3053 
L 172 3053 
L 172 3500 
L 594 3500 
L 594 4494 
L 1172 4494 
z
" transform="scale(0.015625)"/>
      </defs>
      <use xlink:href="#DejaVuSans-53"/>
      <use xlink:href="#DejaVuSans-71" x="63.476562"/>
      <use xlink:href="#DejaVuSans-75" x="126.953125"/>
      <use xlink:href="#DejaVuSans-61" x="190.332031"/>
      <use xlink:href="#DejaVuSans-72" x="251.611328"/>
      <use xlink:href="#DejaVuSans-65" x="290.474609"/>
      <use xlink:href="#DejaVuSans-64" x="351.998047"/>
      <use xlink:href="#DejaVuSans-20" x="415.474609"/>
      <use xlink:href="#DejaVuSans-76" x="447.261719"/>
      <use xlink:href="#DejaVuSans-61" x="506.441406"/>
      <use xlink:href="#DejaVuSans-6c" x="567.720703"/>
      <use xlink:href="#DejaVuSans-75" x="595.503906"/>
      <use xlink:href="#DejaVuSans-65" x="658.882812"/>
      <use xlink:href="#DejaVuSans-20" x="720.40625"/>
      <use xlink:href="#DejaVuSans-6f" x="752.193359"/>
      <use xlink:href="#DejaVuSans-66" x="813.375"/>
      <use xlink:href="#DejaVuSans-20" x="848.580078"/>
      <use xlink:href="#DejaVuSans-70" x="880.367188"/>
      <use xlink:href="#DejaVuSans-61" x="943.84375"/>
      <use xlink:href="#DejaVuSans-72" x="1005.123047"/>
      <use xlink:href="#DejaVuSans-61" x="1046.236328"/>
      <use xlink:href="#DejaVuSans-6d" x="1107.515625"/>
      <use xlink:href="#DejaVuSans-65" x="1204.927734"/>
      <use xlink:href="#DejaVuSans-74" x="1266.451172"/>
      <use xlink:href="#DejaVuSans-65" x="1305.660156"/>
      <use xlink:href="#DejaVuSans-72" x="1367.183594"/>
     </g>
    </g>
   </g>
   <g id="matplotlib.axis_2">
    <g id="ytick_1">
     <g id="line2d_6">
      <defs>
       <path id="m8089e0e30e" d="M 0 0 
L -3.5 0 
" style="stroke: #000000; stroke-width: 0.8"/>
      </defs>
      <g>
       <use xlink:href="#m8089e0e30e" x="57.44" y="242.728" style="stroke: #000000; stroke-width: 0.8"/>
      </g>
     </g>
     <g id="text_7">
      <!-- 0 -->
      <g transform="translate(44.0775 246.527219)scale(0.1 -0.1)">
       <use xlink:href="#DejaVuSans-30"/>
      </g>
     </g>
    </g>
    <g id="ytick_2">
     <g id="line2d_7">
      <g>
       <use xlink:href="#m8089e0e30e" x="57.44" y="212.57926" style="stroke: #000000; stroke-width: 0.8"/>
      </g>
     </g>
     <g id="text_8">
      <!-- 1000 -->
      <g transform="translate(24.99 216.378479)scale(0.1 -0.1)">
       <use xlink:href="#DejaVuSans-31"/>
       <use xlink:href="#DejaVuSans-30" x="63.623047"/>
       <use xlink:href="#DejaVuSans-30" x="127.246094"/>
       <use xlink:href="#DejaVuSans-30" x="190.869141"/>
      </g>
     </g>
    </g>
    <g id="ytick_3">
     <g id="line2d_8">
      <g>
       <use xlink:href="#m8089e0e30e" x="57.44" y="182.43052" style="stroke: #000000; stroke-width: 0.8"/>
      </g>
     </g>
     <g id="text_9">
      <!-- 2000 -->
      <g transform="translate(24.99 186.229738)scale(0.1 -0.1)">
       <use xlink:href="#DejaVuSans-32"/>
       <use xlink:href="#DejaVuSans-30" x="63.623047"/>
       <use xlink:href="#DejaVuSans-30" x="127.246094"/>
       <use xlink:href="#DejaVuSans-30" x="190.869141"/>
      </g>
     </g>
    </g>
    <g id="ytick_4">
     <g id="line2d_9">
      <g>
       <use xlink:href="#m8089e0e30e" x="57.44" y="152.28178" style="stroke: #000000; stroke-width: 0.8"/>
      </g>
     </g>
     <g id="text_10">
      <!-- 3000 -->
      <g transform="translate(24.99 156.080998)scale(0.1 -0.1)">
       <defs>
        <path id="DejaVuSans-33" d="M 2597 2516 
Q 3050 2419 3304 2112 
Q 3559 1806 3559 1356 
Q 3559 666 3084 287 
Q 2609 -91 1734 -91 
Q 1441 -91 1130 -33 
Q 819 25 488 141 
L 488 750 
Q 750 597 1062 519 
Q 1375 441 1716 441 
Q 2309 441 2620 675 
Q 2931 909 2931 1356 
Q 2931 1769 2642 2001 
Q 2353 2234 1838 2234 
L 1294 2234 
L 1294 2753 
L 1863 2753 
Q 2328 2753 2575 2939 
Q 2822 3125 2822 3475 
Q 2822 3834 2567 4026 
Q 2313 4219 1838 4219 
Q 1578 4219 1281 4162 
Q 984 4106 628 3988 
L 628 4550 
Q 988 4650 1302 4700 
Q 1616 4750 1894 4750 
Q 2613 4750 3031 4423 
Q 3450 4097 3450 3541 
Q 3450 3153 3228 2886 
Q 3006 2619 2597 2516 
z
" transform="scale(0.015625)"/>
       </defs>
       <use xlink:href="#DejaVuSans-33"/>
       <use xlink:href="#DejaVuSans-30" x="63.623047"/>
       <use xlink:href="#DejaVuSans-30" x="127.246094"/>
       <use xlink:href="#DejaVuSans-30" x="190.869141"/>
      </g>
     </g>
    </g>
    <g id="ytick_5">
     <g id="line2d_10">
      <g>
       <use xlink:href="#m8089e0e30e" x="57.44" y="122.133039" style="stroke: #000000; stroke-width: 0.8"/>
      </g>
     </g>
     <g id="text_11">
      <!-- 4000 -->
      <g transform="translate(24.99 125.932258)scale(0.1 -0.1)">
       <use xlink:href="#DejaVuSans-34"/>
       <use xlink:href="#DejaVuSans-30" x="63.623047"/>
       <use xlink:href="#DejaVuSans-30" x="127.246094"/>
       <use xlink:href="#DejaVuSans-30" x="190.869141"/>
      </g>
     </g>
    </g>
    <g id="ytick_6">
     <g id="line2d_11">
      <g>
       <use xlink:href="#m8089e0e30e" x="57.44" y="91.984299" style="stroke: #000000; stroke-width: 0.8"/>
      </g>
     </g>
     <g id="text_12">
      <!-- 5000 -->
      <g transform="translate(24.99 95.783518)scale(0.1 -0.1)">
       <defs>
        <path id="DejaVuSans-35" d="M 691 4666 
L 3169 4666 
L 3169 4134 
L 1269 4134 
L 1269 2991 
Q 1406 3038 1543 3061 
Q 1681 3084 1819 3084 
Q 2600 3084 3056 2656 
Q 3513 2228 3513 1497 
Q 3513 744 3044 326 
Q 2575 -91 1722 -91 
Q 1428 -91 1123 -41 
Q 819 9 494 109 
L 494 744 
Q 775 591 1075 516 
Q 1375 441 1709 441 
Q 2250 441 2565 725 
Q 2881 1009 2881 1497 
Q 2881 1984 2565 2268 
Q 2250 2553 1709 2553 
Q 1456 2553 1204 2497 
Q 953 2441 691 2322 
L 691 4666 
z
" transform="scale(0.015625)"/>
       </defs>
       <use xlink:href="#DejaVuSans-35"/>
       <use xlink:href="#DejaVuSans-30" x="63.623047"/>
       <use xlink:href="#DejaVuSans-30" x="127.246094"/>
       <use xlink:href="#DejaVuSans-30" x="190.869141"/>
      </g>
     </g>
    </g>
    <g id="ytick_7">
     <g id="line2d_12">
      <g>
       <use xlink:href="#m8089e0e30e" x="57.44" y="61.835559" style="stroke: #000000; stroke-width: 0.8"/>
      </g>
     </g>
     <g id="text_13">
      <!-- 6000 -->
      <g transform="translate(24.99 65.634778)scale(0.1 -0.1)">
       <use xlink:href="#DejaVuSans-36"/>
       <use xlink:href="#DejaVuSans-30" x="63.623047"/>
       <use xlink:href="#DejaVuSans-30" x="127.246094"/>
       <use xlink:href="#DejaVuSans-30" x="190.869141"/>
      </g>
     </g>
    </g>
    <g id="ytick_8">
     <g id="line2d_13">
      <g>
       <use xlink:href="#m8089e0e30e" x="57.44" y="31.686819" style="stroke: #000000; stroke-width: 0.8"/>
      </g>
     </g>
     <g id="text_14">
      <!-- 7000 -->
      <g transform="translate(24.99 35.486038)scale(0.1 -0.1)">
       <defs>
        <path id="DejaVuSans-37" d="M 525 4666 
L 3525 4666 
L 3525 4397 
L 1831 0 
L 1172 0 
L 2766 4134 
L 525 4134 
L 525 4666 
z
" transform="scale(0.015625)"/>
       </defs>
       <use xlink:href="#DejaVuSans-37"/>
       <use xlink:href="#DejaVuSans-30" x="63.623047"/>
       <use xlink:href="#DejaVuSans-30" x="127.246094"/>
       <use xlink:href="#DejaVuSans-30" x="190.869141"/>
      </g>
     </g>
    </g>
    <g id="text_15">
     <!-- Count -->
     <g transform="translate(18.910312 148.932437)rotate(-90)scale(0.1 -0.1)">
      <defs>
       <path id="DejaVuSans-43" d="M 4122 4306 
L 4122 3641 
Q 3803 3938 3442 4084 
Q 3081 4231 2675 4231 
Q 1875 4231 1450 3742 
Q 1025 3253 1025 2328 
Q 1025 1406 1450 917 
Q 1875 428 2675 428 
Q 3081 428 3442 575 
Q 3803 722 4122 1019 
L 4122 359 
Q 3791 134 3420 21 
Q 3050 -91 2638 -91 
Q 1578 -91 968 557 
Q 359 1206 359 2328 
Q 359 3453 968 4101 
Q 1578 4750 2638 4750 
Q 3056 4750 3426 4639 
Q 3797 4528 4122 4306 
z
" transform="scale(0.015625)"/>
       <path id="DejaVuSans-6e" d="M 3513 2113 
L 3513 0 
L 2938 0 
L 2938 2094 
Q 2938 2591 2744 2837 
Q 2550 3084 2163 3084 
Q 1697 3084 1428 2787 
Q 1159 2491 1159 1978 
L 1159 0 
L 581 0 
L 581 3500 
L 1159 3500 
L 1159 2956 
Q 1366 3272 1645 3428 
Q 1925 3584 2291 3584 
Q 2894 3584 3203 3211 
Q 3513 2838 3513 2113 
z
" transform="scale(0.015625)"/>
      </defs>
      <use xlink:href="#DejaVuSans-43"/>
      <use xlink:href="#DejaVuSans-6f" x="69.824219"/>
      <use xlink:href="#DejaVuSans-75" x="131.005859"/>
      <use xlink:href="#DejaVuSans-6e" x="194.384766"/>
      <use xlink:href="#DejaVuSans-74" x="257.763672"/>
     </g>
    </g>
   </g>
   <g id="patch_102">
    <path d="M 73.974545 242.728 
L 73.974545 242.607405 
L 77.314858 242.607405 
L 77.314858 242.396364 
L 83.995482 242.426513 
L 83.995482 242.094876 
L 87.335794 242.094876 
L 87.335794 242.396364 
L 90.676107 242.396364 
L 90.676107 242.275769 
L 100.697043 242.24562 
L 100.697043 242.125025 
L 104.037355 242.125025 
L 104.037355 241.823538 
L 107.377668 241.823538 
L 107.377668 242.034579 
L 110.71798 242.034579 
L 110.71798 242.275769 
L 114.058292 242.275769 
L 114.058292 242.064728 
L 117.398604 242.064728 
L 117.398604 241.341158 
L 120.738916 241.341158 
L 120.738916 241.52205 
L 124.079229 241.52205 
L 124.079229 241.401455 
L 127.419541 241.401455 
L 127.419541 241.702943 
L 130.759853 241.702943 
L 130.759853 240.828629 
L 137.440478 240.919076 
L 137.440478 240.587439 
L 144.121102 240.557291 
L 144.121102 240.165357 
L 147.461414 240.165357 
L 147.461414 240.376398 
L 150.801726 240.376398 
L 150.801726 239.291044 
L 154.142039 239.291044 
L 154.142039 239.471936 
L 157.482351 239.471936 
L 157.482351 238.808664 
L 167.503287 238.808664 
L 167.503287 237.632863 
L 170.8436 237.632863 
L 170.8436 236.939442 
L 174.183912 236.939442 
L 174.183912 236.185723 
L 177.524224 236.185723 
L 177.524224 236.848996 
L 180.864536 236.848996 
L 180.864536 235.974682 
L 184.204848 235.974682 
L 184.204848 233.86427 
L 187.545161 233.86427 
L 187.545161 234.316501 
L 190.885473 234.316501 
L 190.885473 232.567875 
L 194.225785 232.567875 
L 194.225785 230.186124 
L 197.566097 230.186124 
L 197.566097 229.79419 
L 200.90641 229.79419 
L 200.90641 228.919877 
L 204.246722 228.919877 
L 204.246722 227.89482 
L 207.587034 227.89482 
L 207.587034 226.146193 
L 210.927346 226.146193 
L 210.927346 223.975484 
L 214.267658 223.975484 
L 214.267658 222.920278 
L 217.607971 222.920278 
L 217.607971 219.423024 
L 220.948283 219.423024 
L 220.948283 217.222166 
L 224.288595 217.222166 
L 224.288595 214.297738 
L 227.628907 214.297738 
L 227.628907 212.33807 
L 230.969219 212.33807 
L 230.969219 209.504088 
L 234.309532 209.504088 
L 234.309532 202.99196 
L 237.649844 202.99196 
L 237.649844 197.836526 
L 240.990156 197.836526 
L 240.990156 196.05775 
L 244.330468 196.05775 
L 244.330468 187.646252 
L 247.670781 187.646252 
L 247.670781 184.0887 
L 251.011093 184.0887 
L 251.011093 179.445794 
L 254.351405 179.445794 
L 254.351405 170.129834 
L 257.691717 170.129834 
L 257.691717 164.220681 
L 261.032029 164.220681 
L 261.032029 152.824457 
L 264.372342 152.824457 
L 264.372342 144.533553 
L 267.712654 144.533553 
L 267.712654 135.699972 
L 271.052966 135.699972 
L 271.052966 125.750888 
L 274.393278 125.750888 
L 274.393278 115.470168 
L 277.73359 115.470168 
L 277.73359 101.631896 
L 281.073903 101.631896 
L 281.073903 86.94946 
L 284.414215 86.94946 
L 284.414215 77.271714 
L 287.754527 77.271714 
L 287.754527 60.569312 
L 291.094839 60.569312 
L 291.094839 48.208329 
L 294.435152 48.208329 
L 294.435152 43.62572 
L 297.775464 43.62572 
L 297.775464 41.183672 
L 301.115776 41.183672 
L 301.115776 35.787048 
L 304.456088 35.787048 
L 304.456088 48.238477 
L 307.7964 48.238477 
L 307.7964 56.680125 
L 311.136713 56.680125 
L 311.136713 73.925204 
L 314.477025 73.925204 
L 314.477025 95.029322 
L 317.817337 95.029322 
L 317.817337 113.450202 
L 321.157649 113.450202 
L 321.157649 131.358554 
L 324.497961 131.358554 
L 324.497961 148.784526 
L 327.838274 148.784526 
L 327.838274 167.084811 
L 331.178586 167.084811 
L 331.178586 181.013529 
L 334.518898 181.013529 
L 334.518898 196.78132 
L 337.85921 196.78132 
L 337.85921 203.594935 
L 341.199522 203.594935 
L 341.199522 215.744878 
L 344.539835 215.744878 
L 344.539835 224.970392 
L 347.880147 224.970392 
L 347.880147 230.427314 
L 351.220459 230.427314 
L 351.220459 234.10546 
L 354.560771 234.10546 
L 354.560771 237.090186 
L 357.901084 237.090186 
L 357.901084 239.411639 
L 361.241396 239.411639 
L 361.241396 239.984465 
L 364.581708 239.984465 
L 364.581708 241.009522 
L 367.92202 241.009522 
L 367.92202 241.401455 
L 371.262332 241.401455 
L 371.262332 241.883835 
L 374.602645 241.883835 
L 374.602645 242.305918 
L 377.942957 242.305918 
L 377.942957 242.125025 
L 381.283269 242.125025 
L 381.283269 242.336066 
L 384.623581 242.336066 
L 384.623581 242.48681 
L 394.644518 242.516959 
L 394.644518 242.697851 
L 404.665455 242.697851 
L 404.665455 242.728 
" clip-path="url(#p591c697e97)" style="fill: none; stroke: #1f77b4; stroke-linejoin: miter"/>
   </g>
   <g id="patch_103">
    <path d="M 73.974545 242.728 
L 73.974545 241.853687 
L 77.314858 241.853687 
L 77.314858 242.00443 
L 83.995482 241.913984 
L 83.995482 241.76324 
L 87.335794 241.76324 
L 87.335794 241.552199 
L 90.676107 241.552199 
L 90.676107 241.793389 
L 94.016419 241.793389 
L 94.016419 241.220563 
L 97.356731 241.220563 
L 97.356731 241.401455 
L 100.697043 241.401455 
L 100.697043 240.888927 
L 107.377668 240.828629 
L 107.377668 240.617588 
L 110.71798 240.617588 
L 110.71798 240.285952 
L 117.398604 240.285952 
L 117.398604 239.502085 
L 120.738916 239.502085 
L 120.738916 239.38149 
L 124.079229 239.38149 
L 124.079229 239.200597 
L 127.419541 239.200597 
L 127.419541 238.929259 
L 130.759853 238.929259 
L 130.759853 238.778515 
L 134.100165 238.778515 
L 134.100165 238.41673 
L 137.440478 238.41673 
L 137.440478 237.421822 
L 140.78079 237.421822 
L 140.78079 236.396765 
L 144.121102 236.396765 
L 144.121102 236.004831 
L 150.801726 236.03498 
L 150.801726 234.376799 
L 157.482351 234.376799 
L 157.482351 232.236238 
L 160.822663 232.236238 
L 160.822663 231.422222 
L 164.162975 231.422222 
L 164.162975 230.487611 
L 167.503287 230.487611 
L 167.503287 229.372108 
L 170.8436 229.372108 
L 170.8436 227.231548 
L 174.183912 227.231548 
L 174.183912 226.025598 
L 177.524224 226.025598 
L 177.524224 224.186525 
L 180.864536 224.186525 
L 180.864536 221.834923 
L 184.204848 221.834923 
L 184.204848 220.146594 
L 187.545161 220.146594 
L 187.545161 217.734694 
L 190.885473 217.734694 
L 190.885473 214.026399 
L 194.225785 214.026399 
L 194.225785 212.277772 
L 197.566097 212.277772 
L 197.566097 209.47394 
L 200.90641 209.47394 
L 200.90641 202.690473 
L 204.246722 202.690473 
L 204.246722 199.705748 
L 207.587034 199.705748 
L 207.587034 194.490016 
L 210.927346 194.490016 
L 210.927346 191.324398 
L 214.267658 191.324398 
L 214.267658 186.410153 
L 217.607971 186.410153 
L 217.607971 177.365531 
L 220.948283 177.365531 
L 220.948283 173.205005 
L 224.288595 173.205005 
L 224.288595 168.833438 
L 227.628907 168.833438 
L 227.628907 159.577775 
L 230.969219 159.577775 
L 230.969219 151.105979 
L 234.309532 151.105979 
L 234.309532 144.111471 
L 237.649844 144.111471 
L 237.649844 137.358153 
L 240.990156 137.358153 
L 240.990156 126.866392 
L 244.330468 126.866392 
L 244.330468 116.525374 
L 247.670781 116.525374 
L 247.670781 102.777548 
L 251.011093 102.777548 
L 251.011093 96.717651 
L 254.351405 96.717651 
L 254.351405 85.9847 
L 257.691717 85.9847 
L 257.691717 78.960044 
L 261.032029 78.960044 
L 261.032029 76.427549 
L 264.372342 76.427549 
L 264.372342 73.352378 
L 267.712654 73.352378 
L 267.712654 64.729838 
L 271.052966 64.729838 
L 271.052966 70.850032 
L 274.393278 70.850032 
L 274.393278 77.422458 
L 277.73359 77.422458 
L 277.73359 87.461988 
L 281.073903 87.461988 
L 281.073903 91.893853 
L 284.414215 91.893853 
L 284.414215 112.003063 
L 287.754527 112.003063 
L 287.754527 117.158497 
L 291.094839 117.158497 
L 291.094839 129.006952 
L 294.435152 129.006952 
L 294.435152 140.704663 
L 297.775464 140.704663 
L 297.775464 152.583267 
L 301.115776 152.583267 
L 301.115776 164.974399 
L 304.456088 164.974399 
L 304.456088 176.853003 
L 307.7964 176.853003 
L 307.7964 189.877259 
L 311.136713 189.877259 
L 311.136713 201.152887 
L 314.477025 201.152887 
L 314.477025 209.504088 
L 317.817337 209.504088 
L 317.817337 216.498596 
L 321.157649 216.498596 
L 321.157649 221.834923 
L 324.497961 221.834923 
L 324.497961 227.261696 
L 327.838274 227.261696 
L 327.838274 228.829431 
L 331.178586 228.829431 
L 331.178586 232.356833 
L 334.518898 232.356833 
L 334.518898 235.130517 
L 337.85921 235.130517 
L 337.85921 236.487211 
L 341.199522 236.487211 
L 341.199522 238.446879 
L 344.539835 238.446879 
L 344.539835 239.321192 
L 347.880147 239.321192 
L 347.880147 240.195506 
L 351.220459 240.195506 
L 351.220459 240.677886 
L 354.560771 240.677886 
L 354.560771 241.160266 
L 361.241396 241.160266 
L 361.241396 241.702943 
L 367.92202 241.76324 
L 367.92202 241.823538 
L 371.262332 241.823538 
L 371.262332 242.155174 
L 377.942957 242.185323 
L 377.942957 242.275769 
L 381.283269 242.275769 
L 381.283269 242.396364 
L 387.963893 242.426513 
L 387.963893 242.547108 
L 397.98483 242.516959 
L 397.98483 242.728 
L 404.665455 242.728 
L 404.665455 242.728 
" clip-path="url(#p591c697e97)" style="fill: none; stroke: #ff7f0e; stroke-linejoin: miter"/>
   </g>
   <g id="patch_104">
    <path d="M 57.44 242.728 
L 57.44 25.44 
" style="fill: none; stroke: #000000; stroke-width: 0.8; stroke-linejoin: miter; stroke-linecap: square"/>
   </g>
   <g id="patch_105">
    <path d="M 421.2 242.728 
L 421.2 25.44 
" style="fill: none; stroke: #000000; stroke-width: 0.8; stroke-linejoin: miter; stroke-linecap: square"/>
   </g>
   <g id="patch_106">
    <path d="M 57.44 242.728 
L 421.2 242.728 
" style="fill: none; stroke: #000000; stroke-width: 0.8; stroke-linejoin: miter; stroke-linecap: square"/>
   </g>
   <g id="patch_107">
    <path d="M 57.44 25.44 
L 421.2 25.44 
" style="fill: none; stroke: #000000; stroke-width: 0.8; stroke-linejoin: miter; stroke-linecap: square"/>
   </g>
   <g id="text_16">
    <!-- Evolution of squared parameter values -->
    <g transform="translate(122.495312 19.44)scale(0.12 -0.12)">
     <defs>
      <path id="DejaVuSans-45" d="M 628 4666 
L 3578 4666 
L 3578 4134 
L 1259 4134 
L 1259 2753 
L 3481 2753 
L 3481 2222 
L 1259 2222 
L 1259 531 
L 3634 531 
L 3634 0 
L 628 0 
L 628 4666 
z
" transform="scale(0.015625)"/>
      <path id="DejaVuSans-69" d="M 603 3500 
L 1178 3500 
L 1178 0 
L 603 0 
L 603 3500 
z
M 603 4863 
L 1178 4863 
L 1178 4134 
L 603 4134 
L 603 4863 
z
" transform="scale(0.015625)"/>
      <path id="DejaVuSans-73" d="M 2834 3397 
L 2834 2853 
Q 2591 2978 2328 3040 
Q 2066 3103 1784 3103 
Q 1356 3103 1142 2972 
Q 928 2841 928 2578 
Q 928 2378 1081 2264 
Q 1234 2150 1697 2047 
L 1894 2003 
Q 2506 1872 2764 1633 
Q 3022 1394 3022 966 
Q 3022 478 2636 193 
Q 2250 -91 1575 -91 
Q 1294 -91 989 -36 
Q 684 19 347 128 
L 347 722 
Q 666 556 975 473 
Q 1284 391 1588 391 
Q 1994 391 2212 530 
Q 2431 669 2431 922 
Q 2431 1156 2273 1281 
Q 2116 1406 1581 1522 
L 1381 1569 
Q 847 1681 609 1914 
Q 372 2147 372 2553 
Q 372 3047 722 3315 
Q 1072 3584 1716 3584 
Q 2034 3584 2315 3537 
Q 2597 3491 2834 3397 
z
" transform="scale(0.015625)"/>
     </defs>
     <use xlink:href="#DejaVuSans-45"/>
     <use xlink:href="#DejaVuSans-76" x="63.183594"/>
     <use xlink:href="#DejaVuSans-6f" x="122.363281"/>
     <use xlink:href="#DejaVuSans-6c" x="183.544922"/>
     <use xlink:href="#DejaVuSans-75" x="211.328125"/>
     <use xlink:href="#DejaVuSans-74" x="274.707031"/>
     <use xlink:href="#DejaVuSans-69" x="313.916016"/>
     <use xlink:href="#DejaVuSans-6f" x="341.699219"/>
     <use xlink:href="#DejaVuSans-6e" x="402.880859"/>
     <use xlink:href="#DejaVuSans-20" x="466.259766"/>
     <use xlink:href="#DejaVuSans-6f" x="498.046875"/>
     <use xlink:href="#DejaVuSans-66" x="559.228516"/>
     <use xlink:href="#DejaVuSans-20" x="594.433594"/>
     <use xlink:href="#DejaVuSans-73" x="626.220703"/>
     <use xlink:href="#DejaVuSans-71" x="678.320312"/>
     <use xlink:href="#DejaVuSans-75" x="741.796875"/>
     <use xlink:href="#DejaVuSans-61" x="805.175781"/>
     <use xlink:href="#DejaVuSans-72" x="866.455078"/>
     <use xlink:href="#DejaVuSans-65" x="905.318359"/>
     <use xlink:href="#DejaVuSans-64" x="966.841797"/>
     <use xlink:href="#DejaVuSans-20" x="1030.318359"/>
     <use xlink:href="#DejaVuSans-70" x="1062.105469"/>
     <use xlink:href="#DejaVuSans-61" x="1125.582031"/>
     <use xlink:href="#DejaVuSans-72" x="1186.861328"/>
     <use xlink:href="#DejaVuSans-61" x="1227.974609"/>
     <use xlink:href="#DejaVuSans-6d" x="1289.253906"/>
     <use xlink:href="#DejaVuSans-65" x="1386.666016"/>
     <use xlink:href="#DejaVuSans-74" x="1448.189453"/>
     <use xlink:href="#DejaVuSans-65" x="1487.398438"/>
     <use xlink:href="#DejaVuSans-72" x="1548.921875"/>
     <use xlink:href="#DejaVuSans-20" x="1590.035156"/>
     <use xlink:href="#DejaVuSans-76" x="1621.822266"/>
     <use xlink:href="#DejaVuSans-61" x="1681.001953"/>
     <use xlink:href="#DejaVuSans-6c" x="1742.28125"/>
     <use xlink:href="#DejaVuSans-75" x="1770.064453"/>
     <use xlink:href="#DejaVuSans-65" x="1833.443359"/>
     <use xlink:href="#DejaVuSans-73" x="1894.966797"/>
    </g>
   </g>
   <g id="legend_1">
    <g id="patch_108">
     <path d="M 354.234375 77.474375 
L 414.2 77.474375 
Q 416.2 77.474375 416.2 75.474375 
L 416.2 32.44 
Q 416.2 30.44 414.2 30.44 
L 354.234375 30.44 
Q 352.234375 30.44 352.234375 32.44 
L 352.234375 75.474375 
Q 352.234375 77.474375 354.234375 77.474375 
z
" style="fill: #ffffff; opacity: 0.8; stroke: #cccccc; stroke-linejoin: miter"/>
    </g>
    <g id="patch_109">
     <path d="M 356.234375 42.038438 
L 376.234375 42.038438 
L 376.234375 35.038438 
L 356.234375 35.038438 
L 356.234375 42.038438 
z
" style="fill: none; stroke: #1f77b4; stroke-linejoin: miter"/>
    </g>
    <g id="text_17">
     <!-- begin -->
     <g transform="translate(384.234375 42.038438)scale(0.1 -0.1)">
      <defs>
       <path id="DejaVuSans-62" d="M 3116 1747 
Q 3116 2381 2855 2742 
Q 2594 3103 2138 3103 
Q 1681 3103 1420 2742 
Q 1159 2381 1159 1747 
Q 1159 1113 1420 752 
Q 1681 391 2138 391 
Q 2594 391 2855 752 
Q 3116 1113 3116 1747 
z
M 1159 2969 
Q 1341 3281 1617 3432 
Q 1894 3584 2278 3584 
Q 2916 3584 3314 3078 
Q 3713 2572 3713 1747 
Q 3713 922 3314 415 
Q 2916 -91 2278 -91 
Q 1894 -91 1617 61 
Q 1341 213 1159 525 
L 1159 0 
L 581 0 
L 581 4863 
L 1159 4863 
L 1159 2969 
z
" transform="scale(0.015625)"/>
       <path id="DejaVuSans-67" d="M 2906 1791 
Q 2906 2416 2648 2759 
Q 2391 3103 1925 3103 
Q 1463 3103 1205 2759 
Q 947 2416 947 1791 
Q 947 1169 1205 825 
Q 1463 481 1925 481 
Q 2391 481 2648 825 
Q 2906 1169 2906 1791 
z
M 3481 434 
Q 3481 -459 3084 -895 
Q 2688 -1331 1869 -1331 
Q 1566 -1331 1297 -1286 
Q 1028 -1241 775 -1147 
L 775 -588 
Q 1028 -725 1275 -790 
Q 1522 -856 1778 -856 
Q 2344 -856 2625 -561 
Q 2906 -266 2906 331 
L 2906 616 
Q 2728 306 2450 153 
Q 2172 0 1784 0 
Q 1141 0 747 490 
Q 353 981 353 1791 
Q 353 2603 747 3093 
Q 1141 3584 1784 3584 
Q 2172 3584 2450 3431 
Q 2728 3278 2906 2969 
L 2906 3500 
L 3481 3500 
L 3481 434 
z
" transform="scale(0.015625)"/>
      </defs>
      <use xlink:href="#DejaVuSans-62"/>
      <use xlink:href="#DejaVuSans-65" x="63.476562"/>
      <use xlink:href="#DejaVuSans-67" x="125"/>
      <use xlink:href="#DejaVuSans-69" x="188.476562"/>
      <use xlink:href="#DejaVuSans-6e" x="216.259766"/>
     </g>
    </g>
    <g id="patch_110">
     <path d="M 356.234375 56.716563 
L 376.234375 56.716563 
L 376.234375 49.716563 
L 356.234375 49.716563 
L 356.234375 56.716563 
z
" style="fill: none; stroke: #ff7f0e; stroke-linejoin: miter"/>
    </g>
    <g id="text_18">
     <!-- mid -->
     <g transform="translate(384.234375 56.716563)scale(0.1 -0.1)">
      <use xlink:href="#DejaVuSans-6d"/>
      <use xlink:href="#DejaVuSans-69" x="97.412109"/>
      <use xlink:href="#DejaVuSans-64" x="125.195312"/>
     </g>
    </g>
    <g id="patch_111">
     <path d="M 356.234375 71.394688 
L 376.234375 71.394688 
L 376.234375 64.394688 
L 356.234375 64.394688 
z
" style="fill: #2ca02c"/>
    </g>
    <g id="text_19">
     <!-- end -->
     <g transform="translate(384.234375 71.394688)scale(0.1 -0.1)">
      <use xlink:href="#DejaVuSans-65"/>
      <use xlink:href="#DejaVuSans-6e" x="61.523438"/>
      <use xlink:href="#DejaVuSans-64" x="124.902344"/>
     </g>
    </g>
   </g>
  </g>
 </g>
 <defs>
  <clipPath id="p591c697e97">
   <rect x="57.44" y="25.44" width="363.76" height="217.288"/>
  </clipPath>
 </defs>
</svg>
