<?xml version="1.0" encoding="utf-8" standalone="no"?>
<!DOCTYPE svg PUBLIC "-//W3C//DTD SVG 1.1//EN"
  "http://www.w3.org/Graphics/SVG/1.1/DTD/svg11.dtd">
<svg xmlns:xlink="http://www.w3.org/1999/xlink" width="432pt" height="288pt" viewBox="0 0 432 288" xmlns="http://www.w3.org/2000/svg" version="1.1">
 <metadata>
  <rdf:RDF xmlns:dc="http://purl.org/dc/elements/1.1/" xmlns:cc="http://creativecommons.org/ns#" xmlns:rdf="http://www.w3.org/1999/02/22-rdf-syntax-ns#">
   <cc:Work>
    <dc:type rdf:resource="http://purl.org/dc/dcmitype/StillImage"/>
    <dc:date>2023-03-25T14:31:19.513656</dc:date>
    <dc:format>image/svg+xml</dc:format>
    <dc:creator>
     <cc:Agent>
      <dc:title>Matplotlib v3.5.1, https://matplotlib.org/</dc:title>
     </cc:Agent>
    </dc:creator>
   </cc:Work>
  </rdf:RDF>
 </metadata>
 <defs>
  <style type="text/css">*{stroke-linejoin: round; stroke-linecap: butt}</style>
 </defs>
 <g id="figure_1">
  <g id="patch_1">
   <path d="M 0 288 
L 432 288 
L 432 0 
L 0 0 
z
" style="fill: #ffffff"/>
  </g>
  <g id="axes_1">
   <g id="patch_2">
    <path d="M 70.22 242.728 
L 421.2 242.728 
L 421.2 25.44 
L 70.22 25.44 
z
" style="fill: #ffffff"/>
   </g>
   <g id="patch_3">
    <path d="M 86.173636 242.728 
L 89.396593 242.728 
L 89.396593 242.657054 
L 86.173636 242.657054 
z
" clip-path="url(#peb67848a43)" style="fill: #ff7f0e"/>
   </g>
   <g id="patch_4">
    <path d="M 89.396593 242.728 
L 92.61955 242.728 
L 92.61955 242.602713 
L 89.396593 242.602713 
z
" clip-path="url(#peb67848a43)" style="fill: #ff7f0e"/>
   </g>
   <g id="patch_5">
    <path d="M 92.61955 242.728 
L 95.842507 242.728 
L 95.842507 242.549881 
L 92.61955 242.549881 
z
" clip-path="url(#peb67848a43)" style="fill: #ff7f0e"/>
   </g>
   <g id="patch_6">
    <path d="M 95.842507 242.728 
L 99.065464 242.728 
L 99.065464 242.478935 
L 95.842507 242.478935 
z
" clip-path="url(#peb67848a43)" style="fill: #ff7f0e"/>
   </g>
   <g id="patch_7">
    <path d="M 99.065464 242.728 
L 102.288421 242.728 
L 102.288421 242.394404 
L 99.065464 242.394404 
z
" clip-path="url(#peb67848a43)" style="fill: #ff7f0e"/>
   </g>
   <g id="patch_8">
    <path d="M 102.288421 242.728 
L 105.511377 242.728 
L 105.511377 242.284212 
L 102.288421 242.284212 
z
" clip-path="url(#peb67848a43)" style="fill: #ff7f0e"/>
   </g>
   <g id="patch_9">
    <path d="M 105.511377 242.728 
L 108.734334 242.728 
L 108.734334 242.177039 
L 105.511377 242.177039 
z
" clip-path="url(#peb67848a43)" style="fill: #ff7f0e"/>
   </g>
   <g id="patch_10">
    <path d="M 108.734334 242.728 
L 111.957291 242.728 
L 111.957291 242.062318 
L 108.734334 242.062318 
z
" clip-path="url(#peb67848a43)" style="fill: #ff7f0e"/>
   </g>
   <g id="patch_11">
    <path d="M 111.957291 242.728 
L 115.180248 242.728 
L 115.180248 241.909861 
L 111.957291 241.909861 
z
" clip-path="url(#peb67848a43)" style="fill: #ff7f0e"/>
   </g>
   <g id="patch_12">
    <path d="M 115.180248 242.728 
L 118.403205 242.728 
L 118.403205 241.774007 
L 115.180248 241.774007 
z
" clip-path="url(#peb67848a43)" style="fill: #ff7f0e"/>
   </g>
   <g id="patch_13">
    <path d="M 118.403205 242.728 
L 121.626162 242.728 
L 121.626162 241.604945 
L 118.403205 241.604945 
z
" clip-path="url(#peb67848a43)" style="fill: #ff7f0e"/>
   </g>
   <g id="patch_14">
    <path d="M 121.626162 242.728 
L 124.849118 242.728 
L 124.849118 241.44494 
L 121.626162 241.44494 
z
" clip-path="url(#peb67848a43)" style="fill: #ff7f0e"/>
   </g>
   <g id="patch_15">
    <path d="M 124.849118 242.728 
L 128.072075 242.728 
L 128.072075 241.275878 
L 124.849118 241.275878 
z
" clip-path="url(#peb67848a43)" style="fill: #ff7f0e"/>
   </g>
   <g id="patch_16">
    <path d="M 128.072075 242.728 
L 131.295032 242.728 
L 131.295032 241.031342 
L 128.072075 241.031342 
z
" clip-path="url(#peb67848a43)" style="fill: #ff7f0e"/>
   </g>
   <g id="patch_17">
    <path d="M 131.295032 242.728 
L 134.517989 242.728 
L 134.517989 240.815486 
L 131.295032 240.815486 
z
" clip-path="url(#peb67848a43)" style="fill: #ff7f0e"/>
   </g>
   <g id="patch_18">
    <path d="M 134.517989 242.728 
L 137.740946 242.728 
L 137.740946 240.51208 
L 134.517989 240.51208 
z
" clip-path="url(#peb67848a43)" style="fill: #ff7f0e"/>
   </g>
   <g id="patch_19">
    <path d="M 137.740946 242.728 
L 140.963903 242.728 
L 140.963903 240.223769 
L 137.740946 240.223769 
z
" clip-path="url(#peb67848a43)" style="fill: #ff7f0e"/>
   </g>
   <g id="patch_20">
    <path d="M 140.963903 242.728 
L 144.18686 242.728 
L 144.18686 239.912816 
L 140.963903 239.912816 
z
" clip-path="url(#peb67848a43)" style="fill: #ff7f0e"/>
   </g>
   <g id="patch_21">
    <path d="M 144.18686 242.728 
L 147.409816 242.728 
L 147.409816 239.506765 
L 144.18686 239.506765 
z
" clip-path="url(#peb67848a43)" style="fill: #ff7f0e"/>
   </g>
   <g id="patch_22">
    <path d="M 147.409816 242.728 
L 150.632773 242.728 
L 150.632773 239.121847 
L 147.409816 239.121847 
z
" clip-path="url(#peb67848a43)" style="fill: #ff7f0e"/>
   </g>
   <g id="patch_23">
    <path d="M 150.632773 242.728 
L 153.85573 242.728 
L 153.85573 238.61617 
L 150.632773 238.61617 
z
" clip-path="url(#peb67848a43)" style="fill: #ff7f0e"/>
   </g>
   <g id="patch_24">
    <path d="M 153.85573 242.728 
L 157.078687 242.728 
L 157.078687 238.182949 
L 153.85573 238.182949 
z
" clip-path="url(#peb67848a43)" style="fill: #ff7f0e"/>
   </g>
   <g id="patch_25">
    <path d="M 157.078687 242.728 
L 160.301644 242.728 
L 160.301644 237.68331 
L 157.078687 237.68331 
z
" clip-path="url(#peb67848a43)" style="fill: #ff7f0e"/>
   </g>
   <g id="patch_26">
    <path d="M 160.301644 242.728 
L 163.524601 242.728 
L 163.524601 237.055366 
L 160.301644 237.055366 
z
" clip-path="url(#peb67848a43)" style="fill: #ff7f0e"/>
   </g>
   <g id="patch_27">
    <path d="M 163.524601 242.728 
L 166.747557 242.728 
L 166.747557 236.333833 
L 163.524601 236.333833 
z
" clip-path="url(#peb67848a43)" style="fill: #ff7f0e"/>
   </g>
   <g id="patch_28">
    <path d="M 166.747557 242.728 
L 169.970514 242.728 
L 169.970514 235.583621 
L 166.747557 235.583621 
z
" clip-path="url(#peb67848a43)" style="fill: #ff7f0e"/>
   </g>
   <g id="patch_29">
    <path d="M 169.970514 242.728 
L 173.193471 242.728 
L 173.193471 234.824351 
L 169.970514 234.824351 
z
" clip-path="url(#peb67848a43)" style="fill: #ff7f0e"/>
   </g>
   <g id="patch_30">
    <path d="M 173.193471 242.728 
L 176.416428 242.728 
L 176.416428 233.954889 
L 173.193471 233.954889 
z
" clip-path="url(#peb67848a43)" style="fill: #ff7f0e"/>
   </g>
   <g id="patch_31">
    <path d="M 176.416428 242.728 
L 179.639385 242.728 
L 179.639385 232.951084 
L 176.416428 232.951084 
z
" clip-path="url(#peb67848a43)" style="fill: #ff7f0e"/>
   </g>
   <g id="patch_32">
    <path d="M 179.639385 242.728 
L 182.862342 242.728 
L 182.862342 231.888408 
L 179.639385 231.888408 
z
" clip-path="url(#peb67848a43)" style="fill: #ff7f0e"/>
   </g>
   <g id="patch_33">
    <path d="M 182.862342 242.728 
L 186.085298 242.728 
L 186.085298 230.727617 
L 182.862342 230.727617 
z
" clip-path="url(#peb67848a43)" style="fill: #ff7f0e"/>
   </g>
   <g id="patch_34">
    <path d="M 186.085298 242.728 
L 189.308255 242.728 
L 189.308255 229.474746 
L 186.085298 229.474746 
z
" clip-path="url(#peb67848a43)" style="fill: #ff7f0e"/>
   </g>
   <g id="patch_35">
    <path d="M 189.308255 242.728 
L 192.531212 242.728 
L 192.531212 227.921489 
L 189.308255 227.921489 
z
" clip-path="url(#peb67848a43)" style="fill: #ff7f0e"/>
   </g>
   <g id="patch_36">
    <path d="M 192.531212 242.728 
L 195.754169 242.728 
L 195.754169 226.149357 
L 192.531212 226.149357 
z
" clip-path="url(#peb67848a43)" style="fill: #ff7f0e"/>
   </g>
   <g id="patch_37">
    <path d="M 195.754169 242.728 
L 198.977126 242.728 
L 198.977126 224.309298 
L 195.754169 224.309298 
z
" clip-path="url(#peb67848a43)" style="fill: #ff7f0e"/>
   </g>
   <g id="patch_38">
    <path d="M 198.977126 242.728 
L 202.200083 242.728 
L 202.200083 222.253383 
L 198.977126 222.253383 
z
" clip-path="url(#peb67848a43)" style="fill: #ff7f0e"/>
   </g>
   <g id="patch_39">
    <path d="M 202.200083 242.728 
L 205.423039 242.728 
L 205.423039 219.933309 
L 202.200083 219.933309 
z
" clip-path="url(#peb67848a43)" style="fill: #ff7f0e"/>
   </g>
   <g id="patch_40">
    <path d="M 205.423039 242.728 
L 208.645996 242.728 
L 208.645996 217.391341 
L 205.423039 217.391341 
z
" clip-path="url(#peb67848a43)" style="fill: #ff7f0e"/>
   </g>
   <g id="patch_41">
    <path d="M 208.645996 242.728 
L 211.868953 242.728 
L 211.868953 214.68484 
L 208.645996 214.68484 
z
" clip-path="url(#peb67848a43)" style="fill: #ff7f0e"/>
   </g>
   <g id="patch_42">
    <path d="M 211.868953 242.728 
L 215.09191 242.728 
L 215.09191 211.693046 
L 211.868953 211.693046 
z
" clip-path="url(#peb67848a43)" style="fill: #ff7f0e"/>
   </g>
   <g id="patch_43">
    <path d="M 215.09191 242.728 
L 218.314867 242.728 
L 218.314867 208.372185 
L 215.09191 208.372185 
z
" clip-path="url(#peb67848a43)" style="fill: #ff7f0e"/>
   </g>
   <g id="patch_44">
    <path d="M 218.314867 242.728 
L 221.537824 242.728 
L 221.537824 204.702634 
L 218.314867 204.702634 
z
" clip-path="url(#peb67848a43)" style="fill: #ff7f0e"/>
   </g>
   <g id="patch_45">
    <path d="M 221.537824 242.728 
L 224.760781 242.728 
L 224.760781 200.675335 
L 221.537824 200.675335 
z
" clip-path="url(#peb67848a43)" style="fill: #ff7f0e"/>
   </g>
   <g id="patch_46">
    <path d="M 224.760781 242.728 
L 227.983737 242.728 
L 227.983737 196.069905 
L 224.760781 196.069905 
z
" clip-path="url(#peb67848a43)" style="fill: #ff7f0e"/>
   </g>
   <g id="patch_47">
    <path d="M 227.983737 242.728 
L 231.206694 242.728 
L 231.206694 191.342207 
L 227.983737 191.342207 
z
" clip-path="url(#peb67848a43)" style="fill: #ff7f0e"/>
   </g>
   <g id="patch_48">
    <path d="M 231.206694 242.728 
L 234.429651 242.728 
L 234.429651 186.004678 
L 231.206694 186.004678 
z
" clip-path="url(#peb67848a43)" style="fill: #ff7f0e"/>
   </g>
   <g id="patch_49">
    <path d="M 234.429651 242.728 
L 237.652608 242.728 
L 237.652608 180.335063 
L 234.429651 180.335063 
z
" clip-path="url(#peb67848a43)" style="fill: #ff7f0e"/>
   </g>
   <g id="patch_50">
    <path d="M 237.652608 242.728 
L 240.875565 242.728 
L 240.875565 174.037503 
L 237.652608 174.037503 
z
" clip-path="url(#peb67848a43)" style="fill: #ff7f0e"/>
   </g>
   <g id="patch_51">
    <path d="M 240.875565 242.728 
L 244.098522 242.728 
L 244.098522 167.527106 
L 240.875565 167.527106 
z
" clip-path="url(#peb67848a43)" style="fill: #ff7f0e"/>
   </g>
   <g id="patch_52">
    <path d="M 244.098522 242.728 
L 247.321478 242.728 
L 247.321478 161.001615 
L 244.098522 161.001615 
z
" clip-path="url(#peb67848a43)" style="fill: #ff7f0e"/>
   </g>
   <g id="patch_53">
    <path d="M 247.321478 242.728 
L 250.544435 242.728 
L 250.544435 153.977994 
L 247.321478 153.977994 
z
" clip-path="url(#peb67848a43)" style="fill: #ff7f0e"/>
   </g>
   <g id="patch_54">
    <path d="M 250.544435 242.728 
L 253.767392 242.728 
L 253.767392 146.593607 
L 250.544435 146.593607 
z
" clip-path="url(#peb67848a43)" style="fill: #ff7f0e"/>
   </g>
   <g id="patch_55">
    <path d="M 253.767392 242.728 
L 256.990349 242.728 
L 256.990349 139.115632 
L 253.767392 139.115632 
z
" clip-path="url(#peb67848a43)" style="fill: #ff7f0e"/>
   </g>
   <g id="patch_56">
    <path d="M 256.990349 242.728 
L 260.213306 242.728 
L 260.213306 131.744831 
L 256.990349 131.744831 
z
" clip-path="url(#peb67848a43)" style="fill: #ff7f0e"/>
   </g>
   <g id="patch_57">
    <path d="M 260.213306 242.728 
L 263.436263 242.728 
L 263.436263 124.245723 
L 260.213306 124.245723 
z
" clip-path="url(#peb67848a43)" style="fill: #ff7f0e"/>
   </g>
   <g id="patch_58">
    <path d="M 263.436263 242.728 
L 266.659219 242.728 
L 266.659219 117.151157 
L 263.436263 117.151157 
z
" clip-path="url(#peb67848a43)" style="fill: #ff7f0e"/>
   </g>
   <g id="patch_59">
    <path d="M 266.659219 242.728 
L 269.882176 242.728 
L 269.882176 110.178859 
L 266.659219 110.178859 
z
" clip-path="url(#peb67848a43)" style="fill: #ff7f0e"/>
   </g>
   <g id="patch_60">
    <path d="M 269.882176 242.728 
L 273.105133 242.728 
L 273.105133 103.286563 
L 269.882176 103.286563 
z
" clip-path="url(#peb67848a43)" style="fill: #ff7f0e"/>
   </g>
   <g id="patch_61">
    <path d="M 273.105133 242.728 
L 276.32809 242.728 
L 276.32809 96.50295 
L 273.105133 96.50295 
z
" clip-path="url(#peb67848a43)" style="fill: #ff7f0e"/>
   </g>
   <g id="patch_62">
    <path d="M 276.32809 242.728 
L 279.551047 242.728 
L 279.551047 89.954816 
L 276.32809 89.954816 
z
" clip-path="url(#peb67848a43)" style="fill: #ff7f0e"/>
   </g>
   <g id="patch_63">
    <path d="M 279.551047 242.728 
L 282.774004 242.728 
L 282.774004 83.830847 
L 279.551047 83.830847 
z
" clip-path="url(#peb67848a43)" style="fill: #ff7f0e"/>
   </g>
   <g id="patch_64">
    <path d="M 282.774004 242.728 
L 285.996961 242.728 
L 285.996961 77.924243 
L 282.774004 77.924243 
z
" clip-path="url(#peb67848a43)" style="fill: #ff7f0e"/>
   </g>
   <g id="patch_65">
    <path d="M 285.996961 242.728 
L 289.219917 242.728 
L 289.219917 72.45237 
L 285.996961 72.45237 
z
" clip-path="url(#peb67848a43)" style="fill: #ff7f0e"/>
   </g>
   <g id="patch_66">
    <path d="M 289.219917 242.728 
L 292.442874 242.728 
L 292.442874 67.38051 
L 289.219917 67.38051 
z
" clip-path="url(#peb67848a43)" style="fill: #ff7f0e"/>
   </g>
   <g id="patch_67">
    <path d="M 292.442874 242.728 
L 295.665831 242.728 
L 295.665831 62.609037 
L 292.442874 62.609037 
z
" clip-path="url(#peb67848a43)" style="fill: #ff7f0e"/>
   </g>
   <g id="patch_68">
    <path d="M 295.665831 242.728 
L 298.888788 242.728 
L 298.888788 58.300975 
L 295.665831 58.300975 
z
" clip-path="url(#peb67848a43)" style="fill: #ff7f0e"/>
   </g>
   <g id="patch_69">
    <path d="M 298.888788 242.728 
L 302.111745 242.728 
L 302.111745 54.589158 
L 298.888788 54.589158 
z
" clip-path="url(#peb67848a43)" style="fill: #ff7f0e"/>
   </g>
   <g id="patch_70">
    <path d="M 302.111745 242.728 
L 305.334702 242.728 
L 305.334702 51.366413 
L 302.111745 51.366413 
z
" clip-path="url(#peb67848a43)" style="fill: #ff7f0e"/>
   </g>
   <g id="patch_71">
    <path d="M 305.334702 242.728 
L 308.557658 242.728 
L 308.557658 48.611608 
L 305.334702 48.611608 
z
" clip-path="url(#peb67848a43)" style="fill: #ff7f0e"/>
   </g>
   <g id="patch_72">
    <path d="M 308.557658 242.728 
L 311.780615 242.728 
L 311.780615 46.249269 
L 308.557658 46.249269 
z
" clip-path="url(#peb67848a43)" style="fill: #ff7f0e"/>
   </g>
   <g id="patch_73">
    <path d="M 311.780615 242.728 
L 315.003572 242.728 
L 315.003572 44.274866 
L 311.780615 44.274866 
z
" clip-path="url(#peb67848a43)" style="fill: #ff7f0e"/>
   </g>
   <g id="patch_74">
    <path d="M 315.003572 242.728 
L 318.226529 242.728 
L 318.226529 42.611417 
L 315.003572 42.611417 
z
" clip-path="url(#peb67848a43)" style="fill: #ff7f0e"/>
   </g>
   <g id="patch_75">
    <path d="M 318.226529 242.728 
L 321.449486 242.728 
L 321.449486 41.237788 
L 318.226529 41.237788 
z
" clip-path="url(#peb67848a43)" style="fill: #ff7f0e"/>
   </g>
   <g id="patch_76">
    <path d="M 321.449486 242.728 
L 324.672443 242.728 
L 324.672443 40.230963 
L 321.449486 40.230963 
z
" clip-path="url(#peb67848a43)" style="fill: #ff7f0e"/>
   </g>
   <g id="patch_77">
    <path d="M 324.672443 242.728 
L 327.895399 242.728 
L 327.895399 39.378106 
L 324.672443 39.378106 
z
" clip-path="url(#peb67848a43)" style="fill: #ff7f0e"/>
   </g>
   <g id="patch_78">
    <path d="M 327.895399 242.728 
L 331.118356 242.728 
L 331.118356 38.72299 
L 327.895399 38.72299 
z
" clip-path="url(#peb67848a43)" style="fill: #ff7f0e"/>
   </g>
   <g id="patch_79">
    <path d="M 331.118356 242.728 
L 334.341313 242.728 
L 334.341313 38.215804 
L 331.118356 38.215804 
z
" clip-path="url(#peb67848a43)" style="fill: #ff7f0e"/>
   </g>
   <g id="patch_80">
    <path d="M 334.341313 242.728 
L 337.56427 242.728 
L 337.56427 37.772017 
L 334.341313 37.772017 
z
" clip-path="url(#peb67848a43)" style="fill: #ff7f0e"/>
   </g>
   <g id="patch_81">
    <path d="M 337.56427 242.728 
L 340.787227 242.728 
L 340.787227 37.464082 
L 337.56427 37.464082 
z
" clip-path="url(#peb67848a43)" style="fill: #ff7f0e"/>
   </g>
   <g id="patch_82">
    <path d="M 340.787227 242.728 
L 344.010184 242.728 
L 344.010184 37.225584 
L 340.787227 37.225584 
z
" clip-path="url(#peb67848a43)" style="fill: #ff7f0e"/>
   </g>
   <g id="patch_83">
    <path d="M 344.010184 242.728 
L 347.23314 242.728 
L 347.23314 37.006709 
L 344.010184 37.006709 
z
" clip-path="url(#peb67848a43)" style="fill: #ff7f0e"/>
   </g>
   <g id="patch_84">
    <path d="M 347.23314 242.728 
L 350.456097 242.728 
L 350.456097 36.85878 
L 347.23314 36.85878 
z
" clip-path="url(#peb67848a43)" style="fill: #ff7f0e"/>
   </g>
   <g id="patch_85">
    <path d="M 350.456097 242.728 
L 353.679054 242.728 
L 353.679054 36.747078 
L 350.456097 36.747078 
z
" clip-path="url(#peb67848a43)" style="fill: #ff7f0e"/>
   </g>
   <g id="patch_86">
    <path d="M 353.679054 242.728 
L 356.902011 242.728 
L 356.902011 36.627829 
L 353.679054 36.627829 
z
" clip-path="url(#peb67848a43)" style="fill: #ff7f0e"/>
   </g>
   <g id="patch_87">
    <path d="M 356.902011 242.728 
L 360.124968 242.728 
L 360.124968 36.562921 
L 356.902011 36.562921 
z
" clip-path="url(#peb67848a43)" style="fill: #ff7f0e"/>
   </g>
   <g id="patch_88">
    <path d="M 360.124968 242.728 
L 363.347925 242.728 
L 363.347925 36.482919 
L 360.124968 36.482919 
z
" clip-path="url(#peb67848a43)" style="fill: #ff7f0e"/>
   </g>
   <g id="patch_89">
    <path d="M 363.347925 242.728 
L 366.570882 242.728 
L 366.570882 36.425559 
L 363.347925 36.425559 
z
" clip-path="url(#peb67848a43)" style="fill: #ff7f0e"/>
   </g>
   <g id="patch_90">
    <path d="M 366.570882 242.728 
L 369.793838 242.728 
L 369.793838 36.371217 
L 366.570882 36.371217 
z
" clip-path="url(#peb67848a43)" style="fill: #ff7f0e"/>
   </g>
   <g id="patch_91">
    <path d="M 369.793838 242.728 
L 373.016795 242.728 
L 373.016795 36.339518 
L 369.793838 36.339518 
z
" clip-path="url(#peb67848a43)" style="fill: #ff7f0e"/>
   </g>
   <g id="patch_92">
    <path d="M 373.016795 242.728 
L 376.239752 242.728 
L 376.239752 36.313857 
L 373.016795 36.313857 
z
" clip-path="url(#peb67848a43)" style="fill: #ff7f0e"/>
   </g>
   <g id="patch_93">
    <path d="M 376.239752 242.728 
L 379.462709 242.728 
L 379.462709 36.286686 
L 376.239752 36.286686 
z
" clip-path="url(#peb67848a43)" style="fill: #ff7f0e"/>
   </g>
   <g id="patch_94">
    <path d="M 379.462709 242.728 
L 382.685666 242.728 
L 382.685666 36.259516 
L 379.462709 36.259516 
z
" clip-path="url(#peb67848a43)" style="fill: #ff7f0e"/>
   </g>
   <g id="patch_95">
    <path d="M 382.685666 242.728 
L 385.908623 242.728 
L 385.908623 36.239892 
L 382.685666 36.239892 
z
" clip-path="url(#peb67848a43)" style="fill: #ff7f0e"/>
   </g>
   <g id="patch_96">
    <path d="M 385.908623 242.728 
L 389.131579 242.728 
L 389.131579 36.224797 
L 385.908623 36.224797 
z
" clip-path="url(#peb67848a43)" style="fill: #ff7f0e"/>
   </g>
   <g id="patch_97">
    <path d="M 389.131579 242.728 
L 392.354536 242.728 
L 392.354536 36.214231 
L 389.131579 36.214231 
z
" clip-path="url(#peb67848a43)" style="fill: #ff7f0e"/>
   </g>
   <g id="patch_98">
    <path d="M 392.354536 242.728 
L 395.577493 242.728 
L 395.577493 36.202155 
L 392.354536 36.202155 
z
" clip-path="url(#peb67848a43)" style="fill: #ff7f0e"/>
   </g>
   <g id="patch_99">
    <path d="M 395.577493 242.728 
L 398.80045 242.728 
L 398.80045 36.196117 
L 395.577493 36.196117 
z
" clip-path="url(#peb67848a43)" style="fill: #ff7f0e"/>
   </g>
   <g id="patch_100">
    <path d="M 398.80045 242.728 
L 402.023407 242.728 
L 402.023407 36.18706 
L 398.80045 36.18706 
z
" clip-path="url(#peb67848a43)" style="fill: #ff7f0e"/>
   </g>
   <g id="patch_101">
    <path d="M 402.023407 242.728 
L 405.246364 242.728 
L 405.246364 36.18706 
L 402.023407 36.18706 
z
" clip-path="url(#peb67848a43)" style="fill: #ff7f0e"/>
   </g>
   <g id="matplotlib.axis_1">
    <g id="xtick_1">
     <g id="line2d_1">
      <defs>
       <path id="m256e717c3d" d="M 0 0 
L 0 3.5 
" style="stroke: #000000; stroke-width: 0.8"/>
      </defs>
      <g>
       <use xlink:href="#m256e717c3d" x="121.626162" y="242.728" style="stroke: #000000; stroke-width: 0.8"/>
      </g>
     </g>
     <g id="text_1">
      <!-- $\mathdefault{10^{-8}}$ -->
      <g transform="translate(109.876162 257.326437)scale(0.1 -0.1)">
       <defs>
        <path id="DejaVuSans-31" d="M 794 531 
L 1825 531 
L 1825 4091 
L 703 3866 
L 703 4441 
L 1819 4666 
L 2450 4666 
L 2450 531 
L 3481 531 
L 3481 0 
L 794 0 
L 794 531 
z
" transform="scale(0.015625)"/>
        <path id="DejaVuSans-30" d="M 2034 4250 
Q 1547 4250 1301 3770 
Q 1056 3291 1056 2328 
Q 1056 1369 1301 889 
Q 1547 409 2034 409 
Q 2525 409 2770 889 
Q 3016 1369 3016 2328 
Q 3016 3291 2770 3770 
Q 2525 4250 2034 4250 
z
M 2034 4750 
Q 2819 4750 3233 4129 
Q 3647 3509 3647 2328 
Q 3647 1150 3233 529 
Q 2819 -91 2034 -91 
Q 1250 -91 836 529 
Q 422 1150 422 2328 
Q 422 3509 836 4129 
Q 1250 4750 2034 4750 
z
" transform="scale(0.015625)"/>
        <path id="DejaVuSans-2212" d="M 678 2272 
L 4684 2272 
L 4684 1741 
L 678 1741 
L 678 2272 
z
" transform="scale(0.015625)"/>
        <path id="DejaVuSans-38" d="M 2034 2216 
Q 1584 2216 1326 1975 
Q 1069 1734 1069 1313 
Q 1069 891 1326 650 
Q 1584 409 2034 409 
Q 2484 409 2743 651 
Q 3003 894 3003 1313 
Q 3003 1734 2745 1975 
Q 2488 2216 2034 2216 
z
M 1403 2484 
Q 997 2584 770 2862 
Q 544 3141 544 3541 
Q 544 4100 942 4425 
Q 1341 4750 2034 4750 
Q 2731 4750 3128 4425 
Q 3525 4100 3525 3541 
Q 3525 3141 3298 2862 
Q 3072 2584 2669 2484 
Q 3125 2378 3379 2068 
Q 3634 1759 3634 1313 
Q 3634 634 3220 271 
Q 2806 -91 2034 -91 
Q 1263 -91 848 271 
Q 434 634 434 1313 
Q 434 1759 690 2068 
Q 947 2378 1403 2484 
z
M 1172 3481 
Q 1172 3119 1398 2916 
Q 1625 2713 2034 2713 
Q 2441 2713 2670 2916 
Q 2900 3119 2900 3481 
Q 2900 3844 2670 4047 
Q 2441 4250 2034 4250 
Q 1625 4250 1398 4047 
Q 1172 3844 1172 3481 
z
" transform="scale(0.015625)"/>
       </defs>
       <use xlink:href="#DejaVuSans-31" transform="translate(0 0.765625)"/>
       <use xlink:href="#DejaVuSans-30" transform="translate(63.623047 0.765625)"/>
       <use xlink:href="#DejaVuSans-2212" transform="translate(128.203125 39.046875)scale(0.7)"/>
       <use xlink:href="#DejaVuSans-38" transform="translate(186.855469 39.046875)scale(0.7)"/>
      </g>
     </g>
    </g>
    <g id="xtick_2">
     <g id="line2d_2">
      <g>
       <use xlink:href="#m256e717c3d" x="192.531212" y="242.728" style="stroke: #000000; stroke-width: 0.8"/>
      </g>
     </g>
     <g id="text_2">
      <!-- $\mathdefault{10^{-6}}$ -->
      <g transform="translate(180.781212 257.326437)scale(0.1 -0.1)">
       <defs>
        <path id="DejaVuSans-36" d="M 2113 2584 
Q 1688 2584 1439 2293 
Q 1191 2003 1191 1497 
Q 1191 994 1439 701 
Q 1688 409 2113 409 
Q 2538 409 2786 701 
Q 3034 994 3034 1497 
Q 3034 2003 2786 2293 
Q 2538 2584 2113 2584 
z
M 3366 4563 
L 3366 3988 
Q 3128 4100 2886 4159 
Q 2644 4219 2406 4219 
Q 1781 4219 1451 3797 
Q 1122 3375 1075 2522 
Q 1259 2794 1537 2939 
Q 1816 3084 2150 3084 
Q 2853 3084 3261 2657 
Q 3669 2231 3669 1497 
Q 3669 778 3244 343 
Q 2819 -91 2113 -91 
Q 1303 -91 875 529 
Q 447 1150 447 2328 
Q 447 3434 972 4092 
Q 1497 4750 2381 4750 
Q 2619 4750 2861 4703 
Q 3103 4656 3366 4563 
z
" transform="scale(0.015625)"/>
       </defs>
       <use xlink:href="#DejaVuSans-31" transform="translate(0 0.765625)"/>
       <use xlink:href="#DejaVuSans-30" transform="translate(63.623047 0.765625)"/>
       <use xlink:href="#DejaVuSans-2212" transform="translate(128.203125 39.046875)scale(0.7)"/>
       <use xlink:href="#DejaVuSans-36" transform="translate(186.855469 39.046875)scale(0.7)"/>
      </g>
     </g>
    </g>
    <g id="xtick_3">
     <g id="line2d_3">
      <g>
       <use xlink:href="#m256e717c3d" x="263.436263" y="242.728" style="stroke: #000000; stroke-width: 0.8"/>
      </g>
     </g>
     <g id="text_3">
      <!-- $\mathdefault{10^{-4}}$ -->
      <g transform="translate(251.686263 257.326437)scale(0.1 -0.1)">
       <defs>
        <path id="DejaVuSans-34" d="M 2419 4116 
L 825 1625 
L 2419 1625 
L 2419 4116 
z
M 2253 4666 
L 3047 4666 
L 3047 1625 
L 3713 1625 
L 3713 1100 
L 3047 1100 
L 3047 0 
L 2419 0 
L 2419 1100 
L 313 1100 
L 313 1709 
L 2253 4666 
z
" transform="scale(0.015625)"/>
       </defs>
       <use xlink:href="#DejaVuSans-31" transform="translate(0 0.684375)"/>
       <use xlink:href="#DejaVuSans-30" transform="translate(63.623047 0.684375)"/>
       <use xlink:href="#DejaVuSans-2212" transform="translate(128.203125 38.965625)scale(0.7)"/>
       <use xlink:href="#DejaVuSans-34" transform="translate(186.855469 38.965625)scale(0.7)"/>
      </g>
     </g>
    </g>
    <g id="xtick_4">
     <g id="line2d_4">
      <g>
       <use xlink:href="#m256e717c3d" x="334.341313" y="242.728" style="stroke: #000000; stroke-width: 0.8"/>
      </g>
     </g>
     <g id="text_4">
      <!-- $\mathdefault{10^{-2}}$ -->
      <g transform="translate(322.591313 257.326437)scale(0.1 -0.1)">
       <defs>
        <path id="DejaVuSans-32" d="M 1228 531 
L 3431 531 
L 3431 0 
L 469 0 
L 469 531 
Q 828 903 1448 1529 
Q 2069 2156 2228 2338 
Q 2531 2678 2651 2914 
Q 2772 3150 2772 3378 
Q 2772 3750 2511 3984 
Q 2250 4219 1831 4219 
Q 1534 4219 1204 4116 
Q 875 4013 500 3803 
L 500 4441 
Q 881 4594 1212 4672 
Q 1544 4750 1819 4750 
Q 2544 4750 2975 4387 
Q 3406 4025 3406 3419 
Q 3406 3131 3298 2873 
Q 3191 2616 2906 2266 
Q 2828 2175 2409 1742 
Q 1991 1309 1228 531 
z
" transform="scale(0.015625)"/>
       </defs>
       <use xlink:href="#DejaVuSans-31" transform="translate(0 0.765625)"/>
       <use xlink:href="#DejaVuSans-30" transform="translate(63.623047 0.765625)"/>
       <use xlink:href="#DejaVuSans-2212" transform="translate(128.203125 39.046875)scale(0.7)"/>
       <use xlink:href="#DejaVuSans-32" transform="translate(186.855469 39.046875)scale(0.7)"/>
      </g>
     </g>
    </g>
    <g id="xtick_5">
     <g id="line2d_5">
      <g>
       <use xlink:href="#m256e717c3d" x="405.246364" y="242.728" style="stroke: #000000; stroke-width: 0.8"/>
      </g>
     </g>
     <g id="text_5">
      <!-- $\mathdefault{10^{0}}$ -->
      <g transform="translate(396.446364 257.326437)scale(0.1 -0.1)">
       <use xlink:href="#DejaVuSans-31" transform="translate(0 0.765625)"/>
       <use xlink:href="#DejaVuSans-30" transform="translate(63.623047 0.765625)"/>
       <use xlink:href="#DejaVuSans-30" transform="translate(128.203125 39.046875)scale(0.7)"/>
      </g>
     </g>
    </g>
    <g id="text_6">
     <!-- Squared value of parameter -->
     <g transform="translate(175.293594 271.004562)scale(0.1 -0.1)">
      <defs>
       <path id="DejaVuSans-53" d="M 3425 4513 
L 3425 3897 
Q 3066 4069 2747 4153 
Q 2428 4238 2131 4238 
Q 1616 4238 1336 4038 
Q 1056 3838 1056 3469 
Q 1056 3159 1242 3001 
Q 1428 2844 1947 2747 
L 2328 2669 
Q 3034 2534 3370 2195 
Q 3706 1856 3706 1288 
Q 3706 609 3251 259 
Q 2797 -91 1919 -91 
Q 1588 -91 1214 -16 
Q 841 59 441 206 
L 441 856 
Q 825 641 1194 531 
Q 1563 422 1919 422 
Q 2459 422 2753 634 
Q 3047 847 3047 1241 
Q 3047 1584 2836 1778 
Q 2625 1972 2144 2069 
L 1759 2144 
Q 1053 2284 737 2584 
Q 422 2884 422 3419 
Q 422 4038 858 4394 
Q 1294 4750 2059 4750 
Q 2388 4750 2728 4690 
Q 3069 4631 3425 4513 
z
" transform="scale(0.015625)"/>
       <path id="DejaVuSans-71" d="M 947 1747 
Q 947 1113 1208 752 
Q 1469 391 1925 391 
Q 2381 391 2643 752 
Q 2906 1113 2906 1747 
Q 2906 2381 2643 2742 
Q 2381 3103 1925 3103 
Q 1469 3103 1208 2742 
Q 947 2381 947 1747 
z
M 2906 525 
Q 2725 213 2448 61 
Q 2172 -91 1784 -91 
Q 1150 -91 751 415 
Q 353 922 353 1747 
Q 353 2572 751 3078 
Q 1150 3584 1784 3584 
Q 2172 3584 2448 3432 
Q 2725 3281 2906 2969 
L 2906 3500 
L 3481 3500 
L 3481 -1331 
L 2906 -1331 
L 2906 525 
z
" transform="scale(0.015625)"/>
       <path id="DejaVuSans-75" d="M 544 1381 
L 544 3500 
L 1119 3500 
L 1119 1403 
Q 1119 906 1312 657 
Q 1506 409 1894 409 
Q 2359 409 2629 706 
Q 2900 1003 2900 1516 
L 2900 3500 
L 3475 3500 
L 3475 0 
L 2900 0 
L 2900 538 
Q 2691 219 2414 64 
Q 2138 -91 1772 -91 
Q 1169 -91 856 284 
Q 544 659 544 1381 
z
M 1991 3584 
L 1991 3584 
z
" transform="scale(0.015625)"/>
       <path id="DejaVuSans-61" d="M 2194 1759 
Q 1497 1759 1228 1600 
Q 959 1441 959 1056 
Q 959 750 1161 570 
Q 1363 391 1709 391 
Q 2188 391 2477 730 
Q 2766 1069 2766 1631 
L 2766 1759 
L 2194 1759 
z
M 3341 1997 
L 3341 0 
L 2766 0 
L 2766 531 
Q 2569 213 2275 61 
Q 1981 -91 1556 -91 
Q 1019 -91 701 211 
Q 384 513 384 1019 
Q 384 1609 779 1909 
Q 1175 2209 1959 2209 
L 2766 2209 
L 2766 2266 
Q 2766 2663 2505 2880 
Q 2244 3097 1772 3097 
Q 1472 3097 1187 3025 
Q 903 2953 641 2809 
L 641 3341 
Q 956 3463 1253 3523 
Q 1550 3584 1831 3584 
Q 2591 3584 2966 3190 
Q 3341 2797 3341 1997 
z
" transform="scale(0.015625)"/>
       <path id="DejaVuSans-72" d="M 2631 2963 
Q 2534 3019 2420 3045 
Q 2306 3072 2169 3072 
Q 1681 3072 1420 2755 
Q 1159 2438 1159 1844 
L 1159 0 
L 581 0 
L 581 3500 
L 1159 3500 
L 1159 2956 
Q 1341 3275 1631 3429 
Q 1922 3584 2338 3584 
Q 2397 3584 2469 3576 
Q 2541 3569 2628 3553 
L 2631 2963 
z
" transform="scale(0.015625)"/>
       <path id="DejaVuSans-65" d="M 3597 1894 
L 3597 1613 
L 953 1613 
Q 991 1019 1311 708 
Q 1631 397 2203 397 
Q 2534 397 2845 478 
Q 3156 559 3463 722 
L 3463 178 
Q 3153 47 2828 -22 
Q 2503 -91 2169 -91 
Q 1331 -91 842 396 
Q 353 884 353 1716 
Q 353 2575 817 3079 
Q 1281 3584 2069 3584 
Q 2775 3584 3186 3129 
Q 3597 2675 3597 1894 
z
M 3022 2063 
Q 3016 2534 2758 2815 
Q 2500 3097 2075 3097 
Q 1594 3097 1305 2825 
Q 1016 2553 972 2059 
L 3022 2063 
z
" transform="scale(0.015625)"/>
       <path id="DejaVuSans-64" d="M 2906 2969 
L 2906 4863 
L 3481 4863 
L 3481 0 
L 2906 0 
L 2906 525 
Q 2725 213 2448 61 
Q 2172 -91 1784 -91 
Q 1150 -91 751 415 
Q 353 922 353 1747 
Q 353 2572 751 3078 
Q 1150 3584 1784 3584 
Q 2172 3584 2448 3432 
Q 2725 3281 2906 2969 
z
M 947 1747 
Q 947 1113 1208 752 
Q 1469 391 1925 391 
Q 2381 391 2643 752 
Q 2906 1113 2906 1747 
Q 2906 2381 2643 2742 
Q 2381 3103 1925 3103 
Q 1469 3103 1208 2742 
Q 947 2381 947 1747 
z
" transform="scale(0.015625)"/>
       <path id="DejaVuSans-20" transform="scale(0.015625)"/>
       <path id="DejaVuSans-76" d="M 191 3500 
L 800 3500 
L 1894 563 
L 2988 3500 
L 3597 3500 
L 2284 0 
L 1503 0 
L 191 3500 
z
" transform="scale(0.015625)"/>
       <path id="DejaVuSans-6c" d="M 603 4863 
L 1178 4863 
L 1178 0 
L 603 0 
L 603 4863 
z
" transform="scale(0.015625)"/>
       <path id="DejaVuSans-6f" d="M 1959 3097 
Q 1497 3097 1228 2736 
Q 959 2375 959 1747 
Q 959 1119 1226 758 
Q 1494 397 1959 397 
Q 2419 397 2687 759 
Q 2956 1122 2956 1747 
Q 2956 2369 2687 2733 
Q 2419 3097 1959 3097 
z
M 1959 3584 
Q 2709 3584 3137 3096 
Q 3566 2609 3566 1747 
Q 3566 888 3137 398 
Q 2709 -91 1959 -91 
Q 1206 -91 779 398 
Q 353 888 353 1747 
Q 353 2609 779 3096 
Q 1206 3584 1959 3584 
z
" transform="scale(0.015625)"/>
       <path id="DejaVuSans-66" d="M 2375 4863 
L 2375 4384 
L 1825 4384 
Q 1516 4384 1395 4259 
Q 1275 4134 1275 3809 
L 1275 3500 
L 2222 3500 
L 2222 3053 
L 1275 3053 
L 1275 0 
L 697 0 
L 697 3053 
L 147 3053 
L 147 3500 
L 697 3500 
L 697 3744 
Q 697 4328 969 4595 
Q 1241 4863 1831 4863 
L 2375 4863 
z
" transform="scale(0.015625)"/>
       <path id="DejaVuSans-70" d="M 1159 525 
L 1159 -1331 
L 581 -1331 
L 581 3500 
L 1159 3500 
L 1159 2969 
Q 1341 3281 1617 3432 
Q 1894 3584 2278 3584 
Q 2916 3584 3314 3078 
Q 3713 2572 3713 1747 
Q 3713 922 3314 415 
Q 2916 -91 2278 -91 
Q 1894 -91 1617 61 
Q 1341 213 1159 525 
z
M 3116 1747 
Q 3116 2381 2855 2742 
Q 2594 3103 2138 3103 
Q 1681 3103 1420 2742 
Q 1159 2381 1159 1747 
Q 1159 1113 1420 752 
Q 1681 391 2138 391 
Q 2594 391 2855 752 
Q 3116 1113 3116 1747 
z
" transform="scale(0.015625)"/>
       <path id="DejaVuSans-6d" d="M 3328 2828 
Q 3544 3216 3844 3400 
Q 4144 3584 4550 3584 
Q 5097 3584 5394 3201 
Q 5691 2819 5691 2113 
L 5691 0 
L 5113 0 
L 5113 2094 
Q 5113 2597 4934 2840 
Q 4756 3084 4391 3084 
Q 3944 3084 3684 2787 
Q 3425 2491 3425 1978 
L 3425 0 
L 2847 0 
L 2847 2094 
Q 2847 2600 2669 2842 
Q 2491 3084 2119 3084 
Q 1678 3084 1418 2786 
Q 1159 2488 1159 1978 
L 1159 0 
L 581 0 
L 581 3500 
L 1159 3500 
L 1159 2956 
Q 1356 3278 1631 3431 
Q 1906 3584 2284 3584 
Q 2666 3584 2933 3390 
Q 3200 3197 3328 2828 
z
" transform="scale(0.015625)"/>
       <path id="DejaVuSans-74" d="M 1172 4494 
L 1172 3500 
L 2356 3500 
L 2356 3053 
L 1172 3053 
L 1172 1153 
Q 1172 725 1289 603 
Q 1406 481 1766 481 
L 2356 481 
L 2356 0 
L 1766 0 
Q 1100 0 847 248 
Q 594 497 594 1153 
L 594 3053 
L 172 3053 
L 172 3500 
L 594 3500 
L 594 4494 
L 1172 4494 
z
" transform="scale(0.015625)"/>
      </defs>
      <use xlink:href="#DejaVuSans-53"/>
      <use xlink:href="#DejaVuSans-71" x="63.476562"/>
      <use xlink:href="#DejaVuSans-75" x="126.953125"/>
      <use xlink:href="#DejaVuSans-61" x="190.332031"/>
      <use xlink:href="#DejaVuSans-72" x="251.611328"/>
      <use xlink:href="#DejaVuSans-65" x="290.474609"/>
      <use xlink:href="#DejaVuSans-64" x="351.998047"/>
      <use xlink:href="#DejaVuSans-20" x="415.474609"/>
      <use xlink:href="#DejaVuSans-76" x="447.261719"/>
      <use xlink:href="#DejaVuSans-61" x="506.441406"/>
      <use xlink:href="#DejaVuSans-6c" x="567.720703"/>
      <use xlink:href="#DejaVuSans-75" x="595.503906"/>
      <use xlink:href="#DejaVuSans-65" x="658.882812"/>
      <use xlink:href="#DejaVuSans-20" x="720.40625"/>
      <use xlink:href="#DejaVuSans-6f" x="752.193359"/>
      <use xlink:href="#DejaVuSans-66" x="813.375"/>
      <use xlink:href="#DejaVuSans-20" x="848.580078"/>
      <use xlink:href="#DejaVuSans-70" x="880.367188"/>
      <use xlink:href="#DejaVuSans-61" x="943.84375"/>
      <use xlink:href="#DejaVuSans-72" x="1005.123047"/>
      <use xlink:href="#DejaVuSans-61" x="1046.236328"/>
      <use xlink:href="#DejaVuSans-6d" x="1107.515625"/>
      <use xlink:href="#DejaVuSans-65" x="1204.927734"/>
      <use xlink:href="#DejaVuSans-74" x="1266.451172"/>
      <use xlink:href="#DejaVuSans-65" x="1305.660156"/>
      <use xlink:href="#DejaVuSans-72" x="1367.183594"/>
     </g>
    </g>
   </g>
   <g id="matplotlib.axis_2">
    <g id="ytick_1">
     <g id="line2d_6">
      <defs>
       <path id="ma159c0c134" d="M 0 0 
L -3.5 0 
" style="stroke: #000000; stroke-width: 0.8"/>
      </defs>
      <g>
       <use xlink:href="#ma159c0c134" x="70.22" y="242.728" style="stroke: #000000; stroke-width: 0.8"/>
      </g>
     </g>
     <g id="text_7">
      <!-- 0 -->
      <g transform="translate(56.8575 246.527219)scale(0.1 -0.1)">
       <use xlink:href="#DejaVuSans-30"/>
      </g>
     </g>
    </g>
    <g id="ytick_2">
     <g id="line2d_7">
      <g>
       <use xlink:href="#ma159c0c134" x="70.22" y="212.538356" style="stroke: #000000; stroke-width: 0.8"/>
      </g>
     </g>
     <g id="text_8">
      <!-- 20000 -->
      <g transform="translate(31.4075 216.337575)scale(0.1 -0.1)">
       <use xlink:href="#DejaVuSans-32"/>
       <use xlink:href="#DejaVuSans-30" x="63.623047"/>
       <use xlink:href="#DejaVuSans-30" x="127.246094"/>
       <use xlink:href="#DejaVuSans-30" x="190.869141"/>
       <use xlink:href="#DejaVuSans-30" x="254.492188"/>
      </g>
     </g>
    </g>
    <g id="ytick_3">
     <g id="line2d_8">
      <g>
       <use xlink:href="#ma159c0c134" x="70.22" y="182.348712" style="stroke: #000000; stroke-width: 0.8"/>
      </g>
     </g>
     <g id="text_9">
      <!-- 40000 -->
      <g transform="translate(31.4075 186.147931)scale(0.1 -0.1)">
       <use xlink:href="#DejaVuSans-34"/>
       <use xlink:href="#DejaVuSans-30" x="63.623047"/>
       <use xlink:href="#DejaVuSans-30" x="127.246094"/>
       <use xlink:href="#DejaVuSans-30" x="190.869141"/>
       <use xlink:href="#DejaVuSans-30" x="254.492188"/>
      </g>
     </g>
    </g>
    <g id="ytick_4">
     <g id="line2d_9">
      <g>
       <use xlink:href="#ma159c0c134" x="70.22" y="152.159068" style="stroke: #000000; stroke-width: 0.8"/>
      </g>
     </g>
     <g id="text_10">
      <!-- 60000 -->
      <g transform="translate(31.4075 155.958287)scale(0.1 -0.1)">
       <use xlink:href="#DejaVuSans-36"/>
       <use xlink:href="#DejaVuSans-30" x="63.623047"/>
       <use xlink:href="#DejaVuSans-30" x="127.246094"/>
       <use xlink:href="#DejaVuSans-30" x="190.869141"/>
       <use xlink:href="#DejaVuSans-30" x="254.492188"/>
      </g>
     </g>
    </g>
    <g id="ytick_5">
     <g id="line2d_10">
      <g>
       <use xlink:href="#ma159c0c134" x="70.22" y="121.969424" style="stroke: #000000; stroke-width: 0.8"/>
      </g>
     </g>
     <g id="text_11">
      <!-- 80000 -->
      <g transform="translate(31.4075 125.768643)scale(0.1 -0.1)">
       <use xlink:href="#DejaVuSans-38"/>
       <use xlink:href="#DejaVuSans-30" x="63.623047"/>
       <use xlink:href="#DejaVuSans-30" x="127.246094"/>
       <use xlink:href="#DejaVuSans-30" x="190.869141"/>
       <use xlink:href="#DejaVuSans-30" x="254.492188"/>
      </g>
     </g>
    </g>
    <g id="ytick_6">
     <g id="line2d_11">
      <g>
       <use xlink:href="#ma159c0c134" x="70.22" y="91.77978" style="stroke: #000000; stroke-width: 0.8"/>
      </g>
     </g>
     <g id="text_12">
      <!-- 100000 -->
      <g transform="translate(25.045 95.578999)scale(0.1 -0.1)">
       <use xlink:href="#DejaVuSans-31"/>
       <use xlink:href="#DejaVuSans-30" x="63.623047"/>
       <use xlink:href="#DejaVuSans-30" x="127.246094"/>
       <use xlink:href="#DejaVuSans-30" x="190.869141"/>
       <use xlink:href="#DejaVuSans-30" x="254.492188"/>
       <use xlink:href="#DejaVuSans-30" x="318.115234"/>
      </g>
     </g>
    </g>
    <g id="ytick_7">
     <g id="line2d_12">
      <g>
       <use xlink:href="#ma159c0c134" x="70.22" y="61.590136" style="stroke: #000000; stroke-width: 0.8"/>
      </g>
     </g>
     <g id="text_13">
      <!-- 120000 -->
      <g transform="translate(25.045 65.389355)scale(0.1 -0.1)">
       <use xlink:href="#DejaVuSans-31"/>
       <use xlink:href="#DejaVuSans-32" x="63.623047"/>
       <use xlink:href="#DejaVuSans-30" x="127.246094"/>
       <use xlink:href="#DejaVuSans-30" x="190.869141"/>
       <use xlink:href="#DejaVuSans-30" x="254.492188"/>
       <use xlink:href="#DejaVuSans-30" x="318.115234"/>
      </g>
     </g>
    </g>
    <g id="ytick_8">
     <g id="line2d_13">
      <g>
       <use xlink:href="#ma159c0c134" x="70.22" y="31.400492" style="stroke: #000000; stroke-width: 0.8"/>
      </g>
     </g>
     <g id="text_14">
      <!-- 140000 -->
      <g transform="translate(25.045 35.199711)scale(0.1 -0.1)">
       <use xlink:href="#DejaVuSans-31"/>
       <use xlink:href="#DejaVuSans-34" x="63.623047"/>
       <use xlink:href="#DejaVuSans-30" x="127.246094"/>
       <use xlink:href="#DejaVuSans-30" x="190.869141"/>
       <use xlink:href="#DejaVuSans-30" x="254.492188"/>
       <use xlink:href="#DejaVuSans-30" x="318.115234"/>
      </g>
     </g>
    </g>
    <g id="text_15">
     <!-- Cumulative count -->
     <g transform="translate(18.965312 178.316812)rotate(-90)scale(0.1 -0.1)">
      <defs>
       <path id="DejaVuSans-43" d="M 4122 4306 
L 4122 3641 
Q 3803 3938 3442 4084 
Q 3081 4231 2675 4231 
Q 1875 4231 1450 3742 
Q 1025 3253 1025 2328 
Q 1025 1406 1450 917 
Q 1875 428 2675 428 
Q 3081 428 3442 575 
Q 3803 722 4122 1019 
L 4122 359 
Q 3791 134 3420 21 
Q 3050 -91 2638 -91 
Q 1578 -91 968 557 
Q 359 1206 359 2328 
Q 359 3453 968 4101 
Q 1578 4750 2638 4750 
Q 3056 4750 3426 4639 
Q 3797 4528 4122 4306 
z
" transform="scale(0.015625)"/>
       <path id="DejaVuSans-69" d="M 603 3500 
L 1178 3500 
L 1178 0 
L 603 0 
L 603 3500 
z
M 603 4863 
L 1178 4863 
L 1178 4134 
L 603 4134 
L 603 4863 
z
" transform="scale(0.015625)"/>
       <path id="DejaVuSans-63" d="M 3122 3366 
L 3122 2828 
Q 2878 2963 2633 3030 
Q 2388 3097 2138 3097 
Q 1578 3097 1268 2742 
Q 959 2388 959 1747 
Q 959 1106 1268 751 
Q 1578 397 2138 397 
Q 2388 397 2633 464 
Q 2878 531 3122 666 
L 3122 134 
Q 2881 22 2623 -34 
Q 2366 -91 2075 -91 
Q 1284 -91 818 406 
Q 353 903 353 1747 
Q 353 2603 823 3093 
Q 1294 3584 2113 3584 
Q 2378 3584 2631 3529 
Q 2884 3475 3122 3366 
z
" transform="scale(0.015625)"/>
       <path id="DejaVuSans-6e" d="M 3513 2113 
L 3513 0 
L 2938 0 
L 2938 2094 
Q 2938 2591 2744 2837 
Q 2550 3084 2163 3084 
Q 1697 3084 1428 2787 
Q 1159 2491 1159 1978 
L 1159 0 
L 581 0 
L 581 3500 
L 1159 3500 
L 1159 2956 
Q 1366 3272 1645 3428 
Q 1925 3584 2291 3584 
Q 2894 3584 3203 3211 
Q 3513 2838 3513 2113 
z
" transform="scale(0.015625)"/>
      </defs>
      <use xlink:href="#DejaVuSans-43"/>
      <use xlink:href="#DejaVuSans-75" x="69.824219"/>
      <use xlink:href="#DejaVuSans-6d" x="133.203125"/>
      <use xlink:href="#DejaVuSans-75" x="230.615234"/>
      <use xlink:href="#DejaVuSans-6c" x="293.994141"/>
      <use xlink:href="#DejaVuSans-61" x="321.777344"/>
      <use xlink:href="#DejaVuSans-74" x="383.056641"/>
      <use xlink:href="#DejaVuSans-69" x="422.265625"/>
      <use xlink:href="#DejaVuSans-76" x="450.048828"/>
      <use xlink:href="#DejaVuSans-65" x="509.228516"/>
      <use xlink:href="#DejaVuSans-20" x="570.751953"/>
      <use xlink:href="#DejaVuSans-63" x="602.539062"/>
      <use xlink:href="#DejaVuSans-6f" x="657.519531"/>
      <use xlink:href="#DejaVuSans-75" x="718.701172"/>
      <use xlink:href="#DejaVuSans-6e" x="782.080078"/>
      <use xlink:href="#DejaVuSans-74" x="845.458984"/>
     </g>
    </g>
   </g>
   <g id="patch_102">
    <path d="M 86.173636 242.728 
L 86.173636 242.721962 
L 105.511377 242.619317 
L 105.511377 242.596675 
L 118.403205 242.497049 
L 118.403205 242.462331 
L 128.072075 242.40648 
L 128.072075 242.337044 
L 134.517989 242.276665 
L 134.517989 242.210248 
L 140.963903 242.158925 
L 140.963903 242.063828 
L 147.409816 241.973259 
L 147.409816 241.866086 
L 153.85573 241.757403 
L 153.85573 241.629097 
L 157.078687 241.629097 
L 157.078687 241.511357 
L 160.301644 241.511357 
L 160.301644 241.339276 
L 163.524601 241.339276 
L 163.524601 241.176252 
L 166.747557 241.176252 
L 166.747557 240.98002 
L 169.970514 240.98002 
L 169.970514 240.782277 
L 173.193471 240.782277 
L 173.193471 240.586045 
L 176.416428 240.586045 
L 176.416428 240.330942 
L 179.639385 240.330942 
L 179.639385 240.041122 
L 182.862342 240.041122 
L 182.862342 239.713564 
L 186.085298 239.713564 
L 186.085298 239.419215 
L 189.308255 239.419215 
L 189.308255 239.081091 
L 192.531212 239.081091 
L 192.531212 238.637303 
L 195.754169 238.637303 
L 195.754169 238.216158 
L 198.977126 238.216158 
L 198.977126 237.707462 
L 202.200083 237.707462 
L 202.200083 237.079518 
L 205.423039 237.079518 
L 205.423039 236.43195 
L 208.645996 236.43195 
L 208.645996 235.740607 
L 211.868953 235.740607 
L 211.868953 234.997942 
L 215.09191 234.997942 
L 215.09191 234.167726 
L 218.314867 234.167726 
L 218.314867 233.228829 
L 221.537824 233.228829 
L 221.537824 232.237099 
L 224.760781 232.237099 
L 224.760781 231.070269 
L 227.983737 231.070269 
L 227.983737 229.793247 
L 231.206694 229.793247 
L 231.206694 228.369805 
L 234.429651 228.369805 
L 234.429651 226.848247 
L 237.652608 226.848247 
L 237.652608 225.184798 
L 240.875565 225.184798 
L 240.875565 223.1953 
L 244.098522 223.1953 
L 244.098522 220.947681 
L 247.321478 220.947681 
L 247.321478 218.611003 
L 250.544435 218.611003 
L 250.544435 215.853179 
L 253.767392 215.853179 
L 253.767392 212.917236 
L 256.990349 212.917236 
L 256.990349 209.748833 
L 260.213306 209.748833 
L 260.213306 206.114 
L 263.436263 206.114 
L 263.436263 202.183308 
L 266.659219 202.183308 
L 266.659219 197.682032 
L 269.882176 197.682032 
L 269.882176 192.765649 
L 273.105133 192.765649 
L 273.105133 187.406987 
L 276.32809 187.406987 
L 276.32809 181.550196 
L 279.551047 181.550196 
L 279.551047 175.178672 
L 282.774004 175.178672 
L 282.774004 168.114295 
L 285.996961 168.114295 
L 285.996961 160.3148 
L 289.219917 160.3148 
L 289.219917 152.030762 
L 292.442874 152.030762 
L 292.442874 142.910471 
L 295.665831 142.910471 
L 295.665831 133.171292 
L 298.888788 133.171292 
L 298.888788 123.202671 
L 302.111745 123.202671 
L 302.111745 113.111783 
L 305.334702 113.111783 
L 305.334702 102.750697 
L 308.557658 102.750697 
L 308.557658 93.013027 
L 311.780615 93.013027 
L 311.780615 83.698013 
L 315.003572 83.698013 
L 315.003572 75.246422 
L 318.226529 75.246422 
L 318.226529 67.851468 
L 321.449486 67.851468 
L 321.449486 61.378809 
L 324.672443 61.378809 
L 324.672443 55.802782 
L 327.895399 55.802782 
L 327.895399 51.099235 
L 331.118356 51.099235 
L 331.118356 47.311944 
L 334.341313 47.311944 
L 334.341313 44.222034 
L 337.56427 44.222034 
L 337.56427 41.921583 
L 340.787227 41.921583 
L 340.787227 39.962275 
L 344.010184 39.962275 
L 344.010184 38.611289 
L 347.23314 38.611289 
L 347.23314 37.722204 
L 350.456097 37.722204 
L 350.456097 37.106335 
L 353.679054 37.106335 
L 353.679054 36.674623 
L 356.902011 36.674623 
L 356.902011 36.39235 
L 360.124968 36.39235 
L 360.124968 36.226307 
L 363.347925 36.226307 
L 363.347925 36.088944 
L 369.793838 36.002904 
L 369.793838 35.936486 
L 382.685666 35.842898 
L 382.685666 35.823275 
L 405.246364 35.787048 
L 405.246364 242.728 
L 405.246364 242.728 
" clip-path="url(#peb67848a43)" style="fill: none; stroke: #1f77b4; stroke-linejoin: miter"/>
   </g>
   <g id="patch_103">
    <path d="M 70.22 242.728 
L 70.22 25.44 
" style="fill: none; stroke: #000000; stroke-width: 0.8; stroke-linejoin: miter; stroke-linecap: square"/>
   </g>
   <g id="patch_104">
    <path d="M 421.2 242.728 
L 421.2 25.44 
" style="fill: none; stroke: #000000; stroke-width: 0.8; stroke-linejoin: miter; stroke-linecap: square"/>
   </g>
   <g id="patch_105">
    <path d="M 70.22 242.728 
L 421.2 242.728 
" style="fill: none; stroke: #000000; stroke-width: 0.8; stroke-linejoin: miter; stroke-linecap: square"/>
   </g>
   <g id="patch_106">
    <path d="M 70.22 25.44 
L 421.2 25.44 
" style="fill: none; stroke: #000000; stroke-width: 0.8; stroke-linejoin: miter; stroke-linecap: square"/>
   </g>
   <g id="text_16">
    <!-- Evolution of squared parameter value, cumulative -->
    <g transform="translate(94.842812 19.44)scale(0.12 -0.12)">
     <defs>
      <path id="DejaVuSans-45" d="M 628 4666 
L 3578 4666 
L 3578 4134 
L 1259 4134 
L 1259 2753 
L 3481 2753 
L 3481 2222 
L 1259 2222 
L 1259 531 
L 3634 531 
L 3634 0 
L 628 0 
L 628 4666 
z
" transform="scale(0.015625)"/>
      <path id="DejaVuSans-73" d="M 2834 3397 
L 2834 2853 
Q 2591 2978 2328 3040 
Q 2066 3103 1784 3103 
Q 1356 3103 1142 2972 
Q 928 2841 928 2578 
Q 928 2378 1081 2264 
Q 1234 2150 1697 2047 
L 1894 2003 
Q 2506 1872 2764 1633 
Q 3022 1394 3022 966 
Q 3022 478 2636 193 
Q 2250 -91 1575 -91 
Q 1294 -91 989 -36 
Q 684 19 347 128 
L 347 722 
Q 666 556 975 473 
Q 1284 391 1588 391 
Q 1994 391 2212 530 
Q 2431 669 2431 922 
Q 2431 1156 2273 1281 
Q 2116 1406 1581 1522 
L 1381 1569 
Q 847 1681 609 1914 
Q 372 2147 372 2553 
Q 372 3047 722 3315 
Q 1072 3584 1716 3584 
Q 2034 3584 2315 3537 
Q 2597 3491 2834 3397 
z
" transform="scale(0.015625)"/>
      <path id="DejaVuSans-2c" d="M 750 794 
L 1409 794 
L 1409 256 
L 897 -744 
L 494 -744 
L 750 256 
L 750 794 
z
" transform="scale(0.015625)"/>
     </defs>
     <use xlink:href="#DejaVuSans-45"/>
     <use xlink:href="#DejaVuSans-76" x="63.183594"/>
     <use xlink:href="#DejaVuSans-6f" x="122.363281"/>
     <use xlink:href="#DejaVuSans-6c" x="183.544922"/>
     <use xlink:href="#DejaVuSans-75" x="211.328125"/>
     <use xlink:href="#DejaVuSans-74" x="274.707031"/>
     <use xlink:href="#DejaVuSans-69" x="313.916016"/>
     <use xlink:href="#DejaVuSans-6f" x="341.699219"/>
     <use xlink:href="#DejaVuSans-6e" x="402.880859"/>
     <use xlink:href="#DejaVuSans-20" x="466.259766"/>
     <use xlink:href="#DejaVuSans-6f" x="498.046875"/>
     <use xlink:href="#DejaVuSans-66" x="559.228516"/>
     <use xlink:href="#DejaVuSans-20" x="594.433594"/>
     <use xlink:href="#DejaVuSans-73" x="626.220703"/>
     <use xlink:href="#DejaVuSans-71" x="678.320312"/>
     <use xlink:href="#DejaVuSans-75" x="741.796875"/>
     <use xlink:href="#DejaVuSans-61" x="805.175781"/>
     <use xlink:href="#DejaVuSans-72" x="866.455078"/>
     <use xlink:href="#DejaVuSans-65" x="905.318359"/>
     <use xlink:href="#DejaVuSans-64" x="966.841797"/>
     <use xlink:href="#DejaVuSans-20" x="1030.318359"/>
     <use xlink:href="#DejaVuSans-70" x="1062.105469"/>
     <use xlink:href="#DejaVuSans-61" x="1125.582031"/>
     <use xlink:href="#DejaVuSans-72" x="1186.861328"/>
     <use xlink:href="#DejaVuSans-61" x="1227.974609"/>
     <use xlink:href="#DejaVuSans-6d" x="1289.253906"/>
     <use xlink:href="#DejaVuSans-65" x="1386.666016"/>
     <use xlink:href="#DejaVuSans-74" x="1448.189453"/>
     <use xlink:href="#DejaVuSans-65" x="1487.398438"/>
     <use xlink:href="#DejaVuSans-72" x="1548.921875"/>
     <use xlink:href="#DejaVuSans-20" x="1590.035156"/>
     <use xlink:href="#DejaVuSans-76" x="1621.822266"/>
     <use xlink:href="#DejaVuSans-61" x="1681.001953"/>
     <use xlink:href="#DejaVuSans-6c" x="1742.28125"/>
     <use xlink:href="#DejaVuSans-75" x="1770.064453"/>
     <use xlink:href="#DejaVuSans-65" x="1833.443359"/>
     <use xlink:href="#DejaVuSans-2c" x="1894.966797"/>
     <use xlink:href="#DejaVuSans-20" x="1926.753906"/>
     <use xlink:href="#DejaVuSans-63" x="1958.541016"/>
     <use xlink:href="#DejaVuSans-75" x="2013.521484"/>
     <use xlink:href="#DejaVuSans-6d" x="2076.900391"/>
     <use xlink:href="#DejaVuSans-75" x="2174.3125"/>
     <use xlink:href="#DejaVuSans-6c" x="2237.691406"/>
     <use xlink:href="#DejaVuSans-61" x="2265.474609"/>
     <use xlink:href="#DejaVuSans-74" x="2326.753906"/>
     <use xlink:href="#DejaVuSans-69" x="2365.962891"/>
     <use xlink:href="#DejaVuSans-76" x="2393.746094"/>
     <use xlink:href="#DejaVuSans-65" x="2452.925781"/>
    </g>
   </g>
   <g id="legend_1">
    <g id="patch_107">
     <path d="M 77.22 62.79625 
L 137.185625 62.79625 
Q 139.185625 62.79625 139.185625 60.79625 
L 139.185625 32.44 
Q 139.185625 30.44 137.185625 30.44 
L 77.22 30.44 
Q 75.22 30.44 75.22 32.44 
L 75.22 60.79625 
Q 75.22 62.79625 77.22 62.79625 
z
" style="fill: #ffffff; opacity: 0.8; stroke: #cccccc; stroke-linejoin: miter"/>
    </g>
    <g id="patch_108">
     <path d="M 79.22 42.038438 
L 99.22 42.038438 
L 99.22 35.038438 
L 79.22 35.038438 
L 79.22 42.038438 
z
" style="fill: none; stroke: #1f77b4; stroke-linejoin: miter"/>
    </g>
    <g id="text_17">
     <!-- begin -->
     <g transform="translate(107.22 42.038438)scale(0.1 -0.1)">
      <defs>
       <path id="DejaVuSans-62" d="M 3116 1747 
Q 3116 2381 2855 2742 
Q 2594 3103 2138 3103 
Q 1681 3103 1420 2742 
Q 1159 2381 1159 1747 
Q 1159 1113 1420 752 
Q 1681 391 2138 391 
Q 2594 391 2855 752 
Q 3116 1113 3116 1747 
z
M 1159 2969 
Q 1341 3281 1617 3432 
Q 1894 3584 2278 3584 
Q 2916 3584 3314 3078 
Q 3713 2572 3713 1747 
Q 3713 922 3314 415 
Q 2916 -91 2278 -91 
Q 1894 -91 1617 61 
Q 1341 213 1159 525 
L 1159 0 
L 581 0 
L 581 4863 
L 1159 4863 
L 1159 2969 
z
" transform="scale(0.015625)"/>
       <path id="DejaVuSans-67" d="M 2906 1791 
Q 2906 2416 2648 2759 
Q 2391 3103 1925 3103 
Q 1463 3103 1205 2759 
Q 947 2416 947 1791 
Q 947 1169 1205 825 
Q 1463 481 1925 481 
Q 2391 481 2648 825 
Q 2906 1169 2906 1791 
z
M 3481 434 
Q 3481 -459 3084 -895 
Q 2688 -1331 1869 -1331 
Q 1566 -1331 1297 -1286 
Q 1028 -1241 775 -1147 
L 775 -588 
Q 1028 -725 1275 -790 
Q 1522 -856 1778 -856 
Q 2344 -856 2625 -561 
Q 2906 -266 2906 331 
L 2906 616 
Q 2728 306 2450 153 
Q 2172 0 1784 0 
Q 1141 0 747 490 
Q 353 981 353 1791 
Q 353 2603 747 3093 
Q 1141 3584 1784 3584 
Q 2172 3584 2450 3431 
Q 2728 3278 2906 2969 
L 2906 3500 
L 3481 3500 
L 3481 434 
z
" transform="scale(0.015625)"/>
      </defs>
      <use xlink:href="#DejaVuSans-62"/>
      <use xlink:href="#DejaVuSans-65" x="63.476562"/>
      <use xlink:href="#DejaVuSans-67" x="125"/>
      <use xlink:href="#DejaVuSans-69" x="188.476562"/>
      <use xlink:href="#DejaVuSans-6e" x="216.259766"/>
     </g>
    </g>
    <g id="patch_109">
     <path d="M 79.22 56.716563 
L 99.22 56.716563 
L 99.22 49.716563 
L 79.22 49.716563 
z
" style="fill: #ff7f0e"/>
    </g>
    <g id="text_18">
     <!-- end -->
     <g transform="translate(107.22 56.716563)scale(0.1 -0.1)">
      <use xlink:href="#DejaVuSans-65"/>
      <use xlink:href="#DejaVuSans-6e" x="61.523438"/>
      <use xlink:href="#DejaVuSans-64" x="124.902344"/>
     </g>
    </g>
   </g>
  </g>
 </g>
 <defs>
  <clipPath id="peb67848a43">
   <rect x="70.22" y="25.44" width="350.98" height="217.288"/>
  </clipPath>
 </defs>
</svg>
