<?xml version="1.0" encoding="utf-8" standalone="no"?>
<!DOCTYPE svg PUBLIC "-//W3C//DTD SVG 1.1//EN"
  "http://www.w3.org/Graphics/SVG/1.1/DTD/svg11.dtd">
<svg xmlns:xlink="http://www.w3.org/1999/xlink" width="432pt" height="288pt" viewBox="0 0 432 288" xmlns="http://www.w3.org/2000/svg" version="1.1">
 <metadata>
  <rdf:RDF xmlns:dc="http://purl.org/dc/elements/1.1/" xmlns:cc="http://creativecommons.org/ns#" xmlns:rdf="http://www.w3.org/1999/02/22-rdf-syntax-ns#">
   <cc:Work>
    <dc:type rdf:resource="http://purl.org/dc/dcmitype/StillImage"/>
    <dc:date>2023-03-25T16:53:42.324369</dc:date>
    <dc:format>image/svg+xml</dc:format>
    <dc:creator>
     <cc:Agent>
      <dc:title>Matplotlib v3.5.1, https://matplotlib.org/</dc:title>
     </cc:Agent>
    </dc:creator>
   </cc:Work>
  </rdf:RDF>
 </metadata>
 <defs>
  <style type="text/css">*{stroke-linejoin: round; stroke-linecap: butt}</style>
 </defs>
 <g id="figure_1">
  <g id="patch_1">
   <path d="M 0 288 
L 432 288 
L 432 0 
L 0 0 
z
" style="fill: #ffffff"/>
  </g>
  <g id="axes_1">
   <g id="patch_2">
    <path d="M 70.22 246.04 
L 421.2 246.04 
L 421.2 25.44 
L 70.22 25.44 
z
" style="fill: #ffffff"/>
   </g>
   <g id="patch_3">
    <path d="M 86.173636 246.04 
L 87.769 246.04 
L 87.769 246.024621 
L 86.173636 246.024621 
z
" clip-path="url(#p4fb52ad9af)" style="fill: #1f77b4"/>
   </g>
   <g id="patch_4">
    <path d="M 87.769 246.04 
L 89.364364 246.04 
L 89.364364 246.007705 
L 87.769 246.007705 
z
" clip-path="url(#p4fb52ad9af)" style="fill: #1f77b4"/>
   </g>
   <g id="patch_5">
    <path d="M 89.364364 246.04 
L 90.959727 246.04 
L 90.959727 245.989251 
L 89.364364 245.989251 
z
" clip-path="url(#p4fb52ad9af)" style="fill: #1f77b4"/>
   </g>
   <g id="patch_6">
    <path d="M 90.959727 246.04 
L 92.555091 246.04 
L 92.555091 245.983099 
L 90.959727 245.983099 
z
" clip-path="url(#p4fb52ad9af)" style="fill: #1f77b4"/>
   </g>
   <g id="patch_7">
    <path d="M 92.555091 246.04 
L 94.150455 246.04 
L 94.150455 245.96772 
L 92.555091 245.96772 
z
" clip-path="url(#p4fb52ad9af)" style="fill: #1f77b4"/>
   </g>
   <g id="patch_8">
    <path d="M 94.150455 246.04 
L 95.745818 246.04 
L 95.745818 245.950804 
L 94.150455 245.950804 
z
" clip-path="url(#p4fb52ad9af)" style="fill: #1f77b4"/>
   </g>
   <g id="patch_9">
    <path d="M 95.745818 246.04 
L 97.341182 246.04 
L 97.341182 245.933887 
L 95.745818 245.933887 
z
" clip-path="url(#p4fb52ad9af)" style="fill: #1f77b4"/>
   </g>
   <g id="patch_10">
    <path d="M 97.341182 246.04 
L 98.936545 246.04 
L 98.936545 245.918509 
L 97.341182 245.918509 
z
" clip-path="url(#p4fb52ad9af)" style="fill: #1f77b4"/>
   </g>
   <g id="patch_11">
    <path d="M 98.936545 246.04 
L 100.531909 246.04 
L 100.531909 245.892365 
L 98.936545 245.892365 
z
" clip-path="url(#p4fb52ad9af)" style="fill: #1f77b4"/>
   </g>
   <g id="patch_12">
    <path d="M 100.531909 246.04 
L 102.127273 246.04 
L 102.127273 245.873911 
L 100.531909 245.873911 
z
" clip-path="url(#p4fb52ad9af)" style="fill: #1f77b4"/>
   </g>
   <g id="patch_13">
    <path d="M 102.127273 246.04 
L 103.722636 246.04 
L 103.722636 245.86007 
L 102.127273 245.86007 
z
" clip-path="url(#p4fb52ad9af)" style="fill: #1f77b4"/>
   </g>
   <g id="patch_14">
    <path d="M 103.722636 246.04 
L 105.318 246.04 
L 105.318 245.843153 
L 103.722636 245.843153 
z
" clip-path="url(#p4fb52ad9af)" style="fill: #1f77b4"/>
   </g>
   <g id="patch_15">
    <path d="M 105.318 246.04 
L 106.913364 246.04 
L 106.913364 245.829313 
L 105.318 245.829313 
z
" clip-path="url(#p4fb52ad9af)" style="fill: #1f77b4"/>
   </g>
   <g id="patch_16">
    <path d="M 106.913364 246.04 
L 108.508727 246.04 
L 108.508727 245.80932 
L 106.913364 245.80932 
z
" clip-path="url(#p4fb52ad9af)" style="fill: #1f77b4"/>
   </g>
   <g id="patch_17">
    <path d="M 108.508727 246.04 
L 110.104091 246.04 
L 110.104091 245.789328 
L 108.508727 245.789328 
z
" clip-path="url(#p4fb52ad9af)" style="fill: #1f77b4"/>
   </g>
   <g id="patch_18">
    <path d="M 110.104091 246.04 
L 111.699455 246.04 
L 111.699455 245.767798 
L 110.104091 245.767798 
z
" clip-path="url(#p4fb52ad9af)" style="fill: #1f77b4"/>
   </g>
   <g id="patch_19">
    <path d="M 111.699455 246.04 
L 113.294818 246.04 
L 113.294818 245.746268 
L 111.699455 245.746268 
z
" clip-path="url(#p4fb52ad9af)" style="fill: #1f77b4"/>
   </g>
   <g id="patch_20">
    <path d="M 113.294818 246.04 
L 114.890182 246.04 
L 114.890182 245.737041 
L 113.294818 245.737041 
z
" clip-path="url(#p4fb52ad9af)" style="fill: #1f77b4"/>
   </g>
   <g id="patch_21">
    <path d="M 114.890182 246.04 
L 116.485545 246.04 
L 116.485545 245.726276 
L 114.890182 245.726276 
z
" clip-path="url(#p4fb52ad9af)" style="fill: #1f77b4"/>
   </g>
   <g id="patch_22">
    <path d="M 116.485545 246.04 
L 118.080909 246.04 
L 118.080909 245.692443 
L 116.485545 245.692443 
z
" clip-path="url(#p4fb52ad9af)" style="fill: #1f77b4"/>
   </g>
   <g id="patch_23">
    <path d="M 118.080909 246.04 
L 119.676273 246.04 
L 119.676273 245.666299 
L 118.080909 245.666299 
z
" clip-path="url(#p4fb52ad9af)" style="fill: #1f77b4"/>
   </g>
   <g id="patch_24">
    <path d="M 119.676273 246.04 
L 121.271636 246.04 
L 121.271636 245.644769 
L 119.676273 245.644769 
z
" clip-path="url(#p4fb52ad9af)" style="fill: #1f77b4"/>
   </g>
   <g id="patch_25">
    <path d="M 121.271636 246.04 
L 122.867 246.04 
L 122.867 245.623239 
L 121.271636 245.623239 
z
" clip-path="url(#p4fb52ad9af)" style="fill: #1f77b4"/>
   </g>
   <g id="patch_26">
    <path d="M 122.867 246.04 
L 124.462364 246.04 
L 124.462364 245.603247 
L 122.867 245.603247 
z
" clip-path="url(#p4fb52ad9af)" style="fill: #1f77b4"/>
   </g>
   <g id="patch_27">
    <path d="M 124.462364 246.04 
L 126.057727 246.04 
L 126.057727 245.575565 
L 124.462364 245.575565 
z
" clip-path="url(#p4fb52ad9af)" style="fill: #1f77b4"/>
   </g>
   <g id="patch_28">
    <path d="M 126.057727 246.04 
L 127.653091 246.04 
L 127.653091 245.547884 
L 126.057727 245.547884 
z
" clip-path="url(#p4fb52ad9af)" style="fill: #1f77b4"/>
   </g>
   <g id="patch_29">
    <path d="M 127.653091 246.04 
L 129.248455 246.04 
L 129.248455 245.509437 
L 127.653091 245.509437 
z
" clip-path="url(#p4fb52ad9af)" style="fill: #1f77b4"/>
   </g>
   <g id="patch_30">
    <path d="M 129.248455 246.04 
L 130.843818 246.04 
L 130.843818 245.489445 
L 129.248455 245.489445 
z
" clip-path="url(#p4fb52ad9af)" style="fill: #1f77b4"/>
   </g>
   <g id="patch_31">
    <path d="M 130.843818 246.04 
L 132.439182 246.04 
L 132.439182 245.460225 
L 130.843818 245.460225 
z
" clip-path="url(#p4fb52ad9af)" style="fill: #1f77b4"/>
   </g>
   <g id="patch_32">
    <path d="M 132.439182 246.04 
L 134.034545 246.04 
L 134.034545 245.417165 
L 132.439182 245.417165 
z
" clip-path="url(#p4fb52ad9af)" style="fill: #1f77b4"/>
   </g>
   <g id="patch_33">
    <path d="M 134.034545 246.04 
L 135.629909 246.04 
L 135.629909 245.383332 
L 134.034545 245.383332 
z
" clip-path="url(#p4fb52ad9af)" style="fill: #1f77b4"/>
   </g>
   <g id="patch_34">
    <path d="M 135.629909 246.04 
L 137.225273 246.04 
L 137.225273 245.337196 
L 135.629909 245.337196 
z
" clip-path="url(#p4fb52ad9af)" style="fill: #1f77b4"/>
   </g>
   <g id="patch_35">
    <path d="M 137.225273 246.04 
L 138.820636 246.04 
L 138.820636 245.295674 
L 137.225273 245.295674 
z
" clip-path="url(#p4fb52ad9af)" style="fill: #1f77b4"/>
   </g>
   <g id="patch_36">
    <path d="M 138.820636 246.04 
L 140.416 246.04 
L 140.416 245.260303 
L 138.820636 245.260303 
z
" clip-path="url(#p4fb52ad9af)" style="fill: #1f77b4"/>
   </g>
   <g id="patch_37">
    <path d="M 140.416 246.04 
L 142.011364 246.04 
L 142.011364 245.215705 
L 140.416 245.215705 
z
" clip-path="url(#p4fb52ad9af)" style="fill: #1f77b4"/>
   </g>
   <g id="patch_38">
    <path d="M 142.011364 246.04 
L 143.606727 246.04 
L 143.606727 245.166493 
L 142.011364 245.166493 
z
" clip-path="url(#p4fb52ad9af)" style="fill: #1f77b4"/>
   </g>
   <g id="patch_39">
    <path d="M 143.606727 246.04 
L 145.202091 246.04 
L 145.202091 245.128047 
L 143.606727 245.128047 
z
" clip-path="url(#p4fb52ad9af)" style="fill: #1f77b4"/>
   </g>
   <g id="patch_40">
    <path d="M 145.202091 246.04 
L 146.797455 246.04 
L 146.797455 245.077297 
L 145.202091 245.077297 
z
" clip-path="url(#p4fb52ad9af)" style="fill: #1f77b4"/>
   </g>
   <g id="patch_41">
    <path d="M 146.797455 246.04 
L 148.392818 246.04 
L 148.392818 245.028086 
L 146.797455 245.028086 
z
" clip-path="url(#p4fb52ad9af)" style="fill: #1f77b4"/>
   </g>
   <g id="patch_42">
    <path d="M 148.392818 246.04 
L 149.988182 246.04 
L 149.988182 244.978874 
L 148.392818 244.978874 
z
" clip-path="url(#p4fb52ad9af)" style="fill: #1f77b4"/>
   </g>
   <g id="patch_43">
    <path d="M 149.988182 246.04 
L 151.583545 246.04 
L 151.583545 244.911208 
L 149.988182 244.911208 
z
" clip-path="url(#p4fb52ad9af)" style="fill: #1f77b4"/>
   </g>
   <g id="patch_44">
    <path d="M 151.583545 246.04 
L 153.178909 246.04 
L 153.178909 244.861996 
L 151.583545 244.861996 
z
" clip-path="url(#p4fb52ad9af)" style="fill: #1f77b4"/>
   </g>
   <g id="patch_45">
    <path d="M 153.178909 246.04 
L 154.774273 246.04 
L 154.774273 244.811247 
L 153.178909 244.811247 
z
" clip-path="url(#p4fb52ad9af)" style="fill: #1f77b4"/>
   </g>
   <g id="patch_46">
    <path d="M 154.774273 246.04 
L 156.369636 246.04 
L 156.369636 244.754346 
L 154.774273 244.754346 
z
" clip-path="url(#p4fb52ad9af)" style="fill: #1f77b4"/>
   </g>
   <g id="patch_47">
    <path d="M 156.369636 246.04 
L 157.965 246.04 
L 157.965 244.702059 
L 156.369636 244.702059 
z
" clip-path="url(#p4fb52ad9af)" style="fill: #1f77b4"/>
   </g>
   <g id="patch_48">
    <path d="M 157.965 246.04 
L 159.560364 246.04 
L 159.560364 244.629779 
L 157.965 244.629779 
z
" clip-path="url(#p4fb52ad9af)" style="fill: #1f77b4"/>
   </g>
   <g id="patch_49">
    <path d="M 159.560364 246.04 
L 161.155727 246.04 
L 161.155727 244.559037 
L 159.560364 244.559037 
z
" clip-path="url(#p4fb52ad9af)" style="fill: #1f77b4"/>
   </g>
   <g id="patch_50">
    <path d="M 161.155727 246.04 
L 162.751091 246.04 
L 162.751091 244.503674 
L 161.155727 244.503674 
z
" clip-path="url(#p4fb52ad9af)" style="fill: #1f77b4"/>
   </g>
   <g id="patch_51">
    <path d="M 162.751091 246.04 
L 164.346455 246.04 
L 164.346455 244.429857 
L 162.751091 244.429857 
z
" clip-path="url(#p4fb52ad9af)" style="fill: #1f77b4"/>
   </g>
   <g id="patch_52">
    <path d="M 164.346455 246.04 
L 165.941818 246.04 
L 165.941818 244.354501 
L 164.346455 244.354501 
z
" clip-path="url(#p4fb52ad9af)" style="fill: #1f77b4"/>
   </g>
   <g id="patch_53">
    <path d="M 165.941818 246.04 
L 167.537182 246.04 
L 167.537182 244.25454 
L 165.941818 244.25454 
z
" clip-path="url(#p4fb52ad9af)" style="fill: #1f77b4"/>
   </g>
   <g id="patch_54">
    <path d="M 167.537182 246.04 
L 169.132545 246.04 
L 169.132545 244.191488 
L 167.537182 244.191488 
z
" clip-path="url(#p4fb52ad9af)" style="fill: #1f77b4"/>
   </g>
   <g id="patch_55">
    <path d="M 169.132545 246.04 
L 170.727909 246.04 
L 170.727909 244.111519 
L 169.132545 244.111519 
z
" clip-path="url(#p4fb52ad9af)" style="fill: #1f77b4"/>
   </g>
   <g id="patch_56">
    <path d="M 170.727909 246.04 
L 172.323273 246.04 
L 172.323273 243.997717 
L 170.727909 243.997717 
z
" clip-path="url(#p4fb52ad9af)" style="fill: #1f77b4"/>
   </g>
   <g id="patch_57">
    <path d="M 172.323273 246.04 
L 173.918636 246.04 
L 173.918636 243.886991 
L 172.323273 243.886991 
z
" clip-path="url(#p4fb52ad9af)" style="fill: #1f77b4"/>
   </g>
   <g id="patch_58">
    <path d="M 173.918636 246.04 
L 175.514 246.04 
L 175.514 243.771651 
L 173.918636 243.771651 
z
" clip-path="url(#p4fb52ad9af)" style="fill: #1f77b4"/>
   </g>
   <g id="patch_59">
    <path d="M 175.514 246.04 
L 177.109364 246.04 
L 177.109364 243.636319 
L 175.514 243.636319 
z
" clip-path="url(#p4fb52ad9af)" style="fill: #1f77b4"/>
   </g>
   <g id="patch_60">
    <path d="M 177.109364 246.04 
L 178.704727 246.04 
L 178.704727 243.530207 
L 177.109364 243.530207 
z
" clip-path="url(#p4fb52ad9af)" style="fill: #1f77b4"/>
   </g>
   <g id="patch_61">
    <path d="M 178.704727 246.04 
L 180.300091 246.04 
L 180.300091 243.396412 
L 178.704727 243.396412 
z
" clip-path="url(#p4fb52ad9af)" style="fill: #1f77b4"/>
   </g>
   <g id="patch_62">
    <path d="M 180.300091 246.04 
L 181.895455 246.04 
L 181.895455 243.202642 
L 180.300091 243.202642 
z
" clip-path="url(#p4fb52ad9af)" style="fill: #1f77b4"/>
   </g>
   <g id="patch_63">
    <path d="M 181.895455 246.04 
L 183.490818 246.04 
L 183.490818 243.030401 
L 181.895455 243.030401 
z
" clip-path="url(#p4fb52ad9af)" style="fill: #1f77b4"/>
   </g>
   <g id="patch_64">
    <path d="M 183.490818 246.04 
L 185.086182 246.04 
L 185.086182 242.842782 
L 183.490818 242.842782 
z
" clip-path="url(#p4fb52ad9af)" style="fill: #1f77b4"/>
   </g>
   <g id="patch_65">
    <path d="M 185.086182 246.04 
L 186.681545 246.04 
L 186.681545 242.692071 
L 185.086182 242.692071 
z
" clip-path="url(#p4fb52ad9af)" style="fill: #1f77b4"/>
   </g>
   <g id="patch_66">
    <path d="M 186.681545 246.04 
L 188.276909 246.04 
L 188.276909 242.479846 
L 186.681545 242.479846 
z
" clip-path="url(#p4fb52ad9af)" style="fill: #1f77b4"/>
   </g>
   <g id="patch_67">
    <path d="M 188.276909 246.04 
L 189.872273 246.04 
L 189.872273 242.255318 
L 188.276909 242.255318 
z
" clip-path="url(#p4fb52ad9af)" style="fill: #1f77b4"/>
   </g>
   <g id="patch_68">
    <path d="M 189.872273 246.04 
L 191.467636 246.04 
L 191.467636 242.038479 
L 189.872273 242.038479 
z
" clip-path="url(#p4fb52ad9af)" style="fill: #1f77b4"/>
   </g>
   <g id="patch_69">
    <path d="M 191.467636 246.04 
L 193.063 246.04 
L 193.063 241.795496 
L 191.467636 241.795496 
z
" clip-path="url(#p4fb52ad9af)" style="fill: #1f77b4"/>
   </g>
   <g id="patch_70">
    <path d="M 193.063 246.04 
L 194.658364 246.04 
L 194.658364 241.481772 
L 193.063 241.481772 
z
" clip-path="url(#p4fb52ad9af)" style="fill: #1f77b4"/>
   </g>
   <g id="patch_71">
    <path d="M 194.658364 246.04 
L 196.253727 246.04 
L 196.253727 241.164972 
L 194.658364 241.164972 
z
" clip-path="url(#p4fb52ad9af)" style="fill: #1f77b4"/>
   </g>
   <g id="patch_72">
    <path d="M 196.253727 246.04 
L 197.849091 246.04 
L 197.849091 240.795885 
L 196.253727 240.795885 
z
" clip-path="url(#p4fb52ad9af)" style="fill: #1f77b4"/>
   </g>
   <g id="patch_73">
    <path d="M 197.849091 246.04 
L 199.444455 246.04 
L 199.444455 240.409881 
L 197.849091 240.409881 
z
" clip-path="url(#p4fb52ad9af)" style="fill: #1f77b4"/>
   </g>
   <g id="patch_74">
    <path d="M 199.444455 246.04 
L 201.039818 246.04 
L 201.039818 239.983893 
L 199.444455 239.983893 
z
" clip-path="url(#p4fb52ad9af)" style="fill: #1f77b4"/>
   </g>
   <g id="patch_75">
    <path d="M 201.039818 246.04 
L 202.635182 246.04 
L 202.635182 239.574821 
L 201.039818 239.574821 
z
" clip-path="url(#p4fb52ad9af)" style="fill: #1f77b4"/>
   </g>
   <g id="patch_76">
    <path d="M 202.635182 246.04 
L 204.230545 246.04 
L 204.230545 239.070402 
L 202.635182 239.070402 
z
" clip-path="url(#p4fb52ad9af)" style="fill: #1f77b4"/>
   </g>
   <g id="patch_77">
    <path d="M 204.230545 246.04 
L 205.825909 246.04 
L 205.825909 238.48909 
L 204.230545 238.48909 
z
" clip-path="url(#p4fb52ad9af)" style="fill: #1f77b4"/>
   </g>
   <g id="patch_78">
    <path d="M 205.825909 246.04 
L 207.421273 246.04 
L 207.421273 237.94161 
L 205.825909 237.94161 
z
" clip-path="url(#p4fb52ad9af)" style="fill: #1f77b4"/>
   </g>
   <g id="patch_79">
    <path d="M 207.421273 246.04 
L 209.016636 246.04 
L 209.016636 237.30801 
L 207.421273 237.30801 
z
" clip-path="url(#p4fb52ad9af)" style="fill: #1f77b4"/>
   </g>
   <g id="patch_80">
    <path d="M 209.016636 246.04 
L 210.612 246.04 
L 210.612 236.577525 
L 209.016636 236.577525 
z
" clip-path="url(#p4fb52ad9af)" style="fill: #1f77b4"/>
   </g>
   <g id="patch_81">
    <path d="M 210.612 246.04 
L 212.207364 246.04 
L 212.207364 235.797828 
L 210.612 235.797828 
z
" clip-path="url(#p4fb52ad9af)" style="fill: #1f77b4"/>
   </g>
   <g id="patch_82">
    <path d="M 212.207364 246.04 
L 213.802727 246.04 
L 213.802727 234.950465 
L 212.207364 234.950465 
z
" clip-path="url(#p4fb52ad9af)" style="fill: #1f77b4"/>
   </g>
   <g id="patch_83">
    <path d="M 213.802727 246.04 
L 215.398091 246.04 
L 215.398091 233.935475 
L 213.802727 233.935475 
z
" clip-path="url(#p4fb52ad9af)" style="fill: #1f77b4"/>
   </g>
   <g id="patch_84">
    <path d="M 215.398091 246.04 
L 216.993455 246.04 
L 216.993455 232.78054 
L 215.398091 232.78054 
z
" clip-path="url(#p4fb52ad9af)" style="fill: #1f77b4"/>
   </g>
   <g id="patch_85">
    <path d="M 216.993455 246.04 
L 218.588818 246.04 
L 218.588818 231.502575 
L 216.993455 231.502575 
z
" clip-path="url(#p4fb52ad9af)" style="fill: #1f77b4"/>
   </g>
   <g id="patch_86">
    <path d="M 218.588818 246.04 
L 220.184182 246.04 
L 220.184182 230.123112 
L 218.588818 230.123112 
z
" clip-path="url(#p4fb52ad9af)" style="fill: #1f77b4"/>
   </g>
   <g id="patch_87">
    <path d="M 220.184182 246.04 
L 221.779545 246.04 
L 221.779545 228.534498 
L 220.184182 228.534498 
z
" clip-path="url(#p4fb52ad9af)" style="fill: #1f77b4"/>
   </g>
   <g id="patch_88">
    <path d="M 221.779545 246.04 
L 223.374909 246.04 
L 223.374909 226.769031 
L 221.779545 226.769031 
z
" clip-path="url(#p4fb52ad9af)" style="fill: #1f77b4"/>
   </g>
   <g id="patch_89">
    <path d="M 223.374909 246.04 
L 224.970273 246.04 
L 224.970273 224.668309 
L 223.374909 224.668309 
z
" clip-path="url(#p4fb52ad9af)" style="fill: #1f77b4"/>
   </g>
   <g id="patch_90">
    <path d="M 224.970273 246.04 
L 226.565636 246.04 
L 226.565636 222.463013 
L 224.970273 222.463013 
z
" clip-path="url(#p4fb52ad9af)" style="fill: #1f77b4"/>
   </g>
   <g id="patch_91">
    <path d="M 226.565636 246.04 
L 228.161 246.04 
L 228.161 219.83788 
L 226.565636 219.83788 
z
" clip-path="url(#p4fb52ad9af)" style="fill: #1f77b4"/>
   </g>
   <g id="patch_92">
    <path d="M 228.161 246.04 
L 229.756364 246.04 
L 229.756364 216.837508 
L 228.161 216.837508 
z
" clip-path="url(#p4fb52ad9af)" style="fill: #1f77b4"/>
   </g>
   <g id="patch_93">
    <path d="M 229.756364 246.04 
L 231.351727 246.04 
L 231.351727 213.346557 
L 229.756364 213.346557 
z
" clip-path="url(#p4fb52ad9af)" style="fill: #1f77b4"/>
   </g>
   <g id="patch_94">
    <path d="M 231.351727 246.04 
L 232.947091 246.04 
L 232.947091 209.444997 
L 231.351727 209.444997 
z
" clip-path="url(#p4fb52ad9af)" style="fill: #1f77b4"/>
   </g>
   <g id="patch_95">
    <path d="M 232.947091 246.04 
L 234.542455 246.04 
L 234.542455 204.809876 
L 232.947091 204.809876 
z
" clip-path="url(#p4fb52ad9af)" style="fill: #1f77b4"/>
   </g>
   <g id="patch_96">
    <path d="M 234.542455 246.04 
L 236.137818 246.04 
L 236.137818 199.256651 
L 234.542455 199.256651 
z
" clip-path="url(#p4fb52ad9af)" style="fill: #1f77b4"/>
   </g>
   <g id="patch_97">
    <path d="M 236.137818 246.04 
L 237.733182 246.04 
L 237.733182 192.545414 
L 236.137818 192.545414 
z
" clip-path="url(#p4fb52ad9af)" style="fill: #1f77b4"/>
   </g>
   <g id="patch_98">
    <path d="M 237.733182 246.04 
L 239.328545 246.04 
L 239.328545 184.633106 
L 237.733182 184.633106 
z
" clip-path="url(#p4fb52ad9af)" style="fill: #1f77b4"/>
   </g>
   <g id="patch_99">
    <path d="M 239.328545 246.04 
L 240.923909 246.04 
L 240.923909 175.301349 
L 239.328545 175.301349 
z
" clip-path="url(#p4fb52ad9af)" style="fill: #1f77b4"/>
   </g>
   <g id="patch_100">
    <path d="M 240.923909 246.04 
L 242.519273 246.04 
L 242.519273 164.808506 
L 240.923909 164.808506 
z
" clip-path="url(#p4fb52ad9af)" style="fill: #1f77b4"/>
   </g>
   <g id="patch_101">
    <path d="M 242.519273 246.04 
L 244.114636 246.04 
L 244.114636 153.559034 
L 242.519273 153.559034 
z
" clip-path="url(#p4fb52ad9af)" style="fill: #1f77b4"/>
   </g>
   <g id="patch_102">
    <path d="M 244.114636 246.04 
L 245.71 246.04 
L 245.71 141.818983 
L 244.114636 141.818983 
z
" clip-path="url(#p4fb52ad9af)" style="fill: #1f77b4"/>
   </g>
   <g id="patch_103">
    <path d="M 245.71 246.04 
L 247.305364 246.04 
L 247.305364 130.120454 
L 245.71 130.120454 
z
" clip-path="url(#p4fb52ad9af)" style="fill: #1f77b4"/>
   </g>
   <g id="patch_104">
    <path d="M 247.305364 246.04 
L 248.900727 246.04 
L 248.900727 119.152411 
L 247.305364 119.152411 
z
" clip-path="url(#p4fb52ad9af)" style="fill: #1f77b4"/>
   </g>
   <g id="patch_105">
    <path d="M 248.900727 246.04 
L 250.496091 246.04 
L 250.496091 108.836422 
L 248.900727 108.836422 
z
" clip-path="url(#p4fb52ad9af)" style="fill: #1f77b4"/>
   </g>
   <g id="patch_106">
    <path d="M 250.496091 246.04 
L 252.091455 246.04 
L 252.091455 99.976789 
L 250.496091 99.976789 
z
" clip-path="url(#p4fb52ad9af)" style="fill: #1f77b4"/>
   </g>
   <g id="patch_107">
    <path d="M 252.091455 246.04 
L 253.686818 246.04 
L 253.686818 92.14445 
L 252.091455 92.14445 
z
" clip-path="url(#p4fb52ad9af)" style="fill: #1f77b4"/>
   </g>
   <g id="patch_108">
    <path d="M 253.686818 246.04 
L 255.282182 246.04 
L 255.282182 85.711566 
L 253.686818 85.711566 
z
" clip-path="url(#p4fb52ad9af)" style="fill: #1f77b4"/>
   </g>
   <g id="patch_109">
    <path d="M 255.282182 246.04 
L 256.877545 246.04 
L 256.877545 80.138349 
L 255.282182 80.138349 
z
" clip-path="url(#p4fb52ad9af)" style="fill: #1f77b4"/>
   </g>
   <g id="patch_110">
    <path d="M 256.877545 246.04 
L 258.472909 246.04 
L 258.472909 75.61703 
L 256.877545 75.61703 
z
" clip-path="url(#p4fb52ad9af)" style="fill: #1f77b4"/>
   </g>
   <g id="patch_111">
    <path d="M 258.472909 246.04 
L 260.068273 246.04 
L 260.068273 71.669334 
L 258.472909 71.669334 
z
" clip-path="url(#p4fb52ad9af)" style="fill: #1f77b4"/>
   </g>
   <g id="patch_112">
    <path d="M 260.068273 246.04 
L 261.663636 246.04 
L 261.663636 68.179921 
L 260.068273 68.179921 
z
" clip-path="url(#p4fb52ad9af)" style="fill: #1f77b4"/>
   </g>
   <g id="patch_113">
    <path d="M 261.663636 246.04 
L 263.259 246.04 
L 263.259 65.061134 
L 261.663636 65.061134 
z
" clip-path="url(#p4fb52ad9af)" style="fill: #1f77b4"/>
   </g>
   <g id="patch_114">
    <path d="M 263.259 246.04 
L 264.854364 246.04 
L 264.854364 62.359107 
L 263.259 62.359107 
z
" clip-path="url(#p4fb52ad9af)" style="fill: #1f77b4"/>
   </g>
   <g id="patch_115">
    <path d="M 264.854364 246.04 
L 266.449727 246.04 
L 266.449727 59.941586 
L 264.854364 59.941586 
z
" clip-path="url(#p4fb52ad9af)" style="fill: #1f77b4"/>
   </g>
   <g id="patch_116">
    <path d="M 266.449727 246.04 
L 268.045091 246.04 
L 268.045091 57.796266 
L 266.449727 57.796266 
z
" clip-path="url(#p4fb52ad9af)" style="fill: #1f77b4"/>
   </g>
   <g id="patch_117">
    <path d="M 268.045091 246.04 
L 269.640455 246.04 
L 269.640455 55.852406 
L 268.045091 55.852406 
z
" clip-path="url(#p4fb52ad9af)" style="fill: #1f77b4"/>
   </g>
   <g id="patch_118">
    <path d="M 269.640455 246.04 
L 271.235818 246.04 
L 271.235818 54.137688 
L 269.640455 54.137688 
z
" clip-path="url(#p4fb52ad9af)" style="fill: #1f77b4"/>
   </g>
   <g id="patch_119">
    <path d="M 271.235818 246.04 
L 272.831182 246.04 
L 272.831182 52.622893 
L 271.235818 52.622893 
z
" clip-path="url(#p4fb52ad9af)" style="fill: #1f77b4"/>
   </g>
   <g id="patch_120">
    <path d="M 272.831182 246.04 
L 274.426545 246.04 
L 274.426545 51.218823 
L 272.831182 51.218823 
z
" clip-path="url(#p4fb52ad9af)" style="fill: #1f77b4"/>
   </g>
   <g id="patch_121">
    <path d="M 274.426545 246.04 
L 276.021909 246.04 
L 276.021909 49.8532 
L 274.426545 49.8532 
z
" clip-path="url(#p4fb52ad9af)" style="fill: #1f77b4"/>
   </g>
   <g id="patch_122">
    <path d="M 276.021909 246.04 
L 277.617273 246.04 
L 277.617273 48.649053 
L 276.021909 48.649053 
z
" clip-path="url(#p4fb52ad9af)" style="fill: #1f77b4"/>
   </g>
   <g id="patch_123">
    <path d="M 277.617273 246.04 
L 279.212636 246.04 
L 279.212636 47.532564 
L 277.617273 47.532564 
z
" clip-path="url(#p4fb52ad9af)" style="fill: #1f77b4"/>
   </g>
   <g id="patch_124">
    <path d="M 279.212636 246.04 
L 280.808 246.04 
L 280.808 46.569862 
L 279.212636 46.569862 
z
" clip-path="url(#p4fb52ad9af)" style="fill: #1f77b4"/>
   </g>
   <g id="patch_125">
    <path d="M 280.808 246.04 
L 282.403364 246.04 
L 282.403364 45.665598 
L 280.808 45.665598 
z
" clip-path="url(#p4fb52ad9af)" style="fill: #1f77b4"/>
   </g>
   <g id="patch_126">
    <path d="M 282.403364 246.04 
L 283.998727 246.04 
L 283.998727 44.924348 
L 282.403364 44.924348 
z
" clip-path="url(#p4fb52ad9af)" style="fill: #1f77b4"/>
   </g>
   <g id="patch_127">
    <path d="M 283.998727 246.04 
L 285.594091 246.04 
L 285.594091 44.215392 
L 283.998727 44.215392 
z
" clip-path="url(#p4fb52ad9af)" style="fill: #1f77b4"/>
   </g>
   <g id="patch_128">
    <path d="M 285.594091 246.04 
L 287.189455 246.04 
L 287.189455 43.567952 
L 285.594091 43.567952 
z
" clip-path="url(#p4fb52ad9af)" style="fill: #1f77b4"/>
   </g>
   <g id="patch_129">
    <path d="M 287.189455 246.04 
L 288.784818 246.04 
L 288.784818 42.986639 
L 287.189455 42.986639 
z
" clip-path="url(#p4fb52ad9af)" style="fill: #1f77b4"/>
   </g>
   <g id="patch_130">
    <path d="M 288.784818 246.04 
L 290.380182 246.04 
L 290.380182 42.446849 
L 288.784818 42.446849 
z
" clip-path="url(#p4fb52ad9af)" style="fill: #1f77b4"/>
   </g>
   <g id="patch_131">
    <path d="M 290.380182 246.04 
L 291.975545 246.04 
L 291.975545 41.990104 
L 290.380182 41.990104 
z
" clip-path="url(#p4fb52ad9af)" style="fill: #1f77b4"/>
   </g>
   <g id="patch_132">
    <path d="M 291.975545 246.04 
L 293.570909 246.04 
L 293.570909 41.545661 
L 291.975545 41.545661 
z
" clip-path="url(#p4fb52ad9af)" style="fill: #1f77b4"/>
   </g>
   <g id="patch_133">
    <path d="M 293.570909 246.04 
L 295.166273 246.04 
L 295.166273 41.151968 
L 293.570909 41.151968 
z
" clip-path="url(#p4fb52ad9af)" style="fill: #1f77b4"/>
   </g>
   <g id="patch_134">
    <path d="M 295.166273 246.04 
L 296.761636 246.04 
L 296.761636 40.804411 
L 295.166273 40.804411 
z
" clip-path="url(#p4fb52ad9af)" style="fill: #1f77b4"/>
   </g>
   <g id="patch_135">
    <path d="M 296.761636 246.04 
L 298.357 246.04 
L 298.357 40.443013 
L 296.761636 40.443013 
z
" clip-path="url(#p4fb52ad9af)" style="fill: #1f77b4"/>
   </g>
   <g id="patch_136">
    <path d="M 298.357 246.04 
L 299.952364 246.04 
L 299.952364 40.144667 
L 298.357 40.144667 
z
" clip-path="url(#p4fb52ad9af)" style="fill: #1f77b4"/>
   </g>
   <g id="patch_137">
    <path d="M 299.952364 246.04 
L 301.547727 246.04 
L 301.547727 39.84017 
L 299.952364 39.84017 
z
" clip-path="url(#p4fb52ad9af)" style="fill: #1f77b4"/>
   </g>
   <g id="patch_138">
    <path d="M 301.547727 246.04 
L 303.143091 246.04 
L 303.143091 39.557204 
L 301.547727 39.557204 
z
" clip-path="url(#p4fb52ad9af)" style="fill: #1f77b4"/>
   </g>
   <g id="patch_139">
    <path d="M 303.143091 246.04 
L 304.738455 246.04 
L 304.738455 39.28654 
L 303.143091 39.28654 
z
" clip-path="url(#p4fb52ad9af)" style="fill: #1f77b4"/>
   </g>
   <g id="patch_140">
    <path d="M 304.738455 246.04 
L 306.333818 246.04 
L 306.333818 39.025103 
L 304.738455 39.025103 
z
" clip-path="url(#p4fb52ad9af)" style="fill: #1f77b4"/>
   </g>
   <g id="patch_141">
    <path d="M 306.333818 246.04 
L 307.929182 246.04 
L 307.929182 38.792885 
L 306.333818 38.792885 
z
" clip-path="url(#p4fb52ad9af)" style="fill: #1f77b4"/>
   </g>
   <g id="patch_142">
    <path d="M 307.929182 246.04 
L 309.524545 246.04 
L 309.524545 38.586812 
L 307.929182 38.586812 
z
" clip-path="url(#p4fb52ad9af)" style="fill: #1f77b4"/>
   </g>
   <g id="patch_143">
    <path d="M 309.524545 246.04 
L 311.119909 246.04 
L 311.119909 38.391503 
L 309.524545 38.391503 
z
" clip-path="url(#p4fb52ad9af)" style="fill: #1f77b4"/>
   </g>
   <g id="patch_144">
    <path d="M 311.119909 246.04 
L 312.715273 246.04 
L 312.715273 38.231565 
L 311.119909 38.231565 
z
" clip-path="url(#p4fb52ad9af)" style="fill: #1f77b4"/>
   </g>
   <g id="patch_145">
    <path d="M 312.715273 246.04 
L 314.310636 246.04 
L 314.310636 38.067014 
L 312.715273 38.067014 
z
" clip-path="url(#p4fb52ad9af)" style="fill: #1f77b4"/>
   </g>
   <g id="patch_146">
    <path d="M 314.310636 246.04 
L 315.906 246.04 
L 315.906 37.911689 
L 314.310636 37.911689 
z
" clip-path="url(#p4fb52ad9af)" style="fill: #1f77b4"/>
   </g>
   <g id="patch_147">
    <path d="M 315.906 246.04 
L 317.501364 246.04 
L 317.501364 37.777895 
L 315.906 37.777895 
z
" clip-path="url(#p4fb52ad9af)" style="fill: #1f77b4"/>
   </g>
   <g id="patch_148">
    <path d="M 317.501364 246.04 
L 319.096727 246.04 
L 319.096727 37.682548 
L 317.501364 37.682548 
z
" clip-path="url(#p4fb52ad9af)" style="fill: #1f77b4"/>
   </g>
   <g id="patch_149">
    <path d="M 319.096727 246.04 
L 320.692091 246.04 
L 320.692091 37.567208 
L 319.096727 37.567208 
z
" clip-path="url(#p4fb52ad9af)" style="fill: #1f77b4"/>
   </g>
   <g id="patch_150">
    <path d="M 320.692091 246.04 
L 322.287455 246.04 
L 322.287455 37.473398 
L 320.692091 37.473398 
z
" clip-path="url(#p4fb52ad9af)" style="fill: #1f77b4"/>
   </g>
   <g id="patch_151">
    <path d="M 322.287455 246.04 
L 323.882818 246.04 
L 323.882818 37.376513 
L 322.287455 37.376513 
z
" clip-path="url(#p4fb52ad9af)" style="fill: #1f77b4"/>
   </g>
   <g id="patch_152">
    <path d="M 323.882818 246.04 
L 325.478182 246.04 
L 325.478182 37.284241 
L 323.882818 37.284241 
z
" clip-path="url(#p4fb52ad9af)" style="fill: #1f77b4"/>
   </g>
   <g id="patch_153">
    <path d="M 325.478182 246.04 
L 327.073545 246.04 
L 327.073545 37.190431 
L 325.478182 37.190431 
z
" clip-path="url(#p4fb52ad9af)" style="fill: #1f77b4"/>
   </g>
   <g id="patch_154">
    <path d="M 327.073545 246.04 
L 328.668909 246.04 
L 328.668909 37.09816 
L 327.073545 37.09816 
z
" clip-path="url(#p4fb52ad9af)" style="fill: #1f77b4"/>
   </g>
   <g id="patch_155">
    <path d="M 328.668909 246.04 
L 330.264273 246.04 
L 330.264273 37.02588 
L 328.668909 37.02588 
z
" clip-path="url(#p4fb52ad9af)" style="fill: #1f77b4"/>
   </g>
   <g id="patch_156">
    <path d="M 330.264273 246.04 
L 331.859636 246.04 
L 331.859636 36.93207 
L 330.264273 36.93207 
z
" clip-path="url(#p4fb52ad9af)" style="fill: #1f77b4"/>
   </g>
   <g id="patch_157">
    <path d="M 331.859636 246.04 
L 333.455 246.04 
L 333.455 36.858253 
L 331.859636 36.858253 
z
" clip-path="url(#p4fb52ad9af)" style="fill: #1f77b4"/>
   </g>
   <g id="patch_158">
    <path d="M 333.455 246.04 
L 335.050364 246.04 
L 335.050364 36.805966 
L 333.455 36.805966 
z
" clip-path="url(#p4fb52ad9af)" style="fill: #1f77b4"/>
   </g>
   <g id="patch_159">
    <path d="M 335.050364 246.04 
L 336.645727 246.04 
L 336.645727 36.770595 
L 335.050364 36.770595 
z
" clip-path="url(#p4fb52ad9af)" style="fill: #1f77b4"/>
   </g>
   <g id="patch_160">
    <path d="M 336.645727 246.04 
L 338.241091 246.04 
L 338.241091 36.719845 
L 336.645727 36.719845 
z
" clip-path="url(#p4fb52ad9af)" style="fill: #1f77b4"/>
   </g>
   <g id="patch_161">
    <path d="M 338.241091 246.04 
L 339.836455 246.04 
L 339.836455 36.664482 
L 338.241091 36.664482 
z
" clip-path="url(#p4fb52ad9af)" style="fill: #1f77b4"/>
   </g>
   <g id="patch_162">
    <path d="M 339.836455 246.04 
L 341.431818 246.04 
L 341.431818 36.606043 
L 339.836455 36.606043 
z
" clip-path="url(#p4fb52ad9af)" style="fill: #1f77b4"/>
   </g>
   <g id="patch_163">
    <path d="M 341.431818 246.04 
L 343.027182 246.04 
L 343.027182 36.566059 
L 341.431818 36.566059 
z
" clip-path="url(#p4fb52ad9af)" style="fill: #1f77b4"/>
   </g>
   <g id="patch_164">
    <path d="M 343.027182 246.04 
L 344.622545 246.04 
L 344.622545 36.535302 
L 343.027182 36.535302 
z
" clip-path="url(#p4fb52ad9af)" style="fill: #1f77b4"/>
   </g>
   <g id="patch_165">
    <path d="M 344.622545 246.04 
L 346.217909 246.04 
L 346.217909 36.498393 
L 344.622545 36.498393 
z
" clip-path="url(#p4fb52ad9af)" style="fill: #1f77b4"/>
   </g>
   <g id="patch_166">
    <path d="M 346.217909 246.04 
L 347.813273 246.04 
L 347.813273 36.472249 
L 346.217909 36.472249 
z
" clip-path="url(#p4fb52ad9af)" style="fill: #1f77b4"/>
   </g>
   <g id="patch_167">
    <path d="M 347.813273 246.04 
L 349.408636 246.04 
L 349.408636 36.438416 
L 347.813273 36.438416 
z
" clip-path="url(#p4fb52ad9af)" style="fill: #1f77b4"/>
   </g>
   <g id="patch_168">
    <path d="M 349.408636 246.04 
L 351.004 246.04 
L 351.004 36.407659 
L 349.408636 36.407659 
z
" clip-path="url(#p4fb52ad9af)" style="fill: #1f77b4"/>
   </g>
   <g id="patch_169">
    <path d="M 351.004 246.04 
L 352.599364 246.04 
L 352.599364 36.375364 
L 351.004 36.375364 
z
" clip-path="url(#p4fb52ad9af)" style="fill: #1f77b4"/>
   </g>
   <g id="patch_170">
    <path d="M 352.599364 246.04 
L 354.194727 246.04 
L 354.194727 36.341531 
L 352.599364 36.341531 
z
" clip-path="url(#p4fb52ad9af)" style="fill: #1f77b4"/>
   </g>
   <g id="patch_171">
    <path d="M 354.194727 246.04 
L 355.790091 246.04 
L 355.790091 36.315387 
L 354.194727 36.315387 
z
" clip-path="url(#p4fb52ad9af)" style="fill: #1f77b4"/>
   </g>
   <g id="patch_172">
    <path d="M 355.790091 246.04 
L 357.385455 246.04 
L 357.385455 36.292319 
L 355.790091 36.292319 
z
" clip-path="url(#p4fb52ad9af)" style="fill: #1f77b4"/>
   </g>
   <g id="patch_173">
    <path d="M 357.385455 246.04 
L 358.980818 246.04 
L 358.980818 36.270789 
L 357.385455 36.270789 
z
" clip-path="url(#p4fb52ad9af)" style="fill: #1f77b4"/>
   </g>
   <g id="patch_174">
    <path d="M 358.980818 246.04 
L 360.576182 246.04 
L 360.576182 36.247721 
L 358.980818 36.247721 
z
" clip-path="url(#p4fb52ad9af)" style="fill: #1f77b4"/>
   </g>
   <g id="patch_175">
    <path d="M 360.576182 246.04 
L 362.171545 246.04 
L 362.171545 36.226191 
L 360.576182 36.226191 
z
" clip-path="url(#p4fb52ad9af)" style="fill: #1f77b4"/>
   </g>
   <g id="patch_176">
    <path d="M 362.171545 246.04 
L 363.766909 246.04 
L 363.766909 36.204661 
L 362.171545 36.204661 
z
" clip-path="url(#p4fb52ad9af)" style="fill: #1f77b4"/>
   </g>
   <g id="patch_177">
    <path d="M 363.766909 246.04 
L 365.362273 246.04 
L 365.362273 36.192358 
L 363.766909 36.192358 
z
" clip-path="url(#p4fb52ad9af)" style="fill: #1f77b4"/>
   </g>
   <g id="patch_178">
    <path d="M 365.362273 246.04 
L 366.957636 246.04 
L 366.957636 36.181593 
L 365.362273 36.181593 
z
" clip-path="url(#p4fb52ad9af)" style="fill: #1f77b4"/>
   </g>
   <g id="patch_179">
    <path d="M 366.957636 246.04 
L 368.553 246.04 
L 368.553 36.167752 
L 366.957636 36.167752 
z
" clip-path="url(#p4fb52ad9af)" style="fill: #1f77b4"/>
   </g>
   <g id="patch_180">
    <path d="M 368.553 246.04 
L 370.148364 246.04 
L 370.148364 36.150836 
L 368.553 36.150836 
z
" clip-path="url(#p4fb52ad9af)" style="fill: #1f77b4"/>
   </g>
   <g id="patch_181">
    <path d="M 370.148364 246.04 
L 371.743727 246.04 
L 371.743727 36.133919 
L 370.148364 36.133919 
z
" clip-path="url(#p4fb52ad9af)" style="fill: #1f77b4"/>
   </g>
   <g id="patch_182">
    <path d="M 371.743727 246.04 
L 373.339091 246.04 
L 373.339091 36.117003 
L 371.743727 36.117003 
z
" clip-path="url(#p4fb52ad9af)" style="fill: #1f77b4"/>
   </g>
   <g id="patch_183">
    <path d="M 373.339091 246.04 
L 374.934455 246.04 
L 374.934455 36.095473 
L 373.339091 36.095473 
z
" clip-path="url(#p4fb52ad9af)" style="fill: #1f77b4"/>
   </g>
   <g id="patch_184">
    <path d="M 374.934455 246.04 
L 376.529818 246.04 
L 376.529818 36.08317 
L 374.934455 36.08317 
z
" clip-path="url(#p4fb52ad9af)" style="fill: #1f77b4"/>
   </g>
   <g id="patch_185">
    <path d="M 376.529818 246.04 
L 378.125182 246.04 
L 378.125182 36.064715 
L 376.529818 36.064715 
z
" clip-path="url(#p4fb52ad9af)" style="fill: #1f77b4"/>
   </g>
   <g id="patch_186">
    <path d="M 378.125182 246.04 
L 379.720545 246.04 
L 379.720545 36.058564 
L 378.125182 36.058564 
z
" clip-path="url(#p4fb52ad9af)" style="fill: #1f77b4"/>
   </g>
   <g id="patch_187">
    <path d="M 379.720545 246.04 
L 381.315909 246.04 
L 381.315909 36.044723 
L 379.720545 36.044723 
z
" clip-path="url(#p4fb52ad9af)" style="fill: #1f77b4"/>
   </g>
   <g id="patch_188">
    <path d="M 381.315909 246.04 
L 382.911273 246.04 
L 382.911273 36.029344 
L 381.315909 36.029344 
z
" clip-path="url(#p4fb52ad9af)" style="fill: #1f77b4"/>
   </g>
   <g id="patch_189">
    <path d="M 382.911273 246.04 
L 384.506636 246.04 
L 384.506636 36.017041 
L 382.911273 36.017041 
z
" clip-path="url(#p4fb52ad9af)" style="fill: #1f77b4"/>
   </g>
   <g id="patch_190">
    <path d="M 384.506636 246.04 
L 386.102 246.04 
L 386.102 36.01089 
L 384.506636 36.01089 
z
" clip-path="url(#p4fb52ad9af)" style="fill: #1f77b4"/>
   </g>
   <g id="patch_191">
    <path d="M 386.102 246.04 
L 387.697364 246.04 
L 387.697364 36.007814 
L 386.102 36.007814 
z
" clip-path="url(#p4fb52ad9af)" style="fill: #1f77b4"/>
   </g>
   <g id="patch_192">
    <path d="M 387.697364 246.04 
L 389.292727 246.04 
L 389.292727 36.001663 
L 387.697364 36.001663 
z
" clip-path="url(#p4fb52ad9af)" style="fill: #1f77b4"/>
   </g>
   <g id="patch_193">
    <path d="M 389.292727 246.04 
L 390.888091 246.04 
L 390.888091 35.998587 
L 389.292727 35.998587 
z
" clip-path="url(#p4fb52ad9af)" style="fill: #1f77b4"/>
   </g>
   <g id="patch_194">
    <path d="M 390.888091 246.04 
L 392.483455 246.04 
L 392.483455 35.98936 
L 390.888091 35.98936 
z
" clip-path="url(#p4fb52ad9af)" style="fill: #1f77b4"/>
   </g>
   <g id="patch_195">
    <path d="M 392.483455 246.04 
L 394.078818 246.04 
L 394.078818 35.978595 
L 392.483455 35.978595 
z
" clip-path="url(#p4fb52ad9af)" style="fill: #1f77b4"/>
   </g>
   <g id="patch_196">
    <path d="M 394.078818 246.04 
L 395.674182 246.04 
L 395.674182 35.972443 
L 394.078818 35.972443 
z
" clip-path="url(#p4fb52ad9af)" style="fill: #1f77b4"/>
   </g>
   <g id="patch_197">
    <path d="M 395.674182 246.04 
L 397.269545 246.04 
L 397.269545 35.964754 
L 395.674182 35.964754 
z
" clip-path="url(#p4fb52ad9af)" style="fill: #1f77b4"/>
   </g>
   <g id="patch_198">
    <path d="M 397.269545 246.04 
L 398.864909 246.04 
L 398.864909 35.960141 
L 397.269545 35.960141 
z
" clip-path="url(#p4fb52ad9af)" style="fill: #1f77b4"/>
   </g>
   <g id="patch_199">
    <path d="M 398.864909 246.04 
L 400.460273 246.04 
L 400.460273 35.953989 
L 398.864909 35.953989 
z
" clip-path="url(#p4fb52ad9af)" style="fill: #1f77b4"/>
   </g>
   <g id="patch_200">
    <path d="M 400.460273 246.04 
L 402.055636 246.04 
L 402.055636 35.952451 
L 400.460273 35.952451 
z
" clip-path="url(#p4fb52ad9af)" style="fill: #1f77b4"/>
   </g>
   <g id="patch_201">
    <path d="M 402.055636 246.04 
L 403.651 246.04 
L 403.651 35.949375 
L 402.055636 35.949375 
z
" clip-path="url(#p4fb52ad9af)" style="fill: #1f77b4"/>
   </g>
   <g id="patch_202">
    <path d="M 403.651 246.04 
L 405.246364 246.04 
L 405.246364 35.944762 
L 403.651 35.944762 
z
" clip-path="url(#p4fb52ad9af)" style="fill: #1f77b4"/>
   </g>
   <g id="matplotlib.axis_1">
    <g id="xtick_1">
     <g id="line2d_1">
      <defs>
       <path id="m19098ccad8" d="M 0 0 
L 0 3.5 
" style="stroke: #000000; stroke-width: 0.8"/>
      </defs>
      <g>
       <use xlink:href="#m19098ccad8" x="86.173636" y="246.04" style="stroke: #000000; stroke-width: 0.8"/>
      </g>
     </g>
     <g id="text_1">
      <!-- −0.15 -->
      <g transform="translate(70.85098 260.638438)scale(0.1 -0.1)">
       <defs>
        <path id="DejaVuSans-2212" d="M 678 2272 
L 4684 2272 
L 4684 1741 
L 678 1741 
L 678 2272 
z
" transform="scale(0.015625)"/>
        <path id="DejaVuSans-30" d="M 2034 4250 
Q 1547 4250 1301 3770 
Q 1056 3291 1056 2328 
Q 1056 1369 1301 889 
Q 1547 409 2034 409 
Q 2525 409 2770 889 
Q 3016 1369 3016 2328 
Q 3016 3291 2770 3770 
Q 2525 4250 2034 4250 
z
M 2034 4750 
Q 2819 4750 3233 4129 
Q 3647 3509 3647 2328 
Q 3647 1150 3233 529 
Q 2819 -91 2034 -91 
Q 1250 -91 836 529 
Q 422 1150 422 2328 
Q 422 3509 836 4129 
Q 1250 4750 2034 4750 
z
" transform="scale(0.015625)"/>
        <path id="DejaVuSans-2e" d="M 684 794 
L 1344 794 
L 1344 0 
L 684 0 
L 684 794 
z
" transform="scale(0.015625)"/>
        <path id="DejaVuSans-31" d="M 794 531 
L 1825 531 
L 1825 4091 
L 703 3866 
L 703 4441 
L 1819 4666 
L 2450 4666 
L 2450 531 
L 3481 531 
L 3481 0 
L 794 0 
L 794 531 
z
" transform="scale(0.015625)"/>
        <path id="DejaVuSans-35" d="M 691 4666 
L 3169 4666 
L 3169 4134 
L 1269 4134 
L 1269 2991 
Q 1406 3038 1543 3061 
Q 1681 3084 1819 3084 
Q 2600 3084 3056 2656 
Q 3513 2228 3513 1497 
Q 3513 744 3044 326 
Q 2575 -91 1722 -91 
Q 1428 -91 1123 -41 
Q 819 9 494 109 
L 494 744 
Q 775 591 1075 516 
Q 1375 441 1709 441 
Q 2250 441 2565 725 
Q 2881 1009 2881 1497 
Q 2881 1984 2565 2268 
Q 2250 2553 1709 2553 
Q 1456 2553 1204 2497 
Q 953 2441 691 2322 
L 691 4666 
z
" transform="scale(0.015625)"/>
       </defs>
       <use xlink:href="#DejaVuSans-2212"/>
       <use xlink:href="#DejaVuSans-30" x="83.789062"/>
       <use xlink:href="#DejaVuSans-2e" x="147.412109"/>
       <use xlink:href="#DejaVuSans-31" x="179.199219"/>
       <use xlink:href="#DejaVuSans-35" x="242.822266"/>
      </g>
     </g>
    </g>
    <g id="xtick_2">
     <g id="line2d_2">
      <g>
       <use xlink:href="#m19098ccad8" x="139.352424" y="246.04" style="stroke: #000000; stroke-width: 0.8"/>
      </g>
     </g>
     <g id="text_2">
      <!-- −0.10 -->
      <g transform="translate(124.029768 260.638438)scale(0.1 -0.1)">
       <use xlink:href="#DejaVuSans-2212"/>
       <use xlink:href="#DejaVuSans-30" x="83.789062"/>
       <use xlink:href="#DejaVuSans-2e" x="147.412109"/>
       <use xlink:href="#DejaVuSans-31" x="179.199219"/>
       <use xlink:href="#DejaVuSans-30" x="242.822266"/>
      </g>
     </g>
    </g>
    <g id="xtick_3">
     <g id="line2d_3">
      <g>
       <use xlink:href="#m19098ccad8" x="192.531212" y="246.04" style="stroke: #000000; stroke-width: 0.8"/>
      </g>
     </g>
     <g id="text_3">
      <!-- −0.05 -->
      <g transform="translate(177.208556 260.638438)scale(0.1 -0.1)">
       <use xlink:href="#DejaVuSans-2212"/>
       <use xlink:href="#DejaVuSans-30" x="83.789062"/>
       <use xlink:href="#DejaVuSans-2e" x="147.412109"/>
       <use xlink:href="#DejaVuSans-30" x="179.199219"/>
       <use xlink:href="#DejaVuSans-35" x="242.822266"/>
      </g>
     </g>
    </g>
    <g id="xtick_4">
     <g id="line2d_4">
      <g>
       <use xlink:href="#m19098ccad8" x="245.71" y="246.04" style="stroke: #000000; stroke-width: 0.8"/>
      </g>
     </g>
     <g id="text_4">
      <!-- 0.00 -->
      <g transform="translate(234.577187 260.638438)scale(0.1 -0.1)">
       <use xlink:href="#DejaVuSans-30"/>
       <use xlink:href="#DejaVuSans-2e" x="63.623047"/>
       <use xlink:href="#DejaVuSans-30" x="95.410156"/>
       <use xlink:href="#DejaVuSans-30" x="159.033203"/>
      </g>
     </g>
    </g>
    <g id="xtick_5">
     <g id="line2d_5">
      <g>
       <use xlink:href="#m19098ccad8" x="298.888788" y="246.04" style="stroke: #000000; stroke-width: 0.8"/>
      </g>
     </g>
     <g id="text_5">
      <!-- 0.05 -->
      <g transform="translate(287.755975 260.638438)scale(0.1 -0.1)">
       <use xlink:href="#DejaVuSans-30"/>
       <use xlink:href="#DejaVuSans-2e" x="63.623047"/>
       <use xlink:href="#DejaVuSans-30" x="95.410156"/>
       <use xlink:href="#DejaVuSans-35" x="159.033203"/>
      </g>
     </g>
    </g>
    <g id="xtick_6">
     <g id="line2d_6">
      <g>
       <use xlink:href="#m19098ccad8" x="352.067576" y="246.04" style="stroke: #000000; stroke-width: 0.8"/>
      </g>
     </g>
     <g id="text_6">
      <!-- 0.10 -->
      <g transform="translate(340.934763 260.638438)scale(0.1 -0.1)">
       <use xlink:href="#DejaVuSans-30"/>
       <use xlink:href="#DejaVuSans-2e" x="63.623047"/>
       <use xlink:href="#DejaVuSans-31" x="95.410156"/>
       <use xlink:href="#DejaVuSans-30" x="159.033203"/>
      </g>
     </g>
    </g>
    <g id="xtick_7">
     <g id="line2d_7">
      <g>
       <use xlink:href="#m19098ccad8" x="405.246364" y="246.04" style="stroke: #000000; stroke-width: 0.8"/>
      </g>
     </g>
     <g id="text_7">
      <!-- 0.15 -->
      <g transform="translate(394.113551 260.638438)scale(0.1 -0.1)">
       <use xlink:href="#DejaVuSans-30"/>
       <use xlink:href="#DejaVuSans-2e" x="63.623047"/>
       <use xlink:href="#DejaVuSans-31" x="95.410156"/>
       <use xlink:href="#DejaVuSans-35" x="159.033203"/>
      </g>
     </g>
    </g>
    <g id="text_8">
     <!-- Value of parameter -->
     <g transform="translate(197.584219 274.316562)scale(0.1 -0.1)">
      <defs>
       <path id="DejaVuSans-56" d="M 1831 0 
L 50 4666 
L 709 4666 
L 2188 738 
L 3669 4666 
L 4325 4666 
L 2547 0 
L 1831 0 
z
" transform="scale(0.015625)"/>
       <path id="DejaVuSans-61" d="M 2194 1759 
Q 1497 1759 1228 1600 
Q 959 1441 959 1056 
Q 959 750 1161 570 
Q 1363 391 1709 391 
Q 2188 391 2477 730 
Q 2766 1069 2766 1631 
L 2766 1759 
L 2194 1759 
z
M 3341 1997 
L 3341 0 
L 2766 0 
L 2766 531 
Q 2569 213 2275 61 
Q 1981 -91 1556 -91 
Q 1019 -91 701 211 
Q 384 513 384 1019 
Q 384 1609 779 1909 
Q 1175 2209 1959 2209 
L 2766 2209 
L 2766 2266 
Q 2766 2663 2505 2880 
Q 2244 3097 1772 3097 
Q 1472 3097 1187 3025 
Q 903 2953 641 2809 
L 641 3341 
Q 956 3463 1253 3523 
Q 1550 3584 1831 3584 
Q 2591 3584 2966 3190 
Q 3341 2797 3341 1997 
z
" transform="scale(0.015625)"/>
       <path id="DejaVuSans-6c" d="M 603 4863 
L 1178 4863 
L 1178 0 
L 603 0 
L 603 4863 
z
" transform="scale(0.015625)"/>
       <path id="DejaVuSans-75" d="M 544 1381 
L 544 3500 
L 1119 3500 
L 1119 1403 
Q 1119 906 1312 657 
Q 1506 409 1894 409 
Q 2359 409 2629 706 
Q 2900 1003 2900 1516 
L 2900 3500 
L 3475 3500 
L 3475 0 
L 2900 0 
L 2900 538 
Q 2691 219 2414 64 
Q 2138 -91 1772 -91 
Q 1169 -91 856 284 
Q 544 659 544 1381 
z
M 1991 3584 
L 1991 3584 
z
" transform="scale(0.015625)"/>
       <path id="DejaVuSans-65" d="M 3597 1894 
L 3597 1613 
L 953 1613 
Q 991 1019 1311 708 
Q 1631 397 2203 397 
Q 2534 397 2845 478 
Q 3156 559 3463 722 
L 3463 178 
Q 3153 47 2828 -22 
Q 2503 -91 2169 -91 
Q 1331 -91 842 396 
Q 353 884 353 1716 
Q 353 2575 817 3079 
Q 1281 3584 2069 3584 
Q 2775 3584 3186 3129 
Q 3597 2675 3597 1894 
z
M 3022 2063 
Q 3016 2534 2758 2815 
Q 2500 3097 2075 3097 
Q 1594 3097 1305 2825 
Q 1016 2553 972 2059 
L 3022 2063 
z
" transform="scale(0.015625)"/>
       <path id="DejaVuSans-20" transform="scale(0.015625)"/>
       <path id="DejaVuSans-6f" d="M 1959 3097 
Q 1497 3097 1228 2736 
Q 959 2375 959 1747 
Q 959 1119 1226 758 
Q 1494 397 1959 397 
Q 2419 397 2687 759 
Q 2956 1122 2956 1747 
Q 2956 2369 2687 2733 
Q 2419 3097 1959 3097 
z
M 1959 3584 
Q 2709 3584 3137 3096 
Q 3566 2609 3566 1747 
Q 3566 888 3137 398 
Q 2709 -91 1959 -91 
Q 1206 -91 779 398 
Q 353 888 353 1747 
Q 353 2609 779 3096 
Q 1206 3584 1959 3584 
z
" transform="scale(0.015625)"/>
       <path id="DejaVuSans-66" d="M 2375 4863 
L 2375 4384 
L 1825 4384 
Q 1516 4384 1395 4259 
Q 1275 4134 1275 3809 
L 1275 3500 
L 2222 3500 
L 2222 3053 
L 1275 3053 
L 1275 0 
L 697 0 
L 697 3053 
L 147 3053 
L 147 3500 
L 697 3500 
L 697 3744 
Q 697 4328 969 4595 
Q 1241 4863 1831 4863 
L 2375 4863 
z
" transform="scale(0.015625)"/>
       <path id="DejaVuSans-70" d="M 1159 525 
L 1159 -1331 
L 581 -1331 
L 581 3500 
L 1159 3500 
L 1159 2969 
Q 1341 3281 1617 3432 
Q 1894 3584 2278 3584 
Q 2916 3584 3314 3078 
Q 3713 2572 3713 1747 
Q 3713 922 3314 415 
Q 2916 -91 2278 -91 
Q 1894 -91 1617 61 
Q 1341 213 1159 525 
z
M 3116 1747 
Q 3116 2381 2855 2742 
Q 2594 3103 2138 3103 
Q 1681 3103 1420 2742 
Q 1159 2381 1159 1747 
Q 1159 1113 1420 752 
Q 1681 391 2138 391 
Q 2594 391 2855 752 
Q 3116 1113 3116 1747 
z
" transform="scale(0.015625)"/>
       <path id="DejaVuSans-72" d="M 2631 2963 
Q 2534 3019 2420 3045 
Q 2306 3072 2169 3072 
Q 1681 3072 1420 2755 
Q 1159 2438 1159 1844 
L 1159 0 
L 581 0 
L 581 3500 
L 1159 3500 
L 1159 2956 
Q 1341 3275 1631 3429 
Q 1922 3584 2338 3584 
Q 2397 3584 2469 3576 
Q 2541 3569 2628 3553 
L 2631 2963 
z
" transform="scale(0.015625)"/>
       <path id="DejaVuSans-6d" d="M 3328 2828 
Q 3544 3216 3844 3400 
Q 4144 3584 4550 3584 
Q 5097 3584 5394 3201 
Q 5691 2819 5691 2113 
L 5691 0 
L 5113 0 
L 5113 2094 
Q 5113 2597 4934 2840 
Q 4756 3084 4391 3084 
Q 3944 3084 3684 2787 
Q 3425 2491 3425 1978 
L 3425 0 
L 2847 0 
L 2847 2094 
Q 2847 2600 2669 2842 
Q 2491 3084 2119 3084 
Q 1678 3084 1418 2786 
Q 1159 2488 1159 1978 
L 1159 0 
L 581 0 
L 581 3500 
L 1159 3500 
L 1159 2956 
Q 1356 3278 1631 3431 
Q 1906 3584 2284 3584 
Q 2666 3584 2933 3390 
Q 3200 3197 3328 2828 
z
" transform="scale(0.015625)"/>
       <path id="DejaVuSans-74" d="M 1172 4494 
L 1172 3500 
L 2356 3500 
L 2356 3053 
L 1172 3053 
L 1172 1153 
Q 1172 725 1289 603 
Q 1406 481 1766 481 
L 2356 481 
L 2356 0 
L 1766 0 
Q 1100 0 847 248 
Q 594 497 594 1153 
L 594 3053 
L 172 3053 
L 172 3500 
L 594 3500 
L 594 4494 
L 1172 4494 
z
" transform="scale(0.015625)"/>
      </defs>
      <use xlink:href="#DejaVuSans-56"/>
      <use xlink:href="#DejaVuSans-61" x="60.658203"/>
      <use xlink:href="#DejaVuSans-6c" x="121.9375"/>
      <use xlink:href="#DejaVuSans-75" x="149.720703"/>
      <use xlink:href="#DejaVuSans-65" x="213.099609"/>
      <use xlink:href="#DejaVuSans-20" x="274.623047"/>
      <use xlink:href="#DejaVuSans-6f" x="306.410156"/>
      <use xlink:href="#DejaVuSans-66" x="367.591797"/>
      <use xlink:href="#DejaVuSans-20" x="402.796875"/>
      <use xlink:href="#DejaVuSans-70" x="434.583984"/>
      <use xlink:href="#DejaVuSans-61" x="498.060547"/>
      <use xlink:href="#DejaVuSans-72" x="559.339844"/>
      <use xlink:href="#DejaVuSans-61" x="600.453125"/>
      <use xlink:href="#DejaVuSans-6d" x="661.732422"/>
      <use xlink:href="#DejaVuSans-65" x="759.144531"/>
      <use xlink:href="#DejaVuSans-74" x="820.667969"/>
      <use xlink:href="#DejaVuSans-65" x="859.876953"/>
      <use xlink:href="#DejaVuSans-72" x="921.400391"/>
     </g>
    </g>
   </g>
   <g id="matplotlib.axis_2">
    <g id="ytick_1">
     <g id="line2d_8">
      <defs>
       <path id="m6c98e84186" d="M 0 0 
L -3.5 0 
" style="stroke: #000000; stroke-width: 0.8"/>
      </defs>
      <g>
       <use xlink:href="#m6c98e84186" x="70.22" y="246.04" style="stroke: #000000; stroke-width: 0.8"/>
      </g>
     </g>
     <g id="text_9">
      <!-- 0 -->
      <g transform="translate(56.8575 249.839219)scale(0.1 -0.1)">
       <use xlink:href="#DejaVuSans-30"/>
      </g>
     </g>
    </g>
    <g id="ytick_2">
     <g id="line2d_9">
      <g>
       <use xlink:href="#m6c98e84186" x="70.22" y="215.282728" style="stroke: #000000; stroke-width: 0.8"/>
      </g>
     </g>
     <g id="text_10">
      <!-- 20000 -->
      <g transform="translate(31.4075 219.081946)scale(0.1 -0.1)">
       <defs>
        <path id="DejaVuSans-32" d="M 1228 531 
L 3431 531 
L 3431 0 
L 469 0 
L 469 531 
Q 828 903 1448 1529 
Q 2069 2156 2228 2338 
Q 2531 2678 2651 2914 
Q 2772 3150 2772 3378 
Q 2772 3750 2511 3984 
Q 2250 4219 1831 4219 
Q 1534 4219 1204 4116 
Q 875 4013 500 3803 
L 500 4441 
Q 881 4594 1212 4672 
Q 1544 4750 1819 4750 
Q 2544 4750 2975 4387 
Q 3406 4025 3406 3419 
Q 3406 3131 3298 2873 
Q 3191 2616 2906 2266 
Q 2828 2175 2409 1742 
Q 1991 1309 1228 531 
z
" transform="scale(0.015625)"/>
       </defs>
       <use xlink:href="#DejaVuSans-32"/>
       <use xlink:href="#DejaVuSans-30" x="63.623047"/>
       <use xlink:href="#DejaVuSans-30" x="127.246094"/>
       <use xlink:href="#DejaVuSans-30" x="190.869141"/>
       <use xlink:href="#DejaVuSans-30" x="254.492188"/>
      </g>
     </g>
    </g>
    <g id="ytick_3">
     <g id="line2d_10">
      <g>
       <use xlink:href="#m6c98e84186" x="70.22" y="184.525455" style="stroke: #000000; stroke-width: 0.8"/>
      </g>
     </g>
     <g id="text_11">
      <!-- 40000 -->
      <g transform="translate(31.4075 188.324674)scale(0.1 -0.1)">
       <defs>
        <path id="DejaVuSans-34" d="M 2419 4116 
L 825 1625 
L 2419 1625 
L 2419 4116 
z
M 2253 4666 
L 3047 4666 
L 3047 1625 
L 3713 1625 
L 3713 1100 
L 3047 1100 
L 3047 0 
L 2419 0 
L 2419 1100 
L 313 1100 
L 313 1709 
L 2253 4666 
z
" transform="scale(0.015625)"/>
       </defs>
       <use xlink:href="#DejaVuSans-34"/>
       <use xlink:href="#DejaVuSans-30" x="63.623047"/>
       <use xlink:href="#DejaVuSans-30" x="127.246094"/>
       <use xlink:href="#DejaVuSans-30" x="190.869141"/>
       <use xlink:href="#DejaVuSans-30" x="254.492188"/>
      </g>
     </g>
    </g>
    <g id="ytick_4">
     <g id="line2d_11">
      <g>
       <use xlink:href="#m6c98e84186" x="70.22" y="153.768183" style="stroke: #000000; stroke-width: 0.8"/>
      </g>
     </g>
     <g id="text_12">
      <!-- 60000 -->
      <g transform="translate(31.4075 157.567402)scale(0.1 -0.1)">
       <defs>
        <path id="DejaVuSans-36" d="M 2113 2584 
Q 1688 2584 1439 2293 
Q 1191 2003 1191 1497 
Q 1191 994 1439 701 
Q 1688 409 2113 409 
Q 2538 409 2786 701 
Q 3034 994 3034 1497 
Q 3034 2003 2786 2293 
Q 2538 2584 2113 2584 
z
M 3366 4563 
L 3366 3988 
Q 3128 4100 2886 4159 
Q 2644 4219 2406 4219 
Q 1781 4219 1451 3797 
Q 1122 3375 1075 2522 
Q 1259 2794 1537 2939 
Q 1816 3084 2150 3084 
Q 2853 3084 3261 2657 
Q 3669 2231 3669 1497 
Q 3669 778 3244 343 
Q 2819 -91 2113 -91 
Q 1303 -91 875 529 
Q 447 1150 447 2328 
Q 447 3434 972 4092 
Q 1497 4750 2381 4750 
Q 2619 4750 2861 4703 
Q 3103 4656 3366 4563 
z
" transform="scale(0.015625)"/>
       </defs>
       <use xlink:href="#DejaVuSans-36"/>
       <use xlink:href="#DejaVuSans-30" x="63.623047"/>
       <use xlink:href="#DejaVuSans-30" x="127.246094"/>
       <use xlink:href="#DejaVuSans-30" x="190.869141"/>
       <use xlink:href="#DejaVuSans-30" x="254.492188"/>
      </g>
     </g>
    </g>
    <g id="ytick_5">
     <g id="line2d_12">
      <g>
       <use xlink:href="#m6c98e84186" x="70.22" y="123.010911" style="stroke: #000000; stroke-width: 0.8"/>
      </g>
     </g>
     <g id="text_13">
      <!-- 80000 -->
      <g transform="translate(31.4075 126.810129)scale(0.1 -0.1)">
       <defs>
        <path id="DejaVuSans-38" d="M 2034 2216 
Q 1584 2216 1326 1975 
Q 1069 1734 1069 1313 
Q 1069 891 1326 650 
Q 1584 409 2034 409 
Q 2484 409 2743 651 
Q 3003 894 3003 1313 
Q 3003 1734 2745 1975 
Q 2488 2216 2034 2216 
z
M 1403 2484 
Q 997 2584 770 2862 
Q 544 3141 544 3541 
Q 544 4100 942 4425 
Q 1341 4750 2034 4750 
Q 2731 4750 3128 4425 
Q 3525 4100 3525 3541 
Q 3525 3141 3298 2862 
Q 3072 2584 2669 2484 
Q 3125 2378 3379 2068 
Q 3634 1759 3634 1313 
Q 3634 634 3220 271 
Q 2806 -91 2034 -91 
Q 1263 -91 848 271 
Q 434 634 434 1313 
Q 434 1759 690 2068 
Q 947 2378 1403 2484 
z
M 1172 3481 
Q 1172 3119 1398 2916 
Q 1625 2713 2034 2713 
Q 2441 2713 2670 2916 
Q 2900 3119 2900 3481 
Q 2900 3844 2670 4047 
Q 2441 4250 2034 4250 
Q 1625 4250 1398 4047 
Q 1172 3844 1172 3481 
z
" transform="scale(0.015625)"/>
       </defs>
       <use xlink:href="#DejaVuSans-38"/>
       <use xlink:href="#DejaVuSans-30" x="63.623047"/>
       <use xlink:href="#DejaVuSans-30" x="127.246094"/>
       <use xlink:href="#DejaVuSans-30" x="190.869141"/>
       <use xlink:href="#DejaVuSans-30" x="254.492188"/>
      </g>
     </g>
    </g>
    <g id="ytick_6">
     <g id="line2d_13">
      <g>
       <use xlink:href="#m6c98e84186" x="70.22" y="92.253638" style="stroke: #000000; stroke-width: 0.8"/>
      </g>
     </g>
     <g id="text_14">
      <!-- 100000 -->
      <g transform="translate(25.045 96.052857)scale(0.1 -0.1)">
       <use xlink:href="#DejaVuSans-31"/>
       <use xlink:href="#DejaVuSans-30" x="63.623047"/>
       <use xlink:href="#DejaVuSans-30" x="127.246094"/>
       <use xlink:href="#DejaVuSans-30" x="190.869141"/>
       <use xlink:href="#DejaVuSans-30" x="254.492188"/>
       <use xlink:href="#DejaVuSans-30" x="318.115234"/>
      </g>
     </g>
    </g>
    <g id="ytick_7">
     <g id="line2d_14">
      <g>
       <use xlink:href="#m6c98e84186" x="70.22" y="61.496366" style="stroke: #000000; stroke-width: 0.8"/>
      </g>
     </g>
     <g id="text_15">
      <!-- 120000 -->
      <g transform="translate(25.045 65.295585)scale(0.1 -0.1)">
       <use xlink:href="#DejaVuSans-31"/>
       <use xlink:href="#DejaVuSans-32" x="63.623047"/>
       <use xlink:href="#DejaVuSans-30" x="127.246094"/>
       <use xlink:href="#DejaVuSans-30" x="190.869141"/>
       <use xlink:href="#DejaVuSans-30" x="254.492188"/>
       <use xlink:href="#DejaVuSans-30" x="318.115234"/>
      </g>
     </g>
    </g>
    <g id="ytick_8">
     <g id="line2d_15">
      <g>
       <use xlink:href="#m6c98e84186" x="70.22" y="30.739094" style="stroke: #000000; stroke-width: 0.8"/>
      </g>
     </g>
     <g id="text_16">
      <!-- 140000 -->
      <g transform="translate(25.045 34.538312)scale(0.1 -0.1)">
       <use xlink:href="#DejaVuSans-31"/>
       <use xlink:href="#DejaVuSans-34" x="63.623047"/>
       <use xlink:href="#DejaVuSans-30" x="127.246094"/>
       <use xlink:href="#DejaVuSans-30" x="190.869141"/>
       <use xlink:href="#DejaVuSans-30" x="254.492188"/>
       <use xlink:href="#DejaVuSans-30" x="318.115234"/>
      </g>
     </g>
    </g>
    <g id="text_17">
     <!-- Cumulative count -->
     <g transform="translate(18.965312 179.972813)rotate(-90)scale(0.1 -0.1)">
      <defs>
       <path id="DejaVuSans-43" d="M 4122 4306 
L 4122 3641 
Q 3803 3938 3442 4084 
Q 3081 4231 2675 4231 
Q 1875 4231 1450 3742 
Q 1025 3253 1025 2328 
Q 1025 1406 1450 917 
Q 1875 428 2675 428 
Q 3081 428 3442 575 
Q 3803 722 4122 1019 
L 4122 359 
Q 3791 134 3420 21 
Q 3050 -91 2638 -91 
Q 1578 -91 968 557 
Q 359 1206 359 2328 
Q 359 3453 968 4101 
Q 1578 4750 2638 4750 
Q 3056 4750 3426 4639 
Q 3797 4528 4122 4306 
z
" transform="scale(0.015625)"/>
       <path id="DejaVuSans-69" d="M 603 3500 
L 1178 3500 
L 1178 0 
L 603 0 
L 603 3500 
z
M 603 4863 
L 1178 4863 
L 1178 4134 
L 603 4134 
L 603 4863 
z
" transform="scale(0.015625)"/>
       <path id="DejaVuSans-76" d="M 191 3500 
L 800 3500 
L 1894 563 
L 2988 3500 
L 3597 3500 
L 2284 0 
L 1503 0 
L 191 3500 
z
" transform="scale(0.015625)"/>
       <path id="DejaVuSans-63" d="M 3122 3366 
L 3122 2828 
Q 2878 2963 2633 3030 
Q 2388 3097 2138 3097 
Q 1578 3097 1268 2742 
Q 959 2388 959 1747 
Q 959 1106 1268 751 
Q 1578 397 2138 397 
Q 2388 397 2633 464 
Q 2878 531 3122 666 
L 3122 134 
Q 2881 22 2623 -34 
Q 2366 -91 2075 -91 
Q 1284 -91 818 406 
Q 353 903 353 1747 
Q 353 2603 823 3093 
Q 1294 3584 2113 3584 
Q 2378 3584 2631 3529 
Q 2884 3475 3122 3366 
z
" transform="scale(0.015625)"/>
       <path id="DejaVuSans-6e" d="M 3513 2113 
L 3513 0 
L 2938 0 
L 2938 2094 
Q 2938 2591 2744 2837 
Q 2550 3084 2163 3084 
Q 1697 3084 1428 2787 
Q 1159 2491 1159 1978 
L 1159 0 
L 581 0 
L 581 3500 
L 1159 3500 
L 1159 2956 
Q 1366 3272 1645 3428 
Q 1925 3584 2291 3584 
Q 2894 3584 3203 3211 
Q 3513 2838 3513 2113 
z
" transform="scale(0.015625)"/>
      </defs>
      <use xlink:href="#DejaVuSans-43"/>
      <use xlink:href="#DejaVuSans-75" x="69.824219"/>
      <use xlink:href="#DejaVuSans-6d" x="133.203125"/>
      <use xlink:href="#DejaVuSans-75" x="230.615234"/>
      <use xlink:href="#DejaVuSans-6c" x="293.994141"/>
      <use xlink:href="#DejaVuSans-61" x="321.777344"/>
      <use xlink:href="#DejaVuSans-74" x="383.056641"/>
      <use xlink:href="#DejaVuSans-69" x="422.265625"/>
      <use xlink:href="#DejaVuSans-76" x="450.048828"/>
      <use xlink:href="#DejaVuSans-65" x="509.228516"/>
      <use xlink:href="#DejaVuSans-20" x="570.751953"/>
      <use xlink:href="#DejaVuSans-63" x="602.539062"/>
      <use xlink:href="#DejaVuSans-6f" x="657.519531"/>
      <use xlink:href="#DejaVuSans-75" x="718.701172"/>
      <use xlink:href="#DejaVuSans-6e" x="782.080078"/>
      <use xlink:href="#DejaVuSans-74" x="845.458984"/>
     </g>
    </g>
   </g>
   <g id="line2d_16">
    <path d="M 86.173636 232.854934 
L 405.246364 232.854934 
" clip-path="url(#p4fb52ad9af)" style="fill: none; stroke: #000000; stroke-linecap: square"/>
   </g>
   <g id="line2d_17">
    <path d="M 86.173636 219.669868 
L 405.246364 219.669868 
" clip-path="url(#p4fb52ad9af)" style="fill: none; stroke: #000000; stroke-linecap: square"/>
   </g>
   <g id="line2d_18">
    <path d="M 86.173636 206.484802 
L 405.246364 206.484802 
" clip-path="url(#p4fb52ad9af)" style="fill: none; stroke: #000000; stroke-linecap: square"/>
   </g>
   <g id="line2d_19">
    <path d="M 86.173636 193.299736 
L 405.246364 193.299736 
" clip-path="url(#p4fb52ad9af)" style="fill: none; stroke: #000000; stroke-linecap: square"/>
   </g>
   <g id="line2d_20">
    <path d="M 86.173636 180.11467 
L 405.246364 180.11467 
" clip-path="url(#p4fb52ad9af)" style="fill: none; stroke: #000000; stroke-linecap: square"/>
   </g>
   <g id="line2d_21">
    <path d="M 86.173636 166.929604 
L 405.246364 166.929604 
" clip-path="url(#p4fb52ad9af)" style="fill: none; stroke: #000000; stroke-linecap: square"/>
   </g>
   <g id="line2d_22">
    <path d="M 86.173636 153.744538 
L 405.246364 153.744538 
" clip-path="url(#p4fb52ad9af)" style="fill: none; stroke: #000000; stroke-linecap: square"/>
   </g>
   <g id="line2d_23">
    <path d="M 86.173636 140.559472 
L 405.246364 140.559472 
" clip-path="url(#p4fb52ad9af)" style="fill: none; stroke: #000000; stroke-linecap: square"/>
   </g>
   <g id="line2d_24">
    <path d="M 86.173636 127.374406 
L 405.246364 127.374406 
" clip-path="url(#p4fb52ad9af)" style="fill: none; stroke: #000000; stroke-linecap: square"/>
   </g>
   <g id="line2d_25">
    <path d="M 86.173636 114.18934 
L 405.246364 114.18934 
" clip-path="url(#p4fb52ad9af)" style="fill: none; stroke: #000000; stroke-linecap: square"/>
   </g>
   <g id="line2d_26">
    <path d="M 86.173636 101.004274 
L 405.246364 101.004274 
" clip-path="url(#p4fb52ad9af)" style="fill: none; stroke: #000000; stroke-linecap: square"/>
   </g>
   <g id="line2d_27">
    <path d="M 86.173636 87.819209 
L 405.246364 87.819209 
" clip-path="url(#p4fb52ad9af)" style="fill: none; stroke: #000000; stroke-linecap: square"/>
   </g>
   <g id="line2d_28">
    <path d="M 86.173636 74.634143 
L 405.246364 74.634143 
" clip-path="url(#p4fb52ad9af)" style="fill: none; stroke: #000000; stroke-linecap: square"/>
   </g>
   <g id="line2d_29">
    <path d="M 86.173636 61.449077 
L 405.246364 61.449077 
" clip-path="url(#p4fb52ad9af)" style="fill: none; stroke: #000000; stroke-linecap: square"/>
   </g>
   <g id="line2d_30">
    <path d="M 86.173636 48.264011 
L 405.246364 48.264011 
" clip-path="url(#p4fb52ad9af)" style="fill: none; stroke: #000000; stroke-linecap: square"/>
   </g>
   <g id="patch_203">
    <path d="M 70.22 246.04 
L 70.22 25.44 
" style="fill: none; stroke: #000000; stroke-width: 0.8; stroke-linejoin: miter; stroke-linecap: square"/>
   </g>
   <g id="patch_204">
    <path d="M 421.2 246.04 
L 421.2 25.44 
" style="fill: none; stroke: #000000; stroke-width: 0.8; stroke-linejoin: miter; stroke-linecap: square"/>
   </g>
   <g id="patch_205">
    <path d="M 70.22 246.04 
L 421.2 246.04 
" style="fill: none; stroke: #000000; stroke-width: 0.8; stroke-linejoin: miter; stroke-linecap: square"/>
   </g>
   <g id="patch_206">
    <path d="M 70.22 25.44 
L 421.2 25.44 
" style="fill: none; stroke: #000000; stroke-width: 0.8; stroke-linejoin: miter; stroke-linecap: square"/>
   </g>
   <g id="text_18">
    <!-- 4 bit quantization -->
    <g transform="translate(192.821875 19.44)scale(0.12 -0.12)">
     <defs>
      <path id="DejaVuSans-62" d="M 3116 1747 
Q 3116 2381 2855 2742 
Q 2594 3103 2138 3103 
Q 1681 3103 1420 2742 
Q 1159 2381 1159 1747 
Q 1159 1113 1420 752 
Q 1681 391 2138 391 
Q 2594 391 2855 752 
Q 3116 1113 3116 1747 
z
M 1159 2969 
Q 1341 3281 1617 3432 
Q 1894 3584 2278 3584 
Q 2916 3584 3314 3078 
Q 3713 2572 3713 1747 
Q 3713 922 3314 415 
Q 2916 -91 2278 -91 
Q 1894 -91 1617 61 
Q 1341 213 1159 525 
L 1159 0 
L 581 0 
L 581 4863 
L 1159 4863 
L 1159 2969 
z
" transform="scale(0.015625)"/>
      <path id="DejaVuSans-71" d="M 947 1747 
Q 947 1113 1208 752 
Q 1469 391 1925 391 
Q 2381 391 2643 752 
Q 2906 1113 2906 1747 
Q 2906 2381 2643 2742 
Q 2381 3103 1925 3103 
Q 1469 3103 1208 2742 
Q 947 2381 947 1747 
z
M 2906 525 
Q 2725 213 2448 61 
Q 2172 -91 1784 -91 
Q 1150 -91 751 415 
Q 353 922 353 1747 
Q 353 2572 751 3078 
Q 1150 3584 1784 3584 
Q 2172 3584 2448 3432 
Q 2725 3281 2906 2969 
L 2906 3500 
L 3481 3500 
L 3481 -1331 
L 2906 -1331 
L 2906 525 
z
" transform="scale(0.015625)"/>
      <path id="DejaVuSans-7a" d="M 353 3500 
L 3084 3500 
L 3084 2975 
L 922 459 
L 3084 459 
L 3084 0 
L 275 0 
L 275 525 
L 2438 3041 
L 353 3041 
L 353 3500 
z
" transform="scale(0.015625)"/>
     </defs>
     <use xlink:href="#DejaVuSans-34"/>
     <use xlink:href="#DejaVuSans-20" x="63.623047"/>
     <use xlink:href="#DejaVuSans-62" x="95.410156"/>
     <use xlink:href="#DejaVuSans-69" x="158.886719"/>
     <use xlink:href="#DejaVuSans-74" x="186.669922"/>
     <use xlink:href="#DejaVuSans-20" x="225.878906"/>
     <use xlink:href="#DejaVuSans-71" x="257.666016"/>
     <use xlink:href="#DejaVuSans-75" x="321.142578"/>
     <use xlink:href="#DejaVuSans-61" x="384.521484"/>
     <use xlink:href="#DejaVuSans-6e" x="445.800781"/>
     <use xlink:href="#DejaVuSans-74" x="509.179688"/>
     <use xlink:href="#DejaVuSans-69" x="548.388672"/>
     <use xlink:href="#DejaVuSans-7a" x="576.171875"/>
     <use xlink:href="#DejaVuSans-61" x="628.662109"/>
     <use xlink:href="#DejaVuSans-74" x="689.941406"/>
     <use xlink:href="#DejaVuSans-69" x="729.150391"/>
     <use xlink:href="#DejaVuSans-6f" x="756.933594"/>
     <use xlink:href="#DejaVuSans-6e" x="818.115234"/>
    </g>
   </g>
  </g>
 </g>
 <defs>
  <clipPath id="p4fb52ad9af">
   <rect x="70.22" y="25.44" width="350.98" height="220.6"/>
  </clipPath>
 </defs>
</svg>
